<?xml version="1.0" encoding="utf-8" standalone="no"?>
<!DOCTYPE svg PUBLIC "-//W3C//DTD SVG 1.1//EN"
  "http://www.w3.org/Graphics/SVG/1.1/DTD/svg11.dtd">
<svg xmlns:xlink="http://www.w3.org/1999/xlink" width="2880pt" height="1080pt" viewBox="0 0 2880 1080" xmlns="http://www.w3.org/2000/svg" version="1.1">
 <metadata>
  <rdf:RDF xmlns:dc="http://purl.org/dc/elements/1.1/" xmlns:cc="http://creativecommons.org/ns#" xmlns:rdf="http://www.w3.org/1999/02/22-rdf-syntax-ns#">
   <cc:Work>
    <dc:type rdf:resource="http://purl.org/dc/dcmitype/StillImage"/>
    <dc:date>2025-06-20T00:21:41.525503</dc:date>
    <dc:format>image/svg+xml</dc:format>
    <dc:creator>
     <cc:Agent>
      <dc:title>Matplotlib v3.9.4, https://matplotlib.org/</dc:title>
     </cc:Agent>
    </dc:creator>
   </cc:Work>
  </rdf:RDF>
 </metadata>
 <defs>
  <style type="text/css">*{stroke-linejoin: round; stroke-linecap: butt}</style>
 </defs>
 <g id="figure_1">
  <g id="patch_1">
   <path d="M 0 1080 
L 2880 1080 
L 2880 0 
L 0 0 
z
" style="fill: #ffffff"/>
  </g>
  <g id="axes_1">
   <g id="patch_2">
    <path d="M 461.939817 210.260687 
Q 396.569199 545.40074 461.512016 878.346085 
" clip-path="url(#pd6388480c0)" style="fill: none; stroke: #000000; stroke-width: 2; stroke-linecap: round"/>
    <path d="M 462.709232 874.037179 
L 461.512016 878.346085 
L 458.78322 874.802969 
z
" clip-path="url(#pd6388480c0)" style="stroke: #000000; stroke-width: 2; stroke-linecap: round"/>
   </g>
   <g id="patch_3">
    <path d="M 709.846719 210.142721 
Q 624.017442 541.308755 668.648176 878.237205 
" clip-path="url(#pd6388480c0)" style="fill: none; stroke: #000000; stroke-width: 2; stroke-linecap: round"/>
    <path d="M 670.105592 874.00921 
L 668.648176 878.237205 
L 666.14023 874.534476 
z
" clip-path="url(#pd6388480c0)" style="stroke: #000000; stroke-width: 2; stroke-linecap: round"/>
   </g>
   <g id="patch_4">
    <path d="M 711.879094 210.424428 
Q 706.262334 557.366382 830.683156 878.883164 
" clip-path="url(#pd6388480c0)" style="fill: none; stroke: #000000; stroke-width: 2; stroke-linecap: round"/>
    <path d="M 831.104765 874.430946 
L 830.683156 878.883164 
L 827.374347 875.874546 
z
" clip-path="url(#pd6388480c0)" style="stroke: #000000; stroke-width: 2; stroke-linecap: round"/>
   </g>
   <g id="patch_5">
    <path d="M 1160.093071 209.633941 
Q 1014.340764 529.337748 999.608264 878.151314 
" clip-path="url(#pd6388480c0)" style="fill: none; stroke: #000000; stroke-width: 2; stroke-linecap: round"/>
    <path d="M 1001.775276 874.239274 
L 999.608264 878.151314 
L 997.778839 874.07048 
z
" clip-path="url(#pd6388480c0)" style="stroke: #000000; stroke-width: 2; stroke-linecap: round"/>
   </g>
   <g id="patch_6">
    <path d="M 1162.024755 210.260687 
Q 1096.654137 545.40074 1161.596954 878.346085 
" clip-path="url(#pd6388480c0)" style="fill: none; stroke: #000000; stroke-width: 2; stroke-linecap: round"/>
    <path d="M 1162.794169 874.037179 
L 1161.596954 878.346085 
L 1158.868158 874.802969 
z
" clip-path="url(#pd6388480c0)" style="stroke: #000000; stroke-width: 2; stroke-linecap: round"/>
   </g>
   <g id="patch_7">
    <path d="M 1164.048519 210.415521 
Q 1178.875547 561.463123 1323.700452 879.132286 
" clip-path="url(#pd6388480c0)" style="fill: none; stroke: #000000; stroke-width: 2; stroke-linecap: round"/>
    <path d="M 1323.860964 874.663032 
L 1323.700452 879.132286 
L 1320.221356 876.322324 
z
" clip-path="url(#pd6388480c0)" style="stroke: #000000; stroke-width: 2; stroke-linecap: round"/>
   </g>
   <g id="patch_8">
    <path d="M 1660.112657 209.621284 
Q 1512.782743 529.022483 1496.486583 878.149453 
" clip-path="url(#pd6388480c0)" style="fill: none; stroke: #000000; stroke-width: 2; stroke-linecap: round"/>
    <path d="M 1498.670912 874.247056 
L 1496.486583 878.149453 
L 1494.675262 874.060551 
z
" clip-path="url(#pd6388480c0)" style="stroke: #000000; stroke-width: 2; stroke-linecap: round"/>
   </g>
   <g id="patch_9">
    <path d="M 1662.080816 210.260687 
Q 1596.710198 545.40074 1661.653015 878.346085 
" clip-path="url(#pd6388480c0)" style="fill: none; stroke: #000000; stroke-width: 2; stroke-linecap: round"/>
    <path d="M 1662.85023 874.037179 
L 1661.653015 878.346085 
L 1658.924219 874.802969 
z
" clip-path="url(#pd6388480c0)" style="stroke: #000000; stroke-width: 2; stroke-linecap: round"/>
   </g>
   <g id="patch_10">
    <path d="M 1664.10458 210.415521 
Q 1678.931609 561.463123 1823.756513 879.132286 
" clip-path="url(#pd6388480c0)" style="fill: none; stroke: #000000; stroke-width: 2; stroke-linecap: round"/>
    <path d="M 1823.917026 874.663032 
L 1823.756513 879.132286 
L 1820.277417 876.322324 
z
" clip-path="url(#pd6388480c0)" style="stroke: #000000; stroke-width: 2; stroke-linecap: round"/>
   </g>
   <g id="patch_11">
    <path d="M 2072.419953 209.998329 
Q 1966.900874 537.372669 1992.007523 878.172691 
" clip-path="url(#pd6388480c0)" style="fill: none; stroke: #000000; stroke-width: 2; stroke-linecap: round"/>
    <path d="M 1993.708235 874.03656 
L 1992.007523 878.172691 
L 1989.719046 874.330443 
z
" clip-path="url(#pd6388480c0)" style="stroke: #000000; stroke-width: 2; stroke-linecap: round"/>
   </g>
   <g id="patch_12">
    <path d="M 2074.439102 210.397203 
Q 2049.168152 553.427251 2154.00124 878.673346 
" clip-path="url(#pd6388480c0)" style="fill: none; stroke: #000000; stroke-width: 2; stroke-linecap: round"/>
    <path d="M 2154.677693 874.252666 
L 2154.00124 878.673346 
L 2150.870568 875.479776 
z
" clip-path="url(#pd6388480c0)" style="stroke: #000000; stroke-width: 2; stroke-linecap: round"/>
   </g>
   <g id="patch_13">
    <path d="M 2401.489103 209.998329 
Q 2295.970024 537.372669 2321.076673 878.172691 
" clip-path="url(#pd6388480c0)" style="fill: none; stroke: #000000; stroke-width: 2; stroke-linecap: round"/>
    <path d="M 2322.777385 874.03656 
L 2321.076673 878.172691 
L 2318.788196 874.330443 
z
" clip-path="url(#pd6388480c0)" style="stroke: #000000; stroke-width: 2; stroke-linecap: round"/>
   </g>
   <g id="patch_14">
    <path d="M 2403.508252 210.397203 
Q 2378.237302 553.427251 2483.07039 878.673346 
" clip-path="url(#pd6388480c0)" style="fill: none; stroke: #000000; stroke-width: 2; stroke-linecap: round"/>
    <path d="M 2483.746843 874.252666 
L 2483.07039 878.673346 
L 2479.939718 875.479776 
z
" clip-path="url(#pd6388480c0)" style="stroke: #000000; stroke-width: 2; stroke-linecap: round"/>
   </g>
   <g id="text_1">
    <g id="patch_15">
     <path d="M 453.658217 542.202187 
L 453.658217 548.597812 
Q 453.658217 552.197812 457.258217 552.197812 
L 469.978217 552.197812 
Q 473.578217 552.197812 473.578217 548.597812 
L 473.578217 542.202187 
Q 473.578217 538.602187 469.978217 538.602187 
L 457.258217 538.602187 
Q 453.658217 538.602187 453.658217 542.202187 
z
" clip-path="url(#pd6388480c0)" style="fill: #ffffff; stroke: #ffffff; stroke-linejoin: miter"/>
    </g>
    <g clip-path="url(#pd6388480c0)">
     <!-- 1 -->
     <g transform="translate(460.378217 542.202187) rotate(-270) scale(0.12 -0.12)">
      <defs>
       <path id="NotoSerifCJKjp-ExtraLight-31" d="M 1997 250 
C 1990 659 1984 1062 1984 1459 
L 1984 3616 
L 2010 4614 
L 1914 4691 
L 614 4346 
L 614 4160 
L 1600 4333 
L 1600 1459 
C 1600 1062 1594 653 1587 250 
L 544 173 
L 544 0 
L 3002 0 
L 3002 173 
L 1997 250 
z
" transform="scale(0.015625)"/>
      </defs>
      <use xlink:href="#NotoSerifCJKjp-ExtraLight-31"/>
     </g>
    </g>
   </g>
   <g id="text_2">
    <g id="patch_16">
     <path d="M 700.816248 549.198546 
L 701.20581 542.814796 
Q 701.425089 539.221481 697.831773 539.002202 
L 685.135392 538.227417 
Q 681.542076 538.008138 681.322797 541.601454 
L 680.933235 547.985204 
Q 680.713956 551.578519 684.307272 551.797798 
L 697.003653 552.572583 
Q 700.596969 552.791862 700.816248 549.198546 
z
" clip-path="url(#pd6388480c0)" style="fill: #ffffff; stroke: #ffffff; stroke-linejoin: miter"/>
    </g>
    <g clip-path="url(#pd6388480c0)">
     <!-- 3 -->
     <g transform="translate(694.108725 548.789226) rotate(-86.507908) scale(0.12 -0.12)">
      <defs>
       <path id="NotoSerifCJKjp-ExtraLight-33" d="M 1062 4435 
C 1242 4499 1408 4525 1594 4525 
C 2176 4525 2496 4166 2496 3584 
C 2496 2918 2035 2541 1402 2541 
L 1126 2541 
L 1126 2330 
L 1434 2330 
C 2234 2330 2637 1920 2637 1229 
C 2637 557 2221 102 1498 102 
C 1286 102 1107 141 941 211 
L 787 659 
C 730 845 659 928 531 928 
C 422 928 339 864 301 755 
C 461 186 928 -90 1587 -90 
C 2426 -90 3040 410 3040 1203 
C 3040 1869 2656 2330 1901 2445 
C 2541 2605 2899 3059 2899 3597 
C 2899 4262 2426 4717 1664 4717 
C 1107 4717 570 4480 429 3885 
C 461 3776 544 3731 640 3731 
C 774 3731 845 3795 909 3981 
L 1062 4435 
z
" transform="scale(0.015625)"/>
      </defs>
      <use xlink:href="#NotoSerifCJKjp-ExtraLight-33"/>
     </g>
    </g>
   </g>
   <g id="text_3">
    <g id="patch_17">
     <path d="M 762.970028 544.000917 
L 764.093139 550.297158 
Q 764.725321 553.841215 768.269379 553.209033 
L 780.791717 550.975323 
Q 784.335774 550.34314 783.703592 546.799083 
L 782.580481 540.502842 
Q 781.948299 536.958785 778.404241 537.590967 
L 765.881903 539.824677 
Q 762.337846 540.45686 762.970028 544.000917 
z
" clip-path="url(#pd6388480c0)" style="fill: #ffffff; stroke: #ffffff; stroke-linejoin: miter"/>
    </g>
    <g clip-path="url(#pd6388480c0)">
     <!-- 4 -->
     <g transform="translate(769.585602 542.820844) rotate(-280.113936) scale(0.12 -0.12)">
      <defs>
       <path id="NotoSerifCJKjp-ExtraLight-34" d="M 480 1805 
L 2163 4224 
L 2163 1805 
L 480 1805 
z
M 3309 1805 
L 2528 1805 
L 2528 4685 
L 2272 4685 
L 211 1747 
L 211 1510 
L 2163 1510 
L 2163 0 
L 2528 0 
L 2528 1510 
L 3309 1510 
L 3309 1805 
z
" transform="scale(0.015625)"/>
      </defs>
      <use xlink:href="#NotoSerifCJKjp-ExtraLight-34"/>
     </g>
    </g>
   </g>
   <g id="text_4">
    <g id="patch_18">
     <path d="M 1090.377632 550.828852 
L 1091.866682 544.608985 
Q 1092.704845 541.107916 1089.203777 540.269753 
L 1076.833334 537.308242 
Q 1073.332265 536.470079 1072.494102 539.971148 
L 1071.005052 546.191015 
Q 1070.166889 549.692084 1073.667957 550.530247 
L 1086.0384 553.491758 
Q 1089.539469 554.329921 1090.377632 550.828852 
z
" clip-path="url(#pd6388480c0)" style="fill: #ffffff; stroke: #ffffff; stroke-linejoin: miter"/>
    </g>
    <g clip-path="url(#pd6388480c0)">
     <!-- 1 -->
     <g transform="translate(1083.842304 549.264281) rotate(-76.536659) scale(0.12 -0.12)">
      <use xlink:href="#NotoSerifCJKjp-ExtraLight-31"/>
     </g>
    </g>
   </g>
   <g id="text_5">
    <g id="patch_19">
     <path d="M 1153.743154 542.202187 
L 1153.743154 548.597812 
Q 1153.743154 552.197812 1157.343154 552.197812 
L 1170.063154 552.197812 
Q 1173.663154 552.197812 1173.663154 548.597812 
L 1173.663154 542.202187 
Q 1173.663154 538.602187 1170.063154 538.602187 
L 1157.343154 538.602187 
Q 1153.743154 538.602187 1153.743154 542.202187 
z
" clip-path="url(#pd6388480c0)" style="fill: #ffffff; stroke: #ffffff; stroke-linejoin: miter"/>
    </g>
    <g clip-path="url(#pd6388480c0)">
     <!-- 3 -->
     <g transform="translate(1160.463154 542.202187) rotate(-270) scale(0.12 -0.12)">
      <use xlink:href="#NotoSerifCJKjp-ExtraLight-33"/>
     </g>
    </g>
   </g>
   <g id="text_6">
    <g id="patch_20">
     <path d="M 1235.539627 544.608985 
L 1237.028677 550.828852 
Q 1237.86684 554.329921 1241.367909 553.491758 
L 1253.738352 550.530247 
Q 1257.23942 549.692084 1256.401257 546.191015 
L 1254.912207 539.971148 
Q 1254.074044 536.470079 1250.572975 537.308242 
L 1238.202532 540.269753 
Q 1234.701464 541.107916 1235.539627 544.608985 
z
" clip-path="url(#pd6388480c0)" style="fill: #ffffff; stroke: #ffffff; stroke-linejoin: miter"/>
    </g>
    <g clip-path="url(#pd6388480c0)">
     <!-- 2 -->
     <g transform="translate(1242.074955 543.044413) rotate(-283.463341) scale(0.12 -0.12)">
      <defs>
       <path id="NotoSerifCJKjp-ExtraLight-32" d="M 646 358 
C 1069 838 1472 1299 1645 1491 
C 2560 2515 2886 2970 2886 3520 
C 2886 4250 2458 4717 1638 4717 
C 1024 4717 486 4397 326 3821 
C 371 3725 454 3667 550 3667 
C 672 3667 755 3750 819 3949 
L 1005 4422 
C 1197 4499 1363 4525 1542 4525 
C 2144 4525 2483 4096 2483 3514 
C 2483 2995 2214 2547 1536 1715 
C 1222 1344 787 806 339 275 
L 339 0 
L 3104 0 
L 3104 358 
L 646 358 
z
" transform="scale(0.015625)"/>
      </defs>
      <use xlink:href="#NotoSerifCJKjp-ExtraLight-32"/>
     </g>
    </g>
   </g>
   <g id="text_7">
    <g id="patch_21">
     <path d="M 1588.796445 550.868455 
L 1590.313064 544.655253 
Q 1591.166747 541.157936 1587.66943 540.304254 
L 1575.312243 537.28791 
Q 1571.814926 536.434228 1570.961243 539.931545 
L 1569.444623 546.144747 
Q 1568.590941 549.642064 1572.088258 550.495746 
L 1584.445445 553.51209 
Q 1587.942762 554.365772 1588.796445 550.868455 
z
" clip-path="url(#pd6388480c0)" style="fill: #ffffff; stroke: #ffffff; stroke-linejoin: miter"/>
    </g>
    <g clip-path="url(#pd6388480c0)">
     <!-- 1 -->
     <g transform="translate(1582.268119 549.274915) rotate(-76.282555) scale(0.12 -0.12)">
      <use xlink:href="#NotoSerifCJKjp-ExtraLight-31"/>
     </g>
    </g>
   </g>
   <g id="text_8">
    <g id="patch_22">
     <path d="M 1653.799215 542.202187 
L 1653.799215 548.597812 
Q 1653.799215 552.197812 1657.399215 552.197812 
L 1670.119215 552.197812 
Q 1673.719215 552.197812 1673.719215 548.597812 
L 1673.719215 542.202187 
Q 1673.719215 538.602187 1670.119215 538.602187 
L 1657.399215 538.602187 
Q 1653.799215 538.602187 1653.799215 542.202187 
z
" clip-path="url(#pd6388480c0)" style="fill: #ffffff; stroke: #ffffff; stroke-linejoin: miter"/>
    </g>
    <g clip-path="url(#pd6388480c0)">
     <!-- 3 -->
     <g transform="translate(1660.519215 542.202187) rotate(-270) scale(0.12 -0.12)">
      <use xlink:href="#NotoSerifCJKjp-ExtraLight-33"/>
     </g>
    </g>
   </g>
   <g id="text_9">
    <g id="patch_23">
     <path d="M 1735.595688 544.608985 
L 1737.084738 550.828852 
Q 1737.922901 554.329921 1741.42397 553.491758 
L 1753.794413 550.530247 
Q 1757.295481 549.692084 1756.457318 546.191015 
L 1754.968268 539.971148 
Q 1754.130105 536.470079 1750.629036 537.308242 
L 1738.258593 540.269753 
Q 1734.757525 541.107916 1735.595688 544.608985 
z
" clip-path="url(#pd6388480c0)" style="fill: #ffffff; stroke: #ffffff; stroke-linejoin: miter"/>
    </g>
    <g clip-path="url(#pd6388480c0)">
     <!-- 2 -->
     <g transform="translate(1742.131016 543.044413) rotate(-283.46334) scale(0.12 -0.12)">
      <use xlink:href="#NotoSerifCJKjp-ExtraLight-32"/>
     </g>
    </g>
   </g>
   <g id="text_10">
    <g id="patch_24">
     <path d="M 2043.471343 549.758918 
L 2044.23148 543.408626 
Q 2044.65935 539.834143 2041.084867 539.406274 
L 2028.455027 537.894468 
Q 2024.880544 537.466599 2024.452675 541.041082 
L 2023.692538 547.391374 
Q 2023.264669 550.965857 2026.839151 551.393726 
L 2039.468991 552.905532 
Q 2043.043474 553.333401 2043.471343 549.758918 
z
" clip-path="url(#pd6388480c0)" style="fill: #ffffff; stroke: #ffffff; stroke-linejoin: miter"/>
    </g>
    <g clip-path="url(#pd6388480c0)">
     <!-- 1 -->
     <g transform="translate(2036.798975 548.960229) rotate(-83.174111) scale(0.12 -0.12)">
      <use xlink:href="#NotoSerifCJKjp-ExtraLight-31"/>
     </g>
    </g>
   </g>
   <g id="text_11">
    <g id="patch_25">
     <path d="M 2105.959826 543.408626 
L 2106.719962 549.758918 
Q 2107.147832 553.333401 2110.722315 552.905532 
L 2123.352154 551.393726 
Q 2126.926637 550.965857 2126.498768 547.391374 
L 2125.738631 541.041082 
Q 2125.310761 537.466599 2121.736278 537.894468 
L 2109.106439 539.406274 
Q 2105.531956 539.834143 2105.959826 543.408626 
z
" clip-path="url(#pd6388480c0)" style="fill: #ffffff; stroke: #ffffff; stroke-linejoin: miter"/>
    </g>
    <g clip-path="url(#pd6388480c0)">
     <!-- 2 -->
     <g transform="translate(2112.632194 542.609936) rotate(-276.825889) scale(0.12 -0.12)">
      <use xlink:href="#NotoSerifCJKjp-ExtraLight-32"/>
     </g>
    </g>
   </g>
   <g id="text_12">
    <g id="patch_26">
     <path d="M 2372.540493 549.758918 
L 2373.30063 543.408626 
Q 2373.728499 539.834143 2370.154017 539.406274 
L 2357.524177 537.894468 
Q 2353.949694 537.466599 2353.521825 541.041082 
L 2352.761688 547.391374 
Q 2352.333819 550.965857 2355.908301 551.393726 
L 2368.538141 552.905532 
Q 2372.112624 553.333401 2372.540493 549.758918 
z
" clip-path="url(#pd6388480c0)" style="fill: #ffffff; stroke: #ffffff; stroke-linejoin: miter"/>
    </g>
    <g clip-path="url(#pd6388480c0)">
     <!-- 1 -->
     <g transform="translate(2365.868125 548.960229) rotate(-83.174111) scale(0.12 -0.12)">
      <use xlink:href="#NotoSerifCJKjp-ExtraLight-31"/>
     </g>
    </g>
   </g>
   <g id="text_13">
    <g id="patch_27">
     <path d="M 2435.028975 543.408626 
L 2435.789112 549.758918 
Q 2436.216982 553.333401 2439.791465 552.905532 
L 2452.421304 551.393726 
Q 2455.995787 550.965857 2455.567917 547.391374 
L 2454.807781 541.041082 
Q 2454.379911 537.466599 2450.805428 537.894468 
L 2438.175589 539.406274 
Q 2434.601106 539.834143 2435.028975 543.408626 
z
" clip-path="url(#pd6388480c0)" style="fill: #ffffff; stroke: #ffffff; stroke-linejoin: miter"/>
    </g>
    <g clip-path="url(#pd6388480c0)">
     <!-- 2 -->
     <g transform="translate(2441.701343 542.609936) rotate(-276.825889) scale(0.12 -0.12)">
      <use xlink:href="#NotoSerifCJKjp-ExtraLight-32"/>
     </g>
    </g>
   </g>
   <g id="matplotlib.axis_1">
    <g id="xtick_1"/>
    <g id="xtick_2"/>
    <g id="xtick_3"/>
    <g id="xtick_4"/>
    <g id="xtick_5"/>
    <g id="xtick_6"/>
    <g id="xtick_7"/>
   </g>
   <g id="matplotlib.axis_2">
    <g id="ytick_1"/>
    <g id="ytick_2"/>
    <g id="ytick_3"/>
    <g id="ytick_4"/>
    <g id="ytick_5"/>
    <g id="ytick_6"/>
    <g id="ytick_7"/>
    <g id="ytick_8"/>
   </g>
   <g id="PathCollection_1">
    <defs>
     <path id="m2648a83465" d="M 0 15 
C 3.978047 15 7.793698 13.419505 10.606602 10.606602 
C 13.419505 7.793698 15 3.978047 15 0 
C 15 -3.978047 13.419505 -7.793698 10.606602 -10.606602 
C 7.793698 -13.419505 3.978047 -15 0 -15 
C -3.978047 -15 -7.793698 -13.419505 -10.606602 -10.606602 
C -13.419505 -7.793698 -15 -3.978047 -15 0 
C -15 3.978047 -13.419505 7.793698 -10.606602 10.606602 
C -7.793698 13.419505 -3.978047 15 0 15 
z
" style="stroke: #add8e6; stroke-opacity: 0.85"/>
    </defs>
    <g clip-path="url(#pd6388480c0)">
     <use xlink:href="#m2648a83465" x="463.618217" y="201.763636" style="fill: #add8e6; fill-opacity: 0.85; stroke: #add8e6; stroke-opacity: 0.85"/>
     <use xlink:href="#m2648a83465" x="463.618217" y="889.036364" style="fill: #add8e6; fill-opacity: 0.85; stroke: #add8e6; stroke-opacity: 0.85"/>
     <use xlink:href="#m2648a83465" x="712.039615" y="201.763636" style="fill: #add8e6; fill-opacity: 0.85; stroke: #add8e6; stroke-opacity: 0.85"/>
     <use xlink:href="#m2648a83465" x="670.09943" y="889.036364" style="fill: #add8e6; fill-opacity: 0.85; stroke: #add8e6; stroke-opacity: 0.85"/>
     <use xlink:href="#m2648a83465" x="834.634005" y="889.036364" style="fill: #add8e6; fill-opacity: 0.85; stroke: #add8e6; stroke-opacity: 0.85"/>
     <use xlink:href="#m2648a83465" x="1163.703154" y="201.763636" style="fill: #add8e6; fill-opacity: 0.85; stroke: #add8e6; stroke-opacity: 0.85"/>
     <use xlink:href="#m2648a83465" x="999.168579" y="889.036364" style="fill: #add8e6; fill-opacity: 0.85; stroke: #add8e6; stroke-opacity: 0.85"/>
     <use xlink:href="#m2648a83465" x="1163.703154" y="889.036364" style="fill: #add8e6; fill-opacity: 0.85; stroke: #add8e6; stroke-opacity: 0.85"/>
     <use xlink:href="#m2648a83465" x="1328.237729" y="889.036364" style="fill: #add8e6; fill-opacity: 0.85; stroke: #add8e6; stroke-opacity: 0.85"/>
     <use xlink:href="#m2648a83465" x="1663.759215" y="201.763636" style="fill: #add8e6; fill-opacity: 0.85; stroke: #add8e6; stroke-opacity: 0.85"/>
     <use xlink:href="#m2648a83465" x="1495.998472" y="889.036364" style="fill: #add8e6; fill-opacity: 0.85; stroke: #add8e6; stroke-opacity: 0.85"/>
     <use xlink:href="#m2648a83465" x="1663.759215" y="889.036364" style="fill: #add8e6; fill-opacity: 0.85; stroke: #add8e6; stroke-opacity: 0.85"/>
     <use xlink:href="#m2648a83465" x="1828.29379" y="889.036364" style="fill: #add8e6; fill-opacity: 0.85; stroke: #add8e6; stroke-opacity: 0.85"/>
     <use xlink:href="#m2648a83465" x="2075.095653" y="201.763636" style="fill: #add8e6; fill-opacity: 0.85; stroke: #add8e6; stroke-opacity: 0.85"/>
     <use xlink:href="#m2648a83465" x="1992.828365" y="889.036364" style="fill: #add8e6; fill-opacity: 0.85; stroke: #add8e6; stroke-opacity: 0.85"/>
     <use xlink:href="#m2648a83465" x="2157.36294" y="889.036364" style="fill: #add8e6; fill-opacity: 0.85; stroke: #add8e6; stroke-opacity: 0.85"/>
     <use xlink:href="#m2648a83465" x="2404.164803" y="201.763636" style="fill: #add8e6; fill-opacity: 0.85; stroke: #add8e6; stroke-opacity: 0.85"/>
     <use xlink:href="#m2648a83465" x="2321.897515" y="889.036364" style="fill: #add8e6; fill-opacity: 0.85; stroke: #add8e6; stroke-opacity: 0.85"/>
     <use xlink:href="#m2648a83465" x="2486.43209" y="889.036364" style="fill: #add8e6; fill-opacity: 0.85; stroke: #add8e6; stroke-opacity: 0.85"/>
    </g>
   </g>
   <g id="text_14">
    <g clip-path="url(#pd6388480c0)">
     <!-- 權以順 -->
     <g transform="translate(445.618217 197.683636) scale(0.12 -0.12)">
      <defs>
       <path id="NotoSerifCJKjp-ExtraLight-6b0a" d="M 2234 4595 
L 3251 4595 
L 3251 4147 
L 3309 4147 
C 3418 4147 3539 4224 3539 4262 
L 3539 4595 
L 4550 4595 
L 4550 4147 
L 4608 4147 
C 4717 4147 4838 4224 4838 4262 
L 4838 4595 
L 5965 4595 
C 6054 4595 6112 4627 6131 4698 
C 5939 4870 5645 5107 5645 5107 
L 5376 4787 
L 4838 4787 
L 4838 5088 
C 4998 5114 5062 5171 5075 5267 
L 4550 5318 
L 4550 4787 
L 3539 4787 
L 3539 5088 
C 3693 5114 3763 5171 3776 5267 
L 3251 5318 
L 3251 4787 
L 2182 4787 
L 2234 4595 
z
M 2797 3104 
L 2797 3776 
L 3616 3776 
L 3616 3104 
L 2797 3104 
z
M 3648 2720 
C 3744 2720 3891 2790 3898 2829 
L 3898 3731 
C 4006 3750 4102 3802 4141 3846 
L 3731 4154 
L 3558 3968 
L 2822 3968 
L 2515 4115 
L 2515 2605 
L 2560 2605 
C 2675 2605 2797 2675 2797 2701 
L 2797 2912 
L 3616 2912 
L 3616 2720 
L 3648 2720 
z
M 1498 3674 
L 2259 3674 
C 2349 3674 2400 3706 2419 3776 
C 2240 3949 1952 4173 1952 4173 
L 1702 3866 
L 1498 3866 
L 1498 5088 
C 1651 5114 1702 5171 1722 5267 
L 1210 5325 
L 1210 3866 
L 333 3866 
L 384 3674 
L 1107 3674 
C 960 2746 685 1843 243 1107 
L 339 1024 
C 736 1549 1011 2150 1210 2803 
L 1210 -461 
L 1274 -461 
C 1376 -461 1498 -390 1498 -333 
L 1498 2669 
C 1696 2419 1939 2074 2016 1818 
C 2349 1587 2586 2246 1498 2803 
L 1498 3674 
z
M 3046 512 
L 4038 512 
L 4038 6 
L 3046 6 
L 3046 512 
z
M 4038 1882 
L 4038 1395 
L 3046 1395 
L 3046 1882 
L 4038 1882 
z
M 4038 698 
L 3046 698 
L 3046 1203 
L 4038 1203 
L 4038 698 
z
M 5485 3776 
L 5485 3104 
L 4666 3104 
L 4666 3776 
L 5485 3776 
z
M 5357 6 
L 4320 6 
L 4320 512 
L 5613 512 
C 5702 512 5754 544 5773 614 
C 5600 781 5318 1005 5318 1005 
L 5082 698 
L 4320 698 
L 4320 1203 
L 5638 1203 
C 5722 1203 5779 1235 5792 1306 
C 5626 1478 5344 1696 5344 1696 
L 5101 1395 
L 4320 1395 
L 4320 1882 
L 5818 1882 
C 5901 1882 5965 1914 5984 1978 
C 5792 2157 5498 2387 5498 2387 
L 5235 2067 
L 4237 2067 
C 4333 2202 4442 2349 4518 2470 
C 4646 2464 4736 2509 4762 2592 
L 4403 2688 
L 4429 2688 
C 4538 2688 4666 2752 4666 2771 
L 4666 2912 
L 5485 2912 
L 5485 2662 
L 5523 2662 
C 5619 2662 5760 2739 5766 2771 
L 5766 3731 
C 5875 3750 5978 3802 6016 3846 
L 5606 4154 
L 5427 3968 
L 4691 3968 
L 4384 4115 
L 4384 2694 
L 4262 2726 
C 4205 2541 4109 2266 4045 2067 
L 3123 2067 
C 3206 2195 3290 2330 3360 2464 
C 3494 2438 3578 2490 3610 2554 
L 3155 2771 
C 2848 2054 2381 1421 1946 1050 
L 2035 960 
C 2285 1126 2541 1357 2778 1626 
L 2778 -474 
L 2810 -474 
C 2944 -474 3046 -403 3046 -378 
L 3046 -179 
L 5933 -179 
C 6022 -179 6080 -154 6099 -83 
C 5914 96 5619 326 5619 326 
L 5357 6 
z
" transform="scale(0.015625)"/>
       <path id="NotoSerifCJKjp-ExtraLight-4ee5" d="M 2381 4262 
C 2803 3917 3386 3315 3565 2886 
C 3968 2650 4128 3526 2458 4320 
L 2381 4262 
z
M 3219 1626 
C 2605 1382 1990 1146 1478 947 
L 1414 4806 
C 1568 4832 1626 4890 1632 4979 
L 1133 5030 
L 1203 845 
C 781 685 442 563 237 506 
L 461 90 
C 518 115 570 186 582 250 
C 1715 762 2598 1210 3258 1523 
L 3219 1626 
z
M 5126 5011 
C 5062 2662 4730 960 1779 -333 
L 1856 -461 
C 3110 38 3917 614 4442 1274 
C 4966 794 5613 90 5818 -410 
C 6246 -678 6387 250 4525 1382 
C 5235 2342 5376 3475 5434 4762 
C 5581 4781 5658 4851 5677 4941 
L 5126 5011 
z
" transform="scale(0.015625)"/>
       <path id="NotoSerifCJKjp-ExtraLight-9806" d="M 742 2752 
C 742 1632 678 480 230 -397 
L 346 -467 
C 922 416 1024 1626 1030 2752 
L 1030 4851 
C 1184 4870 1229 4934 1248 5024 
L 742 5082 
L 742 2752 
z
M 1523 384 
L 1581 384 
C 1690 384 1811 454 1811 512 
L 1811 4493 
C 1946 4518 1997 4576 2016 4659 
L 1523 4717 
L 1523 384 
z
M 2675 4870 
C 2829 4896 2886 4960 2899 5050 
L 2387 5114 
L 2387 115 
L 2445 115 
C 2554 115 2675 186 2675 243 
L 2675 4870 
z
M 2477 -474 
C 3136 -282 3872 83 4250 467 
C 4358 429 4435 442 4467 499 
L 4051 736 
C 3706 294 3021 -128 2419 -371 
L 2477 -474 
z
M 4730 634 
C 5120 384 5645 -77 5805 -422 
C 6189 -621 6317 205 4800 698 
L 4730 634 
z
M 5504 3802 
L 5504 3053 
L 3616 3053 
L 3616 3802 
L 5504 3802 
z
M 3616 1133 
L 3616 1907 
L 5504 1907 
L 5504 1133 
L 3616 1133 
z
M 3616 2861 
L 5504 2861 
L 5504 2093 
L 3616 2093 
L 3616 2861 
z
M 5427 4966 
L 3027 4966 
L 3078 4781 
L 4301 4781 
C 4262 4525 4198 4211 4141 3994 
L 3648 3994 
L 3334 4154 
L 3334 646 
L 3386 646 
C 3514 646 3616 710 3616 742 
L 3616 947 
L 5504 947 
L 5504 672 
L 5542 672 
C 5645 672 5779 762 5786 800 
L 5786 3763 
C 5894 3782 5990 3827 6029 3872 
L 5632 4186 
L 5446 3994 
L 4339 3994 
C 4454 4211 4576 4512 4678 4781 
L 6010 4781 
C 6099 4781 6157 4813 6170 4877 
C 5990 5056 5690 5293 5690 5293 
L 5427 4966 
z
" transform="scale(0.015625)"/>
      </defs>
      <use xlink:href="#NotoSerifCJKjp-ExtraLight-6b0a"/>
      <use xlink:href="#NotoSerifCJKjp-ExtraLight-4ee5" x="99.999985"/>
      <use xlink:href="#NotoSerifCJKjp-ExtraLight-9806" x="199.999969"/>
     </g>
    </g>
    <g clip-path="url(#pd6388480c0)">
     <!-- 判官 -->
     <g transform="translate(451.618217 212.323636) scale(0.12 -0.12)">
      <defs>
       <path id="NotoSerifCJKjp-ExtraLight-5224" d="M 3315 4998 
C 3110 4467 2829 3878 2624 3507 
L 2726 3443 
C 3008 3763 3328 4250 3597 4678 
C 3718 4666 3795 4717 3827 4787 
L 3315 4998 
z
M 467 4909 
C 691 4557 992 3981 1030 3565 
C 1344 3277 1600 4051 557 4947 
L 467 4909 
z
M 3219 1818 
L 2195 1818 
L 2195 2976 
L 3635 2976 
C 3718 2976 3782 3008 3795 3078 
C 3622 3245 3347 3469 3347 3469 
L 3104 3168 
L 2195 3168 
L 2195 5075 
C 2355 5101 2400 5165 2419 5254 
L 1914 5312 
L 1914 3168 
L 435 3168 
L 486 2976 
L 1914 2976 
L 1914 1818 
L 230 1818 
L 275 1626 
L 1914 1626 
L 1914 -467 
L 1965 -467 
C 2074 -467 2195 -397 2195 -339 
L 2195 1626 
L 3789 1626 
C 3878 1626 3936 1658 3955 1728 
C 3770 1907 3475 2131 3475 2131 
L 3219 1818 
z
M 4179 4774 
L 4179 755 
L 4237 755 
C 4346 755 4461 832 4461 883 
L 4461 4538 
C 4621 4557 4678 4621 4698 4710 
L 4179 4774 
z
M 5498 5210 
L 5498 83 
C 5498 -26 5459 -70 5325 -70 
C 5197 -70 4493 -13 4493 -13 
L 4493 -115 
C 4787 -154 4966 -186 5069 -243 
C 5152 -301 5190 -384 5216 -474 
C 5722 -416 5779 -224 5779 51 
L 5779 4973 
C 5933 4992 5997 5056 6016 5146 
L 5498 5210 
z
" transform="scale(0.015625)"/>
       <path id="NotoSerifCJKjp-ExtraLight-5b98" d="M 1830 134 
L 1830 1280 
L 4851 1280 
L 4851 134 
L 1830 134 
z
M 4544 3392 
L 4544 2394 
L 1830 2394 
L 1830 3392 
L 4544 3392 
z
M 4787 1472 
L 1830 1472 
L 1830 2208 
L 4544 2208 
L 4544 1933 
L 4582 1933 
C 4678 1933 4826 2010 4832 2048 
L 4832 3347 
C 4934 3366 5037 3418 5075 3462 
L 4666 3770 
L 4486 3584 
L 1862 3584 
L 1542 3750 
L 1542 -486 
L 1594 -486 
C 1728 -486 1830 -410 1830 -371 
L 1830 -58 
L 4851 -58 
L 4851 -442 
L 4883 -442 
C 4979 -442 5126 -365 5133 -326 
L 5133 1216 
C 5261 1242 5363 1293 5408 1344 
L 4973 1677 
L 4787 1472 
z
M 5722 4736 
L 5491 4499 
L 3334 4499 
L 3334 5101 
C 3488 5120 3558 5184 3571 5274 
L 3053 5331 
L 3053 4499 
L 1152 4499 
C 1146 4608 1126 4730 1094 4858 
L 979 4858 
C 1011 4358 781 3904 506 3731 
C 403 3648 339 3539 397 3443 
C 474 3334 678 3379 806 3501 
C 966 3622 1146 3898 1158 4314 
L 5517 4314 
C 5446 4051 5338 3712 5261 3507 
L 5350 3456 
C 5536 3667 5773 4026 5894 4262 
C 6016 4269 6093 4282 6138 4326 
L 5722 4736 
z
" transform="scale(0.015625)"/>
      </defs>
      <use xlink:href="#NotoSerifCJKjp-ExtraLight-5224"/>
      <use xlink:href="#NotoSerifCJKjp-ExtraLight-5b98" x="99.999985"/>
     </g>
    </g>
   </g>
   <g id="text_15">
    <g clip-path="url(#pd6388480c0)">
     <!-- 蔡壽 -->
     <g transform="translate(451.618217 884.956364) scale(0.12 -0.12)">
      <defs>
       <path id="NotoSerifCJKjp-ExtraLight-8521" d="M 2931 3936 
L 2707 3731 
L 1747 3731 
C 1805 3808 1856 3878 1901 3949 
C 2048 3923 2099 3949 2125 4013 
L 2106 4019 
L 2125 4019 
C 2234 4019 2362 4058 2362 4102 
L 2362 4531 
L 3994 4531 
L 3994 4032 
L 4038 4032 
C 4186 4032 4275 4096 4275 4134 
L 4275 4531 
L 5920 4531 
C 6010 4531 6074 4563 6086 4634 
C 5901 4813 5594 5050 5594 5050 
L 5318 4723 
L 4275 4723 
L 4275 5133 
C 4435 5152 4486 5216 4499 5299 
L 3994 5357 
L 3994 4723 
L 2362 4723 
L 2362 5133 
C 2522 5152 2579 5216 2592 5299 
L 2080 5357 
L 2080 4723 
L 294 4723 
L 333 4531 
L 2080 4531 
L 2080 4026 
L 1658 4173 
C 1382 3616 838 2970 307 2592 
L 384 2502 
C 570 2605 749 2733 922 2874 
C 1101 2726 1274 2509 1312 2323 
C 1587 2131 1792 2694 1024 2957 
C 1152 3072 1280 3194 1395 3315 
C 1594 3206 1805 3014 1882 2848 
C 2170 2701 2304 3264 1485 3411 
C 1523 3456 1562 3501 1600 3546 
L 2688 3546 
C 2272 2656 1446 1901 352 1453 
L 416 1350 
C 1715 1792 2560 2573 3027 3520 
C 3181 3526 3245 3546 3296 3597 
L 2931 3936 
z
M 2144 2010 
L 4307 2010 
C 4397 2010 4454 2042 4467 2112 
C 4307 2266 4058 2438 4058 2438 
L 3846 2202 
L 2093 2202 
L 2144 2010 
z
M 1958 992 
C 1651 608 1011 128 429 -147 
L 493 -237 
C 1139 -26 1818 365 2170 698 
C 2310 666 2355 678 2400 742 
L 1958 992 
z
M 5299 1261 
C 5382 1261 5440 1293 5459 1363 
C 5286 1523 5011 1728 5011 1728 
L 4774 1453 
L 954 1453 
L 1011 1261 
L 3046 1261 
L 3046 13 
C 3046 -70 3014 -102 2899 -102 
C 2771 -102 2150 -58 2150 -58 
L 2150 -160 
C 2413 -179 2586 -218 2675 -269 
C 2752 -320 2784 -397 2790 -480 
C 3258 -429 3328 -243 3328 6 
L 3328 1261 
L 5299 1261 
z
M 4006 826 
C 4499 589 5184 109 5414 -282 
C 5837 -454 5843 429 4058 902 
L 4006 826 
z
M 5318 4006 
L 5107 3789 
L 3898 3789 
L 3955 3603 
L 5082 3603 
C 4922 3322 4666 2982 4448 2733 
C 3974 3110 3629 3597 3424 4179 
L 3302 4115 
C 3699 2861 4563 2054 5862 1638 
C 5907 1773 6010 1850 6138 1856 
L 6144 1926 
C 5530 2080 4998 2323 4557 2650 
C 4883 2906 5254 3270 5453 3571 
C 5581 3578 5664 3584 5709 3622 
L 5318 4006 
z
" transform="scale(0.015625)"/>
       <path id="NotoSerifCJKjp-ExtraLight-58fd" d="M 902 2419 
L 960 2234 
L 5382 2234 
C 5466 2234 5523 2266 5542 2336 
C 5376 2490 5120 2682 5120 2682 
L 4896 2419 
L 3328 2419 
L 3328 2861 
L 4890 2861 
C 4973 2861 5030 2893 5050 2963 
C 4883 3117 4640 3290 4640 3290 
L 4422 3053 
L 1280 3053 
L 1331 2861 
L 3046 2861 
L 3046 2419 
L 902 2419 
z
M 5754 3821 
L 5549 3610 
L 467 3610 
L 525 3418 
L 5536 3418 
C 5440 3232 5312 3014 5216 2867 
L 5306 2816 
C 5510 2957 5766 3194 5907 3379 
C 6022 3386 6106 3398 6144 3437 
L 5754 3821 
z
M 518 4653 
L 3046 4653 
L 3046 4173 
L 1082 4173 
L 1126 3987 
L 5306 3987 
C 5395 3987 5453 4019 5472 4083 
C 5286 4262 4979 4499 4979 4499 
L 4723 4173 
L 3328 4173 
L 3328 4653 
L 5773 4653 
C 5862 4653 5920 4685 5939 4755 
C 5741 4934 5434 5178 5434 5178 
L 5165 4845 
L 3328 4845 
L 3328 5120 
C 3482 5139 3552 5203 3565 5293 
L 3046 5350 
L 3046 4845 
L 461 4845 
L 518 4653 
z
M 1114 326 
L 1114 1069 
L 2291 1069 
L 2291 326 
L 1114 326 
z
M 2234 1254 
L 1146 1254 
L 832 1408 
L 832 -307 
L 877 -307 
C 998 -307 1114 -237 1114 -211 
L 1114 141 
L 2291 141 
L 2291 -154 
L 2330 -154 
C 2419 -154 2566 -77 2573 -38 
L 2573 1024 
C 2682 1043 2778 1088 2816 1133 
L 2406 1446 
L 2234 1254 
z
M 3328 819 
C 3533 646 3763 326 3814 83 
C 4115 -141 4365 512 3405 870 
L 3328 819 
z
M 5370 1133 
L 5011 1133 
L 5011 1350 
C 5152 1376 5210 1421 5229 1504 
L 4730 1562 
L 4730 1133 
L 2912 1133 
L 2963 947 
L 4730 947 
L 4730 51 
C 4730 -38 4704 -64 4614 -64 
C 4512 -64 4038 -26 4038 -26 
L 4038 -134 
C 4243 -160 4371 -192 4448 -250 
C 4512 -307 4531 -397 4544 -486 
C 4966 -435 5011 -262 5011 19 
L 5011 947 
L 5837 947 
C 5920 947 5978 979 5997 1050 
C 5837 1203 5594 1402 5594 1402 
L 5370 1133 
z
M 5395 1869 
L 365 1869 
L 422 1677 
L 5914 1677 
C 6003 1677 6061 1709 6080 1779 
C 5901 1939 5632 2144 5632 2144 
L 5395 1869 
z
" transform="scale(0.015625)"/>
      </defs>
      <use xlink:href="#NotoSerifCJKjp-ExtraLight-8521"/>
      <use xlink:href="#NotoSerifCJKjp-ExtraLight-58fd" x="99.999985"/>
     </g>
    </g>
    <g clip-path="url(#pd6388480c0)">
     <!-- 參判 -->
     <g transform="translate(451.618217 899.596364) scale(0.12 -0.12)">
      <defs>
       <path id="NotoSerifCJKjp-ExtraLight-53c3" d="M 3552 4973 
C 3859 4864 4237 4678 4563 4467 
C 3699 4448 2867 4429 2182 4416 
C 2400 4627 2611 4877 2752 5088 
C 2880 5082 2963 5139 2995 5210 
L 2458 5363 
C 2349 5069 2157 4698 1971 4410 
C 1466 4403 1050 4403 762 4403 
L 1011 3955 
C 1069 3968 1126 4006 1165 4077 
C 2752 4173 3917 4256 4762 4326 
C 4947 4192 5101 4058 5197 3923 
C 5645 3782 5542 4710 3603 5062 
L 3552 4973 
z
M 960 -474 
C 2579 -288 3891 38 5075 1062 
C 5229 1018 5299 1030 5338 1088 
L 4915 1370 
C 3789 269 2477 -96 928 -339 
L 960 -474 
z
M 1024 992 
C 1920 1299 2790 1760 3437 2342 
C 3571 2310 3622 2323 3667 2374 
L 3258 2624 
C 2643 1971 1786 1466 954 1107 
L 1024 992 
z
M 1248 333 
C 2368 621 3411 1056 4230 1741 
C 4371 1702 4435 1715 4474 1773 
L 4070 2029 
C 3277 1267 2253 794 1190 461 
L 1248 333 
z
M 4986 3546 
C 5094 3456 5216 3334 5318 3206 
C 4966 3181 4621 3155 4339 3142 
C 4512 3360 4678 3610 4787 3814 
C 4922 3814 4998 3872 5024 3949 
L 4544 4064 
C 4454 3782 4294 3405 4141 3130 
C 4013 3123 3904 3117 3821 3117 
L 3923 2944 
C 3712 3098 3520 3264 3354 3437 
C 3520 3456 3584 3482 3597 3552 
L 3040 3686 
C 2899 3456 2701 3226 2464 2995 
C 2432 3149 2266 3360 1830 3514 
L 1754 3462 
C 1856 3373 1965 3258 2061 3136 
C 1747 3104 1446 3085 1178 3066 
C 1357 3296 1530 3558 1632 3776 
C 1766 3770 1850 3827 1875 3904 
L 1408 4026 
C 1312 3725 1146 3341 979 3046 
C 781 3034 614 3027 493 3021 
L 685 2650 
C 742 2669 794 2701 826 2778 
C 1395 2867 1830 2950 2138 3014 
C 2176 2950 2208 2886 2227 2829 
C 2240 2822 2253 2816 2259 2810 
C 1702 2323 973 1862 243 1555 
L 275 1453 
C 1510 1888 2637 2662 3238 3373 
C 3770 2618 4742 1984 5850 1555 
C 5888 1677 6003 1766 6150 1798 
L 6163 1894 
C 5414 2099 4704 2419 4134 2797 
C 4147 2816 4166 2835 4179 2867 
C 4710 2950 5114 3027 5414 3078 
C 5510 2944 5587 2803 5619 2675 
C 5933 2451 6144 3149 5062 3603 
L 4986 3546 
z
" transform="scale(0.015625)"/>
      </defs>
      <use xlink:href="#NotoSerifCJKjp-ExtraLight-53c3"/>
      <use xlink:href="#NotoSerifCJKjp-ExtraLight-5224" x="99.999985"/>
     </g>
    </g>
   </g>
   <g id="text_16">
    <g clip-path="url(#pd6388480c0)">
     <!-- 李材 -->
     <g transform="translate(700.039615 197.683636) scale(0.12 -0.12)">
      <defs>
       <path id="NotoSerifCJKjp-ExtraLight-674e" d="M 5312 1280 
L 3341 1280 
L 3341 1574 
C 3462 1594 3520 1626 3552 1690 
C 3955 1830 4518 2054 4813 2259 
C 4941 2266 5030 2272 5082 2310 
L 4710 2669 
L 4499 2464 
L 1427 2464 
L 1485 2278 
L 4333 2278 
C 4064 2093 3686 1888 3424 1754 
L 3059 1798 
L 3059 1280 
L 314 1280 
L 371 1088 
L 3059 1088 
L 3059 64 
C 3059 -32 3027 -70 2899 -70 
C 2771 -70 2074 -19 2074 -19 
L 2074 -122 
C 2362 -154 2541 -192 2637 -243 
C 2726 -301 2765 -384 2778 -474 
C 3283 -416 3341 -237 3341 38 
L 3341 1088 
L 5926 1088 
C 6016 1088 6074 1120 6093 1190 
C 5894 1376 5587 1613 5587 1613 
L 5312 1280 
z
M 5850 4186 
C 5939 4186 5997 4218 6016 4288 
C 5818 4467 5504 4717 5504 4717 
L 5229 4378 
L 3322 4378 
L 3322 5107 
C 3482 5133 3546 5190 3558 5280 
L 3040 5338 
L 3040 4378 
L 403 4378 
L 461 4186 
L 2656 4186 
C 2061 3494 1152 2816 218 2355 
L 282 2253 
C 1363 2694 2368 3366 3040 4147 
L 3040 2662 
L 3098 2662 
C 3200 2662 3322 2733 3322 2778 
L 3322 4186 
L 3386 4186 
C 3942 3424 5011 2707 5901 2323 
C 5952 2451 6054 2534 6182 2541 
L 6195 2611 
C 5312 2906 4179 3533 3578 4186 
L 5850 4186 
z
" transform="scale(0.015625)"/>
       <path id="NotoSerifCJKjp-ExtraLight-6750" d="M 1830 3699 
L 2886 3699 
C 2976 3699 3034 3731 3053 3802 
C 2867 3981 2566 4211 2566 4211 
L 2310 3891 
L 1830 3891 
L 1830 5101 
C 1984 5126 2035 5184 2054 5280 
L 1542 5338 
L 1542 3891 
L 346 3891 
L 397 3699 
L 1440 3699 
C 1210 2688 794 1683 205 922 
L 294 832 
C 851 1421 1254 2131 1542 2912 
L 1542 -480 
L 1606 -480 
C 1709 -480 1830 -403 1830 -352 
L 1830 2886 
C 2112 2611 2451 2195 2554 1888 
C 2918 1645 3142 2426 1830 3008 
L 1830 3699 
z
M 5370 3898 
L 5030 3898 
L 5030 5101 
C 5190 5120 5248 5178 5267 5274 
L 4742 5331 
L 4742 3898 
L 3117 3898 
L 3168 3706 
L 4608 3706 
C 4186 2554 3398 1408 2400 614 
L 2490 518 
C 3475 1197 4243 2125 4742 3168 
L 4742 77 
C 4742 -45 4704 -90 4557 -90 
C 4416 -90 3661 -32 3661 -32 
L 3661 -134 
C 3981 -173 4166 -205 4282 -256 
C 4371 -301 4410 -371 4435 -454 
C 4966 -403 5030 -211 5030 51 
L 5030 3706 
L 5952 3706 
C 6042 3706 6099 3738 6118 3808 
C 5926 3987 5632 4218 5632 4218 
L 5370 3898 
z
" transform="scale(0.015625)"/>
      </defs>
      <use xlink:href="#NotoSerifCJKjp-ExtraLight-674e"/>
      <use xlink:href="#NotoSerifCJKjp-ExtraLight-6750" x="99.999985"/>
     </g>
    </g>
    <g clip-path="url(#pd6388480c0)">
     <!-- 司直 -->
     <g transform="translate(700.039615 212.323636) scale(0.12 -0.12)">
      <defs>
       <path id="NotoSerifCJKjp-ExtraLight-53f8" d="M 3936 3891 
L 442 3891 
L 493 3699 
L 4512 3699 
C 4602 3699 4666 3731 4685 3802 
C 4493 3981 4198 4205 4198 4205 
L 3936 3891 
z
M 1402 1139 
L 1402 2650 
L 3475 2650 
L 3475 1139 
L 1402 1139 
z
M 3603 3046 
L 3411 2835 
L 1434 2835 
L 1120 2995 
L 1120 205 
L 1171 205 
C 1293 205 1402 269 1402 301 
L 1402 954 
L 3475 954 
L 3475 422 
L 3514 422 
C 3610 422 3750 506 3757 544 
L 3757 2586 
C 3885 2611 3994 2662 4038 2714 
L 3603 3046 
z
M 5363 5210 
L 5203 4986 
L 595 4986 
L 653 4800 
L 5267 4800 
L 5267 115 
C 5267 -6 5222 -58 5062 -58 
C 4890 -58 4019 13 4019 13 
L 4019 -90 
C 4378 -134 4595 -179 4723 -237 
C 4826 -288 4870 -365 4890 -461 
C 5491 -397 5549 -192 5549 77 
L 5549 4736 
C 5677 4755 5786 4813 5830 4864 
L 5363 5210 
z
" transform="scale(0.015625)"/>
       <path id="NotoSerifCJKjp-ExtraLight-76f4" d="M 4678 3450 
L 4678 2771 
L 2362 2771 
L 2362 3450 
L 4678 3450 
z
M 2362 1005 
L 2362 1709 
L 4678 1709 
L 4678 1005 
L 2362 1005 
z
M 2362 2586 
L 4678 2586 
L 4678 1901 
L 2362 1901 
L 2362 2586 
z
M 2400 3635 
L 2086 3802 
L 2086 518 
L 2138 518 
C 2259 518 2362 589 2362 627 
L 2362 813 
L 4678 813 
L 4678 538 
L 4717 538 
C 4813 538 4954 621 4960 659 
L 4960 3386 
C 5088 3411 5197 3462 5242 3514 
L 4806 3853 
L 4614 3635 
L 3302 3635 
L 3360 4307 
L 5818 4307 
C 5907 4307 5971 4339 5990 4410 
C 5786 4595 5466 4845 5466 4845 
L 5184 4493 
L 3373 4493 
L 3424 5126 
C 3546 5146 3616 5210 3622 5293 
L 3123 5331 
C 3117 5075 3104 4781 3085 4493 
L 390 4493 
L 448 4307 
L 3078 4307 
C 3066 4058 3046 3821 3034 3635 
L 2400 3635 
z
M 5325 109 
L 1107 109 
L 1107 3290 
C 1267 3309 1325 3373 1344 3462 
L 826 3526 
L 826 -461 
L 883 -461 
C 992 -461 1107 -390 1107 -333 
L 1107 -83 
L 5965 -83 
C 6054 -83 6118 -51 6138 19 
C 5933 211 5613 454 5613 454 
L 5325 109 
z
" transform="scale(0.015625)"/>
      </defs>
      <use xlink:href="#NotoSerifCJKjp-ExtraLight-53f8"/>
      <use xlink:href="#NotoSerifCJKjp-ExtraLight-76f4" x="99.999985"/>
     </g>
    </g>
   </g>
   <g id="text_17">
    <g clip-path="url(#pd6388480c0)">
     <!-- 李守義 -->
     <g transform="translate(652.09943 884.956364) scale(0.12 -0.12)">
      <defs>
       <path id="NotoSerifCJKjp-ExtraLight-5b88" d="M 5459 4250 
C 5350 3981 5184 3648 5062 3443 
L 5152 3386 
C 5382 3603 5702 3955 5862 4198 
C 5984 4205 6061 4218 6112 4262 
L 5690 4672 
L 5459 4442 
L 3334 4442 
L 3334 5101 
C 3488 5120 3558 5184 3571 5274 
L 3053 5331 
L 3053 4442 
L 1190 4442 
C 1184 4544 1165 4646 1133 4762 
L 1018 4755 
C 1056 4282 838 3840 576 3667 
C 474 3597 410 3482 467 3386 
C 544 3270 736 3322 870 3437 
C 1030 3565 1197 3834 1203 4250 
L 5459 4250 
z
M 1434 2138 
C 1792 1830 2214 1274 2285 838 
C 2682 544 2944 1510 1510 2195 
L 1434 2138 
z
M 5261 2816 
L 4301 2816 
L 4301 3654 
C 4454 3674 4506 3731 4525 3821 
L 4019 3885 
L 4019 2816 
L 378 2816 
L 435 2630 
L 4019 2630 
L 4019 96 
C 4019 -26 3974 -70 3821 -70 
C 3648 -70 2771 0 2771 0 
L 2771 -109 
C 3130 -147 3354 -192 3475 -250 
C 3578 -301 3616 -378 3642 -474 
C 4237 -410 4301 -205 4301 64 
L 4301 2630 
L 5875 2630 
C 5965 2630 6029 2662 6042 2733 
C 5843 2912 5536 3162 5536 3162 
L 5261 2816 
z
" transform="scale(0.015625)"/>
       <path id="NotoSerifCJKjp-ExtraLight-7fa9" d="M 365 3091 
L 422 2899 
L 5901 2899 
C 5990 2899 6054 2931 6067 3002 
C 5882 3174 5594 3398 5594 3398 
L 5331 3091 
L 3328 3091 
L 3328 3629 
L 5440 3629 
C 5530 3629 5587 3661 5606 3731 
C 5427 3898 5152 4102 5152 4102 
L 4909 3821 
L 3328 3821 
L 3328 4346 
L 5715 4346 
C 5798 4346 5862 4378 5875 4448 
C 5696 4614 5402 4838 5402 4838 
L 5152 4531 
L 3923 4531 
C 4128 4698 4352 4890 4493 5043 
C 4621 5024 4710 5069 4749 5139 
L 4230 5350 
C 4102 5101 3898 4774 3725 4531 
L 2560 4531 
C 2726 4653 2643 5114 1805 5306 
L 1734 5254 
C 1965 5088 2253 4781 2342 4538 
L 2355 4531 
L 570 4531 
L 627 4346 
L 3046 4346 
L 3046 3821 
L 883 3821 
L 941 3629 
L 3046 3629 
L 3046 3091 
L 365 3091 
z
M 4314 2675 
C 4557 2502 4877 2195 4986 1965 
C 5299 1792 5466 2413 4384 2739 
L 4314 2675 
z
M 6048 442 
L 5958 461 
C 5914 294 5837 64 5779 -45 
C 5741 -115 5702 -122 5574 -83 
C 5120 38 4794 275 4557 576 
C 4832 781 5062 998 5229 1216 
C 5370 1184 5427 1203 5472 1267 
L 5043 1491 
C 4890 1248 4672 1011 4410 781 
C 4256 1024 4154 1299 4083 1574 
L 5933 1574 
C 6022 1574 6086 1606 6099 1677 
C 5914 1850 5626 2067 5626 2067 
L 5363 1766 
L 4038 1766 
C 3981 2048 3949 2323 3930 2579 
C 4045 2598 4102 2662 4115 2739 
L 3622 2784 
C 3642 2451 3680 2099 3757 1766 
L 2214 1766 
L 2214 2362 
C 2522 2406 2803 2451 3046 2496 
C 3162 2438 3258 2432 3309 2477 
L 3002 2778 
C 2438 2618 1382 2419 531 2342 
L 563 2214 
C 1011 2234 1485 2272 1933 2330 
L 1933 1766 
L 307 1766 
L 365 1574 
L 1933 1574 
L 1933 986 
C 1229 864 621 762 262 717 
L 499 365 
C 550 384 602 429 627 506 
C 1107 595 1542 691 1933 781 
L 1933 51 
C 1933 -38 1901 -70 1779 -70 
C 1651 -70 1011 -26 1011 -26 
L 1011 -128 
C 1286 -160 1459 -192 1542 -250 
C 1619 -301 1664 -390 1670 -474 
C 2150 -422 2214 -218 2214 45 
L 2214 845 
C 2675 954 3072 1056 3405 1146 
L 3386 1261 
C 2989 1184 2592 1107 2214 1037 
L 2214 1574 
L 3802 1574 
C 3891 1229 4013 902 4198 614 
C 3750 262 3206 -45 2656 -243 
L 2707 -346 
C 3302 -173 3872 102 4339 416 
C 4614 64 4998 -211 5523 -365 
C 5824 -467 6080 -512 6131 -390 
C 6157 -333 6099 -250 5978 -173 
L 6048 442 
z
" transform="scale(0.015625)"/>
      </defs>
      <use xlink:href="#NotoSerifCJKjp-ExtraLight-674e"/>
      <use xlink:href="#NotoSerifCJKjp-ExtraLight-5b88" x="99.999985"/>
      <use xlink:href="#NotoSerifCJKjp-ExtraLight-7fa9" x="199.999969"/>
     </g>
    </g>
    <g clip-path="url(#pd6388480c0)">
     <!--   -->
     <g transform="translate(668.545055 899.596364) scale(0.12 -0.12)">
      <defs>
       <path id="NotoSerifCJKjp-ExtraLight-20" transform="scale(0.015625)"/>
      </defs>
      <use xlink:href="#NotoSerifCJKjp-ExtraLight-20"/>
     </g>
    </g>
   </g>
   <g id="text_18">
    <g clip-path="url(#pd6388480c0)">
     <!-- 李守敬 -->
     <g transform="translate(816.634005 884.956364) scale(0.12 -0.12)">
      <defs>
       <path id="NotoSerifCJKjp-ExtraLight-656c" d="M 1837 2272 
L 1837 1197 
L 1126 1197 
L 1126 2272 
L 1837 2272 
z
M 2918 3514 
L 2733 3290 
L 1222 3290 
C 1261 3386 1299 3482 1331 3571 
C 1491 3571 1530 3603 1549 3667 
L 1190 3731 
L 1229 3731 
C 1344 3731 1472 3782 1472 3821 
L 1472 4326 
L 2304 4326 
L 2304 3744 
L 2355 3744 
C 2502 3750 2586 3821 2586 3846 
L 2586 4326 
L 3520 4326 
C 3610 4326 3661 4358 3680 4429 
C 3507 4602 3232 4832 3232 4832 
L 2995 4512 
L 2586 4512 
L 2586 5101 
C 2733 5120 2784 5190 2790 5280 
L 2304 5325 
L 2304 4512 
L 1472 4512 
L 1472 5101 
C 1606 5120 1670 5190 1677 5280 
L 1184 5325 
L 1184 4512 
L 301 4512 
L 346 4326 
L 1184 4326 
L 1184 3731 
L 1011 3763 
C 864 3136 544 2362 154 1926 
L 250 1862 
C 467 2054 672 2304 845 2573 
L 845 512 
L 883 512 
C 1030 512 1126 595 1126 621 
L 1126 1011 
L 1837 1011 
L 1837 704 
L 1875 704 
C 1965 704 2112 781 2118 819 
L 2118 2234 
C 2221 2253 2317 2304 2355 2342 
L 1952 2643 
L 1779 2458 
L 1203 2458 
L 870 2618 
C 973 2778 1056 2938 1139 3104 
L 2790 3104 
C 2758 1261 2669 224 2477 32 
C 2419 -32 2368 -45 2259 -45 
C 2131 -45 1766 -13 1536 13 
L 1530 -115 
C 1728 -141 1946 -186 2022 -237 
C 2099 -288 2118 -384 2118 -474 
C 2336 -474 2554 -397 2701 -224 
C 2931 64 3053 1107 3091 3078 
C 3219 3091 3296 3123 3341 3168 
L 2918 3514 
z
M 5248 3763 
C 5165 2893 4986 2138 4653 1472 
C 4339 2080 4141 2771 4000 3494 
C 4038 3584 4070 3674 4102 3763 
L 5248 3763 
z
M 5990 3763 
C 6080 3763 6138 3795 6150 3866 
C 5971 4038 5670 4275 5670 4275 
L 5408 3955 
L 4166 3955 
C 4275 4307 4371 4678 4448 5056 
C 4582 5062 4653 5126 4672 5210 
L 4122 5318 
C 3974 4141 3622 3008 3187 2234 
L 3283 2170 
C 3514 2464 3718 2829 3898 3238 
C 4019 2502 4211 1818 4506 1203 
C 4134 582 3610 51 2867 -403 
L 2938 -493 
C 3699 -102 4250 371 4646 928 
C 4960 384 5370 -96 5914 -474 
C 5965 -339 6086 -282 6208 -275 
L 6227 -211 
C 5619 134 5158 614 4813 1184 
C 5248 1901 5466 2752 5587 3763 
L 5990 3763 
z
" transform="scale(0.015625)"/>
      </defs>
      <use xlink:href="#NotoSerifCJKjp-ExtraLight-674e"/>
      <use xlink:href="#NotoSerifCJKjp-ExtraLight-5b88" x="99.999985"/>
      <use xlink:href="#NotoSerifCJKjp-ExtraLight-656c" x="199.999969"/>
     </g>
    </g>
    <g clip-path="url(#pd6388480c0)">
     <!--   -->
     <g transform="translate(833.07963 899.596364) scale(0.12 -0.12)">
      <use xlink:href="#NotoSerifCJKjp-ExtraLight-20"/>
     </g>
    </g>
   </g>
   <g id="text_19">
    <g clip-path="url(#pd6388480c0)">
     <!-- 李栩 -->
     <g transform="translate(1151.703154 197.683636) scale(0.12 -0.12)">
      <defs>
       <path id="NotoSerifCJKjp-ExtraLight-6829" d="M 1478 3674 
L 2240 3674 
C 2330 3674 2381 3706 2400 3776 
C 2221 3949 1939 4173 1939 4173 
L 1683 3866 
L 1478 3866 
L 1478 5088 
C 1632 5114 1683 5171 1702 5267 
L 1190 5325 
L 1190 3866 
L 314 3866 
L 365 3674 
L 1088 3674 
C 941 2746 666 1843 224 1107 
L 320 1024 
C 717 1549 992 2150 1190 2803 
L 1190 -461 
L 1254 -461 
C 1357 -461 1478 -390 1478 -333 
L 1478 2822 
C 1677 2579 1920 2234 1997 1971 
C 2330 1747 2566 2400 1478 2963 
L 1478 3674 
z
M 3744 5146 
L 3584 4922 
L 2221 4922 
L 2278 4736 
L 3642 4736 
L 3642 4160 
L 3270 4333 
C 3066 3872 2637 3213 2195 2784 
L 2278 2707 
C 2778 3085 3251 3642 3507 4045 
C 3565 4032 3610 4032 3642 4038 
L 3642 2675 
L 3322 2810 
C 3078 2208 2566 1357 2016 800 
L 2093 717 
C 2726 1229 3270 1990 3565 2534 
C 3597 2528 3616 2528 3642 2528 
L 3642 115 
C 3642 6 3610 -38 3482 -38 
C 3347 -38 2675 19 2675 19 
L 2675 -90 
C 2957 -122 3136 -166 3226 -211 
C 3309 -262 3347 -352 3366 -442 
C 3878 -384 3930 -192 3930 77 
L 3930 4672 
C 4051 4691 4166 4749 4211 4800 
L 3744 5146 
z
M 5664 5146 
L 5498 4922 
L 4256 4922 
L 4314 4736 
L 5562 4736 
L 5562 4205 
L 5197 4378 
C 4998 3917 4589 3226 4173 2771 
L 4262 2694 
C 4742 3098 5190 3680 5427 4090 
C 5485 4077 5530 4070 5562 4077 
L 5562 2682 
L 5242 2816 
C 5011 2234 4525 1395 4026 838 
L 4102 755 
C 4691 1267 5210 2016 5478 2541 
C 5510 2534 5536 2534 5562 2534 
L 5562 115 
C 5562 6 5523 -38 5395 -38 
C 5267 -38 4589 19 4589 19 
L 4589 -90 
C 4877 -122 5050 -166 5146 -211 
C 5229 -262 5267 -352 5286 -442 
C 5792 -384 5843 -192 5843 77 
L 5843 4672 
C 5971 4691 6086 4749 6131 4800 
L 5664 5146 
z
" transform="scale(0.015625)"/>
      </defs>
      <use xlink:href="#NotoSerifCJKjp-ExtraLight-674e"/>
      <use xlink:href="#NotoSerifCJKjp-ExtraLight-6829" x="99.999985"/>
     </g>
    </g>
    <g clip-path="url(#pd6388480c0)">
     <!--   -->
     <g transform="translate(1162.148779 212.323636) scale(0.12 -0.12)">
      <use xlink:href="#NotoSerifCJKjp-ExtraLight-20"/>
     </g>
    </g>
   </g>
   <g id="text_20">
    <g clip-path="url(#pd6388480c0)">
     <!-- 柳甲孫 -->
     <g transform="translate(981.168579 884.956364) scale(0.12 -0.12)">
      <defs>
       <path id="NotoSerifCJKjp-ExtraLight-67f3" d="M 1466 3667 
L 2227 3667 
C 2317 3667 2368 3699 2387 3770 
C 2208 3942 1926 4166 1926 4166 
L 1670 3859 
L 1466 3859 
L 1466 5082 
C 1619 5107 1670 5165 1690 5261 
L 1178 5318 
L 1178 3859 
L 301 3859 
L 352 3667 
L 1075 3667 
C 928 2739 653 1837 211 1101 
L 307 1018 
C 704 1542 979 2144 1178 2797 
L 1178 -467 
L 1242 -467 
C 1344 -467 1466 -397 1466 -339 
L 1466 2944 
C 1664 2694 1907 2349 1984 2093 
C 2317 1869 2554 2522 1466 3085 
L 1466 3667 
z
M 3552 2304 
C 3552 2061 3539 1830 3507 1606 
C 3251 1504 2982 1408 2733 1318 
L 2733 4563 
C 3104 4678 3565 4845 3821 4973 
C 3917 4928 4000 4934 4038 4986 
L 3648 5254 
C 3462 5107 3149 4934 2854 4787 
L 2445 4864 
L 2445 1222 
C 2234 1158 2048 1101 1901 1069 
L 2112 704 
C 2170 730 2208 781 2227 858 
C 2720 1056 3142 1274 3482 1459 
C 3341 710 2963 83 2093 -378 
L 2176 -474 
C 3526 160 3827 1152 3834 2304 
L 3834 4179 
C 3987 4205 4038 4262 4051 4352 
L 3552 4410 
L 3552 2304 
z
M 5690 5030 
L 5523 4819 
L 4742 4819 
L 4384 4986 
L 4384 -467 
L 4422 -467 
C 4563 -467 4666 -384 4666 -352 
L 4666 4627 
L 5587 4627 
L 5587 1254 
C 5587 1165 5562 1133 5472 1133 
C 5370 1133 4934 1171 4934 1171 
L 4934 1075 
C 5133 1050 5254 1011 5318 966 
C 5382 915 5408 832 5421 755 
C 5824 800 5869 960 5869 1222 
L 5869 4563 
C 5997 4589 6106 4640 6144 4691 
L 5690 5030 
z
" transform="scale(0.015625)"/>
       <path id="NotoSerifCJKjp-ExtraLight-7532" d="M 3334 1958 
L 3334 3245 
L 5210 3245 
L 5210 1958 
L 3334 1958 
z
M 1184 1958 
L 1184 3245 
L 3053 3245 
L 3053 1958 
L 1184 1958 
z
M 3053 4685 
L 3053 3437 
L 1184 3437 
L 1184 4685 
L 3053 4685 
z
M 5210 4685 
L 5210 3437 
L 3334 3437 
L 3334 4685 
L 5210 4685 
z
M 5331 5088 
L 5146 4870 
L 1222 4870 
L 909 5037 
L 909 1318 
L 960 1318 
C 1088 1318 1184 1395 1184 1427 
L 1184 1773 
L 3053 1773 
L 3053 -474 
L 3091 -474 
C 3232 -474 3334 -390 3334 -358 
L 3334 1773 
L 5210 1773 
L 5210 1402 
L 5248 1402 
C 5338 1402 5485 1485 5491 1517 
L 5491 4621 
C 5619 4646 5722 4698 5766 4749 
L 5331 5088 
z
" transform="scale(0.015625)"/>
       <path id="NotoSerifCJKjp-ExtraLight-5b6b" d="M 2445 4416 
C 2957 4448 3482 4525 3974 4614 
C 3782 4230 3546 3853 3341 3578 
C 3181 3680 2970 3782 2688 3872 
L 2618 3808 
C 2944 3590 3366 3187 3488 2867 
C 3763 2720 3930 3104 3469 3482 
C 3744 3731 4045 4077 4282 4416 
C 4410 4390 4486 4435 4518 4493 
L 4198 4659 
C 4698 4762 5146 4883 5498 4998 
C 5632 4954 5728 4954 5779 5005 
L 5382 5325 
C 4749 5018 3494 4672 2413 4531 
L 2445 4416 
z
M 2579 2976 
C 2240 2867 1901 2765 1594 2669 
L 1594 3699 
C 1747 3718 1805 3776 1824 3866 
L 1658 3885 
C 1984 4128 2317 4506 2534 4755 
C 2662 4762 2739 4768 2784 4813 
L 2362 5210 
L 2131 4973 
L 365 4973 
L 422 4787 
L 2106 4787 
C 1952 4512 1728 4154 1510 3904 
L 1312 3930 
L 1312 2586 
C 864 2451 499 2342 288 2298 
L 493 1862 
C 550 1882 602 1933 621 2010 
C 870 2112 1101 2208 1312 2298 
L 1312 77 
C 1312 -19 1280 -51 1178 -51 
C 1069 -51 531 -13 531 -13 
L 531 -115 
C 762 -147 902 -179 986 -230 
C 1062 -288 1088 -371 1101 -461 
C 1542 -410 1594 -230 1594 45 
L 1594 2426 
C 1990 2598 2330 2758 2611 2880 
L 2579 2976 
z
M 2214 -198 
C 2637 109 3066 608 3379 1158 
C 3507 1133 3590 1184 3616 1248 
L 3149 1472 
C 2880 838 2483 243 2125 -122 
L 2214 -198 
z
M 4781 3002 
C 4992 2822 5242 2573 5440 2304 
C 4794 2272 4173 2234 3635 2208 
C 4211 2688 4806 3322 5165 3814 
C 5299 3789 5389 3827 5427 3898 
L 4928 4147 
C 4570 3546 3962 2758 3418 2202 
C 2906 2176 2483 2157 2221 2157 
L 2355 1709 
C 2413 1715 2483 1760 2515 1837 
C 3059 1888 3552 1939 3994 1990 
L 3994 -461 
L 4032 -461 
C 4166 -461 4275 -384 4275 -352 
L 4275 2022 
C 4749 2074 5165 2125 5536 2176 
C 5664 1990 5760 1805 5805 1638 
C 6202 1370 6413 2310 4858 3059 
L 4781 3002 
z
M 4851 1382 
C 5235 1024 5715 403 5811 -64 
C 6208 -352 6445 608 4928 1434 
L 4851 1382 
z
" transform="scale(0.015625)"/>
      </defs>
      <use xlink:href="#NotoSerifCJKjp-ExtraLight-67f3"/>
      <use xlink:href="#NotoSerifCJKjp-ExtraLight-7532" x="99.999985"/>
      <use xlink:href="#NotoSerifCJKjp-ExtraLight-5b6b" x="199.999969"/>
     </g>
    </g>
    <g clip-path="url(#pd6388480c0)">
     <!-- 生員 -->
     <g transform="translate(987.168579 899.596364) scale(0.12 -0.12)">
      <defs>
       <path id="NotoSerifCJKjp-ExtraLight-751f" d="M 5325 -32 
L 3322 -32 
L 3322 1805 
L 5325 1805 
C 5414 1805 5478 1837 5491 1907 
C 5299 2086 4979 2336 4979 2336 
L 4704 1990 
L 3322 1990 
L 3322 3610 
L 5574 3610 
C 5664 3610 5722 3635 5741 3706 
C 5536 3904 5229 4134 5229 4134 
L 4947 3795 
L 3322 3795 
L 3322 5094 
C 3475 5120 3533 5184 3552 5274 
L 3040 5331 
L 3040 3795 
L 1587 3795 
C 1760 4122 1914 4467 2048 4819 
C 2189 4813 2266 4870 2291 4934 
L 1786 5114 
C 1440 3968 851 2893 262 2227 
L 358 2157 
C 768 2528 1152 3027 1485 3610 
L 3040 3610 
L 3040 1990 
L 1005 1990 
L 1056 1805 
L 3040 1805 
L 3040 -32 
L 294 -32 
L 352 -218 
L 5965 -218 
C 6054 -218 6112 -186 6131 -122 
C 5926 70 5606 314 5606 314 
L 5325 -32 
z
" transform="scale(0.015625)"/>
       <path id="NotoSerifCJKjp-ExtraLight-54e1" d="M 4768 4870 
L 4768 4090 
L 1651 4090 
L 1651 4870 
L 4768 4870 
z
M 1651 3904 
L 4768 3904 
L 4768 3648 
L 4806 3648 
C 4896 3648 5043 3725 5050 3763 
L 5050 4806 
C 5171 4832 5286 4877 5325 4928 
L 4890 5261 
L 4704 5056 
L 1683 5056 
L 1370 5216 
L 1370 3616 
L 1414 3616 
C 1523 3616 1651 3686 1651 3712 
L 1651 3904 
z
M 5037 3181 
L 5037 2573 
L 1395 2573 
L 1395 3181 
L 5037 3181 
z
M 1395 1760 
L 1395 2381 
L 5037 2381 
L 5037 1760 
L 1395 1760 
z
M 1395 947 
L 1395 1568 
L 5037 1568 
L 5037 947 
L 1395 947 
z
M 1395 755 
L 5037 755 
L 5037 506 
L 5075 506 
C 5171 506 5312 589 5318 627 
L 5318 3117 
C 5446 3142 5555 3194 5600 3238 
L 5165 3578 
L 4973 3366 
L 1427 3366 
L 1107 3533 
L 1107 422 
L 1158 422 
C 1280 422 1395 499 1395 531 
L 1395 755 
z
M 454 -480 
C 1312 -352 2093 -58 2586 243 
C 2746 224 2829 250 2861 301 
L 2451 563 
C 2054 243 1216 -173 403 -365 
L 454 -480 
z
M 3712 358 
C 4346 211 5286 -173 5696 -474 
C 6118 -531 5894 218 3750 474 
L 3712 358 
z
" transform="scale(0.015625)"/>
      </defs>
      <use xlink:href="#NotoSerifCJKjp-ExtraLight-751f"/>
      <use xlink:href="#NotoSerifCJKjp-ExtraLight-54e1" x="99.999985"/>
     </g>
    </g>
   </g>
   <g id="text_21">
    <g clip-path="url(#pd6388480c0)">
     <!-- 李仲壽 -->
     <g transform="translate(1145.703154 884.956364) scale(0.12 -0.12)">
      <defs>
       <path id="NotoSerifCJKjp-ExtraLight-4ef2" d="M 1741 5331 
C 1395 4122 813 2918 250 2163 
L 346 2093 
C 627 2400 902 2784 1158 3213 
L 1158 -467 
L 1210 -467 
C 1318 -467 1440 -384 1446 -358 
L 1446 3482 
C 1549 3494 1613 3539 1632 3597 
L 1414 3680 
C 1638 4109 1843 4576 2010 5043 
C 2150 5037 2227 5094 2253 5165 
L 1741 5331 
z
M 4141 2022 
L 4141 3814 
L 5568 3814 
L 5568 2022 
L 4141 2022 
z
M 2464 2022 
L 2464 3814 
L 3859 3814 
L 3859 2022 
L 2464 2022 
z
M 5696 4211 
L 5504 4006 
L 4141 4006 
L 4141 4992 
C 4333 5011 4397 5088 4422 5197 
L 3859 5267 
L 3859 4006 
L 2496 4006 
L 2182 4166 
L 2182 1370 
L 2234 1370 
C 2355 1370 2464 1440 2464 1472 
L 2464 1837 
L 3859 1837 
L 3859 -461 
L 3923 -461 
C 4019 -461 4141 -390 4141 -333 
L 4141 1837 
L 5568 1837 
L 5568 1434 
L 5606 1434 
C 5702 1434 5843 1510 5850 1549 
L 5850 3750 
C 5978 3776 6086 3827 6131 3878 
L 5696 4211 
z
" transform="scale(0.015625)"/>
      </defs>
      <use xlink:href="#NotoSerifCJKjp-ExtraLight-674e"/>
      <use xlink:href="#NotoSerifCJKjp-ExtraLight-4ef2" x="99.999985"/>
      <use xlink:href="#NotoSerifCJKjp-ExtraLight-58fd" x="199.999969"/>
     </g>
    </g>
    <g clip-path="url(#pd6388480c0)">
     <!--  -->
     <g transform="translate(1163.703154 899.596364) scale(0.12 -0.12)"/>
    </g>
   </g>
   <g id="text_22">
    <g clip-path="url(#pd6388480c0)">
     <!-- 李孟壽 -->
     <g transform="translate(1310.237729 884.956364) scale(0.12 -0.12)">
      <defs>
       <path id="NotoSerifCJKjp-ExtraLight-5b5f" d="M 3066 4211 
L 3066 3674 
L 512 3674 
L 570 3488 
L 3066 3488 
L 3066 2483 
C 3066 2381 3034 2349 2899 2349 
C 2765 2349 2022 2394 2022 2394 
L 2022 2298 
C 2330 2266 2515 2221 2618 2170 
C 2707 2112 2746 2029 2771 1939 
C 3290 1997 3347 2182 3347 2458 
L 3347 3488 
L 5792 3488 
C 5882 3488 5946 3520 5958 3590 
C 5773 3763 5472 4000 5472 4000 
L 5216 3674 
L 3347 3674 
L 3347 3994 
C 3488 4019 3546 4051 3565 4128 
C 4077 4301 4627 4557 4998 4755 
C 5139 4762 5229 4768 5280 4813 
L 4877 5190 
L 4634 4966 
L 1325 4966 
L 1382 4781 
L 4467 4781 
C 4186 4582 3795 4339 3430 4166 
L 3066 4211 
z
M 1491 1510 
L 2426 1510 
L 2426 -134 
L 1491 -134 
L 1491 1510 
z
M 3654 1510 
L 3654 -134 
L 2714 -134 
L 2714 1510 
L 3654 1510 
z
M 4896 1510 
L 4896 -134 
L 3942 -134 
L 3942 1510 
L 4896 1510 
z
M 5357 -134 
L 5184 -134 
L 5184 1472 
C 5338 1491 5421 1517 5472 1587 
L 5005 1939 
L 4826 1702 
L 1562 1702 
L 1203 1875 
L 1203 -134 
L 301 -134 
L 358 -320 
L 5958 -320 
C 6048 -320 6106 -288 6125 -218 
C 5933 -45 5626 198 5626 198 
L 5357 -134 
z
" transform="scale(0.015625)"/>
      </defs>
      <use xlink:href="#NotoSerifCJKjp-ExtraLight-674e"/>
      <use xlink:href="#NotoSerifCJKjp-ExtraLight-5b5f" x="99.999985"/>
      <use xlink:href="#NotoSerifCJKjp-ExtraLight-58fd" x="199.999969"/>
     </g>
    </g>
    <g clip-path="url(#pd6388480c0)">
     <!--  -->
     <g transform="translate(1328.237729 899.596364) scale(0.12 -0.12)"/>
    </g>
   </g>
   <g id="text_23">
    <g clip-path="url(#pd6388480c0)">
     <!-- 鄭師周 -->
     <g transform="translate(1645.759215 197.683636) scale(0.12 -0.12)">
      <defs>
       <path id="NotoSerifCJKjp-ExtraLight-912d" d="M 1018 2291 
L 3328 2291 
L 3328 1933 
L 1018 1933 
L 1018 2291 
z
M 1613 3482 
C 1581 3187 1466 2906 1101 2662 
L 1171 2566 
C 1709 2803 1862 3142 1901 3482 
L 2355 3482 
L 2355 3066 
C 2355 2874 2406 2790 2662 2790 
L 2899 2790 
C 3104 2790 3238 2797 3328 2822 
L 3328 2477 
L 1018 2477 
L 1018 3482 
L 1613 3482 
z
M 1914 3757 
L 1914 4109 
L 2355 4109 
L 2355 3667 
L 1914 3667 
L 1914 3757 
z
M 3328 3482 
L 3328 3059 
L 3315 3066 
L 3296 3072 
L 3238 3072 
C 3213 3059 3181 3053 3155 3053 
L 3098 3053 
C 3059 3046 2989 3046 2918 3046 
L 2733 3046 
C 2656 3046 2643 3072 2643 3136 
L 2643 3482 
L 3328 3482 
z
M 3315 1139 
L 2272 1139 
C 2298 1325 2310 1523 2317 1741 
L 3328 1741 
L 3328 1510 
L 3366 1510 
C 3488 1510 3616 1587 3616 1619 
L 3616 3462 
C 3731 3482 3802 3520 3846 3565 
L 3462 3859 
L 3309 3667 
L 2643 3667 
L 2643 4109 
L 3104 4109 
C 3187 4109 3245 4141 3258 4211 
C 3104 4371 2842 4570 2842 4570 
L 2624 4301 
L 1178 4301 
C 1267 4403 1344 4506 1408 4614 
C 1530 4595 1613 4640 1645 4698 
L 1165 4934 
C 979 4454 614 3994 237 3738 
L 314 3648 
C 614 3782 883 3981 1101 4218 
L 1126 4109 
L 1626 4109 
L 1626 3757 
L 1626 3667 
L 1094 3667 
L 736 3834 
L 736 1395 
L 774 1395 
C 922 1395 1018 1478 1018 1504 
L 1018 1741 
L 2003 1741 
C 1997 1523 1990 1325 1965 1139 
L 320 1139 
L 371 954 
L 1926 954 
C 1798 390 1414 -32 250 -358 
L 326 -467 
C 1350 -218 1843 102 2080 525 
C 2554 352 3110 45 3347 -243 
C 3757 -346 3667 429 2144 659 
C 2189 749 2214 851 2240 954 
L 3904 954 
C 3994 954 4045 986 4064 1056 
C 3878 1229 3578 1472 3578 1472 
L 3315 1139 
z
M 2893 5312 
L 2726 5075 
L 1536 5075 
L 1594 4883 
L 2848 4883 
C 3008 4410 3360 4032 3878 3763 
C 3910 3878 4026 3949 4134 3968 
L 4154 4032 
C 3610 4224 3181 4531 3014 4870 
C 3181 4883 3302 4915 3360 4986 
L 2893 5312 
z
M 5766 5126 
L 5542 4896 
L 4602 4896 
L 4243 5101 
L 4243 -467 
L 4282 -467 
C 4429 -467 4525 -384 4525 -352 
L 4525 4710 
L 5549 4710 
C 5363 4147 5075 3290 4890 2848 
C 5466 2278 5683 1741 5683 1203 
C 5683 890 5613 723 5478 653 
C 5421 621 5382 614 5306 614 
L 4704 614 
L 4704 499 
C 4877 486 5024 461 5082 422 
C 5139 384 5165 307 5165 205 
C 5786 243 6003 499 6003 1158 
C 6003 1709 5747 2272 5050 2874 
C 5299 3302 5702 4186 5894 4634 
C 6042 4640 6131 4653 6176 4704 
L 5766 5126 
z
" transform="scale(0.015625)"/>
       <path id="NotoSerifCJKjp-ExtraLight-5e2b" d="M 813 397 
L 813 1722 
L 2106 1722 
L 2106 397 
L 813 397 
z
M 1997 4198 
L 1997 3034 
L 813 3034 
L 813 4198 
L 1997 4198 
z
M 2042 1914 
L 813 1914 
L 813 2842 
L 1997 2842 
L 1997 2586 
L 2035 2586 
C 2131 2586 2278 2662 2285 2701 
L 2285 4134 
C 2406 4160 2515 4211 2560 4262 
L 2125 4595 
L 1939 4390 
L 1331 4390 
C 1421 4608 1530 4890 1600 5101 
C 1734 5107 1805 5165 1824 5248 
L 1299 5331 
C 1261 5056 1190 4659 1139 4390 
L 890 4390 
L 531 4557 
L 531 -352 
L 570 -352 
C 710 -352 813 -269 813 -237 
L 813 211 
L 2106 211 
L 2106 -186 
L 2144 -186 
C 2240 -186 2381 -109 2387 -70 
L 2387 1658 
C 2515 1683 2624 1734 2669 1786 
L 2234 2118 
L 2042 1914 
z
M 5965 4659 
C 6054 4659 6112 4691 6131 4762 
C 5952 4928 5683 5146 5683 5146 
L 5440 4851 
L 2714 4851 
L 2765 4659 
L 4218 4659 
L 4218 3661 
L 3322 3661 
L 2963 3834 
L 2963 326 
L 3002 326 
C 3149 326 3245 416 3245 442 
L 3245 3475 
L 4218 3475 
L 4218 -467 
L 4256 -467 
C 4403 -467 4499 -384 4499 -358 
L 4499 3475 
L 5517 3475 
L 5517 883 
C 5517 794 5491 762 5395 762 
C 5299 762 4845 800 4845 800 
L 4845 691 
C 5043 672 5165 634 5242 582 
C 5299 531 5325 442 5338 358 
C 5754 403 5798 576 5798 838 
L 5798 3411 
C 5926 3437 6035 3488 6080 3539 
L 5619 3872 
L 5453 3661 
L 4499 3661 
L 4499 4659 
L 5965 4659 
z
" transform="scale(0.015625)"/>
       <path id="NotoSerifCJKjp-ExtraLight-5468" d="M 4141 2867 
L 3302 2867 
L 3302 3629 
L 4506 3629 
C 4595 3629 4653 3661 4672 3731 
C 4499 3891 4230 4090 4230 4090 
L 4000 3821 
L 3302 3821 
L 3302 4294 
C 3424 4314 3475 4365 3488 4442 
L 3021 4493 
L 3021 3821 
L 1805 3821 
L 1856 3629 
L 3021 3629 
L 3021 2867 
L 1651 2867 
L 1702 2682 
L 4685 2682 
C 4768 2682 4832 2714 4845 2778 
C 4666 2950 4390 3174 4390 3174 
L 4141 2867 
z
M 2381 819 
L 2381 1869 
L 4064 1869 
L 4064 819 
L 2381 819 
z
M 4352 1837 
C 4454 1856 4538 1901 4576 1933 
L 4186 2240 
L 4019 2054 
L 2413 2054 
L 2099 2214 
L 2099 186 
L 2144 186 
C 2266 186 2381 250 2381 282 
L 2381 634 
L 4064 634 
L 4064 301 
L 4102 301 
C 4198 301 4346 378 4352 416 
L 4352 1837 
z
M 5318 5126 
L 5139 4877 
L 1402 4877 
L 1056 5056 
L 1056 3014 
C 1056 1798 966 576 256 -390 
L 365 -467 
C 1254 506 1338 1901 1338 3021 
L 1338 4691 
L 5216 4691 
L 5216 102 
C 5216 -13 5178 -51 5043 -51 
C 4902 -51 4198 6 4198 6 
L 4198 -102 
C 4486 -134 4678 -173 4781 -230 
C 4864 -282 4902 -365 4922 -454 
C 5440 -403 5498 -205 5498 58 
L 5498 4589 
C 5658 4614 5786 4678 5843 4742 
L 5318 5126 
z
" transform="scale(0.015625)"/>
      </defs>
      <use xlink:href="#NotoSerifCJKjp-ExtraLight-912d"/>
      <use xlink:href="#NotoSerifCJKjp-ExtraLight-5e2b" x="99.999985"/>
      <use xlink:href="#NotoSerifCJKjp-ExtraLight-5468" x="199.999969"/>
     </g>
    </g>
    <g clip-path="url(#pd6388480c0)">
     <!-- 司直 -->
     <g transform="translate(1651.759215 212.323636) scale(0.12 -0.12)">
      <use xlink:href="#NotoSerifCJKjp-ExtraLight-53f8"/>
      <use xlink:href="#NotoSerifCJKjp-ExtraLight-76f4" x="99.999985"/>
     </g>
    </g>
   </g>
   <g id="text_24">
    <g clip-path="url(#pd6388480c0)">
     <!-- 鄭唐 -->
     <g transform="translate(1483.998472 884.956364) scale(0.12 -0.12)">
      <defs>
       <path id="NotoSerifCJKjp-ExtraLight-5510" d="M 2170 32 
L 2170 1050 
L 4883 1050 
L 4883 32 
L 2170 32 
z
M 4870 1235 
L 2246 1235 
L 1894 1402 
L 1894 -486 
L 1933 -486 
C 2074 -486 2170 -403 2170 -378 
L 2170 -160 
L 4883 -160 
L 4883 -467 
L 4922 -467 
C 5043 -467 5171 -384 5171 -358 
L 5171 1037 
C 5293 1056 5350 1088 5389 1126 
L 5018 1421 
L 4870 1235 
z
M 4838 2061 
L 3578 2061 
L 3578 2726 
L 4838 2726 
L 4838 2061 
z
M 3578 3507 
L 4838 3507 
L 4838 2912 
L 3578 2912 
L 3578 3507 
z
M 5414 2912 
L 5120 2912 
L 5120 3443 
C 5248 3469 5350 3520 5395 3571 
L 4960 3904 
L 4774 3693 
L 3578 3693 
L 3578 4000 
C 3725 4026 3795 4083 3808 4173 
L 3290 4237 
L 3290 3693 
L 1683 3693 
L 1741 3507 
L 3290 3507 
L 3290 2912 
L 1229 2912 
L 1229 2982 
L 1229 4384 
L 3200 4384 
L 3200 4365 
L 3488 4365 
L 3488 4384 
L 5939 4384 
C 6029 4384 6093 4416 6106 4480 
C 5907 4666 5594 4909 5594 4909 
L 5312 4570 
L 3488 4570 
L 3488 5101 
C 3635 5120 3706 5184 3718 5274 
L 3200 5331 
L 3200 4570 
L 1293 4570 
L 947 4749 
L 947 2976 
C 947 1824 883 608 262 -384 
L 371 -461 
C 1107 461 1216 1715 1229 2726 
L 3290 2726 
L 3290 2061 
L 1613 2061 
L 1670 1875 
L 4838 1875 
L 4838 1626 
L 4877 1626 
C 4966 1626 5114 1702 5120 1741 
L 5120 2726 
L 5997 2726 
C 6086 2726 6144 2758 6157 2822 
C 5978 3002 5677 3232 5677 3232 
L 5414 2912 
z
" transform="scale(0.015625)"/>
      </defs>
      <use xlink:href="#NotoSerifCJKjp-ExtraLight-912d"/>
      <use xlink:href="#NotoSerifCJKjp-ExtraLight-5510" x="99.999985"/>
     </g>
    </g>
    <g clip-path="url(#pd6388480c0)">
     <!--   -->
     <g transform="translate(1494.444097 899.596364) scale(0.12 -0.12)">
      <use xlink:href="#NotoSerifCJKjp-ExtraLight-20"/>
     </g>
    </g>
   </g>
   <g id="text_25">
    <g clip-path="url(#pd6388480c0)">
     <!-- 鄭殷 -->
     <g transform="translate(1651.759215 884.956364) scale(0.12 -0.12)">
      <defs>
       <path id="NotoSerifCJKjp-ExtraLight-6bb7" d="M 3008 2707 
C 3731 3213 3795 3955 3795 4474 
L 3795 4806 
L 4787 4806 
L 4787 3386 
C 4787 3194 4845 3110 5126 3110 
L 5446 3110 
C 5978 3110 6099 3162 6099 3283 
C 6099 3347 6074 3373 5971 3411 
L 5952 3955 
L 5869 3955 
C 5830 3725 5779 3482 5747 3418 
C 5728 3373 5722 3373 5683 3366 
L 5446 3366 
L 5190 3366 
C 5088 3366 5069 3379 5069 3450 
L 5069 4749 
C 5190 4762 5254 4794 5299 4838 
L 4909 5178 
L 4736 4992 
L 3859 4992 
L 3514 5171 
L 3514 4467 
C 3514 3917 3450 3315 2931 2797 
L 3008 2707 
z
M 2400 4096 
L 2400 3533 
L 1050 3533 
L 1050 4096 
L 2400 4096 
z
M 1050 2758 
L 1050 2944 
L 1050 3341 
L 2400 3341 
L 2400 2758 
L 1050 2758 
z
M 2464 2112 
L 2291 1914 
L 1024 1914 
C 1037 2138 1043 2355 1050 2566 
L 2400 2566 
L 2400 2323 
L 2438 2323 
C 2534 2323 2682 2400 2688 2438 
L 2688 4032 
C 2810 4058 2918 4109 2963 4160 
L 2528 4493 
L 2342 4288 
L 1050 4288 
L 1050 4730 
C 1600 4774 2189 4877 2573 4979 
C 2701 4928 2790 4922 2848 4973 
L 2464 5325 
C 2157 5178 1606 4986 1094 4877 
L 762 4998 
L 762 2938 
C 762 1811 736 608 230 -371 
L 339 -442 
C 774 179 947 966 1011 1722 
L 2349 1722 
C 2304 742 2227 230 2106 109 
C 2054 64 2010 58 1914 58 
C 1805 58 1485 83 1286 96 
L 1280 -19 
C 1446 -38 1632 -83 1696 -128 
C 1773 -173 1792 -256 1792 -333 
C 1965 -333 2157 -282 2285 -166 
C 2477 19 2586 595 2624 1702 
C 2752 1715 2822 1741 2861 1792 
L 2464 2112 
z
M 5190 2349 
C 5011 1830 4755 1350 4403 934 
C 4045 1331 3776 1805 3610 2349 
L 5190 2349 
z
M 5408 2758 
L 5184 2541 
L 3034 2541 
L 3091 2349 
L 3456 2349 
C 3622 1722 3885 1190 4237 742 
C 3808 294 3270 -83 2598 -365 
L 2662 -467 
C 3386 -218 3955 134 4397 550 
C 4794 115 5299 -224 5907 -461 
C 5965 -333 6067 -256 6189 -256 
L 6202 -192 
C 5562 13 5018 326 4589 742 
C 5011 1203 5312 1734 5530 2323 
C 5677 2330 5741 2349 5792 2394 
L 5408 2758 
z
" transform="scale(0.015625)"/>
      </defs>
      <use xlink:href="#NotoSerifCJKjp-ExtraLight-912d"/>
      <use xlink:href="#NotoSerifCJKjp-ExtraLight-6bb7" x="99.999985"/>
     </g>
    </g>
    <g clip-path="url(#pd6388480c0)">
     <!--  -->
     <g transform="translate(1663.759215 899.596364) scale(0.12 -0.12)"/>
    </g>
   </g>
   <g id="text_26">
    <g clip-path="url(#pd6388480c0)">
     <!-- 南八元 -->
     <g transform="translate(1810.29379 884.956364) scale(0.12 -0.12)">
      <defs>
       <path id="NotoSerifCJKjp-ExtraLight-5357" d="M 4723 909 
C 4813 909 4870 941 4883 1011 
C 4698 1184 4403 1414 4403 1414 
L 4141 1094 
L 3302 1094 
L 3302 1914 
L 4634 1914 
C 4723 1914 4781 1939 4800 2010 
C 4621 2176 4352 2387 4352 2387 
L 4109 2099 
L 3584 2099 
C 3789 2342 4006 2643 4147 2867 
C 4282 2861 4365 2912 4390 2982 
L 3878 3155 
C 3763 2835 3578 2406 3418 2099 
L 1587 2099 
L 1638 1914 
L 3021 1914 
L 3021 1094 
L 1504 1094 
L 1549 909 
L 3021 909 
L 3021 -384 
L 3059 -384 
C 3200 -384 3302 -301 3302 -275 
L 3302 909 
L 4723 909 
z
M 2042 3091 
C 2221 2867 2426 2502 2464 2221 
C 2771 1965 3059 2624 2125 3136 
L 2042 3091 
z
M 5299 4454 
L 3309 4454 
L 3309 5082 
C 3462 5101 3533 5165 3546 5254 
L 3027 5312 
L 3027 4454 
L 294 4454 
L 352 4269 
L 3027 4269 
L 3027 3462 
L 1133 3462 
L 813 3629 
L 813 -480 
L 864 -480 
C 992 -480 1094 -403 1094 -365 
L 1094 3270 
L 5312 3270 
L 5312 77 
C 5312 -26 5280 -70 5152 -70 
C 4998 -70 4282 -13 4282 -13 
L 4282 -122 
C 4582 -154 4768 -192 4877 -250 
C 4960 -294 4998 -384 5018 -474 
C 5542 -416 5600 -224 5600 38 
L 5600 3206 
C 5722 3226 5837 3283 5882 3328 
L 5421 3674 
L 5254 3462 
L 3309 3462 
L 3309 4269 
L 5933 4269 
C 6022 4269 6086 4301 6099 4371 
C 5901 4557 5581 4806 5581 4806 
L 5299 4454 
z
" transform="scale(0.015625)"/>
       <path id="NotoSerifCJKjp-ExtraLight-516b" d="M 371 -333 
C 1530 384 2214 1779 2464 3469 
C 2605 3475 2682 3546 2701 3622 
L 2118 3731 
C 1939 1946 1306 499 282 -250 
L 371 -333 
z
M 3866 5120 
L 3648 4806 
L 1862 4806 
L 1920 4614 
L 3795 4614 
C 4032 2438 4480 749 5786 -275 
C 5843 -166 5971 -83 6106 -70 
L 6138 0 
C 4736 909 4224 2707 3994 4525 
C 4218 4538 4371 4582 4454 4672 
L 3866 5120 
z
" transform="scale(0.015625)"/>
       <path id="NotoSerifCJKjp-ExtraLight-5143" d="M 5280 4608 
C 5363 4608 5421 4640 5440 4710 
C 5242 4896 4922 5146 4922 5146 
L 4646 4800 
L 1005 4800 
L 1056 4608 
L 5280 4608 
z
M 6010 1126 
L 5914 1126 
C 5856 672 5786 205 5741 83 
C 5722 19 5702 -6 5632 -13 
C 5530 -26 5299 -26 4966 -26 
L 4301 -26 
C 4026 -26 3994 13 3994 134 
L 3994 2925 
L 3994 3046 
L 5939 3046 
C 6029 3046 6086 3078 6106 3149 
C 5901 3334 5574 3590 5574 3590 
L 5286 3232 
L 314 3232 
L 371 3046 
L 2195 3046 
C 2131 1350 1779 384 243 -390 
L 288 -493 
C 2016 205 2419 1197 2515 3046 
L 3706 3046 
L 3706 77 
C 3706 -192 3808 -288 4269 -288 
L 4986 -288 
C 5997 -288 6170 -243 6170 -96 
C 6170 -32 6144 6 6022 45 
L 6010 1126 
z
" transform="scale(0.015625)"/>
      </defs>
      <use xlink:href="#NotoSerifCJKjp-ExtraLight-5357"/>
      <use xlink:href="#NotoSerifCJKjp-ExtraLight-516b" x="99.999985"/>
      <use xlink:href="#NotoSerifCJKjp-ExtraLight-5143" x="199.999969"/>
     </g>
    </g>
    <g clip-path="url(#pd6388480c0)">
     <!--  -->
     <g transform="translate(1828.29379 899.596364) scale(0.12 -0.12)"/>
    </g>
   </g>
   <g id="text_27">
    <g clip-path="url(#pd6388480c0)">
     <!-- 安億壽 -->
     <g transform="translate(2057.095653 197.683636) scale(0.12 -0.12)">
      <defs>
       <path id="NotoSerifCJKjp-ExtraLight-5b89" d="M 5466 4250 
C 5376 4019 5254 3725 5158 3546 
L 5248 3494 
C 5453 3674 5722 3987 5862 4198 
C 5984 4205 6061 4218 6106 4262 
L 5690 4672 
L 5459 4442 
L 3334 4442 
L 3334 5120 
C 3488 5139 3558 5203 3571 5293 
L 3053 5350 
L 3053 4442 
L 1165 4442 
C 1152 4538 1133 4646 1101 4762 
L 986 4755 
C 1024 4301 800 3891 531 3744 
C 429 3674 358 3565 410 3462 
C 480 3347 678 3386 819 3488 
C 979 3603 1158 3853 1171 4250 
L 5466 4250 
z
M 4288 2694 
C 4141 1971 3878 1402 3462 960 
C 3021 1094 2502 1222 1894 1338 
C 2106 1766 2336 2246 2534 2694 
L 4288 2694 
z
M 5293 2880 
L 2624 2880 
C 2784 3245 2925 3571 3008 3802 
C 3168 3802 3226 3859 3251 3942 
L 2778 4038 
C 2682 3750 2522 3328 2323 2880 
L 320 2880 
L 378 2694 
L 2246 2694 
C 1926 1965 1542 1190 1280 755 
C 1395 704 1517 691 1587 730 
C 1664 870 1747 1037 1837 1216 
C 2355 1094 2835 941 3270 774 
C 2624 211 1658 -128 256 -333 
L 282 -461 
C 1862 -294 2893 45 3571 659 
C 4429 301 5075 -109 5421 -448 
C 5843 -608 5882 154 3776 864 
C 4198 1325 4467 1926 4640 2694 
L 5914 2694 
C 6003 2694 6067 2726 6080 2790 
C 5882 2976 5568 3219 5568 3219 
L 5293 2880 
z
" transform="scale(0.015625)"/>
       <path id="NotoSerifCJKjp-ExtraLight-5104" d="M 2093 4755 
L 2144 4563 
L 2886 4563 
L 2829 4538 
C 2976 4346 3149 4032 3187 3789 
C 3482 3558 3770 4122 2938 4563 
L 4723 4563 
C 4621 4320 4474 3981 4346 3731 
L 1779 3731 
L 1830 3546 
L 6035 3546 
C 6118 3546 6176 3578 6195 3642 
C 6010 3821 5715 4051 5715 4051 
L 5446 3731 
L 4531 3731 
C 4698 3917 4877 4128 4998 4301 
C 5133 4288 5216 4339 5242 4416 
L 4768 4563 
L 5754 4563 
C 5843 4563 5901 4595 5920 4666 
C 5728 4845 5434 5075 5434 5075 
L 5178 4755 
L 4064 4755 
L 4064 5114 
C 4205 5133 4269 5190 4282 5280 
L 3782 5331 
L 3782 4755 
L 2093 4755 
z
M 1690 5325 
C 1344 4128 768 2938 218 2189 
L 314 2118 
C 589 2413 858 2784 1101 3200 
L 1101 -467 
L 1152 -467 
C 1261 -467 1382 -384 1389 -358 
L 1389 3482 
C 1498 3494 1555 3539 1574 3597 
L 1363 3674 
C 1587 4102 1792 4570 1958 5037 
C 2099 5030 2176 5088 2202 5158 
L 1690 5325 
z
M 2374 1018 
C 2362 621 2093 275 1837 160 
C 1741 96 1677 0 1728 -83 
C 1786 -173 1965 -141 2099 -51 
C 2310 90 2586 429 2496 1018 
L 2374 1018 
z
M 5190 2918 
L 5190 2438 
L 2701 2438 
L 2701 2918 
L 5190 2918 
z
M 2701 1747 
L 2701 2253 
L 5190 2253 
L 5190 1747 
L 2701 1747 
z
M 5190 1555 
L 5190 1338 
L 5235 1338 
C 5350 1338 5472 1414 5472 1440 
L 5472 2899 
C 5594 2925 5658 2957 5702 3002 
L 5318 3290 
L 5178 3110 
L 2778 3110 
L 2419 3270 
L 2419 1280 
L 2458 1280 
C 2605 1280 2701 1357 2701 1389 
L 2701 1555 
L 5190 1555 
z
M 3488 1312 
C 3795 1139 4192 813 4339 563 
C 4698 390 4819 1114 3552 1382 
L 3488 1312 
z
M 5120 506 
L 5037 506 
C 4992 256 4941 26 4896 -51 
C 4877 -96 4858 -102 4794 -109 
C 4717 -115 4474 -115 4173 -115 
L 3533 -115 
C 3290 -115 3270 -102 3270 -19 
L 3270 902 
C 3379 915 3443 979 3450 1050 
L 2989 1107 
L 2989 -64 
C 2989 -294 3066 -371 3494 -371 
L 4179 -371 
C 5126 -371 5286 -326 5286 -179 
C 5286 -128 5254 -96 5139 -58 
L 5120 506 
z
M 4998 1030 
C 5350 787 5786 339 5894 -13 
C 6291 -256 6483 634 5069 1088 
L 4998 1030 
z
" transform="scale(0.015625)"/>
      </defs>
      <use xlink:href="#NotoSerifCJKjp-ExtraLight-5b89"/>
      <use xlink:href="#NotoSerifCJKjp-ExtraLight-5104" x="99.999985"/>
      <use xlink:href="#NotoSerifCJKjp-ExtraLight-58fd" x="199.999969"/>
     </g>
    </g>
    <g clip-path="url(#pd6388480c0)">
     <!-- 縣監 -->
     <g transform="translate(2063.095653 212.323636) scale(0.12 -0.12)">
      <defs>
       <path id="NotoSerifCJKjp-ExtraLight-7e23" d="M 4550 4723 
C 4941 4787 5299 4864 5581 4934 
C 5715 4883 5811 4877 5862 4928 
L 5472 5293 
C 5018 5075 4128 4826 3379 4717 
L 3411 4595 
C 3731 4614 4070 4653 4390 4698 
C 4230 4320 4045 3910 3891 3616 
C 3750 3693 3584 3770 3373 3834 
L 3302 3770 
C 3610 3571 3994 3200 4115 2918 
C 4384 2778 4531 3168 4013 3533 
C 4224 3795 4474 4154 4666 4474 
C 4794 4454 4870 4512 4896 4576 
L 4550 4723 
z
M 2650 4800 
L 2650 4256 
L 1638 4256 
L 1638 4800 
L 2650 4800 
z
M 1638 3520 
L 1638 4064 
L 2650 4064 
L 2650 3520 
L 1638 3520 
z
M 1638 2771 
L 1638 3328 
L 2650 3328 
L 2650 2771 
L 1638 2771 
z
M 1638 2579 
L 2650 2579 
L 2650 2336 
L 2688 2336 
C 2778 2336 2925 2413 2931 2451 
L 2931 4736 
C 3059 4762 3168 4813 3206 4864 
L 2778 5197 
L 2586 4986 
L 1715 4986 
L 1357 5158 
L 1357 2253 
L 1395 2253 
C 1536 2253 1638 2336 1638 2362 
L 1638 2579 
z
M 429 -218 
C 742 90 1062 576 1280 1069 
C 1408 1056 1485 1107 1510 1178 
L 1005 1357 
C 838 787 576 211 326 -160 
L 429 -218 
z
M 2336 1274 
C 2554 1030 2797 614 2835 294 
C 3142 38 3418 749 2413 1318 
L 2336 1274 
z
M 2682 1894 
L 877 1894 
L 877 4378 
C 1037 4397 1094 4454 1107 4544 
L 595 4608 
L 595 1408 
L 653 1408 
C 755 1408 877 1485 877 1523 
L 877 1702 
L 1715 1702 
L 1715 -480 
L 1754 -480 
C 1901 -480 1997 -397 1997 -371 
L 1997 1702 
L 3168 1702 
C 3245 1702 3309 1734 3322 1805 
C 3168 1958 2906 2170 2906 2170 
L 2682 1894 
z
M 3302 -141 
C 3603 173 3885 646 4083 1114 
C 4218 1107 4288 1165 4314 1235 
L 3821 1402 
C 3667 851 3430 282 3200 -77 
L 3302 -141 
z
M 5146 1357 
C 5395 1043 5690 512 5709 115 
C 6029 -173 6310 634 5235 1402 
L 5146 1357 
z
M 5178 2637 
C 5312 2502 5459 2330 5581 2144 
C 5030 2112 4499 2080 4064 2061 
C 4544 2547 5069 3206 5376 3680 
C 5510 3654 5600 3699 5638 3763 
L 5171 4000 
C 4858 3405 4333 2605 3885 2054 
C 3654 2048 3462 2042 3328 2042 
L 3501 1626 
C 3565 1632 3616 1670 3654 1754 
C 3974 1792 4269 1830 4538 1862 
L 4538 -486 
L 4576 -486 
C 4723 -486 4826 -403 4826 -378 
L 4826 1901 
C 5146 1939 5427 1978 5664 2016 
C 5760 1856 5830 1690 5856 1542 
C 6176 1299 6413 2048 5261 2688 
L 5178 2637 
z
" transform="scale(0.015625)"/>
       <path id="NotoSerifCJKjp-ExtraLight-76e3" d="M 3238 2995 
C 3533 3264 3789 3635 4006 4032 
L 5933 4032 
C 6022 4032 6086 4058 6099 4128 
C 5914 4307 5619 4538 5619 4538 
L 5357 4218 
L 4102 4218 
C 4224 4480 4333 4749 4422 5018 
C 4544 5018 4621 5075 4640 5152 
L 4109 5293 
C 3930 4454 3565 3578 3142 3059 
L 3238 2995 
z
M 5286 2771 
L 3674 2771 
L 3725 2579 
L 5862 2579 
C 5952 2579 6010 2611 6029 2682 
C 5837 2854 5542 3091 5542 3091 
L 5286 2771 
z
M 1664 4762 
L 1664 4134 
L 883 4134 
L 883 4762 
L 1664 4762 
z
M 2688 3949 
L 2688 3270 
L 883 3270 
L 883 3949 
L 2688 3949 
z
M 1664 2349 
L 883 2349 
L 883 3085 
L 1664 3085 
L 1664 2349 
z
M 883 2163 
L 3085 2163 
C 3174 2163 3226 2195 3245 2266 
C 3066 2438 2778 2669 2778 2669 
L 2522 2349 
L 1946 2349 
L 1946 3085 
L 2688 3085 
L 2688 2912 
L 2726 2912 
C 2816 2912 2963 2989 2970 3027 
L 2970 3904 
C 3078 3923 3181 3974 3213 4019 
L 2803 4326 
L 2630 4134 
L 1946 4134 
L 1946 4762 
L 3040 4762 
C 3130 4762 3187 4794 3200 4864 
C 3021 5030 2739 5261 2739 5261 
L 2490 4947 
L 960 4947 
L 602 5120 
L 602 1811 
L 640 1811 
C 781 1811 883 1894 883 1920 
L 883 2163 
z
M 1440 1427 
L 2400 1427 
L 2400 -134 
L 1440 -134 
L 1440 1427 
z
M 3667 1427 
L 3667 -134 
L 2688 -134 
L 2688 1427 
L 3667 1427 
z
M 4934 1427 
L 4934 -134 
L 3955 -134 
L 3955 1427 
L 4934 1427 
z
M 5357 -134 
L 5222 -134 
L 5222 1382 
C 5376 1402 5466 1434 5510 1504 
L 5043 1856 
L 4864 1613 
L 1517 1613 
L 1152 1786 
L 1152 -134 
L 301 -134 
L 358 -320 
L 5958 -320 
C 6048 -320 6106 -288 6125 -218 
C 5933 -45 5626 198 5626 198 
L 5357 -134 
z
" transform="scale(0.015625)"/>
      </defs>
      <use xlink:href="#NotoSerifCJKjp-ExtraLight-7e23"/>
      <use xlink:href="#NotoSerifCJKjp-ExtraLight-76e3" x="99.999985"/>
     </g>
    </g>
   </g>
   <g id="text_28">
    <g clip-path="url(#pd6388480c0)">
     <!-- 安賢孫 -->
     <g transform="translate(1974.828365 884.956364) scale(0.12 -0.12)">
      <defs>
       <path id="NotoSerifCJKjp-ExtraLight-8ce2" d="M 1728 4806 
L 1728 4454 
L 960 4454 
L 960 4806 
L 1728 4806 
z
M 2662 4262 
L 2662 3846 
L 960 3846 
L 960 4262 
L 2662 4262 
z
M 1728 3264 
L 960 3264 
L 960 3654 
L 1728 3654 
L 1728 3264 
z
M 960 3078 
L 3187 3078 
C 3270 3078 3328 3110 3347 3181 
C 3174 3334 2899 3539 2899 3539 
L 2662 3264 
L 2010 3264 
L 2010 3654 
L 2662 3654 
L 2662 3546 
L 2701 3546 
C 2790 3546 2938 3616 2944 3654 
L 2944 4218 
C 3053 4237 3155 4288 3194 4333 
L 2778 4640 
L 2605 4454 
L 2010 4454 
L 2010 4806 
L 3130 4806 
C 3213 4806 3270 4838 3283 4902 
C 3117 5069 2835 5286 2835 5286 
L 2598 4992 
L 1037 4992 
L 678 5165 
L 678 2694 
L 710 2694 
C 858 2694 960 2771 960 2797 
L 960 3078 
z
M 1715 787 
L 1715 1261 
L 4691 1261 
L 4691 787 
L 1715 787 
z
M 4691 2566 
L 4691 2106 
L 1715 2106 
L 1715 2566 
L 4691 2566 
z
M 4691 1453 
L 1715 1453 
L 1715 1920 
L 4691 1920 
L 4691 1453 
z
M 4730 390 
C 4826 390 4966 474 4973 512 
L 4973 2522 
C 5082 2541 5184 2592 5222 2637 
L 4813 2950 
L 4634 2758 
L 1747 2758 
L 1434 2918 
L 1434 320 
L 1485 320 
C 1600 320 1715 390 1715 422 
L 1715 602 
L 4691 602 
L 4691 390 
L 4730 390 
z
M 506 -454 
C 1274 -352 2118 -122 2637 83 
C 2771 38 2867 38 2918 90 
L 2509 416 
C 2074 160 1203 -173 467 -339 
L 506 -454 
z
M 3603 224 
C 4403 45 5043 -192 5434 -422 
C 5856 -666 6394 70 3622 339 
L 3603 224 
z
M 5254 4806 
C 5101 4442 4864 4109 4557 3821 
C 4262 4096 4032 4429 3866 4806 
L 5254 4806 
z
M 5491 5197 
L 5274 4992 
L 3322 4992 
L 3379 4806 
L 3718 4806 
C 3872 4365 4096 3981 4384 3661 
C 4045 3379 3635 3149 3162 2970 
L 3213 2861 
C 3738 3014 4179 3232 4538 3494 
C 4896 3155 5331 2893 5856 2707 
C 5901 2829 5997 2906 6125 2918 
L 6131 2982 
C 5594 3130 5126 3360 4742 3661 
C 5120 3981 5395 4358 5600 4787 
C 5741 4787 5811 4806 5862 4858 
L 5491 5197 
z
" transform="scale(0.015625)"/>
      </defs>
      <use xlink:href="#NotoSerifCJKjp-ExtraLight-5b89"/>
      <use xlink:href="#NotoSerifCJKjp-ExtraLight-8ce2" x="99.999985"/>
      <use xlink:href="#NotoSerifCJKjp-ExtraLight-5b6b" x="199.999969"/>
     </g>
    </g>
    <g clip-path="url(#pd6388480c0)">
     <!--   -->
     <g transform="translate(1991.27399 899.596364) scale(0.12 -0.12)">
      <use xlink:href="#NotoSerifCJKjp-ExtraLight-20"/>
     </g>
    </g>
   </g>
   <g id="text_29">
    <g clip-path="url(#pd6388480c0)">
     <!-- 韓敍倫 -->
     <g transform="translate(2139.36294 884.956364) scale(0.12 -0.12)">
      <defs>
       <path id="NotoSerifCJKjp-ExtraLight-97d3" d="M 5011 4550 
L 5011 3878 
L 3955 3878 
C 4000 4077 4058 4314 4115 4550 
L 5011 4550 
z
M 3130 4550 
L 3834 4550 
C 3776 4307 3725 4070 3680 3878 
L 2810 3878 
L 2861 3686 
L 5958 3686 
C 6048 3686 6106 3718 6125 3789 
C 5946 3962 5670 4179 5670 4179 
L 5421 3878 
L 5299 3878 
L 5299 4506 
C 5402 4525 5504 4576 5542 4621 
L 5139 4928 
L 4954 4742 
L 4160 4742 
L 4243 5114 
C 4365 5114 4442 5178 4461 5261 
L 3994 5325 
C 3962 5146 3917 4947 3872 4742 
L 3072 4742 
L 3130 4550 
z
M 3488 2419 
L 3488 3091 
L 5203 3091 
L 5203 2419 
L 3488 2419 
z
M 5242 2054 
C 5331 2054 5472 2131 5478 2170 
L 5478 3027 
C 5606 3053 5722 3104 5754 3155 
L 5318 3482 
L 5139 3277 
L 3520 3277 
L 3200 3430 
L 3200 1946 
L 3245 1946 
C 3360 1946 3488 2010 3488 2035 
L 3488 2234 
L 5203 2234 
L 5203 2054 
L 5242 2054 
z
M 864 2592 
L 2246 2592 
L 2246 1958 
L 864 1958 
L 864 2592 
z
M 2246 3443 
L 2246 2778 
L 864 2778 
L 864 3443 
L 2246 3443 
z
M 2714 851 
C 2797 851 2854 883 2874 954 
C 2707 1114 2432 1331 2432 1331 
L 2195 1043 
L 1690 1043 
L 1690 1773 
L 2246 1773 
L 2246 1638 
L 2285 1638 
C 2374 1638 2522 1722 2528 1760 
L 2528 3379 
C 2656 3405 2765 3456 2803 3507 
L 2368 3840 
L 2182 3629 
L 1696 3629 
L 1696 4275 
L 2746 4275 
C 2829 4275 2886 4307 2906 4378 
C 2726 4550 2426 4781 2426 4781 
L 2176 4461 
L 1696 4461 
L 1696 5120 
C 1837 5146 1894 5203 1907 5286 
L 1421 5338 
L 1421 4461 
L 301 4461 
L 352 4275 
L 1421 4275 
L 1421 3629 
L 896 3629 
L 582 3789 
L 582 1555 
L 627 1555 
C 742 1555 864 1626 864 1658 
L 864 1773 
L 1414 1773 
L 1414 1043 
L 262 1043 
L 314 851 
L 1414 851 
L 1414 -486 
L 1453 -486 
C 1587 -486 1690 -403 1690 -378 
L 1690 851 
L 2714 851 
z
M 3456 634 
L 3456 1395 
L 4410 1395 
L 4410 634 
L 3456 634 
z
M 5453 634 
L 4691 634 
L 4691 1395 
L 5677 1395 
C 5754 1395 5818 1427 5830 1498 
C 5670 1658 5402 1862 5402 1862 
L 5178 1581 
L 4691 1581 
L 4691 1926 
C 4813 1939 4864 1990 4877 2067 
L 4410 2125 
L 4410 1581 
L 3533 1581 
L 3181 1747 
L 3181 634 
L 2637 634 
L 2688 442 
L 4410 442 
L 4410 -467 
L 4461 -467 
C 4570 -467 4691 -390 4691 -346 
L 4691 442 
L 5971 442 
C 6061 442 6118 474 6131 544 
C 5958 704 5690 922 5690 922 
L 5453 634 
z
" transform="scale(0.015625)"/>
       <path id="NotoSerifCJKjp-ExtraLight-654d" d="M 1632 5331 
C 1389 4653 806 3693 230 3142 
L 314 3066 
C 960 3565 1530 4384 1875 5024 
C 2355 4621 2733 4147 2912 3827 
C 3226 3610 3635 4262 1914 5101 
C 2067 5107 2138 5146 2157 5216 
L 1632 5331 
z
M 998 1875 
C 819 1261 538 672 256 288 
L 352 224 
C 698 550 1030 1062 1248 1587 
C 1382 1581 1453 1638 1478 1709 
L 998 1875 
z
M 3123 2278 
C 3206 2278 3264 2310 3283 2374 
C 3110 2547 2822 2771 2822 2771 
L 2579 2464 
L 2029 2464 
L 2029 3322 
L 2848 3322 
C 2938 3322 2995 3354 3014 3424 
C 2842 3590 2573 3802 2573 3802 
L 2342 3514 
L 941 3514 
L 992 3322 
L 1747 3322 
L 1747 2464 
L 384 2464 
L 435 2278 
L 1747 2278 
L 1747 26 
C 1747 -64 1722 -96 1606 -96 
C 1498 -96 954 -58 954 -58 
L 954 -160 
C 1190 -179 1338 -211 1421 -262 
C 1491 -307 1517 -390 1530 -467 
C 1971 -416 2029 -230 2029 19 
L 2029 2278 
L 3123 2278 
z
M 2342 1856 
C 2592 1542 2886 1030 2925 640 
C 3258 346 3552 1158 2419 1901 
L 2342 1856 
z
M 5402 2694 
C 5210 2080 4922 1517 4518 1024 
C 4141 1491 3859 2054 3686 2694 
L 5402 2694 
z
M 5606 3085 
L 5389 2880 
L 4531 2880 
L 4531 3974 
L 5958 3974 
C 6048 3974 6106 4006 6125 4070 
C 5933 4250 5638 4480 5638 4480 
L 5370 4160 
L 4531 4160 
L 4531 5088 
C 4685 5114 4755 5178 4768 5267 
L 4250 5325 
L 4250 2880 
L 3155 2880 
L 3206 2694 
L 3546 2694 
C 3706 1965 3968 1338 4339 819 
C 3898 339 3334 -64 2650 -365 
L 2714 -467 
C 3450 -192 4026 179 4480 627 
C 4858 160 5325 -211 5894 -480 
C 5958 -339 6074 -262 6202 -262 
L 6214 -198 
C 5606 32 5094 384 4678 832 
C 5158 1363 5485 1984 5715 2662 
C 5856 2669 5926 2688 5978 2739 
L 5606 3085 
z
" transform="scale(0.015625)"/>
       <path id="NotoSerifCJKjp-ExtraLight-502b" d="M 1395 3674 
C 1619 4102 1824 4570 1990 5037 
C 2131 5030 2208 5088 2234 5158 
L 1722 5325 
C 1376 4128 800 2938 250 2189 
L 346 2118 
C 621 2413 890 2784 1133 3200 
L 1133 -467 
L 1184 -467 
C 1293 -467 1414 -384 1421 -358 
L 1421 3482 
C 1523 3494 1587 3539 1606 3597 
L 1395 3674 
z
M 4531 1318 
L 4531 2419 
L 5370 2419 
L 5370 1318 
L 4531 1318 
z
M 3450 1318 
L 3450 2419 
L 4250 2419 
L 4250 1318 
L 3450 1318 
z
M 2368 1318 
L 2368 2419 
L 3168 2419 
L 3168 1318 
L 2368 1318 
z
M 5306 2611 
L 2400 2611 
L 2086 2771 
L 2086 -461 
L 2138 -461 
C 2259 -461 2368 -390 2368 -352 
L 2368 1126 
L 3168 1126 
L 3168 -403 
L 3200 -403 
C 3347 -403 3450 -326 3450 -294 
L 3450 1126 
L 4250 1126 
L 4250 -403 
L 4288 -403 
C 4435 -403 4531 -326 4531 -294 
L 4531 1126 
L 5370 1126 
L 5370 19 
C 5370 -64 5350 -96 5274 -96 
C 5178 -96 4813 -64 4813 -64 
L 4813 -173 
C 4979 -186 5082 -218 5146 -262 
C 5203 -314 5229 -390 5235 -467 
C 5613 -422 5658 -269 5658 -19 
L 5658 2362 
C 5773 2381 5888 2432 5926 2483 
L 5472 2816 
L 5306 2611 
z
M 4371 3450 
L 2618 3450 
L 2669 3258 
L 4941 3258 
C 5030 3258 5094 3290 5107 3360 
C 4922 3539 4627 3770 4627 3770 
L 4371 3450 
z
M 3680 5318 
C 3411 4570 2419 3539 1600 3040 
L 1658 2944 
C 2560 3411 3494 4243 3949 5011 
C 4314 4250 5056 3546 5843 3098 
C 5882 3206 5997 3296 6138 3322 
L 6144 3411 
C 5293 3795 4493 4422 4058 5088 
C 4192 5101 4262 5126 4282 5197 
L 3680 5318 
z
" transform="scale(0.015625)"/>
      </defs>
      <use xlink:href="#NotoSerifCJKjp-ExtraLight-97d3"/>
      <use xlink:href="#NotoSerifCJKjp-ExtraLight-654d" x="99.999985"/>
      <use xlink:href="#NotoSerifCJKjp-ExtraLight-502b" x="199.999969"/>
     </g>
    </g>
    <g clip-path="url(#pd6388480c0)">
     <!--  -->
     <g transform="translate(2157.36294 899.596364) scale(0.12 -0.12)"/>
    </g>
   </g>
   <g id="text_30">
    <g clip-path="url(#pd6388480c0)">
     <!-- 朴紹宗 -->
     <g transform="translate(2386.164803 197.683636) scale(0.12 -0.12)">
      <defs>
       <path id="NotoSerifCJKjp-ExtraLight-6734" d="M 2637 3891 
L 2003 3891 
L 2003 5094 
C 2163 5120 2214 5178 2234 5274 
L 1722 5331 
L 1722 3891 
L 352 3891 
L 403 3699 
L 1606 3699 
C 1350 2675 883 1677 230 909 
L 320 819 
C 941 1427 1408 2176 1722 3002 
L 1722 -454 
L 1786 -454 
C 1888 -454 2003 -384 2003 -326 
L 2003 2842 
C 2323 2573 2720 2144 2854 1824 
C 3238 1600 3424 2394 2016 2944 
L 2003 2931 
L 2003 3699 
L 3219 3699 
C 3302 3699 3366 3731 3386 3802 
C 3200 3981 2899 4211 2899 4211 
L 2637 3891 
z
M 4179 5082 
C 4339 5107 4390 5165 4410 5261 
L 3898 5318 
L 3898 -442 
L 3962 -442 
C 4058 -442 4179 -365 4179 -307 
L 4179 3085 
C 4774 2784 5562 2240 5850 1824 
C 6323 1638 6310 2611 4179 3200 
L 4179 5082 
z
" transform="scale(0.015625)"/>
       <path id="NotoSerifCJKjp-ExtraLight-7d39" d="M 1376 5338 
C 1210 4922 1005 4461 838 4122 
C 710 4205 550 4282 352 4346 
L 282 4288 
C 563 4090 896 3731 979 3456 
C 1235 3290 1402 3674 960 4032 
C 1184 4320 1434 4704 1632 5030 
C 1760 5018 1837 5069 1862 5139 
L 1376 5338 
z
M 339 32 
C 614 397 832 947 986 1459 
C 1107 1459 1178 1510 1203 1581 
L 704 1728 
C 614 1133 435 512 237 90 
L 339 32 
z
M 1888 3194 
C 2010 3040 2150 2835 2259 2624 
C 1843 2598 1440 2579 1094 2566 
C 1549 3123 2048 3814 2355 4314 
C 2490 4294 2579 4339 2618 4410 
L 2144 4621 
C 1830 4013 1325 3181 896 2554 
C 627 2547 403 2541 250 2541 
L 416 2144 
C 474 2157 531 2189 563 2272 
C 877 2304 1165 2342 1421 2374 
L 1421 -467 
L 1459 -467 
C 1594 -467 1702 -390 1702 -358 
L 1702 2406 
C 1939 2438 2144 2470 2323 2496 
C 2381 2362 2426 2240 2445 2125 
C 2765 1869 3027 2579 1965 3238 
L 1888 3194 
z
M 2042 1709 
C 2208 1389 2413 870 2445 499 
C 2752 218 3046 922 2131 1741 
L 2042 1709 
z
M 5568 4742 
C 5523 3795 5434 3168 5299 3040 
C 5242 2989 5190 2976 5075 2976 
C 4947 2976 4499 3014 4250 3040 
L 4250 2918 
C 4461 2893 4723 2842 4806 2790 
C 4883 2752 4909 2662 4909 2579 
C 5120 2579 5331 2643 5466 2765 
C 5690 2970 5798 3654 5843 4717 
C 5971 4736 6048 4762 6093 4806 
L 5690 5133 
L 5510 4928 
L 2822 4928 
L 2880 4742 
L 3962 4742 
C 3917 4038 3757 3226 2822 2566 
L 2918 2464 
C 3994 3110 4205 3968 4275 4742 
L 5568 4742 
z
M 3456 205 
L 3456 1933 
L 5434 1933 
L 5434 205 
L 3456 205 
z
M 5414 2118 
L 3533 2118 
L 3181 2285 
L 3181 -435 
L 3213 -435 
C 3360 -435 3456 -352 3456 -326 
L 3456 13 
L 5434 13 
L 5434 -397 
L 5472 -397 
C 5594 -397 5715 -314 5715 -288 
L 5715 1914 
C 5837 1933 5907 1958 5952 2010 
L 5568 2310 
L 5414 2118 
z
" transform="scale(0.015625)"/>
       <path id="NotoSerifCJKjp-ExtraLight-5b97" d="M 5466 4250 
C 5376 4019 5254 3725 5158 3546 
L 5248 3494 
C 5453 3674 5722 3987 5862 4198 
C 5984 4205 6061 4218 6106 4262 
L 5690 4672 
L 5459 4442 
L 3334 4442 
L 3334 5120 
C 3488 5139 3558 5203 3571 5293 
L 3053 5350 
L 3053 4442 
L 1146 4442 
C 1139 4544 1120 4659 1088 4781 
L 966 4774 
C 1011 4307 787 3891 512 3731 
C 410 3661 339 3552 397 3456 
C 461 3341 666 3379 800 3482 
C 966 3603 1139 3853 1152 4250 
L 5466 4250 
z
M 1402 3386 
L 1453 3194 
L 4883 3194 
C 4973 3194 5030 3226 5050 3296 
C 4864 3469 4563 3680 4563 3680 
L 4307 3386 
L 1402 3386 
z
M 1754 1542 
C 1478 992 877 275 250 -154 
L 314 -237 
C 1030 134 1664 755 1997 1254 
C 2144 1222 2195 1248 2240 1318 
L 1754 1542 
z
M 4179 1446 
C 4723 1062 5427 365 5606 -173 
C 6042 -448 6176 627 4256 1510 
L 4179 1446 
z
M 5299 2291 
L 326 2291 
L 384 2099 
L 3053 2099 
L 3053 38 
C 3053 -51 3021 -83 2893 -83 
C 2765 -83 2099 -38 2099 -38 
L 2099 -141 
C 2381 -166 2560 -198 2656 -256 
C 2733 -301 2778 -384 2778 -467 
C 3264 -410 3334 -224 3334 32 
L 3334 2099 
L 5920 2099 
C 6010 2099 6074 2131 6086 2202 
C 5882 2374 5574 2605 5574 2605 
L 5299 2291 
z
" transform="scale(0.015625)"/>
      </defs>
      <use xlink:href="#NotoSerifCJKjp-ExtraLight-6734"/>
      <use xlink:href="#NotoSerifCJKjp-ExtraLight-7d39" x="99.999985"/>
      <use xlink:href="#NotoSerifCJKjp-ExtraLight-5b97" x="199.999969"/>
     </g>
    </g>
    <g clip-path="url(#pd6388480c0)">
     <!-- 司直 -->
     <g transform="translate(2392.164803 212.323636) scale(0.12 -0.12)">
      <use xlink:href="#NotoSerifCJKjp-ExtraLight-53f8"/>
      <use xlink:href="#NotoSerifCJKjp-ExtraLight-76f4" x="99.999985"/>
     </g>
    </g>
   </g>
   <g id="text_31">
    <g clip-path="url(#pd6388480c0)">
     <!-- 朴緇 -->
     <g transform="translate(2309.897515 884.956364) scale(0.12 -0.12)">
      <defs>
       <path id="NotoSerifCJKjp-ExtraLight-7dc7" d="M 5542 5267 
C 5440 5018 5069 4352 4851 3994 
C 5267 3603 5574 3014 5664 2682 
C 5965 2445 6330 3155 5037 4013 
C 5280 4301 5696 4845 5837 5024 
C 5939 5005 5997 5037 6022 5094 
L 5542 5267 
z
M 4403 5235 
C 4307 4998 3962 4339 3750 3981 
C 4134 3590 4403 3027 4474 2701 
C 4755 2464 5120 3149 3936 4000 
C 4160 4288 4544 4819 4685 5005 
C 4794 4986 4851 5018 4870 5069 
L 4403 5235 
z
M 1293 5338 
C 1133 4915 941 4435 781 4096 
C 666 4173 518 4243 333 4307 
L 262 4250 
C 518 4058 813 3712 883 3437 
C 1133 3270 1318 3648 902 4006 
C 1120 4294 1370 4685 1568 5024 
C 1696 5018 1773 5069 1805 5139 
L 1293 5338 
z
M 390 64 
C 627 435 819 992 954 1498 
C 1082 1498 1139 1555 1165 1632 
L 685 1741 
C 608 1158 454 544 282 115 
L 390 64 
z
M 1766 3187 
C 1869 3040 1984 2848 2074 2650 
C 1702 2624 1344 2598 1037 2579 
C 1472 3123 1958 3814 2246 4301 
C 2374 4275 2464 4320 2496 4390 
L 2010 4614 
C 1715 4013 1235 3181 851 2566 
C 621 2554 435 2541 301 2541 
L 474 2150 
C 531 2163 589 2202 621 2278 
C 890 2317 1133 2349 1350 2387 
L 1350 -467 
L 1389 -467 
C 1523 -467 1632 -390 1632 -358 
L 1632 2432 
C 1818 2458 1984 2490 2131 2515 
C 2195 2362 2240 2208 2253 2074 
C 2560 1798 2848 2522 1856 3219 
L 1766 3187 
z
M 1901 1709 
C 2054 1414 2240 934 2246 582 
C 2534 294 2854 992 1984 1741 
L 1901 1709 
z
M 3264 5293 
C 3181 5050 2854 4378 2662 4006 
C 3034 3603 3290 3014 3354 2688 
C 3635 2438 4013 3142 2835 4026 
C 3066 4326 3437 4870 3571 5062 
C 3667 5043 3725 5075 3750 5133 
L 3264 5293 
z
M 4448 173 
L 4448 1101 
L 5562 1101 
L 5562 173 
L 4448 173 
z
M 3117 1101 
L 4160 1101 
L 4160 173 
L 3117 173 
L 3117 1101 
z
M 4160 2202 
L 4160 1293 
L 3117 1293 
L 3117 2202 
L 4160 2202 
z
M 5562 2202 
L 5562 1293 
L 4448 1293 
L 4448 2202 
L 5562 2202 
z
M 5702 2579 
L 5542 2387 
L 3194 2387 
L 2835 2554 
L 2835 -410 
L 2874 -410 
C 3021 -410 3117 -333 3117 -301 
L 3117 -19 
L 5562 -19 
L 5562 -352 
L 5606 -352 
C 5722 -352 5843 -269 5843 -243 
L 5843 2182 
C 5971 2202 6042 2234 6086 2285 
L 5702 2579 
z
" transform="scale(0.015625)"/>
      </defs>
      <use xlink:href="#NotoSerifCJKjp-ExtraLight-6734"/>
      <use xlink:href="#NotoSerifCJKjp-ExtraLight-7dc7" x="99.999985"/>
     </g>
    </g>
    <g clip-path="url(#pd6388480c0)">
     <!--  -->
     <g transform="translate(2321.897515 899.596364) scale(0.12 -0.12)"/>
    </g>
   </g>
   <g id="text_32">
    <g clip-path="url(#pd6388480c0)">
     <!-- 朴訥 -->
     <g transform="translate(2474.43209 884.956364) scale(0.12 -0.12)">
      <defs>
       <path id="NotoSerifCJKjp-ExtraLight-8a25" d="M 2170 4755 
C 2253 4755 2317 4787 2330 4858 
C 2150 5024 1875 5248 1875 5248 
L 1626 4941 
L 525 4941 
L 576 4755 
L 2170 4755 
z
M 608 2336 
L 2227 2336 
C 2310 2336 2362 2362 2381 2432 
C 2227 2592 1965 2790 1965 2790 
L 1747 2522 
L 557 2522 
L 608 2336 
z
M 1747 3334 
L 557 3334 
L 608 3149 
L 2227 3149 
C 2310 3149 2362 3181 2381 3245 
C 2227 3405 1965 3610 1965 3610 
L 1747 3334 
z
M 858 307 
L 858 1517 
L 1920 1517 
L 1920 307 
L 858 307 
z
M 1856 1709 
L 890 1709 
L 576 1869 
L 576 -442 
L 621 -442 
C 736 -442 858 -371 858 -339 
L 858 122 
L 1920 122 
L 1920 -333 
L 1952 -333 
C 2048 -333 2195 -256 2202 -218 
L 2202 1459 
C 2330 1485 2432 1530 2477 1581 
L 2042 1920 
L 1856 1709 
z
M 1978 4141 
L 256 4141 
L 307 3955 
L 2534 3955 
C 2624 3955 2682 3987 2701 4051 
C 2522 4224 2234 4454 2234 4454 
L 1978 4141 
z
M 5658 4339 
L 5491 4122 
L 4448 4122 
L 4448 4890 
C 4614 4909 4717 4954 4774 5030 
L 4333 5338 
L 4166 5101 
L 3290 5101 
L 3309 4909 
L 4243 4909 
L 4243 4122 
L 3162 4122 
L 2842 4294 
L 2842 -429 
L 2899 -429 
C 3027 -429 3130 -352 3130 -314 
L 3130 3936 
L 4134 3936 
C 4038 2810 3661 1920 3149 1299 
L 3238 1229 
C 3731 1670 4198 2413 4346 3302 
C 4461 2451 4896 1645 5293 1242 
C 5338 1376 5440 1478 5536 1504 
L 5549 1568 
C 5018 2022 4506 2912 4448 3936 
L 5555 3936 
L 5555 115 
C 5555 13 5517 -32 5395 -32 
C 5261 -32 4582 26 4582 26 
L 4582 -83 
C 4870 -115 5043 -154 5139 -205 
C 5222 -256 5261 -333 5280 -422 
C 5779 -371 5837 -186 5837 77 
L 5837 3872 
C 5965 3898 6080 3949 6118 4000 
L 5658 4339 
z
" transform="scale(0.015625)"/>
      </defs>
      <use xlink:href="#NotoSerifCJKjp-ExtraLight-6734"/>
      <use xlink:href="#NotoSerifCJKjp-ExtraLight-8a25" x="99.999985"/>
     </g>
    </g>
    <g clip-path="url(#pd6388480c0)">
     <!--  -->
     <g transform="translate(2486.43209 899.596364) scale(0.12 -0.12)"/>
    </g>
   </g>
  </g>
 </g>
 <defs>
  <clipPath id="pd6388480c0">
   <rect x="360" y="129.6" width="2232" height="831.6"/>
  </clipPath>
 </defs>
</svg>
