<?xml version="1.0" encoding="utf-8" standalone="no"?>
<!DOCTYPE svg PUBLIC "-//W3C//DTD SVG 1.1//EN"
  "http://www.w3.org/Graphics/SVG/1.1/DTD/svg11.dtd">
<svg xmlns:xlink="http://www.w3.org/1999/xlink" width="2880pt" height="1080pt" viewBox="0 0 2880 1080" xmlns="http://www.w3.org/2000/svg" version="1.1">
 <metadata>
  <rdf:RDF xmlns:dc="http://purl.org/dc/elements/1.1/" xmlns:cc="http://creativecommons.org/ns#" xmlns:rdf="http://www.w3.org/1999/02/22-rdf-syntax-ns#">
   <cc:Work>
    <dc:type rdf:resource="http://purl.org/dc/dcmitype/StillImage"/>
    <dc:date>2025-06-20T00:21:31.185393</dc:date>
    <dc:format>image/svg+xml</dc:format>
    <dc:creator>
     <cc:Agent>
      <dc:title>Matplotlib v3.9.4, https://matplotlib.org/</dc:title>
     </cc:Agent>
    </dc:creator>
   </cc:Work>
  </rdf:RDF>
 </metadata>
 <defs>
  <style type="text/css">*{stroke-linejoin: round; stroke-linecap: butt}</style>
 </defs>
 <g id="figure_1">
  <g id="patch_1">
   <path d="M 0 1080 
L 2880 1080 
L 2880 0 
L 0 0 
z
" style="fill: #ffffff"/>
  </g>
  <g id="axes_1">
   <g id="patch_2">
    <path d="M 719.886609 551.406413 
Q 565.458269 701.149234 478.481221 895.440328 
" clip-path="url(#p5a4065428c)" style="fill: none; stroke: #000000; stroke-width: 2; stroke-linecap: round"/>
    <path d="M 481.941018 892.606638 
L 478.481221 895.440328 
L 478.290147 890.972276 
z
" clip-path="url(#p5a4065428c)" style="stroke: #000000; stroke-width: 2; stroke-linecap: round"/>
   </g>
   <g id="patch_3">
    <path d="M 724.467355 553.900671 
Q 691.787116 725.401139 724.049222 894.705064 
" clip-path="url(#p5a4065428c)" style="fill: none; stroke: #000000; stroke-width: 2; stroke-linecap: round"/>
    <path d="M 725.265114 890.40139 
L 724.049222 894.705064 
L 721.335818 891.150146 
z
" clip-path="url(#p5a4065428c)" style="stroke: #000000; stroke-width: 2; stroke-linecap: round"/>
   </g>
   <g id="patch_4">
    <path d="M 729.636724 553.318722 
Q 817.522791 749.649829 970.341236 897.836913 
" clip-path="url(#p5a4065428c)" style="fill: none; stroke: #000000; stroke-width: 2; stroke-linecap: round"/>
    <path d="M 968.861919 893.616531 
L 970.341236 897.836913 
L 966.07734 896.488137 
z
" clip-path="url(#p5a4065428c)" style="stroke: #000000; stroke-width: 2; stroke-linecap: round"/>
   </g>
   <g id="patch_5">
    <path d="M 1732.706275 553.900671 
Q 1700.026036 725.401139 1732.288142 894.705064 
" clip-path="url(#p5a4065428c)" style="fill: none; stroke: #000000; stroke-width: 2; stroke-linecap: round"/>
    <path d="M 1733.504034 890.40139 
L 1732.288142 894.705064 
L 1729.574738 891.150146 
z
" clip-path="url(#p5a4065428c)" style="stroke: #000000; stroke-width: 2; stroke-linecap: round"/>
   </g>
   <g id="patch_6">
    <path d="M 2488.885465 193.900671 
Q 2456.205227 365.401139 2488.467332 534.705064 
" clip-path="url(#p5a4065428c)" style="fill: none; stroke: #000000; stroke-width: 2; stroke-linecap: round"/>
    <path d="M 2489.683224 530.40139 
L 2488.467332 534.705064 
L 2485.753928 531.150146 
z
" clip-path="url(#p5a4065428c)" style="stroke: #000000; stroke-width: 2; stroke-linecap: round"/>
   </g>
   <g id="patch_7">
    <path d="M 1098.663021 192.883917 
Q 1006.172668 353.459719 979.724615 534.610986 
" clip-path="url(#p5a4065428c)" style="fill: none; stroke: #000000; stroke-width: 2; stroke-linecap: round"/>
    <path d="M 982.281507 530.941884 
L 979.724615 534.610986 
L 978.323469 530.364011 
z
" clip-path="url(#p5a4065428c)" style="stroke: #000000; stroke-width: 2; stroke-linecap: round"/>
   </g>
   <g id="patch_8">
    <path d="M 1104.281459 193.965477 
Q 1132.198076 377.567018 1224.718688 536.006947 
" clip-path="url(#p5a4065428c)" style="fill: none; stroke: #000000; stroke-width: 2; stroke-linecap: round"/>
    <path d="M 1224.428717 531.544222 
L 1224.718688 536.006947 
L 1220.974525 533.561289 
z
" clip-path="url(#p5a4065428c)" style="stroke: #000000; stroke-width: 2; stroke-linecap: round"/>
   </g>
   <g id="patch_9">
    <path d="M 1108.026955 192.459619 
Q 1257.811108 402.115464 1473.107633 539.559635 
" clip-path="url(#p5a4065428c)" style="fill: none; stroke: #000000; stroke-width: 2; stroke-linecap: round"/>
    <path d="M 1470.812279 535.721491 
L 1473.107633 539.559635 
L 1468.659905 539.093032 
z
" clip-path="url(#p5a4065428c)" style="stroke: #000000; stroke-width: 2; stroke-linecap: round"/>
   </g>
   <g id="patch_10">
    <path d="M 1095.717096 190.060521 
Q 879.727723 328.919368 732.412874 536.496222 
" clip-path="url(#p5a4065428c)" style="fill: none; stroke: #000000; stroke-width: 2; stroke-linecap: round"/>
    <path d="M 736.358891 534.391716 
L 732.412874 536.496222 
L 733.096879 532.076704 
z
" clip-path="url(#p5a4065428c)" style="stroke: #000000; stroke-width: 2; stroke-linecap: round"/>
   </g>
   <g id="patch_11">
    <path d="M 1984.766005 193.900671 
Q 1952.085766 365.401139 1984.347872 534.705064 
" clip-path="url(#p5a4065428c)" style="fill: none; stroke: #000000; stroke-width: 2; stroke-linecap: round"/>
    <path d="M 1985.563764 530.40139 
L 1984.347872 534.705064 
L 1981.634468 531.150146 
z
" clip-path="url(#p5a4065428c)" style="stroke: #000000; stroke-width: 2; stroke-linecap: round"/>
   </g>
   <g id="patch_12">
    <path d="M 1980.185444 191.406449 
Q 1825.76172 341.150157 1738.789251 535.440348 
" clip-path="url(#p5a4065428c)" style="fill: none; stroke: #000000; stroke-width: 2; stroke-linecap: round"/>
    <path d="M 1742.248998 532.606596 
L 1738.789251 535.440348 
L 1738.598097 530.972299 
z
" clip-path="url(#p5a4065428c)" style="stroke: #000000; stroke-width: 2; stroke-linecap: round"/>
   </g>
   <g id="patch_13">
    <path d="M 1989.935374 193.318722 
Q 2077.821441 389.649829 2230.639886 537.836913 
" clip-path="url(#p5a4065428c)" style="fill: none; stroke: #000000; stroke-width: 2; stroke-linecap: round"/>
    <path d="M 2229.160569 533.616531 
L 2230.639886 537.836913 
L 2226.37599 536.488137 
z
" clip-path="url(#p5a4065428c)" style="stroke: #000000; stroke-width: 2; stroke-linecap: round"/>
   </g>
   <g id="text_1">
    <g id="patch_14">
     <path d="M 606.417326 733.732253 
L 610.085654 728.493226 
Q 612.150499 725.544258 609.201531 723.479413 
L 598.781844 716.183625 
Q 595.832876 714.118779 593.76803 717.067747 
L 590.099703 722.306774 
Q 588.034857 725.255742 590.983825 727.320587 
L 601.403513 734.616375 
Q 604.352481 736.681221 606.417326 733.732253 
z
" clip-path="url(#p5a4065428c)" style="fill: #ffffff; stroke: #ffffff; stroke-linejoin: miter"/>
    </g>
    <g clip-path="url(#p5a4065428c)">
     <!-- 3 -->
     <g transform="translate(600.912586 729.877874) rotate(-55.000575) scale(0.12 -0.12)">
      <defs>
       <path id="NotoSerifCJKjp-ExtraLight-33" d="M 1062 4435 
C 1242 4499 1408 4525 1594 4525 
C 2176 4525 2496 4166 2496 3584 
C 2496 2918 2035 2541 1402 2541 
L 1126 2541 
L 1126 2330 
L 1434 2330 
C 2234 2330 2637 1920 2637 1229 
C 2637 557 2221 102 1498 102 
C 1286 102 1107 141 941 211 
L 787 659 
C 730 845 659 928 531 928 
C 422 928 339 864 301 755 
C 461 186 928 -90 1587 -90 
C 2426 -90 3040 410 3040 1203 
C 3040 1869 2656 2330 1901 2445 
C 2541 2605 2899 3059 2899 3597 
C 2899 4262 2426 4717 1664 4717 
C 1107 4717 570 4480 429 3885 
C 461 3776 544 3731 640 3731 
C 774 3731 845 3795 909 3981 
L 1062 4435 
z
" transform="scale(0.015625)"/>
      </defs>
      <use xlink:href="#NotoSerifCJKjp-ExtraLight-33"/>
     </g>
    </g>
   </g>
   <g id="text_2">
    <g id="patch_15">
     <path d="M 716.167344 722.202188 
L 716.167344 728.597813 
Q 716.167344 732.197813 719.767344 732.197813 
L 732.487344 732.197813 
Q 736.087344 732.197813 736.087344 728.597813 
L 736.087344 722.202188 
Q 736.087344 718.602188 732.487344 718.602188 
L 719.767344 718.602188 
Q 716.167344 718.602188 716.167344 722.202188 
z
" clip-path="url(#p5a4065428c)" style="fill: #ffffff; stroke: #ffffff; stroke-linejoin: miter"/>
    </g>
    <g clip-path="url(#p5a4065428c)">
     <!-- 2 -->
     <g transform="translate(722.887344 722.202188) rotate(-270) scale(0.12 -0.12)">
      <defs>
       <path id="NotoSerifCJKjp-ExtraLight-32" d="M 646 358 
C 1069 838 1472 1299 1645 1491 
C 2560 2515 2886 2970 2886 3520 
C 2886 4250 2458 4717 1638 4717 
C 1024 4717 486 4397 326 3821 
C 371 3725 454 3667 550 3667 
C 672 3667 755 3750 819 3949 
L 1005 4422 
C 1197 4499 1363 4525 1542 4525 
C 2144 4525 2483 4096 2483 3514 
C 2483 2995 2214 2547 1536 1715 
C 1222 1344 787 806 339 275 
L 339 0 
L 3104 0 
L 3104 358 
L 646 358 
z
" transform="scale(0.015625)"/>
      </defs>
      <use xlink:href="#NotoSerifCJKjp-ExtraLight-32"/>
     </g>
    </g>
   </g>
   <g id="text_3">
    <g id="patch_16">
     <path d="M 842.164179 728.493048 
L 845.832412 733.732139 
Q 847.897205 736.681144 850.84621 734.616352 
L 861.266028 727.32075 
Q 864.215033 725.255957 862.15024 722.306952 
L 858.482007 717.067861 
Q 856.417214 714.118856 853.468209 716.183648 
L 843.048391 723.47925 
Q 840.099386 725.544043 842.164179 728.493048 
z
" clip-path="url(#p5a4065428c)" style="fill: #ffffff; stroke: #ffffff; stroke-linejoin: miter"/>
    </g>
    <g clip-path="url(#p5a4065428c)">
     <!-- 1 -->
     <g transform="translate(847.668988 724.638768) rotate(-304.9984) scale(0.12 -0.12)">
      <defs>
       <path id="NotoSerifCJKjp-ExtraLight-31" d="M 1997 250 
C 1990 659 1984 1062 1984 1459 
L 1984 3616 
L 2010 4614 
L 1914 4691 
L 614 4346 
L 614 4160 
L 1600 4333 
L 1600 1459 
C 1600 1062 1594 653 1587 250 
L 544 173 
L 544 0 
L 3002 0 
L 3002 173 
L 1997 250 
z
" transform="scale(0.015625)"/>
      </defs>
      <use xlink:href="#NotoSerifCJKjp-ExtraLight-31"/>
     </g>
    </g>
   </g>
   <g id="text_4">
    <g id="patch_17">
     <path d="M 1724.406264 722.202188 
L 1724.406264 728.597813 
Q 1724.406264 732.197813 1728.006264 732.197813 
L 1740.726264 732.197813 
Q 1744.326264 732.197813 1744.326264 728.597813 
L 1744.326264 722.202188 
Q 1744.326264 718.602188 1740.726264 718.602188 
L 1728.006264 718.602188 
Q 1724.406264 718.602188 1724.406264 722.202188 
z
" clip-path="url(#p5a4065428c)" style="fill: #ffffff; stroke: #ffffff; stroke-linejoin: miter"/>
    </g>
    <g clip-path="url(#p5a4065428c)">
     <!-- 1 -->
     <g transform="translate(1731.126264 722.202188) rotate(-270) scale(0.12 -0.12)">
      <use xlink:href="#NotoSerifCJKjp-ExtraLight-31"/>
     </g>
    </g>
   </g>
   <g id="text_5">
    <g id="patch_18">
     <path d="M 2480.585455 362.202187 
L 2480.585455 368.597812 
Q 2480.585455 372.197812 2484.185455 372.197812 
L 2496.905455 372.197812 
Q 2500.505455 372.197812 2500.505455 368.597812 
L 2500.505455 362.202187 
Q 2500.505455 358.602187 2496.905455 358.602187 
L 2484.185455 358.602187 
Q 2480.585455 358.602187 2480.585455 362.202187 
z
" clip-path="url(#p5a4065428c)" style="fill: #ffffff; stroke: #ffffff; stroke-linejoin: miter"/>
    </g>
    <g clip-path="url(#p5a4065428c)">
     <!-- 1 -->
     <g transform="translate(2487.305455 362.202187) rotate(-270) scale(0.12 -0.12)">
      <use xlink:href="#NotoSerifCJKjp-ExtraLight-31"/>
     </g>
    </g>
   </g>
   <g id="text_6">
    <g id="patch_19">
     <path d="M 1048.96455 371.684353 
L 1051.059837 365.641689 
Q 1052.239242 362.240365 1048.837919 361.06096 
L 1036.819908 356.893728 
Q 1033.418584 355.714323 1032.239179 359.115647 
L 1030.143892 365.158311 
Q 1028.964487 368.559635 1032.365811 369.73904 
L 1044.383822 373.906272 
Q 1047.785145 375.085677 1048.96455 371.684353 
z
" clip-path="url(#p5a4065428c)" style="fill: #ffffff; stroke: #ffffff; stroke-linejoin: miter"/>
    </g>
    <g clip-path="url(#p5a4065428c)">
     <!-- 4 -->
     <g transform="translate(1042.615413 369.482797) rotate(-70.876071) scale(0.12 -0.12)">
      <defs>
       <path id="NotoSerifCJKjp-ExtraLight-34" d="M 480 1805 
L 2163 4224 
L 2163 1805 
L 480 1805 
z
M 3309 1805 
L 2528 1805 
L 2528 4685 
L 2272 4685 
L 211 1747 
L 211 1510 
L 2163 1510 
L 2163 0 
L 2528 0 
L 2528 1510 
L 3309 1510 
L 3309 1805 
z
" transform="scale(0.015625)"/>
      </defs>
      <use xlink:href="#NotoSerifCJKjp-ExtraLight-34"/>
     </g>
    </g>
   </g>
   <g id="text_7">
    <g id="patch_20">
     <path d="M 1156.175377 365.703806 
L 1158.306522 371.733918 
Q 1159.50611 375.128176 1162.900368 373.928587 
L 1174.893413 369.69004 
Q 1178.287671 368.490452 1177.088082 365.096194 
L 1174.956938 359.066082 
Q 1173.757349 355.671824 1170.363091 356.871413 
L 1158.370046 361.10996 
Q 1154.975789 362.309548 1156.175377 365.703806 
z
" clip-path="url(#p5a4065428c)" style="fill: #ffffff; stroke: #ffffff; stroke-linejoin: miter"/>
    </g>
    <g clip-path="url(#p5a4065428c)">
     <!-- 3 -->
     <g transform="translate(1162.511325 363.464574) rotate(-289.464278) scale(0.12 -0.12)">
      <use xlink:href="#NotoSerifCJKjp-ExtraLight-33"/>
     </g>
    </g>
   </g>
   <g id="text_8">
    <g id="patch_21">
     <path d="M 1283.485503 370.422643 
L 1288.124314 374.825534 
Q 1290.73543 377.303854 1293.213751 374.692738 
L 1301.970483 365.466794 
Q 1304.448803 362.855678 1301.837687 360.377357 
L 1297.198876 355.974466 
Q 1294.587759 353.496146 1292.109439 356.107262 
L 1283.352707 365.333206 
Q 1280.874386 367.944322 1283.485503 370.422643 
z
" clip-path="url(#p5a4065428c)" style="fill: #ffffff; stroke: #ffffff; stroke-linejoin: miter"/>
    </g>
    <g clip-path="url(#p5a4065428c)">
     <!-- 2 -->
     <g transform="translate(1288.111701 365.548559) rotate(-316.494648) scale(0.12 -0.12)">
      <use xlink:href="#NotoSerifCJKjp-ExtraLight-32"/>
     </g>
    </g>
   </g>
   <g id="text_9">
    <g id="patch_22">
     <path d="M 919.139144 374.8111 
L 923.763971 370.393522 
Q 926.367216 367.906935 923.880629 365.30369 
L 915.094687 356.105558 
Q 912.6081 353.502313 910.004855 355.9889 
L 905.380028 360.406478 
Q 902.776783 362.893065 905.26337 365.49631 
L 914.049312 374.694442 
Q 916.535899 377.297687 919.139144 374.8111 
z
" clip-path="url(#p5a4065428c)" style="fill: #ffffff; stroke: #ffffff; stroke-linejoin: miter"/>
    </g>
    <g clip-path="url(#p5a4065428c)">
     <!-- 1 -->
     <g transform="translate(914.497515 369.951709) rotate(-43.687026) scale(0.12 -0.12)">
      <use xlink:href="#NotoSerifCJKjp-ExtraLight-31"/>
     </g>
    </g>
   </g>
   <g id="text_10">
    <g id="patch_23">
     <path d="M 1976.465994 362.202187 
L 1976.465994 368.597812 
Q 1976.465994 372.197812 1980.065994 372.197812 
L 1992.785994 372.197812 
Q 1996.385994 372.197812 1996.385994 368.597812 
L 1996.385994 362.202187 
Q 1996.385994 358.602187 1992.785994 358.602187 
L 1980.065994 358.602187 
Q 1976.465994 358.602187 1976.465994 362.202187 
z
" clip-path="url(#p5a4065428c)" style="fill: #ffffff; stroke: #ffffff; stroke-linejoin: miter"/>
    </g>
    <g clip-path="url(#p5a4065428c)">
     <!-- 3 -->
     <g transform="translate(1983.185994 362.202187) rotate(-270) scale(0.12 -0.12)">
      <use xlink:href="#NotoSerifCJKjp-ExtraLight-33"/>
     </g>
    </g>
   </g>
   <g id="text_11">
    <g id="patch_24">
     <path d="M 1866.720927 373.732139 
L 1870.38916 368.493048 
Q 1872.453953 365.544043 1869.504948 363.47925 
L 1859.08513 356.183648 
Q 1856.136125 354.118856 1854.071332 357.067861 
L 1850.403099 362.306952 
Q 1848.338306 365.255957 1851.287311 367.32075 
L 1861.707129 374.616352 
Q 1864.656134 376.681144 1866.720927 373.732139 
z
" clip-path="url(#p5a4065428c)" style="fill: #ffffff; stroke: #ffffff; stroke-linejoin: miter"/>
    </g>
    <g clip-path="url(#p5a4065428c)">
     <!-- 2 -->
     <g transform="translate(1861.216117 369.877859) rotate(-55.0016) scale(0.12 -0.12)">
      <use xlink:href="#NotoSerifCJKjp-ExtraLight-32"/>
     </g>
    </g>
   </g>
   <g id="text_12">
    <g id="patch_25">
     <path d="M 2102.462829 368.493048 
L 2106.131062 373.732139 
Q 2108.195855 376.681144 2111.14486 374.616352 
L 2121.564678 367.32075 
Q 2124.513683 365.255957 2122.44889 362.306952 
L 2118.780657 357.067861 
Q 2116.715864 354.118856 2113.766859 356.183648 
L 2103.347041 363.47925 
Q 2100.398036 365.544043 2102.462829 368.493048 
z
" clip-path="url(#p5a4065428c)" style="fill: #ffffff; stroke: #ffffff; stroke-linejoin: miter"/>
    </g>
    <g clip-path="url(#p5a4065428c)">
     <!-- 1 -->
     <g transform="translate(2107.967638 364.638768) rotate(-304.9984) scale(0.12 -0.12)">
      <use xlink:href="#NotoSerifCJKjp-ExtraLight-31"/>
     </g>
    </g>
   </g>
   <g id="matplotlib.axis_1">
    <g id="xtick_1"/>
    <g id="xtick_2"/>
    <g id="xtick_3"/>
    <g id="xtick_4"/>
    <g id="xtick_5"/>
   </g>
   <g id="matplotlib.axis_2">
    <g id="ytick_1"/>
    <g id="ytick_2"/>
    <g id="ytick_3"/>
    <g id="ytick_4"/>
    <g id="ytick_5"/>
    <g id="ytick_6"/>
    <g id="ytick_7"/>
    <g id="ytick_8"/>
   </g>
   <g id="PathCollection_1">
    <defs>
     <path id="mcd971cb786" d="M 0 15 
C 3.978047 15 7.793698 13.419505 10.606602 10.606602 
C 13.419505 7.793698 15 3.978047 15 0 
C 15 -3.978047 13.419505 -7.793698 10.606602 -10.606602 
C 7.793698 -13.419505 3.978047 -15 0 -15 
C -3.978047 -15 -7.793698 -13.419505 -10.606602 -10.606602 
C -13.419505 -7.793698 -15 -3.978047 -15 0 
C -15 3.978047 -13.419505 7.793698 -10.606602 10.606602 
C -7.793698 13.419505 -3.978047 15 0 15 
z
" style="stroke: #add8e6; stroke-opacity: 0.85"/>
    </defs>
    <g clip-path="url(#p5a4065428c)">
     <use xlink:href="#mcd971cb786" x="726.127344" y="545.4" style="fill: #add8e6; fill-opacity: 0.85; stroke: #add8e6; stroke-opacity: 0.85"/>
     <use xlink:href="#mcd971cb786" x="474.058012" y="905.4" style="fill: #add8e6; fill-opacity: 0.85; stroke: #add8e6; stroke-opacity: 0.85"/>
     <use xlink:href="#mcd971cb786" x="726.127344" y="905.4" style="fill: #add8e6; fill-opacity: 0.85; stroke: #add8e6; stroke-opacity: 0.85"/>
     <use xlink:href="#mcd971cb786" x="978.187074" y="905.4" style="fill: #add8e6; fill-opacity: 0.85; stroke: #add8e6; stroke-opacity: 0.85"/>
     <use xlink:href="#mcd971cb786" x="1734.366264" y="545.4" style="fill: #add8e6; fill-opacity: 0.85; stroke: #add8e6; stroke-opacity: 0.85"/>
     <use xlink:href="#mcd971cb786" x="1734.366264" y="905.4" style="fill: #add8e6; fill-opacity: 0.85; stroke: #add8e6; stroke-opacity: 0.85"/>
     <use xlink:href="#mcd971cb786" x="2490.545455" y="185.4" style="fill: #add8e6; fill-opacity: 0.85; stroke: #add8e6; stroke-opacity: 0.85"/>
     <use xlink:href="#mcd971cb786" x="2490.545455" y="545.4" style="fill: #add8e6; fill-opacity: 0.85; stroke: #add8e6; stroke-opacity: 0.85"/>
     <use xlink:href="#mcd971cb786" x="1103.016655" y="185.4" style="fill: #add8e6; fill-opacity: 0.85; stroke: #add8e6; stroke-opacity: 0.85"/>
     <use xlink:href="#mcd971cb786" x="978.187074" y="545.4" style="fill: #add8e6; fill-opacity: 0.85; stroke: #add8e6; stroke-opacity: 0.85"/>
     <use xlink:href="#mcd971cb786" x="1230.246804" y="545.4" style="fill: #add8e6; fill-opacity: 0.85; stroke: #add8e6; stroke-opacity: 0.85"/>
     <use xlink:href="#mcd971cb786" x="1482.306534" y="545.4" style="fill: #add8e6; fill-opacity: 0.85; stroke: #add8e6; stroke-opacity: 0.85"/>
     <use xlink:href="#mcd971cb786" x="1986.425994" y="185.4" style="fill: #add8e6; fill-opacity: 0.85; stroke: #add8e6; stroke-opacity: 0.85"/>
     <use xlink:href="#mcd971cb786" x="1986.425994" y="545.4" style="fill: #add8e6; fill-opacity: 0.85; stroke: #add8e6; stroke-opacity: 0.85"/>
     <use xlink:href="#mcd971cb786" x="2238.485725" y="545.4" style="fill: #add8e6; fill-opacity: 0.85; stroke: #add8e6; stroke-opacity: 0.85"/>
    </g>
   </g>
   <g id="text_13">
    <g clip-path="url(#p5a4065428c)">
     <!-- 權軾 -->
     <g transform="translate(714.127344 541.32) scale(0.12 -0.12)">
      <defs>
       <path id="NotoSerifCJKjp-ExtraLight-6b0a" d="M 2234 4595 
L 3251 4595 
L 3251 4147 
L 3309 4147 
C 3418 4147 3539 4224 3539 4262 
L 3539 4595 
L 4550 4595 
L 4550 4147 
L 4608 4147 
C 4717 4147 4838 4224 4838 4262 
L 4838 4595 
L 5965 4595 
C 6054 4595 6112 4627 6131 4698 
C 5939 4870 5645 5107 5645 5107 
L 5376 4787 
L 4838 4787 
L 4838 5088 
C 4998 5114 5062 5171 5075 5267 
L 4550 5318 
L 4550 4787 
L 3539 4787 
L 3539 5088 
C 3693 5114 3763 5171 3776 5267 
L 3251 5318 
L 3251 4787 
L 2182 4787 
L 2234 4595 
z
M 2797 3104 
L 2797 3776 
L 3616 3776 
L 3616 3104 
L 2797 3104 
z
M 3648 2720 
C 3744 2720 3891 2790 3898 2829 
L 3898 3731 
C 4006 3750 4102 3802 4141 3846 
L 3731 4154 
L 3558 3968 
L 2822 3968 
L 2515 4115 
L 2515 2605 
L 2560 2605 
C 2675 2605 2797 2675 2797 2701 
L 2797 2912 
L 3616 2912 
L 3616 2720 
L 3648 2720 
z
M 1498 3674 
L 2259 3674 
C 2349 3674 2400 3706 2419 3776 
C 2240 3949 1952 4173 1952 4173 
L 1702 3866 
L 1498 3866 
L 1498 5088 
C 1651 5114 1702 5171 1722 5267 
L 1210 5325 
L 1210 3866 
L 333 3866 
L 384 3674 
L 1107 3674 
C 960 2746 685 1843 243 1107 
L 339 1024 
C 736 1549 1011 2150 1210 2803 
L 1210 -461 
L 1274 -461 
C 1376 -461 1498 -390 1498 -333 
L 1498 2669 
C 1696 2419 1939 2074 2016 1818 
C 2349 1587 2586 2246 1498 2803 
L 1498 3674 
z
M 3046 512 
L 4038 512 
L 4038 6 
L 3046 6 
L 3046 512 
z
M 4038 1882 
L 4038 1395 
L 3046 1395 
L 3046 1882 
L 4038 1882 
z
M 4038 698 
L 3046 698 
L 3046 1203 
L 4038 1203 
L 4038 698 
z
M 5485 3776 
L 5485 3104 
L 4666 3104 
L 4666 3776 
L 5485 3776 
z
M 5357 6 
L 4320 6 
L 4320 512 
L 5613 512 
C 5702 512 5754 544 5773 614 
C 5600 781 5318 1005 5318 1005 
L 5082 698 
L 4320 698 
L 4320 1203 
L 5638 1203 
C 5722 1203 5779 1235 5792 1306 
C 5626 1478 5344 1696 5344 1696 
L 5101 1395 
L 4320 1395 
L 4320 1882 
L 5818 1882 
C 5901 1882 5965 1914 5984 1978 
C 5792 2157 5498 2387 5498 2387 
L 5235 2067 
L 4237 2067 
C 4333 2202 4442 2349 4518 2470 
C 4646 2464 4736 2509 4762 2592 
L 4403 2688 
L 4429 2688 
C 4538 2688 4666 2752 4666 2771 
L 4666 2912 
L 5485 2912 
L 5485 2662 
L 5523 2662 
C 5619 2662 5760 2739 5766 2771 
L 5766 3731 
C 5875 3750 5978 3802 6016 3846 
L 5606 4154 
L 5427 3968 
L 4691 3968 
L 4384 4115 
L 4384 2694 
L 4262 2726 
C 4205 2541 4109 2266 4045 2067 
L 3123 2067 
C 3206 2195 3290 2330 3360 2464 
C 3494 2438 3578 2490 3610 2554 
L 3155 2771 
C 2848 2054 2381 1421 1946 1050 
L 2035 960 
C 2285 1126 2541 1357 2778 1626 
L 2778 -474 
L 2810 -474 
C 2944 -474 3046 -403 3046 -378 
L 3046 -179 
L 5933 -179 
C 6022 -179 6080 -154 6099 -83 
C 5914 96 5619 326 5619 326 
L 5357 6 
z
" transform="scale(0.015625)"/>
       <path id="NotoSerifCJKjp-ExtraLight-8efe" d="M 5056 5030 
C 5235 4902 5421 4672 5466 4474 
C 5728 4294 5933 4845 5126 5088 
L 5056 5030 
z
M 870 2650 
L 1453 2650 
L 1453 1952 
L 870 1952 
L 870 2650 
z
M 1453 3507 
L 1453 2835 
L 870 2835 
L 870 3507 
L 1453 3507 
z
M 2374 3507 
L 2374 2835 
L 1734 2835 
L 1734 3507 
L 2374 3507 
z
M 1734 1952 
L 1734 2650 
L 2374 2650 
L 2374 1952 
L 1734 1952 
z
M 2944 851 
C 3034 851 3098 883 3110 954 
C 2925 1126 2637 1357 2637 1357 
L 2374 1043 
L 1734 1043 
L 1734 1766 
L 2374 1766 
L 2374 1498 
L 2413 1498 
C 2509 1498 2656 1568 2662 1606 
L 2662 3482 
C 2758 3494 2842 3539 2874 3584 
L 2496 3878 
L 2330 3693 
L 1734 3693 
L 1734 4294 
L 2848 4294 
C 2938 4294 2995 4326 3014 4397 
C 2829 4570 2534 4806 2534 4806 
L 2278 4480 
L 1734 4480 
L 1734 5114 
C 1875 5133 1939 5190 1946 5280 
L 1453 5331 
L 1453 4480 
L 314 4480 
L 365 4294 
L 1453 4294 
L 1453 3693 
L 902 3693 
L 589 3853 
L 589 1421 
L 640 1421 
C 749 1421 870 1491 870 1510 
L 870 1766 
L 1453 1766 
L 1453 1043 
L 269 1043 
L 320 851 
L 1453 851 
L 1453 -454 
L 1491 -454 
C 1632 -454 1734 -371 1734 -346 
L 1734 851 
L 2944 851 
z
M 3904 2694 
L 4486 2694 
C 4576 2694 4634 2726 4646 2790 
C 4499 2938 4275 3130 4275 3130 
L 4077 2880 
L 2854 2880 
L 2906 2694 
L 3616 2694 
L 3616 646 
C 3232 550 2912 474 2720 442 
L 2925 70 
C 2976 90 3027 141 3046 218 
C 3789 461 4358 678 4774 832 
L 4742 941 
C 4454 864 4173 787 3904 723 
L 3904 2694 
z
M 6080 934 
L 5990 947 
C 5933 710 5843 416 5786 275 
C 5728 128 5715 128 5645 269 
C 5114 1146 4954 2490 4922 3827 
L 5952 3827 
C 6035 3827 6093 3859 6106 3923 
C 5920 4090 5626 4314 5626 4314 
L 5357 3994 
L 4915 3994 
C 4909 4365 4909 4730 4915 5088 
C 5082 5107 5139 5184 5152 5267 
L 4614 5331 
C 4614 4877 4621 4429 4640 3994 
L 2694 3994 
L 2739 3827 
L 4646 3827 
C 4704 2304 4902 960 5459 -19 
C 5626 -326 5933 -557 6067 -429 
C 6125 -384 6106 -301 5971 -51 
L 6080 934 
z
" transform="scale(0.015625)"/>
      </defs>
      <use xlink:href="#NotoSerifCJKjp-ExtraLight-6b0a"/>
      <use xlink:href="#NotoSerifCJKjp-ExtraLight-8efe" x="99.999985"/>
     </g>
    </g>
    <g clip-path="url(#p5a4065428c)">
     <!-- 資德大夫 -->
     <g transform="translate(702.127344 555.96) scale(0.12 -0.12)">
      <defs>
       <path id="NotoSerifCJKjp-ExtraLight-8cc7" d="M 742 5197 
C 1094 4992 1555 4614 1728 4326 
C 2118 4154 2227 4922 806 5267 
L 742 5197 
z
M 2400 4000 
C 1555 3750 723 3520 365 3443 
L 608 3014 
C 666 3040 704 3091 723 3168 
C 1472 3462 2029 3718 2432 3898 
L 2400 4000 
z
M 1779 832 
L 1779 1395 
L 4736 1395 
L 4736 832 
L 1779 832 
z
M 4736 2861 
L 4736 2323 
L 1779 2323 
L 1779 2861 
L 4736 2861 
z
M 4736 1581 
L 1779 1581 
L 1779 2131 
L 4736 2131 
L 4736 1581 
z
M 4774 397 
C 4870 397 5011 480 5018 518 
L 5018 2816 
C 5126 2835 5229 2886 5267 2931 
L 4858 3245 
L 4678 3053 
L 1811 3053 
L 1498 3213 
L 1498 339 
L 1542 339 
C 1664 339 1779 410 1779 442 
L 1779 646 
L 4736 646 
L 4736 397 
L 4774 397 
z
M 538 -454 
C 1306 -346 2150 -96 2669 122 
C 2803 70 2906 77 2950 128 
L 2534 454 
C 2099 186 1235 -166 499 -339 
L 538 -454 
z
M 3642 256 
C 4454 83 5069 -160 5434 -397 
C 5862 -653 6394 128 3667 371 
L 3642 256 
z
M 5338 4576 
C 5229 4384 5082 4147 4973 4013 
L 5069 3955 
C 5280 4096 5581 4358 5728 4538 
C 5850 4544 5926 4550 5978 4595 
L 5581 4979 
L 5370 4768 
L 3098 4768 
C 3194 4883 3277 4998 3347 5114 
C 3501 5101 3546 5126 3571 5190 
L 3040 5344 
C 2854 4883 2477 4378 2054 4083 
L 2125 4006 
C 2419 4147 2694 4352 2918 4576 
L 3725 4576 
C 3533 3885 3040 3546 2035 3290 
L 2067 3187 
C 3130 3360 3757 3680 4019 4442 
C 4198 3814 4621 3277 5818 2976 
C 5856 3130 5958 3162 6118 3174 
L 6131 3245 
C 4800 3520 4320 3981 4122 4576 
L 5338 4576 
z
" transform="scale(0.015625)"/>
       <path id="NotoSerifCJKjp-ExtraLight-5fb7" d="M 4358 2669 
L 3648 2669 
L 3648 3603 
L 4358 3603 
L 4358 2669 
z
M 5363 3603 
L 5363 2669 
L 4640 2669 
L 4640 3603 
L 5363 3603 
z
M 2650 3603 
L 3366 3603 
L 3366 2669 
L 2650 2669 
L 2650 3603 
z
M 2029 4531 
L 2080 4346 
L 3846 4346 
C 3834 4141 3821 3949 3808 3789 
L 2726 3789 
L 2368 3955 
L 2368 2208 
L 2406 2208 
C 2554 2208 2650 2291 2650 2317 
L 2650 2477 
L 5363 2477 
L 5363 2291 
L 5402 2291 
C 5523 2291 5651 2368 5651 2394 
L 5651 3590 
C 5760 3610 5824 3635 5869 3680 
L 5498 3974 
L 5344 3789 
L 4038 3789 
C 4058 3955 4083 4147 4102 4346 
L 5990 4346 
C 6080 4346 6138 4378 6150 4448 
C 5965 4621 5670 4858 5670 4858 
L 5408 4531 
L 4122 4531 
C 4147 4730 4166 4934 4179 5107 
C 4307 5120 4378 5184 4390 5274 
L 3885 5312 
C 3878 5075 3866 4800 3853 4531 
L 2029 4531 
z
M 1638 5325 
C 1363 4813 794 4077 256 3603 
L 333 3520 
C 947 3942 1549 4576 1875 5030 
C 2016 4992 2067 5018 2112 5088 
L 1638 5325 
z
M 1594 4051 
C 1338 3373 800 2406 218 1773 
L 294 1690 
C 608 1965 896 2304 1152 2643 
L 1152 -474 
L 1210 -474 
C 1312 -474 1434 -390 1440 -365 
L 1440 2797 
C 1536 2816 1600 2854 1626 2912 
L 1402 3002 
C 1587 3277 1741 3539 1856 3763 
C 2003 3744 2061 3770 2099 3840 
L 1594 4051 
z
M 2445 1178 
C 2394 762 2106 371 1869 224 
C 1766 147 1709 38 1766 -45 
C 1837 -141 2022 -83 2144 19 
C 2349 186 2624 576 2566 1171 
L 2445 1178 
z
M 5005 704 
L 4915 704 
C 4877 403 4819 102 4781 13 
C 4762 -45 4742 -51 4678 -58 
C 4608 -64 4403 -64 4128 -64 
L 3558 -64 
C 3341 -64 3322 -51 3322 32 
L 3322 1158 
C 3430 1178 3494 1235 3501 1312 
L 3040 1376 
L 3040 -19 
C 3040 -243 3117 -320 3520 -320 
L 4134 -320 
C 5011 -320 5165 -269 5165 -134 
C 5165 -77 5133 -38 5024 -6 
L 5005 704 
z
M 3488 1600 
C 3763 1414 4115 1069 4211 787 
C 4538 602 4710 1293 3558 1664 
L 3488 1600 
z
M 4986 1280 
C 5344 973 5792 416 5875 -13 
C 6227 -275 6451 614 5062 1338 
L 4986 1280 
z
M 5408 1958 
L 2003 1958 
L 2054 1773 
L 5990 1773 
C 6080 1773 6138 1805 6150 1875 
C 5965 2042 5670 2266 5670 2266 
L 5408 1958 
z
" transform="scale(0.015625)"/>
       <path id="NotoSerifCJKjp-ExtraLight-5927" d="M 5946 3277 
C 6035 3277 6099 3309 6112 3379 
C 5901 3578 5555 3840 5555 3840 
L 5261 3469 
L 3251 3469 
C 3302 3994 3309 4538 3322 5088 
C 3475 5107 3526 5178 3546 5267 
L 3002 5325 
C 3002 4685 3002 4064 2950 3469 
L 346 3469 
L 403 3277 
L 2925 3277 
C 2758 1862 2189 614 275 -352 
L 358 -474 
C 2470 506 3046 1824 3226 3277 
L 3238 3277 
C 3437 2003 3974 518 5850 -480 
C 5907 -314 6029 -282 6195 -275 
L 6208 -205 
C 4256 717 3610 2054 3373 3277 
L 5946 3277 
z
" transform="scale(0.015625)"/>
       <path id="NotoSerifCJKjp-ExtraLight-592b" d="M 5958 2368 
C 6054 2368 6112 2400 6131 2470 
C 5933 2656 5613 2899 5613 2899 
L 5338 2560 
L 3168 2560 
C 3238 2976 3264 3424 3277 3910 
L 5434 3910 
C 5523 3910 5587 3942 5606 4013 
C 5402 4192 5088 4442 5088 4442 
L 4813 4096 
L 3283 4096 
C 3290 4410 3290 4742 3296 5088 
C 3450 5114 3501 5178 3520 5267 
L 2995 5325 
C 2995 4890 3002 4480 2995 4096 
L 787 4096 
L 838 3910 
L 2989 3910 
C 2982 3424 2950 2976 2880 2560 
L 307 2560 
L 365 2368 
L 2848 2368 
C 2598 1197 1958 307 294 -352 
L 371 -480 
C 2208 198 2880 1133 3136 2368 
L 3258 2368 
C 3494 1485 4064 326 5786 -467 
C 5837 -307 5958 -282 6125 -275 
L 6138 -198 
C 4371 518 3680 1542 3398 2368 
L 5958 2368 
z
" transform="scale(0.015625)"/>
      </defs>
      <use xlink:href="#NotoSerifCJKjp-ExtraLight-8cc7"/>
      <use xlink:href="#NotoSerifCJKjp-ExtraLight-5fb7" x="99.999985"/>
      <use xlink:href="#NotoSerifCJKjp-ExtraLight-5927" x="199.999969"/>
      <use xlink:href="#NotoSerifCJKjp-ExtraLight-592b" x="299.999954"/>
     </g>
    </g>
   </g>
   <g id="text_14">
    <g clip-path="url(#p5a4065428c)">
     <!-- 權錘 -->
     <g transform="translate(462.058012 901.32) scale(0.12 -0.12)">
      <defs>
       <path id="NotoSerifCJKjp-ExtraLight-9318" d="M 1344 5318 
C 1139 4659 627 3667 134 3130 
L 230 3059 
C 781 3546 1267 4333 1555 4947 
C 1946 4576 2227 4160 2355 3866 
C 2643 3635 3053 4275 1619 5037 
C 1760 5050 1818 5088 1837 5152 
L 1344 5318 
z
M 2733 666 
C 2349 550 1965 435 1619 333 
L 1619 2317 
L 2445 2317 
C 2534 2317 2592 2349 2611 2413 
C 2432 2586 2163 2797 2163 2797 
L 1926 2502 
L 1619 2502 
L 1619 3296 
L 2310 3296 
C 2387 3296 2445 3328 2464 3398 
C 2298 3565 2029 3776 2029 3776 
L 1792 3488 
L 717 3488 
L 768 3296 
L 1338 3296 
L 1338 2502 
L 314 2502 
L 365 2317 
L 1338 2317 
L 1338 256 
C 870 122 486 19 256 -32 
L 525 -442 
C 576 -416 627 -365 646 -288 
C 1562 58 2259 352 2765 563 
L 2733 666 
z
M 499 1882 
C 627 1536 749 1005 717 608 
C 986 301 1312 1024 595 1907 
L 499 1882 
z
M 1971 672 
C 2131 947 2291 1350 2400 1683 
C 2528 1690 2598 1747 2624 1818 
L 2099 1965 
C 2042 1536 1946 1050 1856 710 
L 1971 672 
z
M 3411 2477 
L 3411 3610 
L 4096 3610 
L 4096 2477 
L 3411 2477 
z
M 5075 3610 
L 5075 2477 
L 4384 2477 
L 4384 3610 
L 5075 3610 
z
M 5446 -109 
L 4384 -109 
L 4384 941 
L 5952 941 
C 6042 941 6099 973 6118 1043 
C 5926 1216 5632 1453 5632 1453 
L 5370 1126 
L 4384 1126 
L 4384 2291 
L 5075 2291 
L 5075 1152 
L 5357 1152 
L 5357 2291 
L 6035 2291 
C 6125 2291 6176 2323 6195 2387 
C 6010 2566 5715 2797 5715 2797 
L 5453 2477 
L 5357 2477 
L 5357 3610 
L 5875 3610 
C 5965 3610 6029 3642 6042 3712 
C 5856 3891 5562 4122 5562 4122 
L 5299 3802 
L 4384 3802 
L 4384 4672 
C 4845 4762 5261 4858 5594 4954 
C 5722 4902 5830 4902 5882 4954 
L 5485 5299 
C 4870 5024 3667 4710 2656 4570 
L 2688 4454 
C 3155 4480 3635 4544 4096 4621 
L 4096 3802 
L 2720 3802 
L 2771 3610 
L 3130 3610 
L 3130 2477 
L 2637 2477 
L 2688 2291 
L 3130 2291 
L 3130 1152 
L 3411 1152 
L 3411 2291 
L 4096 2291 
L 4096 1126 
L 2643 1126 
L 2694 941 
L 4096 941 
L 4096 -109 
L 2278 -109 
L 2330 -294 
L 6029 -294 
C 6118 -294 6170 -262 6189 -192 
C 6003 -19 5709 218 5709 218 
L 5446 -109 
z
" transform="scale(0.015625)"/>
      </defs>
      <use xlink:href="#NotoSerifCJKjp-ExtraLight-6b0a"/>
      <use xlink:href="#NotoSerifCJKjp-ExtraLight-9318" x="99.999985"/>
     </g>
    </g>
    <g clip-path="url(#p5a4065428c)">
     <!-- 少尹 -->
     <g transform="translate(462.058012 915.96) scale(0.12 -0.12)">
      <defs>
       <path id="NotoSerifCJKjp-ExtraLight-5c11" d="M 4186 4397 
L 4102 4333 
C 4646 3853 5434 3021 5651 2445 
C 6061 2176 6182 3162 4186 4397 
z
M 1907 4397 
C 1613 3667 998 2707 307 2080 
L 390 1997 
C 1165 2573 1824 3456 2163 4102 
C 2317 4083 2368 4109 2406 4179 
L 1907 4397 
z
M 3059 5312 
L 3059 2003 
C 3059 1901 3027 1869 2893 1869 
C 2765 1869 2061 1920 2061 1920 
L 2061 1811 
C 2355 1779 2534 1734 2630 1683 
C 2720 1626 2758 1542 2778 1459 
C 3283 1510 3341 1696 3341 1971 
L 3341 5088 
C 3494 5107 3552 5165 3571 5254 
L 3059 5312 
z
M 4717 2662 
C 3770 883 2451 173 768 -352 
L 813 -480 
C 2598 -26 3942 666 4928 2355 
C 5088 2330 5152 2342 5197 2406 
L 4717 2662 
z
" transform="scale(0.015625)"/>
       <path id="NotoSerifCJKjp-ExtraLight-5c39" d="M 4845 1958 
L 3053 1958 
C 3123 2291 3149 2637 3149 2995 
L 3149 3232 
L 4845 3232 
L 4845 1958 
z
M 3149 4666 
L 4845 4666 
L 4845 3424 
L 3149 3424 
L 3149 4666 
z
M 5299 3424 
L 5126 3424 
L 5126 4602 
C 5254 4627 5357 4678 5402 4730 
L 4966 5069 
L 4781 4858 
L 992 4858 
L 1050 4666 
L 2861 4666 
L 2861 3424 
L 294 3424 
L 352 3232 
L 2861 3232 
L 2861 2982 
C 2861 2618 2835 2278 2771 1958 
L 864 1958 
L 922 1773 
L 2726 1773 
C 2496 954 1939 262 685 -333 
L 762 -442 
C 2170 102 2771 877 3008 1773 
L 4845 1773 
L 4845 1331 
L 4877 1331 
C 4979 1331 5120 1414 5126 1453 
L 5126 3232 
L 5990 3232 
C 6080 3232 6138 3264 6157 3334 
C 5946 3533 5600 3795 5600 3795 
L 5299 3424 
z
" transform="scale(0.015625)"/>
      </defs>
      <use xlink:href="#NotoSerifCJKjp-ExtraLight-5c11"/>
      <use xlink:href="#NotoSerifCJKjp-ExtraLight-5c39" x="99.999985"/>
     </g>
    </g>
   </g>
   <g id="text_15">
    <g clip-path="url(#p5a4065428c)">
     <!-- 朴德方 -->
     <g transform="translate(708.127344 901.32) scale(0.12 -0.12)">
      <defs>
       <path id="NotoSerifCJKjp-ExtraLight-6734" d="M 2637 3891 
L 2003 3891 
L 2003 5094 
C 2163 5120 2214 5178 2234 5274 
L 1722 5331 
L 1722 3891 
L 352 3891 
L 403 3699 
L 1606 3699 
C 1350 2675 883 1677 230 909 
L 320 819 
C 941 1427 1408 2176 1722 3002 
L 1722 -454 
L 1786 -454 
C 1888 -454 2003 -384 2003 -326 
L 2003 2842 
C 2323 2573 2720 2144 2854 1824 
C 3238 1600 3424 2394 2016 2944 
L 2003 2931 
L 2003 3699 
L 3219 3699 
C 3302 3699 3366 3731 3386 3802 
C 3200 3981 2899 4211 2899 4211 
L 2637 3891 
z
M 4179 5082 
C 4339 5107 4390 5165 4410 5261 
L 3898 5318 
L 3898 -442 
L 3962 -442 
C 4058 -442 4179 -365 4179 -307 
L 4179 3085 
C 4774 2784 5562 2240 5850 1824 
C 6323 1638 6310 2611 4179 3200 
L 4179 5082 
z
" transform="scale(0.015625)"/>
       <path id="NotoSerifCJKjp-ExtraLight-65b9" d="M 5331 4134 
L 3334 4134 
L 3334 5107 
C 3488 5126 3558 5190 3571 5280 
L 3053 5338 
L 3053 4134 
L 301 4134 
L 358 3949 
L 2438 3949 
C 2349 2016 1920 653 352 -397 
L 416 -480 
C 1779 250 2374 1229 2637 2560 
L 4755 2560 
C 4691 1350 4544 224 4333 38 
C 4256 -32 4192 -45 4045 -45 
C 3891 -45 3251 19 2906 51 
L 2899 -70 
C 3200 -109 3584 -173 3693 -230 
C 3795 -282 3827 -378 3827 -461 
C 4096 -467 4358 -378 4518 -211 
C 4806 70 4973 1267 5037 2534 
C 5178 2547 5254 2579 5299 2624 
L 4883 2963 
L 4698 2752 
L 2675 2752 
C 2739 3123 2778 3520 2810 3949 
L 5952 3949 
C 6048 3949 6106 3981 6125 4045 
C 5926 4230 5606 4474 5606 4474 
L 5331 4134 
z
" transform="scale(0.015625)"/>
      </defs>
      <use xlink:href="#NotoSerifCJKjp-ExtraLight-6734"/>
      <use xlink:href="#NotoSerifCJKjp-ExtraLight-5fb7" x="99.999985"/>
      <use xlink:href="#NotoSerifCJKjp-ExtraLight-65b9" x="199.999969"/>
     </g>
    </g>
    <g clip-path="url(#p5a4065428c)">
     <!-- 糾正 -->
     <g transform="translate(714.127344 915.96) scale(0.12 -0.12)">
      <defs>
       <path id="NotoSerifCJKjp-ExtraLight-7cfe" d="M 1395 5338 
C 1222 4909 1011 4429 832 4077 
C 710 4160 550 4237 352 4307 
L 282 4243 
C 563 4051 902 3699 992 3418 
C 1235 3264 1389 3629 954 3987 
C 1178 4288 1434 4691 1638 5037 
C 1766 5024 1843 5075 1869 5146 
L 1395 5338 
z
M 384 70 
C 640 435 851 986 992 1485 
C 1114 1485 1184 1536 1210 1606 
L 742 1747 
C 653 1158 474 544 269 128 
L 384 70 
z
M 2003 3117 
C 2131 2982 2278 2810 2400 2624 
C 1939 2598 1491 2579 1114 2560 
C 1574 3123 2074 3840 2374 4352 
C 2509 4333 2598 4378 2630 4448 
L 2157 4653 
C 1850 4032 1344 3181 922 2554 
C 666 2547 448 2541 301 2541 
L 474 2144 
C 531 2157 589 2189 621 2272 
C 954 2304 1248 2336 1517 2368 
L 1517 -467 
L 1549 -467 
C 1690 -467 1798 -390 1798 -358 
L 1798 2406 
C 2054 2438 2285 2464 2490 2490 
C 2573 2355 2637 2214 2669 2093 
C 2995 1862 3219 2566 2086 3168 
L 2003 3117 
z
M 2144 1728 
C 2330 1414 2560 896 2598 531 
C 2906 250 3194 960 2234 1766 
L 2144 1728 
z
M 5389 1824 
L 5274 1805 
L 5274 5069 
C 5434 5088 5491 5158 5510 5254 
L 4986 5312 
L 4986 1747 
L 3808 1523 
L 3808 4621 
C 3968 4646 4032 4704 4038 4794 
L 3526 4858 
L 3526 1466 
L 2854 1338 
L 2938 1165 
L 4986 1555 
L 4986 -467 
L 5043 -467 
C 5152 -467 5274 -397 5274 -339 
L 5274 1606 
L 5997 1747 
C 6074 1760 6138 1811 6131 1882 
C 5939 2029 5619 2253 5619 2253 
L 5389 1824 
z
" transform="scale(0.015625)"/>
       <path id="NotoSerifCJKjp-ExtraLight-6b63" d="M 5325 19 
L 3373 19 
L 3373 2374 
L 5402 2374 
C 5491 2374 5555 2406 5574 2477 
C 5370 2662 5056 2906 5056 2906 
L 4781 2566 
L 3373 2566 
L 3373 4589 
L 5741 4589 
C 5830 4589 5888 4621 5907 4691 
C 5709 4877 5382 5126 5382 5126 
L 5101 4781 
L 518 4781 
L 576 4589 
L 3091 4589 
L 3091 19 
L 1594 19 
L 1594 2989 
C 1747 3014 1811 3078 1830 3168 
L 1312 3226 
L 1312 19 
L 294 19 
L 352 -173 
L 5965 -173 
C 6054 -173 6112 -141 6131 -70 
C 5926 122 5606 365 5606 365 
L 5325 19 
z
" transform="scale(0.015625)"/>
      </defs>
      <use xlink:href="#NotoSerifCJKjp-ExtraLight-7cfe"/>
      <use xlink:href="#NotoSerifCJKjp-ExtraLight-6b63" x="99.999985"/>
     </g>
    </g>
   </g>
   <g id="text_16">
    <g clip-path="url(#p5a4065428c)">
     <!-- 權愷 -->
     <g transform="translate(966.187074 901.32) scale(0.12 -0.12)">
      <defs>
       <path id="NotoSerifCJKjp-ExtraLight-6137" d="M 2784 3853 
L 5382 3853 
L 5382 3661 
L 5440 3661 
C 5549 3661 5670 3738 5670 3782 
L 5670 4838 
C 5824 4864 5888 4915 5907 5011 
L 5382 5069 
L 5382 4038 
L 4198 4038 
L 4198 5069 
C 4352 5088 4422 5152 4435 5242 
L 3917 5299 
L 3917 4038 
L 2784 4038 
L 2784 4838 
C 2944 4864 3008 4915 3027 5011 
L 2502 5069 
L 2502 3584 
L 2560 3584 
C 2669 3584 2784 3648 2784 3693 
L 2784 3853 
z
M 736 4122 
C 736 3654 550 3136 365 2925 
C 269 2816 230 2688 301 2598 
C 397 2496 595 2586 691 2733 
C 845 2950 986 3462 858 4115 
L 736 4122 
z
M 1274 5338 
L 1274 -474 
L 1331 -474 
C 1440 -474 1555 -397 1555 -339 
L 1555 5101 
C 1715 5126 1766 5190 1786 5280 
L 1274 5338 
z
M 2278 3078 
L 5946 3078 
C 6035 3078 6099 3110 6112 3181 
C 5926 3354 5626 3590 5626 3590 
L 5363 3264 
L 2336 3264 
C 2438 3443 2368 3872 1786 4288 
L 1696 4250 
C 1869 3994 2048 3565 2061 3245 
C 2125 3181 2195 3168 2246 3187 
L 2278 3078 
z
M 2899 1517 
L 2899 2349 
L 5242 2349 
L 5242 1517 
L 2899 1517 
z
M 5280 1107 
C 5395 1107 5517 1190 5517 1216 
L 5517 2342 
C 5638 2355 5702 2387 5734 2432 
L 5363 2720 
L 5222 2541 
L 2976 2541 
L 2624 2707 
L 2624 1050 
L 2662 1050 
C 2803 1050 2899 1120 2899 1152 
L 2899 1331 
L 5242 1331 
L 5242 1107 
L 5280 1107 
z
M 3021 1069 
C 3181 819 3354 416 3366 122 
C 3635 -141 3936 486 3110 1101 
L 3021 1069 
z
M 5466 -51 
L 4493 -51 
C 4704 237 4915 570 5056 826 
C 5184 813 5274 858 5299 928 
L 4787 1133 
C 4672 774 4493 307 4320 -51 
L 2061 -51 
L 2112 -237 
L 6048 -237 
C 6138 -237 6195 -205 6208 -141 
C 6029 38 5728 269 5728 269 
L 5466 -51 
z
" transform="scale(0.015625)"/>
      </defs>
      <use xlink:href="#NotoSerifCJKjp-ExtraLight-6b0a"/>
      <use xlink:href="#NotoSerifCJKjp-ExtraLight-6137" x="99.999985"/>
     </g>
    </g>
    <g clip-path="url(#p5a4065428c)">
     <!-- 典書 -->
     <g transform="translate(966.187074 915.96) scale(0.12 -0.12)">
      <defs>
       <path id="NotoSerifCJKjp-ExtraLight-5178" d="M 410 -474 
C 1197 -230 2029 237 2490 595 
C 2630 570 2726 582 2765 646 
L 2310 883 
C 1933 480 1094 -77 352 -365 
L 410 -474 
z
M 3949 755 
C 4781 390 5382 -26 5690 -403 
C 6048 -710 6490 134 4000 870 
L 3949 755 
z
M 1370 2669 
L 2362 2669 
L 2362 1274 
L 1370 1274 
L 1370 2669 
z
M 2362 4134 
L 2362 2854 
L 1370 2854 
L 1370 4134 
L 2362 4134 
z
M 3699 4134 
L 3699 2854 
L 2650 2854 
L 2650 4134 
L 3699 4134 
z
M 5024 4134 
L 5024 2854 
L 3987 2854 
L 3987 4134 
L 5024 4134 
z
M 3699 1274 
L 2650 1274 
L 2650 2669 
L 3699 2669 
L 3699 1274 
z
M 3987 2669 
L 5024 2669 
L 5024 1274 
L 3987 1274 
L 3987 2669 
z
M 5459 1274 
L 5306 1274 
L 5306 4083 
C 5466 4096 5555 4134 5600 4198 
L 5133 4563 
L 4947 4326 
L 3987 4326 
L 3987 5094 
C 4102 5114 4154 5165 4166 5242 
L 3699 5293 
L 3699 4326 
L 2650 4326 
L 2650 5094 
C 2771 5114 2816 5165 2829 5242 
L 2362 5293 
L 2362 4326 
L 1446 4326 
L 1088 4493 
L 1088 1274 
L 256 1274 
L 307 1088 
L 6022 1088 
C 6106 1088 6163 1114 6182 1184 
C 6010 1370 5715 1619 5715 1619 
L 5459 1274 
z
" transform="scale(0.015625)"/>
       <path id="NotoSerifCJKjp-ExtraLight-66f8" d="M 1638 51 
L 1638 576 
L 4723 576 
L 4723 51 
L 1638 51 
z
M 4723 1261 
L 4723 762 
L 1638 762 
L 1638 1261 
L 4723 1261 
z
M 4659 1453 
L 1670 1453 
L 1357 1606 
L 1357 -474 
L 1402 -474 
C 1517 -474 1638 -403 1638 -371 
L 1638 -141 
L 4723 -141 
L 4723 -461 
L 4762 -461 
C 4858 -461 4998 -384 5005 -346 
L 5005 1197 
C 5133 1222 5242 1274 5286 1325 
L 4851 1658 
L 4659 1453 
z
M 3283 3450 
L 3283 3955 
L 4659 3955 
L 4659 3450 
L 3283 3450 
z
M 3283 4634 
L 4659 4634 
L 4659 4141 
L 3283 4141 
L 3283 4634 
z
M 4698 3021 
C 4794 3021 4934 3098 4941 3136 
L 4941 3955 
L 5946 3955 
C 6035 3955 6093 3987 6112 4051 
C 5926 4224 5638 4454 5638 4454 
L 5382 4141 
L 4941 4141 
L 4941 4570 
C 5069 4595 5178 4646 5222 4698 
L 4787 5030 
L 4595 4826 
L 3283 4826 
L 3283 5094 
C 3437 5120 3501 5184 3520 5274 
L 3002 5331 
L 3002 4826 
L 1094 4826 
L 1152 4634 
L 3002 4634 
L 3002 4141 
L 294 4141 
L 352 3955 
L 3002 3955 
L 3002 3450 
L 1062 3450 
L 1114 3258 
L 3002 3258 
L 3002 2771 
L 864 2771 
L 922 2586 
L 3002 2586 
L 3002 2080 
L 358 2080 
L 416 1894 
L 5875 1894 
C 5965 1894 6022 1926 6042 1990 
C 5850 2170 5562 2394 5562 2394 
L 5299 2080 
L 3283 2080 
L 3283 2586 
L 5498 2586 
C 5581 2586 5645 2618 5658 2688 
C 5478 2854 5197 3078 5197 3078 
L 4947 2771 
L 3283 2771 
L 3283 3258 
L 4659 3258 
L 4659 3021 
L 4698 3021 
z
" transform="scale(0.015625)"/>
      </defs>
      <use xlink:href="#NotoSerifCJKjp-ExtraLight-5178"/>
      <use xlink:href="#NotoSerifCJKjp-ExtraLight-66f8" x="99.999985"/>
     </g>
    </g>
   </g>
   <g id="text_17">
    <g clip-path="url(#p5a4065428c)">
     <!-- 許少由 -->
     <g transform="translate(1716.366264 541.32) scale(0.12 -0.12)">
      <defs>
       <path id="NotoSerifCJKjp-ExtraLight-8a31" d="M 2426 4730 
C 2509 4730 2573 4762 2586 4832 
C 2406 4998 2125 5229 2125 5229 
L 1882 4915 
L 570 4915 
L 621 4730 
L 2426 4730 
z
M 2170 4109 
L 269 4109 
L 320 3923 
L 2726 3923 
C 2810 3923 2867 3955 2886 4026 
C 2714 4192 2419 4422 2419 4422 
L 2170 4109 
z
M 544 3302 
L 595 3117 
L 2362 3117 
C 2451 3117 2509 3149 2528 3213 
C 2362 3373 2106 3584 2106 3584 
L 1888 3302 
L 544 3302 
z
M 2355 2310 
C 2445 2310 2502 2342 2515 2406 
C 2355 2573 2086 2778 2086 2778 
L 1856 2496 
L 544 2496 
L 595 2310 
L 2355 2310 
z
M 864 275 
L 864 1504 
L 2118 1504 
L 2118 275 
L 864 275 
z
M 2054 1690 
L 896 1690 
L 582 1850 
L 582 -461 
L 627 -461 
C 742 -461 864 -390 864 -358 
L 864 90 
L 2118 90 
L 2118 -243 
L 2157 -243 
C 2253 -243 2394 -173 2400 -134 
L 2400 1440 
C 2528 1466 2637 1510 2682 1562 
L 2246 1901 
L 2054 1690 
z
M 5485 2387 
L 4557 2387 
L 4557 4038 
L 5920 4038 
C 6010 4038 6067 4070 6086 4141 
C 5901 4320 5613 4544 5613 4544 
L 5350 4230 
L 3520 4230 
C 3642 4499 3738 4781 3821 5075 
C 3962 5075 4026 5133 4045 5210 
L 3520 5344 
C 3354 4454 3021 3610 2624 3059 
L 2726 2995 
C 2995 3264 3232 3629 3437 4038 
L 4275 4038 
L 4275 2387 
L 2669 2387 
L 2720 2202 
L 4275 2202 
L 4275 -467 
L 4314 -467 
C 4461 -467 4557 -371 4557 -339 
L 4557 2202 
L 6067 2202 
C 6150 2202 6208 2234 6227 2304 
C 6042 2477 5741 2714 5741 2714 
L 5485 2387 
z
" transform="scale(0.015625)"/>
       <path id="NotoSerifCJKjp-ExtraLight-7531" d="M 3309 224 
L 3309 1926 
L 5184 1926 
L 5184 224 
L 3309 224 
z
M 1210 1926 
L 3027 1926 
L 3027 224 
L 1210 224 
L 1210 1926 
z
M 3027 3712 
L 3027 2112 
L 1210 2112 
L 1210 3712 
L 3027 3712 
z
M 5184 3712 
L 5184 2112 
L 3309 2112 
L 3309 3712 
L 5184 3712 
z
M 5306 4147 
L 5107 3904 
L 3309 3904 
L 3309 5043 
C 3462 5069 3520 5133 3539 5222 
L 3027 5286 
L 3027 3904 
L 1248 3904 
L 934 4070 
L 934 -467 
L 986 -467 
C 1114 -467 1210 -397 1210 -358 
L 1210 32 
L 5184 32 
L 5184 -416 
L 5222 -416 
C 5312 -416 5459 -333 5466 -294 
L 5466 3610 
C 5626 3642 5754 3699 5805 3763 
L 5306 4147 
z
" transform="scale(0.015625)"/>
      </defs>
      <use xlink:href="#NotoSerifCJKjp-ExtraLight-8a31"/>
      <use xlink:href="#NotoSerifCJKjp-ExtraLight-5c11" x="99.999985"/>
      <use xlink:href="#NotoSerifCJKjp-ExtraLight-7531" x="199.999969"/>
     </g>
    </g>
    <g clip-path="url(#p5a4065428c)">
     <!--  -->
     <g transform="translate(1734.366264 555.96) scale(0.12 -0.12)"/>
    </g>
   </g>
   <g id="text_18">
    <g clip-path="url(#p5a4065428c)">
     <!-- 許昶 -->
     <g transform="translate(1722.366264 901.32) scale(0.12 -0.12)">
      <defs>
       <path id="NotoSerifCJKjp-ExtraLight-6636" d="M 5453 4467 
L 5453 3085 
L 4154 3085 
L 4154 4467 
L 5453 4467 
z
M 4154 1466 
L 4154 2893 
L 5453 2893 
L 5453 1466 
L 4154 1466 
z
M 4154 1274 
L 5453 1274 
L 5453 896 
L 5491 896 
C 5594 896 5728 979 5734 1018 
L 5734 4410 
C 5862 4435 5971 4480 6016 4531 
L 5581 4870 
L 5389 4659 
L 4186 4659 
L 3872 4826 
L 3872 774 
L 3923 774 
C 4051 774 4154 845 4154 883 
L 4154 1274 
z
M 3296 4755 
C 3386 4755 3450 4787 3462 4858 
C 3277 5030 2982 5267 2982 5267 
L 2726 4941 
L 621 4941 
L 672 4755 
L 3296 4755 
z
M 1530 2982 
L 1331 2778 
L 358 2778 
L 416 2592 
L 1363 2592 
C 1242 1651 922 666 224 13 
L 294 -83 
C 1171 589 1504 1606 1658 2566 
C 1792 2573 1856 2592 1907 2643 
L 1530 2982 
z
M 3373 3360 
C 3194 3098 2874 2682 2630 2387 
C 2528 2694 2458 3040 2406 3437 
L 2406 3693 
C 2534 3718 2650 3770 2688 3821 
L 2227 4160 
L 2061 3949 
L 736 3949 
L 794 3757 
L 2125 3757 
L 2125 77 
C 2125 -32 2093 -70 1965 -70 
C 1837 -70 1184 -13 1184 -13 
L 1184 -122 
C 1459 -154 1626 -192 1722 -243 
C 1805 -294 1843 -384 1862 -474 
C 2355 -416 2406 -230 2406 32 
L 2406 2848 
C 2835 550 4083 32 5888 -333 
C 5926 -192 6016 -115 6138 -102 
L 6138 -19 
C 4550 205 3251 589 2662 2272 
C 2950 2509 3322 2848 3539 3053 
C 3654 3021 3712 3034 3744 3085 
L 3373 3360 
z
" transform="scale(0.015625)"/>
      </defs>
      <use xlink:href="#NotoSerifCJKjp-ExtraLight-8a31"/>
      <use xlink:href="#NotoSerifCJKjp-ExtraLight-6636" x="99.999985"/>
     </g>
    </g>
    <g clip-path="url(#p5a4065428c)">
     <!--  -->
     <g transform="translate(1734.366264 915.96) scale(0.12 -0.12)"/>
    </g>
   </g>
   <g id="text_19">
    <g clip-path="url(#p5a4065428c)">
     <!-- 姜昌貴 -->
     <g transform="translate(2472.545455 181.32) scale(0.12 -0.12)">
      <defs>
       <path id="NotoSerifCJKjp-ExtraLight-59dc" d="M 4269 1613 
C 4096 1216 3846 896 3520 640 
C 3072 723 2547 806 1933 870 
C 2112 1107 2298 1370 2470 1613 
L 4269 1613 
z
M 5286 1805 
L 2605 1805 
C 2746 2010 2874 2195 2950 2323 
C 3104 2310 3174 2362 3200 2438 
L 2816 2554 
L 5811 2554 
C 5901 2554 5965 2586 5978 2656 
C 5792 2829 5498 3066 5498 3066 
L 5242 2746 
L 3334 2746 
L 3334 3405 
L 5325 3405 
C 5414 3405 5478 3437 5491 3507 
C 5312 3674 5030 3904 5030 3904 
L 4787 3597 
L 3334 3597 
L 3334 4230 
L 5619 4230 
C 5709 4230 5760 4262 5779 4333 
C 5594 4506 5293 4749 5293 4749 
L 5024 4422 
L 3968 4422 
C 4166 4634 4371 4883 4506 5088 
C 4646 5082 4723 5139 4755 5216 
L 4224 5350 
C 4115 5069 3942 4698 3782 4422 
L 2426 4422 
C 2650 4461 2688 5018 1837 5331 
L 1760 5286 
C 1990 5094 2240 4749 2278 4467 
C 2310 4442 2349 4429 2381 4422 
L 704 4422 
L 762 4230 
L 3053 4230 
L 3053 3597 
L 1056 3597 
L 1101 3405 
L 3053 3405 
L 3053 2746 
L 448 2746 
L 506 2554 
L 2739 2554 
C 2637 2362 2470 2093 2272 1805 
L 339 1805 
L 397 1613 
L 2144 1613 
C 1850 1190 1530 755 1293 499 
C 1395 429 1510 403 1587 422 
C 1664 518 1747 621 1830 736 
C 2349 646 2816 550 3245 448 
C 2554 19 1587 -205 320 -352 
L 346 -474 
C 1837 -358 2874 -122 3597 358 
C 4429 134 5082 -122 5562 -416 
C 5984 -646 6323 38 3878 570 
C 4198 845 4448 1190 4634 1613 
L 5888 1613 
C 5978 1613 6042 1645 6054 1715 
C 5862 1901 5555 2138 5555 2138 
L 5286 1805 
z
" transform="scale(0.015625)"/>
       <path id="NotoSerifCJKjp-ExtraLight-660c" d="M 4749 4742 
L 4749 4026 
L 1798 4026 
L 1798 4742 
L 4749 4742 
z
M 1798 3098 
L 1798 3834 
L 4749 3834 
L 4749 3098 
L 1798 3098 
z
M 1798 2906 
L 4749 2906 
L 4749 2650 
L 4787 2650 
C 4877 2650 5024 2733 5030 2771 
L 5030 4678 
C 5158 4704 5267 4755 5306 4806 
L 4877 5139 
L 4685 4928 
L 1830 4928 
L 1517 5094 
L 1517 2605 
L 1562 2605 
C 1677 2605 1798 2675 1798 2701 
L 1798 2906 
z
M 1261 192 
L 1261 1030 
L 5242 1030 
L 5242 192 
L 1261 192 
z
M 5242 2029 
L 5242 1216 
L 1261 1216 
L 1261 2029 
L 5242 2029 
z
M 5363 2426 
L 5178 2221 
L 1299 2221 
L 979 2381 
L 979 -467 
L 1030 -467 
C 1146 -467 1261 -397 1261 -365 
L 1261 0 
L 5242 0 
L 5242 -435 
L 5280 -435 
C 5370 -435 5517 -352 5523 -314 
L 5523 1965 
C 5651 1990 5754 2042 5798 2093 
L 5363 2426 
z
" transform="scale(0.015625)"/>
       <path id="NotoSerifCJKjp-ExtraLight-8cb4" d="M 416 -467 
C 1190 -371 2042 -122 2541 109 
C 2682 70 2778 83 2816 141 
L 2355 448 
C 1946 166 1107 -186 378 -358 
L 416 -467 
z
M 1658 794 
L 1658 1312 
L 4717 1312 
L 4717 794 
L 1658 794 
z
M 4717 2650 
L 4717 2176 
L 1658 2176 
L 1658 2650 
L 4717 2650 
z
M 4717 1504 
L 1658 1504 
L 1658 1984 
L 4717 1984 
L 4717 1504 
z
M 4755 371 
C 4851 371 4992 448 4998 486 
L 4998 2605 
C 5107 2624 5210 2675 5248 2720 
L 4838 3034 
L 4659 2835 
L 1690 2835 
L 1376 3002 
L 1376 326 
L 1427 326 
C 1542 326 1658 397 1658 429 
L 1658 608 
L 4717 608 
L 4717 371 
L 4755 371 
z
M 3718 230 
C 4518 45 5190 -192 5594 -416 
C 6022 -653 6566 58 3744 346 
L 3718 230 
z
M 1581 4122 
L 1581 4685 
L 3034 4685 
L 3034 4122 
L 1581 4122 
z
M 4819 4685 
L 4819 4122 
L 3315 4122 
L 3315 4685 
L 4819 4685 
z
M 5350 3424 
L 3315 3424 
L 3315 3936 
L 4819 3936 
L 4819 3699 
L 4858 3699 
C 4947 3699 5094 3776 5101 3814 
L 5101 4640 
C 5210 4659 5306 4710 5344 4755 
L 4934 5062 
L 4762 4870 
L 3315 4870 
L 3315 5094 
C 3469 5114 3539 5178 3552 5267 
L 3034 5325 
L 3034 4870 
L 1613 4870 
L 1299 5030 
L 1299 3642 
L 1344 3642 
C 1459 3642 1581 3706 1581 3731 
L 1581 3936 
L 3034 3936 
L 3034 3424 
L 294 3424 
L 352 3232 
L 5946 3232 
C 6035 3232 6093 3264 6112 3334 
C 5920 3514 5619 3750 5619 3750 
L 5350 3424 
z
" transform="scale(0.015625)"/>
      </defs>
      <use xlink:href="#NotoSerifCJKjp-ExtraLight-59dc"/>
      <use xlink:href="#NotoSerifCJKjp-ExtraLight-660c" x="99.999985"/>
      <use xlink:href="#NotoSerifCJKjp-ExtraLight-8cb4" x="199.999969"/>
     </g>
    </g>
    <g clip-path="url(#p5a4065428c)">
     <!-- 侍中 -->
     <g transform="translate(2478.545455 195.96) scale(0.12 -0.12)">
      <defs>
       <path id="NotoSerifCJKjp-ExtraLight-4f8d" d="M 1722 5325 
C 1376 4128 800 2938 250 2189 
L 346 2118 
C 621 2413 890 2784 1133 3200 
L 1133 -467 
L 1184 -467 
C 1293 -467 1414 -384 1421 -358 
L 1421 3482 
C 1523 3494 1587 3539 1606 3597 
L 1395 3674 
C 1619 4102 1824 4570 1990 5037 
C 2131 5030 2208 5088 2234 5158 
L 1722 5325 
z
M 2579 1549 
C 2848 1280 3213 819 3322 493 
C 3674 250 3904 998 2656 1600 
L 2579 1549 
z
M 5350 2067 
L 4928 2067 
L 4928 2605 
C 5075 2630 5139 2682 5158 2771 
L 4646 2829 
L 4646 2067 
L 1773 2067 
L 1824 1882 
L 4646 1882 
L 4646 83 
C 4646 -26 4608 -64 4467 -64 
C 4314 -64 3507 -6 3507 -6 
L 3507 -109 
C 3834 -147 4038 -186 4147 -243 
C 4243 -294 4288 -378 4314 -467 
C 4877 -410 4928 -218 4928 58 
L 4928 1882 
L 5939 1882 
C 6022 1882 6086 1914 6106 1978 
C 5914 2157 5619 2387 5619 2387 
L 5350 2067 
z
M 5414 3181 
L 3962 3181 
L 3962 4166 
L 5632 4166 
C 5722 4166 5779 4198 5792 4269 
C 5613 4448 5306 4678 5306 4678 
L 5050 4358 
L 3962 4358 
L 3962 5101 
C 4096 5126 4154 5178 4166 5267 
L 3674 5318 
L 3674 4358 
L 2086 4358 
L 2138 4166 
L 3674 4166 
L 3674 3181 
L 1715 3181 
L 1766 2989 
L 5997 2989 
C 6086 2989 6144 3021 6157 3091 
C 5978 3264 5677 3501 5677 3501 
L 5414 3181 
z
" transform="scale(0.015625)"/>
       <path id="NotoSerifCJKjp-ExtraLight-4e2d" d="M 3315 2144 
L 3315 3827 
L 5350 3827 
L 5350 2144 
L 3315 2144 
z
M 998 2144 
L 998 3827 
L 3034 3827 
L 3034 2144 
L 998 2144 
z
M 5478 4224 
L 5286 4019 
L 3315 4019 
L 3315 5094 
C 3475 5120 3520 5184 3539 5274 
L 3034 5338 
L 3034 4019 
L 1037 4019 
L 723 4186 
L 723 1357 
L 774 1357 
C 890 1357 998 1427 998 1459 
L 998 1952 
L 3034 1952 
L 3034 -474 
L 3091 -474 
C 3194 -474 3315 -397 3315 -346 
L 3315 1952 
L 5350 1952 
L 5350 1421 
L 5389 1421 
C 5485 1421 5626 1498 5632 1536 
L 5632 3763 
C 5760 3789 5862 3840 5907 3891 
L 5478 4224 
z
" transform="scale(0.015625)"/>
      </defs>
      <use xlink:href="#NotoSerifCJKjp-ExtraLight-4f8d"/>
      <use xlink:href="#NotoSerifCJKjp-ExtraLight-4e2d" x="99.999985"/>
     </g>
    </g>
   </g>
   <g id="text_20">
    <g clip-path="url(#p5a4065428c)">
     <!-- 姜君寶 -->
     <g transform="translate(2472.545455 541.32) scale(0.12 -0.12)">
      <defs>
       <path id="NotoSerifCJKjp-ExtraLight-541b" d="M 4806 2848 
L 2592 2848 
C 2714 3130 2803 3424 2880 3731 
L 4806 3731 
L 4806 2848 
z
M 4806 4755 
L 4806 3923 
L 2925 3923 
C 2976 4192 3021 4467 3053 4755 
L 4806 4755 
z
M 5069 1517 
L 5069 147 
L 2195 147 
L 2195 1517 
L 5069 1517 
z
M 5331 3923 
L 5088 3923 
L 5088 4672 
C 5229 4698 5344 4755 5395 4813 
L 4922 5171 
L 4736 4941 
L 1133 4941 
L 1190 4755 
L 2739 4755 
C 2707 4467 2662 4192 2605 3923 
L 390 3923 
L 448 3731 
L 2560 3731 
C 2490 3424 2394 3130 2278 2848 
L 1069 2848 
L 1120 2662 
L 2195 2662 
C 1805 1805 1197 1082 294 506 
L 378 410 
C 1024 781 1530 1210 1920 1702 
L 1920 -486 
L 1952 -486 
C 2093 -486 2195 -403 2195 -378 
L 2195 -45 
L 5069 -45 
L 5069 -442 
L 5107 -442 
C 5203 -442 5344 -358 5350 -326 
L 5350 1453 
C 5485 1478 5600 1523 5645 1574 
L 5197 1926 
L 4998 1709 
L 2272 1709 
L 2016 1830 
C 2208 2093 2374 2368 2509 2662 
L 4806 2662 
L 4806 2317 
L 4845 2317 
C 4928 2317 5075 2362 5088 2381 
L 5088 3731 
L 5914 3731 
C 6003 3731 6061 3763 6080 3834 
C 5888 4013 5594 4243 5594 4243 
L 5331 3923 
z
" transform="scale(0.015625)"/>
       <path id="NotoSerifCJKjp-ExtraLight-5bf6" d="M 518 -467 
C 1318 -365 2150 -115 2650 128 
C 2778 83 2880 90 2925 141 
L 2515 448 
C 2099 154 1248 -186 480 -352 
L 518 -467 
z
M 877 2502 
C 934 2522 979 2560 1011 2637 
C 1933 2784 2598 2912 3059 3008 
L 3046 3123 
L 2118 3021 
L 2118 3392 
L 2810 3392 
C 2899 3392 2950 3424 2970 3494 
C 2829 3616 2630 3757 2630 3757 
L 2458 3584 
L 2118 3584 
L 2118 3987 
L 2899 3987 
C 2982 3987 3040 4019 3059 4083 
C 2899 4224 2682 4378 2682 4378 
L 2477 4173 
L 1024 4173 
L 1075 3987 
L 1837 3987 
L 1837 3584 
L 1030 3584 
L 1082 3392 
L 1837 3392 
L 1837 2989 
C 1325 2938 890 2893 634 2880 
L 877 2502 
z
M 1722 672 
L 1722 1094 
L 4755 1094 
L 4755 672 
L 1722 672 
z
M 4755 2317 
L 4755 1907 
L 1722 1907 
L 1722 2317 
L 4755 2317 
z
M 4755 1286 
L 1722 1286 
L 1722 1715 
L 4755 1715 
L 4755 1286 
z
M 4794 269 
C 4883 269 5030 352 5037 390 
L 5037 2291 
C 5133 2304 5222 2349 5254 2387 
L 4877 2688 
L 4704 2502 
L 1754 2502 
L 1440 2669 
L 1440 205 
L 1491 205 
C 1600 205 1722 269 1722 294 
L 1722 480 
L 4755 480 
L 4755 269 
L 4794 269 
z
M 3584 230 
C 4448 58 5114 -173 5517 -416 
C 5939 -653 6419 102 3610 346 
L 3584 230 
z
M 5267 3654 
L 4550 3654 
L 4550 3968 
L 5338 3968 
C 5421 3968 5478 4000 5498 4064 
C 5459 4102 5421 4134 5376 4173 
C 5542 4288 5741 4454 5856 4576 
C 5971 4589 6054 4595 6099 4640 
L 5696 5030 
L 5478 4813 
L 3328 4813 
L 3328 5101 
C 3482 5120 3558 5184 3571 5274 
L 3046 5331 
L 3046 4813 
L 1114 4813 
C 1107 4902 1094 5005 1075 5107 
L 954 5107 
C 966 4762 800 4384 621 4237 
C 525 4154 467 4038 531 3962 
C 602 3859 781 3917 883 4026 
C 992 4128 1088 4333 1114 4621 
L 5466 4621 
C 5408 4499 5331 4365 5267 4256 
C 5190 4320 5133 4365 5133 4365 
L 4947 4154 
L 3718 4154 
C 3763 4218 3808 4282 3840 4339 
C 3981 4320 4032 4339 4051 4403 
L 3616 4550 
C 3526 4320 3360 3974 3200 3782 
L 3296 3718 
C 3392 3789 3482 3878 3565 3968 
L 4269 3968 
L 4269 3654 
L 3040 3654 
L 3091 3469 
L 4269 3469 
L 4269 2995 
L 3661 2995 
L 3661 3142 
C 3770 3162 3814 3200 3821 3270 
L 3379 3322 
L 3379 2618 
L 3437 2618 
C 3539 2618 3661 2694 3661 2733 
L 3661 2803 
L 5178 2803 
L 5178 2618 
L 5235 2618 
C 5331 2618 5459 2694 5459 2733 
L 5459 3142 
C 5568 3162 5613 3200 5619 3270 
L 5178 3322 
L 5178 2995 
L 4550 2995 
L 4550 3469 
L 5715 3469 
C 5798 3469 5856 3501 5869 3571 
C 5709 3706 5472 3866 5472 3866 
L 5267 3654 
z
" transform="scale(0.015625)"/>
      </defs>
      <use xlink:href="#NotoSerifCJKjp-ExtraLight-59dc"/>
      <use xlink:href="#NotoSerifCJKjp-ExtraLight-541b" x="99.999985"/>
      <use xlink:href="#NotoSerifCJKjp-ExtraLight-5bf6" x="199.999969"/>
     </g>
    </g>
    <g clip-path="url(#p5a4065428c)">
     <!-- 政堂 -->
     <g transform="translate(2478.545455 555.96) scale(0.12 -0.12)">
      <defs>
       <path id="NotoSerifCJKjp-ExtraLight-653f" d="M 5107 3725 
C 4986 2848 4742 2086 4326 1440 
C 3968 2048 3750 2758 3597 3526 
C 3629 3590 3654 3661 3680 3725 
L 5107 3725 
z
M 5984 3725 
C 6074 3725 6131 3757 6144 3827 
C 5958 4006 5664 4237 5664 4237 
L 5402 3917 
L 3757 3917 
C 3898 4282 4013 4666 4102 5062 
C 4243 5069 4314 5133 4339 5210 
L 3789 5331 
C 3654 4474 3398 3654 3085 2989 
C 2906 3162 2637 3373 2637 3373 
L 2387 3066 
L 1914 3066 
L 1914 4544 
L 3136 4544 
C 3219 4544 3277 4576 3296 4646 
C 3117 4826 2822 5050 2822 5050 
L 2566 4736 
L 339 4736 
L 390 4544 
L 1626 4544 
L 1626 774 
C 1370 704 1139 640 928 589 
L 928 3354 
C 1050 3379 1094 3430 1107 3501 
L 646 3558 
L 646 518 
C 474 474 333 442 224 422 
L 461 -26 
C 518 -6 570 51 589 128 
C 1779 531 2682 877 3347 1126 
L 3315 1235 
C 2829 1101 2349 966 1914 851 
L 1914 2874 
L 2931 2874 
C 2976 2874 3014 2880 3040 2899 
C 2957 2726 2867 2560 2771 2413 
L 2867 2349 
C 3098 2611 3309 2938 3488 3302 
C 3629 2534 3834 1824 4166 1210 
C 3699 576 3046 45 2144 -378 
L 2202 -474 
C 3130 -102 3814 371 4314 960 
C 4685 378 5190 -109 5888 -467 
C 5933 -333 6054 -269 6182 -262 
L 6202 -198 
C 5440 122 4890 595 4493 1184 
C 4998 1875 5293 2714 5453 3725 
L 5984 3725 
z
" transform="scale(0.015625)"/>
       <path id="NotoSerifCJKjp-ExtraLight-5802" d="M 1312 5114 
C 1606 4896 1939 4499 1990 4173 
C 2349 3930 2566 4749 1382 5171 
L 1312 5114 
z
M 5466 3930 
C 5382 3712 5267 3443 5178 3277 
L 5274 3226 
C 5466 3392 5722 3674 5856 3885 
C 5978 3891 6054 3898 6106 3942 
L 5683 4352 
L 5459 4115 
L 4282 4115 
C 4563 4358 4845 4653 5030 4883 
C 5158 4864 5254 4902 5286 4966 
L 4794 5203 
C 4614 4870 4333 4435 4077 4115 
L 3334 4115 
L 3334 5101 
C 3488 5120 3558 5184 3571 5274 
L 3053 5331 
L 3053 4115 
L 1120 4115 
C 1107 4198 1088 4282 1062 4371 
L 941 4365 
C 992 3917 781 3507 518 3354 
C 416 3283 346 3174 403 3078 
C 467 2963 666 3002 800 3104 
C 973 3226 1146 3501 1133 3930 
L 5466 3930 
z
M 1856 3053 
L 4550 3053 
L 4550 2138 
L 1856 2138 
L 1856 3053 
z
M 5248 -141 
L 3341 -141 
L 3341 883 
L 5280 883 
C 5363 883 5421 915 5440 986 
C 5261 1152 4966 1376 4966 1376 
L 4717 1075 
L 3341 1075 
L 3341 1946 
L 4550 1946 
L 4550 1670 
L 4589 1670 
C 4685 1670 4832 1754 4838 1792 
L 4838 3008 
C 4941 3027 5043 3078 5082 3123 
L 4672 3430 
L 4493 3238 
L 1888 3238 
L 1568 3398 
L 1568 1600 
L 1613 1600 
C 1734 1600 1856 1670 1856 1696 
L 1856 1946 
L 3059 1946 
L 3059 1075 
L 1133 1075 
L 1184 883 
L 3059 883 
L 3059 -141 
L 486 -141 
L 544 -326 
L 5856 -326 
C 5946 -326 6010 -294 6022 -224 
C 5824 -51 5517 192 5517 192 
L 5248 -141 
z
" transform="scale(0.015625)"/>
      </defs>
      <use xlink:href="#NotoSerifCJKjp-ExtraLight-653f"/>
      <use xlink:href="#NotoSerifCJKjp-ExtraLight-5802" x="99.999985"/>
     </g>
    </g>
   </g>
   <g id="text_21">
    <g clip-path="url(#p5a4065428c)">
     <!-- 權演 -->
     <g transform="translate(1091.016655 181.32) scale(0.12 -0.12)">
      <defs>
       <path id="NotoSerifCJKjp-ExtraLight-6f14" d="M 5523 4384 
C 5472 4237 5408 4070 5370 3981 
L 5466 3936 
C 5606 4032 5843 4211 5971 4320 
C 6093 4326 6163 4339 6208 4384 
L 5760 4826 
L 5517 4570 
L 4077 4570 
L 4077 5088 
C 4230 5107 4301 5171 4314 5261 
L 3795 5318 
L 3795 4570 
L 2470 4570 
C 2464 4672 2451 4787 2432 4909 
L 2336 4915 
C 2298 4474 2125 4147 1907 4000 
C 1632 3610 2432 3418 2470 4384 
L 5523 4384 
z
M 4070 1101 
L 4070 1856 
L 5338 1856 
L 5338 1101 
L 4070 1101 
z
M 2579 1856 
L 3789 1856 
L 3789 1101 
L 2579 1101 
L 2579 1856 
z
M 3789 2752 
L 3789 2042 
L 2579 2042 
L 2579 2752 
L 3789 2752 
z
M 5338 2752 
L 5338 2042 
L 4070 2042 
L 4070 2752 
L 5338 2752 
z
M 5376 621 
C 5498 621 5626 691 5626 717 
L 5626 2733 
C 5741 2752 5811 2778 5856 2829 
L 5472 3130 
L 5318 2938 
L 4070 2938 
L 4070 3565 
L 5491 3565 
C 5581 3565 5638 3597 5658 3661 
C 5466 3834 5178 4038 5178 4038 
L 4922 3750 
L 2400 3750 
L 2451 3565 
L 3789 3565 
L 3789 2938 
L 2656 2938 
L 2304 3104 
L 2304 557 
L 2342 557 
C 2483 557 2579 634 2579 666 
L 2579 915 
L 5338 915 
L 5338 621 
L 5376 621 
z
M 768 5222 
C 1062 5050 1421 4717 1536 4454 
C 1920 4262 2067 5030 832 5286 
L 768 5222 
z
M 262 3782 
C 550 3629 883 3334 986 3091 
C 1363 2899 1510 3674 326 3846 
L 262 3782 
z
M 1818 3571 
C 915 1619 915 1619 813 1427 
C 749 1299 723 1299 666 1299 
L 384 1299 
L 384 1152 
C 518 1139 608 1126 685 1069 
C 819 979 851 512 781 -147 
C 781 -339 819 -461 922 -461 
C 1094 -461 1184 -314 1197 -58 
C 1222 435 1088 781 1082 1037 
C 1082 1178 1114 1350 1165 1510 
C 1248 1747 1709 2918 1939 3539 
L 1818 3571 
z
M 1594 -461 
C 2317 -294 3046 45 3456 333 
C 3597 301 3680 314 3725 371 
L 3283 640 
C 2950 294 2227 -134 1542 -346 
L 1594 -461 
z
M 4454 461 
C 5082 205 5530 -109 5754 -384 
C 6118 -698 6662 115 4493 570 
L 4454 461 
z
" transform="scale(0.015625)"/>
      </defs>
      <use xlink:href="#NotoSerifCJKjp-ExtraLight-6b0a"/>
      <use xlink:href="#NotoSerifCJKjp-ExtraLight-6f14" x="99.999985"/>
     </g>
    </g>
    <g clip-path="url(#p5a4065428c)">
     <!-- 忠州判官 -->
     <g transform="translate(1079.016655 195.96) scale(0.12 -0.12)">
      <defs>
       <path id="NotoSerifCJKjp-ExtraLight-5fe0" d="M 1152 1510 
C 1146 941 826 454 512 269 
C 410 198 346 90 403 0 
C 480 -102 678 -38 826 77 
C 1069 256 1408 723 1274 1510 
L 1152 1510 
z
M 3040 4250 
L 3040 3034 
L 1363 3034 
L 1363 4250 
L 3040 4250 
z
M 5011 4250 
L 5011 3034 
L 3322 3034 
L 3322 4250 
L 5011 4250 
z
M 3040 2842 
L 3040 1888 
L 3098 1888 
C 3200 1888 3322 1971 3322 2029 
L 3322 2842 
L 5011 2842 
L 5011 2394 
L 5050 2394 
C 5146 2394 5293 2470 5299 2509 
L 5299 4186 
C 5421 4211 5530 4262 5574 4314 
L 5139 4646 
L 4947 4442 
L 3322 4442 
L 3322 5088 
C 3482 5107 3546 5171 3558 5261 
L 3040 5318 
L 3040 4442 
L 1402 4442 
L 1082 4602 
L 1082 2342 
L 1120 2342 
C 1242 2342 1363 2406 1363 2438 
L 1363 2842 
L 3040 2842 
z
M 2656 1779 
C 3021 1536 3482 1088 3603 723 
C 3968 506 4115 1338 2726 1843 
L 2656 1779 
z
M 4710 794 
L 4621 794 
C 4563 467 4506 166 4461 64 
C 4442 6 4422 -13 4333 -19 
C 4224 -32 3904 -32 3482 -32 
L 2605 -32 
C 2285 -32 2253 -13 2253 90 
L 2253 1382 
C 2362 1402 2426 1459 2432 1530 
L 1965 1594 
L 1965 51 
C 1965 -211 2061 -288 2586 -288 
L 3494 -288 
C 4698 -288 4877 -243 4877 -90 
C 4877 -32 4845 0 4723 38 
L 4710 794 
z
M 4576 1606 
C 5043 1267 5619 653 5741 154 
C 6157 -128 6349 915 4653 1670 
L 4576 1606 
z
" transform="scale(0.015625)"/>
       <path id="NotoSerifCJKjp-ExtraLight-5dde" d="M 1638 5120 
L 1638 2822 
C 1638 1555 1408 422 352 -358 
L 442 -454 
C 1664 326 1920 1536 1926 2816 
L 1926 4883 
C 2080 4909 2125 4973 2144 5062 
L 1638 5120 
z
M 5293 5114 
L 5293 -467 
L 5344 -467 
C 5453 -467 5574 -397 5574 -339 
L 5574 4870 
C 5728 4896 5779 4960 5798 5050 
L 5293 5114 
z
M 3411 5018 
L 3411 -384 
L 3469 -384 
C 3578 -384 3693 -314 3693 -256 
L 3693 4781 
C 3853 4806 3904 4870 3923 4954 
L 3411 5018 
z
M 1024 3667 
C 1094 2957 787 2349 422 2118 
C 320 2035 262 1926 326 1843 
C 403 1741 614 1811 768 1946 
C 1024 2163 1376 2714 1146 3674 
L 1024 3667 
z
M 2298 3507 
L 2208 3462 
C 2477 3091 2771 2470 2746 2003 
C 3072 1677 3405 2605 2298 3507 
z
M 3981 3546 
L 3898 3494 
C 4275 3123 4691 2483 4704 1971 
C 5069 1651 5363 2688 3981 3546 
z
" transform="scale(0.015625)"/>
       <path id="NotoSerifCJKjp-ExtraLight-5224" d="M 3315 4998 
C 3110 4467 2829 3878 2624 3507 
L 2726 3443 
C 3008 3763 3328 4250 3597 4678 
C 3718 4666 3795 4717 3827 4787 
L 3315 4998 
z
M 467 4909 
C 691 4557 992 3981 1030 3565 
C 1344 3277 1600 4051 557 4947 
L 467 4909 
z
M 3219 1818 
L 2195 1818 
L 2195 2976 
L 3635 2976 
C 3718 2976 3782 3008 3795 3078 
C 3622 3245 3347 3469 3347 3469 
L 3104 3168 
L 2195 3168 
L 2195 5075 
C 2355 5101 2400 5165 2419 5254 
L 1914 5312 
L 1914 3168 
L 435 3168 
L 486 2976 
L 1914 2976 
L 1914 1818 
L 230 1818 
L 275 1626 
L 1914 1626 
L 1914 -467 
L 1965 -467 
C 2074 -467 2195 -397 2195 -339 
L 2195 1626 
L 3789 1626 
C 3878 1626 3936 1658 3955 1728 
C 3770 1907 3475 2131 3475 2131 
L 3219 1818 
z
M 4179 4774 
L 4179 755 
L 4237 755 
C 4346 755 4461 832 4461 883 
L 4461 4538 
C 4621 4557 4678 4621 4698 4710 
L 4179 4774 
z
M 5498 5210 
L 5498 83 
C 5498 -26 5459 -70 5325 -70 
C 5197 -70 4493 -13 4493 -13 
L 4493 -115 
C 4787 -154 4966 -186 5069 -243 
C 5152 -301 5190 -384 5216 -474 
C 5722 -416 5779 -224 5779 51 
L 5779 4973 
C 5933 4992 5997 5056 6016 5146 
L 5498 5210 
z
" transform="scale(0.015625)"/>
       <path id="NotoSerifCJKjp-ExtraLight-5b98" d="M 1830 134 
L 1830 1280 
L 4851 1280 
L 4851 134 
L 1830 134 
z
M 4544 3392 
L 4544 2394 
L 1830 2394 
L 1830 3392 
L 4544 3392 
z
M 4787 1472 
L 1830 1472 
L 1830 2208 
L 4544 2208 
L 4544 1933 
L 4582 1933 
C 4678 1933 4826 2010 4832 2048 
L 4832 3347 
C 4934 3366 5037 3418 5075 3462 
L 4666 3770 
L 4486 3584 
L 1862 3584 
L 1542 3750 
L 1542 -486 
L 1594 -486 
C 1728 -486 1830 -410 1830 -371 
L 1830 -58 
L 4851 -58 
L 4851 -442 
L 4883 -442 
C 4979 -442 5126 -365 5133 -326 
L 5133 1216 
C 5261 1242 5363 1293 5408 1344 
L 4973 1677 
L 4787 1472 
z
M 5722 4736 
L 5491 4499 
L 3334 4499 
L 3334 5101 
C 3488 5120 3558 5184 3571 5274 
L 3053 5331 
L 3053 4499 
L 1152 4499 
C 1146 4608 1126 4730 1094 4858 
L 979 4858 
C 1011 4358 781 3904 506 3731 
C 403 3648 339 3539 397 3443 
C 474 3334 678 3379 806 3501 
C 966 3622 1146 3898 1158 4314 
L 5517 4314 
C 5446 4051 5338 3712 5261 3507 
L 5350 3456 
C 5536 3667 5773 4026 5894 4262 
C 6016 4269 6093 4282 6138 4326 
L 5722 4736 
z
" transform="scale(0.015625)"/>
      </defs>
      <use xlink:href="#NotoSerifCJKjp-ExtraLight-5fe0"/>
      <use xlink:href="#NotoSerifCJKjp-ExtraLight-5dde" x="99.999985"/>
      <use xlink:href="#NotoSerifCJKjp-ExtraLight-5224" x="199.999969"/>
      <use xlink:href="#NotoSerifCJKjp-ExtraLight-5b98" x="299.999954"/>
     </g>
    </g>
   </g>
   <g id="text_22">
    <g clip-path="url(#p5a4065428c)">
     <!-- 鄭益周 -->
     <g transform="translate(960.187074 541.32) scale(0.12 -0.12)">
      <defs>
       <path id="NotoSerifCJKjp-ExtraLight-912d" d="M 1018 2291 
L 3328 2291 
L 3328 1933 
L 1018 1933 
L 1018 2291 
z
M 1613 3482 
C 1581 3187 1466 2906 1101 2662 
L 1171 2566 
C 1709 2803 1862 3142 1901 3482 
L 2355 3482 
L 2355 3066 
C 2355 2874 2406 2790 2662 2790 
L 2899 2790 
C 3104 2790 3238 2797 3328 2822 
L 3328 2477 
L 1018 2477 
L 1018 3482 
L 1613 3482 
z
M 1914 3757 
L 1914 4109 
L 2355 4109 
L 2355 3667 
L 1914 3667 
L 1914 3757 
z
M 3328 3482 
L 3328 3059 
L 3315 3066 
L 3296 3072 
L 3238 3072 
C 3213 3059 3181 3053 3155 3053 
L 3098 3053 
C 3059 3046 2989 3046 2918 3046 
L 2733 3046 
C 2656 3046 2643 3072 2643 3136 
L 2643 3482 
L 3328 3482 
z
M 3315 1139 
L 2272 1139 
C 2298 1325 2310 1523 2317 1741 
L 3328 1741 
L 3328 1510 
L 3366 1510 
C 3488 1510 3616 1587 3616 1619 
L 3616 3462 
C 3731 3482 3802 3520 3846 3565 
L 3462 3859 
L 3309 3667 
L 2643 3667 
L 2643 4109 
L 3104 4109 
C 3187 4109 3245 4141 3258 4211 
C 3104 4371 2842 4570 2842 4570 
L 2624 4301 
L 1178 4301 
C 1267 4403 1344 4506 1408 4614 
C 1530 4595 1613 4640 1645 4698 
L 1165 4934 
C 979 4454 614 3994 237 3738 
L 314 3648 
C 614 3782 883 3981 1101 4218 
L 1126 4109 
L 1626 4109 
L 1626 3757 
L 1626 3667 
L 1094 3667 
L 736 3834 
L 736 1395 
L 774 1395 
C 922 1395 1018 1478 1018 1504 
L 1018 1741 
L 2003 1741 
C 1997 1523 1990 1325 1965 1139 
L 320 1139 
L 371 954 
L 1926 954 
C 1798 390 1414 -32 250 -358 
L 326 -467 
C 1350 -218 1843 102 2080 525 
C 2554 352 3110 45 3347 -243 
C 3757 -346 3667 429 2144 659 
C 2189 749 2214 851 2240 954 
L 3904 954 
C 3994 954 4045 986 4064 1056 
C 3878 1229 3578 1472 3578 1472 
L 3315 1139 
z
M 2893 5312 
L 2726 5075 
L 1536 5075 
L 1594 4883 
L 2848 4883 
C 3008 4410 3360 4032 3878 3763 
C 3910 3878 4026 3949 4134 3968 
L 4154 4032 
C 3610 4224 3181 4531 3014 4870 
C 3181 4883 3302 4915 3360 4986 
L 2893 5312 
z
M 5766 5126 
L 5542 4896 
L 4602 4896 
L 4243 5101 
L 4243 -467 
L 4282 -467 
C 4429 -467 4525 -384 4525 -352 
L 4525 4710 
L 5549 4710 
C 5363 4147 5075 3290 4890 2848 
C 5466 2278 5683 1741 5683 1203 
C 5683 890 5613 723 5478 653 
C 5421 621 5382 614 5306 614 
L 4704 614 
L 4704 499 
C 4877 486 5024 461 5082 422 
C 5139 384 5165 307 5165 205 
C 5786 243 6003 499 6003 1158 
C 6003 1709 5747 2272 5050 2874 
C 5299 3302 5702 4186 5894 4634 
C 6042 4640 6131 4653 6176 4704 
L 5766 5126 
z
" transform="scale(0.015625)"/>
       <path id="NotoSerifCJKjp-ExtraLight-76ca" d="M 1562 5242 
C 1882 4954 2246 4454 2291 4051 
C 2650 3770 2918 4666 1638 5293 
L 1562 5242 
z
M 301 1478 
C 1389 2016 2214 2803 2701 3770 
L 3744 3770 
C 4147 2810 4915 2029 5786 1619 
C 5824 1747 5958 1811 6118 1818 
L 6131 1888 
C 5254 2221 4326 2912 3910 3770 
L 5754 3770 
C 5843 3770 5901 3802 5920 3872 
C 5728 4045 5434 4282 5434 4282 
L 5171 3962 
L 3757 3962 
C 4070 4294 4390 4717 4576 5030 
C 4710 5011 4794 5056 4826 5126 
L 4314 5338 
C 4134 4922 3846 4365 3590 3962 
L 499 3962 
L 557 3770 
L 2310 3770 
C 1882 2906 1152 2125 237 1574 
L 301 1478 
z
M 1619 1696 
L 2445 1696 
L 2445 -102 
L 1619 -102 
L 1619 1696 
z
M 3597 1696 
L 3597 -102 
L 2733 -102 
L 2733 1696 
L 3597 1696 
z
M 4723 1696 
L 4723 -102 
L 3878 -102 
L 3878 1696 
L 4723 1696 
z
M 5357 -102 
L 5005 -102 
L 5005 1651 
C 5158 1670 5248 1702 5299 1773 
L 4832 2125 
L 4646 1888 
L 1696 1888 
L 1338 2054 
L 1338 -102 
L 301 -102 
L 358 -288 
L 5958 -288 
C 6048 -288 6106 -256 6125 -186 
C 5933 -13 5626 230 5626 230 
L 5357 -102 
z
" transform="scale(0.015625)"/>
       <path id="NotoSerifCJKjp-ExtraLight-5468" d="M 4141 2867 
L 3302 2867 
L 3302 3629 
L 4506 3629 
C 4595 3629 4653 3661 4672 3731 
C 4499 3891 4230 4090 4230 4090 
L 4000 3821 
L 3302 3821 
L 3302 4294 
C 3424 4314 3475 4365 3488 4442 
L 3021 4493 
L 3021 3821 
L 1805 3821 
L 1856 3629 
L 3021 3629 
L 3021 2867 
L 1651 2867 
L 1702 2682 
L 4685 2682 
C 4768 2682 4832 2714 4845 2778 
C 4666 2950 4390 3174 4390 3174 
L 4141 2867 
z
M 2381 819 
L 2381 1869 
L 4064 1869 
L 4064 819 
L 2381 819 
z
M 4352 1837 
C 4454 1856 4538 1901 4576 1933 
L 4186 2240 
L 4019 2054 
L 2413 2054 
L 2099 2214 
L 2099 186 
L 2144 186 
C 2266 186 2381 250 2381 282 
L 2381 634 
L 4064 634 
L 4064 301 
L 4102 301 
C 4198 301 4346 378 4352 416 
L 4352 1837 
z
M 5318 5126 
L 5139 4877 
L 1402 4877 
L 1056 5056 
L 1056 3014 
C 1056 1798 966 576 256 -390 
L 365 -467 
C 1254 506 1338 1901 1338 3021 
L 1338 4691 
L 5216 4691 
L 5216 102 
C 5216 -13 5178 -51 5043 -51 
C 4902 -51 4198 6 4198 6 
L 4198 -102 
C 4486 -134 4678 -173 4781 -230 
C 4864 -282 4902 -365 4922 -454 
C 5440 -403 5498 -205 5498 58 
L 5498 4589 
C 5658 4614 5786 4678 5843 4742 
L 5318 5126 
z
" transform="scale(0.015625)"/>
      </defs>
      <use xlink:href="#NotoSerifCJKjp-ExtraLight-912d"/>
      <use xlink:href="#NotoSerifCJKjp-ExtraLight-76ca" x="99.999985"/>
      <use xlink:href="#NotoSerifCJKjp-ExtraLight-5468" x="199.999969"/>
     </g>
    </g>
    <g clip-path="url(#p5a4065428c)">
     <!--   -->
     <g transform="translate(976.632699 555.96) scale(0.12 -0.12)">
      <defs>
       <path id="NotoSerifCJKjp-ExtraLight-20" transform="scale(0.015625)"/>
      </defs>
      <use xlink:href="#NotoSerifCJKjp-ExtraLight-20"/>
     </g>
    </g>
   </g>
   <g id="text_23">
    <g clip-path="url(#p5a4065428c)">
     <!-- 權光贊 -->
     <g transform="translate(1212.246804 541.32) scale(0.12 -0.12)">
      <defs>
       <path id="NotoSerifCJKjp-ExtraLight-5149" d="M 5165 4992 
C 4851 4371 4422 3699 4090 3302 
L 4186 3226 
C 4582 3584 5043 4128 5402 4659 
C 5536 4634 5619 4678 5651 4742 
L 5165 4992 
z
M 896 4909 
C 1248 4506 1709 3834 1805 3341 
C 2176 3046 2406 3968 986 4960 
L 896 4909 
z
M 6003 1197 
L 5907 1197 
C 5850 710 5779 218 5734 90 
C 5722 19 5702 -6 5619 -13 
C 5523 -26 5280 -32 4934 -32 
L 4250 -32 
C 3974 -32 3942 6 3942 128 
L 3942 2637 
L 3942 2714 
L 5926 2714 
C 6016 2714 6080 2746 6093 2810 
C 5894 3002 5574 3245 5574 3245 
L 5293 2899 
L 3322 2899 
L 3322 5094 
C 3475 5120 3546 5184 3558 5274 
L 3040 5331 
L 3040 2899 
L 288 2899 
L 346 2714 
L 2349 2714 
C 2253 1146 1805 288 224 -371 
L 262 -474 
C 2022 102 2541 992 2682 2714 
L 3654 2714 
L 3654 70 
C 3654 -198 3757 -288 4224 -288 
L 4960 -288 
C 5990 -288 6163 -243 6163 -90 
C 6163 -32 6138 6 6022 45 
L 6003 1197 
z
" transform="scale(0.015625)"/>
       <path id="NotoSerifCJKjp-ExtraLight-8d0a" d="M 2054 4045 
L 2054 3488 
C 1901 3450 1766 3424 1677 3411 
L 1920 3034 
C 1971 3053 2016 3098 2035 3174 
C 2522 3360 2886 3520 3136 3622 
L 3110 3725 
C 2848 3661 2579 3603 2342 3546 
L 2342 4045 
L 2957 4045 
C 3046 4045 3104 4077 3123 4147 
C 2944 4314 2669 4518 2669 4518 
L 2432 4237 
L 1933 4237 
L 1933 4653 
L 2854 4653 
C 2944 4653 3002 4685 3014 4755 
C 2848 4922 2598 5120 2598 5120 
L 2368 4845 
L 1933 4845 
L 1933 5114 
C 2067 5139 2125 5197 2138 5280 
L 1645 5331 
L 1645 4845 
L 1184 4845 
C 1242 4934 1286 5018 1325 5101 
C 1472 5094 1517 5126 1530 5197 
L 1043 5286 
C 966 4979 806 4570 621 4346 
L 710 4282 
C 838 4378 960 4512 1062 4653 
L 1645 4653 
L 1645 4237 
L 352 4237 
L 403 4045 
L 1280 4045 
C 1229 3654 1056 3245 320 2880 
L 416 2778 
C 1306 3123 1523 3584 1600 4045 
L 2054 4045 
z
M 467 -461 
C 1248 -358 2106 -102 2618 122 
C 2758 77 2854 83 2899 134 
L 2464 461 
C 2035 179 1171 -173 429 -346 
L 467 -461 
z
M 3648 250 
C 4493 70 5146 -173 5536 -416 
C 5958 -666 6477 115 3674 365 
L 3648 250 
z
M 1709 806 
L 1709 1350 
L 4762 1350 
L 4762 806 
L 1709 806 
z
M 4762 2074 
L 4762 1536 
L 1709 1536 
L 1709 2074 
L 4762 2074 
z
M 4762 2784 
L 4762 2266 
L 1709 2266 
L 1709 2784 
L 4762 2784 
z
M 5882 3878 
L 5798 3878 
C 5766 3693 5722 3514 5696 3456 
C 5677 3418 5658 3418 5619 3411 
L 5363 3411 
L 5101 3411 
C 4992 3411 4979 3418 4979 3482 
L 4979 4019 
L 4979 4045 
L 5856 4045 
C 5946 4045 6003 4077 6022 4147 
C 5850 4314 5581 4525 5581 4525 
L 5344 4237 
L 4614 4237 
L 4614 4653 
L 5562 4653 
C 5651 4653 5709 4685 5722 4755 
C 5555 4922 5299 5126 5299 5126 
L 5069 4845 
L 4614 4845 
L 4614 5114 
C 4755 5139 4813 5197 4826 5280 
L 4333 5331 
L 4333 4845 
L 3802 4845 
C 3853 4934 3891 5018 3930 5101 
C 4077 5101 4122 5133 4134 5203 
L 3642 5286 
C 3578 4986 3437 4570 3264 4346 
L 3360 4288 
C 3475 4384 3584 4512 3680 4653 
L 4333 4653 
L 4333 4237 
L 3123 4237 
L 3174 4045 
L 3949 4045 
C 3904 3718 3757 3405 3091 3123 
L 3187 3021 
C 4006 3283 4198 3654 4262 4045 
L 4698 4045 
L 4698 3424 
C 4698 3270 4730 3194 4870 3168 
L 4704 2976 
L 1741 2976 
L 1427 3142 
L 1427 314 
L 1478 314 
C 1594 314 1709 384 1709 416 
L 1709 621 
L 4762 621 
L 4762 378 
L 4800 378 
C 4890 378 5037 454 5043 493 
L 5043 2746 
C 5152 2765 5254 2810 5293 2854 
L 4890 3162 
C 4928 3155 4979 3155 5037 3155 
L 5370 3155 
C 5907 3155 6029 3206 6029 3334 
C 6029 3392 6003 3424 5901 3456 
L 5882 3878 
z
" transform="scale(0.015625)"/>
      </defs>
      <use xlink:href="#NotoSerifCJKjp-ExtraLight-6b0a"/>
      <use xlink:href="#NotoSerifCJKjp-ExtraLight-5149" x="99.999985"/>
      <use xlink:href="#NotoSerifCJKjp-ExtraLight-8d0a" x="199.999969"/>
     </g>
    </g>
    <g clip-path="url(#p5a4065428c)">
     <!--   -->
     <g transform="translate(1228.692429 555.96) scale(0.12 -0.12)">
      <use xlink:href="#NotoSerifCJKjp-ExtraLight-20"/>
     </g>
    </g>
   </g>
   <g id="text_24">
    <g clip-path="url(#p5a4065428c)">
     <!-- 權毅 -->
     <g transform="translate(1470.306534 541.32) scale(0.12 -0.12)">
      <defs>
       <path id="NotoSerifCJKjp-ExtraLight-6bc5" d="M 3322 2707 
C 3942 3219 3994 3962 3994 4474 
L 3994 4806 
L 4922 4806 
L 4922 3379 
C 4922 3194 4973 3110 5248 3110 
L 5523 3110 
C 5997 3110 6118 3162 6118 3283 
C 6118 3341 6093 3373 5990 3411 
L 5971 3949 
L 5888 3949 
C 5850 3725 5798 3475 5766 3411 
C 5754 3373 5734 3373 5709 3366 
L 5523 3366 
L 5306 3366 
C 5229 3366 5210 3379 5210 3443 
L 5210 4749 
C 5325 4762 5389 4794 5427 4838 
L 5050 5178 
L 4877 4992 
L 4051 4992 
L 3706 5171 
L 3706 4467 
C 3706 3923 3667 3322 3238 2790 
L 3322 2707 
z
M 486 4378 
L 3174 4378 
C 3258 4378 3315 4410 3334 4474 
C 3162 4646 2874 4870 2874 4870 
L 2630 4563 
L 1965 4563 
L 1965 5094 
C 2118 5114 2189 5178 2202 5267 
L 1683 5325 
L 1683 4563 
L 435 4563 
L 486 4378 
z
M 928 4314 
C 1082 4077 1229 3699 1210 3405 
C 1491 3130 1824 3782 1011 4352 
L 928 4314 
z
M 2797 2886 
C 2688 2675 2426 2298 2214 2029 
C 2086 2298 1907 2560 1670 2790 
C 1792 2886 1907 2995 2003 3110 
L 3232 3110 
C 3315 3110 3379 3142 3392 3206 
C 3213 3379 2938 3603 2938 3603 
L 2694 3296 
L 2221 3296 
C 2400 3539 2579 3821 2694 4045 
C 2822 4038 2906 4096 2925 4173 
L 2394 4320 
C 2317 4019 2176 3603 2061 3296 
L 288 3296 
L 339 3110 
L 1594 3110 
C 1267 2739 806 2413 288 2157 
L 358 2042 
C 813 2214 1229 2438 1574 2707 
C 1638 2624 1696 2541 1747 2458 
C 1427 1971 864 1536 326 1274 
L 378 1158 
C 947 1389 1523 1766 1907 2170 
C 1965 2054 2010 1933 2048 1811 
C 1651 1178 941 608 256 262 
L 314 154 
C 992 448 1683 928 2144 1427 
C 2266 794 2176 218 1978 -6 
C 1939 -64 1894 -64 1805 -64 
C 1658 -64 1197 -38 960 -26 
L 960 -141 
C 1171 -166 1408 -211 1478 -256 
C 1542 -301 1581 -358 1587 -461 
C 1920 -461 2086 -390 2202 -262 
C 2515 64 2630 973 2304 1818 
C 2650 1600 3040 1261 3174 973 
C 3552 781 3661 1581 2285 1952 
C 2554 2144 2829 2387 2989 2554 
C 3110 2522 3200 2573 3219 2618 
L 2797 2886 
z
M 5280 2349 
C 5126 1837 4890 1370 4570 960 
C 4250 1350 4013 1824 3859 2349 
L 5280 2349 
z
M 5498 2758 
L 5274 2541 
L 3341 2541 
L 3398 2349 
L 3712 2349 
C 3866 1741 4096 1216 4416 768 
C 4013 314 3488 -64 2822 -346 
L 2886 -448 
C 3597 -198 4147 147 4570 563 
C 4928 128 5382 -211 5939 -461 
C 5997 -333 6099 -262 6221 -256 
L 6234 -192 
C 5645 13 5146 333 4749 755 
C 5152 1210 5427 1741 5626 2323 
C 5760 2330 5830 2349 5882 2394 
L 5498 2758 
z
" transform="scale(0.015625)"/>
      </defs>
      <use xlink:href="#NotoSerifCJKjp-ExtraLight-6b0a"/>
      <use xlink:href="#NotoSerifCJKjp-ExtraLight-6bc5" x="99.999985"/>
     </g>
    </g>
    <g clip-path="url(#p5a4065428c)">
     <!--   -->
     <g transform="translate(1480.752159 555.96) scale(0.12 -0.12)">
      <use xlink:href="#NotoSerifCJKjp-ExtraLight-20"/>
     </g>
    </g>
   </g>
   <g id="text_25">
    <g clip-path="url(#p5a4065428c)">
     <!-- 權泂 -->
     <g transform="translate(1974.425994 181.32) scale(0.12 -0.12)">
      <defs>
       <path id="NotoSerifCJKjp-ExtraLight-6cc2" d="M 486 5210 
C 781 5030 1146 4691 1248 4410 
C 1632 4205 1798 5011 550 5274 
L 486 5210 
z
M 237 3565 
C 531 3411 890 3110 1005 2848 
C 1382 2662 1517 3443 294 3629 
L 237 3565 
z
M 1984 4166 
C 870 1600 870 1600 762 1382 
C 704 1254 685 1248 621 1248 
L 333 1248 
L 333 1101 
C 474 1088 563 1082 646 1018 
C 781 928 819 467 742 -179 
C 742 -371 787 -499 890 -499 
C 1069 -499 1152 -352 1165 -96 
C 1190 410 1050 730 1043 992 
C 1043 1146 1088 1331 1139 1523 
C 1235 1818 1824 3328 2112 4134 
L 1984 4166 
z
M 3501 1568 
L 3501 3405 
L 4518 3405 
L 4518 1568 
L 3501 1568 
z
M 4806 3379 
C 4896 3392 4986 3437 5024 3482 
L 4640 3776 
L 4467 3597 
L 3578 3597 
L 3213 3763 
L 3213 774 
L 3251 774 
C 3398 774 3501 858 3501 890 
L 3501 1382 
L 4518 1382 
L 4518 941 
L 4557 941 
C 4653 941 4800 1024 4806 1062 
L 4806 3379 
z
M 5594 5165 
L 5427 4941 
L 2554 4941 
L 2240 5114 
L 2240 -474 
L 2298 -474 
C 2426 -474 2522 -397 2522 -352 
L 2522 4755 
L 5491 4755 
L 5491 64 
C 5491 -38 5459 -70 5344 -70 
C 5229 -70 4634 -26 4634 -26 
L 4634 -128 
C 4883 -160 5043 -192 5126 -243 
C 5210 -294 5242 -378 5254 -461 
C 5722 -410 5773 -230 5773 32 
L 5773 4691 
C 5901 4710 6016 4768 6061 4819 
L 5594 5165 
z
" transform="scale(0.015625)"/>
      </defs>
      <use xlink:href="#NotoSerifCJKjp-ExtraLight-6b0a"/>
      <use xlink:href="#NotoSerifCJKjp-ExtraLight-6cc2" x="99.999985"/>
     </g>
    </g>
    <g clip-path="url(#p5a4065428c)">
     <!--   -->
     <g transform="translate(1984.871619 195.96) scale(0.12 -0.12)">
      <use xlink:href="#NotoSerifCJKjp-ExtraLight-20"/>
     </g>
    </g>
   </g>
   <g id="text_26">
    <g clip-path="url(#p5a4065428c)">
     <!-- 金惟情 -->
     <g transform="translate(1968.425994 541.32) scale(0.12 -0.12)">
      <defs>
       <path id="NotoSerifCJKjp-ExtraLight-91d1" d="M 5242 -102 
L 3322 -102 
L 3322 1818 
L 5606 1818 
C 5696 1818 5747 1850 5766 1920 
C 5574 2093 5274 2323 5274 2323 
L 4998 2003 
L 3322 2003 
L 3322 3053 
L 4570 3053 
C 4659 3053 4717 3085 4736 3155 
C 4544 3322 4256 3533 4256 3533 
L 4006 3238 
L 1568 3238 
L 1619 3053 
L 3040 3053 
L 3040 2003 
L 678 2003 
L 736 1818 
L 3040 1818 
L 3040 -102 
L 384 -102 
L 442 -288 
L 5856 -288 
C 5946 -288 6010 -256 6029 -186 
C 5824 -6 5510 243 5510 243 
L 5242 -102 
z
M 1427 1510 
C 1683 1178 1990 634 2029 224 
C 2355 -70 2643 749 1517 1549 
L 1427 1510 
z
M 3955 96 
C 4243 390 4576 845 4845 1274 
C 4966 1254 5043 1306 5075 1370 
L 4595 1581 
C 4378 1069 4083 506 3853 160 
L 3955 96 
z
M 3021 5389 
C 2643 4499 1280 3258 218 2701 
L 262 2598 
C 1434 3162 2656 4198 3258 5062 
C 3757 4205 4781 3334 5850 2810 
C 5888 2912 6016 2989 6150 3002 
L 6163 3098 
C 4992 3603 3962 4358 3386 5146 
C 3526 5152 3610 5184 3616 5254 
L 3021 5389 
z
" transform="scale(0.015625)"/>
       <path id="NotoSerifCJKjp-ExtraLight-60df" d="M 736 4122 
C 736 3654 550 3136 365 2925 
C 269 2816 230 2688 301 2598 
C 397 2496 595 2586 691 2733 
C 845 2950 986 3462 858 4115 
L 736 4122 
z
M 1274 5338 
L 1274 -474 
L 1331 -474 
C 1440 -474 1555 -397 1555 -339 
L 1555 5101 
C 1715 5126 1766 5190 1786 5280 
L 1274 5338 
z
M 1702 4282 
C 1850 4045 2016 3661 2022 3373 
C 2317 3104 2643 3744 1786 4320 
L 1702 4282 
z
M 2906 1306 
L 4102 1306 
L 4102 102 
L 2906 102 
L 2906 1306 
z
M 2918 3814 
L 4102 3814 
L 4102 2752 
L 2906 2752 
L 2906 3789 
L 2918 3814 
z
M 4102 1498 
L 2906 1498 
L 2906 2560 
L 4102 2560 
L 4102 1498 
z
M 5389 102 
L 4390 102 
L 4390 1306 
L 5754 1306 
C 5843 1306 5901 1338 5920 1408 
C 5728 1581 5434 1818 5434 1818 
L 5178 1498 
L 4390 1498 
L 4390 2560 
L 5728 2560 
C 5818 2560 5882 2592 5894 2662 
C 5715 2835 5408 3072 5408 3072 
L 5152 2752 
L 4390 2752 
L 4390 3814 
L 5914 3814 
C 6003 3814 6061 3846 6080 3917 
C 5888 4090 5594 4326 5594 4326 
L 5331 4006 
L 4275 4006 
C 4448 4301 4666 4704 4819 4998 
C 4947 4992 5030 5043 5056 5120 
L 4538 5267 
C 4416 4883 4230 4352 4096 4006 
L 3014 4006 
C 3174 4346 3322 4704 3443 5062 
C 3584 5056 3654 5120 3680 5190 
L 3174 5350 
C 2854 4211 2336 3078 1818 2349 
L 1920 2291 
C 2170 2566 2413 2912 2637 3290 
L 2637 -461 
L 2675 -461 
C 2803 -461 2906 -378 2906 -352 
L 2906 -90 
L 5978 -90 
C 6067 -90 6125 -58 6138 13 
C 5952 192 5658 422 5658 422 
L 5389 102 
z
" transform="scale(0.015625)"/>
       <path id="NotoSerifCJKjp-ExtraLight-60c5" d="M 698 4186 
C 698 3718 512 3194 326 2989 
C 237 2880 192 2752 262 2662 
C 358 2560 557 2650 659 2790 
C 806 3014 947 3526 819 4179 
L 698 4186 
z
M 1235 5338 
L 1235 -474 
L 1293 -474 
C 1402 -474 1517 -397 1517 -339 
L 1517 5101 
C 1677 5126 1728 5190 1747 5280 
L 1235 5338 
z
M 1664 4397 
C 1818 4154 1984 3757 1997 3462 
C 2291 3187 2618 3840 1747 4435 
L 1664 4397 
z
M 2989 998 
L 2989 1594 
L 5197 1594 
L 5197 998 
L 2989 998 
z
M 5197 2368 
L 5197 1786 
L 2989 1786 
L 2989 2368 
L 5197 2368 
z
M 5133 2560 
L 3021 2560 
L 2707 2726 
L 2707 -461 
L 2758 -461 
C 2874 -461 2989 -384 2989 -352 
L 2989 806 
L 5197 806 
L 5197 64 
C 5197 -32 5171 -64 5069 -64 
C 4954 -64 4461 -19 4461 -19 
L 4461 -128 
C 4678 -154 4813 -186 4883 -237 
C 4954 -288 4986 -371 4998 -454 
C 5427 -410 5478 -237 5478 19 
L 5478 2310 
C 5606 2336 5715 2381 5754 2432 
L 5299 2771 
L 5133 2560 
z
M 5485 3245 
L 4186 3245 
L 4186 3808 
L 5709 3808 
C 5792 3808 5850 3840 5869 3910 
C 5696 4077 5414 4301 5414 4301 
L 5178 4000 
L 4186 4000 
L 4186 4518 
L 5907 4518 
C 5997 4518 6054 4550 6074 4621 
C 5894 4794 5613 5018 5613 5018 
L 5357 4710 
L 4186 4710 
L 4186 5101 
C 4326 5126 4384 5184 4397 5267 
L 3904 5318 
L 3904 4710 
L 2253 4710 
L 2304 4518 
L 3904 4518 
L 3904 4000 
L 2534 4000 
L 2586 3808 
L 3904 3808 
L 3904 3245 
L 2080 3245 
L 2131 3059 
L 6035 3059 
C 6125 3059 6176 3091 6195 3162 
C 6016 3328 5728 3558 5728 3558 
L 5485 3245 
z
" transform="scale(0.015625)"/>
      </defs>
      <use xlink:href="#NotoSerifCJKjp-ExtraLight-91d1"/>
      <use xlink:href="#NotoSerifCJKjp-ExtraLight-60df" x="99.999985"/>
      <use xlink:href="#NotoSerifCJKjp-ExtraLight-60c5" x="199.999969"/>
     </g>
    </g>
    <g clip-path="url(#p5a4065428c)">
     <!--  -->
     <g transform="translate(1986.425994 555.96) scale(0.12 -0.12)"/>
    </g>
   </g>
   <g id="text_27">
    <g clip-path="url(#p5a4065428c)">
     <!-- 權珠慶 -->
     <g transform="translate(2220.485725 541.32) scale(0.12 -0.12)">
      <defs>
       <path id="NotoSerifCJKjp-ExtraLight-73e0" d="M 2522 1536 
C 2150 1395 1792 1261 1459 1133 
L 1459 2848 
L 2310 2848 
C 2387 2848 2445 2880 2464 2950 
C 2298 3123 2022 3347 2022 3347 
L 1786 3040 
L 1459 3040 
L 1459 4570 
L 2374 4570 
C 2464 4570 2528 4602 2541 4672 
C 2355 4851 2054 5082 2054 5082 
L 1798 4762 
L 307 4762 
L 358 4570 
L 1171 4570 
L 1171 3040 
L 326 3040 
L 378 2848 
L 1171 2848 
L 1171 1030 
C 755 877 416 755 224 704 
L 378 307 
C 435 333 486 397 499 467 
C 1350 851 2035 1197 2554 1440 
L 2522 1536 
z
M 5920 2477 
C 6010 2477 6074 2509 6086 2579 
C 5901 2758 5600 2989 5600 2989 
L 5338 2669 
L 4346 2669 
L 4346 2675 
L 4333 2669 
L 4301 2669 
L 4301 3930 
L 5747 3930 
C 5837 3930 5894 3962 5914 4032 
C 5722 4205 5427 4442 5427 4442 
L 5171 4115 
L 4301 4115 
L 4301 5082 
C 4461 5107 4506 5171 4525 5261 
L 4019 5318 
L 4019 4115 
L 3142 4115 
C 3238 4333 3322 4570 3386 4806 
C 3520 4800 3590 4858 3616 4928 
L 3117 5075 
C 2982 4333 2720 3616 2406 3149 
L 2509 3085 
C 2714 3309 2899 3603 3059 3930 
L 4019 3930 
L 4019 2669 
L 2291 2669 
L 2342 2477 
L 3744 2477 
C 3341 1581 2656 742 1792 160 
L 1869 51 
C 2822 621 3565 1402 4019 2330 
L 4019 -461 
L 4070 -461 
C 4179 -461 4301 -390 4301 -333 
L 4301 2362 
C 4653 1510 5267 678 5939 186 
C 5978 301 6080 378 6208 390 
L 6227 461 
C 5536 890 4781 1683 4422 2477 
L 5920 2477 
z
" transform="scale(0.015625)"/>
       <path id="NotoSerifCJKjp-ExtraLight-6176" d="M 2259 4493 
L 2259 4006 
L 1152 4006 
L 1152 4493 
L 2259 4493 
z
M 3731 4006 
L 2541 4006 
L 2541 4493 
L 3731 4493 
L 3731 4006 
z
M 5158 3814 
L 5158 3264 
L 4019 3264 
L 4019 3814 
L 5158 3814 
z
M 2541 3814 
L 3731 3814 
L 3731 3264 
L 2541 3264 
L 2541 3814 
z
M 1152 3814 
L 2259 3814 
L 2259 3264 
L 1152 3264 
L 1152 3814 
z
M 5472 2483 
C 5395 2336 5306 2170 5248 2074 
L 5344 2029 
C 5491 2131 5734 2317 5869 2438 
C 5990 2445 6067 2458 6112 2502 
L 5709 2893 
L 5491 2675 
L 1152 2675 
C 1152 2784 1152 2893 1152 3002 
L 1152 3078 
L 5158 3078 
L 5158 2886 
L 5197 2886 
C 5293 2886 5434 2963 5440 3002 
L 5440 3770 
C 5549 3789 5651 3840 5690 3885 
L 5280 4192 
L 5101 4006 
L 4019 4006 
L 4019 4493 
L 5850 4493 
C 5946 4493 6003 4525 6022 4595 
C 5824 4781 5504 5024 5504 5024 
L 5235 4685 
L 3430 4685 
L 3430 5114 
C 3571 5139 3622 5197 3635 5280 
L 3149 5331 
L 3149 4685 
L 1216 4685 
L 870 4864 
L 870 2995 
C 870 1830 813 595 237 -403 
L 339 -474 
C 986 371 1120 1504 1146 2483 
L 5472 2483 
z
M 4397 2253 
C 4678 2074 5050 1741 5178 1491 
C 5504 1318 5638 1984 4461 2317 
L 4397 2253 
z
M 2854 2342 
C 3123 2253 3450 2054 3603 1901 
C 3917 1792 3974 2387 2906 2419 
L 2854 2342 
z
M 1818 2323 
C 1786 2029 1542 1766 1331 1677 
C 1235 1613 1171 1517 1222 1434 
C 1280 1338 1459 1370 1574 1446 
C 1766 1562 1997 1850 1939 2317 
L 1818 2323 
z
M 2598 890 
L 4211 890 
C 3987 672 3712 486 3398 333 
C 3059 467 2778 646 2554 858 
L 2598 890 
z
M 4557 1280 
L 4314 1082 
L 2848 1082 
C 2925 1146 3002 1210 3066 1274 
C 3187 1261 3264 1293 3302 1363 
L 3027 1491 
L 3437 1491 
C 4358 1491 4499 1530 4499 1664 
C 4499 1722 4461 1747 4352 1779 
L 4333 2138 
L 4256 2138 
C 4218 1978 4173 1837 4134 1779 
C 4109 1747 4090 1741 4032 1734 
C 3962 1728 3718 1728 3437 1728 
L 2803 1728 
C 2586 1728 2566 1741 2566 1811 
L 2566 2163 
C 2662 2176 2726 2234 2739 2304 
L 2298 2362 
L 2298 1773 
C 2298 1549 2355 1491 2771 1491 
L 2854 1491 
C 2483 1050 1869 557 1120 256 
L 1197 173 
C 1677 333 2093 550 2438 781 
C 2637 557 2880 371 3155 218 
C 2509 -58 1715 -243 883 -352 
L 922 -474 
C 1882 -384 2726 -211 3424 83 
C 4083 -218 4902 -371 5843 -467 
C 5869 -333 5965 -250 6093 -230 
L 6093 -166 
C 5203 -122 4378 -6 3706 211 
C 4064 390 4371 608 4621 870 
C 4787 870 4864 890 4909 934 
L 4557 1280 
z
" transform="scale(0.015625)"/>
      </defs>
      <use xlink:href="#NotoSerifCJKjp-ExtraLight-6b0a"/>
      <use xlink:href="#NotoSerifCJKjp-ExtraLight-73e0" x="99.999985"/>
      <use xlink:href="#NotoSerifCJKjp-ExtraLight-6176" x="199.999969"/>
     </g>
    </g>
    <g clip-path="url(#p5a4065428c)">
     <!--   -->
     <g transform="translate(2236.93135 555.96) scale(0.12 -0.12)">
      <use xlink:href="#NotoSerifCJKjp-ExtraLight-20"/>
     </g>
    </g>
   </g>
  </g>
 </g>
 <defs>
  <clipPath id="p5a4065428c">
   <rect x="360" y="129.6" width="2232" height="831.6"/>
  </clipPath>
 </defs>
</svg>
