<?xml version="1.0" encoding="utf-8" standalone="no"?>
<!DOCTYPE svg PUBLIC "-//W3C//DTD SVG 1.1//EN"
  "http://www.w3.org/Graphics/SVG/1.1/DTD/svg11.dtd">
<svg xmlns:xlink="http://www.w3.org/1999/xlink" width="2880pt" height="1080pt" viewBox="0 0 2880 1080" xmlns="http://www.w3.org/2000/svg" version="1.1">
 <metadata>
  <rdf:RDF xmlns:dc="http://purl.org/dc/elements/1.1/" xmlns:cc="http://creativecommons.org/ns#" xmlns:rdf="http://www.w3.org/1999/02/22-rdf-syntax-ns#">
   <cc:Work>
    <dc:type rdf:resource="http://purl.org/dc/dcmitype/StillImage"/>
    <dc:date>2025-06-20T00:21:59.457201</dc:date>
    <dc:format>image/svg+xml</dc:format>
    <dc:creator>
     <cc:Agent>
      <dc:title>Matplotlib v3.9.4, https://matplotlib.org/</dc:title>
     </cc:Agent>
    </dc:creator>
   </cc:Work>
  </rdf:RDF>
 </metadata>
 <defs>
  <style type="text/css">*{stroke-linejoin: round; stroke-linecap: butt}</style>
 </defs>
 <g id="figure_1">
  <g id="patch_1">
   <path d="M 0 1080 
L 2880 1080 
L 2880 0 
L 0 0 
z
" style="fill: #ffffff"/>
  </g>
  <g id="axes_1">
   <g id="patch_2">
    <path d="M 644.070721 734.713325 
Q 543.577798 805.067624 476.51019 905.102274 
" clip-path="url(#p8a92f5a421)" style="fill: none; stroke: #000000; stroke-width: 2; stroke-linecap: round"/>
    <path d="M 480.39887 902.893616 
L 476.51019 905.102274 
L 477.076472 900.666135 
z
" clip-path="url(#p8a92f5a421)" style="stroke: #000000; stroke-width: 2; stroke-linecap: round"/>
   </g>
   <g id="patch_3">
    <path d="M 655.977633 737.016256 
Q 724.297848 838.908648 822.966337 907.978612 
" clip-path="url(#p8a92f5a421)" style="fill: none; stroke: #000000; stroke-width: 2; stroke-linecap: round"/>
    <path d="M 820.836388 904.04627 
L 822.966337 907.978612 
L 818.542494 907.323166 
z
" clip-path="url(#p8a92f5a421)" style="stroke: #000000; stroke-width: 2; stroke-linecap: round"/>
   </g>
   <g id="patch_4">
    <path d="M 1741.314029 363.389275 
Q 1551.249431 418.544668 1396.802585 538.680943 
" clip-path="url(#p8a92f5a421)" style="fill: none; stroke: #000000; stroke-width: 2; stroke-linecap: round"/>
    <path d="M 1401.187836 537.803692 
L 1396.802585 538.680943 
L 1398.731935 534.646391 
z
" clip-path="url(#p8a92f5a421)" style="stroke: #000000; stroke-width: 2; stroke-linecap: round"/>
   </g>
   <g id="patch_5">
    <path d="M 1756.452144 366.353492 
Q 1912.663635 487.863321 2100.580423 542.396188 
" clip-path="url(#p8a92f5a421)" style="fill: none; stroke: #000000; stroke-width: 2; stroke-linecap: round"/>
    <path d="M 2097.296306 539.360636 
L 2100.580423 542.396188 
L 2096.181511 543.20215 
z
" clip-path="url(#p8a92f5a421)" style="stroke: #000000; stroke-width: 2; stroke-linecap: round"/>
   </g>
   <g id="patch_6">
    <path d="M 1379.877356 547.714008 
Q 1186.276863 602.232767 1028.350037 723.137826 
" clip-path="url(#p8a92f5a421)" style="fill: none; stroke: #000000; stroke-width: 2; stroke-linecap: round"/>
    <path d="M 1032.741906 722.294329 
L 1028.350037 723.137826 
L 1030.310361 719.118233 
z
" clip-path="url(#p8a92f5a421)" style="stroke: #000000; stroke-width: 2; stroke-linecap: round"/>
   </g>
   <g id="patch_7">
    <path d="M 1379.57329 545.83196 
Q 1001.680141 565.522467 661.058691 725.148982 
" clip-path="url(#p8a92f5a421)" style="fill: none; stroke: #000000; stroke-width: 2; stroke-linecap: round"/>
    <path d="M 665.529384 725.262592 
L 661.058691 725.148982 
L 663.831995 721.640594 
z
" clip-path="url(#p8a92f5a421)" style="stroke: #000000; stroke-width: 2; stroke-linecap: round"/>
   </g>
   <g id="patch_8">
    <path d="M 1386.598951 553.905428 
Q 1371.405119 637.595372 1386.199612 719.085212 
" clip-path="url(#p8a92f5a421)" style="fill: none; stroke: #000000; stroke-width: 2; stroke-linecap: round"/>
    <path d="M 1387.452924 714.792286 
L 1386.199612 719.085212 
L 1383.517259 715.506807 
z
" clip-path="url(#p8a92f5a421)" style="stroke: #000000; stroke-width: 2; stroke-linecap: round"/>
   </g>
   <g id="patch_9">
    <path d="M 1395.034476 550.743736 
Q 1551.245968 672.253565 1739.162756 726.786432 
" clip-path="url(#p8a92f5a421)" style="fill: none; stroke: #000000; stroke-width: 2; stroke-linecap: round"/>
    <path d="M 1735.878639 723.75088 
L 1739.162756 726.786432 
L 1734.763844 727.592394 
z
" clip-path="url(#p8a92f5a421)" style="stroke: #000000; stroke-width: 2; stroke-linecap: round"/>
   </g>
   <g id="patch_10">
    <path d="M 2109.434285 553.905428 
Q 2094.240453 637.595372 2109.034947 719.085212 
" clip-path="url(#p8a92f5a421)" style="fill: none; stroke: #000000; stroke-width: 2; stroke-linecap: round"/>
    <path d="M 2110.288259 714.792286 
L 2109.034947 719.085212 
L 2106.352593 715.506807 
z
" clip-path="url(#p8a92f5a421)" style="stroke: #000000; stroke-width: 2; stroke-linecap: round"/>
   </g>
   <g id="patch_11">
    <path d="M 2117.869811 550.743736 
Q 2274.081302 672.253565 2461.99809 726.786432 
" clip-path="url(#p8a92f5a421)" style="fill: none; stroke: #000000; stroke-width: 2; stroke-linecap: round"/>
    <path d="M 2458.713974 723.75088 
L 2461.99809 726.786432 
L 2457.599178 727.592394 
z
" clip-path="url(#p8a92f5a421)" style="stroke: #000000; stroke-width: 2; stroke-linecap: round"/>
   </g>
   <g id="patch_12">
    <path d="M 2120.064216 185.12494 
Q 2104.870385 268.814884 2119.664878 350.304724 
" clip-path="url(#p8a92f5a421)" style="fill: none; stroke: #000000; stroke-width: 2; stroke-linecap: round"/>
    <path d="M 2120.91819 346.011799 
L 2119.664878 350.304724 
L 2116.982525 346.726319 
z
" clip-path="url(#p8a92f5a421)" style="stroke: #000000; stroke-width: 2; stroke-linecap: round"/>
   </g>
   <g id="patch_13">
    <path d="M 1748.016618 185.12494 
Q 1732.822786 268.814884 1747.617279 350.304724 
" clip-path="url(#p8a92f5a421)" style="fill: none; stroke: #000000; stroke-width: 2; stroke-linecap: round"/>
    <path d="M 1748.870591 346.011799 
L 1747.617279 350.304724 
L 1744.934926 346.726319 
z
" clip-path="url(#p8a92f5a421)" style="stroke: #000000; stroke-width: 2; stroke-linecap: round"/>
   </g>
   <g id="text_1">
    <g id="patch_14">
     <path d="M 565.71956 831.24066 
L 570.196121 826.672901 
Q 572.71591 824.10178 570.144788 821.581991 
L 561.060158 812.678739 
Q 558.489036 810.158951 555.969248 812.730072 
L 551.492687 817.29783 
Q 548.972898 819.868952 551.54402 822.388741 
L 560.62865 831.291993 
Q 563.199771 833.811781 565.71956 831.24066 
z
" clip-path="url(#p8a92f5a421)" style="fill: #ffffff; stroke: #ffffff; stroke-linejoin: miter"/>
    </g>
    <g clip-path="url(#p8a92f5a421)">
     <!-- 1 -->
     <g transform="translate(560.920133 826.537055) rotate(-45.577712) scale(0.12 -0.12)">
      <defs>
       <path id="NotoSerifCJKjp-ExtraLight-31" d="M 1997 250 
C 1990 659 1984 1062 1984 1459 
L 1984 3616 
L 2010 4614 
L 1914 4691 
L 614 4346 
L 614 4160 
L 1600 4333 
L 1600 1459 
C 1600 1062 1594 653 1587 250 
L 544 173 
L 544 0 
L 3002 0 
L 3002 173 
L 1997 250 
z
" transform="scale(0.015625)"/>
      </defs>
      <use xlink:href="#NotoSerifCJKjp-ExtraLight-31"/>
     </g>
    </g>
   </g>
   <g id="text_2">
    <g id="patch_15">
     <path d="M 732.208791 826.673268 
L 736.685531 831.240851 
Q 739.20542 833.811874 741.776443 831.291984 
L 750.860724 822.388376 
Q 753.431747 819.868487 750.911858 817.297464 
L 746.435117 812.729881 
Q 743.915228 810.158858 741.344205 812.678747 
L 732.259924 821.582356 
Q 729.688901 824.102245 732.208791 826.673268 
z
" clip-path="url(#p8a92f5a421)" style="fill: #ffffff; stroke: #ffffff; stroke-linejoin: miter"/>
    </g>
    <g clip-path="url(#p8a92f5a421)">
     <!-- 2 -->
     <g transform="translate(737.008033 821.969475) rotate(-314.424534) scale(0.12 -0.12)">
      <defs>
       <path id="NotoSerifCJKjp-ExtraLight-32" d="M 646 358 
C 1069 838 1472 1299 1645 1491 
C 2560 2515 2886 2970 2886 3520 
C 2886 4250 2458 4717 1638 4717 
C 1024 4717 486 4397 326 3821 
C 371 3725 454 3667 550 3667 
C 672 3667 755 3750 819 3949 
L 1005 4422 
C 1197 4499 1363 4525 1542 4525 
C 2144 4525 2483 4096 2483 3514 
C 2483 2995 2214 2547 1536 1715 
C 1222 1344 787 806 339 275 
L 339 0 
L 3104 0 
L 3104 358 
L 646 358 
z
" transform="scale(0.015625)"/>
      </defs>
      <use xlink:href="#NotoSerifCJKjp-ExtraLight-32"/>
     </g>
    </g>
   </g>
   <g id="text_3">
    <g id="patch_16">
     <path d="M 1570.608291 463.530201 
L 1576.305311 460.623661 
Q 1579.512077 458.987614 1577.87603 455.780848 
L 1572.09533 444.450274 
Q 1570.459282 441.243508 1567.252516 442.879555 
L 1561.555496 445.786095 
Q 1558.34873 447.422142 1559.984777 450.628909 
L 1565.765477 461.959482 
Q 1567.401525 465.166249 1570.608291 463.530201 
z
" clip-path="url(#p8a92f5a421)" style="fill: #ffffff; stroke: #ffffff; stroke-linejoin: miter"/>
    </g>
    <g clip-path="url(#p8a92f5a421)">
     <!-- 1 -->
     <g transform="translate(1567.554336 457.544238) rotate(-27.03004) scale(0.12 -0.12)">
      <use xlink:href="#NotoSerifCJKjp-ExtraLight-31"/>
     </g>
    </g>
   </g>
   <g id="text_4">
    <g id="patch_17">
     <path d="M 1922.973163 460.623661 
L 1928.670183 463.530201 
Q 1931.876949 465.166249 1933.512997 461.959482 
L 1939.293697 450.628909 
Q 1940.929745 447.422142 1937.722978 445.786095 
L 1932.025958 442.879555 
Q 1928.819192 441.243508 1927.183144 444.450274 
L 1921.402444 455.780848 
Q 1919.766397 458.987614 1922.973163 460.623661 
z
" clip-path="url(#p8a92f5a421)" style="fill: #ffffff; stroke: #ffffff; stroke-linejoin: miter"/>
    </g>
    <g clip-path="url(#p8a92f5a421)">
     <!-- 2 -->
     <g transform="translate(1926.027118 454.637697) rotate(-332.96996) scale(0.12 -0.12)">
      <use xlink:href="#NotoSerifCJKjp-ExtraLight-32"/>
     </g>
    </g>
   </g>
   <g id="text_5">
    <g id="patch_18">
     <path d="M 1205.566562 647.933244 
L 1211.286125 645.071319 
Q 1214.50558 643.460385 1212.894646 640.240929 
L 1207.202679 628.865521 
Q 1205.591745 625.646066 1202.37229 627.257 
L 1196.652727 630.118925 
Q 1193.433272 631.729859 1195.044206 634.949315 
L 1200.736173 646.324723 
Q 1202.347107 649.544178 1205.566562 647.933244 
z
" clip-path="url(#p8a92f5a421)" style="fill: #ffffff; stroke: #ffffff; stroke-linejoin: miter"/>
    </g>
    <g clip-path="url(#p8a92f5a421)">
     <!-- 4 -->
     <g transform="translate(1202.559485 641.923594) rotate(-26.582226) scale(0.12 -0.12)">
      <defs>
       <path id="NotoSerifCJKjp-ExtraLight-34" d="M 480 1805 
L 2163 4224 
L 2163 1805 
L 480 1805 
z
M 3309 1805 
L 2528 1805 
L 2528 4685 
L 2272 4685 
L 211 1747 
L 211 1510 
L 2163 1510 
L 2163 0 
L 2528 0 
L 2528 1510 
L 3309 1510 
L 3309 1805 
z
" transform="scale(0.015625)"/>
      </defs>
      <use xlink:href="#NotoSerifCJKjp-ExtraLight-34"/>
     </g>
    </g>
   </g>
   <g id="text_6">
    <g id="patch_19">
     <path d="M 1019.02531 648.033443 
L 1025.229711 646.48121 
Q 1028.722074 645.607481 1027.848345 642.115118 
L 1024.761172 629.775436 
Q 1023.887444 626.283073 1020.395081 627.156801 
L 1014.19068 628.709034 
Q 1010.698317 629.582763 1011.572045 633.075126 
L 1014.659219 645.414808 
Q 1015.532947 648.907171 1019.02531 648.033443 
z
" clip-path="url(#p8a92f5a421)" style="fill: #ffffff; stroke: #ffffff; stroke-linejoin: miter"/>
    </g>
    <g clip-path="url(#p8a92f5a421)">
     <!-- 3 -->
     <g transform="translate(1017.39435 641.514365) rotate(-14.046088) scale(0.12 -0.12)">
      <defs>
       <path id="NotoSerifCJKjp-ExtraLight-33" d="M 1062 4435 
C 1242 4499 1408 4525 1594 4525 
C 2176 4525 2496 4166 2496 3584 
C 2496 2918 2035 2541 1402 2541 
L 1126 2541 
L 1126 2330 
L 1434 2330 
C 2234 2330 2637 1920 2637 1229 
C 2637 557 2221 102 1498 102 
C 1286 102 1107 141 941 211 
L 787 659 
C 730 845 659 928 531 928 
C 422 928 339 864 301 755 
C 461 186 928 -90 1587 -90 
C 2426 -90 3040 410 3040 1203 
C 3040 1869 2656 2330 1901 2445 
C 2541 2605 2899 3059 2899 3597 
C 2899 4262 2426 4717 1664 4717 
C 1107 4717 570 4480 429 3885 
C 461 3776 544 3731 640 3731 
C 774 3731 845 3795 909 3981 
L 1062 4435 
z
" transform="scale(0.015625)"/>
      </defs>
      <use xlink:href="#NotoSerifCJKjp-ExtraLight-33"/>
     </g>
    </g>
   </g>
   <g id="text_7">
    <g id="patch_20">
     <path d="M 1378.26157 634.397309 
L 1378.26157 640.792934 
Q 1378.26157 644.392934 1381.86157 644.392934 
L 1394.58157 644.392934 
Q 1398.18157 644.392934 1398.18157 640.792934 
L 1398.18157 634.397309 
Q 1398.18157 630.797309 1394.58157 630.797309 
L 1381.86157 630.797309 
Q 1378.26157 630.797309 1378.26157 634.397309 
z
" clip-path="url(#p8a92f5a421)" style="fill: #ffffff; stroke: #ffffff; stroke-linejoin: miter"/>
    </g>
    <g clip-path="url(#p8a92f5a421)">
     <!-- 1 -->
     <g transform="translate(1384.98157 634.397309) rotate(-270) scale(0.12 -0.12)">
      <use xlink:href="#NotoSerifCJKjp-ExtraLight-31"/>
     </g>
    </g>
   </g>
   <g id="text_8">
    <g id="patch_21">
     <path d="M 1561.555496 645.013905 
L 1567.252516 647.920445 
Q 1570.459282 649.556492 1572.09533 646.349726 
L 1577.87603 635.019152 
Q 1579.512077 631.812386 1576.305311 630.176339 
L 1570.608291 627.269799 
Q 1567.401525 625.633751 1565.765477 628.840518 
L 1559.984777 640.171091 
Q 1558.34873 643.377858 1561.555496 645.013905 
z
" clip-path="url(#p8a92f5a421)" style="fill: #ffffff; stroke: #ffffff; stroke-linejoin: miter"/>
    </g>
    <g clip-path="url(#p8a92f5a421)">
     <!-- 2 -->
     <g transform="translate(1564.609451 639.027941) rotate(-332.969961) scale(0.12 -0.12)">
      <use xlink:href="#NotoSerifCJKjp-ExtraLight-32"/>
     </g>
    </g>
   </g>
   <g id="text_9">
    <g id="patch_22">
     <path d="M 2101.096904 634.397309 
L 2101.096904 640.792934 
Q 2101.096904 644.392934 2104.696904 644.392934 
L 2117.416904 644.392934 
Q 2121.016904 644.392934 2121.016904 640.792934 
L 2121.016904 634.397309 
Q 2121.016904 630.797309 2117.416904 630.797309 
L 2104.696904 630.797309 
Q 2101.096904 630.797309 2101.096904 634.397309 
z
" clip-path="url(#p8a92f5a421)" style="fill: #ffffff; stroke: #ffffff; stroke-linejoin: miter"/>
    </g>
    <g clip-path="url(#p8a92f5a421)">
     <!-- 3 -->
     <g transform="translate(2107.816904 634.397309) rotate(-270) scale(0.12 -0.12)">
      <use xlink:href="#NotoSerifCJKjp-ExtraLight-33"/>
     </g>
    </g>
   </g>
   <g id="text_10">
    <g id="patch_23">
     <path d="M 2284.39083 645.013905 
L 2290.08785 647.920445 
Q 2293.294617 649.556492 2294.930664 646.349726 
L 2300.711364 635.019153 
Q 2302.347412 631.812386 2299.140645 630.176339 
L 2293.443625 627.269799 
Q 2290.236859 625.633751 2288.600811 628.840518 
L 2282.820111 640.171091 
Q 2281.184064 643.377858 2284.39083 645.013905 
z
" clip-path="url(#p8a92f5a421)" style="fill: #ffffff; stroke: #ffffff; stroke-linejoin: miter"/>
    </g>
    <g clip-path="url(#p8a92f5a421)">
     <!-- 2 -->
     <g transform="translate(2287.444785 639.027941) rotate(-332.96996) scale(0.12 -0.12)">
      <use xlink:href="#NotoSerifCJKjp-ExtraLight-32"/>
     </g>
    </g>
   </g>
   <g id="text_11">
    <g id="patch_24">
     <path d="M 2111.726835 265.616822 
L 2111.726835 272.012447 
Q 2111.726835 275.612447 2115.326835 275.612447 
L 2128.046835 275.612447 
Q 2131.646835 275.612447 2131.646835 272.012447 
L 2131.646835 265.616822 
Q 2131.646835 262.016822 2128.046835 262.016822 
L 2115.326835 262.016822 
Q 2111.726835 262.016822 2111.726835 265.616822 
z
" clip-path="url(#p8a92f5a421)" style="fill: #ffffff; stroke: #ffffff; stroke-linejoin: miter"/>
    </g>
    <g clip-path="url(#p8a92f5a421)">
     <!-- 2 -->
     <g transform="translate(2118.446835 265.616822) rotate(-270) scale(0.12 -0.12)">
      <use xlink:href="#NotoSerifCJKjp-ExtraLight-32"/>
     </g>
    </g>
   </g>
   <g id="text_12">
    <g id="patch_25">
     <path d="M 1739.679237 265.616822 
L 1739.679237 272.012447 
Q 1739.679237 275.612447 1743.279237 275.612447 
L 1755.999237 275.612447 
Q 1759.599237 275.612447 1759.599237 272.012447 
L 1759.599237 265.616822 
Q 1759.599237 262.016822 1755.999237 262.016822 
L 1743.279237 262.016822 
Q 1739.679237 262.016822 1739.679237 265.616822 
z
" clip-path="url(#p8a92f5a421)" style="fill: #ffffff; stroke: #ffffff; stroke-linejoin: miter"/>
    </g>
    <g clip-path="url(#p8a92f5a421)">
     <!-- 1 -->
     <g transform="translate(1746.399237 265.616822) rotate(-270) scale(0.12 -0.12)">
      <use xlink:href="#NotoSerifCJKjp-ExtraLight-31"/>
     </g>
    </g>
   </g>
   <g id="matplotlib.axis_1">
    <g id="xtick_1"/>
    <g id="xtick_2"/>
    <g id="xtick_3"/>
    <g id="xtick_4"/>
    <g id="xtick_5"/>
    <g id="xtick_6"/>
   </g>
   <g id="matplotlib.axis_2">
    <g id="ytick_1"/>
    <g id="ytick_2"/>
    <g id="ytick_3"/>
    <g id="ytick_4"/>
    <g id="ytick_5"/>
    <g id="ytick_6"/>
    <g id="ytick_7"/>
   </g>
   <g id="PathCollection_1">
    <defs>
     <path id="m0ccf033083" d="M 0 15 
C 3.978047 15 7.793698 13.419505 10.606602 10.606602 
C 13.419505 7.793698 15 3.978047 15 0 
C 15 -3.978047 13.419505 -7.793698 10.606602 -10.606602 
C 7.793698 -13.419505 3.978047 -15 0 -15 
C -3.978047 -15 -7.793698 -13.419505 -10.606602 -10.606602 
C -13.419505 -7.793698 -15 -3.978047 -15 0 
C -15 3.978047 -13.419505 7.793698 -10.606602 10.606602 
C -7.793698 13.419505 -3.978047 15 0 15 
z
" style="stroke: #add8e6; stroke-opacity: 0.85"/>
    </defs>
    <g clip-path="url(#p8a92f5a421)">
     <use xlink:href="#m0ccf033083" x="651.198821" y="729.790244" style="fill: #add8e6; fill-opacity: 0.85; stroke: #add8e6; stroke-opacity: 0.85"/>
     <use xlink:href="#m0ccf033083" x="470.489987" y="914.180488" style="fill: #add8e6; fill-opacity: 0.85; stroke: #add8e6; stroke-opacity: 0.85"/>
     <use xlink:href="#m0ccf033083" x="831.921827" y="914.180488" style="fill: #add8e6; fill-opacity: 0.85; stroke: #add8e6; stroke-opacity: 0.85"/>
     <use xlink:href="#m0ccf033083" x="1749.639237" y="361.009756" style="fill: #add8e6; fill-opacity: 0.85; stroke: #add8e6; stroke-opacity: 0.85"/>
     <use xlink:href="#m0ccf033083" x="1388.22157" y="545.4" style="fill: #add8e6; fill-opacity: 0.85; stroke: #add8e6; stroke-opacity: 0.85"/>
     <use xlink:href="#m0ccf033083" x="2111.056904" y="545.4" style="fill: #add8e6; fill-opacity: 0.85; stroke: #add8e6; stroke-opacity: 0.85"/>
     <use xlink:href="#m0ccf033083" x="1019.717282" y="729.790244" style="fill: #add8e6; fill-opacity: 0.85; stroke: #add8e6; stroke-opacity: 0.85"/>
     <use xlink:href="#m0ccf033083" x="1388.22157" y="729.790244" style="fill: #add8e6; fill-opacity: 0.85; stroke: #add8e6; stroke-opacity: 0.85"/>
     <use xlink:href="#m0ccf033083" x="1749.639237" y="729.790244" style="fill: #add8e6; fill-opacity: 0.85; stroke: #add8e6; stroke-opacity: 0.85"/>
     <use xlink:href="#m0ccf033083" x="2111.056904" y="729.790244" style="fill: #add8e6; fill-opacity: 0.85; stroke: #add8e6; stroke-opacity: 0.85"/>
     <use xlink:href="#m0ccf033083" x="2472.474571" y="729.790244" style="fill: #add8e6; fill-opacity: 0.85; stroke: #add8e6; stroke-opacity: 0.85"/>
     <use xlink:href="#m0ccf033083" x="2121.686835" y="176.619512" style="fill: #add8e6; fill-opacity: 0.85; stroke: #add8e6; stroke-opacity: 0.85"/>
     <use xlink:href="#m0ccf033083" x="2121.686835" y="361.009756" style="fill: #add8e6; fill-opacity: 0.85; stroke: #add8e6; stroke-opacity: 0.85"/>
     <use xlink:href="#m0ccf033083" x="1749.639237" y="176.619512" style="fill: #add8e6; fill-opacity: 0.85; stroke: #add8e6; stroke-opacity: 0.85"/>
    </g>
   </g>
   <g id="text_13">
    <g clip-path="url(#p8a92f5a421)">
     <!-- 權備 -->
     <g transform="translate(639.198821 725.710244) scale(0.12 -0.12)">
      <defs>
       <path id="NotoSerifCJKjp-ExtraLight-6b0a" d="M 2234 4595 
L 3251 4595 
L 3251 4147 
L 3309 4147 
C 3418 4147 3539 4224 3539 4262 
L 3539 4595 
L 4550 4595 
L 4550 4147 
L 4608 4147 
C 4717 4147 4838 4224 4838 4262 
L 4838 4595 
L 5965 4595 
C 6054 4595 6112 4627 6131 4698 
C 5939 4870 5645 5107 5645 5107 
L 5376 4787 
L 4838 4787 
L 4838 5088 
C 4998 5114 5062 5171 5075 5267 
L 4550 5318 
L 4550 4787 
L 3539 4787 
L 3539 5088 
C 3693 5114 3763 5171 3776 5267 
L 3251 5318 
L 3251 4787 
L 2182 4787 
L 2234 4595 
z
M 2797 3104 
L 2797 3776 
L 3616 3776 
L 3616 3104 
L 2797 3104 
z
M 3648 2720 
C 3744 2720 3891 2790 3898 2829 
L 3898 3731 
C 4006 3750 4102 3802 4141 3846 
L 3731 4154 
L 3558 3968 
L 2822 3968 
L 2515 4115 
L 2515 2605 
L 2560 2605 
C 2675 2605 2797 2675 2797 2701 
L 2797 2912 
L 3616 2912 
L 3616 2720 
L 3648 2720 
z
M 1498 3674 
L 2259 3674 
C 2349 3674 2400 3706 2419 3776 
C 2240 3949 1952 4173 1952 4173 
L 1702 3866 
L 1498 3866 
L 1498 5088 
C 1651 5114 1702 5171 1722 5267 
L 1210 5325 
L 1210 3866 
L 333 3866 
L 384 3674 
L 1107 3674 
C 960 2746 685 1843 243 1107 
L 339 1024 
C 736 1549 1011 2150 1210 2803 
L 1210 -461 
L 1274 -461 
C 1376 -461 1498 -390 1498 -333 
L 1498 2669 
C 1696 2419 1939 2074 2016 1818 
C 2349 1587 2586 2246 1498 2803 
L 1498 3674 
z
M 3046 512 
L 4038 512 
L 4038 6 
L 3046 6 
L 3046 512 
z
M 4038 1882 
L 4038 1395 
L 3046 1395 
L 3046 1882 
L 4038 1882 
z
M 4038 698 
L 3046 698 
L 3046 1203 
L 4038 1203 
L 4038 698 
z
M 5485 3776 
L 5485 3104 
L 4666 3104 
L 4666 3776 
L 5485 3776 
z
M 5357 6 
L 4320 6 
L 4320 512 
L 5613 512 
C 5702 512 5754 544 5773 614 
C 5600 781 5318 1005 5318 1005 
L 5082 698 
L 4320 698 
L 4320 1203 
L 5638 1203 
C 5722 1203 5779 1235 5792 1306 
C 5626 1478 5344 1696 5344 1696 
L 5101 1395 
L 4320 1395 
L 4320 1882 
L 5818 1882 
C 5901 1882 5965 1914 5984 1978 
C 5792 2157 5498 2387 5498 2387 
L 5235 2067 
L 4237 2067 
C 4333 2202 4442 2349 4518 2470 
C 4646 2464 4736 2509 4762 2592 
L 4403 2688 
L 4429 2688 
C 4538 2688 4666 2752 4666 2771 
L 4666 2912 
L 5485 2912 
L 5485 2662 
L 5523 2662 
C 5619 2662 5760 2739 5766 2771 
L 5766 3731 
C 5875 3750 5978 3802 6016 3846 
L 5606 4154 
L 5427 3968 
L 4691 3968 
L 4384 4115 
L 4384 2694 
L 4262 2726 
C 4205 2541 4109 2266 4045 2067 
L 3123 2067 
C 3206 2195 3290 2330 3360 2464 
C 3494 2438 3578 2490 3610 2554 
L 3155 2771 
C 2848 2054 2381 1421 1946 1050 
L 2035 960 
C 2285 1126 2541 1357 2778 1626 
L 2778 -474 
L 2810 -474 
C 2944 -474 3046 -403 3046 -378 
L 3046 -179 
L 5933 -179 
C 6022 -179 6080 -154 6099 -83 
C 5914 96 5619 326 5619 326 
L 5357 6 
z
" transform="scale(0.015625)"/>
       <path id="NotoSerifCJKjp-ExtraLight-5099" d="M 2035 4397 
L 3168 4397 
L 3168 3846 
L 3206 3846 
C 3322 3846 3450 3898 3450 3936 
L 3450 4397 
L 4493 4397 
L 4493 3859 
L 4544 3859 
C 4698 3866 4781 3936 4781 3962 
L 4781 4397 
L 5965 4397 
C 6054 4397 6118 4429 6131 4493 
C 5952 4666 5664 4883 5664 4883 
L 5414 4582 
L 4781 4582 
L 4781 5126 
C 4928 5146 4992 5210 4998 5293 
L 4493 5350 
L 4493 4582 
L 3450 4582 
L 3450 5126 
C 3603 5146 3654 5210 3667 5293 
L 3168 5350 
L 3168 4582 
L 1990 4582 
L 2035 4397 
z
M 1574 5331 
C 1280 4134 774 2912 275 2131 
L 378 2067 
C 627 2374 870 2752 1094 3174 
L 1094 -467 
L 1139 -467 
C 1248 -467 1370 -384 1376 -358 
L 1376 3482 
C 1485 3494 1542 3539 1562 3597 
L 1344 3680 
C 1542 4115 1722 4582 1869 5043 
C 2010 5043 2080 5101 2106 5178 
L 1574 5331 
z
M 4384 1082 
L 4384 1818 
L 5427 1818 
L 5427 1082 
L 4384 1082 
z
M 3053 1082 
L 3053 1818 
L 4096 1818 
L 4096 1082 
L 3053 1082 
z
M 4096 2720 
L 4096 2003 
L 3053 2003 
L 3053 2720 
L 4096 2720 
z
M 5427 2720 
L 5427 2003 
L 4384 2003 
L 4384 2720 
L 5427 2720 
z
M 5363 2906 
L 3085 2906 
L 2771 3072 
L 2771 -467 
L 2816 -467 
C 2944 -467 3053 -397 3053 -365 
L 3053 890 
L 4096 890 
L 4096 -390 
L 4134 -390 
C 4282 -390 4384 -307 4384 -282 
L 4384 890 
L 5427 890 
L 5427 45 
C 5427 -45 5402 -77 5306 -77 
C 5203 -77 4736 -38 4736 -38 
L 4736 -147 
C 4941 -173 5069 -205 5139 -256 
C 5210 -307 5235 -397 5248 -480 
C 5670 -429 5715 -262 5715 0 
L 5715 2656 
C 5837 2682 5946 2733 5990 2778 
L 5530 3123 
L 5363 2906 
z
M 5376 3654 
L 2394 3654 
L 2048 3834 
L 2048 2406 
C 2048 1472 2029 448 1581 -397 
L 1683 -474 
C 2310 371 2336 1555 2336 2406 
L 2336 3469 
L 5958 3469 
C 6048 3469 6112 3501 6125 3571 
C 5939 3744 5638 3981 5638 3981 
L 5376 3654 
z
" transform="scale(0.015625)"/>
      </defs>
      <use xlink:href="#NotoSerifCJKjp-ExtraLight-6b0a"/>
      <use xlink:href="#NotoSerifCJKjp-ExtraLight-5099" x="99.999985"/>
     </g>
    </g>
    <g clip-path="url(#p8a92f5a421)">
     <!-- 判官 -->
     <g transform="translate(639.198821 740.350244) scale(0.12 -0.12)">
      <defs>
       <path id="NotoSerifCJKjp-ExtraLight-5224" d="M 3315 4998 
C 3110 4467 2829 3878 2624 3507 
L 2726 3443 
C 3008 3763 3328 4250 3597 4678 
C 3718 4666 3795 4717 3827 4787 
L 3315 4998 
z
M 467 4909 
C 691 4557 992 3981 1030 3565 
C 1344 3277 1600 4051 557 4947 
L 467 4909 
z
M 3219 1818 
L 2195 1818 
L 2195 2976 
L 3635 2976 
C 3718 2976 3782 3008 3795 3078 
C 3622 3245 3347 3469 3347 3469 
L 3104 3168 
L 2195 3168 
L 2195 5075 
C 2355 5101 2400 5165 2419 5254 
L 1914 5312 
L 1914 3168 
L 435 3168 
L 486 2976 
L 1914 2976 
L 1914 1818 
L 230 1818 
L 275 1626 
L 1914 1626 
L 1914 -467 
L 1965 -467 
C 2074 -467 2195 -397 2195 -339 
L 2195 1626 
L 3789 1626 
C 3878 1626 3936 1658 3955 1728 
C 3770 1907 3475 2131 3475 2131 
L 3219 1818 
z
M 4179 4774 
L 4179 755 
L 4237 755 
C 4346 755 4461 832 4461 883 
L 4461 4538 
C 4621 4557 4678 4621 4698 4710 
L 4179 4774 
z
M 5498 5210 
L 5498 83 
C 5498 -26 5459 -70 5325 -70 
C 5197 -70 4493 -13 4493 -13 
L 4493 -115 
C 4787 -154 4966 -186 5069 -243 
C 5152 -301 5190 -384 5216 -474 
C 5722 -416 5779 -224 5779 51 
L 5779 4973 
C 5933 4992 5997 5056 6016 5146 
L 5498 5210 
z
" transform="scale(0.015625)"/>
       <path id="NotoSerifCJKjp-ExtraLight-5b98" d="M 1830 134 
L 1830 1280 
L 4851 1280 
L 4851 134 
L 1830 134 
z
M 4544 3392 
L 4544 2394 
L 1830 2394 
L 1830 3392 
L 4544 3392 
z
M 4787 1472 
L 1830 1472 
L 1830 2208 
L 4544 2208 
L 4544 1933 
L 4582 1933 
C 4678 1933 4826 2010 4832 2048 
L 4832 3347 
C 4934 3366 5037 3418 5075 3462 
L 4666 3770 
L 4486 3584 
L 1862 3584 
L 1542 3750 
L 1542 -486 
L 1594 -486 
C 1728 -486 1830 -410 1830 -371 
L 1830 -58 
L 4851 -58 
L 4851 -442 
L 4883 -442 
C 4979 -442 5126 -365 5133 -326 
L 5133 1216 
C 5261 1242 5363 1293 5408 1344 
L 4973 1677 
L 4787 1472 
z
M 5722 4736 
L 5491 4499 
L 3334 4499 
L 3334 5101 
C 3488 5120 3558 5184 3571 5274 
L 3053 5331 
L 3053 4499 
L 1152 4499 
C 1146 4608 1126 4730 1094 4858 
L 979 4858 
C 1011 4358 781 3904 506 3731 
C 403 3648 339 3539 397 3443 
C 474 3334 678 3379 806 3501 
C 966 3622 1146 3898 1158 4314 
L 5517 4314 
C 5446 4051 5338 3712 5261 3507 
L 5350 3456 
C 5536 3667 5773 4026 5894 4262 
C 6016 4269 6093 4282 6138 4326 
L 5722 4736 
z
" transform="scale(0.015625)"/>
      </defs>
      <use xlink:href="#NotoSerifCJKjp-ExtraLight-5224"/>
      <use xlink:href="#NotoSerifCJKjp-ExtraLight-5b98" x="99.999985"/>
     </g>
    </g>
   </g>
   <g id="text_14">
    <g clip-path="url(#p8a92f5a421)">
     <!-- 李誼 -->
     <g transform="translate(458.489987 910.100488) scale(0.12 -0.12)">
      <defs>
       <path id="NotoSerifCJKjp-ExtraLight-674e" d="M 5312 1280 
L 3341 1280 
L 3341 1574 
C 3462 1594 3520 1626 3552 1690 
C 3955 1830 4518 2054 4813 2259 
C 4941 2266 5030 2272 5082 2310 
L 4710 2669 
L 4499 2464 
L 1427 2464 
L 1485 2278 
L 4333 2278 
C 4064 2093 3686 1888 3424 1754 
L 3059 1798 
L 3059 1280 
L 314 1280 
L 371 1088 
L 3059 1088 
L 3059 64 
C 3059 -32 3027 -70 2899 -70 
C 2771 -70 2074 -19 2074 -19 
L 2074 -122 
C 2362 -154 2541 -192 2637 -243 
C 2726 -301 2765 -384 2778 -474 
C 3283 -416 3341 -237 3341 38 
L 3341 1088 
L 5926 1088 
C 6016 1088 6074 1120 6093 1190 
C 5894 1376 5587 1613 5587 1613 
L 5312 1280 
z
M 5850 4186 
C 5939 4186 5997 4218 6016 4288 
C 5818 4467 5504 4717 5504 4717 
L 5229 4378 
L 3322 4378 
L 3322 5107 
C 3482 5133 3546 5190 3558 5280 
L 3040 5338 
L 3040 4378 
L 403 4378 
L 461 4186 
L 2656 4186 
C 2061 3494 1152 2816 218 2355 
L 282 2253 
C 1363 2694 2368 3366 3040 4147 
L 3040 2662 
L 3098 2662 
C 3200 2662 3322 2733 3322 2778 
L 3322 4186 
L 3386 4186 
C 3942 3424 5011 2707 5901 2323 
C 5952 2451 6054 2534 6182 2541 
L 6195 2611 
C 5312 2906 4179 3533 3578 4186 
L 5850 4186 
z
" transform="scale(0.015625)"/>
       <path id="NotoSerifCJKjp-ExtraLight-8abc" d="M 5594 4243 
C 5542 4051 5472 3814 5414 3674 
L 5510 3622 
C 5658 3770 5850 4032 5958 4198 
C 6074 4205 6144 4211 6189 4256 
L 5786 4653 
L 5574 4435 
L 4403 4435 
L 4403 5043 
C 4550 5062 4621 5126 4634 5216 
L 4115 5280 
L 4115 4435 
L 3155 4435 
C 3155 4512 3149 4595 3136 4678 
L 3014 4685 
C 3002 4333 2797 3955 2605 3814 
C 2509 3731 2458 3616 2515 3539 
C 2586 3443 2771 3501 2874 3603 
C 2995 3712 3117 3936 3149 4243 
L 5594 4243 
z
M 2208 4717 
C 2298 4717 2355 4749 2368 4819 
C 2195 4986 1914 5210 1914 5210 
L 1664 4902 
L 506 4902 
L 557 4717 
L 2208 4717 
z
M 1907 4102 
L 243 4102 
L 288 3917 
L 2458 3917 
C 2547 3917 2605 3949 2624 4019 
C 2438 4186 2157 4416 2157 4416 
L 1907 4102 
z
M 1786 3296 
L 538 3296 
L 589 3110 
L 2266 3110 
C 2355 3110 2406 3142 2419 3206 
C 2266 3366 2010 3571 2010 3571 
L 1786 3296 
z
M 2266 2298 
C 2355 2298 2406 2330 2419 2394 
C 2266 2554 2010 2758 2010 2758 
L 1786 2483 
L 538 2483 
L 589 2298 
L 2266 2298 
z
M 838 275 
L 838 1491 
L 1952 1491 
L 1952 275 
L 838 275 
z
M 2080 1888 
L 1894 1677 
L 870 1677 
L 557 1837 
L 557 -474 
L 602 -474 
C 717 -474 838 -403 838 -371 
L 838 90 
L 1952 90 
L 1952 -230 
L 1990 -230 
C 2086 -230 2234 -160 2240 -122 
L 2240 1427 
C 2362 1453 2470 1504 2515 1549 
L 2080 1888 
z
M 3488 973 
L 5107 973 
L 5107 -32 
L 3488 -32 
L 3488 973 
z
M 5107 3219 
L 5107 2310 
L 3488 2310 
L 3488 3219 
L 5107 3219 
z
M 5107 1158 
L 3488 1158 
L 3488 2118 
L 5107 2118 
L 5107 1158 
z
M 5504 -32 
L 5389 -32 
L 5389 3174 
C 5549 3187 5638 3219 5683 3283 
L 5216 3648 
L 5030 3411 
L 3565 3411 
L 3200 3584 
L 3200 -32 
L 2419 -32 
L 2470 -218 
L 6067 -218 
C 6144 -218 6208 -186 6227 -122 
C 6048 58 5754 288 5754 288 
L 5504 -32 
z
" transform="scale(0.015625)"/>
      </defs>
      <use xlink:href="#NotoSerifCJKjp-ExtraLight-674e"/>
      <use xlink:href="#NotoSerifCJKjp-ExtraLight-8abc" x="99.999985"/>
     </g>
    </g>
    <g clip-path="url(#p8a92f5a421)">
     <!-- 監司 -->
     <g transform="translate(458.489987 924.740488) scale(0.12 -0.12)">
      <defs>
       <path id="NotoSerifCJKjp-ExtraLight-76e3" d="M 3238 2995 
C 3533 3264 3789 3635 4006 4032 
L 5933 4032 
C 6022 4032 6086 4058 6099 4128 
C 5914 4307 5619 4538 5619 4538 
L 5357 4218 
L 4102 4218 
C 4224 4480 4333 4749 4422 5018 
C 4544 5018 4621 5075 4640 5152 
L 4109 5293 
C 3930 4454 3565 3578 3142 3059 
L 3238 2995 
z
M 5286 2771 
L 3674 2771 
L 3725 2579 
L 5862 2579 
C 5952 2579 6010 2611 6029 2682 
C 5837 2854 5542 3091 5542 3091 
L 5286 2771 
z
M 1664 4762 
L 1664 4134 
L 883 4134 
L 883 4762 
L 1664 4762 
z
M 2688 3949 
L 2688 3270 
L 883 3270 
L 883 3949 
L 2688 3949 
z
M 1664 2349 
L 883 2349 
L 883 3085 
L 1664 3085 
L 1664 2349 
z
M 883 2163 
L 3085 2163 
C 3174 2163 3226 2195 3245 2266 
C 3066 2438 2778 2669 2778 2669 
L 2522 2349 
L 1946 2349 
L 1946 3085 
L 2688 3085 
L 2688 2912 
L 2726 2912 
C 2816 2912 2963 2989 2970 3027 
L 2970 3904 
C 3078 3923 3181 3974 3213 4019 
L 2803 4326 
L 2630 4134 
L 1946 4134 
L 1946 4762 
L 3040 4762 
C 3130 4762 3187 4794 3200 4864 
C 3021 5030 2739 5261 2739 5261 
L 2490 4947 
L 960 4947 
L 602 5120 
L 602 1811 
L 640 1811 
C 781 1811 883 1894 883 1920 
L 883 2163 
z
M 1440 1427 
L 2400 1427 
L 2400 -134 
L 1440 -134 
L 1440 1427 
z
M 3667 1427 
L 3667 -134 
L 2688 -134 
L 2688 1427 
L 3667 1427 
z
M 4934 1427 
L 4934 -134 
L 3955 -134 
L 3955 1427 
L 4934 1427 
z
M 5357 -134 
L 5222 -134 
L 5222 1382 
C 5376 1402 5466 1434 5510 1504 
L 5043 1856 
L 4864 1613 
L 1517 1613 
L 1152 1786 
L 1152 -134 
L 301 -134 
L 358 -320 
L 5958 -320 
C 6048 -320 6106 -288 6125 -218 
C 5933 -45 5626 198 5626 198 
L 5357 -134 
z
" transform="scale(0.015625)"/>
       <path id="NotoSerifCJKjp-ExtraLight-53f8" d="M 3936 3891 
L 442 3891 
L 493 3699 
L 4512 3699 
C 4602 3699 4666 3731 4685 3802 
C 4493 3981 4198 4205 4198 4205 
L 3936 3891 
z
M 1402 1139 
L 1402 2650 
L 3475 2650 
L 3475 1139 
L 1402 1139 
z
M 3603 3046 
L 3411 2835 
L 1434 2835 
L 1120 2995 
L 1120 205 
L 1171 205 
C 1293 205 1402 269 1402 301 
L 1402 954 
L 3475 954 
L 3475 422 
L 3514 422 
C 3610 422 3750 506 3757 544 
L 3757 2586 
C 3885 2611 3994 2662 4038 2714 
L 3603 3046 
z
M 5363 5210 
L 5203 4986 
L 595 4986 
L 653 4800 
L 5267 4800 
L 5267 115 
C 5267 -6 5222 -58 5062 -58 
C 4890 -58 4019 13 4019 13 
L 4019 -90 
C 4378 -134 4595 -179 4723 -237 
C 4826 -288 4870 -365 4890 -461 
C 5491 -397 5549 -192 5549 77 
L 5549 4736 
C 5677 4755 5786 4813 5830 4864 
L 5363 5210 
z
" transform="scale(0.015625)"/>
      </defs>
      <use xlink:href="#NotoSerifCJKjp-ExtraLight-76e3"/>
      <use xlink:href="#NotoSerifCJKjp-ExtraLight-53f8" x="99.999985"/>
     </g>
    </g>
   </g>
   <g id="text_15">
    <g clip-path="url(#p8a92f5a421)">
     <!-- 權敏 -->
     <g transform="translate(819.921827 910.100488) scale(0.12 -0.12)">
      <defs>
       <path id="NotoSerifCJKjp-ExtraLight-654f" d="M 3328 4250 
C 3418 4250 3482 4282 3494 4352 
C 3309 4525 3021 4755 3021 4755 
L 2765 4442 
L 1293 4442 
C 1389 4634 1485 4838 1562 5043 
C 1702 5037 1773 5094 1798 5165 
L 1293 5331 
C 1082 4557 710 3827 326 3366 
L 422 3296 
C 704 3539 960 3866 1184 4250 
L 3328 4250 
z
M 1907 883 
C 1946 1222 1990 1651 2029 2093 
L 2726 2093 
C 2694 1600 2662 1197 2618 883 
L 1907 883 
z
M 1760 2093 
C 1722 1658 1677 1222 1632 883 
L 947 883 
C 1005 1261 1062 1683 1114 2093 
L 1760 2093 
z
M 1869 3443 
C 1850 3110 1818 2701 1779 2285 
L 1139 2285 
C 1190 2726 1242 3136 1274 3443 
L 1869 3443 
z
M 2771 3443 
C 2765 3014 2752 2630 2733 2285 
L 2048 2285 
C 2086 2694 2118 3104 2144 3443 
L 2771 3443 
z
M 3533 691 
C 3616 691 3674 723 3693 794 
C 3526 960 3258 1165 3258 1165 
L 3027 883 
L 2893 883 
C 2938 1210 2976 1606 3002 2093 
L 3603 2093 
C 3686 2093 3744 2125 3763 2195 
C 3597 2355 3328 2566 3328 2566 
L 3098 2285 
L 3014 2285 
C 3027 2624 3046 3002 3053 3418 
C 3187 3430 3258 3462 3309 3514 
L 2893 3853 
L 2720 3629 
L 1376 3629 
L 1050 3814 
C 1011 3424 941 2867 864 2285 
L 256 2285 
L 301 2093 
L 838 2093 
C 762 1510 672 915 589 429 
C 736 403 813 410 883 454 
L 922 691 
L 2592 691 
C 2528 339 2458 134 2374 51 
C 2310 -13 2266 -26 2150 -26 
C 2029 -26 1728 0 1530 19 
L 1523 -102 
C 1690 -128 1875 -173 1939 -211 
C 2003 -262 2022 -352 2022 -442 
C 2227 -442 2438 -365 2586 -186 
C 2694 -51 2790 230 2861 691 
L 3533 691 
z
M 5280 3763 
C 5178 2899 4966 2131 4608 1459 
C 4275 2086 4064 2810 3923 3571 
C 3955 3635 3981 3699 4013 3763 
L 5280 3763 
z
M 5990 3763 
C 6074 3763 6138 3795 6150 3866 
C 5965 4038 5670 4275 5670 4275 
L 5402 3955 
L 4090 3955 
C 4224 4294 4333 4653 4422 5024 
C 4557 5024 4627 5088 4646 5165 
L 4109 5293 
C 3962 4314 3642 3360 3258 2720 
L 3366 2656 
C 3526 2854 3680 3085 3814 3347 
C 3942 2573 4141 1843 4454 1197 
C 4083 595 3565 70 2874 -378 
L 2944 -467 
C 3661 -77 4198 384 4595 928 
C 4909 384 5325 -96 5875 -474 
C 5926 -339 6048 -282 6170 -275 
L 6189 -211 
C 5574 134 5114 608 4768 1178 
C 5229 1901 5478 2758 5619 3763 
L 5990 3763 
z
" transform="scale(0.015625)"/>
      </defs>
      <use xlink:href="#NotoSerifCJKjp-ExtraLight-6b0a"/>
      <use xlink:href="#NotoSerifCJKjp-ExtraLight-654f" x="99.999985"/>
     </g>
    </g>
    <g clip-path="url(#p8a92f5a421)">
     <!-- 別坐 -->
     <g transform="translate(819.921827 924.740488) scale(0.12 -0.12)">
      <defs>
       <path id="NotoSerifCJKjp-ExtraLight-5225" d="M 1024 3328 
L 1024 4742 
L 3021 4742 
L 3021 3328 
L 1024 3328 
z
M 3059 2886 
C 3155 2886 3296 2963 3302 3002 
L 3302 4698 
C 3418 4717 3520 4768 3558 4813 
L 3142 5126 
L 2963 4928 
L 1094 4928 
L 736 5101 
L 736 2765 
L 774 2765 
C 922 2765 1024 2842 1024 2874 
L 1024 3142 
L 1555 3142 
C 1517 1882 1395 640 230 -371 
L 320 -461 
C 1312 230 1632 1107 1760 2074 
L 3034 2074 
C 2970 909 2848 160 2682 6 
C 2618 -51 2560 -64 2445 -64 
C 2317 -64 1894 -26 1651 0 
L 1645 -122 
C 1856 -147 2099 -192 2182 -243 
C 2266 -294 2285 -378 2285 -461 
C 2496 -461 2714 -397 2854 -256 
C 3098 -26 3251 781 3309 2048 
C 3437 2067 3514 2093 3558 2138 
L 3155 2470 
L 2970 2266 
L 1779 2266 
C 1811 2554 1824 2842 1837 3142 
L 3021 3142 
L 3021 2886 
L 3059 2886 
z
M 4493 4538 
C 4653 4557 4710 4621 4730 4710 
L 4211 4774 
L 4211 755 
L 4269 755 
C 4378 755 4493 832 4493 883 
L 4493 4538 
z
M 5498 5210 
L 5498 83 
C 5498 -26 5459 -70 5325 -70 
C 5197 -70 4493 -13 4493 -13 
L 4493 -115 
C 4787 -154 4966 -186 5069 -243 
C 5152 -301 5190 -384 5216 -474 
C 5722 -416 5779 -224 5779 51 
L 5779 4973 
C 5933 4992 5997 5056 6016 5146 
L 5498 5210 
z
" transform="scale(0.015625)"/>
       <path id="NotoSerifCJKjp-ExtraLight-5750" d="M 3558 2163 
C 3949 2470 4269 2899 4506 3430 
C 4902 3117 5395 2624 5555 2259 
C 5933 2035 6074 2848 4557 3533 
C 4685 3840 4794 4179 4870 4544 
C 5005 4544 5069 4608 5094 4685 
L 4582 4800 
C 4429 3699 4026 2816 3462 2240 
L 3558 2163 
z
M 1683 4794 
C 1466 3654 973 2733 358 2150 
L 448 2067 
C 902 2406 1286 2893 1574 3501 
C 1894 3213 2253 2803 2362 2496 
C 2707 2278 2874 3002 1632 3616 
C 1760 3898 1869 4198 1952 4525 
C 2086 4518 2163 4582 2182 4659 
L 1683 4794 
z
M 5318 -32 
L 3334 -32 
L 3334 1459 
L 5536 1459 
C 5626 1459 5690 1491 5702 1555 
C 5510 1741 5203 1978 5203 1978 
L 4928 1645 
L 3334 1645 
L 3334 5082 
C 3488 5107 3546 5171 3565 5261 
L 3053 5318 
L 3053 1645 
L 723 1645 
L 781 1459 
L 3053 1459 
L 3053 -32 
L 288 -32 
L 346 -218 
L 5939 -218 
C 6035 -218 6093 -186 6112 -122 
C 5914 64 5594 307 5594 307 
L 5318 -32 
z
" transform="scale(0.015625)"/>
      </defs>
      <use xlink:href="#NotoSerifCJKjp-ExtraLight-5225"/>
      <use xlink:href="#NotoSerifCJKjp-ExtraLight-5750" x="99.999985"/>
     </g>
    </g>
   </g>
   <g id="text_16">
    <g clip-path="url(#p8a92f5a421)">
     <!-- 權壎 -->
     <g transform="translate(1737.639237 356.929756) scale(0.12 -0.12)">
      <defs>
       <path id="NotoSerifCJKjp-ExtraLight-58ce" d="M 2163 1760 
C 1894 1632 1626 1510 1376 1395 
L 1376 3296 
L 2131 3296 
C 2221 3296 2278 3328 2298 3398 
C 2112 3571 1830 3795 1830 3795 
L 1574 3488 
L 1376 3488 
L 1376 4998 
C 1530 5018 1587 5082 1606 5171 
L 1094 5235 
L 1094 3488 
L 294 3488 
L 346 3296 
L 1094 3296 
L 1094 1267 
C 717 1101 410 966 237 902 
L 454 486 
C 512 518 550 582 563 659 
C 1254 1062 1811 1427 2208 1664 
L 2163 1760 
z
M 2598 698 
C 2554 282 2227 -38 1946 -160 
C 1850 -218 1786 -314 1837 -403 
C 1894 -499 2080 -461 2221 -378 
C 2451 -243 2778 96 2720 691 
L 2598 698 
z
M 3264 634 
C 3360 371 3443 -45 3405 -352 
C 3648 -640 4006 -38 3360 659 
L 3264 634 
z
M 4115 640 
C 4333 378 4576 -58 4595 -384 
C 4890 -640 5171 64 4198 678 
L 4115 640 
z
M 5011 666 
C 5344 403 5760 -58 5856 -416 
C 6214 -646 6413 173 5088 717 
L 5011 666 
z
M 4486 2560 
C 4666 2752 4851 2970 4954 3117 
C 5075 3104 5146 3168 5158 3213 
L 4704 3398 
C 4653 3200 4512 2835 4410 2598 
L 4486 2560 
z
M 2970 3366 
C 3091 3187 3213 2874 3219 2643 
C 3475 2400 3776 2938 3053 3405 
L 2970 3366 
z
M 2675 3514 
L 3898 3514 
L 3898 2464 
L 2675 2464 
L 2675 3514 
z
M 5434 3514 
L 5434 2464 
L 4179 2464 
L 4179 3514 
L 5434 3514 
z
M 5427 1114 
L 4179 1114 
L 4179 1594 
L 5754 1594 
C 5837 1594 5901 1626 5914 1696 
C 5734 1862 5459 2061 5459 2061 
L 5216 1786 
L 4179 1786 
L 4179 2278 
L 5434 2278 
L 5434 2093 
L 5472 2093 
C 5594 2093 5722 2170 5722 2195 
L 5722 3501 
C 5837 3520 5901 3552 5939 3597 
L 5568 3885 
L 5414 3699 
L 4179 3699 
L 4179 4147 
L 5965 4147 
C 6054 4147 6112 4179 6131 4250 
C 5939 4422 5645 4627 5645 4627 
L 5382 4339 
L 4179 4339 
L 4179 4826 
C 4646 4877 5082 4934 5440 4992 
C 5568 4934 5677 4928 5728 4979 
L 5370 5331 
C 4659 5133 3322 4909 2240 4832 
L 2266 4698 
C 2797 4704 3366 4742 3898 4794 
L 3898 4339 
L 2035 4339 
L 2086 4147 
L 3898 4147 
L 3898 3699 
L 2752 3699 
L 2394 3866 
L 2394 1978 
L 2432 1978 
C 2579 1978 2675 2061 2675 2086 
L 2675 2278 
L 3898 2278 
L 3898 1786 
L 2342 1786 
L 2387 1594 
L 3898 1594 
L 3898 1114 
L 2048 1114 
L 2099 928 
L 6016 928 
C 6106 928 6157 960 6176 1030 
C 5990 1203 5690 1446 5690 1446 
L 5427 1114 
z
" transform="scale(0.015625)"/>
      </defs>
      <use xlink:href="#NotoSerifCJKjp-ExtraLight-6b0a"/>
      <use xlink:href="#NotoSerifCJKjp-ExtraLight-58ce" x="99.999985"/>
     </g>
    </g>
    <g clip-path="url(#p8a92f5a421)">
     <!-- 司諫 -->
     <g transform="translate(1737.639237 371.569756) scale(0.12 -0.12)">
      <defs>
       <path id="NotoSerifCJKjp-ExtraLight-8aeb" d="M 2144 4717 
C 2227 4717 2291 4749 2304 4819 
C 2131 4986 1856 5210 1856 5210 
L 1606 4902 
L 506 4902 
L 557 4717 
L 2144 4717 
z
M 1862 4102 
L 256 4102 
L 301 3917 
L 2400 3917 
C 2490 3917 2547 3949 2566 4019 
C 2387 4186 2106 4416 2106 4416 
L 1862 4102 
z
M 512 3296 
L 563 3110 
L 2118 3110 
C 2208 3110 2266 3142 2285 3206 
C 2118 3366 1869 3571 1869 3571 
L 1645 3296 
L 512 3296 
z
M 2118 2298 
C 2208 2298 2266 2330 2285 2394 
C 2118 2554 1869 2758 1869 2758 
L 1645 2483 
L 512 2483 
L 563 2298 
L 2118 2298 
z
M 826 250 
L 826 1491 
L 1830 1491 
L 1830 250 
L 826 250 
z
M 1952 1888 
L 1766 1677 
L 858 1677 
L 544 1837 
L 544 -474 
L 589 -474 
C 704 -474 826 -403 826 -371 
L 826 58 
L 1830 58 
L 1830 -314 
L 1869 -314 
C 1958 -314 2106 -230 2112 -192 
L 2112 1427 
C 2240 1453 2349 1504 2387 1549 
L 1952 1888 
z
M 4896 3206 
C 4838 2989 4672 2566 4544 2298 
L 4621 2259 
C 4832 2483 5043 2765 5158 2938 
C 5286 2925 5350 2989 5363 3046 
L 4896 3206 
z
M 3136 3168 
C 3277 2950 3469 2605 3520 2349 
C 3782 2125 4045 2675 3213 3200 
L 3136 3168 
z
M 2938 2022 
L 2938 3424 
L 4051 3424 
L 4051 2022 
L 2938 2022 
z
M 5478 3424 
L 5478 2022 
L 4339 2022 
L 4339 3424 
L 5478 3424 
z
M 5478 1837 
L 5478 1568 
L 5517 1568 
C 5613 1568 5754 1645 5760 1683 
L 5760 3360 
C 5888 3386 5997 3437 6042 3488 
L 5606 3821 
L 5414 3610 
L 4339 3610 
L 4339 4275 
L 5965 4275 
C 6054 4275 6112 4307 6131 4378 
C 5939 4550 5645 4787 5645 4787 
L 5382 4461 
L 4339 4461 
L 4339 5075 
C 4474 5101 4531 5158 4544 5242 
L 4051 5293 
L 4051 4461 
L 2387 4461 
L 2438 4275 
L 4051 4275 
L 4051 3610 
L 3014 3610 
L 2656 3782 
L 2656 1523 
L 2694 1523 
C 2835 1523 2938 1606 2938 1638 
L 2938 1837 
L 3789 1837 
C 3424 1158 2848 512 2176 38 
L 2259 -64 
C 3002 365 3629 954 4051 1638 
L 4051 -461 
L 4090 -461 
C 4237 -461 4339 -378 4339 -352 
L 4339 1818 
C 4685 1101 5312 416 5984 32 
C 6016 147 6086 224 6208 243 
L 6227 307 
C 5549 608 4883 1216 4512 1837 
L 5478 1837 
z
" transform="scale(0.015625)"/>
      </defs>
      <use xlink:href="#NotoSerifCJKjp-ExtraLight-53f8"/>
      <use xlink:href="#NotoSerifCJKjp-ExtraLight-8aeb" x="99.999985"/>
     </g>
    </g>
   </g>
   <g id="text_17">
    <g clip-path="url(#p8a92f5a421)">
     <!-- 權然 -->
     <g transform="translate(1376.22157 541.32) scale(0.12 -0.12)">
      <defs>
       <path id="NotoSerifCJKjp-ExtraLight-7136" d="M 4576 4864 
C 4800 4685 5075 4358 5152 4102 
C 5466 3898 5683 4557 4646 4915 
L 4576 4864 
z
M 1280 1011 
C 1248 422 858 -6 512 -160 
C 410 -224 339 -326 390 -416 
C 454 -518 659 -474 819 -365 
C 1088 -205 1504 218 1402 1005 
L 1280 1011 
z
M 3117 4723 
L 2893 4512 
L 1728 4512 
C 1818 4691 1901 4877 1978 5062 
C 2112 5043 2189 5101 2221 5171 
L 1734 5350 
C 1395 4314 813 3360 243 2790 
L 326 2714 
C 486 2842 646 2989 800 3162 
C 1075 2970 1382 2643 1466 2381 
C 1779 2182 1933 2867 870 3232 
C 1030 3418 1184 3616 1325 3834 
C 1613 3674 1939 3424 2042 3194 
C 2355 3046 2451 3686 1389 3923 
C 1472 4058 1555 4186 1626 4326 
L 2912 4326 
C 2528 2944 1690 1683 320 909 
L 397 813 
C 1990 1587 2797 2893 3226 4294 
C 3366 4301 3437 4320 3488 4371 
L 3117 4723 
z
M 2278 928 
C 2426 595 2573 58 2534 -339 
C 2822 -659 3187 109 2368 960 
L 2278 928 
z
M 3526 941 
C 3782 608 4077 51 4102 -358 
C 4422 -646 4710 166 3616 986 
L 3526 941 
z
M 4717 960 
C 5133 634 5677 38 5798 -410 
C 6182 -666 6368 250 4794 1024 
L 4717 960 
z
M 5939 3539 
C 6029 3539 6093 3571 6112 3635 
C 5914 3821 5613 4051 5613 4051 
L 5344 3725 
L 4288 3725 
C 4339 4128 4346 4550 4358 4992 
C 4499 5011 4550 5075 4563 5158 
L 4070 5216 
C 4064 4685 4064 4186 4013 3725 
L 3034 3725 
L 3085 3539 
L 3987 3539 
C 3827 2573 3373 1766 2029 1158 
L 2118 1050 
C 3590 1658 4077 2477 4250 3443 
C 4474 2317 4954 1530 5843 1069 
C 5894 1197 5997 1286 6131 1293 
L 6138 1357 
C 5184 1741 4608 2490 4371 3539 
L 5939 3539 
z
" transform="scale(0.015625)"/>
      </defs>
      <use xlink:href="#NotoSerifCJKjp-ExtraLight-6b0a"/>
      <use xlink:href="#NotoSerifCJKjp-ExtraLight-7136" x="99.999985"/>
     </g>
    </g>
    <g clip-path="url(#p8a92f5a421)">
     <!-- 判官 -->
     <g transform="translate(1376.22157 555.96) scale(0.12 -0.12)">
      <use xlink:href="#NotoSerifCJKjp-ExtraLight-5224"/>
      <use xlink:href="#NotoSerifCJKjp-ExtraLight-5b98" x="99.999985"/>
     </g>
    </g>
   </g>
   <g id="text_18">
    <g clip-path="url(#p8a92f5a421)">
     <!-- 金宗潤 -->
     <g transform="translate(2093.056904 541.32) scale(0.12 -0.12)">
      <defs>
       <path id="NotoSerifCJKjp-ExtraLight-91d1" d="M 5242 -102 
L 3322 -102 
L 3322 1818 
L 5606 1818 
C 5696 1818 5747 1850 5766 1920 
C 5574 2093 5274 2323 5274 2323 
L 4998 2003 
L 3322 2003 
L 3322 3053 
L 4570 3053 
C 4659 3053 4717 3085 4736 3155 
C 4544 3322 4256 3533 4256 3533 
L 4006 3238 
L 1568 3238 
L 1619 3053 
L 3040 3053 
L 3040 2003 
L 678 2003 
L 736 1818 
L 3040 1818 
L 3040 -102 
L 384 -102 
L 442 -288 
L 5856 -288 
C 5946 -288 6010 -256 6029 -186 
C 5824 -6 5510 243 5510 243 
L 5242 -102 
z
M 1427 1510 
C 1683 1178 1990 634 2029 224 
C 2355 -70 2643 749 1517 1549 
L 1427 1510 
z
M 3955 96 
C 4243 390 4576 845 4845 1274 
C 4966 1254 5043 1306 5075 1370 
L 4595 1581 
C 4378 1069 4083 506 3853 160 
L 3955 96 
z
M 3021 5389 
C 2643 4499 1280 3258 218 2701 
L 262 2598 
C 1434 3162 2656 4198 3258 5062 
C 3757 4205 4781 3334 5850 2810 
C 5888 2912 6016 2989 6150 3002 
L 6163 3098 
C 4992 3603 3962 4358 3386 5146 
C 3526 5152 3610 5184 3616 5254 
L 3021 5389 
z
" transform="scale(0.015625)"/>
       <path id="NotoSerifCJKjp-ExtraLight-5b97" d="M 5466 4250 
C 5376 4019 5254 3725 5158 3546 
L 5248 3494 
C 5453 3674 5722 3987 5862 4198 
C 5984 4205 6061 4218 6106 4262 
L 5690 4672 
L 5459 4442 
L 3334 4442 
L 3334 5120 
C 3488 5139 3558 5203 3571 5293 
L 3053 5350 
L 3053 4442 
L 1146 4442 
C 1139 4544 1120 4659 1088 4781 
L 966 4774 
C 1011 4307 787 3891 512 3731 
C 410 3661 339 3552 397 3456 
C 461 3341 666 3379 800 3482 
C 966 3603 1139 3853 1152 4250 
L 5466 4250 
z
M 1402 3386 
L 1453 3194 
L 4883 3194 
C 4973 3194 5030 3226 5050 3296 
C 4864 3469 4563 3680 4563 3680 
L 4307 3386 
L 1402 3386 
z
M 1754 1542 
C 1478 992 877 275 250 -154 
L 314 -237 
C 1030 134 1664 755 1997 1254 
C 2144 1222 2195 1248 2240 1318 
L 1754 1542 
z
M 4179 1446 
C 4723 1062 5427 365 5606 -173 
C 6042 -448 6176 627 4256 1510 
L 4179 1446 
z
M 5299 2291 
L 326 2291 
L 384 2099 
L 3053 2099 
L 3053 38 
C 3053 -51 3021 -83 2893 -83 
C 2765 -83 2099 -38 2099 -38 
L 2099 -141 
C 2381 -166 2560 -198 2656 -256 
C 2733 -301 2778 -384 2778 -467 
C 3264 -410 3334 -224 3334 32 
L 3334 2099 
L 5920 2099 
C 6010 2099 6074 2131 6086 2202 
C 5882 2374 5574 2605 5574 2605 
L 5299 2291 
z
" transform="scale(0.015625)"/>
       <path id="NotoSerifCJKjp-ExtraLight-6f64" d="M 678 5197 
C 960 5030 1312 4723 1434 4467 
C 1811 4288 1952 5050 736 5261 
L 678 5197 
z
M 282 3821 
C 550 3680 858 3405 954 3168 
C 1331 2976 1491 3750 346 3885 
L 282 3821 
z
M 1696 3923 
C 819 1613 819 1613 730 1402 
C 678 1267 659 1267 595 1267 
L 320 1267 
L 320 1120 
C 461 1107 544 1094 621 1037 
C 742 947 781 480 710 -154 
C 704 -339 749 -467 851 -467 
C 1024 -467 1101 -320 1114 -70 
C 1139 422 998 755 998 1011 
C 998 1165 1037 1350 1082 1530 
C 1152 1798 1600 3168 1824 3891 
L 1696 3923 
z
M 3277 4768 
L 3277 4128 
L 2221 4128 
L 2221 4768 
L 3277 4768 
z
M 2221 3315 
L 2221 3942 
L 3277 3942 
L 3277 3315 
L 2221 3315 
z
M 3277 3130 
L 3277 2778 
L 3315 2778 
C 3411 2778 3558 2854 3565 2899 
L 3565 4704 
C 3686 4730 3795 4781 3840 4832 
L 3405 5165 
L 3213 4954 
L 2253 4954 
L 1939 5126 
L 1939 -461 
L 1990 -461 
C 2131 -461 2221 -384 2221 -339 
L 2221 3130 
L 3277 3130 
z
M 4557 627 
L 3923 627 
L 3923 1395 
L 4934 1395 
C 5018 1395 5082 1427 5094 1498 
C 4915 1664 4640 1888 4640 1888 
L 4397 1581 
L 3923 1581 
L 3923 2234 
L 4979 2234 
C 5062 2234 5126 2266 5139 2336 
C 4960 2502 4672 2733 4672 2733 
L 4429 2419 
L 2643 2419 
L 2694 2234 
L 3622 2234 
L 3622 1581 
L 2733 1581 
L 2778 1395 
L 3622 1395 
L 3622 627 
L 2509 627 
L 2560 435 
L 5114 435 
C 5203 435 5261 467 5280 538 
C 5094 704 4813 934 4813 934 
L 4557 627 
z
M 4397 3315 
L 4397 3942 
L 5530 3942 
L 5530 3315 
L 4397 3315 
z
M 5530 4768 
L 5530 4128 
L 4397 4128 
L 4397 4768 
L 5530 4768 
z
M 5638 5178 
L 5466 4954 
L 4429 4954 
L 4109 5114 
L 4109 2803 
L 4154 2803 
C 4275 2803 4397 2874 4397 2906 
L 4397 3130 
L 5530 3130 
L 5530 96 
C 5530 -13 5491 -58 5357 -58 
C 5216 -58 4506 0 4506 0 
L 4506 -109 
C 4806 -141 4986 -179 5088 -237 
C 5178 -288 5216 -378 5235 -467 
C 5760 -410 5811 -211 5811 58 
L 5811 4698 
C 5946 4723 6054 4781 6099 4826 
L 5638 5178 
z
" transform="scale(0.015625)"/>
      </defs>
      <use xlink:href="#NotoSerifCJKjp-ExtraLight-91d1"/>
      <use xlink:href="#NotoSerifCJKjp-ExtraLight-5b97" x="99.999985"/>
      <use xlink:href="#NotoSerifCJKjp-ExtraLight-6f64" x="199.999969"/>
     </g>
    </g>
    <g clip-path="url(#p8a92f5a421)">
     <!--   -->
     <g transform="translate(2109.502529 555.96) scale(0.12 -0.12)">
      <defs>
       <path id="NotoSerifCJKjp-ExtraLight-20" transform="scale(0.015625)"/>
      </defs>
      <use xlink:href="#NotoSerifCJKjp-ExtraLight-20"/>
     </g>
    </g>
   </g>
   <g id="text_19">
    <g clip-path="url(#p8a92f5a421)">
     <!-- 權阡 -->
     <g transform="translate(1007.717282 725.710244) scale(0.12 -0.12)">
      <defs>
       <path id="NotoSerifCJKjp-ExtraLight-9621" d="M 2150 5216 
L 1920 4986 
L 909 4986 
L 550 5158 
L 550 -461 
L 595 -461 
C 730 -461 832 -371 832 -346 
L 832 4800 
L 1914 4800 
C 1728 4307 1434 3590 1242 3206 
C 1773 2714 1952 2246 1952 1811 
C 1952 1549 1888 1408 1766 1344 
C 1702 1312 1651 1306 1574 1306 
L 1050 1306 
L 1050 1197 
C 1197 1184 1344 1152 1395 1120 
C 1453 1082 1478 1005 1478 890 
C 2067 922 2298 1178 2291 1754 
C 2291 2208 2067 2720 1408 3226 
C 1664 3597 2067 4333 2285 4717 
C 2426 4717 2522 4736 2573 4781 
L 2150 5216 
z
M 5446 2758 
L 4314 2758 
L 4314 4512 
C 4787 4608 5222 4710 5568 4806 
C 5709 4755 5805 4755 5862 4806 
L 5472 5146 
C 4826 4870 3565 4538 2528 4390 
L 2560 4269 
C 3046 4307 3552 4378 4032 4461 
L 4032 2758 
L 2221 2758 
L 2272 2566 
L 4032 2566 
L 4032 -454 
L 4070 -454 
C 4205 -454 4314 -378 4314 -339 
L 4314 2566 
L 6029 2566 
C 6118 2566 6176 2598 6189 2669 
C 6010 2842 5709 3078 5709 3078 
L 5446 2758 
z
" transform="scale(0.015625)"/>
      </defs>
      <use xlink:href="#NotoSerifCJKjp-ExtraLight-6b0a"/>
      <use xlink:href="#NotoSerifCJKjp-ExtraLight-9621" x="99.999985"/>
     </g>
    </g>
    <g clip-path="url(#p8a92f5a421)">
     <!-- 司勇 -->
     <g transform="translate(1007.717282 740.350244) scale(0.12 -0.12)">
      <defs>
       <path id="NotoSerifCJKjp-ExtraLight-52c7" d="M 4973 3686 
L 4973 3046 
L 3341 3046 
L 3341 3686 
L 4973 3686 
z
M 3341 2189 
L 3341 2854 
L 4973 2854 
L 4973 2189 
L 3341 2189 
z
M 1491 2854 
L 3059 2854 
L 3059 2189 
L 1491 2189 
L 1491 2854 
z
M 3059 3686 
L 3059 3046 
L 1491 3046 
L 1491 3686 
L 3059 3686 
z
M 4544 4838 
C 4250 4646 3853 4416 3526 4243 
C 3264 4378 2810 4506 2074 4582 
L 2042 4467 
C 2688 4307 3155 4096 3450 3878 
L 1517 3878 
L 1203 4038 
L 1203 1702 
L 1248 1702 
C 1370 1702 1491 1773 1491 1805 
L 1491 1997 
L 4973 1997 
L 4973 1779 
L 5011 1779 
C 5107 1779 5254 1862 5261 1901 
L 5261 3622 
C 5382 3648 5491 3699 5536 3750 
L 5101 4083 
L 4909 3878 
L 3840 3878 
C 3859 3949 3814 4051 3667 4160 
C 4166 4346 4800 4608 5146 4794 
C 5299 4800 5376 4806 5427 4851 
L 4998 5267 
L 4742 5024 
L 851 5024 
L 909 4838 
L 4544 4838 
z
M 5382 1498 
L 5197 1293 
L 3245 1293 
C 3283 1408 3309 1530 3328 1651 
C 3456 1658 3539 1696 3565 1798 
L 3008 1901 
C 2989 1690 2950 1485 2886 1293 
L 538 1293 
L 595 1101 
L 2816 1101 
C 2515 429 1837 -70 346 -371 
L 390 -474 
C 2144 -186 2874 371 3174 1101 
L 5242 1101 
C 5158 563 5011 102 4870 -13 
C 4800 -58 4730 -70 4595 -70 
C 4448 -70 3814 -13 3494 13 
L 3488 -109 
C 3776 -141 4122 -192 4224 -250 
C 4333 -301 4365 -390 4365 -474 
C 4608 -480 4864 -410 5011 -301 
C 5261 -122 5453 454 5530 1082 
C 5664 1088 5741 1120 5779 1165 
L 5382 1498 
z
" transform="scale(0.015625)"/>
      </defs>
      <use xlink:href="#NotoSerifCJKjp-ExtraLight-53f8"/>
      <use xlink:href="#NotoSerifCJKjp-ExtraLight-52c7" x="99.999985"/>
     </g>
    </g>
   </g>
   <g id="text_20">
    <g clip-path="url(#p8a92f5a421)">
     <!-- 李順慶 -->
     <g transform="translate(1370.22157 725.710244) scale(0.12 -0.12)">
      <defs>
       <path id="NotoSerifCJKjp-ExtraLight-9806" d="M 742 2752 
C 742 1632 678 480 230 -397 
L 346 -467 
C 922 416 1024 1626 1030 2752 
L 1030 4851 
C 1184 4870 1229 4934 1248 5024 
L 742 5082 
L 742 2752 
z
M 1523 384 
L 1581 384 
C 1690 384 1811 454 1811 512 
L 1811 4493 
C 1946 4518 1997 4576 2016 4659 
L 1523 4717 
L 1523 384 
z
M 2675 4870 
C 2829 4896 2886 4960 2899 5050 
L 2387 5114 
L 2387 115 
L 2445 115 
C 2554 115 2675 186 2675 243 
L 2675 4870 
z
M 2477 -474 
C 3136 -282 3872 83 4250 467 
C 4358 429 4435 442 4467 499 
L 4051 736 
C 3706 294 3021 -128 2419 -371 
L 2477 -474 
z
M 4730 634 
C 5120 384 5645 -77 5805 -422 
C 6189 -621 6317 205 4800 698 
L 4730 634 
z
M 5504 3802 
L 5504 3053 
L 3616 3053 
L 3616 3802 
L 5504 3802 
z
M 3616 1133 
L 3616 1907 
L 5504 1907 
L 5504 1133 
L 3616 1133 
z
M 3616 2861 
L 5504 2861 
L 5504 2093 
L 3616 2093 
L 3616 2861 
z
M 5427 4966 
L 3027 4966 
L 3078 4781 
L 4301 4781 
C 4262 4525 4198 4211 4141 3994 
L 3648 3994 
L 3334 4154 
L 3334 646 
L 3386 646 
C 3514 646 3616 710 3616 742 
L 3616 947 
L 5504 947 
L 5504 672 
L 5542 672 
C 5645 672 5779 762 5786 800 
L 5786 3763 
C 5894 3782 5990 3827 6029 3872 
L 5632 4186 
L 5446 3994 
L 4339 3994 
C 4454 4211 4576 4512 4678 4781 
L 6010 4781 
C 6099 4781 6157 4813 6170 4877 
C 5990 5056 5690 5293 5690 5293 
L 5427 4966 
z
" transform="scale(0.015625)"/>
       <path id="NotoSerifCJKjp-ExtraLight-6176" d="M 2259 4493 
L 2259 4006 
L 1152 4006 
L 1152 4493 
L 2259 4493 
z
M 3731 4006 
L 2541 4006 
L 2541 4493 
L 3731 4493 
L 3731 4006 
z
M 5158 3814 
L 5158 3264 
L 4019 3264 
L 4019 3814 
L 5158 3814 
z
M 2541 3814 
L 3731 3814 
L 3731 3264 
L 2541 3264 
L 2541 3814 
z
M 1152 3814 
L 2259 3814 
L 2259 3264 
L 1152 3264 
L 1152 3814 
z
M 5472 2483 
C 5395 2336 5306 2170 5248 2074 
L 5344 2029 
C 5491 2131 5734 2317 5869 2438 
C 5990 2445 6067 2458 6112 2502 
L 5709 2893 
L 5491 2675 
L 1152 2675 
C 1152 2784 1152 2893 1152 3002 
L 1152 3078 
L 5158 3078 
L 5158 2886 
L 5197 2886 
C 5293 2886 5434 2963 5440 3002 
L 5440 3770 
C 5549 3789 5651 3840 5690 3885 
L 5280 4192 
L 5101 4006 
L 4019 4006 
L 4019 4493 
L 5850 4493 
C 5946 4493 6003 4525 6022 4595 
C 5824 4781 5504 5024 5504 5024 
L 5235 4685 
L 3430 4685 
L 3430 5114 
C 3571 5139 3622 5197 3635 5280 
L 3149 5331 
L 3149 4685 
L 1216 4685 
L 870 4864 
L 870 2995 
C 870 1830 813 595 237 -403 
L 339 -474 
C 986 371 1120 1504 1146 2483 
L 5472 2483 
z
M 4397 2253 
C 4678 2074 5050 1741 5178 1491 
C 5504 1318 5638 1984 4461 2317 
L 4397 2253 
z
M 2854 2342 
C 3123 2253 3450 2054 3603 1901 
C 3917 1792 3974 2387 2906 2419 
L 2854 2342 
z
M 1818 2323 
C 1786 2029 1542 1766 1331 1677 
C 1235 1613 1171 1517 1222 1434 
C 1280 1338 1459 1370 1574 1446 
C 1766 1562 1997 1850 1939 2317 
L 1818 2323 
z
M 2598 890 
L 4211 890 
C 3987 672 3712 486 3398 333 
C 3059 467 2778 646 2554 858 
L 2598 890 
z
M 4557 1280 
L 4314 1082 
L 2848 1082 
C 2925 1146 3002 1210 3066 1274 
C 3187 1261 3264 1293 3302 1363 
L 3027 1491 
L 3437 1491 
C 4358 1491 4499 1530 4499 1664 
C 4499 1722 4461 1747 4352 1779 
L 4333 2138 
L 4256 2138 
C 4218 1978 4173 1837 4134 1779 
C 4109 1747 4090 1741 4032 1734 
C 3962 1728 3718 1728 3437 1728 
L 2803 1728 
C 2586 1728 2566 1741 2566 1811 
L 2566 2163 
C 2662 2176 2726 2234 2739 2304 
L 2298 2362 
L 2298 1773 
C 2298 1549 2355 1491 2771 1491 
L 2854 1491 
C 2483 1050 1869 557 1120 256 
L 1197 173 
C 1677 333 2093 550 2438 781 
C 2637 557 2880 371 3155 218 
C 2509 -58 1715 -243 883 -352 
L 922 -474 
C 1882 -384 2726 -211 3424 83 
C 4083 -218 4902 -371 5843 -467 
C 5869 -333 5965 -250 6093 -230 
L 6093 -166 
C 5203 -122 4378 -6 3706 211 
C 4064 390 4371 608 4621 870 
C 4787 870 4864 890 4909 934 
L 4557 1280 
z
" transform="scale(0.015625)"/>
      </defs>
      <use xlink:href="#NotoSerifCJKjp-ExtraLight-674e"/>
      <use xlink:href="#NotoSerifCJKjp-ExtraLight-9806" x="99.999985"/>
      <use xlink:href="#NotoSerifCJKjp-ExtraLight-6176" x="199.999969"/>
     </g>
    </g>
    <g clip-path="url(#p8a92f5a421)">
     <!--  -->
     <g transform="translate(1388.22157 740.350244) scale(0.12 -0.12)"/>
    </g>
   </g>
   <g id="text_21">
    <g clip-path="url(#p8a92f5a421)">
     <!-- 曺紹老 -->
     <g transform="translate(1731.639237 725.710244) scale(0.12 -0.12)">
      <defs>
       <path id="NotoSerifCJKjp-ExtraLight-66fa" d="M 1779 64 
L 1779 742 
L 4602 742 
L 4602 64 
L 1779 64 
z
M 4602 1581 
L 4602 934 
L 1779 934 
L 1779 1581 
L 4602 1581 
z
M 4538 1773 
L 1811 1773 
L 1498 1933 
L 1498 -480 
L 1542 -480 
C 1658 -480 1779 -410 1779 -378 
L 1779 -128 
L 4602 -128 
L 4602 -429 
L 4640 -429 
C 4736 -429 4877 -352 4883 -314 
L 4883 1517 
C 5011 1542 5120 1594 5165 1645 
L 4730 1978 
L 4538 1773 
z
M 5037 3802 
L 5037 3226 
L 3309 3226 
L 3309 3802 
L 5037 3802 
z
M 3309 2458 
L 3309 3040 
L 5037 3040 
L 5037 2458 
L 3309 2458 
z
M 1299 3040 
L 3027 3040 
L 3027 2458 
L 1299 2458 
L 1299 3040 
z
M 3027 3802 
L 3027 3226 
L 1299 3226 
L 1299 3802 
L 3027 3802 
z
M 5299 4698 
L 3309 4698 
L 3309 5094 
C 3462 5120 3526 5184 3546 5274 
L 3027 5331 
L 3027 4698 
L 384 4698 
L 442 4506 
L 3027 4506 
L 3027 3994 
L 1338 3994 
L 1018 4154 
L 1018 1965 
L 1062 1965 
C 1178 1965 1299 2035 1299 2067 
L 1299 2272 
L 5037 2272 
L 5037 2054 
L 5075 2054 
C 5171 2054 5312 2131 5318 2170 
L 5318 3738 
C 5446 3763 5555 3814 5600 3866 
L 5165 4198 
L 4973 3994 
L 3309 3994 
L 3309 4506 
L 5875 4506 
C 5965 4506 6029 4538 6042 4608 
C 5856 4787 5555 5018 5555 5018 
L 5299 4698 
z
" transform="scale(0.015625)"/>
       <path id="NotoSerifCJKjp-ExtraLight-7d39" d="M 1376 5338 
C 1210 4922 1005 4461 838 4122 
C 710 4205 550 4282 352 4346 
L 282 4288 
C 563 4090 896 3731 979 3456 
C 1235 3290 1402 3674 960 4032 
C 1184 4320 1434 4704 1632 5030 
C 1760 5018 1837 5069 1862 5139 
L 1376 5338 
z
M 339 32 
C 614 397 832 947 986 1459 
C 1107 1459 1178 1510 1203 1581 
L 704 1728 
C 614 1133 435 512 237 90 
L 339 32 
z
M 1888 3194 
C 2010 3040 2150 2835 2259 2624 
C 1843 2598 1440 2579 1094 2566 
C 1549 3123 2048 3814 2355 4314 
C 2490 4294 2579 4339 2618 4410 
L 2144 4621 
C 1830 4013 1325 3181 896 2554 
C 627 2547 403 2541 250 2541 
L 416 2144 
C 474 2157 531 2189 563 2272 
C 877 2304 1165 2342 1421 2374 
L 1421 -467 
L 1459 -467 
C 1594 -467 1702 -390 1702 -358 
L 1702 2406 
C 1939 2438 2144 2470 2323 2496 
C 2381 2362 2426 2240 2445 2125 
C 2765 1869 3027 2579 1965 3238 
L 1888 3194 
z
M 2042 1709 
C 2208 1389 2413 870 2445 499 
C 2752 218 3046 922 2131 1741 
L 2042 1709 
z
M 5568 4742 
C 5523 3795 5434 3168 5299 3040 
C 5242 2989 5190 2976 5075 2976 
C 4947 2976 4499 3014 4250 3040 
L 4250 2918 
C 4461 2893 4723 2842 4806 2790 
C 4883 2752 4909 2662 4909 2579 
C 5120 2579 5331 2643 5466 2765 
C 5690 2970 5798 3654 5843 4717 
C 5971 4736 6048 4762 6093 4806 
L 5690 5133 
L 5510 4928 
L 2822 4928 
L 2880 4742 
L 3962 4742 
C 3917 4038 3757 3226 2822 2566 
L 2918 2464 
C 3994 3110 4205 3968 4275 4742 
L 5568 4742 
z
M 3456 205 
L 3456 1933 
L 5434 1933 
L 5434 205 
L 3456 205 
z
M 5414 2118 
L 3533 2118 
L 3181 2285 
L 3181 -435 
L 3213 -435 
C 3360 -435 3456 -352 3456 -326 
L 3456 13 
L 5434 13 
L 5434 -397 
L 5472 -397 
C 5594 -397 5715 -314 5715 -288 
L 5715 1914 
C 5837 1933 5907 1958 5952 2010 
L 5568 2310 
L 5414 2118 
z
" transform="scale(0.015625)"/>
       <path id="NotoSerifCJKjp-ExtraLight-8001" d="M 5306 3021 
L 3885 3021 
C 4563 3584 5139 4179 5568 4742 
C 5722 4678 5786 4691 5843 4755 
L 5376 5094 
C 4902 4410 4230 3693 3437 3021 
L 2874 3021 
L 2874 4102 
L 4474 4102 
C 4563 4102 4621 4134 4640 4205 
C 4454 4390 4147 4621 4147 4621 
L 3878 4294 
L 2874 4294 
L 2874 5126 
C 3014 5152 3072 5203 3085 5293 
L 2592 5344 
L 2592 4294 
L 858 4294 
L 909 4102 
L 2592 4102 
L 2592 3021 
L 307 3021 
L 365 2829 
L 3206 2829 
C 2976 2643 2739 2464 2496 2285 
L 2067 2342 
L 2067 1990 
C 1472 1600 845 1242 205 947 
L 262 838 
C 890 1088 1498 1395 2067 1734 
L 2067 83 
C 2067 -243 2202 -326 2829 -326 
L 4006 -326 
C 5530 -326 5754 -288 5754 -115 
C 5754 -51 5709 -19 5574 13 
L 5562 870 
L 5472 870 
C 5408 474 5344 160 5299 51 
C 5267 -13 5242 -38 5126 -45 
C 4979 -58 4563 -64 4000 -64 
L 2835 -64 
C 2394 -64 2355 -26 2355 115 
L 2355 909 
C 3354 1158 4403 1606 5043 1958 
C 5197 1920 5299 1926 5338 1978 
L 4890 2304 
C 4365 1901 3302 1363 2355 1050 
L 2355 1914 
C 2816 2202 3251 2509 3648 2829 
L 5926 2829 
C 6016 2829 6074 2861 6093 2931 
C 5894 3117 5581 3360 5581 3360 
L 5306 3021 
z
" transform="scale(0.015625)"/>
      </defs>
      <use xlink:href="#NotoSerifCJKjp-ExtraLight-66fa"/>
      <use xlink:href="#NotoSerifCJKjp-ExtraLight-7d39" x="99.999985"/>
      <use xlink:href="#NotoSerifCJKjp-ExtraLight-8001" x="199.999969"/>
     </g>
    </g>
    <g clip-path="url(#p8a92f5a421)">
     <!--  -->
     <g transform="translate(1749.639237 740.350244) scale(0.12 -0.12)"/>
    </g>
   </g>
   <g id="text_22">
    <g clip-path="url(#p8a92f5a421)">
     <!-- 金瑛 -->
     <g transform="translate(2099.056904 725.710244) scale(0.12 -0.12)">
      <defs>
       <path id="NotoSerifCJKjp-ExtraLight-745b" d="M 2112 4486 
L 2163 4301 
L 3174 4301 
L 3174 3699 
L 3226 3699 
C 3334 3699 3456 3770 3456 3814 
L 3456 4301 
L 4698 4301 
L 4698 3699 
L 4755 3699 
C 4864 3699 4979 3770 4979 3814 
L 4979 4301 
L 5971 4301 
C 6061 4301 6125 4333 6138 4403 
C 5946 4576 5638 4806 5638 4806 
L 5370 4486 
L 4979 4486 
L 4979 5043 
C 5139 5069 5203 5126 5222 5222 
L 4698 5280 
L 4698 4486 
L 3456 4486 
L 3456 5043 
C 3616 5069 3674 5126 3693 5222 
L 3174 5280 
L 3174 4486 
L 2112 4486 
z
M 2400 1414 
C 2067 1261 1728 1107 1414 973 
L 1414 2765 
L 2221 2765 
C 2310 2765 2362 2790 2381 2861 
C 2214 3034 1939 3258 1939 3258 
L 1702 2950 
L 1414 2950 
L 1414 4512 
L 2234 4512 
C 2323 4512 2374 4544 2394 4614 
C 2214 4787 1939 5011 1939 5011 
L 1683 4704 
L 314 4704 
L 365 4512 
L 1126 4512 
L 1126 2950 
L 333 2950 
L 384 2765 
L 1126 2765 
L 1126 851 
C 762 698 442 576 218 506 
L 397 122 
C 454 147 499 211 506 282 
C 1280 634 1939 1011 2445 1312 
L 2400 1414 
z
M 4109 1670 
C 4173 2054 4192 2483 4198 2970 
L 5171 2970 
L 5171 1670 
L 4109 1670 
z
M 2989 1670 
L 2989 2970 
L 3891 2970 
C 3891 2477 3872 2048 3808 1670 
L 2989 1670 
z
M 5651 1670 
L 5491 1670 
L 5491 2925 
C 5651 2944 5728 2982 5779 3046 
L 5293 3411 
L 5094 3162 
L 4198 3162 
L 4205 3635 
C 4346 3654 4403 3725 4416 3808 
L 3891 3866 
L 3891 3162 
L 3066 3162 
L 2669 3341 
L 2669 1670 
L 1978 1670 
L 2029 1485 
L 3770 1485 
C 3571 621 3053 45 1715 -358 
L 1786 -480 
C 3309 -58 3866 557 4070 1485 
L 4134 1485 
C 4448 538 5011 -122 5894 -467 
C 5933 -320 6035 -237 6163 -211 
L 6163 -147 
C 5293 90 4634 691 4282 1485 
L 6106 1485 
C 6182 1485 6240 1510 6259 1581 
C 6118 1747 5862 1971 5862 1971 
L 5651 1670 
z
" transform="scale(0.015625)"/>
      </defs>
      <use xlink:href="#NotoSerifCJKjp-ExtraLight-91d1"/>
      <use xlink:href="#NotoSerifCJKjp-ExtraLight-745b" x="99.999985"/>
     </g>
    </g>
    <g clip-path="url(#p8a92f5a421)">
     <!-- 司直 -->
     <g transform="translate(2099.056904 740.350244) scale(0.12 -0.12)">
      <defs>
       <path id="NotoSerifCJKjp-ExtraLight-76f4" d="M 4678 3450 
L 4678 2771 
L 2362 2771 
L 2362 3450 
L 4678 3450 
z
M 2362 1005 
L 2362 1709 
L 4678 1709 
L 4678 1005 
L 2362 1005 
z
M 2362 2586 
L 4678 2586 
L 4678 1901 
L 2362 1901 
L 2362 2586 
z
M 2400 3635 
L 2086 3802 
L 2086 518 
L 2138 518 
C 2259 518 2362 589 2362 627 
L 2362 813 
L 4678 813 
L 4678 538 
L 4717 538 
C 4813 538 4954 621 4960 659 
L 4960 3386 
C 5088 3411 5197 3462 5242 3514 
L 4806 3853 
L 4614 3635 
L 3302 3635 
L 3360 4307 
L 5818 4307 
C 5907 4307 5971 4339 5990 4410 
C 5786 4595 5466 4845 5466 4845 
L 5184 4493 
L 3373 4493 
L 3424 5126 
C 3546 5146 3616 5210 3622 5293 
L 3123 5331 
C 3117 5075 3104 4781 3085 4493 
L 390 4493 
L 448 4307 
L 3078 4307 
C 3066 4058 3046 3821 3034 3635 
L 2400 3635 
z
M 5325 109 
L 1107 109 
L 1107 3290 
C 1267 3309 1325 3373 1344 3462 
L 826 3526 
L 826 -461 
L 883 -461 
C 992 -461 1107 -390 1107 -333 
L 1107 -83 
L 5965 -83 
C 6054 -83 6118 -51 6138 19 
C 5933 211 5613 454 5613 454 
L 5325 109 
z
" transform="scale(0.015625)"/>
      </defs>
      <use xlink:href="#NotoSerifCJKjp-ExtraLight-53f8"/>
      <use xlink:href="#NotoSerifCJKjp-ExtraLight-76f4" x="99.999985"/>
     </g>
    </g>
   </g>
   <g id="text_23">
    <g clip-path="url(#p8a92f5a421)">
     <!-- 金璘 -->
     <g transform="translate(2460.474571 725.710244) scale(0.12 -0.12)">
      <defs>
       <path id="NotoSerifCJKjp-ExtraLight-7498" d="M 2246 4147 
L 2298 3962 
L 3635 3962 
C 3270 3437 2726 2970 2099 2624 
L 2170 2509 
C 2867 2816 3456 3251 3878 3789 
L 3878 2534 
L 3936 2534 
C 4038 2534 4160 2605 4160 2656 
L 4160 3859 
C 4550 3322 5171 2880 5734 2630 
C 5773 2765 5882 2842 6010 2848 
L 6016 2918 
C 5414 3110 4698 3494 4269 3962 
L 5888 3962 
C 5971 3962 6035 3994 6054 4058 
C 5869 4237 5581 4461 5581 4461 
L 5325 4147 
L 4627 4147 
C 4845 4352 5094 4640 5306 4909 
C 5434 4883 5517 4934 5549 4992 
L 5101 5229 
C 4909 4858 4685 4454 4518 4211 
L 4614 4147 
L 4160 4147 
L 4160 5094 
C 4320 5120 4384 5178 4397 5267 
L 3878 5325 
L 3878 4147 
L 2246 4147 
z
M 2688 5114 
C 2861 4890 3104 4525 3181 4269 
C 3443 4064 3661 4602 2771 5158 
L 2688 5114 
z
M 2234 1664 
C 1946 1542 1658 1414 1395 1306 
L 1395 2880 
L 2093 2880 
C 2182 2880 2240 2912 2259 2982 
C 2086 3155 1818 3379 1818 3379 
L 1574 3072 
L 1395 3072 
L 1395 4576 
L 2170 4576 
C 2253 4576 2317 4608 2330 4678 
C 2150 4851 1869 5075 1869 5075 
L 1619 4768 
L 307 4768 
L 358 4576 
L 1107 4576 
L 1107 3072 
L 352 3072 
L 403 2880 
L 1107 2880 
L 1107 1184 
C 710 1018 384 883 198 826 
L 403 448 
C 454 480 499 538 512 614 
C 1254 998 1850 1331 2278 1562 
L 2234 1664 
z
M 3674 2285 
L 3475 2074 
L 2893 2074 
C 2950 2202 3002 2336 3053 2470 
C 3194 2464 3258 2522 3283 2592 
L 2790 2758 
C 2573 1926 2170 1190 1722 736 
L 1811 666 
C 2054 851 2285 1088 2483 1370 
C 2643 1210 2803 998 2874 832 
C 3142 659 3334 1146 2560 1485 
C 2643 1613 2726 1747 2797 1888 
L 3494 1888 
C 3251 979 2765 134 1958 -358 
L 2022 -461 
C 3021 38 3533 928 3808 1869 
C 3942 1875 4013 1894 4051 1939 
L 3674 2285 
z
M 4371 819 
L 4371 1818 
L 4934 1818 
L 4934 819 
L 4371 819 
z
M 5459 819 
L 5222 819 
L 5222 1818 
L 5862 1818 
C 5952 1818 6010 1850 6029 1920 
C 5856 2074 5594 2272 5594 2272 
L 5357 2003 
L 5222 2003 
L 5222 2438 
C 5376 2458 5434 2522 5453 2611 
L 4934 2675 
L 4934 2003 
L 4448 2003 
L 4083 2176 
L 4083 819 
L 3565 819 
L 3616 634 
L 4934 634 
L 4934 -474 
L 4992 -474 
C 5101 -474 5222 -397 5222 -346 
L 5222 634 
L 6035 634 
C 6118 634 6176 666 6189 730 
C 6010 909 5722 1133 5722 1133 
L 5459 819 
z
" transform="scale(0.015625)"/>
      </defs>
      <use xlink:href="#NotoSerifCJKjp-ExtraLight-91d1"/>
      <use xlink:href="#NotoSerifCJKjp-ExtraLight-7498" x="99.999985"/>
     </g>
    </g>
    <g clip-path="url(#p8a92f5a421)">
     <!-- 郡事 -->
     <g transform="translate(2460.474571 740.350244) scale(0.12 -0.12)">
      <defs>
       <path id="NotoSerifCJKjp-ExtraLight-90e1" d="M 2893 2906 
L 1638 2906 
C 1702 3174 1741 3443 1766 3712 
L 2893 3712 
L 2893 2906 
z
M 2893 4678 
L 2893 3904 
L 1786 3904 
C 1811 4166 1824 4422 1830 4678 
L 2893 4678 
z
M 2957 1670 
L 2957 218 
L 1414 218 
L 1414 1670 
L 2957 1670 
z
M 3322 3904 
L 3174 3904 
L 3174 4614 
C 3296 4640 3411 4691 3450 4742 
L 3014 5075 
L 2829 4870 
L 563 4870 
L 621 4678 
L 1530 4678 
C 1523 4429 1517 4166 1498 3904 
L 269 3904 
L 320 3712 
L 1485 3712 
C 1459 3443 1427 3174 1370 2906 
L 486 2906 
L 544 2720 
L 1325 2720 
C 1152 2010 819 1306 192 698 
L 294 595 
C 646 902 922 1229 1126 1581 
L 1126 -467 
L 1165 -467 
C 1312 -467 1414 -384 1414 -358 
L 1414 26 
L 2957 26 
L 2957 -371 
L 2995 -371 
C 3091 -371 3226 -288 3232 -250 
L 3232 1606 
C 3360 1632 3475 1683 3514 1734 
L 3078 2067 
L 2893 1862 
L 1491 1862 
L 1318 1939 
C 1434 2195 1530 2458 1594 2720 
L 2893 2720 
L 2893 2349 
L 2931 2349 
C 3027 2349 3168 2426 3174 2464 
L 3174 3712 
L 3859 3712 
C 3942 3712 4006 3744 4019 3814 
C 3846 3987 3565 4205 3565 4205 
L 3322 3904 
z
M 5773 5088 
L 5549 4870 
L 4410 4870 
L 4045 5069 
L 4045 -474 
L 4083 -474 
C 4230 -474 4333 -384 4333 -358 
L 4333 4678 
L 5549 4678 
C 5338 4128 5018 3315 4826 2899 
C 5459 2342 5715 1830 5715 1318 
C 5715 1018 5632 864 5485 787 
C 5427 755 5382 749 5299 749 
L 4627 749 
L 4627 640 
C 4819 627 4986 602 5050 563 
C 5107 525 5133 454 5133 352 
C 5786 390 6022 659 6022 1280 
C 6016 1805 5741 2349 4979 2918 
C 5242 3328 5670 4173 5882 4608 
C 6029 4608 6125 4621 6170 4672 
L 5773 5088 
z
" transform="scale(0.015625)"/>
       <path id="NotoSerifCJKjp-ExtraLight-4e8b" d="M 4896 806 
L 3328 806 
L 3328 1414 
L 4896 1414 
L 4896 806 
z
M 3328 2195 
L 4896 2195 
L 4896 1600 
L 3328 1600 
L 3328 2195 
z
M 1510 3174 
L 1510 3808 
L 3046 3808 
L 3046 3174 
L 1510 3174 
z
M 4864 3808 
L 4864 3174 
L 3328 3174 
L 3328 3808 
L 4864 3808 
z
M 5382 1600 
L 5184 1600 
L 5184 2131 
C 5306 2157 5414 2208 5459 2259 
L 5024 2592 
L 4838 2381 
L 3328 2381 
L 3328 2982 
L 4864 2982 
L 4864 2752 
L 4896 2752 
C 4992 2752 5139 2822 5146 2861 
L 5146 3744 
C 5267 3770 5376 3821 5421 3872 
L 4979 4198 
L 4800 4000 
L 3328 4000 
L 3328 4506 
L 5939 4506 
C 6029 4506 6093 4538 6106 4608 
C 5907 4800 5587 5043 5587 5043 
L 5299 4698 
L 3328 4698 
L 3328 5101 
C 3482 5120 3546 5184 3565 5274 
L 3046 5331 
L 3046 4698 
L 301 4698 
L 358 4506 
L 3046 4506 
L 3046 4000 
L 1542 4000 
L 1229 4154 
L 1229 2669 
L 1274 2669 
C 1389 2669 1510 2733 1510 2758 
L 1510 2982 
L 3046 2982 
L 3046 2381 
L 1069 2381 
L 1120 2195 
L 3046 2195 
L 3046 1600 
L 294 1600 
L 352 1414 
L 3046 1414 
L 3046 806 
L 1030 806 
L 1088 621 
L 3046 621 
L 3046 77 
C 3046 -45 3002 -90 2854 -90 
C 2707 -90 1907 -26 1907 -26 
L 1907 -134 
C 2234 -166 2438 -205 2547 -262 
C 2643 -314 2688 -390 2714 -480 
C 3270 -422 3328 -218 3328 45 
L 3328 621 
L 4896 621 
L 4896 282 
L 4934 282 
C 5030 282 5178 365 5184 403 
L 5184 1414 
L 5978 1414 
C 6067 1414 6131 1446 6144 1510 
C 5958 1696 5651 1946 5651 1946 
L 5382 1600 
z
" transform="scale(0.015625)"/>
      </defs>
      <use xlink:href="#NotoSerifCJKjp-ExtraLight-90e1"/>
      <use xlink:href="#NotoSerifCJKjp-ExtraLight-4e8b" x="99.999985"/>
     </g>
    </g>
   </g>
   <g id="text_24">
    <g clip-path="url(#p8a92f5a421)">
     <!-- 權鈞 -->
     <g transform="translate(2109.686835 172.539512) scale(0.12 -0.12)">
      <defs>
       <path id="NotoSerifCJKjp-ExtraLight-921e" d="M 1421 5318 
C 1203 4646 646 3629 109 3078 
L 205 3008 
C 794 3501 1318 4320 1626 4947 
C 2054 4595 2381 4179 2528 3878 
C 2835 3667 3206 4320 1696 5037 
C 1837 5043 1894 5088 1914 5146 
L 1421 5318 
z
M 1690 2323 
L 2682 2323 
C 2771 2323 2822 2349 2835 2419 
C 2669 2592 2387 2803 2387 2803 
L 2150 2509 
L 1690 2509 
L 1690 3334 
L 2464 3334 
C 2554 3334 2611 3366 2630 3437 
C 2458 3603 2189 3814 2189 3814 
L 1952 3526 
L 762 3526 
L 813 3334 
L 1408 3334 
L 1408 2509 
L 339 2509 
L 390 2323 
L 1408 2323 
L 1408 256 
C 922 141 518 51 282 6 
L 531 -416 
C 589 -390 640 -339 659 -262 
C 1632 51 2362 320 2893 518 
L 2867 621 
C 2458 518 2054 416 1690 326 
L 1690 2323 
z
M 538 1920 
C 666 1574 794 1043 762 646 
C 1037 339 1363 1062 634 1939 
L 538 1920 
z
M 2054 704 
C 2221 986 2374 1389 2496 1722 
C 2624 1722 2688 1779 2714 1856 
L 2195 2003 
C 2131 1574 2035 1088 1939 749 
L 2054 704 
z
M 5082 1901 
C 4218 1632 3373 1389 3008 1306 
L 3258 909 
C 3315 928 3360 979 3379 1056 
C 4128 1357 4704 1613 5114 1798 
L 5082 1901 
z
M 4378 2861 
L 3123 2861 
L 3174 2675 
L 4922 2675 
C 5011 2675 5069 2707 5088 2771 
C 4909 2944 4621 3174 4621 3174 
L 4378 2861 
z
M 5734 4442 
L 5549 4211 
L 3616 4211 
C 3744 4474 3859 4749 3955 5030 
C 4083 5024 4160 5088 4186 5158 
L 3667 5312 
C 3450 4416 3059 3558 2650 3002 
L 2752 2938 
C 3034 3219 3296 3597 3526 4026 
L 5613 4026 
C 5542 2029 5389 346 5120 83 
C 5037 6 4986 -13 4838 -13 
C 4685 -13 4128 45 3795 83 
L 3789 -45 
C 4064 -90 4410 -154 4512 -205 
C 4608 -262 4634 -358 4634 -448 
C 4915 -448 5178 -346 5344 -141 
C 5658 243 5830 1946 5888 4000 
C 6029 4013 6112 4038 6150 4090 
L 5734 4442 
z
" transform="scale(0.015625)"/>
      </defs>
      <use xlink:href="#NotoSerifCJKjp-ExtraLight-6b0a"/>
      <use xlink:href="#NotoSerifCJKjp-ExtraLight-921e" x="99.999985"/>
     </g>
    </g>
    <g clip-path="url(#p8a92f5a421)">
     <!-- 花山君 -->
     <g transform="translate(2103.686835 187.179512) scale(0.12 -0.12)">
      <defs>
       <path id="NotoSerifCJKjp-ExtraLight-82b1" d="M 2150 4429 
L 2150 3776 
L 2195 3776 
C 2298 3776 2432 3827 2432 3872 
L 2432 4429 
L 3936 4429 
L 3936 3789 
L 3987 3789 
C 4128 3795 4218 3866 4218 3898 
L 4218 4429 
L 5926 4429 
C 6016 4429 6080 4454 6093 4525 
C 5907 4698 5594 4947 5594 4947 
L 5325 4614 
L 4218 4614 
L 4218 5120 
C 4378 5139 4435 5203 4448 5293 
L 3936 5344 
L 3936 4614 
L 2432 4614 
L 2432 5120 
C 2592 5139 2650 5203 2662 5293 
L 2150 5344 
L 2150 4614 
L 301 4614 
L 339 4429 
L 2150 4429 
z
M 333 1069 
C 794 1389 1242 1850 1632 2400 
L 1632 -461 
L 1683 -461 
C 1792 -461 1920 -397 1926 -371 
L 1926 2394 
C 2029 2406 2093 2451 2118 2509 
L 1792 2637 
C 1946 2880 2093 3136 2221 3405 
C 2355 3386 2432 3437 2464 3507 
L 1990 3712 
C 1568 2656 890 1702 250 1152 
L 333 1069 
z
M 5958 1062 
L 5869 1062 
C 5805 608 5728 173 5696 64 
C 5670 0 5645 -26 5562 -32 
C 5453 -45 5178 -51 4794 -51 
L 4019 -51 
C 3693 -51 3648 0 3648 147 
L 3648 1658 
C 4262 1933 4960 2394 5530 2925 
C 5651 2867 5715 2880 5754 2931 
L 5376 3283 
C 4864 2694 4205 2170 3648 1818 
L 3648 3469 
C 3789 3488 3853 3552 3859 3629 
L 3366 3693 
L 3366 96 
C 3366 -205 3494 -307 4000 -307 
L 4806 -314 
C 5933 -314 6138 -269 6138 -115 
C 6138 -51 6106 -13 5971 26 
L 5958 1062 
z
" transform="scale(0.015625)"/>
       <path id="NotoSerifCJKjp-ExtraLight-5c71" d="M 5312 3814 
L 5312 499 
L 3315 499 
L 3315 4934 
C 3469 4960 3533 5024 3546 5114 
L 3034 5178 
L 3034 499 
L 1069 499 
L 1069 3558 
C 1222 3578 1280 3635 1299 3725 
L 781 3789 
L 781 -454 
L 838 -454 
C 947 -454 1069 -384 1069 -333 
L 1069 307 
L 5312 307 
L 5312 -346 
L 5370 -346 
C 5478 -346 5600 -269 5600 -218 
L 5600 3584 
C 5754 3603 5811 3661 5830 3750 
L 5312 3814 
z
" transform="scale(0.015625)"/>
       <path id="NotoSerifCJKjp-ExtraLight-541b" d="M 4806 2848 
L 2592 2848 
C 2714 3130 2803 3424 2880 3731 
L 4806 3731 
L 4806 2848 
z
M 4806 4755 
L 4806 3923 
L 2925 3923 
C 2976 4192 3021 4467 3053 4755 
L 4806 4755 
z
M 5069 1517 
L 5069 147 
L 2195 147 
L 2195 1517 
L 5069 1517 
z
M 5331 3923 
L 5088 3923 
L 5088 4672 
C 5229 4698 5344 4755 5395 4813 
L 4922 5171 
L 4736 4941 
L 1133 4941 
L 1190 4755 
L 2739 4755 
C 2707 4467 2662 4192 2605 3923 
L 390 3923 
L 448 3731 
L 2560 3731 
C 2490 3424 2394 3130 2278 2848 
L 1069 2848 
L 1120 2662 
L 2195 2662 
C 1805 1805 1197 1082 294 506 
L 378 410 
C 1024 781 1530 1210 1920 1702 
L 1920 -486 
L 1952 -486 
C 2093 -486 2195 -403 2195 -378 
L 2195 -45 
L 5069 -45 
L 5069 -442 
L 5107 -442 
C 5203 -442 5344 -358 5350 -326 
L 5350 1453 
C 5485 1478 5600 1523 5645 1574 
L 5197 1926 
L 4998 1709 
L 2272 1709 
L 2016 1830 
C 2208 2093 2374 2368 2509 2662 
L 4806 2662 
L 4806 2317 
L 4845 2317 
C 4928 2317 5075 2362 5088 2381 
L 5088 3731 
L 5914 3731 
C 6003 3731 6061 3763 6080 3834 
C 5888 4013 5594 4243 5594 4243 
L 5331 3923 
z
" transform="scale(0.015625)"/>
      </defs>
      <use xlink:href="#NotoSerifCJKjp-ExtraLight-82b1"/>
      <use xlink:href="#NotoSerifCJKjp-ExtraLight-5c71" x="99.999985"/>
      <use xlink:href="#NotoSerifCJKjp-ExtraLight-541b" x="199.999969"/>
     </g>
    </g>
   </g>
   <g id="text_25">
    <g clip-path="url(#p8a92f5a421)">
     <!-- 李種善 -->
     <g transform="translate(2103.686835 356.929756) scale(0.12 -0.12)">
      <defs>
       <path id="NotoSerifCJKjp-ExtraLight-7a2e" d="M 1594 3290 
L 2413 3290 
C 2502 3290 2560 3322 2579 3392 
C 2400 3565 2118 3789 2118 3789 
L 1869 3482 
L 1594 3482 
L 1594 4704 
C 1830 4787 2042 4870 2208 4947 
C 2349 4902 2438 4909 2490 4966 
L 2067 5274 
C 1683 5011 909 4640 275 4448 
L 320 4339 
C 640 4403 992 4499 1312 4602 
L 1312 3482 
L 320 3482 
L 371 3290 
L 1216 3290 
C 1018 2374 653 1472 128 762 
L 224 672 
C 704 1190 1062 1798 1312 2470 
L 1312 -467 
L 1350 -467 
C 1491 -467 1594 -390 1594 -358 
L 1594 2464 
C 1824 2234 2099 1894 2195 1638 
C 2509 1434 2714 2074 1594 2592 
L 1594 3290 
z
M 2963 1754 
L 2963 2406 
L 4013 2406 
L 4013 1754 
L 2963 1754 
z
M 4013 3219 
L 4013 2598 
L 2963 2598 
L 2963 3219 
L 4013 3219 
z
M 5427 3219 
L 5427 2598 
L 4294 2598 
L 4294 3219 
L 5427 3219 
z
M 4294 1754 
L 4294 2406 
L 5427 2406 
L 5427 1754 
L 4294 1754 
z
M 5421 -26 
L 4294 -26 
L 4294 730 
L 5741 730 
C 5824 730 5888 762 5901 832 
C 5722 1011 5427 1235 5427 1235 
L 5178 922 
L 4294 922 
L 4294 1562 
L 5427 1562 
L 5427 1370 
L 5466 1370 
C 5562 1370 5709 1446 5715 1485 
L 5715 3181 
C 5818 3194 5920 3245 5958 3290 
L 5549 3610 
L 5370 3411 
L 4294 3411 
L 4294 3974 
L 5971 3974 
C 6061 3974 6125 4006 6138 4070 
C 5952 4250 5651 4480 5651 4480 
L 5389 4160 
L 4294 4160 
L 4294 4762 
C 4742 4826 5152 4896 5491 4966 
C 5626 4909 5728 4909 5786 4954 
L 5395 5325 
C 4736 5094 3482 4832 2438 4730 
L 2464 4602 
C 2976 4614 3507 4666 4013 4723 
L 4013 4160 
L 2342 4160 
L 2387 3974 
L 4013 3974 
L 4013 3411 
L 2995 3411 
L 2682 3571 
L 2682 1312 
L 2726 1312 
C 2842 1312 2963 1382 2963 1414 
L 2963 1562 
L 4013 1562 
L 4013 922 
L 2534 922 
L 2586 730 
L 4013 730 
L 4013 -26 
L 2106 -26 
L 2157 -211 
L 6016 -211 
C 6099 -211 6157 -179 6176 -115 
C 5990 64 5690 301 5690 301 
L 5421 -26 
z
" transform="scale(0.015625)"/>
       <path id="NotoSerifCJKjp-ExtraLight-5584" d="M 1651 38 
L 1651 1037 
L 4749 1037 
L 4749 38 
L 1651 38 
z
M 4691 1222 
L 1683 1222 
L 1370 1382 
L 1370 -467 
L 1414 -467 
C 1530 -467 1651 -397 1651 -371 
L 1651 -154 
L 4749 -154 
L 4749 -422 
L 4787 -422 
C 4877 -422 5024 -346 5030 -307 
L 5030 992 
C 5139 1011 5242 1062 5280 1101 
L 4870 1414 
L 4691 1222 
z
M 3053 2746 
L 3053 1933 
L 2150 1933 
C 2317 2029 2317 2451 1677 2746 
L 3053 2746 
z
M 4410 2746 
C 4314 2496 4160 2170 4019 1933 
L 3334 1933 
L 3334 2746 
L 4410 2746 
z
M 5338 1933 
L 4211 1933 
C 4397 2106 4582 2323 4704 2490 
C 4838 2490 4915 2541 4941 2618 
L 4486 2746 
L 5779 2746 
C 5869 2746 5926 2771 5946 2842 
C 5760 3021 5472 3245 5472 3245 
L 5216 2931 
L 3334 2931 
L 3334 3546 
L 5158 3546 
C 5242 3546 5299 3578 5312 3642 
C 5146 3814 4870 4032 4870 4032 
L 4627 3731 
L 3334 3731 
L 3334 4333 
L 5498 4333 
C 5587 4333 5645 4365 5664 4435 
C 5478 4608 5190 4838 5190 4838 
L 4934 4518 
L 3974 4518 
C 4166 4691 4365 4890 4486 5062 
C 4627 5056 4710 5101 4742 5178 
L 4218 5338 
C 4102 5088 3936 4762 3776 4518 
L 2323 4518 
C 2496 4627 2470 5094 1734 5325 
L 1664 5280 
C 1869 5107 2080 4800 2106 4544 
C 2118 4531 2131 4525 2144 4518 
L 762 4518 
L 819 4333 
L 3053 4333 
L 3053 3731 
L 1133 3731 
L 1184 3546 
L 3053 3546 
L 3053 2931 
L 512 2931 
L 570 2746 
L 1574 2746 
L 1542 2726 
C 1722 2541 1920 2221 1939 1965 
C 1958 1952 1971 1939 1990 1933 
L 307 1933 
L 365 1747 
L 5920 1747 
C 6010 1747 6067 1779 6086 1850 
C 5894 2022 5600 2259 5600 2259 
L 5338 1933 
z
" transform="scale(0.015625)"/>
      </defs>
      <use xlink:href="#NotoSerifCJKjp-ExtraLight-674e"/>
      <use xlink:href="#NotoSerifCJKjp-ExtraLight-7a2e" x="99.999985"/>
      <use xlink:href="#NotoSerifCJKjp-ExtraLight-5584" x="199.999969"/>
     </g>
    </g>
    <g clip-path="url(#p8a92f5a421)">
     <!--  -->
     <g transform="translate(2121.686835 371.569756) scale(0.12 -0.12)"/>
    </g>
   </g>
   <g id="text_26">
    <g clip-path="url(#p8a92f5a421)">
     <!-- 權鑄 -->
     <g transform="translate(1737.639237 172.539512) scale(0.12 -0.12)">
      <defs>
       <path id="NotoSerifCJKjp-ExtraLight-9444" d="M 2522 4531 
L 3949 4531 
L 3949 4083 
L 2669 4083 
L 2720 3898 
L 5568 3898 
C 5651 3898 5715 3930 5722 4000 
C 5562 4173 5286 4410 5286 4410 
L 5037 4083 
L 4230 4083 
L 4230 4531 
L 5869 4531 
C 5958 4531 6016 4563 6035 4634 
C 5862 4813 5587 5043 5587 5043 
L 5344 4723 
L 4230 4723 
L 4230 5107 
C 4371 5133 4429 5190 4442 5274 
L 3949 5325 
L 3949 4723 
L 2470 4723 
L 2522 4531 
z
M 1862 2611 
L 1562 2611 
L 1562 3456 
L 2317 3456 
C 2349 3456 2374 3462 2394 3469 
L 2426 3360 
L 5517 3360 
C 5472 3181 5414 2976 5370 2842 
L 5466 2790 
C 5613 2925 5786 3149 5888 3309 
C 6010 3315 6080 3328 6131 3373 
L 5709 3782 
L 5485 3552 
L 2470 3552 
L 2470 3558 
C 2310 3718 2035 3936 2035 3936 
L 1805 3642 
L 710 3642 
C 1082 4070 1389 4576 1594 5011 
C 1926 4678 2144 4288 2234 4006 
C 2496 3770 2938 4378 1632 5094 
C 1792 5101 1856 5146 1875 5210 
L 1331 5325 
C 1133 4691 666 3789 179 3264 
L 262 3194 
C 410 3315 550 3456 678 3603 
L 717 3456 
L 1280 3456 
L 1280 2611 
L 339 2611 
L 390 2419 
L 1280 2419 
L 1280 288 
C 858 186 506 102 307 70 
L 480 -365 
C 538 -346 589 -294 614 -218 
C 1408 64 2022 314 2483 486 
L 2458 589 
C 2150 506 1843 429 1562 358 
L 1562 2419 
L 2406 2419 
C 2496 2419 2560 2451 2573 2522 
C 2394 2694 2106 2918 2106 2918 
L 1862 2611 
z
M 1850 698 
C 2022 998 2182 1440 2291 1824 
C 2419 1830 2483 1894 2502 1958 
L 1978 2080 
C 1933 1619 1837 1094 1734 742 
L 1850 698 
z
M 467 1965 
C 608 1632 742 1101 723 710 
C 998 416 1312 1126 563 1997 
L 467 1965 
z
M 2643 2426 
L 2694 2240 
L 5574 2240 
C 5658 2240 5715 2272 5728 2342 
C 5562 2490 5299 2682 5299 2682 
L 5075 2426 
L 4237 2426 
L 4237 2842 
L 5075 2842 
C 5165 2842 5222 2874 5235 2944 
C 5069 3098 4819 3277 4819 3277 
L 4595 3034 
L 2701 3034 
L 2752 2842 
L 3955 2842 
L 3955 2426 
L 2643 2426 
z
M 2618 1715 
L 5952 1715 
C 6035 1715 6099 1747 6118 1818 
C 5920 1978 5638 2176 5638 2176 
L 5382 1907 
L 2566 1907 
L 2618 1715 
z
M 4038 794 
C 4243 666 4461 416 4518 218 
C 4819 26 5011 640 4109 851 
L 4038 794 
z
M 2835 250 
L 2835 1139 
L 3494 1139 
L 3494 250 
L 2835 250 
z
M 5517 1197 
L 5370 1197 
L 5370 1472 
C 5517 1498 5574 1536 5594 1626 
L 5088 1690 
L 5088 1197 
L 3974 1197 
C 3981 1203 3987 1210 3994 1216 
L 3616 1510 
L 3443 1331 
L 2867 1331 
L 2554 1485 
L 2554 -307 
L 2598 -307 
C 2720 -307 2835 -237 2835 -211 
L 2835 58 
L 3494 58 
L 3494 -262 
L 3533 -262 
C 3622 -262 3770 -186 3776 -154 
L 3776 1114 
C 3859 1126 3936 1158 3974 1197 
L 4026 1011 
L 5088 1011 
L 5088 6 
C 5088 -83 5062 -115 4947 -115 
C 4832 -115 4262 -77 4262 -77 
L 4262 -173 
C 4499 -198 4653 -230 4742 -282 
C 4819 -320 4845 -397 4864 -467 
C 5312 -422 5370 -262 5370 -6 
L 5370 1011 
L 5965 1011 
C 6054 1011 6112 1043 6131 1107 
C 5978 1267 5728 1478 5728 1478 
L 5517 1197 
z
" transform="scale(0.015625)"/>
      </defs>
      <use xlink:href="#NotoSerifCJKjp-ExtraLight-6b0a"/>
      <use xlink:href="#NotoSerifCJKjp-ExtraLight-9444" x="99.999985"/>
     </g>
    </g>
    <g clip-path="url(#p8a92f5a421)">
     <!-- 密直提學 -->
     <g transform="translate(1725.639237 187.179512) scale(0.12 -0.12)">
      <defs>
       <path id="NotoSerifCJKjp-ExtraLight-5bc6" d="M 5440 4448 
C 5338 4230 5184 3962 5075 3795 
L 5171 3738 
C 5389 3910 5696 4192 5850 4403 
C 5971 4410 6048 4416 6099 4454 
L 5683 4870 
L 5453 4634 
L 3334 4634 
L 3334 5094 
C 3488 5114 3558 5178 3571 5267 
L 3053 5325 
L 3053 4634 
L 1210 4634 
C 1203 4736 1190 4845 1158 4960 
L 1043 4954 
C 1069 4506 826 4122 544 3987 
C 442 3923 371 3814 422 3712 
C 486 3603 678 3622 826 3725 
C 992 3834 1184 4070 1210 4448 
L 5440 4448 
z
M 2477 4198 
C 2790 4051 3181 3757 3309 3507 
C 3699 3341 3795 4134 2534 4269 
L 2477 4198 
z
M 1402 3590 
C 1350 3142 986 2822 678 2720 
C 570 2656 499 2560 544 2470 
C 602 2362 794 2387 954 2470 
C 1210 2598 1587 2938 1517 3584 
L 1402 3590 
z
M 3552 1946 
C 4749 1946 4928 1990 4928 2150 
C 4928 2208 4890 2240 4768 2272 
L 4755 2989 
L 4666 2989 
C 4614 2675 4557 2387 4512 2298 
C 4486 2240 4461 2227 4384 2221 
C 4275 2208 3955 2208 3539 2208 
L 2669 2208 
C 2445 2208 2368 2221 2336 2266 
C 3283 2701 4064 3264 4544 3853 
C 4691 3795 4749 3808 4806 3872 
L 4403 4147 
C 3949 3533 3206 2957 2323 2496 
L 2323 3616 
C 2432 3635 2496 3693 2502 3770 
L 2035 3834 
L 2035 2349 
C 1472 2080 870 1856 250 1696 
L 288 1581 
C 909 1715 1504 1907 2054 2138 
C 2099 1990 2246 1946 2650 1946 
L 3552 1946 
z
M 5037 134 
L 3354 134 
L 3354 1510 
C 3494 1530 3552 1587 3565 1670 
L 3072 1728 
L 3072 134 
L 1408 134 
L 1408 1133 
C 1562 1158 1626 1216 1645 1312 
L 1120 1370 
L 1120 -474 
L 1178 -474 
C 1286 -474 1408 -397 1408 -352 
L 1408 -58 
L 5037 -58 
L 5037 -410 
L 5094 -410 
C 5203 -410 5318 -339 5318 -294 
L 5318 1133 
C 5478 1158 5542 1216 5562 1312 
L 5037 1370 
L 5037 134 
z
M 4698 3462 
C 5094 3206 5581 2733 5702 2342 
C 6093 2099 6246 3008 4768 3526 
L 4698 3462 
z
" transform="scale(0.015625)"/>
       <path id="NotoSerifCJKjp-ExtraLight-63d0" d="M 5261 4800 
L 5261 4154 
L 3181 4154 
L 3181 4800 
L 5261 4800 
z
M 3181 3347 
L 3181 3968 
L 5261 3968 
L 5261 3347 
L 3181 3347 
z
M 3181 3162 
L 5261 3162 
L 5261 2835 
L 5299 2835 
C 5389 2835 5536 2918 5542 2957 
L 5542 4736 
C 5670 4762 5773 4813 5818 4864 
L 5382 5197 
L 5197 4986 
L 3206 4986 
L 2893 5146 
L 2893 2810 
L 2938 2810 
C 3059 2810 3181 2880 3181 2912 
L 3181 3162 
z
M 2528 2822 
L 1594 2483 
L 1594 3699 
L 2387 3699 
C 2477 3699 2534 3731 2554 3802 
C 2381 3974 2106 4186 2106 4186 
L 1869 3891 
L 1594 3891 
L 1594 5101 
C 1747 5120 1811 5184 1830 5274 
L 1312 5331 
L 1312 3891 
L 288 3891 
L 339 3699 
L 1312 3699 
L 1312 2381 
C 832 2208 435 2074 218 2016 
L 390 1606 
C 448 1626 499 1690 512 1766 
C 800 1894 1062 2016 1312 2125 
L 1312 77 
C 1312 -26 1280 -58 1165 -58 
C 1056 -58 480 -13 480 -13 
L 480 -122 
C 717 -147 870 -179 960 -237 
C 1037 -288 1069 -378 1088 -467 
C 1542 -410 1594 -230 1594 45 
L 1594 2259 
C 1965 2438 2291 2598 2566 2726 
L 2528 2822 
z
M 4307 1171 
L 5677 1171 
C 5754 1171 5818 1203 5837 1274 
C 5658 1453 5363 1677 5363 1677 
L 5114 1363 
L 4307 1363 
L 4307 2310 
L 5894 2310 
C 5984 2310 6042 2342 6061 2406 
C 5875 2579 5594 2790 5594 2790 
L 5338 2496 
L 2406 2496 
L 2458 2310 
L 4026 2310 
L 4026 26 
C 3622 154 3341 435 3130 1030 
C 3200 1235 3258 1459 3302 1696 
C 3443 1702 3507 1766 3526 1843 
L 3021 1939 
C 2906 870 2509 109 1907 -378 
L 1990 -467 
C 2464 -186 2822 250 3059 838 
C 3405 -134 3923 -352 4794 -352 
L 5997 -352 
C 6010 -243 6067 -173 6182 -154 
L 6182 -64 
C 5837 -70 5133 -70 4819 -70 
C 4634 -70 4461 -64 4307 -38 
L 4307 1171 
z
" transform="scale(0.015625)"/>
       <path id="NotoSerifCJKjp-ExtraLight-5b78" d="M 3642 4205 
C 3565 4077 3462 3942 3341 3814 
C 3200 3891 3021 3968 2797 4032 
L 2739 3962 
C 2880 3885 3040 3776 3187 3654 
C 2989 3469 2765 3302 2547 3168 
L 2618 3066 
C 2867 3181 3123 3334 3354 3501 
C 3462 3386 3546 3270 3590 3155 
C 3814 3027 3930 3347 3552 3661 
C 3661 3763 3757 3866 3834 3962 
C 3942 3930 4013 3942 4045 4006 
L 3642 4205 
z
M 2598 4192 
C 2835 4301 3078 4454 3290 4614 
C 3398 4512 3488 4410 3546 4320 
C 3744 4218 3853 4493 3475 4774 
C 3571 4858 3654 4947 3718 5030 
C 3827 4998 3904 5011 3936 5075 
L 3533 5280 
C 3462 5158 3366 5030 3251 4909 
C 3130 4973 2970 5037 2778 5088 
L 2714 5011 
C 2842 4947 2976 4858 3110 4762 
C 2931 4582 2726 4422 2528 4294 
L 2598 4192 
z
M 5446 2810 
C 5363 2624 5254 2400 5178 2272 
L 5274 2221 
C 5453 2355 5715 2598 5850 2771 
C 5971 2771 6048 2778 6093 2822 
L 5677 3226 
L 5453 3002 
L 5197 3002 
L 5331 4819 
C 5434 4832 5491 4845 5530 4883 
L 5178 5216 
L 4998 5018 
L 4051 5018 
L 4109 4832 
L 5043 4832 
L 5005 4352 
L 4096 4352 
L 4154 4160 
L 4992 4160 
L 4954 3674 
L 4090 3674 
L 4147 3488 
L 4941 3488 
L 4902 3002 
L 1485 3002 
L 1466 3488 
L 2355 3488 
C 2432 3488 2490 3520 2509 3590 
C 2362 3731 2144 3910 2144 3910 
L 1946 3674 
L 1459 3674 
L 1434 4160 
L 2310 4160 
C 2387 4160 2445 4192 2464 4262 
C 2330 4410 2106 4576 2106 4576 
L 1926 4352 
L 1427 4352 
L 1402 4826 
C 1741 4877 2093 4973 2317 5043 
C 2394 5011 2458 5018 2483 5050 
L 2131 5344 
C 1984 5254 1741 5120 1504 5005 
L 1101 5139 
L 1197 3002 
L 947 3002 
C 941 3072 934 3142 922 3219 
L 819 3219 
C 800 2790 557 2509 416 2419 
C 102 2227 326 1946 621 2118 
C 813 2234 934 2477 954 2810 
L 5446 2810 
z
M 5254 1178 
L 3347 1178 
L 3347 1414 
C 3494 1440 3552 1485 3571 1568 
L 3552 1568 
C 3968 1696 4410 1894 4717 2048 
C 4845 2054 4928 2067 4979 2106 
L 4576 2483 
L 4352 2266 
L 1472 2266 
L 1523 2074 
L 4186 2074 
C 3955 1907 3667 1728 3392 1594 
L 3066 1632 
L 3066 1178 
L 371 1178 
L 429 992 
L 3066 992 
L 3066 51 
C 3066 -51 3034 -83 2906 -83 
C 2778 -83 2080 -38 2080 -38 
L 2080 -141 
C 2368 -173 2547 -211 2643 -262 
C 2733 -314 2771 -397 2784 -486 
C 3290 -435 3347 -250 3347 26 
L 3347 992 
L 5850 992 
C 5939 992 5997 1024 6016 1088 
C 5824 1274 5517 1510 5517 1510 
L 5254 1178 
z
" transform="scale(0.015625)"/>
      </defs>
      <use xlink:href="#NotoSerifCJKjp-ExtraLight-5bc6"/>
      <use xlink:href="#NotoSerifCJKjp-ExtraLight-76f4" x="99.999985"/>
      <use xlink:href="#NotoSerifCJKjp-ExtraLight-63d0" x="199.999969"/>
      <use xlink:href="#NotoSerifCJKjp-ExtraLight-5b78" x="299.999954"/>
     </g>
    </g>
   </g>
  </g>
 </g>
 <defs>
  <clipPath id="p8a92f5a421">
   <rect x="360" y="129.6" width="2232" height="831.6"/>
  </clipPath>
 </defs>
</svg>
