<?xml version="1.0" encoding="utf-8" standalone="no"?>
<!DOCTYPE svg PUBLIC "-//W3C//DTD SVG 1.1//EN"
  "http://www.w3.org/Graphics/SVG/1.1/DTD/svg11.dtd">
<svg xmlns:xlink="http://www.w3.org/1999/xlink" width="2880pt" height="1080pt" viewBox="0 0 2880 1080" xmlns="http://www.w3.org/2000/svg" version="1.1">
 <metadata>
  <rdf:RDF xmlns:dc="http://purl.org/dc/elements/1.1/" xmlns:cc="http://creativecommons.org/ns#" xmlns:rdf="http://www.w3.org/1999/02/22-rdf-syntax-ns#">
   <cc:Work>
    <dc:type rdf:resource="http://purl.org/dc/dcmitype/StillImage"/>
    <dc:date>2025-06-20T00:22:00.515416</dc:date>
    <dc:format>image/svg+xml</dc:format>
    <dc:creator>
     <cc:Agent>
      <dc:title>Matplotlib v3.9.4, https://matplotlib.org/</dc:title>
     </cc:Agent>
    </dc:creator>
   </cc:Work>
  </rdf:RDF>
 </metadata>
 <defs>
  <style type="text/css">*{stroke-linejoin: round; stroke-linecap: butt}</style>
 </defs>
 <g id="figure_1">
  <g id="patch_1">
   <path d="M 0 1080 
L 2880 1080 
L 2880 0 
L 0 0 
z
" style="fill: #ffffff"/>
  </g>
  <g id="axes_1">
   <g id="patch_2">
    <path d="M 978.473577 242.9266 
Q 671.656439 515.120346 491.187933 880.94554 
" clip-path="url(#p9752149e0e)" style="fill: none; stroke: #000000; stroke-width: 2; stroke-linecap: round"/>
    <path d="M 494.75121 878.243124 
L 491.187933 880.94554 
L 491.163966 876.473468 
z
" clip-path="url(#p9752149e0e)" style="stroke: #000000; stroke-width: 2; stroke-linecap: round"/>
   </g>
   <g id="patch_3">
    <path d="M 979.899363 244.219778 
Q 771.56424 534.743985 688.352388 880.127692 
" clip-path="url(#p9752149e0e)" style="fill: none; stroke: #000000; stroke-width: 2; stroke-linecap: round"/>
    <path d="M 691.233649 876.70741 
L 688.352388 880.127692 
L 687.344918 875.770514 
z
" clip-path="url(#p9752149e0e)" style="stroke: #000000; stroke-width: 2; stroke-linecap: round"/>
   </g>
   <g id="patch_4">
    <path d="M 982.022953 245.338805 
Q 871.410732 554.239558 884.779933 879.836935 
" clip-path="url(#p9752149e0e)" style="fill: none; stroke: #000000; stroke-width: 2; stroke-linecap: round"/>
    <path d="M 886.614145 875.75825 
L 884.779933 879.836935 
L 882.617513 875.922354 
z
" clip-path="url(#p9752149e0e)" style="stroke: #000000; stroke-width: 2; stroke-linecap: round"/>
   </g>
   <g id="patch_5">
    <path d="M 984.585951 245.844817 
Q 971.124948 573.676389 1080.983275 880.471981 
" clip-path="url(#p9752149e0e)" style="fill: none; stroke: #000000; stroke-width: 2; stroke-linecap: round"/>
    <path d="M 1081.517712 876.031894 
L 1080.983275 880.471981 
L 1077.751867 877.380379 
z
" clip-path="url(#p9752149e0e)" style="stroke: #000000; stroke-width: 2; stroke-linecap: round"/>
   </g>
   <g id="patch_6">
    <path d="M 986.972144 245.617612 
Q 1070.708254 593.174949 1277.740818 881.881781 
" clip-path="url(#p9752149e0e)" style="fill: none; stroke: #000000; stroke-width: 2; stroke-linecap: round"/>
    <path d="M 1277.035103 877.465678 
L 1277.740818 881.881781 
L 1273.784506 879.796691 
z
" clip-path="url(#p9752149e0e)" style="stroke: #000000; stroke-width: 2; stroke-linecap: round"/>
   </g>
   <g id="patch_7">
    <path d="M 988.778145 244.966217 
Q 1170.232228 612.795885 1475.372986 883.506323 
" clip-path="url(#p9752149e0e)" style="fill: none; stroke: #000000; stroke-width: 2; stroke-linecap: round"/>
    <path d="M 1473.708077 879.355651 
L 1475.372986 883.506323 
L 1471.053503 882.347847 
z
" clip-path="url(#p9752149e0e)" style="stroke: #000000; stroke-width: 2; stroke-linecap: round"/>
   </g>
   <g id="patch_8">
    <path d="M 1779.737093 245.338805 
Q 1669.124873 554.239558 1682.494073 879.836935 
" clip-path="url(#p9752149e0e)" style="fill: none; stroke: #000000; stroke-width: 2; stroke-linecap: round"/>
    <path d="M 1684.328285 875.75825 
L 1682.494073 879.836935 
L 1680.331653 875.922354 
z
" clip-path="url(#p9752149e0e)" style="stroke: #000000; stroke-width: 2; stroke-linecap: round"/>
   </g>
   <g id="patch_9">
    <path d="M 1782.300092 245.844817 
Q 1768.839088 573.676389 1878.697416 880.471981 
" clip-path="url(#p9752149e0e)" style="fill: none; stroke: #000000; stroke-width: 2; stroke-linecap: round"/>
    <path d="M 1879.231852 876.031894 
L 1878.697416 880.471981 
L 1875.466008 877.380379 
z
" clip-path="url(#p9752149e0e)" style="stroke: #000000; stroke-width: 2; stroke-linecap: round"/>
   </g>
   <g id="patch_10">
    <path d="M 2277.164075 244.82788 
Q 2117.786157 544.503862 2082.925614 879.882387 
" clip-path="url(#p9752149e0e)" style="fill: none; stroke: #000000; stroke-width: 2; stroke-linecap: round"/>
    <path d="M 2085.328444 876.110595 
L 2082.925614 879.882387 
L 2081.349879 875.697048 
z
" clip-path="url(#p9752149e0e)" style="stroke: #000000; stroke-width: 2; stroke-linecap: round"/>
   </g>
   <g id="patch_11">
    <path d="M 2279.570502 245.691532 
Q 2217.572494 563.959271 2279.143392 880.032198 
" clip-path="url(#p9752149e0e)" style="fill: none; stroke: #000000; stroke-width: 2; stroke-linecap: round"/>
    <path d="M 2280.341669 875.723587 
L 2279.143392 880.032198 
L 2276.415469 876.488409 
z
" clip-path="url(#p9752149e0e)" style="stroke: #000000; stroke-width: 2; stroke-linecap: round"/>
   </g>
   <g id="patch_12">
    <path d="M 2282.12149 245.807037 
Q 2317.165081 583.400494 2475.445178 881.11154 
" clip-path="url(#p9752149e0e)" style="fill: none; stroke: #000000; stroke-width: 2; stroke-linecap: round"/>
    <path d="M 2475.33337 876.640802 
L 2475.445178 881.11154 
L 2471.801503 878.518543 
z
" clip-path="url(#p9752149e0e)" style="stroke: #000000; stroke-width: 2; stroke-linecap: round"/>
   </g>
   <g id="text_1">
    <g id="patch_13">
     <path d="M 741.652163 572.541745 
L 745.531393 567.456905 
Q 747.714952 564.594726 744.852773 562.411166 
L 734.73974 554.695924 
Q 731.877561 552.512365 729.694002 555.374544 
L 725.814772 560.459384 
Q 723.631213 563.321563 726.493392 565.505122 
L 736.606425 573.220365 
Q 739.468604 575.403924 741.652163 572.541745 
z
" clip-path="url(#p9752149e0e)" style="fill: #ffffff; stroke: #ffffff; stroke-linejoin: miter"/>
    </g>
    <g clip-path="url(#p9752149e0e)">
     <!-- 5 -->
     <g transform="translate(736.309429 568.465768) rotate(-52.659955) scale(0.12 -0.12)">
      <defs>
       <path id="NotoSerifCJKjp-ExtraLight-35" d="M 947 4275 
L 2950 4275 
L 2950 4627 
L 755 4627 
L 614 2483 
L 755 2464 
C 992 2573 1248 2624 1536 2624 
C 2208 2624 2662 2214 2662 1395 
C 2662 602 2227 102 1459 102 
C 1235 102 1062 134 896 205 
L 736 659 
C 678 851 614 922 480 922 
C 378 922 294 858 262 762 
C 397 198 858 -90 1498 -90 
C 2470 -90 3066 550 3066 1446 
C 3066 2323 2496 2854 1626 2854 
C 1344 2854 1094 2810 845 2707 
L 947 4275 
z
" transform="scale(0.015625)"/>
      </defs>
      <use xlink:href="#NotoSerifCJKjp-ExtraLight-35"/>
     </g>
    </g>
   </g>
   <g id="text_2">
    <g id="patch_14">
     <path d="M 843.116661 571.011214 
L 845.778545 565.195856 
Q 847.276879 561.922479 844.003502 560.424145 
L 832.437571 555.130032 
Q 829.164194 553.631698 827.66586 556.905075 
L 825.003976 562.720433 
Q 823.505642 565.99381 826.779019 567.492144 
L 838.34495 572.786257 
Q 841.618327 574.284591 843.116661 571.011214 
z
" clip-path="url(#p9752149e0e)" style="fill: #ffffff; stroke: #ffffff; stroke-linejoin: miter"/>
    </g>
    <g clip-path="url(#p9752149e0e)">
     <!-- 6 -->
     <g transform="translate(837.006358 568.214324) rotate(-65.404848) scale(0.12 -0.12)">
      <defs>
       <path id="NotoSerifCJKjp-ExtraLight-36" d="M 1754 102 
C 1094 102 730 794 730 1856 
C 730 1926 730 1997 736 2061 
C 1069 2426 1402 2560 1766 2560 
C 2330 2560 2688 2150 2688 1357 
C 2688 557 2285 102 1754 102 
z
M 2963 4717 
C 1306 4512 326 3238 326 1811 
C 326 653 851 -90 1741 -90 
C 2515 -90 3091 499 3091 1408 
C 3091 2266 2611 2803 1862 2803 
C 1440 2803 1069 2630 755 2272 
C 896 3437 1645 4314 2995 4582 
L 2963 4717 
z
" transform="scale(0.015625)"/>
      </defs>
      <use xlink:href="#NotoSerifCJKjp-ExtraLight-36"/>
     </g>
    </g>
   </g>
   <g id="text_3">
    <g id="patch_15">
     <path d="M 944.469246 568.621661 
L 945.433913 562.299206 
Q 945.976909 558.740392 942.418095 558.197396 
L 929.843619 556.27881 
Q 926.284806 555.735814 925.74181 559.294628 
L 924.777143 565.617083 
Q 924.234148 569.175897 927.792961 569.718893 
L 940.367437 571.637479 
Q 943.92625 572.180475 944.469246 568.621661 
z
" clip-path="url(#p9752149e0e)" style="fill: #ffffff; stroke: #ffffff; stroke-linejoin: miter"/>
    </g>
    <g clip-path="url(#p9752149e0e)">
     <!-- 4 -->
     <g transform="translate(937.826127 567.608068) rotate(-81.324842) scale(0.12 -0.12)">
      <defs>
       <path id="NotoSerifCJKjp-ExtraLight-34" d="M 480 1805 
L 2163 4224 
L 2163 1805 
L 480 1805 
z
M 3309 1805 
L 2528 1805 
L 2528 4685 
L 2272 4685 
L 211 1747 
L 211 1510 
L 2163 1510 
L 2163 0 
L 2528 0 
L 2528 1510 
L 3309 1510 
L 3309 1805 
z
" transform="scale(0.015625)"/>
      </defs>
      <use xlink:href="#NotoSerifCJKjp-ExtraLight-34"/>
     </g>
    </g>
   </g>
   <g id="text_4">
    <g id="patch_16">
     <path d="M 1024.491411 562.299206 
L 1025.456077 568.621661 
Q 1025.999073 572.180475 1029.557887 571.637479 
L 1042.132362 569.718893 
Q 1045.691176 569.175897 1045.14818 565.617083 
L 1044.183514 559.294628 
Q 1043.640518 555.735814 1040.081704 556.27881 
L 1027.507229 558.197396 
Q 1023.948415 558.740392 1024.491411 562.299206 
z
" clip-path="url(#p9752149e0e)" style="fill: #ffffff; stroke: #ffffff; stroke-linejoin: miter"/>
    </g>
    <g clip-path="url(#p9752149e0e)">
     <!-- 3 -->
     <g transform="translate(1031.13453 561.285613) rotate(-278.675158) scale(0.12 -0.12)">
      <defs>
       <path id="NotoSerifCJKjp-ExtraLight-33" d="M 1062 4435 
C 1242 4499 1408 4525 1594 4525 
C 2176 4525 2496 4166 2496 3584 
C 2496 2918 2035 2541 1402 2541 
L 1126 2541 
L 1126 2330 
L 1434 2330 
C 2234 2330 2637 1920 2637 1229 
C 2637 557 2221 102 1498 102 
C 1286 102 1107 141 941 211 
L 787 659 
C 730 845 659 928 531 928 
C 422 928 339 864 301 755 
C 461 186 928 -90 1587 -90 
C 2426 -90 3040 410 3040 1203 
C 3040 1869 2656 2330 1901 2445 
C 2541 2605 2899 3059 2899 3597 
C 2899 4262 2426 4717 1664 4717 
C 1107 4717 570 4480 429 3885 
C 461 3776 544 3731 640 3731 
C 774 3731 845 3795 909 3981 
L 1062 4435 
z
" transform="scale(0.015625)"/>
      </defs>
      <use xlink:href="#NotoSerifCJKjp-ExtraLight-33"/>
     </g>
    </g>
   </g>
   <g id="text_5">
    <g id="patch_17">
     <path d="M 1124.146779 565.195856 
L 1126.808663 571.011214 
Q 1128.306996 574.284591 1131.580373 572.786257 
L 1143.146305 567.492144 
Q 1146.419681 565.99381 1144.921347 562.720433 
L 1142.259464 556.905075 
Q 1140.76113 553.631698 1137.487753 555.130032 
L 1125.921822 560.424145 
Q 1122.648445 561.922479 1124.146779 565.195856 
z
" clip-path="url(#p9752149e0e)" style="fill: #ffffff; stroke: #ffffff; stroke-linejoin: miter"/>
    </g>
    <g clip-path="url(#p9752149e0e)">
     <!-- 2 -->
     <g transform="translate(1130.257082 562.398966) rotate(-294.595152) scale(0.12 -0.12)">
      <defs>
       <path id="NotoSerifCJKjp-ExtraLight-32" d="M 646 358 
C 1069 838 1472 1299 1645 1491 
C 2560 2515 2886 2970 2886 3520 
C 2886 4250 2458 4717 1638 4717 
C 1024 4717 486 4397 326 3821 
C 371 3725 454 3667 550 3667 
C 672 3667 755 3750 819 3949 
L 1005 4422 
C 1197 4499 1363 4525 1542 4525 
C 2144 4525 2483 4096 2483 3514 
C 2483 2995 2214 2547 1536 1715 
C 1222 1344 787 806 339 275 
L 339 0 
L 3104 0 
L 3104 358 
L 646 358 
z
" transform="scale(0.015625)"/>
      </defs>
      <use xlink:href="#NotoSerifCJKjp-ExtraLight-32"/>
     </g>
    </g>
   </g>
   <g id="text_6">
    <g id="patch_18">
     <path d="M 1224.389994 567.45683 
L 1228.269185 572.5417 
Q 1230.452722 575.403895 1233.314918 573.220358 
L 1243.428009 565.505192 
Q 1246.290205 563.321654 1244.106667 560.459459 
L 1240.227476 555.374589 
Q 1238.043939 552.512394 1235.181743 554.695931 
L 1225.068652 562.411097 
Q 1222.206456 564.594635 1224.389994 567.45683 
z
" clip-path="url(#p9752149e0e)" style="fill: #ffffff; stroke: #ffffff; stroke-linejoin: miter"/>
    </g>
    <g clip-path="url(#p9752149e0e)">
     <!-- 1 -->
     <g transform="translate(1229.732759 563.380893) rotate(-307.339611) scale(0.12 -0.12)">
      <defs>
       <path id="NotoSerifCJKjp-ExtraLight-31" d="M 1997 250 
C 1990 659 1984 1062 1984 1459 
L 1984 3616 
L 2010 4614 
L 1914 4691 
L 614 4346 
L 614 4160 
L 1600 4333 
L 1600 1459 
C 1600 1062 1594 653 1587 250 
L 544 173 
L 544 0 
L 3002 0 
L 3002 173 
L 1997 250 
z
" transform="scale(0.015625)"/>
      </defs>
      <use xlink:href="#NotoSerifCJKjp-ExtraLight-31"/>
     </g>
    </g>
   </g>
   <g id="text_7">
    <g id="patch_19">
     <path d="M 1742.183387 568.621661 
L 1743.148053 562.299206 
Q 1743.691049 558.740392 1740.132235 558.197396 
L 1727.55776 556.27881 
Q 1723.998946 555.735814 1723.45595 559.294628 
L 1722.491284 565.617083 
Q 1721.948288 569.175897 1725.507102 569.718893 
L 1738.081577 571.637479 
Q 1741.640391 572.180475 1742.183387 568.621661 
z
" clip-path="url(#p9752149e0e)" style="fill: #ffffff; stroke: #ffffff; stroke-linejoin: miter"/>
    </g>
    <g clip-path="url(#p9752149e0e)">
     <!-- 1 -->
     <g transform="translate(1735.540268 567.608068) rotate(-81.324842) scale(0.12 -0.12)">
      <use xlink:href="#NotoSerifCJKjp-ExtraLight-31"/>
     </g>
    </g>
   </g>
   <g id="text_8">
    <g id="patch_20">
     <path d="M 1822.205551 562.299206 
L 1823.170218 568.621661 
Q 1823.713214 572.180475 1827.272027 571.637479 
L 1839.846503 569.718893 
Q 1843.405316 569.175897 1842.86232 565.617083 
L 1841.897654 559.294628 
Q 1841.354658 555.735814 1837.795844 556.27881 
L 1825.221369 558.197396 
Q 1821.662555 558.740392 1822.205551 562.299206 
z
" clip-path="url(#p9752149e0e)" style="fill: #ffffff; stroke: #ffffff; stroke-linejoin: miter"/>
    </g>
    <g clip-path="url(#p9752149e0e)">
     <!-- 2 -->
     <g transform="translate(1828.84867 561.285613) rotate(-278.675158) scale(0.12 -0.12)">
      <use xlink:href="#NotoSerifCJKjp-ExtraLight-32"/>
     </g>
    </g>
   </g>
   <g id="text_9">
    <g id="patch_21">
     <path d="M 2190.126857 569.923731 
L 2191.993539 563.806581 
Q 2193.044266 560.363331 2189.601016 559.312604 
L 2177.434865 555.600035 
Q 2173.991615 554.549308 2172.940888 557.992558 
L 2171.074205 564.109707 
Q 2170.023478 567.552958 2173.466728 568.603685 
L 2185.632879 572.316254 
Q 2189.07613 573.366981 2190.126857 569.923731 
z
" clip-path="url(#p9752149e0e)" style="fill: #ffffff; stroke: #ffffff; stroke-linejoin: miter"/>
    </g>
    <g clip-path="url(#p9752149e0e)">
     <!-- 4 -->
     <g transform="translate(2183.699456 567.962373) rotate(-73.030138) scale(0.12 -0.12)">
      <use xlink:href="#NotoSerifCJKjp-ExtraLight-34"/>
     </g>
    </g>
   </g>
   <g id="text_10">
    <g id="patch_22">
     <path d="M 2271.28814 560.760332 
L 2271.28814 567.155957 
Q 2271.28814 570.755957 2274.88814 570.755957 
L 2287.60814 570.755957 
Q 2291.20814 570.755957 2291.20814 567.155957 
L 2291.20814 560.760332 
Q 2291.20814 557.160332 2287.60814 557.160332 
L 2274.88814 557.160332 
Q 2271.28814 557.160332 2271.28814 560.760332 
z
" clip-path="url(#p9752149e0e)" style="fill: #ffffff; stroke: #ffffff; stroke-linejoin: miter"/>
    </g>
    <g clip-path="url(#p9752149e0e)">
     <!-- 3 -->
     <g transform="translate(2278.00814 560.760332) rotate(-270) scale(0.12 -0.12)">
      <use xlink:href="#NotoSerifCJKjp-ExtraLight-33"/>
     </g>
    </g>
   </g>
   <g id="text_11">
    <g id="patch_23">
     <path d="M 2370.453882 563.80515 
L 2372.319727 569.922555 
Q 2373.369983 573.365949 2376.813377 572.315693 
L 2388.980036 568.604789 
Q 2392.42343 567.554533 2391.373174 564.111139 
L 2389.507329 557.993734 
Q 2388.457073 554.55034 2385.013679 555.600596 
L 2372.84702 559.3115 
Q 2369.403626 560.361756 2370.453882 563.80515 
z
" clip-path="url(#p9752149e0e)" style="fill: #ffffff; stroke: #ffffff; stroke-linejoin: miter"/>
    </g>
    <g clip-path="url(#p9752149e0e)">
     <!-- 2 -->
     <g transform="translate(2376.88155 561.844672) rotate(-286.962021) scale(0.12 -0.12)">
      <use xlink:href="#NotoSerifCJKjp-ExtraLight-32"/>
     </g>
    </g>
   </g>
   <g id="matplotlib.axis_1">
    <g id="xtick_1"/>
    <g id="xtick_2"/>
    <g id="xtick_3"/>
    <g id="xtick_4"/>
    <g id="xtick_5"/>
    <g id="xtick_6"/>
   </g>
   <g id="matplotlib.axis_2">
    <g id="ytick_1"/>
    <g id="ytick_2"/>
    <g id="ytick_3"/>
    <g id="ytick_4"/>
    <g id="ytick_5"/>
   </g>
   <g id="PathCollection_1">
    <defs>
     <path id="m81be4794e7" d="M 0 15 
C 3.978047 15 7.793698 13.419505 10.606602 10.606602 
C 13.419505 7.793698 15 3.978047 15 0 
C 15 -3.978047 13.419505 -7.793698 10.606602 -10.606602 
C 7.793698 -13.419505 3.978047 -15 0 -15 
C -3.978047 -15 -7.793698 -13.419505 -10.606602 -10.606602 
C -13.419505 -7.793698 -15 -3.978047 -15 0 
C -15 3.978047 -13.419505 7.793698 -10.606602 10.606602 
C -7.793698 13.419505 -3.978047 15 0 15 
z
" style="stroke: #add8e6; stroke-opacity: 0.85"/>
    </defs>
    <g clip-path="url(#p9752149e0e)">
     <use xlink:href="#m81be4794e7" x="984.962662" y="237.192821" style="fill: #add8e6; fill-opacity: 0.85; stroke: #add8e6; stroke-opacity: 0.85"/>
     <use xlink:href="#m81be4794e7" x="486.383503" y="890.723468" style="fill: #add8e6; fill-opacity: 0.85; stroke: #add8e6; stroke-opacity: 0.85"/>
     <use xlink:href="#m81be4794e7" x="685.819859" y="890.723468" style="fill: #add8e6; fill-opacity: 0.85; stroke: #add8e6; stroke-opacity: 0.85"/>
     <use xlink:href="#m81be4794e7" x="885.248394" y="890.723468" style="fill: #add8e6; fill-opacity: 0.85; stroke: #add8e6; stroke-opacity: 0.85"/>
     <use xlink:href="#m81be4794e7" x="1084.676929" y="890.723468" style="fill: #add8e6; fill-opacity: 0.85; stroke: #add8e6; stroke-opacity: 0.85"/>
     <use xlink:href="#m81be4794e7" x="1284.105464" y="890.723468" style="fill: #add8e6; fill-opacity: 0.85; stroke: #add8e6; stroke-opacity: 0.85"/>
     <use xlink:href="#m81be4794e7" x="1483.533999" y="890.723468" style="fill: #add8e6; fill-opacity: 0.85; stroke: #add8e6; stroke-opacity: 0.85"/>
     <use xlink:href="#m81be4794e7" x="1782.676802" y="237.192821" style="fill: #add8e6; fill-opacity: 0.85; stroke: #add8e6; stroke-opacity: 0.85"/>
     <use xlink:href="#m81be4794e7" x="1682.962535" y="890.723468" style="fill: #add8e6; fill-opacity: 0.85; stroke: #add8e6; stroke-opacity: 0.85"/>
     <use xlink:href="#m81be4794e7" x="1882.39107" y="890.723468" style="fill: #add8e6; fill-opacity: 0.85; stroke: #add8e6; stroke-opacity: 0.85"/>
     <use xlink:href="#m81be4794e7" x="2281.24814" y="237.192821" style="fill: #add8e6; fill-opacity: 0.85; stroke: #add8e6; stroke-opacity: 0.85"/>
     <use xlink:href="#m81be4794e7" x="2081.819605" y="890.723468" style="fill: #add8e6; fill-opacity: 0.85; stroke: #add8e6; stroke-opacity: 0.85"/>
     <use xlink:href="#m81be4794e7" x="2281.24814" y="890.723468" style="fill: #add8e6; fill-opacity: 0.85; stroke: #add8e6; stroke-opacity: 0.85"/>
     <use xlink:href="#m81be4794e7" x="2480.578916" y="890.723468" style="fill: #add8e6; fill-opacity: 0.85; stroke: #add8e6; stroke-opacity: 0.85"/>
    </g>
   </g>
   <g id="text_12">
    <g clip-path="url(#p9752149e0e)">
     <!-- 權烜 -->
     <g transform="translate(972.962662 233.112821) scale(0.12 -0.12)">
      <defs>
       <path id="NotoSerifCJKjp-ExtraLight-6b0a" d="M 2234 4595 
L 3251 4595 
L 3251 4147 
L 3309 4147 
C 3418 4147 3539 4224 3539 4262 
L 3539 4595 
L 4550 4595 
L 4550 4147 
L 4608 4147 
C 4717 4147 4838 4224 4838 4262 
L 4838 4595 
L 5965 4595 
C 6054 4595 6112 4627 6131 4698 
C 5939 4870 5645 5107 5645 5107 
L 5376 4787 
L 4838 4787 
L 4838 5088 
C 4998 5114 5062 5171 5075 5267 
L 4550 5318 
L 4550 4787 
L 3539 4787 
L 3539 5088 
C 3693 5114 3763 5171 3776 5267 
L 3251 5318 
L 3251 4787 
L 2182 4787 
L 2234 4595 
z
M 2797 3104 
L 2797 3776 
L 3616 3776 
L 3616 3104 
L 2797 3104 
z
M 3648 2720 
C 3744 2720 3891 2790 3898 2829 
L 3898 3731 
C 4006 3750 4102 3802 4141 3846 
L 3731 4154 
L 3558 3968 
L 2822 3968 
L 2515 4115 
L 2515 2605 
L 2560 2605 
C 2675 2605 2797 2675 2797 2701 
L 2797 2912 
L 3616 2912 
L 3616 2720 
L 3648 2720 
z
M 1498 3674 
L 2259 3674 
C 2349 3674 2400 3706 2419 3776 
C 2240 3949 1952 4173 1952 4173 
L 1702 3866 
L 1498 3866 
L 1498 5088 
C 1651 5114 1702 5171 1722 5267 
L 1210 5325 
L 1210 3866 
L 333 3866 
L 384 3674 
L 1107 3674 
C 960 2746 685 1843 243 1107 
L 339 1024 
C 736 1549 1011 2150 1210 2803 
L 1210 -461 
L 1274 -461 
C 1376 -461 1498 -390 1498 -333 
L 1498 2669 
C 1696 2419 1939 2074 2016 1818 
C 2349 1587 2586 2246 1498 2803 
L 1498 3674 
z
M 3046 512 
L 4038 512 
L 4038 6 
L 3046 6 
L 3046 512 
z
M 4038 1882 
L 4038 1395 
L 3046 1395 
L 3046 1882 
L 4038 1882 
z
M 4038 698 
L 3046 698 
L 3046 1203 
L 4038 1203 
L 4038 698 
z
M 5485 3776 
L 5485 3104 
L 4666 3104 
L 4666 3776 
L 5485 3776 
z
M 5357 6 
L 4320 6 
L 4320 512 
L 5613 512 
C 5702 512 5754 544 5773 614 
C 5600 781 5318 1005 5318 1005 
L 5082 698 
L 4320 698 
L 4320 1203 
L 5638 1203 
C 5722 1203 5779 1235 5792 1306 
C 5626 1478 5344 1696 5344 1696 
L 5101 1395 
L 4320 1395 
L 4320 1882 
L 5818 1882 
C 5901 1882 5965 1914 5984 1978 
C 5792 2157 5498 2387 5498 2387 
L 5235 2067 
L 4237 2067 
C 4333 2202 4442 2349 4518 2470 
C 4646 2464 4736 2509 4762 2592 
L 4403 2688 
L 4429 2688 
C 4538 2688 4666 2752 4666 2771 
L 4666 2912 
L 5485 2912 
L 5485 2662 
L 5523 2662 
C 5619 2662 5760 2739 5766 2771 
L 5766 3731 
C 5875 3750 5978 3802 6016 3846 
L 5606 4154 
L 5427 3968 
L 4691 3968 
L 4384 4115 
L 4384 2694 
L 4262 2726 
C 4205 2541 4109 2266 4045 2067 
L 3123 2067 
C 3206 2195 3290 2330 3360 2464 
C 3494 2438 3578 2490 3610 2554 
L 3155 2771 
C 2848 2054 2381 1421 1946 1050 
L 2035 960 
C 2285 1126 2541 1357 2778 1626 
L 2778 -474 
L 2810 -474 
C 2944 -474 3046 -403 3046 -378 
L 3046 -179 
L 5933 -179 
C 6022 -179 6080 -154 6099 -83 
C 5914 96 5619 326 5619 326 
L 5357 6 
z
" transform="scale(0.015625)"/>
       <path id="NotoSerifCJKjp-ExtraLight-70dc" d="M 5971 4640 
C 6054 4640 6118 4672 6131 4742 
C 5958 4915 5670 5146 5670 5146 
L 5421 4832 
L 2458 4832 
L 2509 4640 
L 5971 4640 
z
M 3168 1101 
L 3168 2291 
L 5235 2291 
L 5235 1101 
L 3168 1101 
z
M 5235 3590 
L 5235 2477 
L 3168 2477 
L 3168 3590 
L 5235 3590 
z
M 5274 634 
C 5389 634 5517 710 5517 736 
L 5517 3565 
C 5645 3584 5722 3616 5760 3661 
L 5363 3974 
L 5210 3776 
L 3238 3776 
L 2886 3942 
L 2886 563 
L 2925 563 
C 3072 563 3168 640 3168 672 
L 3168 915 
L 5235 915 
L 5235 634 
L 5274 634 
z
M 762 3949 
C 774 3296 563 2886 416 2771 
C 128 2534 358 2298 627 2515 
C 864 2714 986 3181 870 3949 
L 762 3949 
z
M 1613 3091 
C 1914 3309 2234 3610 2406 3795 
C 2522 3757 2611 3802 2637 3853 
L 2208 4141 
C 2086 3917 1824 3514 1600 3226 
C 1613 3789 1606 4403 1613 5075 
C 1766 5101 1818 5165 1837 5254 
L 1312 5312 
C 1312 2522 1440 749 275 -365 
L 378 -480 
C 954 6 1261 614 1421 1370 
C 1747 1094 2106 678 2208 365 
C 2554 147 2733 915 1446 1491 
C 1536 1971 1581 2509 1594 3104 
L 1613 3091 
z
M 5472 -58 
L 2246 -58 
L 2298 -243 
L 6022 -243 
C 6112 -243 6163 -211 6182 -147 
C 6010 32 5722 256 5722 256 
L 5472 -58 
z
" transform="scale(0.015625)"/>
      </defs>
      <use xlink:href="#NotoSerifCJKjp-ExtraLight-6b0a"/>
      <use xlink:href="#NotoSerifCJKjp-ExtraLight-70dc" x="99.999985"/>
     </g>
    </g>
    <g clip-path="url(#p9752149e0e)">
     <!-- 直長 -->
     <g transform="translate(972.962662 247.752821) scale(0.12 -0.12)">
      <defs>
       <path id="NotoSerifCJKjp-ExtraLight-76f4" d="M 4678 3450 
L 4678 2771 
L 2362 2771 
L 2362 3450 
L 4678 3450 
z
M 2362 1005 
L 2362 1709 
L 4678 1709 
L 4678 1005 
L 2362 1005 
z
M 2362 2586 
L 4678 2586 
L 4678 1901 
L 2362 1901 
L 2362 2586 
z
M 2400 3635 
L 2086 3802 
L 2086 518 
L 2138 518 
C 2259 518 2362 589 2362 627 
L 2362 813 
L 4678 813 
L 4678 538 
L 4717 538 
C 4813 538 4954 621 4960 659 
L 4960 3386 
C 5088 3411 5197 3462 5242 3514 
L 4806 3853 
L 4614 3635 
L 3302 3635 
L 3360 4307 
L 5818 4307 
C 5907 4307 5971 4339 5990 4410 
C 5786 4595 5466 4845 5466 4845 
L 5184 4493 
L 3373 4493 
L 3424 5126 
C 3546 5146 3616 5210 3622 5293 
L 3123 5331 
C 3117 5075 3104 4781 3085 4493 
L 390 4493 
L 448 4307 
L 3078 4307 
C 3066 4058 3046 3821 3034 3635 
L 2400 3635 
z
M 5325 109 
L 1107 109 
L 1107 3290 
C 1267 3309 1325 3373 1344 3462 
L 826 3526 
L 826 -461 
L 883 -461 
C 992 -461 1107 -390 1107 -333 
L 1107 -83 
L 5965 -83 
C 6054 -83 6118 -51 6138 19 
C 5933 211 5613 454 5613 454 
L 5325 109 
z
" transform="scale(0.015625)"/>
       <path id="NotoSerifCJKjp-ExtraLight-9577" d="M 5043 1965 
C 4806 1677 4352 1242 3962 915 
C 3571 1235 3258 1632 3046 2099 
L 5946 2099 
C 6035 2099 6099 2131 6112 2202 
C 5920 2374 5626 2598 5626 2598 
L 5363 2291 
L 1946 2291 
L 1946 2995 
L 4909 2995 
C 4998 2995 5056 3027 5075 3098 
C 4896 3264 4627 3482 4627 3482 
L 4390 3187 
L 1946 3187 
L 1946 3891 
L 4909 3891 
C 4998 3891 5056 3923 5075 3994 
C 4896 4160 4627 4378 4627 4378 
L 4390 4077 
L 1946 4077 
L 1946 4768 
L 5242 4768 
C 5325 4768 5389 4800 5402 4870 
C 5222 5043 4915 5280 4915 5280 
L 4659 4954 
L 2093 4954 
L 1664 5158 
L 1664 2291 
L 275 2291 
L 333 2099 
L 1664 2099 
L 1664 173 
C 1210 64 832 -26 602 -64 
L 832 -467 
C 883 -442 934 -390 960 -314 
C 2067 26 2906 314 3533 531 
L 3507 640 
C 2957 499 2419 358 1946 243 
L 1946 2099 
L 2893 2099 
C 3379 819 4384 45 5830 -339 
C 5882 -205 5990 -122 6125 -115 
L 6131 -45 
C 5325 122 4627 410 4077 826 
C 4512 1088 4960 1414 5242 1645 
C 5370 1594 5421 1606 5478 1670 
L 5043 1965 
z
" transform="scale(0.015625)"/>
      </defs>
      <use xlink:href="#NotoSerifCJKjp-ExtraLight-76f4"/>
      <use xlink:href="#NotoSerifCJKjp-ExtraLight-9577" x="99.999985"/>
     </g>
    </g>
   </g>
   <g id="text_13">
    <g clip-path="url(#p9752149e0e)">
     <!-- 權抱 -->
     <g transform="translate(474.383503 886.643468) scale(0.12 -0.12)">
      <defs>
       <path id="NotoSerifCJKjp-ExtraLight-62b1" d="M 2400 2682 
C 2118 2579 1837 2477 1574 2381 
L 1574 3699 
L 2278 3699 
C 2355 3699 2419 3731 2432 3802 
C 2266 3974 1984 4186 1984 4186 
L 1747 3891 
L 1574 3891 
L 1574 5101 
C 1728 5120 1792 5184 1811 5274 
L 1293 5331 
L 1293 3891 
L 288 3891 
L 339 3699 
L 1293 3699 
L 1293 2278 
C 806 2106 403 1971 179 1914 
L 384 1510 
C 442 1530 486 1587 506 1664 
C 787 1792 1050 1914 1293 2022 
L 1293 77 
C 1293 -26 1261 -58 1146 -58 
C 1037 -58 461 -13 461 -13 
L 461 -122 
C 698 -147 851 -179 941 -237 
C 1018 -288 1050 -378 1069 -467 
C 1523 -410 1574 -230 1574 45 
L 1574 2157 
C 1907 2317 2195 2458 2438 2579 
L 2400 2682 
z
M 5920 762 
L 5837 762 
C 5773 429 5715 166 5670 64 
C 5638 13 5606 -6 5504 -19 
C 5363 -32 4954 -32 4422 -32 
L 3296 -32 
C 2874 -32 2835 0 2835 134 
L 2835 1965 
L 4192 1965 
L 4192 1626 
L 4230 1626 
C 4320 1626 4467 1690 4474 1722 
L 4474 3219 
C 4589 3245 4691 3296 4730 3341 
L 4314 3654 
L 4134 3462 
L 2701 3462 
C 2880 3699 3053 3974 3200 4262 
L 5555 4262 
C 5510 2483 5402 1504 5222 1312 
C 5158 1248 5114 1235 4992 1235 
C 4877 1235 4518 1267 4301 1293 
L 4294 1165 
C 4474 1146 4691 1094 4768 1056 
C 4838 998 4858 909 4858 826 
C 5062 826 5280 896 5421 1069 
C 5664 1344 5792 2349 5837 4237 
C 5965 4250 6048 4282 6093 4333 
L 5677 4666 
L 5498 4454 
L 3296 4454 
C 3392 4646 3475 4851 3552 5062 
C 3686 5056 3763 5114 3789 5184 
L 3270 5350 
C 3002 4358 2515 3456 1997 2893 
L 2093 2822 
C 2291 2989 2483 3187 2662 3418 
L 2707 3270 
L 4192 3270 
L 4192 2157 
L 2912 2157 
L 2554 2330 
L 2554 102 
C 2554 -211 2675 -288 3290 -288 
L 4429 -288 
C 5894 -288 6118 -256 6118 -90 
C 6118 -26 6074 6 5933 45 
L 5920 762 
z
" transform="scale(0.015625)"/>
      </defs>
      <use xlink:href="#NotoSerifCJKjp-ExtraLight-6b0a"/>
      <use xlink:href="#NotoSerifCJKjp-ExtraLight-62b1" x="99.999985"/>
     </g>
    </g>
    <g clip-path="url(#p9752149e0e)">
     <!-- 奉事 -->
     <g transform="translate(474.383503 901.283468) scale(0.12 -0.12)">
      <defs>
       <path id="NotoSerifCJKjp-ExtraLight-5949" d="M 4755 922 
L 3328 922 
L 3328 1645 
L 4614 1645 
C 4698 1645 4762 1677 4774 1747 
C 4595 1920 4320 2138 4320 2138 
L 4070 1837 
L 3328 1837 
L 3328 2330 
C 3488 2349 3552 2406 3565 2496 
L 3046 2560 
L 3046 1837 
L 1670 1837 
L 1722 1645 
L 3046 1645 
L 3046 922 
L 998 922 
L 1050 730 
L 3046 730 
L 3046 -467 
L 3104 -467 
C 3206 -467 3328 -397 3328 -346 
L 3328 730 
L 5350 730 
C 5440 730 5498 762 5517 832 
C 5325 1018 5024 1248 5024 1248 
L 4755 922 
z
M 2317 2982 
C 2464 3194 2598 3418 2714 3642 
L 3622 3642 
C 3725 3411 3859 3194 4006 2982 
L 2317 2982 
z
M 5926 2790 
C 6016 2790 6074 2822 6093 2893 
C 5894 3078 5587 3315 5587 3315 
L 5312 2982 
L 4262 2982 
C 4070 3194 3910 3411 3782 3642 
L 5421 3642 
C 5504 3642 5568 3674 5587 3744 
C 5395 3923 5101 4154 5101 4154 
L 4845 3834 
L 2810 3834 
C 2906 4032 2995 4237 3072 4442 
L 5683 4442 
C 5766 4442 5830 4467 5843 4538 
C 5658 4723 5350 4954 5350 4954 
L 5088 4627 
L 3136 4627 
C 3194 4781 3238 4934 3283 5088 
C 3411 5082 3501 5126 3533 5216 
L 2989 5370 
C 2931 5120 2861 4877 2778 4627 
L 621 4627 
L 678 4442 
L 2714 4442 
C 2637 4237 2554 4032 2458 3834 
L 909 3834 
L 960 3642 
L 2368 3642 
C 2253 3418 2125 3194 1984 2982 
L 314 2982 
L 371 2790 
L 1850 2790 
C 1427 2208 890 1696 224 1312 
L 288 1235 
C 1094 1626 1709 2170 2176 2790 
L 4147 2790 
C 4608 2189 5210 1690 5856 1370 
C 5901 1498 6042 1549 6189 1549 
L 6208 1619 
C 5606 1869 4954 2285 4442 2790 
L 5926 2790 
z
" transform="scale(0.015625)"/>
       <path id="NotoSerifCJKjp-ExtraLight-4e8b" d="M 4896 806 
L 3328 806 
L 3328 1414 
L 4896 1414 
L 4896 806 
z
M 3328 2195 
L 4896 2195 
L 4896 1600 
L 3328 1600 
L 3328 2195 
z
M 1510 3174 
L 1510 3808 
L 3046 3808 
L 3046 3174 
L 1510 3174 
z
M 4864 3808 
L 4864 3174 
L 3328 3174 
L 3328 3808 
L 4864 3808 
z
M 5382 1600 
L 5184 1600 
L 5184 2131 
C 5306 2157 5414 2208 5459 2259 
L 5024 2592 
L 4838 2381 
L 3328 2381 
L 3328 2982 
L 4864 2982 
L 4864 2752 
L 4896 2752 
C 4992 2752 5139 2822 5146 2861 
L 5146 3744 
C 5267 3770 5376 3821 5421 3872 
L 4979 4198 
L 4800 4000 
L 3328 4000 
L 3328 4506 
L 5939 4506 
C 6029 4506 6093 4538 6106 4608 
C 5907 4800 5587 5043 5587 5043 
L 5299 4698 
L 3328 4698 
L 3328 5101 
C 3482 5120 3546 5184 3565 5274 
L 3046 5331 
L 3046 4698 
L 301 4698 
L 358 4506 
L 3046 4506 
L 3046 4000 
L 1542 4000 
L 1229 4154 
L 1229 2669 
L 1274 2669 
C 1389 2669 1510 2733 1510 2758 
L 1510 2982 
L 3046 2982 
L 3046 2381 
L 1069 2381 
L 1120 2195 
L 3046 2195 
L 3046 1600 
L 294 1600 
L 352 1414 
L 3046 1414 
L 3046 806 
L 1030 806 
L 1088 621 
L 3046 621 
L 3046 77 
C 3046 -45 3002 -90 2854 -90 
C 2707 -90 1907 -26 1907 -26 
L 1907 -134 
C 2234 -166 2438 -205 2547 -262 
C 2643 -314 2688 -390 2714 -480 
C 3270 -422 3328 -218 3328 45 
L 3328 621 
L 4896 621 
L 4896 282 
L 4934 282 
C 5030 282 5178 365 5184 403 
L 5184 1414 
L 5978 1414 
C 6067 1414 6131 1446 6144 1510 
C 5958 1696 5651 1946 5651 1946 
L 5382 1600 
z
" transform="scale(0.015625)"/>
      </defs>
      <use xlink:href="#NotoSerifCJKjp-ExtraLight-5949"/>
      <use xlink:href="#NotoSerifCJKjp-ExtraLight-4e8b" x="99.999985"/>
     </g>
    </g>
   </g>
   <g id="text_14">
    <g clip-path="url(#p9752149e0e)">
     <!-- 權攢 -->
     <g transform="translate(673.819859 886.643468) scale(0.12 -0.12)">
      <defs>
       <path id="NotoSerifCJKjp-ExtraLight-6522" d="M 2253 2598 
L 1408 2330 
L 1408 3789 
L 2157 3789 
C 2246 3789 2304 3821 2323 3891 
C 2144 4058 1875 4275 1875 4275 
L 1632 3981 
L 1408 3981 
L 1408 5101 
C 1555 5120 1619 5184 1638 5274 
L 1120 5331 
L 1120 3981 
L 288 3981 
L 339 3789 
L 1120 3789 
L 1120 2240 
C 742 2125 429 2029 250 1990 
L 416 1574 
C 474 1594 525 1651 544 1728 
C 749 1811 941 1894 1120 1978 
L 1120 77 
C 1120 -26 1094 -58 979 -58 
C 864 -58 288 -13 288 -13 
L 288 -122 
C 531 -147 678 -179 768 -237 
C 845 -288 877 -378 896 -467 
C 1357 -410 1408 -230 1408 45 
L 1408 2106 
C 1747 2259 2042 2400 2285 2502 
L 2253 2598 
z
M 1997 -474 
C 2624 -346 3296 -64 3648 198 
C 3782 160 3834 179 3878 237 
L 3456 486 
C 3142 179 2496 -186 1939 -378 
L 1997 -474 
z
M 2950 742 
L 2950 1235 
L 5184 1235 
L 5184 742 
L 2950 742 
z
M 5184 2598 
L 5184 2106 
L 2950 2106 
L 2950 2598 
L 5184 2598 
z
M 5184 1427 
L 2950 1427 
L 2950 1920 
L 5184 1920 
L 5184 1427 
z
M 5222 397 
C 5312 397 5459 480 5466 518 
L 5466 2554 
C 5574 2573 5677 2624 5715 2669 
L 5299 2982 
L 5126 2784 
L 2982 2784 
L 2669 2944 
L 2669 275 
L 2720 275 
C 2835 275 2950 346 2950 378 
L 2950 557 
L 5184 557 
L 5184 397 
L 5222 397 
z
M 4352 301 
C 4954 83 5389 -179 5626 -429 
C 5978 -710 6490 51 4390 410 
L 4352 301 
z
M 5984 3750 
L 5907 3750 
C 5869 3571 5824 3386 5798 3328 
C 5779 3290 5766 3290 5734 3290 
C 5722 3283 5664 3283 5600 3283 
L 5446 3283 
C 5382 3283 5370 3296 5370 3354 
L 5370 3923 
L 5958 3923 
C 6048 3923 6106 3955 6125 4026 
C 5965 4179 5722 4378 5722 4378 
L 5504 4109 
L 5082 4109 
L 5082 4589 
L 5754 4589 
C 5843 4589 5901 4621 5914 4691 
C 5766 4845 5536 5030 5536 5030 
L 5325 4781 
L 5082 4781 
L 5082 5139 
C 5203 5158 5254 5210 5267 5286 
L 4800 5338 
L 4800 4781 
L 4454 4781 
C 4493 4858 4518 4941 4544 5018 
C 4672 5018 4736 5082 4762 5152 
L 4326 5261 
C 4269 4896 4154 4531 4019 4288 
L 4122 4230 
C 4211 4326 4294 4454 4365 4589 
L 4800 4589 
L 4800 4109 
L 4064 4109 
C 3936 4230 3782 4358 3782 4358 
L 3584 4109 
L 3322 4109 
L 3322 4589 
L 3898 4589 
C 3981 4589 4038 4621 4045 4691 
C 3910 4838 3686 5011 3686 5011 
L 3501 4781 
L 3322 4781 
L 3322 5139 
C 3443 5158 3494 5210 3507 5286 
L 3040 5338 
L 3040 4781 
L 2707 4781 
C 2739 4858 2771 4941 2797 5018 
C 2925 5018 2989 5082 3014 5152 
L 2579 5261 
C 2515 4883 2400 4512 2266 4262 
L 2368 4198 
C 2458 4307 2547 4442 2624 4589 
L 3040 4589 
L 3040 4109 
L 2304 4109 
L 2355 3923 
L 2682 3923 
C 2618 3552 2477 3136 2080 2803 
L 2182 2720 
C 2720 3059 2886 3488 2963 3923 
L 3328 3923 
L 3328 3341 
L 3123 3296 
L 3354 2931 
C 3405 2950 3450 2995 3469 3072 
C 3770 3213 4006 3341 4147 3424 
L 4122 3520 
C 3949 3475 3776 3437 3616 3398 
L 3616 3923 
L 4000 3923 
C 4032 3923 4064 3930 4090 3942 
L 4096 3923 
L 4435 3923 
C 4384 3584 4250 3232 3834 2938 
L 3936 2848 
C 4506 3155 4646 3520 4704 3923 
L 5088 3923 
L 5088 3290 
C 5088 3110 5139 3034 5376 3034 
L 5600 3034 
C 6016 3034 6125 3091 6125 3200 
C 6125 3264 6099 3296 6003 3328 
L 5984 3750 
z
" transform="scale(0.015625)"/>
      </defs>
      <use xlink:href="#NotoSerifCJKjp-ExtraLight-6b0a"/>
      <use xlink:href="#NotoSerifCJKjp-ExtraLight-6522" x="99.999985"/>
     </g>
    </g>
    <g clip-path="url(#p9752149e0e)">
     <!-- 玄福君 -->
     <g transform="translate(667.819859 901.283468) scale(0.12 -0.12)">
      <defs>
       <path id="NotoSerifCJKjp-ExtraLight-7384" d="M 4154 1453 
C 4461 1197 4826 832 5120 461 
C 3981 390 2906 326 2035 288 
C 2912 1120 3910 2272 4493 3104 
C 4640 3085 4736 3130 4774 3200 
L 4262 3411 
C 3654 2464 2669 1184 1843 275 
C 1286 250 826 237 512 230 
L 723 -237 
C 787 -224 851 -179 890 -109 
C 2778 58 4173 198 5222 320 
C 5402 70 5542 -179 5606 -397 
C 6042 -698 6208 410 4237 1510 
L 4154 1453 
z
M 5299 4250 
L 3315 4250 
L 3315 5133 
C 3469 5152 3539 5216 3552 5299 
L 3034 5363 
L 3034 4250 
L 294 4250 
L 352 4058 
L 2688 4058 
C 2432 3533 2125 2976 1862 2586 
C 1638 2752 1344 2925 960 3091 
L 890 3027 
C 1363 2694 2003 2080 2189 1619 
C 2496 1446 2643 1920 1978 2490 
C 2330 2867 2714 3366 3014 3853 
C 3149 3827 3226 3878 3258 3942 
L 3021 4058 
L 5933 4058 
C 6022 4058 6086 4090 6099 4160 
C 5901 4352 5581 4595 5581 4595 
L 5299 4250 
z
" transform="scale(0.015625)"/>
       <path id="NotoSerifCJKjp-ExtraLight-798f" d="M 2093 4333 
L 1869 4115 
L 1536 4115 
L 1536 5082 
C 1690 5101 1760 5165 1773 5254 
L 1254 5312 
L 1254 4115 
L 314 4115 
L 371 3930 
L 1862 3930 
C 1517 3162 800 2208 141 1632 
L 230 1555 
C 576 1811 928 2138 1248 2496 
L 1248 -467 
L 1293 -467 
C 1427 -467 1530 -390 1530 -352 
L 1530 2688 
C 1760 2483 2003 2195 2086 1958 
C 2419 1766 2618 2438 1530 2835 
C 1811 3187 2042 3558 2202 3898 
C 2349 3904 2426 3910 2483 3955 
L 2093 4333 
z
M 4326 115 
L 4326 1037 
L 5542 1037 
L 5542 115 
L 4326 115 
z
M 2867 1037 
L 4038 1037 
L 4038 115 
L 2867 115 
L 2867 1037 
z
M 4038 2048 
L 4038 1222 
L 2867 1222 
L 2867 2048 
L 4038 2048 
z
M 5542 2048 
L 5542 1222 
L 4326 1222 
L 4326 2048 
L 5542 2048 
z
M 5523 2240 
L 2944 2240 
L 2592 2400 
L 2592 -480 
L 2630 -480 
C 2778 -480 2867 -397 2867 -371 
L 2867 -77 
L 5542 -77 
L 5542 -448 
L 5581 -448 
C 5702 -448 5824 -365 5824 -339 
L 5824 2029 
C 5952 2048 6022 2080 6061 2131 
L 5677 2426 
L 5523 2240 
z
M 3194 3072 
L 3194 3974 
L 5190 3974 
L 5190 3072 
L 3194 3072 
z
M 5235 2656 
C 5344 2656 5472 2739 5472 2765 
L 5472 3962 
C 5594 3981 5658 4013 5696 4051 
L 5318 4346 
L 5178 4160 
L 3264 4160 
L 2912 4326 
L 2912 2611 
L 2950 2611 
C 3098 2611 3194 2688 3194 2720 
L 3194 2880 
L 5190 2880 
L 5190 2656 
L 5235 2656 
z
M 5350 4928 
L 2477 4928 
L 2528 4742 
L 5933 4742 
C 6022 4742 6086 4774 6099 4845 
C 5914 5018 5613 5254 5613 5254 
L 5350 4928 
z
" transform="scale(0.015625)"/>
       <path id="NotoSerifCJKjp-ExtraLight-541b" d="M 4806 2848 
L 2592 2848 
C 2714 3130 2803 3424 2880 3731 
L 4806 3731 
L 4806 2848 
z
M 4806 4755 
L 4806 3923 
L 2925 3923 
C 2976 4192 3021 4467 3053 4755 
L 4806 4755 
z
M 5069 1517 
L 5069 147 
L 2195 147 
L 2195 1517 
L 5069 1517 
z
M 5331 3923 
L 5088 3923 
L 5088 4672 
C 5229 4698 5344 4755 5395 4813 
L 4922 5171 
L 4736 4941 
L 1133 4941 
L 1190 4755 
L 2739 4755 
C 2707 4467 2662 4192 2605 3923 
L 390 3923 
L 448 3731 
L 2560 3731 
C 2490 3424 2394 3130 2278 2848 
L 1069 2848 
L 1120 2662 
L 2195 2662 
C 1805 1805 1197 1082 294 506 
L 378 410 
C 1024 781 1530 1210 1920 1702 
L 1920 -486 
L 1952 -486 
C 2093 -486 2195 -403 2195 -378 
L 2195 -45 
L 5069 -45 
L 5069 -442 
L 5107 -442 
C 5203 -442 5344 -358 5350 -326 
L 5350 1453 
C 5485 1478 5600 1523 5645 1574 
L 5197 1926 
L 4998 1709 
L 2272 1709 
L 2016 1830 
C 2208 2093 2374 2368 2509 2662 
L 4806 2662 
L 4806 2317 
L 4845 2317 
C 4928 2317 5075 2362 5088 2381 
L 5088 3731 
L 5914 3731 
C 6003 3731 6061 3763 6080 3834 
C 5888 4013 5594 4243 5594 4243 
L 5331 3923 
z
" transform="scale(0.015625)"/>
      </defs>
      <use xlink:href="#NotoSerifCJKjp-ExtraLight-7384"/>
      <use xlink:href="#NotoSerifCJKjp-ExtraLight-798f" x="99.999985"/>
      <use xlink:href="#NotoSerifCJKjp-ExtraLight-541b" x="199.999969"/>
     </g>
    </g>
   </g>
   <g id="text_15">
    <g clip-path="url(#p9752149e0e)">
     <!-- 李孟知 -->
     <g transform="translate(867.248394 886.643468) scale(0.12 -0.12)">
      <defs>
       <path id="NotoSerifCJKjp-ExtraLight-674e" d="M 5312 1280 
L 3341 1280 
L 3341 1574 
C 3462 1594 3520 1626 3552 1690 
C 3955 1830 4518 2054 4813 2259 
C 4941 2266 5030 2272 5082 2310 
L 4710 2669 
L 4499 2464 
L 1427 2464 
L 1485 2278 
L 4333 2278 
C 4064 2093 3686 1888 3424 1754 
L 3059 1798 
L 3059 1280 
L 314 1280 
L 371 1088 
L 3059 1088 
L 3059 64 
C 3059 -32 3027 -70 2899 -70 
C 2771 -70 2074 -19 2074 -19 
L 2074 -122 
C 2362 -154 2541 -192 2637 -243 
C 2726 -301 2765 -384 2778 -474 
C 3283 -416 3341 -237 3341 38 
L 3341 1088 
L 5926 1088 
C 6016 1088 6074 1120 6093 1190 
C 5894 1376 5587 1613 5587 1613 
L 5312 1280 
z
M 5850 4186 
C 5939 4186 5997 4218 6016 4288 
C 5818 4467 5504 4717 5504 4717 
L 5229 4378 
L 3322 4378 
L 3322 5107 
C 3482 5133 3546 5190 3558 5280 
L 3040 5338 
L 3040 4378 
L 403 4378 
L 461 4186 
L 2656 4186 
C 2061 3494 1152 2816 218 2355 
L 282 2253 
C 1363 2694 2368 3366 3040 4147 
L 3040 2662 
L 3098 2662 
C 3200 2662 3322 2733 3322 2778 
L 3322 4186 
L 3386 4186 
C 3942 3424 5011 2707 5901 2323 
C 5952 2451 6054 2534 6182 2541 
L 6195 2611 
C 5312 2906 4179 3533 3578 4186 
L 5850 4186 
z
" transform="scale(0.015625)"/>
       <path id="NotoSerifCJKjp-ExtraLight-5b5f" d="M 3066 4211 
L 3066 3674 
L 512 3674 
L 570 3488 
L 3066 3488 
L 3066 2483 
C 3066 2381 3034 2349 2899 2349 
C 2765 2349 2022 2394 2022 2394 
L 2022 2298 
C 2330 2266 2515 2221 2618 2170 
C 2707 2112 2746 2029 2771 1939 
C 3290 1997 3347 2182 3347 2458 
L 3347 3488 
L 5792 3488 
C 5882 3488 5946 3520 5958 3590 
C 5773 3763 5472 4000 5472 4000 
L 5216 3674 
L 3347 3674 
L 3347 3994 
C 3488 4019 3546 4051 3565 4128 
C 4077 4301 4627 4557 4998 4755 
C 5139 4762 5229 4768 5280 4813 
L 4877 5190 
L 4634 4966 
L 1325 4966 
L 1382 4781 
L 4467 4781 
C 4186 4582 3795 4339 3430 4166 
L 3066 4211 
z
M 1491 1510 
L 2426 1510 
L 2426 -134 
L 1491 -134 
L 1491 1510 
z
M 3654 1510 
L 3654 -134 
L 2714 -134 
L 2714 1510 
L 3654 1510 
z
M 4896 1510 
L 4896 -134 
L 3942 -134 
L 3942 1510 
L 4896 1510 
z
M 5357 -134 
L 5184 -134 
L 5184 1472 
C 5338 1491 5421 1517 5472 1587 
L 5005 1939 
L 4826 1702 
L 1562 1702 
L 1203 1875 
L 1203 -134 
L 301 -134 
L 358 -320 
L 5958 -320 
C 6048 -320 6106 -288 6125 -218 
C 5933 -45 5626 198 5626 198 
L 5357 -134 
z
" transform="scale(0.015625)"/>
       <path id="NotoSerifCJKjp-ExtraLight-77e5" d="M 2675 2656 
L 2010 2656 
C 2016 2746 2016 2835 2016 2918 
L 2016 4032 
L 3040 4032 
C 3130 4032 3194 4058 3200 4128 
C 3014 4314 2733 4531 2733 4531 
L 2470 4218 
L 1190 4218 
C 1306 4480 1408 4755 1491 5043 
C 1626 5043 1696 5107 1722 5184 
L 1184 5318 
C 1024 4454 691 3629 314 3091 
L 416 3027 
C 678 3290 909 3635 1107 4032 
L 1734 4032 
L 1734 2912 
C 1734 2829 1734 2739 1728 2656 
L 301 2656 
L 352 2464 
L 1722 2464 
C 1664 1498 1370 493 282 -358 
L 371 -454 
C 1261 109 1677 832 1862 1562 
C 2246 1190 2714 659 2854 269 
C 3238 32 3405 851 1894 1702 
C 1952 1958 1984 2214 2003 2464 
L 3251 2464 
C 3334 2464 3398 2496 3418 2566 
C 3226 2746 2931 2970 2931 2970 
L 2675 2656 
z
M 3878 480 
L 3878 4320 
L 5504 4320 
L 5504 480 
L 3878 480 
z
M 5632 4730 
L 5440 4506 
L 3910 4506 
L 3597 4678 
L 3597 -269 
L 3648 -269 
C 3782 -269 3878 -192 3878 -160 
L 3878 288 
L 5504 288 
L 5504 -179 
L 5542 -179 
C 5645 -179 5779 -96 5786 -58 
L 5786 4256 
C 5914 4282 6029 4333 6067 4384 
L 5632 4730 
z
" transform="scale(0.015625)"/>
      </defs>
      <use xlink:href="#NotoSerifCJKjp-ExtraLight-674e"/>
      <use xlink:href="#NotoSerifCJKjp-ExtraLight-5b5f" x="99.999985"/>
      <use xlink:href="#NotoSerifCJKjp-ExtraLight-77e5" x="199.999969"/>
     </g>
    </g>
    <g clip-path="url(#p9752149e0e)">
     <!--   -->
     <g transform="translate(883.694019 901.283468) scale(0.12 -0.12)">
      <defs>
       <path id="NotoSerifCJKjp-ExtraLight-20" transform="scale(0.015625)"/>
      </defs>
      <use xlink:href="#NotoSerifCJKjp-ExtraLight-20"/>
     </g>
    </g>
   </g>
   <g id="text_16">
    <g clip-path="url(#p9752149e0e)">
     <!-- 權揆 -->
     <g transform="translate(1072.676929 886.643468) scale(0.12 -0.12)">
      <defs>
       <path id="NotoSerifCJKjp-ExtraLight-63c6" d="M 1939 2611 
C 2938 3136 3488 3974 3776 4851 
C 3917 4858 3987 4870 4032 4922 
L 3642 5280 
L 3418 5062 
L 2285 5062 
L 2342 4870 
L 3430 4870 
C 3347 4570 3226 4282 3072 4000 
C 3053 4173 2848 4429 2285 4563 
L 2214 4506 
C 2438 4352 2726 4064 2816 3846 
C 2867 3814 2918 3808 2957 3814 
C 2688 3386 2323 3002 1875 2714 
L 1939 2611 
z
M 2291 2637 
L 1530 2362 
L 1530 3699 
L 2246 3699 
C 2336 3699 2387 3731 2406 3802 
C 2234 3974 1958 4186 1958 4186 
L 1722 3891 
L 1530 3891 
L 1530 5101 
C 1683 5120 1747 5184 1766 5274 
L 1248 5331 
L 1248 3891 
L 288 3891 
L 339 3699 
L 1248 3699 
L 1248 2259 
C 781 2099 390 1965 179 1914 
L 384 1510 
C 442 1530 486 1587 499 1664 
C 768 1786 1018 1901 1248 2016 
L 1248 77 
C 1248 -26 1216 -58 1101 -58 
C 992 -58 416 -13 416 -13 
L 416 -122 
C 659 -147 806 -179 896 -237 
C 973 -288 1005 -378 1024 -467 
C 1485 -410 1530 -230 1530 45 
L 1530 2150 
C 1837 2304 2106 2432 2330 2541 
L 2291 2637 
z
M 5286 1702 
L 4019 1702 
C 4070 1997 4090 2317 4102 2656 
L 5126 2656 
C 5216 2656 5274 2688 5293 2758 
C 5126 2912 4870 3123 4870 3123 
L 4646 2842 
L 2656 2842 
L 2707 2656 
L 3776 2656 
C 3770 2317 3757 1997 3706 1702 
L 1997 1702 
L 2048 1510 
L 3667 1510 
C 3494 774 3046 166 1811 -307 
L 1894 -422 
C 3021 -38 3558 448 3827 1043 
C 4429 666 5222 45 5517 -397 
C 5984 -589 6029 307 3878 1158 
C 3917 1274 3955 1389 3981 1510 
L 5869 1510 
C 5958 1510 6016 1542 6035 1613 
C 5843 1792 5549 2022 5549 2022 
L 5286 1702 
z
M 5754 4378 
C 5594 4186 5318 3898 5101 3693 
C 4947 3878 4813 4077 4691 4288 
C 4934 4429 5235 4627 5408 4749 
C 5530 4717 5587 4730 5619 4781 
L 5222 5082 
C 5075 4896 4826 4602 4634 4397 
C 4467 4691 4333 5011 4237 5338 
L 4115 5293 
C 4422 4064 4998 3098 5856 2566 
C 5901 2701 6003 2778 6131 2790 
L 6138 2854 
C 5786 3021 5466 3277 5184 3597 
C 5434 3731 5747 3910 5926 4032 
C 6042 3994 6099 4000 6131 4045 
L 5754 4378 
z
" transform="scale(0.015625)"/>
      </defs>
      <use xlink:href="#NotoSerifCJKjp-ExtraLight-6b0a"/>
      <use xlink:href="#NotoSerifCJKjp-ExtraLight-63c6" x="99.999985"/>
     </g>
    </g>
    <g clip-path="url(#p9752149e0e)">
     <!-- 監察 -->
     <g transform="translate(1072.676929 901.283468) scale(0.12 -0.12)">
      <defs>
       <path id="NotoSerifCJKjp-ExtraLight-76e3" d="M 3238 2995 
C 3533 3264 3789 3635 4006 4032 
L 5933 4032 
C 6022 4032 6086 4058 6099 4128 
C 5914 4307 5619 4538 5619 4538 
L 5357 4218 
L 4102 4218 
C 4224 4480 4333 4749 4422 5018 
C 4544 5018 4621 5075 4640 5152 
L 4109 5293 
C 3930 4454 3565 3578 3142 3059 
L 3238 2995 
z
M 5286 2771 
L 3674 2771 
L 3725 2579 
L 5862 2579 
C 5952 2579 6010 2611 6029 2682 
C 5837 2854 5542 3091 5542 3091 
L 5286 2771 
z
M 1664 4762 
L 1664 4134 
L 883 4134 
L 883 4762 
L 1664 4762 
z
M 2688 3949 
L 2688 3270 
L 883 3270 
L 883 3949 
L 2688 3949 
z
M 1664 2349 
L 883 2349 
L 883 3085 
L 1664 3085 
L 1664 2349 
z
M 883 2163 
L 3085 2163 
C 3174 2163 3226 2195 3245 2266 
C 3066 2438 2778 2669 2778 2669 
L 2522 2349 
L 1946 2349 
L 1946 3085 
L 2688 3085 
L 2688 2912 
L 2726 2912 
C 2816 2912 2963 2989 2970 3027 
L 2970 3904 
C 3078 3923 3181 3974 3213 4019 
L 2803 4326 
L 2630 4134 
L 1946 4134 
L 1946 4762 
L 3040 4762 
C 3130 4762 3187 4794 3200 4864 
C 3021 5030 2739 5261 2739 5261 
L 2490 4947 
L 960 4947 
L 602 5120 
L 602 1811 
L 640 1811 
C 781 1811 883 1894 883 1920 
L 883 2163 
z
M 1440 1427 
L 2400 1427 
L 2400 -134 
L 1440 -134 
L 1440 1427 
z
M 3667 1427 
L 3667 -134 
L 2688 -134 
L 2688 1427 
L 3667 1427 
z
M 4934 1427 
L 4934 -134 
L 3955 -134 
L 3955 1427 
L 4934 1427 
z
M 5357 -134 
L 5222 -134 
L 5222 1382 
C 5376 1402 5466 1434 5510 1504 
L 5043 1856 
L 4864 1613 
L 1517 1613 
L 1152 1786 
L 1152 -134 
L 301 -134 
L 358 -320 
L 5958 -320 
C 6048 -320 6106 -288 6125 -218 
C 5933 -45 5626 198 5626 198 
L 5357 -134 
z
" transform="scale(0.015625)"/>
       <path id="NotoSerifCJKjp-ExtraLight-5bdf" d="M 5408 4570 
C 5344 4403 5261 4205 5197 4077 
L 5293 4032 
C 5453 4154 5670 4371 5779 4525 
C 5901 4531 5978 4544 6022 4589 
L 5619 4979 
L 5402 4762 
L 3328 4762 
L 3328 5114 
C 3482 5133 3552 5197 3565 5286 
L 3046 5344 
L 3046 4762 
L 1101 4762 
C 1094 4858 1082 4954 1062 5062 
L 941 5062 
C 947 4659 736 4256 518 4102 
C 422 4032 365 3923 422 3834 
C 493 3731 678 3789 794 3891 
C 928 4000 1062 4237 1094 4570 
L 5408 4570 
z
M 2963 4160 
L 2746 3962 
L 1894 3962 
C 1978 4070 2048 4179 2112 4282 
C 2266 4256 2317 4282 2342 4346 
L 1894 4499 
C 1600 3910 1037 3245 454 2861 
L 531 2771 
C 685 2854 838 2950 979 3059 
C 1165 2925 1363 2701 1421 2515 
C 1683 2349 1869 2861 1069 3130 
C 1210 3238 1338 3354 1459 3475 
C 1670 3360 1894 3174 1978 3021 
C 2266 2886 2387 3418 1555 3571 
C 1619 3635 1677 3699 1734 3770 
L 2720 3770 
C 2272 2848 1402 2022 294 1530 
L 358 1427 
C 1677 1926 2560 2771 3059 3750 
C 3200 3750 3270 3770 3328 3821 
L 2963 4160 
z
M 2138 2157 
L 4211 2157 
C 4301 2157 4358 2189 4378 2259 
C 4205 2413 3949 2611 3949 2611 
L 3718 2349 
L 2086 2349 
L 2138 2157 
z
M 1888 1056 
C 1626 621 1075 83 518 -224 
L 589 -320 
C 1210 -64 1811 390 2112 768 
C 2259 736 2310 762 2349 826 
L 1888 1056 
z
M 5299 1325 
C 5382 1325 5446 1357 5459 1427 
C 5286 1587 5005 1798 5005 1798 
L 4762 1510 
L 973 1510 
L 1030 1325 
L 3046 1325 
L 3046 19 
C 3046 -64 3014 -96 2893 -96 
C 2765 -96 2125 -51 2125 -51 
L 2125 -154 
C 2400 -173 2573 -211 2662 -262 
C 2739 -314 2778 -397 2784 -474 
C 3258 -422 3328 -243 3328 13 
L 3328 1325 
L 5299 1325 
z
M 3994 883 
C 4467 621 5114 109 5312 -294 
C 5728 -499 5798 422 4051 954 
L 3994 883 
z
M 5030 4166 
L 4832 3962 
L 3866 3962 
L 3923 3770 
L 4806 3770 
C 4685 3526 4493 3226 4333 3008 
C 3936 3386 3622 3834 3430 4333 
L 3309 4262 
C 3725 3066 4640 2163 5811 1690 
C 5862 1818 5965 1894 6099 1901 
L 6112 1965 
C 5485 2163 4902 2490 4435 2912 
C 4698 3149 5005 3475 5165 3738 
C 5286 3744 5363 3750 5408 3795 
L 5030 4166 
z
" transform="scale(0.015625)"/>
      </defs>
      <use xlink:href="#NotoSerifCJKjp-ExtraLight-76e3"/>
      <use xlink:href="#NotoSerifCJKjp-ExtraLight-5bdf" x="99.999985"/>
     </g>
    </g>
   </g>
   <g id="text_17">
    <g clip-path="url(#p9752149e0e)">
     <!-- 權擴 -->
     <g transform="translate(1272.105464 886.643468) scale(0.12 -0.12)">
      <defs>
       <path id="NotoSerifCJKjp-ExtraLight-64f4" d="M 2253 -461 
C 2829 -352 3437 -109 3782 109 
C 3923 77 4019 83 4058 141 
L 3610 435 
C 3328 166 2752 -173 2208 -352 
L 2253 -461 
z
M 4518 262 
C 5120 70 5536 -173 5760 -416 
C 6099 -666 6515 51 4557 378 
L 4518 262 
z
M 5357 1939 
L 5357 1485 
L 4378 1485 
L 4378 1939 
L 5357 1939 
z
M 4378 806 
L 4378 1293 
L 5357 1293 
L 5357 806 
L 4378 806 
z
M 3110 1293 
L 4090 1293 
L 4090 806 
L 3110 806 
L 3110 1293 
z
M 4090 1939 
L 4090 1485 
L 3110 1485 
L 3110 1939 
L 4090 1939 
z
M 4755 3706 
L 4755 3322 
L 3667 3322 
L 3667 3706 
L 4755 3706 
z
M 5370 2726 
L 2547 2726 
C 2554 2925 2554 3110 2554 3290 
L 2554 3706 
L 3386 3706 
L 3386 2829 
L 3443 2829 
C 3552 2829 3667 2906 3667 2950 
L 3667 3136 
L 4755 3136 
L 4755 2886 
L 4813 2886 
C 4915 2886 5037 2963 5037 3008 
L 5037 3706 
L 5901 3706 
C 5984 3706 6042 3738 6061 3808 
C 5894 3974 5632 4179 5632 4179 
L 5402 3898 
L 5037 3898 
L 5037 4134 
C 5178 4154 5235 4211 5248 4294 
L 4755 4352 
L 4755 3898 
L 3667 3898 
L 3667 4134 
C 3808 4154 3866 4211 3878 4294 
L 3386 4352 
L 3386 3898 
L 2554 3898 
L 2554 4461 
L 5952 4461 
C 6042 4461 6106 4493 6118 4563 
C 5933 4742 5632 4973 5632 4973 
L 5370 4653 
L 4352 4653 
L 4352 5069 
C 4486 5094 4544 5152 4557 5235 
L 4064 5293 
L 4064 4653 
L 2618 4653 
L 2272 4832 
L 2272 3936 
C 2099 4096 1875 4275 1875 4275 
L 1632 3981 
L 1408 3981 
L 1408 5101 
C 1555 5120 1619 5184 1638 5274 
L 1120 5331 
L 1120 3981 
L 288 3981 
L 339 3789 
L 1120 3789 
L 1120 2355 
C 723 2195 390 2061 205 2003 
L 461 1626 
C 512 1651 557 1709 563 1786 
C 762 1888 947 1990 1120 2086 
L 1120 77 
C 1120 -26 1094 -58 979 -58 
C 864 -58 288 -13 288 -13 
L 288 -122 
C 531 -147 678 -179 768 -237 
C 845 -288 877 -378 896 -467 
C 1357 -410 1408 -230 1408 45 
L 1408 2246 
C 1715 2419 1971 2566 2182 2688 
L 2144 2778 
C 1894 2675 1645 2566 1408 2470 
L 1408 3789 
L 2157 3789 
C 2202 3789 2246 3795 2272 3814 
L 2272 3283 
C 2272 2125 2221 845 1658 -224 
L 1773 -294 
C 2342 538 2496 1613 2541 2534 
L 4090 2534 
L 4090 2131 
L 3142 2131 
L 2822 2291 
L 2822 314 
L 2867 314 
C 2989 314 3110 378 3110 410 
L 3110 621 
L 5357 621 
L 5357 352 
L 5395 352 
C 5491 352 5638 429 5645 467 
L 5645 1907 
C 5741 1926 5837 1971 5875 2010 
L 5478 2323 
L 5299 2131 
L 4378 2131 
L 4378 2534 
L 5952 2534 
C 6042 2534 6106 2566 6118 2637 
C 5933 2810 5632 3046 5632 3046 
L 5370 2726 
z
" transform="scale(0.015625)"/>
      </defs>
      <use xlink:href="#NotoSerifCJKjp-ExtraLight-6b0a"/>
      <use xlink:href="#NotoSerifCJKjp-ExtraLight-64f4" x="99.999985"/>
     </g>
    </g>
    <g clip-path="url(#p9752149e0e)">
     <!--  -->
     <g transform="translate(1284.105464 901.283468) scale(0.12 -0.12)"/>
    </g>
   </g>
   <g id="text_18">
    <g clip-path="url(#p9752149e0e)">
     <!-- 權据 -->
     <g transform="translate(1471.533999 886.643468) scale(0.12 -0.12)">
      <defs>
       <path id="NotoSerifCJKjp-ExtraLight-636e" d="M 2400 2682 
C 2106 2573 1805 2464 1530 2362 
L 1530 3699 
L 2246 3699 
C 2336 3699 2387 3731 2406 3802 
C 2234 3974 1958 4186 1958 4186 
L 1722 3891 
L 1530 3891 
L 1530 5101 
C 1683 5120 1747 5184 1766 5274 
L 1248 5331 
L 1248 3891 
L 288 3891 
L 339 3699 
L 1248 3699 
L 1248 2259 
C 781 2099 397 1971 179 1914 
L 384 1510 
C 442 1530 486 1587 506 1664 
C 774 1786 1018 1894 1248 2003 
L 1248 77 
C 1248 -26 1216 -58 1101 -58 
C 992 -58 416 -13 416 -13 
L 416 -122 
C 659 -147 806 -179 896 -237 
C 973 -288 1005 -378 1024 -467 
C 1485 -410 1530 -230 1530 45 
L 1530 2138 
C 1882 2304 2182 2458 2438 2579 
L 2400 2682 
z
M 5459 1376 
L 5459 147 
L 3341 147 
L 3341 1376 
L 5459 1376 
z
M 5517 4742 
L 5517 3834 
L 2861 3834 
L 2861 4742 
L 5517 4742 
z
M 5958 2522 
C 6048 2522 6106 2554 6125 2624 
C 5933 2797 5638 3034 5638 3034 
L 5382 2714 
L 4493 2714 
L 4493 3328 
C 4646 3347 4717 3411 4730 3501 
L 4211 3565 
L 4211 2714 
L 2848 2714 
C 2861 2976 2861 3232 2861 3462 
L 2861 3642 
L 5517 3642 
L 5517 3392 
L 5555 3392 
C 5651 3392 5792 3469 5798 3507 
L 5798 4717 
C 5894 4730 5984 4774 6016 4819 
L 5638 5107 
L 5466 4928 
L 2925 4928 
L 2579 5107 
L 2579 3456 
C 2579 2208 2502 851 1843 -262 
L 1946 -333 
C 2579 499 2778 1568 2835 2522 
L 4211 2522 
L 4211 1562 
L 3373 1562 
L 3059 1722 
L 3059 -461 
L 3104 -461 
C 3219 -461 3341 -390 3341 -358 
L 3341 -45 
L 5459 -45 
L 5459 -429 
L 5498 -429 
C 5594 -429 5734 -346 5741 -307 
L 5741 1312 
C 5869 1338 5978 1389 6022 1440 
L 5587 1773 
L 5395 1562 
L 4493 1562 
L 4493 2522 
L 5958 2522 
z
" transform="scale(0.015625)"/>
      </defs>
      <use xlink:href="#NotoSerifCJKjp-ExtraLight-6b0a"/>
      <use xlink:href="#NotoSerifCJKjp-ExtraLight-636e" x="99.999985"/>
     </g>
    </g>
    <g clip-path="url(#p9752149e0e)">
     <!-- 縣監 -->
     <g transform="translate(1471.533999 901.283468) scale(0.12 -0.12)">
      <defs>
       <path id="NotoSerifCJKjp-ExtraLight-7e23" d="M 4550 4723 
C 4941 4787 5299 4864 5581 4934 
C 5715 4883 5811 4877 5862 4928 
L 5472 5293 
C 5018 5075 4128 4826 3379 4717 
L 3411 4595 
C 3731 4614 4070 4653 4390 4698 
C 4230 4320 4045 3910 3891 3616 
C 3750 3693 3584 3770 3373 3834 
L 3302 3770 
C 3610 3571 3994 3200 4115 2918 
C 4384 2778 4531 3168 4013 3533 
C 4224 3795 4474 4154 4666 4474 
C 4794 4454 4870 4512 4896 4576 
L 4550 4723 
z
M 2650 4800 
L 2650 4256 
L 1638 4256 
L 1638 4800 
L 2650 4800 
z
M 1638 3520 
L 1638 4064 
L 2650 4064 
L 2650 3520 
L 1638 3520 
z
M 1638 2771 
L 1638 3328 
L 2650 3328 
L 2650 2771 
L 1638 2771 
z
M 1638 2579 
L 2650 2579 
L 2650 2336 
L 2688 2336 
C 2778 2336 2925 2413 2931 2451 
L 2931 4736 
C 3059 4762 3168 4813 3206 4864 
L 2778 5197 
L 2586 4986 
L 1715 4986 
L 1357 5158 
L 1357 2253 
L 1395 2253 
C 1536 2253 1638 2336 1638 2362 
L 1638 2579 
z
M 429 -218 
C 742 90 1062 576 1280 1069 
C 1408 1056 1485 1107 1510 1178 
L 1005 1357 
C 838 787 576 211 326 -160 
L 429 -218 
z
M 2336 1274 
C 2554 1030 2797 614 2835 294 
C 3142 38 3418 749 2413 1318 
L 2336 1274 
z
M 2682 1894 
L 877 1894 
L 877 4378 
C 1037 4397 1094 4454 1107 4544 
L 595 4608 
L 595 1408 
L 653 1408 
C 755 1408 877 1485 877 1523 
L 877 1702 
L 1715 1702 
L 1715 -480 
L 1754 -480 
C 1901 -480 1997 -397 1997 -371 
L 1997 1702 
L 3168 1702 
C 3245 1702 3309 1734 3322 1805 
C 3168 1958 2906 2170 2906 2170 
L 2682 1894 
z
M 3302 -141 
C 3603 173 3885 646 4083 1114 
C 4218 1107 4288 1165 4314 1235 
L 3821 1402 
C 3667 851 3430 282 3200 -77 
L 3302 -141 
z
M 5146 1357 
C 5395 1043 5690 512 5709 115 
C 6029 -173 6310 634 5235 1402 
L 5146 1357 
z
M 5178 2637 
C 5312 2502 5459 2330 5581 2144 
C 5030 2112 4499 2080 4064 2061 
C 4544 2547 5069 3206 5376 3680 
C 5510 3654 5600 3699 5638 3763 
L 5171 4000 
C 4858 3405 4333 2605 3885 2054 
C 3654 2048 3462 2042 3328 2042 
L 3501 1626 
C 3565 1632 3616 1670 3654 1754 
C 3974 1792 4269 1830 4538 1862 
L 4538 -486 
L 4576 -486 
C 4723 -486 4826 -403 4826 -378 
L 4826 1901 
C 5146 1939 5427 1978 5664 2016 
C 5760 1856 5830 1690 5856 1542 
C 6176 1299 6413 2048 5261 2688 
L 5178 2637 
z
" transform="scale(0.015625)"/>
      </defs>
      <use xlink:href="#NotoSerifCJKjp-ExtraLight-7e23"/>
      <use xlink:href="#NotoSerifCJKjp-ExtraLight-76e3" x="99.999985"/>
     </g>
    </g>
   </g>
   <g id="text_19">
    <g clip-path="url(#p9752149e0e)">
     <!-- 權烋 -->
     <g transform="translate(1770.676802 233.112821) scale(0.12 -0.12)">
      <defs>
       <path id="NotoSerifCJKjp-ExtraLight-70cb" d="M 1190 1024 
C 1197 442 832 32 474 -122 
C 365 -179 288 -288 339 -390 
C 403 -506 614 -474 787 -371 
C 1075 -211 1472 211 1312 1024 
L 1190 1024 
z
M 1395 4051 
C 1574 4358 1741 4691 1882 5037 
C 2016 5024 2093 5082 2125 5152 
L 1613 5338 
C 1286 4320 736 3360 211 2771 
L 301 2694 
C 589 2944 870 3264 1126 3635 
L 1126 1331 
L 1178 1331 
C 1286 1331 1408 1414 1414 1440 
L 1414 3859 
C 1517 3878 1581 3917 1600 3974 
L 1395 4051 
z
M 2253 979 
C 2368 634 2470 96 2413 -314 
C 2701 -646 3085 122 2349 1005 
L 2253 979 
z
M 3437 992 
C 3667 646 3962 83 4000 -333 
C 4326 -627 4614 179 3526 1030 
L 3437 992 
z
M 4698 979 
C 5133 653 5690 51 5805 -416 
C 6202 -685 6394 288 4774 1043 
L 4698 979 
z
M 5869 3955 
C 5958 3955 6016 3987 6035 4051 
C 5843 4237 5536 4467 5536 4467 
L 5274 4141 
L 4019 4141 
L 4019 5101 
C 4154 5126 4205 5184 4224 5267 
L 3731 5318 
L 3731 4141 
L 1779 4141 
L 1830 3955 
L 3494 3955 
C 3085 3130 2413 2362 1581 1818 
L 1658 1709 
C 2554 2208 3270 2893 3731 3706 
L 3731 1338 
L 3789 1338 
C 3898 1338 4019 1414 4019 1466 
L 4019 3923 
C 4435 2944 5146 2144 5907 1702 
C 5952 1830 6061 1907 6182 1920 
L 6189 1978 
C 5414 2330 4602 3098 4154 3955 
L 5869 3955 
z
" transform="scale(0.015625)"/>
      </defs>
      <use xlink:href="#NotoSerifCJKjp-ExtraLight-6b0a"/>
      <use xlink:href="#NotoSerifCJKjp-ExtraLight-70cb" x="99.999985"/>
     </g>
    </g>
    <g clip-path="url(#p9752149e0e)">
     <!--   -->
     <g transform="translate(1781.122427 247.752821) scale(0.12 -0.12)">
      <use xlink:href="#NotoSerifCJKjp-ExtraLight-20"/>
     </g>
    </g>
   </g>
   <g id="text_20">
    <g clip-path="url(#p9752149e0e)">
     <!-- 權推 -->
     <g transform="translate(1670.962535 886.643468) scale(0.12 -0.12)">
      <defs>
       <path id="NotoSerifCJKjp-ExtraLight-63a8" d="M 2310 2906 
L 1594 2592 
L 1594 3699 
L 2387 3699 
C 2477 3699 2534 3731 2554 3802 
C 2381 3974 2106 4186 2106 4186 
L 1869 3891 
L 1594 3891 
L 1594 5101 
C 1747 5120 1811 5184 1830 5274 
L 1312 5331 
L 1312 3891 
L 288 3891 
L 339 3699 
L 1312 3699 
L 1312 2470 
C 819 2259 403 2086 186 2016 
L 384 1619 
C 442 1645 486 1709 499 1786 
C 794 1939 1062 2086 1312 2227 
L 1312 77 
C 1312 -26 1280 -58 1165 -58 
C 1056 -58 480 -13 480 -13 
L 480 -122 
C 717 -147 870 -179 960 -237 
C 1037 -288 1069 -378 1088 -467 
C 1542 -410 1594 -230 1594 45 
L 1594 2387 
C 1882 2547 2131 2694 2349 2810 
L 2310 2906 
z
M 3130 1357 
L 4243 1357 
L 4243 211 
L 3130 211 
L 3130 1357 
z
M 3155 3834 
L 4243 3834 
L 4243 2797 
L 3130 2797 
L 3130 3776 
L 3155 3834 
z
M 4243 1542 
L 3130 1542 
L 3130 2611 
L 4243 2611 
L 4243 1542 
z
M 5427 211 
L 4525 211 
L 4525 1357 
L 5773 1357 
C 5862 1357 5920 1389 5939 1459 
C 5747 1632 5453 1869 5453 1869 
L 5197 1542 
L 4525 1542 
L 4525 2611 
L 5773 2611 
C 5862 2611 5920 2643 5939 2714 
C 5747 2886 5453 3123 5453 3123 
L 5197 2797 
L 4525 2797 
L 4525 3834 
L 5920 3834 
C 6010 3834 6074 3866 6086 3936 
C 5901 4109 5600 4346 5600 4346 
L 5338 4026 
L 4474 4026 
C 4653 4314 4877 4704 5030 4992 
C 5165 4979 5248 5024 5274 5107 
L 4755 5261 
C 4627 4890 4435 4371 4294 4026 
L 3245 4026 
C 3386 4352 3507 4698 3616 5050 
C 3750 5043 3821 5107 3846 5178 
L 3328 5325 
C 3059 4154 2566 3027 2042 2304 
L 2144 2234 
C 2400 2509 2637 2854 2854 3238 
L 2854 -416 
L 2893 -416 
C 3027 -416 3130 -333 3130 -301 
L 3130 19 
L 6010 19 
C 6099 19 6157 51 6170 122 
C 5990 294 5690 531 5690 531 
L 5427 211 
z
" transform="scale(0.015625)"/>
      </defs>
      <use xlink:href="#NotoSerifCJKjp-ExtraLight-6b0a"/>
      <use xlink:href="#NotoSerifCJKjp-ExtraLight-63a8" x="99.999985"/>
     </g>
    </g>
    <g clip-path="url(#p9752149e0e)">
     <!-- 進士 -->
     <g transform="translate(1670.962535 901.283468) scale(0.12 -0.12)">
      <defs>
       <path id="NotoSerifCJKjp-ExtraLight-9032" d="M 3955 3194 
L 2733 3194 
L 2733 4058 
L 3955 4058 
L 3955 3194 
z
M 3955 2125 
L 2733 2125 
L 2733 3008 
L 3955 3008 
L 3955 2125 
z
M 3955 1030 
L 2733 1030 
L 2733 1933 
L 3955 1933 
L 3955 1030 
z
M 2445 384 
L 2490 384 
C 2630 384 2733 474 2733 499 
L 2733 838 
L 5894 838 
C 5984 838 6048 870 6061 941 
C 5869 1114 5574 1357 5574 1357 
L 5306 1030 
L 4237 1030 
L 4237 1933 
L 5645 1933 
C 5722 1933 5786 1965 5798 2035 
C 5626 2208 5344 2426 5344 2426 
L 5101 2125 
L 4237 2125 
L 4237 3008 
L 5645 3008 
C 5722 3008 5786 3040 5798 3110 
C 5626 3277 5344 3501 5344 3501 
L 5101 3194 
L 4237 3194 
L 4237 4058 
L 5792 4058 
C 5882 4058 5939 4090 5958 4160 
C 5773 4339 5478 4570 5478 4570 
L 5222 4250 
L 4128 4250 
C 4301 4499 4474 4800 4576 5037 
C 4717 5037 4787 5101 4806 5178 
L 4256 5293 
C 4192 4973 4077 4557 3968 4250 
L 2822 4250 
C 2976 4499 3110 4768 3232 5043 
C 3373 5030 3450 5082 3482 5152 
L 2976 5344 
C 2662 4429 2144 3546 1658 3002 
L 1754 2931 
C 1990 3136 2227 3392 2445 3680 
L 2445 384 
z
M 390 5088 
C 736 4813 1152 4314 1242 3923 
C 1626 3648 1862 4557 467 5146 
L 390 5088 
z
M 1478 2387 
C 1645 2413 1741 2464 1779 2502 
L 1318 2899 
L 1114 2630 
L 294 2630 
L 333 2438 
L 1197 2438 
L 1197 544 
C 864 314 486 70 256 -51 
L 525 -448 
C 576 -416 602 -378 582 -301 
C 800 -115 1158 237 1389 486 
C 1856 -173 2387 -307 3552 -307 
L 5894 -307 
C 5914 -166 6003 -90 6150 -70 
L 6150 26 
C 5370 0 4326 0 3546 0 
C 2451 0 1939 83 1478 621 
L 1478 2387 
z
" transform="scale(0.015625)"/>
       <path id="NotoSerifCJKjp-ExtraLight-58eb" d="M 5325 3123 
L 3341 3123 
L 3341 4998 
C 3494 5024 3552 5088 3571 5178 
L 3059 5242 
L 3059 3123 
L 294 3123 
L 352 2931 
L 3059 2931 
L 3059 32 
L 666 32 
L 717 -160 
L 5574 -160 
C 5670 -160 5722 -128 5741 -58 
C 5549 128 5229 371 5229 371 
L 4954 32 
L 3341 32 
L 3341 2931 
L 5946 2931 
C 6042 2931 6099 2963 6118 3034 
C 5920 3213 5600 3462 5600 3462 
L 5325 3123 
z
" transform="scale(0.015625)"/>
      </defs>
      <use xlink:href="#NotoSerifCJKjp-ExtraLight-9032"/>
      <use xlink:href="#NotoSerifCJKjp-ExtraLight-58eb" x="99.999985"/>
     </g>
    </g>
   </g>
   <g id="text_21">
    <g clip-path="url(#p9752149e0e)">
     <!-- 權括 -->
     <g transform="translate(1870.39107 886.643468) scale(0.12 -0.12)">
      <defs>
       <path id="NotoSerifCJKjp-ExtraLight-62ec" d="M 2451 2675 
C 2138 2560 1824 2445 1530 2336 
L 1530 3699 
L 2304 3699 
C 2387 3699 2445 3731 2464 3802 
C 2298 3974 2016 4186 2016 4186 
L 1779 3891 
L 1530 3891 
L 1530 5101 
C 1683 5120 1747 5184 1766 5274 
L 1248 5331 
L 1248 3891 
L 288 3891 
L 339 3699 
L 1248 3699 
L 1248 2240 
C 781 2074 397 1939 186 1888 
L 371 1478 
C 422 1504 474 1555 486 1632 
C 762 1754 1011 1875 1248 1984 
L 1248 77 
C 1248 -26 1216 -58 1101 -58 
C 992 -58 416 -13 416 -13 
L 416 -122 
C 659 -147 806 -179 896 -237 
C 973 -288 1005 -378 1024 -467 
C 1485 -410 1530 -230 1530 45 
L 1530 2118 
C 1901 2298 2214 2451 2483 2573 
L 2451 2675 
z
M 5363 1747 
L 5363 160 
L 3059 160 
L 3059 1747 
L 5363 1747 
z
M 5408 3398 
L 4320 3398 
L 4320 4640 
C 4781 4736 5203 4838 5549 4928 
C 5683 4870 5786 4870 5837 4922 
L 5453 5267 
C 4794 5005 3520 4653 2509 4480 
L 2541 4365 
C 3027 4410 3546 4493 4038 4589 
L 4038 3398 
L 2355 3398 
L 2406 3206 
L 4038 3206 
L 4038 1933 
L 3091 1933 
L 2778 2093 
L 2778 -474 
L 2822 -474 
C 2944 -474 3059 -403 3059 -371 
L 3059 -32 
L 5363 -32 
L 5363 -429 
L 5402 -429 
C 5498 -429 5645 -346 5651 -307 
L 5651 1683 
C 5773 1709 5882 1760 5926 1811 
L 5491 2144 
L 5299 1933 
L 4320 1933 
L 4320 3206 
L 5990 3206 
C 6080 3206 6138 3238 6150 3309 
C 5971 3488 5670 3718 5670 3718 
L 5408 3398 
z
" transform="scale(0.015625)"/>
      </defs>
      <use xlink:href="#NotoSerifCJKjp-ExtraLight-6b0a"/>
      <use xlink:href="#NotoSerifCJKjp-ExtraLight-62ec" x="99.999985"/>
     </g>
    </g>
    <g clip-path="url(#p9752149e0e)">
     <!-- 縣監 -->
     <g transform="translate(1870.39107 901.283468) scale(0.12 -0.12)">
      <use xlink:href="#NotoSerifCJKjp-ExtraLight-7e23"/>
      <use xlink:href="#NotoSerifCJKjp-ExtraLight-76e3" x="99.999985"/>
     </g>
    </g>
   </g>
   <g id="text_22">
    <g clip-path="url(#p9752149e0e)">
     <!-- 權鑄 -->
     <g transform="translate(2269.24814 233.112821) scale(0.12 -0.12)">
      <defs>
       <path id="NotoSerifCJKjp-ExtraLight-9444" d="M 2522 4531 
L 3949 4531 
L 3949 4083 
L 2669 4083 
L 2720 3898 
L 5568 3898 
C 5651 3898 5715 3930 5722 4000 
C 5562 4173 5286 4410 5286 4410 
L 5037 4083 
L 4230 4083 
L 4230 4531 
L 5869 4531 
C 5958 4531 6016 4563 6035 4634 
C 5862 4813 5587 5043 5587 5043 
L 5344 4723 
L 4230 4723 
L 4230 5107 
C 4371 5133 4429 5190 4442 5274 
L 3949 5325 
L 3949 4723 
L 2470 4723 
L 2522 4531 
z
M 1862 2611 
L 1562 2611 
L 1562 3456 
L 2317 3456 
C 2349 3456 2374 3462 2394 3469 
L 2426 3360 
L 5517 3360 
C 5472 3181 5414 2976 5370 2842 
L 5466 2790 
C 5613 2925 5786 3149 5888 3309 
C 6010 3315 6080 3328 6131 3373 
L 5709 3782 
L 5485 3552 
L 2470 3552 
L 2470 3558 
C 2310 3718 2035 3936 2035 3936 
L 1805 3642 
L 710 3642 
C 1082 4070 1389 4576 1594 5011 
C 1926 4678 2144 4288 2234 4006 
C 2496 3770 2938 4378 1632 5094 
C 1792 5101 1856 5146 1875 5210 
L 1331 5325 
C 1133 4691 666 3789 179 3264 
L 262 3194 
C 410 3315 550 3456 678 3603 
L 717 3456 
L 1280 3456 
L 1280 2611 
L 339 2611 
L 390 2419 
L 1280 2419 
L 1280 288 
C 858 186 506 102 307 70 
L 480 -365 
C 538 -346 589 -294 614 -218 
C 1408 64 2022 314 2483 486 
L 2458 589 
C 2150 506 1843 429 1562 358 
L 1562 2419 
L 2406 2419 
C 2496 2419 2560 2451 2573 2522 
C 2394 2694 2106 2918 2106 2918 
L 1862 2611 
z
M 1850 698 
C 2022 998 2182 1440 2291 1824 
C 2419 1830 2483 1894 2502 1958 
L 1978 2080 
C 1933 1619 1837 1094 1734 742 
L 1850 698 
z
M 467 1965 
C 608 1632 742 1101 723 710 
C 998 416 1312 1126 563 1997 
L 467 1965 
z
M 2643 2426 
L 2694 2240 
L 5574 2240 
C 5658 2240 5715 2272 5728 2342 
C 5562 2490 5299 2682 5299 2682 
L 5075 2426 
L 4237 2426 
L 4237 2842 
L 5075 2842 
C 5165 2842 5222 2874 5235 2944 
C 5069 3098 4819 3277 4819 3277 
L 4595 3034 
L 2701 3034 
L 2752 2842 
L 3955 2842 
L 3955 2426 
L 2643 2426 
z
M 2618 1715 
L 5952 1715 
C 6035 1715 6099 1747 6118 1818 
C 5920 1978 5638 2176 5638 2176 
L 5382 1907 
L 2566 1907 
L 2618 1715 
z
M 4038 794 
C 4243 666 4461 416 4518 218 
C 4819 26 5011 640 4109 851 
L 4038 794 
z
M 2835 250 
L 2835 1139 
L 3494 1139 
L 3494 250 
L 2835 250 
z
M 5517 1197 
L 5370 1197 
L 5370 1472 
C 5517 1498 5574 1536 5594 1626 
L 5088 1690 
L 5088 1197 
L 3974 1197 
C 3981 1203 3987 1210 3994 1216 
L 3616 1510 
L 3443 1331 
L 2867 1331 
L 2554 1485 
L 2554 -307 
L 2598 -307 
C 2720 -307 2835 -237 2835 -211 
L 2835 58 
L 3494 58 
L 3494 -262 
L 3533 -262 
C 3622 -262 3770 -186 3776 -154 
L 3776 1114 
C 3859 1126 3936 1158 3974 1197 
L 4026 1011 
L 5088 1011 
L 5088 6 
C 5088 -83 5062 -115 4947 -115 
C 4832 -115 4262 -77 4262 -77 
L 4262 -173 
C 4499 -198 4653 -230 4742 -282 
C 4819 -320 4845 -397 4864 -467 
C 5312 -422 5370 -262 5370 -6 
L 5370 1011 
L 5965 1011 
C 6054 1011 6112 1043 6131 1107 
C 5978 1267 5728 1478 5728 1478 
L 5517 1197 
z
" transform="scale(0.015625)"/>
      </defs>
      <use xlink:href="#NotoSerifCJKjp-ExtraLight-6b0a"/>
      <use xlink:href="#NotoSerifCJKjp-ExtraLight-9444" x="99.999985"/>
     </g>
    </g>
    <g clip-path="url(#p9752149e0e)">
     <!-- 密直提學 -->
     <g transform="translate(2257.24814 247.752821) scale(0.12 -0.12)">
      <defs>
       <path id="NotoSerifCJKjp-ExtraLight-5bc6" d="M 5440 4448 
C 5338 4230 5184 3962 5075 3795 
L 5171 3738 
C 5389 3910 5696 4192 5850 4403 
C 5971 4410 6048 4416 6099 4454 
L 5683 4870 
L 5453 4634 
L 3334 4634 
L 3334 5094 
C 3488 5114 3558 5178 3571 5267 
L 3053 5325 
L 3053 4634 
L 1210 4634 
C 1203 4736 1190 4845 1158 4960 
L 1043 4954 
C 1069 4506 826 4122 544 3987 
C 442 3923 371 3814 422 3712 
C 486 3603 678 3622 826 3725 
C 992 3834 1184 4070 1210 4448 
L 5440 4448 
z
M 2477 4198 
C 2790 4051 3181 3757 3309 3507 
C 3699 3341 3795 4134 2534 4269 
L 2477 4198 
z
M 1402 3590 
C 1350 3142 986 2822 678 2720 
C 570 2656 499 2560 544 2470 
C 602 2362 794 2387 954 2470 
C 1210 2598 1587 2938 1517 3584 
L 1402 3590 
z
M 3552 1946 
C 4749 1946 4928 1990 4928 2150 
C 4928 2208 4890 2240 4768 2272 
L 4755 2989 
L 4666 2989 
C 4614 2675 4557 2387 4512 2298 
C 4486 2240 4461 2227 4384 2221 
C 4275 2208 3955 2208 3539 2208 
L 2669 2208 
C 2445 2208 2368 2221 2336 2266 
C 3283 2701 4064 3264 4544 3853 
C 4691 3795 4749 3808 4806 3872 
L 4403 4147 
C 3949 3533 3206 2957 2323 2496 
L 2323 3616 
C 2432 3635 2496 3693 2502 3770 
L 2035 3834 
L 2035 2349 
C 1472 2080 870 1856 250 1696 
L 288 1581 
C 909 1715 1504 1907 2054 2138 
C 2099 1990 2246 1946 2650 1946 
L 3552 1946 
z
M 5037 134 
L 3354 134 
L 3354 1510 
C 3494 1530 3552 1587 3565 1670 
L 3072 1728 
L 3072 134 
L 1408 134 
L 1408 1133 
C 1562 1158 1626 1216 1645 1312 
L 1120 1370 
L 1120 -474 
L 1178 -474 
C 1286 -474 1408 -397 1408 -352 
L 1408 -58 
L 5037 -58 
L 5037 -410 
L 5094 -410 
C 5203 -410 5318 -339 5318 -294 
L 5318 1133 
C 5478 1158 5542 1216 5562 1312 
L 5037 1370 
L 5037 134 
z
M 4698 3462 
C 5094 3206 5581 2733 5702 2342 
C 6093 2099 6246 3008 4768 3526 
L 4698 3462 
z
" transform="scale(0.015625)"/>
       <path id="NotoSerifCJKjp-ExtraLight-63d0" d="M 5261 4800 
L 5261 4154 
L 3181 4154 
L 3181 4800 
L 5261 4800 
z
M 3181 3347 
L 3181 3968 
L 5261 3968 
L 5261 3347 
L 3181 3347 
z
M 3181 3162 
L 5261 3162 
L 5261 2835 
L 5299 2835 
C 5389 2835 5536 2918 5542 2957 
L 5542 4736 
C 5670 4762 5773 4813 5818 4864 
L 5382 5197 
L 5197 4986 
L 3206 4986 
L 2893 5146 
L 2893 2810 
L 2938 2810 
C 3059 2810 3181 2880 3181 2912 
L 3181 3162 
z
M 2528 2822 
L 1594 2483 
L 1594 3699 
L 2387 3699 
C 2477 3699 2534 3731 2554 3802 
C 2381 3974 2106 4186 2106 4186 
L 1869 3891 
L 1594 3891 
L 1594 5101 
C 1747 5120 1811 5184 1830 5274 
L 1312 5331 
L 1312 3891 
L 288 3891 
L 339 3699 
L 1312 3699 
L 1312 2381 
C 832 2208 435 2074 218 2016 
L 390 1606 
C 448 1626 499 1690 512 1766 
C 800 1894 1062 2016 1312 2125 
L 1312 77 
C 1312 -26 1280 -58 1165 -58 
C 1056 -58 480 -13 480 -13 
L 480 -122 
C 717 -147 870 -179 960 -237 
C 1037 -288 1069 -378 1088 -467 
C 1542 -410 1594 -230 1594 45 
L 1594 2259 
C 1965 2438 2291 2598 2566 2726 
L 2528 2822 
z
M 4307 1171 
L 5677 1171 
C 5754 1171 5818 1203 5837 1274 
C 5658 1453 5363 1677 5363 1677 
L 5114 1363 
L 4307 1363 
L 4307 2310 
L 5894 2310 
C 5984 2310 6042 2342 6061 2406 
C 5875 2579 5594 2790 5594 2790 
L 5338 2496 
L 2406 2496 
L 2458 2310 
L 4026 2310 
L 4026 26 
C 3622 154 3341 435 3130 1030 
C 3200 1235 3258 1459 3302 1696 
C 3443 1702 3507 1766 3526 1843 
L 3021 1939 
C 2906 870 2509 109 1907 -378 
L 1990 -467 
C 2464 -186 2822 250 3059 838 
C 3405 -134 3923 -352 4794 -352 
L 5997 -352 
C 6010 -243 6067 -173 6182 -154 
L 6182 -64 
C 5837 -70 5133 -70 4819 -70 
C 4634 -70 4461 -64 4307 -38 
L 4307 1171 
z
" transform="scale(0.015625)"/>
       <path id="NotoSerifCJKjp-ExtraLight-5b78" d="M 3642 4205 
C 3565 4077 3462 3942 3341 3814 
C 3200 3891 3021 3968 2797 4032 
L 2739 3962 
C 2880 3885 3040 3776 3187 3654 
C 2989 3469 2765 3302 2547 3168 
L 2618 3066 
C 2867 3181 3123 3334 3354 3501 
C 3462 3386 3546 3270 3590 3155 
C 3814 3027 3930 3347 3552 3661 
C 3661 3763 3757 3866 3834 3962 
C 3942 3930 4013 3942 4045 4006 
L 3642 4205 
z
M 2598 4192 
C 2835 4301 3078 4454 3290 4614 
C 3398 4512 3488 4410 3546 4320 
C 3744 4218 3853 4493 3475 4774 
C 3571 4858 3654 4947 3718 5030 
C 3827 4998 3904 5011 3936 5075 
L 3533 5280 
C 3462 5158 3366 5030 3251 4909 
C 3130 4973 2970 5037 2778 5088 
L 2714 5011 
C 2842 4947 2976 4858 3110 4762 
C 2931 4582 2726 4422 2528 4294 
L 2598 4192 
z
M 5446 2810 
C 5363 2624 5254 2400 5178 2272 
L 5274 2221 
C 5453 2355 5715 2598 5850 2771 
C 5971 2771 6048 2778 6093 2822 
L 5677 3226 
L 5453 3002 
L 5197 3002 
L 5331 4819 
C 5434 4832 5491 4845 5530 4883 
L 5178 5216 
L 4998 5018 
L 4051 5018 
L 4109 4832 
L 5043 4832 
L 5005 4352 
L 4096 4352 
L 4154 4160 
L 4992 4160 
L 4954 3674 
L 4090 3674 
L 4147 3488 
L 4941 3488 
L 4902 3002 
L 1485 3002 
L 1466 3488 
L 2355 3488 
C 2432 3488 2490 3520 2509 3590 
C 2362 3731 2144 3910 2144 3910 
L 1946 3674 
L 1459 3674 
L 1434 4160 
L 2310 4160 
C 2387 4160 2445 4192 2464 4262 
C 2330 4410 2106 4576 2106 4576 
L 1926 4352 
L 1427 4352 
L 1402 4826 
C 1741 4877 2093 4973 2317 5043 
C 2394 5011 2458 5018 2483 5050 
L 2131 5344 
C 1984 5254 1741 5120 1504 5005 
L 1101 5139 
L 1197 3002 
L 947 3002 
C 941 3072 934 3142 922 3219 
L 819 3219 
C 800 2790 557 2509 416 2419 
C 102 2227 326 1946 621 2118 
C 813 2234 934 2477 954 2810 
L 5446 2810 
z
M 5254 1178 
L 3347 1178 
L 3347 1414 
C 3494 1440 3552 1485 3571 1568 
L 3552 1568 
C 3968 1696 4410 1894 4717 2048 
C 4845 2054 4928 2067 4979 2106 
L 4576 2483 
L 4352 2266 
L 1472 2266 
L 1523 2074 
L 4186 2074 
C 3955 1907 3667 1728 3392 1594 
L 3066 1632 
L 3066 1178 
L 371 1178 
L 429 992 
L 3066 992 
L 3066 51 
C 3066 -51 3034 -83 2906 -83 
C 2778 -83 2080 -38 2080 -38 
L 2080 -141 
C 2368 -173 2547 -211 2643 -262 
C 2733 -314 2771 -397 2784 -486 
C 3290 -435 3347 -250 3347 26 
L 3347 992 
L 5850 992 
C 5939 992 5997 1024 6016 1088 
C 5824 1274 5517 1510 5517 1510 
L 5254 1178 
z
" transform="scale(0.015625)"/>
      </defs>
      <use xlink:href="#NotoSerifCJKjp-ExtraLight-5bc6"/>
      <use xlink:href="#NotoSerifCJKjp-ExtraLight-76f4" x="99.999985"/>
      <use xlink:href="#NotoSerifCJKjp-ExtraLight-63d0" x="199.999969"/>
      <use xlink:href="#NotoSerifCJKjp-ExtraLight-5b78" x="299.999954"/>
     </g>
    </g>
   </g>
   <g id="text_23">
    <g clip-path="url(#p9752149e0e)">
     <!-- 權堡 -->
     <g transform="translate(2069.819605 886.643468) scale(0.12 -0.12)">
      <defs>
       <path id="NotoSerifCJKjp-ExtraLight-5821" d="M 1139 1446 
L 1190 1446 
C 1299 1446 1421 1523 1427 1549 
L 1427 3974 
C 1523 3994 1594 4032 1613 4083 
L 1395 4166 
C 1568 4435 1728 4723 1856 5030 
C 1990 5018 2067 5075 2093 5146 
L 1600 5331 
C 1286 4390 742 3552 205 3053 
L 288 2976 
C 589 3187 877 3475 1139 3808 
L 1139 1446 
z
M 5299 -134 
L 3341 -134 
L 3341 723 
L 5338 723 
C 5427 723 5491 755 5510 826 
C 5312 1011 5005 1248 5005 1248 
L 4736 915 
L 3341 915 
L 3341 1350 
C 3494 1370 3565 1434 3578 1517 
L 3059 1581 
L 3059 915 
L 1005 915 
L 1056 723 
L 3059 723 
L 3059 -134 
L 301 -134 
L 358 -320 
L 5939 -320 
C 6029 -320 6093 -288 6106 -218 
C 5907 -32 5587 218 5587 218 
L 5299 -134 
z
M 2765 4813 
L 5018 4813 
L 5018 3974 
L 2765 3974 
L 2765 4813 
z
M 5907 3002 
C 5997 3002 6061 3034 6074 3104 
C 5888 3277 5600 3507 5600 3507 
L 5338 3194 
L 4026 3194 
L 4026 3782 
L 5018 3782 
L 5018 3597 
L 5056 3597 
C 5152 3597 5299 3667 5299 3706 
L 5299 4762 
C 5414 4781 5517 4832 5555 4870 
L 5139 5197 
L 4960 4998 
L 2835 4998 
L 2477 5171 
L 2477 3539 
L 2515 3539 
C 2662 3539 2765 3616 2765 3648 
L 2765 3782 
L 3738 3782 
L 3738 3194 
L 1850 3194 
L 1901 3002 
L 3392 3002 
C 2989 2502 2387 2067 1702 1754 
L 1773 1638 
C 2579 1939 3270 2381 3738 2950 
L 3738 1478 
L 3776 1478 
C 3923 1478 4026 1568 4026 1600 
L 4026 3002 
L 4045 3002 
C 4467 2400 5178 1939 5856 1696 
C 5894 1824 5997 1894 6118 1907 
L 6125 1971 
C 5453 2144 4685 2522 4224 3002 
L 5907 3002 
z
" transform="scale(0.015625)"/>
      </defs>
      <use xlink:href="#NotoSerifCJKjp-ExtraLight-6b0a"/>
      <use xlink:href="#NotoSerifCJKjp-ExtraLight-5821" x="99.999985"/>
     </g>
    </g>
    <g clip-path="url(#p9752149e0e)">
     <!-- 獻納 -->
     <g transform="translate(2069.819605 901.283468) scale(0.12 -0.12)">
      <defs>
       <path id="NotoSerifCJKjp-ExtraLight-737b" d="M 4979 4915 
C 5235 4717 5517 4339 5574 4045 
C 5901 3808 6138 4538 5056 4973 
L 4979 4915 
z
M 3142 3718 
C 3258 3808 3437 3981 3539 4096 
C 3648 4102 3725 4109 3770 4154 
L 3360 4557 
L 3149 4333 
L 2003 4333 
L 2003 4646 
L 3213 4646 
C 3302 4646 3360 4678 3373 4749 
C 3206 4909 2944 5120 2944 5120 
L 2720 4838 
L 2003 4838 
L 2003 5101 
C 2157 5120 2227 5184 2240 5274 
L 1722 5331 
L 1722 4333 
L 966 4333 
L 621 4506 
L 621 2854 
C 621 1824 627 672 243 -282 
L 352 -346 
C 902 602 902 1926 902 2854 
L 902 4141 
L 3162 4141 
C 3130 4006 3078 3853 3046 3763 
L 3142 3718 
z
M 966 3680 
L 1037 3501 
L 1638 3552 
L 1638 3373 
C 1638 3187 1696 3123 2016 3123 
L 2477 3117 
C 3162 3117 3283 3162 3283 3277 
C 3283 3334 3245 3354 3142 3386 
L 3130 3648 
L 3053 3648 
C 3021 3533 2982 3418 2950 3379 
C 2931 3354 2906 3354 2867 3347 
L 2477 3347 
L 2061 3347 
C 1907 3347 1894 3360 1894 3424 
L 1894 3571 
L 2765 3648 
C 2835 3654 2893 3699 2899 3770 
C 2778 3872 2560 4032 2560 4032 
L 2406 3808 
L 1894 3763 
L 1894 3942 
C 1984 3955 2048 4013 2054 4077 
L 1638 4141 
L 1638 3738 
L 966 3680 
z
M 1632 1926 
L 1632 2234 
L 2803 2234 
L 2803 1926 
L 1632 1926 
z
M 2842 1594 
C 2957 1594 3078 1677 3078 1702 
L 3078 2221 
C 3194 2240 3251 2278 3290 2323 
L 2931 2592 
L 2790 2419 
L 1709 2419 
L 1363 2586 
L 1363 1562 
L 1402 1562 
C 1536 1562 1632 1638 1632 1670 
L 1632 1734 
L 2803 1734 
L 2803 1594 
L 2842 1594 
z
M 2854 2848 
L 1075 2848 
L 1120 2662 
L 3258 2662 
C 3347 2662 3398 2694 3418 2765 
C 3270 2906 3053 3085 3053 3085 
L 2854 2848 
z
M 2720 314 
C 2797 314 2854 346 2867 416 
C 2758 538 2592 666 2592 666 
L 2451 506 
L 1523 506 
L 1574 314 
L 2016 314 
L 2016 -378 
L 2054 -378 
C 2202 -378 2304 -301 2304 -275 
L 2304 314 
L 2720 314 
z
M 3002 992 
C 2982 986 2944 979 2925 979 
L 2880 979 
L 2771 979 
L 2630 979 
C 2579 979 2566 998 2566 1050 
L 2566 1235 
L 3053 1235 
L 3053 992 
L 3002 992 
z
M 3334 1171 
C 3462 1190 3578 1248 3616 1293 
L 3155 1626 
L 2989 1427 
L 1357 1427 
L 1030 1574 
L 1030 -474 
L 1069 -474 
C 1210 -474 1312 -422 1312 -403 
L 1312 1235 
L 1747 1235 
C 1722 1037 1638 845 1370 659 
L 1472 563 
C 1856 736 1958 973 1997 1235 
L 2317 1235 
L 2317 986 
C 2317 826 2355 755 2566 755 
L 2752 755 
C 2886 755 2982 762 3053 768 
L 3053 45 
C 3053 -38 3034 -64 2957 -64 
C 2867 -64 2547 -38 2547 -38 
L 2547 -147 
C 2701 -166 2790 -198 2848 -243 
C 2906 -294 2925 -390 2931 -474 
C 3290 -429 3334 -262 3334 6 
L 3334 1171 
z
M 5952 3232 
C 6042 3232 6106 3264 6118 3334 
C 5933 3514 5638 3744 5638 3744 
L 5370 3424 
L 4678 3424 
C 4698 3949 4698 4499 4704 5056 
C 4858 5082 4909 5152 4922 5235 
L 4410 5293 
C 4410 4646 4416 4019 4397 3424 
L 3443 3424 
L 3494 3232 
L 4390 3232 
C 4333 1811 4109 576 3290 -352 
L 3398 -461 
C 4314 448 4576 1658 4659 3014 
C 4800 1574 5158 301 5901 -474 
C 5971 -365 6067 -301 6176 -314 
L 6202 -262 
C 5357 448 4928 1792 4787 3232 
L 5952 3232 
z
" transform="scale(0.015625)"/>
       <path id="NotoSerifCJKjp-ExtraLight-7d0d" d="M 1466 5338 
C 1280 4915 1050 4435 858 4096 
C 736 4173 582 4243 397 4307 
L 326 4250 
C 608 4051 941 3693 1024 3418 
C 1280 3251 1453 3648 979 4013 
C 1216 4301 1491 4685 1709 5024 
C 1837 5011 1920 5062 1939 5126 
L 1466 5338 
z
M 352 51 
C 608 416 819 966 960 1472 
C 1094 1472 1158 1523 1178 1600 
L 710 1728 
C 621 1139 442 525 243 109 
L 352 51 
z
M 1946 1734 
C 2099 1434 2285 947 2310 595 
C 2605 307 2906 992 2035 1766 
L 1946 1734 
z
M 1869 3117 
C 1978 2982 2093 2803 2195 2618 
C 1792 2592 1408 2573 1075 2560 
C 1523 3091 2010 3782 2310 4262 
C 2438 4243 2528 4282 2566 4358 
L 2093 4563 
C 1792 3974 1293 3149 896 2554 
C 640 2547 435 2541 288 2541 
L 461 2144 
C 518 2157 576 2189 608 2272 
C 890 2304 1146 2336 1376 2362 
L 1376 -467 
L 1414 -467 
C 1549 -467 1658 -390 1658 -358 
L 1658 2400 
C 1882 2426 2080 2451 2259 2477 
C 2323 2342 2368 2202 2387 2080 
C 2701 1824 2970 2522 1946 3162 
L 1869 3117 
z
M 5683 4339 
L 5523 4134 
L 4435 4134 
C 4448 4442 4454 4749 4461 5050 
C 4602 5069 4653 5133 4666 5216 
L 4160 5274 
C 4160 4896 4160 4512 4147 4134 
L 3098 4134 
L 2778 4307 
L 2778 -467 
L 2835 -467 
C 2963 -467 3066 -390 3066 -352 
L 3066 3949 
L 4134 3949 
C 4077 2886 3872 1875 3117 1101 
L 3219 998 
C 3827 1530 4128 2176 4282 2867 
C 4659 2432 5056 1818 5114 1344 
C 5466 1050 5702 1990 4314 3027 
C 4371 3328 4403 3642 4422 3949 
L 5581 3949 
L 5581 102 
C 5581 -6 5542 -45 5421 -45 
C 5286 -45 4608 13 4608 13 
L 4608 -96 
C 4890 -128 5069 -173 5165 -224 
C 5248 -275 5286 -358 5299 -448 
C 5811 -397 5862 -205 5862 58 
L 5862 3904 
C 5978 3923 6080 3968 6118 4019 
L 5683 4339 
z
" transform="scale(0.015625)"/>
      </defs>
      <use xlink:href="#NotoSerifCJKjp-ExtraLight-737b"/>
      <use xlink:href="#NotoSerifCJKjp-ExtraLight-7d0d" x="99.999985"/>
     </g>
    </g>
   </g>
   <g id="text_24">
    <g clip-path="url(#p9752149e0e)">
     <!-- 徐渙 -->
     <g transform="translate(2269.24814 886.643468) scale(0.12 -0.12)">
      <defs>
       <path id="NotoSerifCJKjp-ExtraLight-5f90" d="M 1638 5325 
C 1370 4845 813 4141 288 3686 
L 365 3603 
C 966 4006 1549 4602 1875 5024 
C 2010 4992 2067 5018 2112 5082 
L 1638 5325 
z
M 1728 4115 
C 1427 3475 806 2541 205 1920 
L 282 1843 
C 563 2074 832 2349 1082 2630 
L 1082 -474 
L 1133 -474 
C 1235 -474 1357 -390 1363 -365 
L 1363 2797 
C 1466 2816 1523 2854 1549 2912 
L 1376 2982 
C 1613 3283 1818 3571 1965 3821 
C 2118 3789 2176 3814 2214 3885 
L 1728 4115 
z
M 2778 1619 
C 2611 1178 2240 538 1850 122 
L 1926 38 
C 2394 397 2816 934 3053 1318 
C 3200 1293 3245 1318 3283 1389 
L 2778 1619 
z
M 4659 1510 
C 5011 1152 5491 550 5619 115 
C 6010 -166 6227 717 4742 1562 
L 4659 1510 
z
M 5306 2285 
L 4102 2285 
L 4102 3130 
L 5094 3130 
C 5184 3130 5242 3162 5261 3226 
C 5075 3386 4813 3584 4813 3584 
L 4570 3315 
L 2701 3315 
L 2752 3130 
L 3821 3130 
L 3821 2285 
L 1990 2285 
L 2042 2093 
L 3821 2093 
L 3821 45 
C 3821 -51 3789 -83 3661 -83 
C 3526 -83 2848 -38 2848 -38 
L 2848 -141 
C 3142 -166 3315 -198 3418 -256 
C 3494 -301 3539 -384 3546 -461 
C 4038 -410 4102 -218 4102 38 
L 4102 2093 
L 5888 2093 
C 5978 2093 6042 2125 6054 2195 
C 5869 2368 5574 2605 5574 2605 
L 5306 2285 
z
M 3802 5318 
C 3520 4563 2515 3475 1741 2950 
L 1798 2854 
C 2662 3354 3590 4237 4045 5011 
C 4422 4250 5165 3501 5926 3021 
C 5965 3130 6080 3200 6208 3219 
L 6221 3309 
C 5376 3744 4595 4410 4160 5088 
C 4294 5101 4365 5126 4378 5190 
L 3802 5318 
z
" transform="scale(0.015625)"/>
       <path id="NotoSerifCJKjp-ExtraLight-6e19" d="M 672 5184 
C 960 5011 1325 4691 1446 4435 
C 1824 4243 1971 5011 730 5248 
L 672 5184 
z
M 211 3661 
C 499 3514 845 3206 960 2957 
C 1338 2771 1478 3552 269 3725 
L 211 3661 
z
M 1786 4154 
C 870 1651 870 1651 774 1434 
C 723 1299 698 1293 640 1293 
L 365 1293 
L 365 1146 
C 506 1133 589 1120 672 1062 
C 794 973 832 486 755 -154 
C 755 -339 800 -467 902 -467 
C 1082 -467 1165 -320 1178 -64 
C 1203 442 1062 774 1056 1037 
C 1056 1197 1094 1382 1133 1574 
C 1216 1869 1677 3334 1920 4128 
L 1786 4154 
z
M 2502 1408 
L 2502 3629 
L 3270 3629 
C 3245 3110 3142 2630 2541 2240 
L 2637 2138 
C 3392 2522 3533 3046 3578 3629 
L 4090 3629 
L 4090 2720 
C 4090 2528 4141 2451 4416 2451 
L 4698 2451 
C 4941 2451 5088 2458 5184 2483 
L 5184 1408 
L 3840 1408 
C 3872 1549 3891 1696 3910 1843 
C 4045 1856 4115 1933 4128 2010 
L 3610 2074 
C 3590 1837 3565 1619 3514 1408 
L 2502 1408 
z
M 4237 4595 
C 4115 4352 3942 4051 3763 3821 
L 2579 3821 
L 2438 3885 
C 2682 4083 2912 4326 3110 4595 
L 4237 4595 
z
M 5184 3629 
L 5184 2720 
L 5165 2726 
L 5094 2726 
C 5062 2720 5024 2714 4998 2707 
L 4934 2707 
L 4723 2707 
L 4480 2707 
C 4390 2707 4378 2726 4378 2784 
L 4378 3629 
L 5184 3629 
z
M 6029 1216 
C 6118 1216 6170 1248 6189 1318 
C 6035 1504 5760 1760 5760 1760 
L 5530 1408 
L 5466 1408 
L 5466 3571 
C 5594 3597 5702 3642 5741 3693 
L 5312 4032 
L 5120 3821 
L 3949 3821 
C 4211 4051 4467 4358 4634 4563 
C 4755 4570 4838 4582 4877 4627 
L 4467 5005 
L 4250 4787 
L 3245 4787 
C 3315 4883 3373 4986 3430 5088 
C 3565 5062 3642 5114 3674 5178 
L 3213 5402 
C 2880 4627 2349 3981 1824 3616 
L 1907 3526 
C 2010 3584 2118 3648 2221 3718 
L 2221 1408 
L 1478 1408 
L 1523 1216 
L 3450 1216 
C 3226 602 2675 90 1299 -352 
L 1363 -486 
C 3027 -26 3571 550 3782 1216 
L 3821 1216 
C 4205 320 4883 -205 5907 -461 
C 5939 -307 6048 -218 6182 -186 
L 6182 -122 
C 5184 32 4397 493 3981 1216 
L 6029 1216 
z
" transform="scale(0.015625)"/>
      </defs>
      <use xlink:href="#NotoSerifCJKjp-ExtraLight-5f90"/>
      <use xlink:href="#NotoSerifCJKjp-ExtraLight-6e19" x="99.999985"/>
     </g>
    </g>
    <g clip-path="url(#p9752149e0e)">
     <!-- 副令 -->
     <g transform="translate(2269.24814 901.283468) scale(0.12 -0.12)">
      <defs>
       <path id="NotoSerifCJKjp-ExtraLight-526f" d="M 2234 192 
L 2234 1069 
L 3373 1069 
L 3373 192 
L 2234 192 
z
M 819 1069 
L 1946 1069 
L 1946 192 
L 819 192 
L 819 1069 
z
M 1946 2093 
L 1946 1254 
L 819 1254 
L 819 2093 
L 1946 2093 
z
M 3373 2093 
L 3373 1254 
L 2234 1254 
L 2234 2093 
L 3373 2093 
z
M 3309 2285 
L 851 2285 
L 538 2445 
L 538 -480 
L 589 -480 
C 704 -480 819 -410 819 -378 
L 819 0 
L 3373 0 
L 3373 -371 
L 3411 -371 
C 3507 -371 3648 -288 3654 -250 
L 3654 2029 
C 3782 2054 3891 2106 3936 2157 
L 3501 2490 
L 3309 2285 
z
M 1158 3117 
L 1158 3955 
L 3034 3955 
L 3034 3117 
L 1158 3117 
z
M 3072 2682 
C 3168 2682 3309 2758 3315 2790 
L 3315 3891 
C 3437 3917 3552 3968 3597 4019 
L 3162 4346 
L 2970 4141 
L 1190 4141 
L 877 4301 
L 877 2630 
L 922 2630 
C 1037 2630 1158 2701 1158 2726 
L 1158 2925 
L 3034 2925 
L 3034 2682 
L 3072 2682 
z
M 3264 4870 
L 269 4870 
L 320 4678 
L 3846 4678 
C 3936 4678 3994 4710 4013 4781 
C 3821 4954 3526 5190 3526 5190 
L 3264 4870 
z
M 4371 4762 
L 4371 774 
L 4429 774 
C 4531 774 4653 845 4653 902 
L 4653 4525 
C 4813 4544 4870 4608 4883 4698 
L 4371 4762 
z
M 5523 5210 
L 5523 70 
C 5523 -32 5491 -70 5376 -70 
C 5261 -70 4666 -19 4666 -19 
L 4666 -128 
C 4915 -154 5075 -192 5158 -243 
C 5242 -301 5274 -384 5286 -474 
C 5754 -422 5805 -237 5805 38 
L 5805 4973 
C 5958 4992 6022 5056 6042 5146 
L 5523 5210 
z
" transform="scale(0.015625)"/>
       <path id="NotoSerifCJKjp-ExtraLight-4ee4" d="M 4915 2253 
L 954 2253 
L 1011 2061 
L 2822 2061 
L 2822 -454 
L 2861 -454 
C 3008 -454 3110 -378 3110 -352 
L 3110 2061 
L 4979 2061 
L 4979 544 
C 4979 442 4947 410 4832 410 
C 4685 410 4013 461 4013 461 
L 4013 358 
C 4294 320 4467 275 4563 230 
C 4653 179 4685 96 4704 6 
C 5216 58 5267 243 5267 493 
L 5267 1997 
C 5389 2022 5498 2074 5542 2125 
L 5082 2458 
L 4915 2253 
z
M 3885 3290 
L 1894 3290 
L 1939 3104 
L 4435 3104 
C 4518 3104 4582 3136 4595 3200 
C 4416 3373 4128 3590 4128 3590 
L 3885 3290 
z
M 3072 5376 
C 2682 4499 1293 3245 224 2688 
L 269 2586 
C 1440 3149 2694 4192 3309 5050 
C 3827 4218 4870 3392 5933 2874 
C 5978 2976 6099 3053 6240 3072 
L 6253 3162 
C 5062 3667 4032 4365 3437 5133 
C 3578 5139 3654 5171 3667 5242 
L 3072 5376 
z
" transform="scale(0.015625)"/>
      </defs>
      <use xlink:href="#NotoSerifCJKjp-ExtraLight-526f"/>
      <use xlink:href="#NotoSerifCJKjp-ExtraLight-4ee4" x="99.999985"/>
     </g>
    </g>
   </g>
   <g id="text_25">
    <g clip-path="url(#p9752149e0e)">
     <!-- 權增 -->
     <g transform="translate(2468.578916 886.643468) scale(0.12 -0.12)">
      <defs>
       <path id="NotoSerifCJKjp-ExtraLight-589e" d="M 2989 45 
L 2989 730 
L 5011 730 
L 5011 45 
L 2989 45 
z
M 5011 1574 
L 5011 922 
L 2989 922 
L 2989 1574 
L 5011 1574 
z
M 4954 1766 
L 3021 1766 
L 2707 1926 
L 2707 -486 
L 2758 -486 
C 2867 -486 2989 -416 2989 -384 
L 2989 -147 
L 5011 -147 
L 5011 -467 
L 5050 -467 
C 5146 -467 5293 -384 5299 -346 
L 5299 1530 
C 5402 1549 5504 1600 5542 1645 
L 5133 1958 
L 4954 1766 
z
M 2906 3469 
C 3072 3283 3245 2963 3270 2720 
C 3558 2477 3840 3091 2982 3514 
L 2906 3469 
z
M 4787 3539 
C 4691 3309 4525 2918 4403 2688 
L 4467 2624 
C 4640 2797 4883 3078 5011 3226 
C 5146 3206 5203 3226 5229 3283 
L 4787 3539 
z
M 4128 2502 
L 4128 3693 
L 5325 3693 
L 5325 2502 
L 4128 2502 
z
M 2707 3693 
L 3846 3693 
L 3846 2502 
L 2707 2502 
L 2707 3693 
z
M 4704 5325 
L 4525 5069 
L 3539 5069 
L 3597 4877 
L 4666 4877 
C 4800 4531 5018 4192 5286 3891 
L 5280 3885 
L 2778 3885 
L 2726 3910 
C 2938 4179 3104 4454 3226 4698 
C 3379 4678 3430 4710 3462 4774 
L 2970 4973 
C 2822 4550 2541 4026 2195 3584 
C 2016 3750 1766 3955 1766 3955 
L 1517 3642 
L 1376 3642 
L 1376 5011 
C 1530 5030 1587 5094 1606 5184 
L 1094 5248 
L 1094 3642 
L 288 3642 
L 339 3456 
L 1094 3456 
L 1094 1267 
C 717 1126 410 1011 230 954 
L 461 538 
C 512 563 557 627 570 698 
C 1318 1088 1907 1427 2330 1651 
L 2291 1747 
C 1978 1619 1664 1491 1376 1382 
L 1376 3456 
L 2067 3456 
L 2086 3456 
C 1990 3341 1888 3238 1786 3142 
L 1856 3053 
C 2061 3200 2259 3379 2432 3565 
L 2432 2035 
L 2470 2035 
C 2605 2035 2707 2118 2707 2144 
L 2707 2317 
L 5325 2317 
L 5325 2106 
L 5363 2106 
C 5459 2106 5606 2182 5613 2221 
L 5613 3571 
C 5715 3482 5824 3398 5933 3322 
C 5978 3443 6099 3520 6221 3539 
L 6240 3610 
C 5638 3917 5082 4403 4845 4864 
C 5018 4870 5152 4909 5210 4979 
L 4704 5325 
z
" transform="scale(0.015625)"/>
      </defs>
      <use xlink:href="#NotoSerifCJKjp-ExtraLight-6b0a"/>
      <use xlink:href="#NotoSerifCJKjp-ExtraLight-589e" x="99.999985"/>
     </g>
    </g>
    <g clip-path="url(#p9752149e0e)">
     <!-- 主簿 -->
     <g transform="translate(2468.578916 901.283468) scale(0.12 -0.12)">
      <defs>
       <path id="NotoSerifCJKjp-ExtraLight-4e3b" d="M 2234 5274 
C 2701 5037 3315 4563 3526 4186 
C 3942 4000 4000 4890 2298 5344 
L 2234 5274 
z
M 5325 -19 
L 3341 -19 
L 3341 1850 
L 5363 1850 
C 5453 1850 5517 1882 5530 1946 
C 5331 2131 5024 2374 5024 2374 
L 4749 2035 
L 3341 2035 
L 3341 3686 
L 5664 3686 
C 5747 3686 5805 3718 5824 3789 
C 5626 3981 5299 4224 5299 4224 
L 5024 3878 
L 730 3878 
L 787 3686 
L 3059 3686 
L 3059 2035 
L 992 2035 
L 1043 1850 
L 3059 1850 
L 3059 -19 
L 294 -19 
L 352 -205 
L 5965 -205 
C 6054 -205 6112 -173 6131 -109 
C 5926 83 5606 326 5606 326 
L 5325 -19 
z
" transform="scale(0.015625)"/>
       <path id="NotoSerifCJKjp-ExtraLight-7c3f" d="M 2829 3853 
C 3091 4026 3360 4275 3597 4570 
L 4109 4570 
C 4282 4397 4467 4147 4525 3949 
C 4806 3763 5011 4237 4403 4570 
L 5952 4570 
C 6042 4570 6099 4602 6118 4672 
C 5939 4851 5651 5082 5651 5082 
L 5395 4762 
L 3744 4762 
C 3808 4851 3866 4941 3923 5037 
C 4051 5011 4128 5062 4160 5126 
L 3725 5338 
C 3469 4768 3091 4243 2739 3942 
L 2829 3853 
z
M 4794 4314 
C 4992 4211 5222 4019 5306 3853 
C 5613 3699 5754 4301 4858 4378 
L 4794 4314 
z
M 1523 4570 
C 1677 4397 1850 4154 1901 3962 
C 2150 3776 2362 4224 1773 4570 
L 3155 4570 
C 3232 4570 3296 4602 3309 4672 
C 3155 4832 2893 5030 2893 5030 
L 2675 4762 
L 1408 4762 
C 1472 4851 1530 4947 1581 5043 
C 1709 5018 1792 5069 1824 5133 
L 1389 5338 
C 1107 4691 678 4109 282 3770 
L 371 3686 
C 685 3898 998 4205 1274 4570 
L 1523 4570 
z
M 845 3757 
C 1094 3603 1408 3296 1510 3066 
C 1830 2886 1984 3533 915 3821 
L 845 3757 
z
M 256 2816 
C 531 2662 870 2362 986 2131 
C 1312 1958 1446 2643 320 2880 
L 256 2816 
z
M 2029 3155 
C 1024 1178 1024 1178 922 998 
C 864 883 845 883 781 883 
L 499 883 
L 499 730 
C 621 723 698 710 781 666 
C 909 595 947 294 883 -230 
C 890 -378 934 -474 1024 -474 
C 1178 -474 1254 -346 1267 -147 
C 1280 218 1158 448 1158 653 
C 1158 781 1210 954 1267 1120 
C 1357 1350 1914 2547 2150 3117 
L 2029 3155 
z
M 2746 672 
C 2995 512 3296 205 3386 -45 
C 3718 -237 3904 454 2810 730 
L 2746 672 
z
M 2726 2150 
L 3795 2150 
L 3795 1645 
L 2726 1645 
L 2726 2150 
z
M 3795 2829 
L 3795 2342 
L 2726 2342 
L 2726 2829 
L 3795 2829 
z
M 5190 2829 
L 5190 2342 
L 4070 2342 
L 4070 2829 
L 5190 2829 
z
M 4070 1645 
L 4070 2150 
L 5190 2150 
L 5190 1645 
L 4070 1645 
z
M 5504 1005 
L 4883 1005 
L 4883 1459 
L 5190 1459 
L 5190 1293 
L 5229 1293 
C 5318 1293 5466 1370 5472 1414 
L 5472 2784 
C 5581 2803 5683 2854 5722 2899 
L 5306 3213 
L 5133 3021 
L 4070 3021 
L 4070 3443 
L 5894 3443 
C 5978 3443 6042 3475 6054 3546 
C 5875 3699 5613 3891 5613 3891 
L 5382 3629 
L 4070 3629 
L 4070 3891 
C 4211 3917 4269 3974 4282 4051 
L 3795 4109 
L 3795 3629 
L 2003 3629 
L 2054 3443 
L 3795 3443 
L 3795 3021 
L 2758 3021 
L 2438 3181 
L 2438 1254 
L 2483 1254 
C 2605 1254 2726 1318 2726 1350 
L 2726 1459 
L 4602 1459 
L 4602 1005 
L 1837 1005 
L 1888 813 
L 4602 813 
L 4602 6 
C 4602 -77 4570 -109 4461 -109 
C 4326 -109 3712 -70 3712 -70 
L 3712 -173 
C 3981 -192 4147 -224 4230 -275 
C 4307 -314 4346 -390 4358 -461 
C 4819 -416 4883 -250 4883 0 
L 4883 813 
L 6048 813 
C 6138 813 6189 845 6208 915 
C 6035 1088 5747 1299 5747 1299 
L 5504 1005 
z
" transform="scale(0.015625)"/>
      </defs>
      <use xlink:href="#NotoSerifCJKjp-ExtraLight-4e3b"/>
      <use xlink:href="#NotoSerifCJKjp-ExtraLight-7c3f" x="99.999985"/>
     </g>
    </g>
   </g>
  </g>
 </g>
 <defs>
  <clipPath id="p9752149e0e">
   <rect x="360" y="129.6" width="2232" height="831.6"/>
  </clipPath>
 </defs>
</svg>
