<?xml version="1.0" encoding="utf-8" standalone="no"?>
<!DOCTYPE svg PUBLIC "-//W3C//DTD SVG 1.1//EN"
  "http://www.w3.org/Graphics/SVG/1.1/DTD/svg11.dtd">
<svg xmlns:xlink="http://www.w3.org/1999/xlink" width="2880pt" height="1080pt" viewBox="0 0 2880 1080" xmlns="http://www.w3.org/2000/svg" version="1.1">
 <metadata>
  <rdf:RDF xmlns:dc="http://purl.org/dc/elements/1.1/" xmlns:cc="http://creativecommons.org/ns#" xmlns:rdf="http://www.w3.org/1999/02/22-rdf-syntax-ns#">
   <cc:Work>
    <dc:type rdf:resource="http://purl.org/dc/dcmitype/StillImage"/>
    <dc:date>2025-06-20T00:22:13.029439</dc:date>
    <dc:format>image/svg+xml</dc:format>
    <dc:creator>
     <cc:Agent>
      <dc:title>Matplotlib v3.9.4, https://matplotlib.org/</dc:title>
     </cc:Agent>
    </dc:creator>
   </cc:Work>
  </rdf:RDF>
 </metadata>
 <defs>
  <style type="text/css">*{stroke-linejoin: round; stroke-linecap: butt}</style>
 </defs>
 <g id="figure_1">
  <g id="patch_1">
   <path d="M 0 1080 
L 2880 1080 
L 2880 0 
L 0 0 
z
" style="fill: #ffffff"/>
  </g>
  <g id="axes_1">
   <g id="patch_2">
    <path d="M 1041.826072 548.579824 
Q 734.584386 670.770266 497.331765 897.850427 
" clip-path="url(#p0ed0fe4fc4)" style="fill: none; stroke: #000000; stroke-width: 2; stroke-linecap: round"/>
    <path d="M 501.604363 896.529477 
L 497.331765 897.850427 
L 498.838563 893.639779 
z
" clip-path="url(#p0ed0fe4fc4)" style="stroke: #000000; stroke-width: 2; stroke-linecap: round"/>
   </g>
   <g id="patch_3">
    <path d="M 1048.219131 553.900671 
Q 1015.538892 725.401139 1047.800998 894.705064 
" clip-path="url(#p0ed0fe4fc4)" style="fill: none; stroke: #000000; stroke-width: 2; stroke-linecap: round"/>
    <path d="M 1049.016889 890.40139 
L 1047.800998 894.705064 
L 1045.087594 891.150146 
z
" clip-path="url(#p0ed0fe4fc4)" style="stroke: #000000; stroke-width: 2; stroke-linecap: round"/>
   </g>
   <g id="patch_4">
    <path d="M 2122.914084 193.900671 
Q 2090.233845 365.401139 2122.49595 534.705064 
" clip-path="url(#p0ed0fe4fc4)" style="fill: none; stroke: #000000; stroke-width: 2; stroke-linecap: round"/>
    <path d="M 2123.711842 530.40139 
L 2122.49595 534.705064 
L 2119.782547 531.150146 
z
" clip-path="url(#p0ed0fe4fc4)" style="stroke: #000000; stroke-width: 2; stroke-linecap: round"/>
   </g>
   <g id="patch_5">
    <path d="M 2117.462004 550.343375 
Q 1915.49331 691.706539 1781.945713 896.260845 
" clip-path="url(#p0ed0fe4fc4)" style="fill: none; stroke: #000000; stroke-width: 2; stroke-linecap: round"/>
    <path d="M 1785.807109 894.004826 
L 1781.945713 896.260845 
L 1782.457735 891.818117 
z
" clip-path="url(#p0ed0fe4fc4)" style="stroke: #000000; stroke-width: 2; stroke-linecap: round"/>
   </g>
   <g id="patch_6">
    <path d="M 2119.373823 552.324385 
Q 2002.934952 708.698198 1953.085558 894.867298 
" clip-path="url(#p0ed0fe4fc4)" style="fill: none; stroke: #000000; stroke-width: 2; stroke-linecap: round"/>
    <path d="M 1956.052107 891.520721 
L 1953.085558 894.867298 
L 1952.188225 890.486112 
z
" clip-path="url(#p0ed0fe4fc4)" style="stroke: #000000; stroke-width: 2; stroke-linecap: round"/>
   </g>
   <g id="patch_7">
    <path d="M 2122.914084 553.900671 
Q 2090.233845 725.401139 2122.49595 894.705064 
" clip-path="url(#p0ed0fe4fc4)" style="fill: none; stroke: #000000; stroke-width: 2; stroke-linecap: round"/>
    <path d="M 2123.711842 890.40139 
L 2122.49595 894.705064 
L 2119.782547 891.150146 
z
" clip-path="url(#p0ed0fe4fc4)" style="stroke: #000000; stroke-width: 2; stroke-linecap: round"/>
   </g>
   <g id="patch_8">
    <path d="M 2126.779642 553.774077 
Q 2177.207637 742.103038 2292.311286 896.683262 
" clip-path="url(#p0ed0fe4fc4)" style="fill: none; stroke: #000000; stroke-width: 2; stroke-linecap: round"/>
    <path d="M 2291.526478 892.280527 
L 2292.311286 896.683262 
L 2288.318213 894.669468 
z
" clip-path="url(#p0ed0fe4fc4)" style="stroke: #000000; stroke-width: 2; stroke-linecap: round"/>
   </g>
   <g id="patch_9">
    <path d="M 2129.285012 552.667872 
Q 2264.046948 759.092762 2464.175681 899.17509 
" clip-path="url(#p0ed0fe4fc4)" style="fill: none; stroke: #000000; stroke-width: 2; stroke-linecap: round"/>
    <path d="M 2462.045576 895.242832 
L 2464.175681 899.17509 
L 2459.751812 898.51982 
z
" clip-path="url(#p0ed0fe4fc4)" style="stroke: #000000; stroke-width: 2; stroke-linecap: round"/>
   </g>
   <g id="patch_10">
    <path d="M 1418.974452 553.900671 
Q 1386.294213 725.401139 1418.556319 894.705064 
" clip-path="url(#p0ed0fe4fc4)" style="fill: none; stroke: #000000; stroke-width: 2; stroke-linecap: round"/>
    <path d="M 1419.772211 890.40139 
L 1418.556319 894.705064 
L 1415.842915 891.150146 
z
" clip-path="url(#p0ed0fe4fc4)" style="stroke: #000000; stroke-width: 2; stroke-linecap: round"/>
   </g>
   <g id="patch_11">
    <path d="M 1422.840011 553.774077 
Q 1473.268006 742.103038 1588.371655 896.683262 
" clip-path="url(#p0ed0fe4fc4)" style="fill: none; stroke: #000000; stroke-width: 2; stroke-linecap: round"/>
    <path d="M 1587.586847 892.280527 
L 1588.371655 896.683262 
L 1584.378582 894.669468 
z
" clip-path="url(#p0ed0fe4fc4)" style="stroke: #000000; stroke-width: 2; stroke-linecap: round"/>
   </g>
   <g id="patch_12">
    <path d="M 1590.300391 188.660151 
Q 1289.021127 311.957981 1057.660792 537.774612 
" clip-path="url(#p0ed0fe4fc4)" style="fill: none; stroke: #000000; stroke-width: 2; stroke-linecap: round"/>
    <path d="M 1061.920269 536.411945 
L 1057.660792 537.774612 
L 1059.126344 533.549431 
z
" clip-path="url(#p0ed0fe4fc4)" style="stroke: #000000; stroke-width: 2; stroke-linecap: round"/>
   </g>
   <g id="patch_13">
    <path d="M 1596.663639 193.900671 
Q 1563.9834 365.401139 1596.245506 534.705064 
" clip-path="url(#p0ed0fe4fc4)" style="fill: none; stroke: #000000; stroke-width: 2; stroke-linecap: round"/>
    <path d="M 1597.461397 530.40139 
L 1596.245506 534.705064 
L 1593.532102 531.150146 
z
" clip-path="url(#p0ed0fe4fc4)" style="stroke: #000000; stroke-width: 2; stroke-linecap: round"/>
   </g>
   <g id="patch_14">
    <path d="M 1600.593507 193.758228 
Q 1652.66031 382.432488 1769.409606 536.731598 
" clip-path="url(#p0ed0fe4fc4)" style="fill: none; stroke: #000000; stroke-width: 2; stroke-linecap: round"/>
    <path d="M 1768.590967 532.335028 
L 1769.409606 536.731598 
L 1765.401166 534.748567 
z
" clip-path="url(#p0ed0fe4fc4)" style="stroke: #000000; stroke-width: 2; stroke-linecap: round"/>
   </g>
   <g id="patch_15">
    <path d="M 1603.071265 192.646669 
Q 1739.507926 399.429362 1941.325952 539.217101 
" clip-path="url(#p0ed0fe4fc4)" style="fill: none; stroke: #000000; stroke-width: 2; stroke-linecap: round"/>
    <path d="M 1939.176491 535.29539 
L 1941.325952 539.217101 
L 1936.898907 538.583643 
z
" clip-path="url(#p0ed0fe4fc4)" style="stroke: #000000; stroke-width: 2; stroke-linecap: round"/>
   </g>
   <g id="patch_16">
    <path d="M 1593.069589 192.285303 
Q 1474.971095 348.36757 1423.499137 534.886339 
" clip-path="url(#p0ed0fe4fc4)" style="fill: none; stroke: #000000; stroke-width: 2; stroke-linecap: round"/>
    <path d="M 1426.491144 531.562502 
L 1423.499137 534.886339 
L 1422.635272 530.49843 
z
" clip-path="url(#p0ed0fe4fc4)" style="stroke: #000000; stroke-width: 2; stroke-linecap: round"/>
   </g>
   <g id="text_1">
    <g id="patch_17">
     <path d="M 772.369638 735.508264 
L 777.750635 732.051547 
Q 780.779517 730.105814 778.833784 727.076933 
L 771.95886 716.374885 
Q 770.013127 713.346003 766.984245 715.291736 
L 761.603248 718.748453 
Q 758.574367 720.694186 760.5201 723.723067 
L 767.395024 734.425115 
Q 769.340757 737.453997 772.369638 735.508264 
z
" clip-path="url(#p0ed0fe4fc4)" style="fill: #ffffff; stroke: #ffffff; stroke-linejoin: miter"/>
    </g>
    <g clip-path="url(#p0ed0fe4fc4)">
     <!-- 1 -->
     <g transform="translate(768.737603 729.854352) rotate(-32.716417) scale(0.12 -0.12)">
      <defs>
       <path id="NotoSerifCJKjp-ExtraLight-31" d="M 1997 250 
C 1990 659 1984 1062 1984 1459 
L 1984 3616 
L 2010 4614 
L 1914 4691 
L 614 4346 
L 614 4160 
L 1600 4333 
L 1600 1459 
C 1600 1062 1594 653 1587 250 
L 544 173 
L 544 0 
L 3002 0 
L 3002 173 
L 1997 250 
z
" transform="scale(0.015625)"/>
      </defs>
      <use xlink:href="#NotoSerifCJKjp-ExtraLight-31"/>
     </g>
    </g>
   </g>
   <g id="text_2">
    <g id="patch_18">
     <path d="M 1039.91912 722.202188 
L 1039.91912 728.597813 
Q 1039.91912 732.197813 1043.51912 732.197813 
L 1056.23912 732.197813 
Q 1059.83912 732.197813 1059.83912 728.597813 
L 1059.83912 722.202188 
Q 1059.83912 718.602188 1056.23912 718.602188 
L 1043.51912 718.602188 
Q 1039.91912 718.602188 1039.91912 722.202188 
z
" clip-path="url(#p0ed0fe4fc4)" style="fill: #ffffff; stroke: #ffffff; stroke-linejoin: miter"/>
    </g>
    <g clip-path="url(#p0ed0fe4fc4)">
     <!-- 2 -->
     <g transform="translate(1046.63912 722.202188) rotate(-270) scale(0.12 -0.12)">
      <defs>
       <path id="NotoSerifCJKjp-ExtraLight-32" d="M 646 358 
C 1069 838 1472 1299 1645 1491 
C 2560 2515 2886 2970 2886 3520 
C 2886 4250 2458 4717 1638 4717 
C 1024 4717 486 4397 326 3821 
C 371 3725 454 3667 550 3667 
C 672 3667 755 3750 819 3949 
L 1005 4422 
C 1197 4499 1363 4525 1542 4525 
C 2144 4525 2483 4096 2483 3514 
C 2483 2995 2214 2547 1536 1715 
C 1222 1344 787 806 339 275 
L 339 0 
L 3104 0 
L 3104 358 
L 646 358 
z
" transform="scale(0.015625)"/>
      </defs>
      <use xlink:href="#NotoSerifCJKjp-ExtraLight-32"/>
     </g>
    </g>
   </g>
   <g id="text_3">
    <g id="patch_19">
     <path d="M 2114.614073 362.202187 
L 2114.614073 368.597812 
Q 2114.614073 372.197812 2118.214073 372.197812 
L 2130.934073 372.197812 
Q 2134.534073 372.197812 2134.534073 368.597812 
L 2134.534073 362.202187 
Q 2134.534073 358.602187 2130.934073 358.602187 
L 2118.214073 358.602187 
Q 2114.614073 358.602187 2114.614073 362.202187 
z
" clip-path="url(#p0ed0fe4fc4)" style="fill: #ffffff; stroke: #ffffff; stroke-linejoin: miter"/>
    </g>
    <g clip-path="url(#p0ed0fe4fc4)">
     <!-- 1 -->
     <g transform="translate(2121.334073 362.202187) rotate(-270) scale(0.12 -0.12)">
      <use xlink:href="#NotoSerifCJKjp-ExtraLight-31"/>
     </g>
    </g>
   </g>
   <g id="text_4">
    <g id="patch_20">
     <path d="M 1955.224589 734.625584 
L 1959.673392 730.030785 
Q 1962.177555 727.444443 1959.591213 724.94028 
L 1950.452803 716.092237 
Q 1947.866461 713.588073 1945.362297 716.174416 
L 1940.913495 720.769215 
Q 1938.409332 723.355557 1940.995674 725.85972 
L 1950.134084 734.707763 
Q 1952.720426 737.211927 1955.224589 734.625584 
z
" clip-path="url(#p0ed0fe4fc4)" style="fill: #ffffff; stroke: #ffffff; stroke-linejoin: miter"/>
    </g>
    <g clip-path="url(#p0ed0fe4fc4)">
     <!-- 1 -->
     <g transform="translate(1950.39675 729.951146) rotate(-45.924881) scale(0.12 -0.12)">
      <use xlink:href="#NotoSerifCJKjp-ExtraLight-31"/>
     </g>
    </g>
   </g>
   <g id="text_5">
    <g id="patch_21">
     <path d="M 2045.009498 732.618066 
L 2047.7962 726.861477 
Q 2049.364792 723.621181 2046.124496 722.052589 
L 2034.675449 716.51023 
Q 2031.435153 714.941638 2029.866561 718.181934 
L 2027.079859 723.938523 
Q 2025.511267 727.178819 2028.751563 728.747411 
L 2040.200609 734.28977 
Q 2043.440906 735.858362 2045.009498 732.618066 
z
" clip-path="url(#p0ed0fe4fc4)" style="fill: #ffffff; stroke: #ffffff; stroke-linejoin: miter"/>
    </g>
    <g clip-path="url(#p0ed0fe4fc4)">
     <!-- 4 -->
     <g transform="translate(2038.960945 729.690027) rotate(-64.16888) scale(0.12 -0.12)">
      <defs>
       <path id="NotoSerifCJKjp-ExtraLight-34" d="M 480 1805 
L 2163 4224 
L 2163 1805 
L 480 1805 
z
M 3309 1805 
L 2528 1805 
L 2528 4685 
L 2272 4685 
L 211 1747 
L 211 1510 
L 2163 1510 
L 2163 0 
L 2528 0 
L 2528 1510 
L 3309 1510 
L 3309 1805 
z
" transform="scale(0.015625)"/>
      </defs>
      <use xlink:href="#NotoSerifCJKjp-ExtraLight-34"/>
     </g>
    </g>
   </g>
   <g id="text_6">
    <g id="patch_22">
     <path d="M 2114.614073 722.202188 
L 2114.614073 728.597813 
Q 2114.614073 732.197813 2118.214073 732.197813 
L 2130.934073 732.197813 
Q 2134.534073 732.197813 2134.534073 728.597813 
L 2134.534073 722.202188 
Q 2134.534073 718.602188 2130.934073 718.602188 
L 2118.214073 718.602188 
Q 2114.614073 718.602188 2114.614073 722.202188 
z
" clip-path="url(#p0ed0fe4fc4)" style="fill: #ffffff; stroke: #ffffff; stroke-linejoin: miter"/>
    </g>
    <g clip-path="url(#p0ed0fe4fc4)">
     <!-- 2 -->
     <g transform="translate(2121.334073 722.202188) rotate(-270) scale(0.12 -0.12)">
      <use xlink:href="#NotoSerifCJKjp-ExtraLight-32"/>
     </g>
    </g>
   </g>
   <g id="text_7">
    <g id="patch_23">
     <path d="M 2201.351946 726.861477 
L 2204.138648 732.618066 
Q 2205.70724 735.858362 2208.947536 734.28977 
L 2220.396582 728.747411 
Q 2223.636878 727.178819 2222.068286 723.938523 
L 2219.281584 718.181934 
Q 2217.712992 714.941638 2214.472696 716.51023 
L 2203.02365 722.052589 
Q 2199.783354 723.621181 2201.351946 726.861477 
z
" clip-path="url(#p0ed0fe4fc4)" style="fill: #ffffff; stroke: #ffffff; stroke-linejoin: miter"/>
    </g>
    <g clip-path="url(#p0ed0fe4fc4)">
     <!-- 5 -->
     <g transform="translate(2207.400499 723.933439) rotate(-295.83112) scale(0.12 -0.12)">
      <defs>
       <path id="NotoSerifCJKjp-ExtraLight-35" d="M 947 4275 
L 2950 4275 
L 2950 4627 
L 755 4627 
L 614 2483 
L 755 2464 
C 992 2573 1248 2624 1536 2624 
C 2208 2624 2662 2214 2662 1395 
C 2662 602 2227 102 1459 102 
C 1235 102 1062 134 896 205 
L 736 659 
C 678 851 614 922 480 922 
C 378 922 294 858 262 762 
C 397 198 858 -90 1498 -90 
C 2470 -90 3066 550 3066 1446 
C 3066 2323 2496 2854 1626 2854 
C 1344 2854 1094 2810 845 2707 
L 947 4275 
z
" transform="scale(0.015625)"/>
      </defs>
      <use xlink:href="#NotoSerifCJKjp-ExtraLight-35"/>
     </g>
    </g>
   </g>
   <g id="text_8">
    <g id="patch_24">
     <path d="M 2289.466097 730.030556 
L 2293.914787 734.625463 
Q 2296.418887 737.211867 2299.005291 734.707767 
L 2308.143917 725.859948 
Q 2310.730321 723.355848 2308.226221 720.769444 
L 2303.777531 716.174537 
Q 2301.273432 713.588133 2298.687028 716.092233 
L 2289.548401 724.940052 
Q 2286.961998 727.444152 2289.466097 730.030556 
z
" clip-path="url(#p0ed0fe4fc4)" style="fill: #ffffff; stroke: #ffffff; stroke-linejoin: miter"/>
    </g>
    <g clip-path="url(#p0ed0fe4fc4)">
     <!-- 3 -->
     <g transform="translate(2294.294051 725.356236) rotate(-314.073715) scale(0.12 -0.12)">
      <defs>
       <path id="NotoSerifCJKjp-ExtraLight-33" d="M 1062 4435 
C 1242 4499 1408 4525 1594 4525 
C 2176 4525 2496 4166 2496 3584 
C 2496 2918 2035 2541 1402 2541 
L 1126 2541 
L 1126 2330 
L 1434 2330 
C 2234 2330 2637 1920 2637 1229 
C 2637 557 2221 102 1498 102 
C 1286 102 1107 141 941 211 
L 787 659 
C 730 845 659 928 531 928 
C 422 928 339 864 301 755 
C 461 186 928 -90 1587 -90 
C 2426 -90 3040 410 3040 1203 
C 3040 1869 2656 2330 1901 2445 
C 2541 2605 2899 3059 2899 3597 
C 2899 4262 2426 4717 1664 4717 
C 1107 4717 570 4480 429 3885 
C 461 3776 544 3731 640 3731 
C 774 3731 845 3795 909 3981 
L 1062 4435 
z
" transform="scale(0.015625)"/>
      </defs>
      <use xlink:href="#NotoSerifCJKjp-ExtraLight-33"/>
     </g>
    </g>
   </g>
   <g id="text_9">
    <g id="patch_25">
     <path d="M 1410.674442 722.202188 
L 1410.674442 728.597813 
Q 1410.674442 732.197813 1414.274442 732.197813 
L 1426.994442 732.197813 
Q 1430.594442 732.197813 1430.594442 728.597813 
L 1430.594442 722.202188 
Q 1430.594442 718.602188 1426.994442 718.602188 
L 1414.274442 718.602188 
Q 1410.674442 718.602188 1410.674442 722.202188 
z
" clip-path="url(#p0ed0fe4fc4)" style="fill: #ffffff; stroke: #ffffff; stroke-linejoin: miter"/>
    </g>
    <g clip-path="url(#p0ed0fe4fc4)">
     <!-- 1 -->
     <g transform="translate(1417.394442 722.202188) rotate(-270) scale(0.12 -0.12)">
      <use xlink:href="#NotoSerifCJKjp-ExtraLight-31"/>
     </g>
    </g>
   </g>
   <g id="text_10">
    <g id="patch_26">
     <path d="M 1497.412315 726.861477 
L 1500.199017 732.618066 
Q 1501.767609 735.858362 1505.007905 734.28977 
L 1516.456951 728.747411 
Q 1519.697247 727.178819 1518.128655 723.938523 
L 1515.341953 718.181934 
Q 1513.773361 714.941638 1510.533065 716.51023 
L 1499.084019 722.052589 
Q 1495.843723 723.621181 1497.412315 726.861477 
z
" clip-path="url(#p0ed0fe4fc4)" style="fill: #ffffff; stroke: #ffffff; stroke-linejoin: miter"/>
    </g>
    <g clip-path="url(#p0ed0fe4fc4)">
     <!-- 2 -->
     <g transform="translate(1503.460867 723.933439) rotate(-295.831119) scale(0.12 -0.12)">
      <use xlink:href="#NotoSerifCJKjp-ExtraLight-32"/>
     </g>
    </g>
   </g>
   <g id="text_11">
    <g id="patch_27">
     <path d="M 1326.893538 375.481241 
L 1332.240214 371.971673 
Q 1335.249777 369.99619 1333.274294 366.986627 
L 1326.294256 356.352839 
Q 1324.318773 353.343276 1321.30921 355.318759 
L 1315.962534 358.828327 
Q 1312.952971 360.80381 1314.928454 363.813373 
L 1321.908492 374.447161 
Q 1323.883975 377.456724 1326.893538 375.481241 
z
" clip-path="url(#p0ed0fe4fc4)" style="fill: #ffffff; stroke: #ffffff; stroke-linejoin: miter"/>
    </g>
    <g clip-path="url(#p0ed0fe4fc4)">
     <!-- 6 -->
     <g transform="translate(1323.20597 369.863391) rotate(-33.28097) scale(0.12 -0.12)">
      <defs>
       <path id="NotoSerifCJKjp-ExtraLight-36" d="M 1754 102 
C 1094 102 730 794 730 1856 
C 730 1926 730 1997 736 2061 
C 1069 2426 1402 2560 1766 2560 
C 2330 2560 2688 2150 2688 1357 
C 2688 557 2285 102 1754 102 
z
M 2963 4717 
C 1306 4512 326 3238 326 1811 
C 326 653 851 -90 1741 -90 
C 2515 -90 3091 499 3091 1408 
C 3091 2266 2611 2803 1862 2803 
C 1440 2803 1069 2630 755 2272 
C 896 3437 1645 4314 2995 4582 
L 2963 4717 
z
" transform="scale(0.015625)"/>
      </defs>
      <use xlink:href="#NotoSerifCJKjp-ExtraLight-36"/>
     </g>
    </g>
   </g>
   <g id="text_12">
    <g id="patch_28">
     <path d="M 1588.363628 362.202187 
L 1588.363628 368.597812 
Q 1588.363628 372.197812 1591.963628 372.197812 
L 1604.683628 372.197812 
Q 1608.283628 372.197812 1608.283628 368.597812 
L 1608.283628 362.202187 
Q 1608.283628 358.602187 1604.683628 358.602187 
L 1591.963628 358.602187 
Q 1588.363628 358.602187 1588.363628 362.202187 
z
" clip-path="url(#p0ed0fe4fc4)" style="fill: #ffffff; stroke: #ffffff; stroke-linejoin: miter"/>
    </g>
    <g clip-path="url(#p0ed0fe4fc4)">
     <!-- 5 -->
     <g transform="translate(1595.083628 362.202187) rotate(-270) scale(0.12 -0.12)">
      <use xlink:href="#NotoSerifCJKjp-ExtraLight-35"/>
     </g>
    </g>
   </g>
   <g id="text_13">
    <g id="patch_29">
     <path d="M 1676.821551 366.94079 
L 1679.652273 372.67586 
Q 1681.245644 375.904044 1684.473828 374.310673 
L 1695.880077 368.680765 
Q 1699.108261 367.087394 1697.514891 363.85921 
L 1694.684168 358.12414 
Q 1693.090798 354.895956 1689.862614 356.489327 
L 1678.456365 362.119235 
Q 1675.228181 363.712606 1676.821551 366.94079 
z
" clip-path="url(#p0ed0fe4fc4)" style="fill: #ffffff; stroke: #ffffff; stroke-linejoin: miter"/>
    </g>
    <g clip-path="url(#p0ed0fe4fc4)">
     <!-- 8 -->
     <g transform="translate(1682.847494 363.966498) rotate(-296.270074) scale(0.12 -0.12)">
      <defs>
       <path id="NotoSerifCJKjp-ExtraLight-38" d="M 1702 102 
C 1075 102 698 480 698 1069 
C 698 1574 960 1907 1568 2246 
C 2426 1856 2714 1491 2714 1024 
C 2714 467 2323 102 1702 102 
z
M 838 3686 
C 838 4205 1248 4525 1709 4525 
C 2253 4525 2541 4128 2541 3667 
C 2541 3168 2323 2829 1792 2515 
C 1056 2854 838 3245 838 3686 
z
M 1952 2445 
C 2643 2784 2874 3232 2874 3661 
C 2874 4288 2426 4717 1715 4717 
C 1030 4717 486 4288 486 3616 
C 486 3085 742 2637 1408 2317 
C 704 1984 339 1600 339 1030 
C 339 352 832 -90 1690 -90 
C 2509 -90 3078 371 3078 1088 
C 3078 1677 2765 2080 1952 2445 
z
" transform="scale(0.015625)"/>
      </defs>
      <use xlink:href="#NotoSerifCJKjp-ExtraLight-38"/>
     </g>
    </g>
   </g>
   <g id="text_14">
    <g id="patch_30">
     <path d="M 1764.95555 370.076467 
L 1769.426703 374.649519 
Q 1771.943448 377.22362 1774.517549 374.706876 
L 1783.612707 365.814379 
Q 1786.186809 363.297635 1783.670064 360.723533 
L 1779.198911 356.150481 
Q 1776.682166 353.57638 1774.108065 356.093124 
L 1765.012907 364.985621 
Q 1762.438805 367.502365 1764.95555 370.076467 
z
" clip-path="url(#p0ed0fe4fc4)" style="fill: #ffffff; stroke: #ffffff; stroke-linejoin: miter"/>
    </g>
    <g clip-path="url(#p0ed0fe4fc4)">
     <!-- 7 -->
     <g transform="translate(1769.760539 365.378544) rotate(-314.354493) scale(0.12 -0.12)">
      <defs>
       <path id="NotoSerifCJKjp-ExtraLight-37" d="M 333 4627 
L 333 4275 
L 2758 4275 
L 941 38 
L 992 0 
L 1350 0 
L 3027 4397 
L 3027 4627 
L 333 4627 
z
" transform="scale(0.015625)"/>
      </defs>
      <use xlink:href="#NotoSerifCJKjp-ExtraLight-37"/>
     </g>
    </g>
   </g>
   <g id="text_15">
    <g id="patch_31">
     <path d="M 1516.994982 372.67586 
L 1519.825704 366.94079 
Q 1521.419075 363.712606 1518.190891 362.119235 
L 1506.784641 356.489327 
Q 1503.556458 354.895956 1501.963087 358.12414 
L 1499.132365 363.85921 
Q 1497.538995 367.087394 1500.767178 368.680765 
L 1512.173428 374.310673 
Q 1515.401612 375.904044 1516.994982 372.67586 
z
" clip-path="url(#p0ed0fe4fc4)" style="fill: #ffffff; stroke: #ffffff; stroke-linejoin: miter"/>
    </g>
    <g clip-path="url(#p0ed0fe4fc4)">
     <!-- 4 -->
     <g transform="translate(1510.969039 369.701569) rotate(-63.729926) scale(0.12 -0.12)">
      <use xlink:href="#NotoSerifCJKjp-ExtraLight-34"/>
     </g>
    </g>
   </g>
   <g id="matplotlib.axis_1">
    <g id="xtick_1"/>
    <g id="xtick_2"/>
    <g id="xtick_3"/>
    <g id="xtick_4"/>
    <g id="xtick_5"/>
    <g id="xtick_6"/>
   </g>
   <g id="matplotlib.axis_2">
    <g id="ytick_1"/>
    <g id="ytick_2"/>
    <g id="ytick_3"/>
    <g id="ytick_4"/>
    <g id="ytick_5"/>
    <g id="ytick_6"/>
    <g id="ytick_7"/>
    <g id="ytick_8"/>
   </g>
   <g id="PathCollection_1">
    <defs>
     <path id="mb61063d452" d="M 0 15 
C 3.978047 15 7.793698 13.419505 10.606602 10.606602 
C 13.419505 7.793698 15 3.978047 15 0 
C 15 -3.978047 13.419505 -7.793698 10.606602 -10.606602 
C 7.793698 -13.419505 3.978047 -15 0 -15 
C -3.978047 -15 -7.793698 -13.419505 -10.606602 -10.606602 
C -13.419505 -7.793698 -15 -3.978047 -15 0 
C -15 3.978047 -13.419505 7.793698 -10.606602 10.606602 
C -7.793698 13.419505 -3.978047 15 0 15 
z
" style="stroke: #add8e6; stroke-opacity: 0.85"/>
    </defs>
    <g clip-path="url(#p0ed0fe4fc4)">
     <use xlink:href="#mb61063d452" x="1049.87912" y="545.4" style="fill: #add8e6; fill-opacity: 0.85; stroke: #add8e6; stroke-opacity: 0.85"/>
     <use xlink:href="#mb61063d452" x="489.474763" y="905.4" style="fill: #add8e6; fill-opacity: 0.85; stroke: #add8e6; stroke-opacity: 0.85"/>
     <use xlink:href="#mb61063d452" x="1049.87912" y="905.4" style="fill: #add8e6; fill-opacity: 0.85; stroke: #add8e6; stroke-opacity: 0.85"/>
     <use xlink:href="#mb61063d452" x="2124.574073" y="185.4" style="fill: #add8e6; fill-opacity: 0.85; stroke: #add8e6; stroke-opacity: 0.85"/>
     <use xlink:href="#mb61063d452" x="2124.574073" y="545.4" style="fill: #add8e6; fill-opacity: 0.85; stroke: #add8e6; stroke-opacity: 0.85"/>
     <use xlink:href="#mb61063d452" x="1776.012814" y="905.4" style="fill: #add8e6; fill-opacity: 0.85; stroke: #add8e6; stroke-opacity: 0.85"/>
     <use xlink:href="#mb61063d452" x="1950.301986" y="905.4" style="fill: #add8e6; fill-opacity: 0.85; stroke: #add8e6; stroke-opacity: 0.85"/>
     <use xlink:href="#mb61063d452" x="2124.574073" y="905.4" style="fill: #add8e6; fill-opacity: 0.85; stroke: #add8e6; stroke-opacity: 0.85"/>
     <use xlink:href="#mb61063d452" x="2298.846159" y="905.4" style="fill: #add8e6; fill-opacity: 0.85; stroke: #add8e6; stroke-opacity: 0.85"/>
     <use xlink:href="#mb61063d452" x="2473.118246" y="905.4" style="fill: #add8e6; fill-opacity: 0.85; stroke: #add8e6; stroke-opacity: 0.85"/>
     <use xlink:href="#mb61063d452" x="1420.634442" y="545.4" style="fill: #add8e6; fill-opacity: 0.85; stroke: #add8e6; stroke-opacity: 0.85"/>
     <use xlink:href="#mb61063d452" x="1420.634442" y="905.4" style="fill: #add8e6; fill-opacity: 0.85; stroke: #add8e6; stroke-opacity: 0.85"/>
     <use xlink:href="#mb61063d452" x="1594.906528" y="905.4" style="fill: #add8e6; fill-opacity: 0.85; stroke: #add8e6; stroke-opacity: 0.85"/>
     <use xlink:href="#mb61063d452" x="1598.323628" y="185.4" style="fill: #add8e6; fill-opacity: 0.85; stroke: #add8e6; stroke-opacity: 0.85"/>
     <use xlink:href="#mb61063d452" x="1598.323628" y="545.4" style="fill: #add8e6; fill-opacity: 0.85; stroke: #add8e6; stroke-opacity: 0.85"/>
     <use xlink:href="#mb61063d452" x="1776.012814" y="545.4" style="fill: #add8e6; fill-opacity: 0.85; stroke: #add8e6; stroke-opacity: 0.85"/>
     <use xlink:href="#mb61063d452" x="1950.301986" y="545.4" style="fill: #add8e6; fill-opacity: 0.85; stroke: #add8e6; stroke-opacity: 0.85"/>
    </g>
   </g>
   <g id="text_16">
    <g clip-path="url(#p0ed0fe4fc4)">
     <!-- 尹坦 -->
     <g transform="translate(1037.87912 541.32) scale(0.12 -0.12)">
      <defs>
       <path id="NotoSerifCJKjp-ExtraLight-5c39" d="M 4845 1958 
L 3053 1958 
C 3123 2291 3149 2637 3149 2995 
L 3149 3232 
L 4845 3232 
L 4845 1958 
z
M 3149 4666 
L 4845 4666 
L 4845 3424 
L 3149 3424 
L 3149 4666 
z
M 5299 3424 
L 5126 3424 
L 5126 4602 
C 5254 4627 5357 4678 5402 4730 
L 4966 5069 
L 4781 4858 
L 992 4858 
L 1050 4666 
L 2861 4666 
L 2861 3424 
L 294 3424 
L 352 3232 
L 2861 3232 
L 2861 2982 
C 2861 2618 2835 2278 2771 1958 
L 864 1958 
L 922 1773 
L 2726 1773 
C 2496 954 1939 262 685 -333 
L 762 -442 
C 2170 102 2771 877 3008 1773 
L 4845 1773 
L 4845 1331 
L 4877 1331 
C 4979 1331 5120 1414 5126 1453 
L 5126 3232 
L 5990 3232 
C 6080 3232 6138 3264 6157 3334 
C 5946 3533 5600 3795 5600 3795 
L 5299 3424 
z
" transform="scale(0.015625)"/>
       <path id="NotoSerifCJKjp-ExtraLight-5766" d="M 5261 4710 
L 5261 3213 
L 3162 3213 
L 3162 4710 
L 5261 4710 
z
M 3162 1504 
L 3162 3027 
L 5261 3027 
L 5261 1504 
L 3162 1504 
z
M 3162 1312 
L 5261 1312 
L 5261 787 
L 5299 787 
C 5389 787 5530 858 5542 890 
L 5542 4646 
C 5670 4672 5779 4723 5818 4774 
L 5382 5114 
L 5197 4896 
L 3194 4896 
L 2874 5062 
L 2874 755 
L 2925 755 
C 3059 755 3162 832 3162 870 
L 3162 1312 
z
M 2675 1664 
C 2298 1510 1926 1363 1581 1229 
L 1581 3347 
L 2477 3347 
C 2566 3347 2624 3379 2643 3450 
C 2458 3616 2176 3846 2176 3846 
L 1926 3539 
L 1581 3539 
L 1581 4973 
C 1741 4992 1798 5056 1818 5146 
L 1299 5210 
L 1299 3539 
L 288 3539 
L 339 3347 
L 1299 3347 
L 1299 1120 
C 819 934 422 787 205 723 
L 442 307 
C 493 333 538 397 550 474 
C 1472 915 2182 1299 2714 1568 
L 2675 1664 
z
M 5478 70 
L 1926 70 
L 1971 -122 
L 6061 -122 
C 6144 -122 6202 -90 6221 -19 
C 6035 160 5734 390 5734 390 
L 5478 70 
z
" transform="scale(0.015625)"/>
      </defs>
      <use xlink:href="#NotoSerifCJKjp-ExtraLight-5c39"/>
      <use xlink:href="#NotoSerifCJKjp-ExtraLight-5766" x="99.999985"/>
     </g>
    </g>
    <g clip-path="url(#p0ed0fe4fc4)">
     <!--  -->
     <g transform="translate(1049.87912 555.96) scale(0.12 -0.12)"/>
    </g>
   </g>
   <g id="text_17">
    <g clip-path="url(#p0ed0fe4fc4)">
     <!-- 尹金龜 -->
     <g transform="translate(471.474763 901.32) scale(0.12 -0.12)">
      <defs>
       <path id="NotoSerifCJKjp-ExtraLight-91d1" d="M 5242 -102 
L 3322 -102 
L 3322 1818 
L 5606 1818 
C 5696 1818 5747 1850 5766 1920 
C 5574 2093 5274 2323 5274 2323 
L 4998 2003 
L 3322 2003 
L 3322 3053 
L 4570 3053 
C 4659 3053 4717 3085 4736 3155 
C 4544 3322 4256 3533 4256 3533 
L 4006 3238 
L 1568 3238 
L 1619 3053 
L 3040 3053 
L 3040 2003 
L 678 2003 
L 736 1818 
L 3040 1818 
L 3040 -102 
L 384 -102 
L 442 -288 
L 5856 -288 
C 5946 -288 6010 -256 6029 -186 
C 5824 -6 5510 243 5510 243 
L 5242 -102 
z
M 1427 1510 
C 1683 1178 1990 634 2029 224 
C 2355 -70 2643 749 1517 1549 
L 1427 1510 
z
M 3955 96 
C 4243 390 4576 845 4845 1274 
C 4966 1254 5043 1306 5075 1370 
L 4595 1581 
C 4378 1069 4083 506 3853 160 
L 3955 96 
z
M 3021 5389 
C 2643 4499 1280 3258 218 2701 
L 262 2598 
C 1434 3162 2656 4198 3258 5062 
C 3757 4205 4781 3334 5850 2810 
C 5888 2912 6016 2989 6150 3002 
L 6163 3098 
C 4992 3603 3962 4358 3386 5146 
C 3526 5152 3610 5184 3616 5254 
L 3021 5389 
z
" transform="scale(0.015625)"/>
       <path id="NotoSerifCJKjp-ExtraLight-9f9c" d="M 3987 954 
C 4186 1082 4390 1254 4576 1466 
C 4710 1331 4826 1197 4883 1075 
C 5114 941 5235 1280 4736 1664 
C 4819 1779 4896 1901 4966 2022 
C 5094 1997 5178 2048 5210 2112 
L 4781 2317 
C 4704 2138 4621 1971 4525 1811 
C 4378 1901 4198 1990 3974 2074 
L 3904 2003 
C 4058 1907 4243 1773 4410 1626 
C 4243 1389 4070 1184 3898 1037 
L 3987 954 
z
M 2867 2362 
L 3494 2362 
L 3494 845 
L 2867 845 
L 2867 2362 
z
M 2867 4102 
L 3494 4102 
L 3494 2554 
L 2867 2554 
L 2867 4102 
z
M 1478 3533 
L 1478 4102 
L 2586 4102 
L 2586 3533 
L 1478 3533 
z
M 3558 4736 
C 3456 4595 3322 4429 3200 4294 
L 1549 4294 
L 1510 4314 
C 1690 4454 1856 4595 2010 4736 
L 3558 4736 
z
M 5075 4102 
L 5075 3482 
L 3776 3482 
L 3776 4102 
L 5075 4102 
z
M 5325 2362 
L 5325 845 
L 3776 845 
L 3776 2362 
L 5325 2362 
z
M 5920 589 
L 5862 589 
C 5760 243 5690 38 5645 -13 
C 5594 -64 5510 -64 5389 -64 
L 3283 -64 
C 2893 -64 2874 -64 2874 128 
L 2874 224 
L 2867 224 
L 2867 659 
L 3494 659 
L 3494 102 
L 3533 102 
C 3674 102 3776 186 3776 211 
L 3776 659 
L 5325 659 
L 5325 352 
L 5363 352 
C 5466 352 5613 429 5619 467 
L 5619 2304 
C 5741 2330 5850 2374 5894 2426 
L 5453 2765 
L 5267 2554 
L 3776 2554 
L 3776 3290 
L 5075 3290 
L 5075 3072 
L 5114 3072 
C 5203 3072 5350 3136 5357 3162 
L 5357 4058 
C 5466 4077 5568 4128 5606 4173 
L 5197 4480 
L 5018 4294 
L 3392 4294 
C 3603 4422 3821 4589 3968 4710 
C 4083 4717 4166 4723 4211 4768 
L 3821 5139 
L 3616 4922 
L 2208 4922 
C 2285 4998 2362 5075 2426 5152 
C 2592 5152 2675 5184 2688 5248 
L 2170 5363 
C 1811 4838 1056 4122 307 3706 
L 384 3616 
C 659 3744 934 3904 1190 4083 
L 1190 3194 
L 1235 3194 
C 1376 3194 1478 3258 1478 3277 
L 1478 3341 
L 2586 3341 
L 2586 2554 
L 2054 2554 
L 2054 2854 
C 2138 2874 2221 2912 2246 2944 
L 1888 3219 
L 1722 3059 
L 730 3059 
L 787 2867 
L 1766 2867 
L 1766 2554 
L 429 2554 
L 486 2362 
L 1766 2362 
L 1766 2022 
L 717 2022 
L 774 1837 
L 1766 1837 
L 1766 1677 
L 1811 1677 
C 1907 1677 2048 1754 2054 1792 
L 2054 2362 
L 2586 2362 
L 2586 845 
L 2054 845 
L 2054 1139 
C 2150 1158 2240 1203 2278 1248 
L 1888 1542 
L 1715 1363 
L 704 1363 
L 762 1171 
L 1766 1171 
L 1766 845 
L 422 845 
L 480 659 
L 1766 659 
L 1766 301 
L 691 301 
L 749 115 
L 1766 115 
L 1766 -154 
L 1811 -154 
C 1907 -154 2048 -77 2054 -38 
L 2054 659 
L 2586 659 
L 2586 102 
L 2592 102 
C 2592 -275 2675 -307 3309 -307 
L 5350 -307 
C 6035 -307 6138 -262 6138 -141 
C 6138 -83 6118 -70 5933 -19 
L 5920 589 
z
" transform="scale(0.015625)"/>
      </defs>
      <use xlink:href="#NotoSerifCJKjp-ExtraLight-5c39"/>
      <use xlink:href="#NotoSerifCJKjp-ExtraLight-91d1" x="99.999985"/>
      <use xlink:href="#NotoSerifCJKjp-ExtraLight-9f9c" x="199.999969"/>
     </g>
    </g>
    <g clip-path="url(#p0ed0fe4fc4)">
     <!--  -->
     <g transform="translate(489.474763 915.96) scale(0.12 -0.12)"/>
    </g>
   </g>
   <g id="text_18">
    <g clip-path="url(#p0ed0fe4fc4)">
     <!-- 尹玉龜 -->
     <g transform="translate(1031.87912 901.32) scale(0.12 -0.12)">
      <defs>
       <path id="NotoSerifCJKjp-ExtraLight-7389" d="M 5293 13 
L 3283 13 
L 3283 2387 
L 5306 2387 
C 5395 2387 5453 2419 5472 2490 
C 5280 2675 4960 2918 4960 2918 
L 4691 2579 
L 3283 2579 
L 3283 4576 
L 5562 4576 
C 5651 4576 5715 4608 5728 4678 
C 5530 4870 5210 5114 5210 5114 
L 4922 4768 
L 691 4768 
L 749 4576 
L 3002 4576 
L 3002 2579 
L 992 2579 
L 1043 2387 
L 3002 2387 
L 3002 13 
L 320 13 
L 378 -173 
L 5926 -173 
C 6016 -173 6080 -147 6099 -77 
C 5894 115 5574 358 5574 358 
L 5293 13 
z
M 3891 1875 
C 4275 1581 4749 1069 4851 653 
C 5261 384 5466 1338 3962 1933 
L 3891 1875 
z
" transform="scale(0.015625)"/>
      </defs>
      <use xlink:href="#NotoSerifCJKjp-ExtraLight-5c39"/>
      <use xlink:href="#NotoSerifCJKjp-ExtraLight-7389" x="99.999985"/>
      <use xlink:href="#NotoSerifCJKjp-ExtraLight-9f9c" x="199.999969"/>
     </g>
    </g>
    <g clip-path="url(#p0ed0fe4fc4)">
     <!--  -->
     <g transform="translate(1049.87912 915.96) scale(0.12 -0.12)"/>
    </g>
   </g>
   <g id="text_19">
    <g clip-path="url(#p0ed0fe4fc4)">
     <!-- 韓起 -->
     <g transform="translate(2112.574073 181.32) scale(0.12 -0.12)">
      <defs>
       <path id="NotoSerifCJKjp-ExtraLight-97d3" d="M 5011 4550 
L 5011 3878 
L 3955 3878 
C 4000 4077 4058 4314 4115 4550 
L 5011 4550 
z
M 3130 4550 
L 3834 4550 
C 3776 4307 3725 4070 3680 3878 
L 2810 3878 
L 2861 3686 
L 5958 3686 
C 6048 3686 6106 3718 6125 3789 
C 5946 3962 5670 4179 5670 4179 
L 5421 3878 
L 5299 3878 
L 5299 4506 
C 5402 4525 5504 4576 5542 4621 
L 5139 4928 
L 4954 4742 
L 4160 4742 
L 4243 5114 
C 4365 5114 4442 5178 4461 5261 
L 3994 5325 
C 3962 5146 3917 4947 3872 4742 
L 3072 4742 
L 3130 4550 
z
M 3488 2419 
L 3488 3091 
L 5203 3091 
L 5203 2419 
L 3488 2419 
z
M 5242 2054 
C 5331 2054 5472 2131 5478 2170 
L 5478 3027 
C 5606 3053 5722 3104 5754 3155 
L 5318 3482 
L 5139 3277 
L 3520 3277 
L 3200 3430 
L 3200 1946 
L 3245 1946 
C 3360 1946 3488 2010 3488 2035 
L 3488 2234 
L 5203 2234 
L 5203 2054 
L 5242 2054 
z
M 864 2592 
L 2246 2592 
L 2246 1958 
L 864 1958 
L 864 2592 
z
M 2246 3443 
L 2246 2778 
L 864 2778 
L 864 3443 
L 2246 3443 
z
M 2714 851 
C 2797 851 2854 883 2874 954 
C 2707 1114 2432 1331 2432 1331 
L 2195 1043 
L 1690 1043 
L 1690 1773 
L 2246 1773 
L 2246 1638 
L 2285 1638 
C 2374 1638 2522 1722 2528 1760 
L 2528 3379 
C 2656 3405 2765 3456 2803 3507 
L 2368 3840 
L 2182 3629 
L 1696 3629 
L 1696 4275 
L 2746 4275 
C 2829 4275 2886 4307 2906 4378 
C 2726 4550 2426 4781 2426 4781 
L 2176 4461 
L 1696 4461 
L 1696 5120 
C 1837 5146 1894 5203 1907 5286 
L 1421 5338 
L 1421 4461 
L 301 4461 
L 352 4275 
L 1421 4275 
L 1421 3629 
L 896 3629 
L 582 3789 
L 582 1555 
L 627 1555 
C 742 1555 864 1626 864 1658 
L 864 1773 
L 1414 1773 
L 1414 1043 
L 262 1043 
L 314 851 
L 1414 851 
L 1414 -486 
L 1453 -486 
C 1587 -486 1690 -403 1690 -378 
L 1690 851 
L 2714 851 
z
M 3456 634 
L 3456 1395 
L 4410 1395 
L 4410 634 
L 3456 634 
z
M 5453 634 
L 4691 634 
L 4691 1395 
L 5677 1395 
C 5754 1395 5818 1427 5830 1498 
C 5670 1658 5402 1862 5402 1862 
L 5178 1581 
L 4691 1581 
L 4691 1926 
C 4813 1939 4864 1990 4877 2067 
L 4410 2125 
L 4410 1581 
L 3533 1581 
L 3181 1747 
L 3181 634 
L 2637 634 
L 2688 442 
L 4410 442 
L 4410 -467 
L 4461 -467 
C 4570 -467 4691 -390 4691 -346 
L 4691 442 
L 5971 442 
C 6061 442 6118 474 6131 544 
C 5958 704 5690 922 5690 922 
L 5453 634 
z
" transform="scale(0.015625)"/>
       <path id="NotoSerifCJKjp-ExtraLight-8d77" d="M 5370 4710 
L 5370 3245 
L 3930 3245 
L 3571 3418 
L 3571 1075 
C 3571 806 3661 723 4122 723 
L 4877 723 
C 5894 723 6074 762 6074 915 
C 6074 973 6042 1011 5920 1043 
L 5907 1862 
L 5818 1862 
C 5760 1510 5709 1165 5664 1069 
C 5638 1011 5619 998 5542 992 
C 5453 979 5197 979 4864 979 
L 4154 979 
C 3885 979 3853 1005 3853 1107 
L 3853 3059 
L 5370 3059 
L 5370 2592 
L 5408 2592 
C 5504 2592 5651 2669 5658 2707 
L 5658 4646 
C 5779 4672 5888 4723 5933 4774 
L 5498 5107 
L 5306 4896 
L 3462 4896 
L 3520 4710 
L 5370 4710 
z
M 288 3194 
L 339 3008 
L 3251 3008 
C 3341 3008 3398 3040 3418 3110 
C 3232 3283 2944 3514 2944 3514 
L 2694 3194 
L 2035 3194 
L 2035 4198 
L 3091 4198 
C 3181 4198 3238 4230 3251 4301 
C 3078 4467 2784 4698 2784 4698 
L 2541 4390 
L 2035 4390 
L 2035 5094 
C 2189 5120 2259 5184 2272 5274 
L 1754 5331 
L 1754 4390 
L 550 4390 
L 602 4198 
L 1754 4198 
L 1754 3194 
L 288 3194 
z
M 2112 1619 
L 3213 1619 
C 3302 1619 3360 1651 3379 1722 
C 3200 1894 2918 2118 2918 2118 
L 2675 1811 
L 2112 1811 
L 2112 2733 
C 2266 2758 2323 2816 2342 2906 
L 1830 2970 
L 1830 294 
C 1510 493 1267 806 1075 1306 
C 1133 1638 1165 1965 1184 2272 
C 1318 2285 1395 2336 1414 2432 
L 883 2509 
C 890 1491 730 294 218 -403 
L 288 -480 
C 678 -70 902 499 1030 1094 
C 1510 -83 2214 -301 3526 -301 
L 5958 -301 
C 5971 -173 6048 -96 6182 -77 
L 6182 13 
C 5562 -6 4154 -6 3546 -6 
C 2957 -6 2490 26 2112 160 
L 2112 1619 
z
" transform="scale(0.015625)"/>
      </defs>
      <use xlink:href="#NotoSerifCJKjp-ExtraLight-97d3"/>
      <use xlink:href="#NotoSerifCJKjp-ExtraLight-8d77" x="99.999985"/>
     </g>
    </g>
    <g clip-path="url(#p0ed0fe4fc4)">
     <!-- 監察 -->
     <g transform="translate(2112.574073 195.96) scale(0.12 -0.12)">
      <defs>
       <path id="NotoSerifCJKjp-ExtraLight-76e3" d="M 3238 2995 
C 3533 3264 3789 3635 4006 4032 
L 5933 4032 
C 6022 4032 6086 4058 6099 4128 
C 5914 4307 5619 4538 5619 4538 
L 5357 4218 
L 4102 4218 
C 4224 4480 4333 4749 4422 5018 
C 4544 5018 4621 5075 4640 5152 
L 4109 5293 
C 3930 4454 3565 3578 3142 3059 
L 3238 2995 
z
M 5286 2771 
L 3674 2771 
L 3725 2579 
L 5862 2579 
C 5952 2579 6010 2611 6029 2682 
C 5837 2854 5542 3091 5542 3091 
L 5286 2771 
z
M 1664 4762 
L 1664 4134 
L 883 4134 
L 883 4762 
L 1664 4762 
z
M 2688 3949 
L 2688 3270 
L 883 3270 
L 883 3949 
L 2688 3949 
z
M 1664 2349 
L 883 2349 
L 883 3085 
L 1664 3085 
L 1664 2349 
z
M 883 2163 
L 3085 2163 
C 3174 2163 3226 2195 3245 2266 
C 3066 2438 2778 2669 2778 2669 
L 2522 2349 
L 1946 2349 
L 1946 3085 
L 2688 3085 
L 2688 2912 
L 2726 2912 
C 2816 2912 2963 2989 2970 3027 
L 2970 3904 
C 3078 3923 3181 3974 3213 4019 
L 2803 4326 
L 2630 4134 
L 1946 4134 
L 1946 4762 
L 3040 4762 
C 3130 4762 3187 4794 3200 4864 
C 3021 5030 2739 5261 2739 5261 
L 2490 4947 
L 960 4947 
L 602 5120 
L 602 1811 
L 640 1811 
C 781 1811 883 1894 883 1920 
L 883 2163 
z
M 1440 1427 
L 2400 1427 
L 2400 -134 
L 1440 -134 
L 1440 1427 
z
M 3667 1427 
L 3667 -134 
L 2688 -134 
L 2688 1427 
L 3667 1427 
z
M 4934 1427 
L 4934 -134 
L 3955 -134 
L 3955 1427 
L 4934 1427 
z
M 5357 -134 
L 5222 -134 
L 5222 1382 
C 5376 1402 5466 1434 5510 1504 
L 5043 1856 
L 4864 1613 
L 1517 1613 
L 1152 1786 
L 1152 -134 
L 301 -134 
L 358 -320 
L 5958 -320 
C 6048 -320 6106 -288 6125 -218 
C 5933 -45 5626 198 5626 198 
L 5357 -134 
z
" transform="scale(0.015625)"/>
       <path id="NotoSerifCJKjp-ExtraLight-5bdf" d="M 5408 4570 
C 5344 4403 5261 4205 5197 4077 
L 5293 4032 
C 5453 4154 5670 4371 5779 4525 
C 5901 4531 5978 4544 6022 4589 
L 5619 4979 
L 5402 4762 
L 3328 4762 
L 3328 5114 
C 3482 5133 3552 5197 3565 5286 
L 3046 5344 
L 3046 4762 
L 1101 4762 
C 1094 4858 1082 4954 1062 5062 
L 941 5062 
C 947 4659 736 4256 518 4102 
C 422 4032 365 3923 422 3834 
C 493 3731 678 3789 794 3891 
C 928 4000 1062 4237 1094 4570 
L 5408 4570 
z
M 2963 4160 
L 2746 3962 
L 1894 3962 
C 1978 4070 2048 4179 2112 4282 
C 2266 4256 2317 4282 2342 4346 
L 1894 4499 
C 1600 3910 1037 3245 454 2861 
L 531 2771 
C 685 2854 838 2950 979 3059 
C 1165 2925 1363 2701 1421 2515 
C 1683 2349 1869 2861 1069 3130 
C 1210 3238 1338 3354 1459 3475 
C 1670 3360 1894 3174 1978 3021 
C 2266 2886 2387 3418 1555 3571 
C 1619 3635 1677 3699 1734 3770 
L 2720 3770 
C 2272 2848 1402 2022 294 1530 
L 358 1427 
C 1677 1926 2560 2771 3059 3750 
C 3200 3750 3270 3770 3328 3821 
L 2963 4160 
z
M 2138 2157 
L 4211 2157 
C 4301 2157 4358 2189 4378 2259 
C 4205 2413 3949 2611 3949 2611 
L 3718 2349 
L 2086 2349 
L 2138 2157 
z
M 1888 1056 
C 1626 621 1075 83 518 -224 
L 589 -320 
C 1210 -64 1811 390 2112 768 
C 2259 736 2310 762 2349 826 
L 1888 1056 
z
M 5299 1325 
C 5382 1325 5446 1357 5459 1427 
C 5286 1587 5005 1798 5005 1798 
L 4762 1510 
L 973 1510 
L 1030 1325 
L 3046 1325 
L 3046 19 
C 3046 -64 3014 -96 2893 -96 
C 2765 -96 2125 -51 2125 -51 
L 2125 -154 
C 2400 -173 2573 -211 2662 -262 
C 2739 -314 2778 -397 2784 -474 
C 3258 -422 3328 -243 3328 13 
L 3328 1325 
L 5299 1325 
z
M 3994 883 
C 4467 621 5114 109 5312 -294 
C 5728 -499 5798 422 4051 954 
L 3994 883 
z
M 5030 4166 
L 4832 3962 
L 3866 3962 
L 3923 3770 
L 4806 3770 
C 4685 3526 4493 3226 4333 3008 
C 3936 3386 3622 3834 3430 4333 
L 3309 4262 
C 3725 3066 4640 2163 5811 1690 
C 5862 1818 5965 1894 6099 1901 
L 6112 1965 
C 5485 2163 4902 2490 4435 2912 
C 4698 3149 5005 3475 5165 3738 
C 5286 3744 5363 3750 5408 3795 
L 5030 4166 
z
" transform="scale(0.015625)"/>
      </defs>
      <use xlink:href="#NotoSerifCJKjp-ExtraLight-76e3"/>
      <use xlink:href="#NotoSerifCJKjp-ExtraLight-5bdf" x="99.999985"/>
     </g>
    </g>
   </g>
   <g id="text_20">
    <g clip-path="url(#p0ed0fe4fc4)">
     <!-- 韓明澮 -->
     <g transform="translate(2106.574073 541.32) scale(0.12 -0.12)">
      <defs>
       <path id="NotoSerifCJKjp-ExtraLight-660e" d="M 2176 4659 
L 2176 3213 
L 813 3213 
L 813 4659 
L 2176 4659 
z
M 813 1510 
L 813 3027 
L 2176 3027 
L 2176 1510 
L 813 1510 
z
M 2176 1318 
L 2176 819 
L 2214 819 
C 2317 819 2451 902 2458 947 
L 2458 4595 
C 2586 4621 2701 4672 2739 4723 
L 2304 5062 
L 2112 4851 
L 890 4851 
L 531 5018 
L 531 595 
L 570 595 
C 710 595 813 678 813 704 
L 813 1318 
L 2176 1318 
z
M 3552 1965 
C 3590 2278 3603 2598 3603 2912 
L 3603 3290 
L 5427 3290 
L 5427 1965 
L 3552 1965 
z
M 5427 4762 
L 5427 3482 
L 3603 3482 
L 3603 4762 
L 5427 4762 
z
M 5530 5171 
L 5363 4947 
L 3661 4947 
L 3315 5126 
L 3315 2906 
C 3315 1568 3091 461 1952 -403 
L 2048 -486 
C 2989 109 3379 915 3520 1779 
L 5427 1779 
L 5427 96 
C 5427 -26 5389 -64 5248 -64 
C 5088 -64 4301 0 4301 0 
L 4301 -109 
C 4627 -147 4832 -186 4934 -243 
C 5030 -294 5075 -378 5101 -474 
C 5658 -410 5715 -211 5715 58 
L 5715 4698 
C 5837 4717 5952 4768 5997 4826 
L 5530 5171 
z
" transform="scale(0.015625)"/>
       <path id="NotoSerifCJKjp-ExtraLight-6fae" d="M 486 5197 
C 768 5030 1120 4723 1242 4467 
C 1619 4288 1766 5050 550 5261 
L 486 5197 
z
M 282 3629 
C 550 3494 858 3213 954 2976 
C 1331 2784 1491 3565 346 3693 
L 282 3629 
z
M 2739 13 
L 2739 621 
L 4986 621 
L 4986 13 
L 2739 13 
z
M 4986 1325 
L 4986 806 
L 2739 806 
L 2739 1325 
L 4986 1325 
z
M 4928 1510 
L 2810 1510 
L 2451 1683 
L 2451 -467 
L 2490 -467 
C 2637 -467 2739 -378 2739 -352 
L 2739 -173 
L 4986 -173 
L 4986 -397 
L 5024 -397 
C 5126 -397 5267 -320 5274 -282 
L 5274 1274 
C 5382 1299 5485 1344 5523 1395 
L 5114 1709 
L 4928 1510 
z
M 2701 2989 
C 2848 2803 3034 2490 3066 2259 
C 3315 2042 3571 2579 2778 3034 
L 2701 2989 
z
M 4557 3085 
C 4499 2874 4358 2477 4237 2227 
L 4320 2189 
C 4499 2387 4685 2637 4794 2790 
C 4909 2778 4986 2842 4998 2893 
L 4557 3085 
z
M 3968 2099 
L 3968 3142 
L 5222 3142 
L 5222 2099 
L 3968 2099 
z
M 2426 3142 
L 3680 3142 
L 3680 2099 
L 2426 2099 
L 2426 3142 
z
M 5171 3328 
L 2502 3328 
L 2144 3501 
L 2144 1734 
L 2182 1734 
C 2330 1734 2426 1818 2426 1843 
L 2426 1914 
L 5222 1914 
L 5222 1760 
L 5261 1760 
C 5350 1760 5498 1843 5504 1882 
L 5504 3117 
C 5600 3130 5690 3174 5722 3213 
L 5338 3507 
L 5171 3328 
z
M 4288 3942 
L 2797 3942 
L 2848 3750 
L 4742 3750 
C 4832 3750 4883 3782 4896 3853 
C 4742 4000 4499 4173 4499 4173 
L 4288 3942 
z
M 3616 5331 
C 3302 4691 2509 3949 1728 3533 
L 1875 4006 
L 1747 4032 
C 851 1600 851 1600 762 1382 
C 704 1248 685 1248 627 1248 
L 352 1248 
L 352 1101 
C 493 1088 576 1082 653 1018 
C 774 928 819 461 742 -173 
C 742 -358 781 -486 883 -486 
C 1056 -486 1133 -339 1146 -90 
C 1171 410 1037 736 1030 992 
C 1030 1146 1069 1338 1114 1523 
C 1165 1734 1446 2618 1677 3366 
C 2566 3744 3450 4390 3917 5043 
C 4333 4384 5101 3814 5914 3418 
C 5946 3546 6048 3635 6182 3667 
L 6189 3757 
C 5338 4045 4518 4557 4026 5107 
C 4166 5120 4224 5152 4243 5216 
L 3616 5331 
z
" transform="scale(0.015625)"/>
      </defs>
      <use xlink:href="#NotoSerifCJKjp-ExtraLight-97d3"/>
      <use xlink:href="#NotoSerifCJKjp-ExtraLight-660e" x="99.999985"/>
      <use xlink:href="#NotoSerifCJKjp-ExtraLight-6fae" x="199.999969"/>
     </g>
    </g>
    <g clip-path="url(#p0ed0fe4fc4)">
     <!-- 上黨府院君 -->
     <g transform="translate(2094.574073 555.96) scale(0.12 -0.12)">
      <defs>
       <path id="NotoSerifCJKjp-ExtraLight-4e0a" d="M 5318 51 
L 3162 51 
L 3162 2803 
L 5421 2803 
C 5510 2803 5568 2835 5587 2906 
C 5389 3091 5075 3334 5075 3334 
L 4800 2995 
L 3162 2995 
L 3162 5043 
C 3309 5069 3366 5133 3386 5222 
L 2874 5286 
L 2874 51 
L 288 51 
L 346 -141 
L 5939 -141 
C 6035 -141 6093 -109 6112 -38 
C 5914 147 5594 390 5594 390 
L 5318 51 
z
" transform="scale(0.015625)"/>
       <path id="NotoSerifCJKjp-ExtraLight-9ee8" d="M 5478 4397 
C 5389 4179 5254 3910 5165 3744 
L 5261 3693 
C 5446 3866 5722 4154 5869 4352 
C 5990 4358 6067 4365 6118 4410 
L 5709 4813 
L 5485 4582 
L 4288 4582 
C 4448 4723 4602 4883 4710 5018 
C 4851 5005 4928 5056 4960 5126 
L 4474 5293 
C 4378 5075 4218 4800 4083 4582 
L 3328 4582 
L 3328 5146 
C 3482 5165 3552 5229 3565 5312 
L 3046 5376 
L 3046 4582 
L 2234 4582 
C 2362 4704 2291 5069 1638 5274 
L 1568 5222 
C 1760 5069 1971 4800 2022 4582 
L 979 4582 
C 973 4672 960 4762 934 4858 
L 813 4858 
C 832 4474 653 4077 442 3930 
C 346 3846 282 3731 346 3635 
C 416 3539 608 3584 717 3686 
C 851 3808 973 4051 986 4397 
L 5478 4397 
z
M 1958 3398 
L 1958 3866 
L 4435 3866 
L 4435 3398 
L 1958 3398 
z
M 4467 3014 
C 4563 3014 4710 3091 4717 3130 
L 4717 3840 
C 4813 3853 4896 3904 4928 3942 
L 4550 4230 
L 4384 4051 
L 1990 4051 
L 1677 4211 
L 1677 3002 
L 1722 3002 
C 1837 3002 1958 3072 1958 3098 
L 1958 3206 
L 4435 3206 
L 4435 3014 
L 4467 3014 
z
M 1280 474 
C 1216 141 858 -77 589 -141 
C 474 -192 397 -288 435 -390 
C 486 -506 678 -499 838 -435 
C 1094 -333 1440 -64 1395 467 
L 1280 474 
z
M 2195 416 
C 2304 224 2419 -102 2419 -346 
C 2682 -602 3014 -45 2278 448 
L 2195 416 
z
M 3450 403 
C 3629 211 3853 -128 3904 -371 
C 4205 -602 4467 26 3526 448 
L 3450 403 
z
M 4730 435 
C 5088 243 5555 -147 5715 -448 
C 6099 -621 6202 173 4794 506 
L 4730 435 
z
M 1869 2586 
C 2016 2451 2176 2221 2202 2029 
C 2464 1830 2714 2362 1939 2637 
L 1869 2586 
z
M 3328 1766 
L 4998 1766 
L 4998 1581 
L 5037 1581 
C 5082 1581 5139 1600 5184 1619 
L 4966 1389 
L 3328 1389 
L 3328 1766 
z
M 1395 1952 
L 1395 2669 
L 3046 2669 
L 3046 1952 
L 1395 1952 
z
M 4998 2669 
L 4998 1952 
L 4000 1952 
C 4141 2086 4282 2240 4390 2368 
C 4518 2362 4602 2413 4634 2490 
L 4160 2630 
C 4070 2419 3936 2144 3821 1952 
L 3328 1952 
L 3328 2669 
L 4998 2669 
z
M 5414 813 
L 3328 813 
L 3328 1197 
L 5466 1197 
C 5555 1197 5613 1229 5632 1299 
C 5472 1440 5242 1600 5203 1626 
C 5248 1651 5286 1677 5286 1696 
L 5286 2624 
C 5389 2643 5491 2694 5530 2739 
L 5120 3046 
L 4941 2854 
L 1434 2854 
L 1107 3014 
L 1107 1523 
L 1152 1523 
C 1267 1523 1395 1587 1395 1613 
L 1395 1766 
L 3046 1766 
L 3046 1389 
L 826 1389 
L 883 1197 
L 3046 1197 
L 3046 813 
L 269 813 
L 326 627 
L 5952 627 
C 6042 627 6099 659 6118 723 
C 5933 890 5664 1088 5664 1088 
L 5414 813 
z
" transform="scale(0.015625)"/>
       <path id="NotoSerifCJKjp-ExtraLight-5e9c" d="M 1197 4346 
L 5939 4346 
C 6029 4346 6093 4378 6106 4448 
C 5907 4627 5594 4870 5594 4870 
L 5312 4531 
L 3488 4531 
L 3488 5107 
C 3635 5126 3706 5190 3718 5280 
L 3200 5338 
L 3200 4531 
L 1261 4531 
L 915 4710 
L 915 2982 
C 915 1875 864 678 301 -288 
L 410 -358 
C 1152 614 1197 1971 1197 2989 
L 1197 4346 
z
M 2522 4070 
C 2291 3347 1773 2349 1158 1709 
L 1242 1626 
C 1542 1882 1811 2195 2048 2522 
L 2048 -467 
L 2099 -467 
C 2208 -467 2330 -384 2336 -352 
L 2336 2592 
C 2438 2605 2502 2643 2528 2701 
L 2246 2810 
C 2470 3155 2656 3501 2784 3795 
C 2938 3776 2995 3808 3034 3878 
L 2522 4070 
z
M 3078 2227 
C 3360 1926 3674 1408 3699 1005 
C 4064 685 4384 1587 3162 2278 
L 3078 2227 
z
M 5363 2899 
L 5120 2899 
L 5120 3834 
C 5274 3853 5325 3910 5344 4000 
L 4838 4058 
L 4838 2899 
L 2816 2899 
L 2867 2714 
L 4838 2714 
L 4838 77 
C 4838 -32 4806 -70 4678 -70 
C 4544 -70 3878 -13 3878 -13 
L 3878 -122 
C 4154 -154 4333 -192 4429 -250 
C 4506 -301 4544 -384 4563 -474 
C 5069 -416 5120 -230 5120 45 
L 5120 2714 
L 5952 2714 
C 6042 2714 6099 2746 6118 2810 
C 5926 2989 5632 3219 5632 3219 
L 5363 2899 
z
" transform="scale(0.015625)"/>
       <path id="NotoSerifCJKjp-ExtraLight-9662" d="M 1958 5190 
L 1728 4960 
L 909 4960 
L 550 5133 
L 550 -486 
L 595 -486 
C 730 -486 832 -397 832 -371 
L 832 4774 
L 1734 4774 
C 1574 4301 1325 3616 1158 3251 
C 1606 2784 1766 2349 1766 1914 
C 1766 1670 1709 1530 1606 1478 
C 1549 1446 1510 1440 1434 1440 
L 979 1440 
L 979 1331 
C 1114 1318 1242 1293 1286 1254 
C 1338 1216 1363 1126 1363 1024 
C 1907 1056 2106 1293 2099 1862 
C 2099 2317 1901 2784 1318 3270 
C 1549 3622 1914 4333 2093 4691 
C 2240 4698 2336 4710 2374 4762 
L 1958 5190 
z
M 6003 832 
L 5914 832 
C 5869 486 5805 102 5773 6 
C 5747 -45 5734 -58 5683 -64 
C 5626 -70 5466 -70 5267 -70 
L 4845 -70 
C 4666 -70 4646 -45 4646 45 
L 4646 2144 
L 4646 2202 
L 5933 2202 
C 6022 2202 6086 2234 6099 2304 
C 5914 2477 5613 2714 5613 2714 
L 5350 2387 
L 2214 2387 
L 2266 2202 
L 3258 2202 
C 3194 896 2867 211 1574 -358 
L 1613 -467 
C 3066 19 3488 730 3590 2202 
L 4365 2202 
L 4365 -19 
C 4365 -243 4435 -333 4800 -333 
L 5286 -333 
C 6016 -333 6157 -282 6157 -147 
C 6157 -90 6138 -51 6022 -13 
L 6003 832 
z
M 4883 3443 
L 2541 3443 
L 2592 3251 
L 5434 3251 
C 5523 3251 5587 3283 5600 3354 
C 5421 3526 5133 3750 5133 3750 
L 4883 3443 
z
M 5728 4762 
L 5491 4512 
L 4122 4512 
L 4122 5094 
C 4275 5114 4346 5178 4358 5267 
L 3840 5325 
L 3840 4512 
L 2682 4512 
C 2675 4614 2656 4723 2624 4838 
L 2502 4838 
C 2522 4518 2381 4160 2214 4026 
C 2112 3942 2054 3821 2112 3718 
C 2189 3610 2374 3648 2483 3757 
C 2586 3866 2669 4058 2682 4326 
L 5498 4326 
C 5440 4160 5363 3962 5306 3834 
L 5402 3789 
C 5568 3910 5805 4115 5939 4269 
C 6061 4275 6131 4282 6176 4333 
L 5728 4762 
z
" transform="scale(0.015625)"/>
       <path id="NotoSerifCJKjp-ExtraLight-541b" d="M 4806 2848 
L 2592 2848 
C 2714 3130 2803 3424 2880 3731 
L 4806 3731 
L 4806 2848 
z
M 4806 4755 
L 4806 3923 
L 2925 3923 
C 2976 4192 3021 4467 3053 4755 
L 4806 4755 
z
M 5069 1517 
L 5069 147 
L 2195 147 
L 2195 1517 
L 5069 1517 
z
M 5331 3923 
L 5088 3923 
L 5088 4672 
C 5229 4698 5344 4755 5395 4813 
L 4922 5171 
L 4736 4941 
L 1133 4941 
L 1190 4755 
L 2739 4755 
C 2707 4467 2662 4192 2605 3923 
L 390 3923 
L 448 3731 
L 2560 3731 
C 2490 3424 2394 3130 2278 2848 
L 1069 2848 
L 1120 2662 
L 2195 2662 
C 1805 1805 1197 1082 294 506 
L 378 410 
C 1024 781 1530 1210 1920 1702 
L 1920 -486 
L 1952 -486 
C 2093 -486 2195 -403 2195 -378 
L 2195 -45 
L 5069 -45 
L 5069 -442 
L 5107 -442 
C 5203 -442 5344 -358 5350 -326 
L 5350 1453 
C 5485 1478 5600 1523 5645 1574 
L 5197 1926 
L 4998 1709 
L 2272 1709 
L 2016 1830 
C 2208 2093 2374 2368 2509 2662 
L 4806 2662 
L 4806 2317 
L 4845 2317 
C 4928 2317 5075 2362 5088 2381 
L 5088 3731 
L 5914 3731 
C 6003 3731 6061 3763 6080 3834 
C 5888 4013 5594 4243 5594 4243 
L 5331 3923 
z
" transform="scale(0.015625)"/>
      </defs>
      <use xlink:href="#NotoSerifCJKjp-ExtraLight-4e0a"/>
      <use xlink:href="#NotoSerifCJKjp-ExtraLight-9ee8" x="99.999985"/>
      <use xlink:href="#NotoSerifCJKjp-ExtraLight-5e9c" x="199.999969"/>
      <use xlink:href="#NotoSerifCJKjp-ExtraLight-9662" x="299.999954"/>
      <use xlink:href="#NotoSerifCJKjp-ExtraLight-541b" x="399.999939"/>
     </g>
    </g>
   </g>
   <g id="text_21">
    <g clip-path="url(#p0ed0fe4fc4)">
     <!-- 申澍 -->
     <g transform="translate(1764.012814 901.32) scale(0.12 -0.12)">
      <defs>
       <path id="NotoSerifCJKjp-ExtraLight-7533" d="M 3328 1670 
L 3328 2797 
L 5158 2797 
L 5158 1670 
L 3328 1670 
z
M 1242 1670 
L 1242 2797 
L 3046 2797 
L 3046 1670 
L 1242 1670 
z
M 3046 4096 
L 3046 2989 
L 1242 2989 
L 1242 4096 
L 3046 4096 
z
M 5158 4096 
L 5158 2989 
L 3328 2989 
L 3328 4096 
L 5158 4096 
z
M 5286 4499 
L 5094 4288 
L 3328 4288 
L 3328 5094 
C 3488 5120 3539 5184 3558 5274 
L 3046 5331 
L 3046 4288 
L 1280 4288 
L 966 4454 
L 966 966 
L 1018 966 
C 1133 966 1242 1037 1242 1069 
L 1242 1485 
L 3046 1485 
L 3046 -480 
L 3104 -480 
C 3206 -480 3328 -403 3328 -346 
L 3328 1485 
L 5158 1485 
L 5158 1030 
L 5197 1030 
C 5293 1030 5434 1107 5440 1146 
L 5440 4032 
C 5568 4058 5677 4109 5722 4160 
L 5286 4499 
z
" transform="scale(0.015625)"/>
       <path id="NotoSerifCJKjp-ExtraLight-6f8d" d="M 1786 4301 
L 2752 4301 
L 2752 3571 
L 1882 3571 
L 1933 3379 
L 3917 3379 
C 4000 3379 4058 3411 4070 3482 
C 3898 3648 3616 3878 3616 3878 
L 3366 3571 
L 3034 3571 
L 3034 4301 
L 4051 4301 
C 4141 4301 4198 4333 4218 4403 
C 4038 4570 3763 4794 3763 4794 
L 3520 4486 
L 3034 4486 
L 3034 5107 
C 3187 5126 3251 5190 3264 5280 
L 2752 5338 
L 2752 4486 
L 1734 4486 
L 1786 4301 
z
M 2266 1875 
L 2266 2675 
L 3539 2675 
L 3539 1875 
L 2266 1875 
z
M 3578 1459 
C 3667 1459 3814 1530 3821 1568 
L 3821 2650 
C 3917 2662 4006 2707 4038 2752 
L 3654 3040 
L 3488 2861 
L 2298 2861 
L 1978 3014 
L 1978 1402 
L 2022 1402 
C 2138 1402 2266 1472 2266 1498 
L 2266 1683 
L 3539 1683 
L 3539 1459 
L 3578 1459 
z
M 2061 1299 
C 2214 1082 2387 710 2406 435 
C 2707 173 3021 806 2144 1338 
L 2061 1299 
z
M 493 5254 
C 774 5088 1126 4781 1248 4525 
C 1626 4346 1773 5107 557 5312 
L 493 5254 
z
M 288 3686 
C 557 3552 864 3270 960 3034 
C 1338 2842 1498 3616 352 3750 
L 288 3686 
z
M 1779 3974 
C 845 1664 845 1664 749 1453 
C 691 1318 672 1318 608 1318 
L 333 1318 
L 333 1171 
C 467 1152 557 1146 640 1088 
C 762 998 800 512 730 -147 
C 723 -339 762 -467 864 -467 
C 1037 -467 1120 -320 1133 -64 
C 1158 448 1018 794 1018 1056 
C 1018 1210 1056 1389 1101 1568 
C 1178 1837 1664 3200 1907 3942 
L 1779 3974 
z
M 3405 1421 
C 3315 1101 3181 659 3066 333 
C 2426 250 1882 186 1574 160 
L 1830 -288 
C 1888 -275 1939 -230 1965 -154 
C 3002 70 3750 250 4288 390 
L 4275 499 
C 3923 448 3571 403 3245 358 
C 3392 621 3546 915 3648 1133 
C 3776 1120 3859 1178 3885 1248 
L 3405 1421 
z
M 4230 2861 
C 4378 2515 4544 1965 4550 1568 
C 4851 1261 5171 1997 4326 2893 
L 4230 2861 
z
M 5562 3712 
L 5504 3712 
L 5504 5075 
C 5658 5094 5722 5158 5734 5248 
L 5222 5306 
L 5222 3712 
L 4102 3712 
L 4154 3526 
L 5222 3526 
L 5222 51 
C 5222 -51 5190 -83 5075 -83 
C 4954 -83 4365 -32 4365 -32 
L 4365 -141 
C 4614 -173 4774 -205 4858 -262 
C 4934 -314 4966 -403 4979 -493 
C 5453 -435 5504 -256 5504 19 
L 5504 3526 
L 6048 3526 
C 6138 3526 6189 3558 6202 3622 
C 6061 3802 5786 4051 5786 4051 
L 5562 3712 
z
" transform="scale(0.015625)"/>
      </defs>
      <use xlink:href="#NotoSerifCJKjp-ExtraLight-7533"/>
      <use xlink:href="#NotoSerifCJKjp-ExtraLight-6f8d" x="99.999985"/>
     </g>
    </g>
    <g clip-path="url(#p0ed0fe4fc4)">
     <!--  -->
     <g transform="translate(1776.012814 915.96) scale(0.12 -0.12)"/>
    </g>
   </g>
   <g id="text_22">
    <g clip-path="url(#p0ed0fe4fc4)">
     <!-- 朝鮮 睿宗 -->
     <g transform="translate(1924.747611 901.32) scale(0.12 -0.12)">
      <defs>
       <path id="NotoSerifCJKjp-ExtraLight-671d" d="M 1005 2650 
L 2682 2650 
L 2682 1984 
L 1005 1984 
L 1005 2650 
z
M 2682 3507 
L 2682 2835 
L 1005 2835 
L 1005 3507 
L 2682 3507 
z
M 3258 877 
C 3347 877 3405 909 3424 979 
C 3245 1139 2976 1357 2976 1357 
L 2746 1069 
L 1971 1069 
L 1971 1798 
L 2682 1798 
L 2682 1542 
L 2720 1542 
C 2810 1542 2957 1626 2963 1664 
L 2963 3443 
C 3091 3462 3200 3520 3238 3571 
L 2803 3904 
L 2618 3693 
L 1971 3693 
L 1971 4346 
L 3322 4346 
C 3411 4346 3469 4378 3488 4448 
C 3309 4614 3021 4845 3021 4845 
L 2771 4531 
L 1971 4531 
L 1971 5101 
C 2112 5126 2170 5184 2182 5267 
L 1690 5318 
L 1690 4531 
L 307 4531 
L 358 4346 
L 1690 4346 
L 1690 3693 
L 1037 3693 
L 717 3853 
L 717 1498 
L 768 1498 
C 883 1498 1005 1562 1005 1594 
L 1005 1798 
L 1690 1798 
L 1690 1069 
L 307 1069 
L 358 877 
L 1690 877 
L 1690 -486 
L 1728 -486 
C 1875 -486 1971 -403 1971 -378 
L 1971 877 
L 3258 877 
z
M 4019 2099 
C 4032 2323 4038 2541 4038 2765 
L 4038 3315 
L 5491 3315 
L 5491 2099 
L 4019 2099 
z
M 5491 4634 
L 5491 3507 
L 4038 3507 
L 4038 4634 
L 5491 4634 
z
M 5594 5056 
L 5421 4826 
L 4109 4826 
L 3763 4998 
L 3763 2752 
C 3763 1504 3584 429 2592 -397 
L 2688 -480 
C 3597 147 3904 1011 4000 1914 
L 5491 1914 
L 5491 70 
C 5491 -45 5453 -83 5325 -83 
C 5197 -83 4525 -26 4525 -26 
L 4525 -134 
C 4806 -166 4979 -198 5075 -256 
C 5165 -301 5203 -384 5216 -467 
C 5715 -410 5760 -224 5760 32 
L 5760 4550 
C 5907 4570 6035 4627 6086 4691 
L 5594 5056 
z
" transform="scale(0.015625)"/>
       <path id="NotoSerifCJKjp-ExtraLight-9bae" d="M 3392 5242 
C 3603 4973 3859 4531 3904 4205 
C 4205 3955 4467 4634 3475 5286 
L 3392 5242 
z
M 768 877 
C 762 454 570 6 358 -166 
C 262 -250 224 -365 275 -448 
C 358 -538 544 -467 646 -352 
C 813 -173 998 269 890 870 
L 768 877 
z
M 2112 4448 
C 2016 4205 1894 3878 1786 3648 
L 1094 3648 
L 877 3750 
C 1024 3968 1171 4205 1299 4448 
L 2112 4448 
z
M 2714 3462 
L 2714 2643 
L 1971 2643 
L 1971 3462 
L 2714 3462 
z
M 1971 1587 
L 1971 2451 
L 2714 2451 
L 2707 1587 
L 1971 1587 
z
M 1024 2451 
L 1690 2451 
L 1690 1587 
L 1024 1587 
L 1024 2451 
z
M 1024 3462 
L 1690 3462 
L 1690 2643 
L 1024 2643 
L 1024 3462 
z
M 2707 1402 
L 2707 1126 
L 2765 1126 
C 2861 1126 2976 1210 2989 1235 
L 2989 3411 
C 3091 3430 3181 3475 3219 3526 
L 2874 3840 
L 2714 3648 
L 1933 3648 
C 2112 3878 2330 4224 2458 4416 
C 2586 4422 2662 4429 2707 4467 
L 2323 4851 
L 2112 4634 
L 1395 4634 
C 1466 4774 1530 4915 1587 5056 
C 1728 5050 1798 5107 1830 5171 
L 1350 5344 
C 1088 4512 659 3699 250 3194 
L 346 3123 
C 480 3251 608 3398 736 3565 
L 736 1056 
L 781 1056 
C 922 1056 1024 1133 1024 1158 
L 1024 1402 
L 2707 1402 
z
M 1286 864 
C 1370 576 1427 122 1376 -218 
C 1619 -525 1978 115 1382 890 
L 1286 864 
z
M 1914 909 
C 2054 634 2227 198 2227 -134 
C 2496 -397 2797 243 1997 941 
L 1914 909 
z
M 2534 966 
C 2771 723 3014 307 3027 -19 
C 3322 -275 3610 454 2618 1018 
L 2534 966 
z
M 5459 1408 
L 4634 1408 
L 4634 2534 
L 5843 2534 
C 5933 2534 5997 2566 6010 2637 
C 5824 2810 5530 3046 5530 3046 
L 5267 2726 
L 4634 2726 
L 4634 3770 
L 5933 3770 
C 6022 3770 6080 3802 6099 3872 
C 5914 4038 5632 4269 5632 4269 
L 5376 3962 
L 4806 3962 
C 5056 4307 5312 4730 5459 5050 
C 5594 5043 5677 5101 5702 5171 
L 5184 5331 
C 5056 4915 4838 4365 4640 3962 
L 3155 3962 
L 3200 3770 
L 4352 3770 
L 4352 2726 
L 3245 2726 
L 3296 2534 
L 4352 2534 
L 4352 1408 
L 3117 1408 
L 3168 1216 
L 4352 1216 
L 4352 -461 
L 4390 -461 
C 4531 -461 4634 -378 4634 -352 
L 4634 1216 
L 6042 1216 
C 6131 1216 6182 1248 6202 1318 
C 6016 1498 5722 1728 5722 1728 
L 5459 1408 
z
" transform="scale(0.015625)"/>
       <path id="NotoSerifCJKjp-ExtraLight-20" transform="scale(0.015625)"/>
       <path id="NotoSerifCJKjp-ExtraLight-777f" d="M 5440 4058 
C 5363 3846 5248 3597 5158 3437 
L 5254 3386 
C 5453 3546 5722 3814 5856 4013 
C 5978 4019 6054 4032 6099 4070 
L 5670 4486 
L 5440 4250 
L 3290 4250 
L 3290 4653 
L 5018 4653 
C 5107 4653 5165 4685 5184 4755 
C 4998 4928 4710 5158 4710 5158 
L 4461 4845 
L 3290 4845 
L 3290 5114 
C 3443 5133 3514 5197 3526 5286 
L 3008 5344 
L 3008 4250 
L 1242 4250 
C 1248 4339 1242 4442 1229 4544 
L 1107 4550 
C 1075 4154 794 3808 544 3680 
C 442 3610 378 3507 429 3418 
C 493 3309 678 3354 813 3443 
C 966 3546 1139 3750 1210 4058 
L 5440 4058 
z
M 4115 3680 
L 1747 3680 
L 1798 3494 
L 4640 3494 
C 4723 3494 4787 3526 4800 3597 
C 4627 3757 4358 3968 4358 3968 
L 4115 3680 
z
M 934 2323 
C 1408 2509 1894 2816 2150 3078 
C 2291 3040 2342 3066 2381 3130 
L 1939 3366 
C 1722 3066 1274 2656 858 2413 
L 934 2323 
z
M 4058 3187 
C 4454 3014 4960 2656 5146 2362 
C 5549 2208 5587 3021 4115 3258 
L 4058 3187 
z
M 4448 1894 
L 2048 1894 
L 1907 1958 
C 2464 2304 2931 2701 3245 3091 
C 3539 2662 3974 2278 4506 1958 
L 4448 1894 
z
M 1971 77 
L 1971 518 
L 4499 518 
L 4499 77 
L 1971 77 
z
M 1971 1299 
L 1971 1702 
L 4499 1702 
L 4499 1299 
L 1971 1299 
z
M 1971 1107 
L 4499 1107 
L 4499 704 
L 1971 704 
L 1971 1107 
z
M 3066 3386 
C 2611 2630 1491 1805 339 1344 
L 378 1229 
C 845 1389 1293 1594 1702 1837 
L 1702 -474 
L 1741 -474 
C 1875 -474 1971 -390 1971 -365 
L 1971 -115 
L 4499 -115 
L 4499 -416 
L 4538 -416 
C 4634 -416 4781 -339 4787 -301 
L 4787 1658 
C 4845 1670 4896 1690 4941 1709 
C 5210 1574 5491 1446 5786 1338 
C 5824 1453 5933 1523 6074 1549 
L 6086 1645 
C 4966 1939 3955 2502 3360 3155 
C 3520 3174 3584 3194 3597 3264 
L 3066 3386 
z
" transform="scale(0.015625)"/>
       <path id="NotoSerifCJKjp-ExtraLight-5b97" d="M 5466 4250 
C 5376 4019 5254 3725 5158 3546 
L 5248 3494 
C 5453 3674 5722 3987 5862 4198 
C 5984 4205 6061 4218 6106 4262 
L 5690 4672 
L 5459 4442 
L 3334 4442 
L 3334 5120 
C 3488 5139 3558 5203 3571 5293 
L 3053 5350 
L 3053 4442 
L 1146 4442 
C 1139 4544 1120 4659 1088 4781 
L 966 4774 
C 1011 4307 787 3891 512 3731 
C 410 3661 339 3552 397 3456 
C 461 3341 666 3379 800 3482 
C 966 3603 1139 3853 1152 4250 
L 5466 4250 
z
M 1402 3386 
L 1453 3194 
L 4883 3194 
C 4973 3194 5030 3226 5050 3296 
C 4864 3469 4563 3680 4563 3680 
L 4307 3386 
L 1402 3386 
z
M 1754 1542 
C 1478 992 877 275 250 -154 
L 314 -237 
C 1030 134 1664 755 1997 1254 
C 2144 1222 2195 1248 2240 1318 
L 1754 1542 
z
M 4179 1446 
C 4723 1062 5427 365 5606 -173 
C 6042 -448 6176 627 4256 1510 
L 4179 1446 
z
M 5299 2291 
L 326 2291 
L 384 2099 
L 3053 2099 
L 3053 38 
C 3053 -51 3021 -83 2893 -83 
C 2765 -83 2099 -38 2099 -38 
L 2099 -141 
C 2381 -166 2560 -198 2656 -256 
C 2733 -301 2778 -384 2778 -467 
C 3264 -410 3334 -224 3334 32 
L 3334 2099 
L 5920 2099 
C 6010 2099 6074 2131 6086 2202 
C 5882 2374 5574 2605 5574 2605 
L 5299 2291 
z
" transform="scale(0.015625)"/>
      </defs>
      <use xlink:href="#NotoSerifCJKjp-ExtraLight-671d"/>
      <use xlink:href="#NotoSerifCJKjp-ExtraLight-9bae" x="99.999985"/>
      <use xlink:href="#NotoSerifCJKjp-ExtraLight-20" x="199.999969"/>
      <use xlink:href="#NotoSerifCJKjp-ExtraLight-777f" x="225.899963"/>
      <use xlink:href="#NotoSerifCJKjp-ExtraLight-5b97" x="325.899948"/>
     </g>
    </g>
    <g clip-path="url(#p0ed0fe4fc4)">
     <!--  -->
     <g transform="translate(1950.301986 915.96) scale(0.12 -0.12)"/>
    </g>
   </g>
   <g id="text_23">
    <g clip-path="url(#p0ed0fe4fc4)">
     <!-- 韓堡 -->
     <g transform="translate(2112.574073 901.32) scale(0.12 -0.12)">
      <defs>
       <path id="NotoSerifCJKjp-ExtraLight-5821" d="M 1139 1446 
L 1190 1446 
C 1299 1446 1421 1523 1427 1549 
L 1427 3974 
C 1523 3994 1594 4032 1613 4083 
L 1395 4166 
C 1568 4435 1728 4723 1856 5030 
C 1990 5018 2067 5075 2093 5146 
L 1600 5331 
C 1286 4390 742 3552 205 3053 
L 288 2976 
C 589 3187 877 3475 1139 3808 
L 1139 1446 
z
M 5299 -134 
L 3341 -134 
L 3341 723 
L 5338 723 
C 5427 723 5491 755 5510 826 
C 5312 1011 5005 1248 5005 1248 
L 4736 915 
L 3341 915 
L 3341 1350 
C 3494 1370 3565 1434 3578 1517 
L 3059 1581 
L 3059 915 
L 1005 915 
L 1056 723 
L 3059 723 
L 3059 -134 
L 301 -134 
L 358 -320 
L 5939 -320 
C 6029 -320 6093 -288 6106 -218 
C 5907 -32 5587 218 5587 218 
L 5299 -134 
z
M 2765 4813 
L 5018 4813 
L 5018 3974 
L 2765 3974 
L 2765 4813 
z
M 5907 3002 
C 5997 3002 6061 3034 6074 3104 
C 5888 3277 5600 3507 5600 3507 
L 5338 3194 
L 4026 3194 
L 4026 3782 
L 5018 3782 
L 5018 3597 
L 5056 3597 
C 5152 3597 5299 3667 5299 3706 
L 5299 4762 
C 5414 4781 5517 4832 5555 4870 
L 5139 5197 
L 4960 4998 
L 2835 4998 
L 2477 5171 
L 2477 3539 
L 2515 3539 
C 2662 3539 2765 3616 2765 3648 
L 2765 3782 
L 3738 3782 
L 3738 3194 
L 1850 3194 
L 1901 3002 
L 3392 3002 
C 2989 2502 2387 2067 1702 1754 
L 1773 1638 
C 2579 1939 3270 2381 3738 2950 
L 3738 1478 
L 3776 1478 
C 3923 1478 4026 1568 4026 1600 
L 4026 3002 
L 4045 3002 
C 4467 2400 5178 1939 5856 1696 
C 5894 1824 5997 1894 6118 1907 
L 6125 1971 
C 5453 2144 4685 2522 4224 3002 
L 5907 3002 
z
" transform="scale(0.015625)"/>
      </defs>
      <use xlink:href="#NotoSerifCJKjp-ExtraLight-97d3"/>
      <use xlink:href="#NotoSerifCJKjp-ExtraLight-5821" x="99.999985"/>
     </g>
    </g>
    <g clip-path="url(#p0ed0fe4fc4)">
     <!-- 浪城君 -->
     <g transform="translate(2106.574073 915.96) scale(0.12 -0.12)">
      <defs>
       <path id="NotoSerifCJKjp-ExtraLight-6d6a" d="M 774 5088 
C 1088 4915 1466 4582 1574 4307 
C 1965 4109 2106 4922 838 5152 
L 774 5088 
z
M 243 3706 
C 544 3558 909 3251 1030 2995 
C 1414 2810 1530 3603 301 3776 
L 243 3706 
z
M 2035 4096 
C 979 1638 979 1638 870 1427 
C 813 1293 794 1293 723 1293 
L 448 1293 
L 448 1146 
C 582 1133 672 1120 749 1062 
C 883 973 928 506 851 -141 
C 851 -326 890 -454 998 -454 
C 1171 -454 1261 -307 1274 -51 
C 1299 448 1146 774 1146 1037 
C 1146 1184 1184 1376 1242 1555 
C 1331 1843 1888 3290 2163 4064 
L 2035 4096 
z
M 2778 3334 
L 5075 3334 
L 5075 2432 
L 2778 2432 
L 2778 3334 
z
M 5075 4371 
L 5075 3526 
L 2778 3526 
L 2778 4371 
L 5075 4371 
z
M 5562 2016 
C 5216 1651 4781 1280 4442 1050 
C 4166 1395 3955 1792 3814 2246 
L 5075 2246 
L 5075 1933 
L 5114 1933 
C 5210 1933 5350 2010 5357 2048 
L 5357 4307 
C 5485 4333 5594 4384 5638 4435 
L 5203 4768 
L 5011 4557 
L 3974 4557 
L 3974 5094 
C 4122 5114 4192 5178 4205 5267 
L 3686 5325 
L 3686 4557 
L 2848 4557 
L 2490 4730 
L 2490 160 
C 2144 70 1862 0 1683 -38 
L 1933 -454 
C 1984 -435 2035 -384 2054 -307 
C 2995 32 3706 314 4224 518 
L 4192 627 
C 3693 486 3206 346 2778 237 
L 2778 2246 
L 3667 2246 
C 4006 966 4736 90 5907 -397 
C 5958 -262 6061 -186 6182 -179 
L 6195 -122 
C 5510 102 4954 461 4525 947 
C 4896 1114 5376 1389 5734 1670 
C 5850 1632 5907 1645 5958 1696 
L 5562 2016 
z
" transform="scale(0.015625)"/>
       <path id="NotoSerifCJKjp-ExtraLight-57ce" d="M 4678 5037 
C 4915 4896 5203 4634 5293 4416 
C 5632 4237 5786 4915 4742 5101 
L 4678 5037 
z
M 2227 1747 
C 1939 1632 1651 1517 1389 1414 
L 1389 3315 
L 2125 3315 
C 2214 3315 2272 3347 2291 3418 
C 2106 3590 1824 3814 1824 3814 
L 1568 3507 
L 1389 3507 
L 1389 4954 
C 1542 4973 1606 5037 1619 5126 
L 1101 5190 
L 1101 3507 
L 288 3507 
L 339 3315 
L 1101 3315 
L 1101 1306 
C 730 1165 422 1050 243 998 
L 518 595 
C 570 627 614 678 627 755 
C 1331 1120 1875 1434 2266 1645 
L 2227 1747 
z
M 6125 890 
L 6035 902 
C 5978 659 5882 365 5818 224 
C 5760 83 5734 83 5651 198 
C 5389 467 5190 813 5030 1210 
C 5363 1734 5619 2362 5824 3123 
C 5997 3117 6054 3149 6080 3219 
L 5549 3386 
C 5382 2669 5171 2074 4909 1574 
C 4691 2272 4589 3091 4550 3930 
L 5978 3930 
C 6061 3930 6125 3962 6138 4032 
C 5952 4205 5658 4442 5658 4442 
L 5389 4115 
L 4544 4115 
C 4531 4416 4531 4723 4531 5024 
C 4698 5050 4755 5120 4762 5203 
L 4211 5274 
C 4211 4877 4218 4493 4237 4115 
L 2739 4115 
L 2387 4294 
L 2387 2573 
C 2387 1466 2227 429 1286 -384 
L 1382 -474 
C 2528 339 2675 1536 2675 2579 
L 2675 2714 
L 3571 2714 
C 3546 1677 3507 1133 3411 1018 
C 3386 986 3360 973 3290 973 
C 3200 973 2874 998 2707 1011 
L 2707 896 
C 2861 877 3059 838 3130 800 
C 3194 755 3226 672 3226 614 
C 3366 614 3507 666 3603 755 
C 3782 947 3821 1530 3846 2694 
C 3968 2707 4038 2739 4077 2778 
L 3680 3098 
L 3514 2899 
L 2675 2899 
L 2675 3930 
L 4250 3930 
C 4307 2925 4448 2003 4710 1235 
C 4294 576 3757 77 3034 -339 
L 3104 -461 
C 3834 -102 4397 339 4832 928 
C 5005 525 5216 173 5485 -115 
C 5709 -371 6022 -557 6138 -410 
C 6189 -352 6176 -282 6022 -58 
L 6125 890 
z
" transform="scale(0.015625)"/>
      </defs>
      <use xlink:href="#NotoSerifCJKjp-ExtraLight-6d6a"/>
      <use xlink:href="#NotoSerifCJKjp-ExtraLight-57ce" x="99.999985"/>
      <use xlink:href="#NotoSerifCJKjp-ExtraLight-541b" x="199.999969"/>
     </g>
    </g>
   </g>
   <g id="text_24">
    <g clip-path="url(#p0ed0fe4fc4)">
     <!-- 朝鮮 成宗 -->
     <g transform="translate(2273.291784 901.32) scale(0.12 -0.12)">
      <defs>
       <path id="NotoSerifCJKjp-ExtraLight-6210" d="M 4173 5114 
C 4499 4973 4915 4678 5069 4442 
C 5414 4294 5478 4998 4230 5190 
L 4173 5114 
z
M 6029 832 
L 5939 845 
C 5875 595 5779 294 5715 147 
C 5664 13 5619 13 5491 96 
C 5050 333 4704 691 4442 1139 
C 4883 1715 5184 2349 5376 2982 
C 5555 2976 5613 3008 5638 3091 
L 5101 3238 
C 4947 2605 4685 1971 4307 1402 
C 3974 2099 3802 2957 3731 3872 
L 5926 3872 
C 6016 3872 6080 3904 6093 3974 
C 5907 4147 5606 4384 5606 4384 
L 5344 4058 
L 3718 4058 
C 3699 4397 3693 4736 3693 5082 
C 3846 5101 3904 5178 3917 5261 
L 3392 5318 
C 3392 4883 3405 4461 3437 4058 
L 1299 4058 
L 954 4237 
L 954 2675 
C 954 1606 877 493 230 -416 
L 326 -499 
C 1146 397 1229 1638 1235 2611 
L 2534 2611 
C 2502 1504 2419 909 2291 781 
C 2246 730 2195 717 2093 717 
C 1978 717 1645 749 1453 768 
L 1446 653 
C 1606 634 1811 589 1875 544 
C 1946 493 1965 403 1965 326 
C 2150 326 2349 384 2470 512 
C 2675 710 2778 1350 2810 2592 
C 2938 2605 3014 2630 3059 2682 
L 2656 3002 
L 2477 2797 
L 1235 2797 
L 1235 3872 
L 3450 3872 
C 3546 2822 3750 1894 4134 1158 
C 3674 544 3072 13 2310 -358 
L 2368 -448 
C 3162 -115 3782 365 4262 922 
C 4550 448 4915 70 5382 -186 
C 5696 -384 6022 -506 6106 -346 
C 6138 -288 6125 -237 5939 -70 
L 6029 832 
z
" transform="scale(0.015625)"/>
      </defs>
      <use xlink:href="#NotoSerifCJKjp-ExtraLight-671d"/>
      <use xlink:href="#NotoSerifCJKjp-ExtraLight-9bae" x="99.999985"/>
      <use xlink:href="#NotoSerifCJKjp-ExtraLight-20" x="199.999969"/>
      <use xlink:href="#NotoSerifCJKjp-ExtraLight-6210" x="225.899963"/>
      <use xlink:href="#NotoSerifCJKjp-ExtraLight-5b97" x="325.899948"/>
     </g>
    </g>
    <g clip-path="url(#p0ed0fe4fc4)">
     <!--  -->
     <g transform="translate(2298.846159 915.96) scale(0.12 -0.12)"/>
    </g>
   </g>
   <g id="text_25">
    <g clip-path="url(#p0ed0fe4fc4)">
     <!-- 尹磻 -->
     <g transform="translate(2461.118246 901.32) scale(0.12 -0.12)">
      <defs>
       <path id="NotoSerifCJKjp-ExtraLight-78fb" d="M 1082 832 
L 1082 2784 
L 1926 2784 
L 1926 832 
L 1082 832 
z
M 2042 3187 
L 1862 2976 
L 1152 2976 
L 1005 3046 
C 1203 3546 1350 4077 1453 4640 
L 2458 4640 
C 2547 4640 2605 4672 2624 4742 
C 2432 4915 2138 5152 2138 5152 
L 1882 4832 
L 269 4832 
L 320 4640 
L 1139 4640 
C 979 3654 685 2688 224 1907 
L 326 1824 
C 506 2067 659 2317 794 2586 
L 794 -141 
L 838 -141 
C 979 -141 1082 -58 1082 -32 
L 1082 646 
L 1926 646 
L 1926 250 
L 1958 250 
C 2054 250 2202 307 2208 339 
L 2208 2726 
C 2336 2752 2438 2797 2483 2848 
L 2042 3187 
z
M 4326 96 
L 4326 858 
L 5363 858 
L 5363 96 
L 4326 96 
z
M 3078 858 
L 4038 858 
L 4038 96 
L 3078 96 
L 3078 858 
z
M 4038 1779 
L 4038 1050 
L 3078 1050 
L 3078 1779 
L 4038 1779 
z
M 5363 1779 
L 5363 1050 
L 4326 1050 
L 4326 1779 
L 5363 1779 
z
M 5344 1965 
L 3155 1965 
L 2797 2131 
L 2797 -474 
L 2835 -474 
C 2982 -474 3078 -390 3078 -365 
L 3078 -90 
L 5363 -90 
L 5363 -403 
L 5408 -403 
C 5530 -403 5651 -320 5651 -294 
L 5651 1760 
C 5773 1779 5843 1811 5882 1862 
L 5504 2157 
L 5344 1965 
z
M 5952 3437 
C 6042 3437 6106 3469 6118 3539 
C 5933 3712 5638 3949 5638 3949 
L 5376 3622 
L 4326 3622 
L 4326 4787 
C 4736 4851 5114 4922 5414 4992 
C 5542 4934 5645 4934 5696 4986 
L 5331 5318 
C 4742 5101 3603 4845 2669 4736 
L 2701 4614 
C 3136 4634 3603 4685 4038 4742 
L 4038 3622 
L 2355 3622 
L 2406 3437 
L 3808 3437 
C 3456 2918 2925 2451 2310 2106 
L 2374 1990 
C 3046 2291 3622 2707 4038 3219 
L 4038 2061 
L 4077 2061 
C 4218 2061 4326 2138 4326 2170 
L 4326 3354 
C 4710 2784 5325 2330 5894 2080 
C 5939 2214 6042 2298 6163 2310 
L 6170 2374 
C 5568 2560 4870 2950 4448 3437 
L 5952 3437 
z
M 2918 4518 
C 3091 4326 3270 3994 3302 3738 
C 3590 3507 3866 4109 3002 4563 
L 2918 4518 
z
M 4730 3667 
C 4998 3878 5299 4141 5453 4307 
C 5574 4275 5658 4326 5683 4371 
L 5229 4666 
C 5114 4435 4858 4000 4659 3725 
L 4730 3667 
z
" transform="scale(0.015625)"/>
      </defs>
      <use xlink:href="#NotoSerifCJKjp-ExtraLight-5c39"/>
      <use xlink:href="#NotoSerifCJKjp-ExtraLight-78fb" x="99.999985"/>
     </g>
    </g>
    <g clip-path="url(#p0ed0fe4fc4)">
     <!-- 鈴川君 -->
     <g transform="translate(2455.118246 915.96) scale(0.12 -0.12)">
      <defs>
       <path id="NotoSerifCJKjp-ExtraLight-9234" d="M 1402 5318 
C 1184 4646 627 3629 90 3078 
L 186 3008 
C 774 3501 1299 4320 1606 4947 
C 2035 4595 2368 4179 2509 3878 
C 2816 3667 3187 4320 1677 5037 
C 1818 5043 1875 5088 1894 5146 
L 1402 5318 
z
M 1670 2285 
L 2662 2285 
C 2752 2285 2803 2317 2816 2381 
C 2650 2554 2368 2771 2368 2771 
L 2131 2470 
L 1670 2470 
L 1670 3296 
L 2445 3296 
C 2534 3296 2592 3328 2611 3398 
C 2438 3565 2170 3776 2170 3776 
L 1939 3488 
L 742 3488 
L 794 3296 
L 1389 3296 
L 1389 2470 
L 320 2470 
L 371 2285 
L 1389 2285 
L 1389 218 
C 902 102 499 13 262 -32 
L 512 -454 
C 570 -429 621 -378 640 -301 
C 1613 13 2349 282 2874 480 
L 2848 582 
C 2438 480 2035 378 1670 288 
L 1670 2285 
z
M 518 1882 
C 646 1536 774 1005 742 608 
C 1018 301 1344 1024 614 1907 
L 518 1882 
z
M 2035 672 
C 2202 947 2355 1350 2477 1683 
C 2605 1683 2669 1741 2694 1818 
L 2176 1965 
C 2112 1536 2016 1050 1926 710 
L 2035 672 
z
M 5299 2298 
L 2970 2298 
L 3027 2106 
L 3885 2106 
L 3885 -467 
L 3923 -467 
C 4064 -467 4166 -390 4166 -358 
L 4166 2106 
L 5350 2106 
L 5350 685 
C 5350 602 5325 563 5235 563 
C 5120 563 4621 608 4621 608 
L 4621 499 
C 4845 474 4973 435 5050 384 
C 5120 326 5146 250 5158 160 
C 5594 211 5638 378 5638 646 
L 5638 2061 
C 5741 2080 5843 2131 5882 2176 
L 5453 2490 
L 5299 2298 
z
M 4646 3251 
L 3277 3251 
L 3328 3066 
L 5216 3066 
C 5299 3066 5363 3098 5376 3168 
C 5197 3341 4902 3571 4902 3571 
L 4646 3251 
z
M 4186 5357 
C 3987 4608 3206 3565 2560 3046 
L 2624 2950 
C 3360 3437 4090 4262 4448 5056 
C 4723 4269 5293 3520 5914 3027 
C 5952 3142 6061 3219 6182 3245 
L 6195 3328 
C 5523 3744 4883 4435 4550 5133 
C 4678 5146 4742 5171 4755 5235 
L 4186 5357 
z
" transform="scale(0.015625)"/>
       <path id="NotoSerifCJKjp-ExtraLight-5ddd" d="M 1203 5037 
L 1203 2816 
C 1203 1626 1056 454 269 -390 
L 378 -474 
C 1306 371 1485 1613 1491 2816 
L 1491 4806 
C 1645 4832 1690 4890 1709 4979 
L 1203 5037 
z
M 3130 4838 
L 3130 160 
L 3187 160 
C 3290 160 3411 230 3411 275 
L 3411 4595 
C 3571 4621 3622 4685 3635 4774 
L 3130 4838 
z
M 5190 5050 
L 5190 -474 
L 5248 -474 
C 5350 -474 5472 -397 5472 -346 
L 5472 4813 
C 5632 4838 5683 4896 5702 4986 
L 5190 5050 
z
" transform="scale(0.015625)"/>
      </defs>
      <use xlink:href="#NotoSerifCJKjp-ExtraLight-9234"/>
      <use xlink:href="#NotoSerifCJKjp-ExtraLight-5ddd" x="99.999985"/>
      <use xlink:href="#NotoSerifCJKjp-ExtraLight-541b" x="199.999969"/>
     </g>
    </g>
   </g>
   <g id="text_26">
    <g clip-path="url(#p0ed0fe4fc4)">
     <!-- 尹垓 -->
     <g transform="translate(1408.634442 541.32) scale(0.12 -0.12)">
      <defs>
       <path id="NotoSerifCJKjp-ExtraLight-5793" d="M 2470 1920 
C 2112 1741 1754 1562 1427 1402 
L 1427 3296 
L 2246 3296 
C 2336 3296 2387 3328 2406 3398 
C 2227 3571 1939 3795 1939 3795 
L 1690 3488 
L 1427 3488 
L 1427 4960 
C 1581 4979 1645 5043 1658 5133 
L 1139 5197 
L 1139 3488 
L 288 3488 
L 339 3296 
L 1139 3296 
L 1139 1261 
C 736 1069 403 915 218 845 
L 435 429 
C 493 461 538 531 544 602 
C 1370 1088 2029 1523 2515 1824 
L 2470 1920 
z
M 4755 3418 
C 4096 2317 3181 1587 2086 1056 
L 2150 941 
C 3328 1408 4282 2099 4979 3117 
C 5133 3091 5190 3110 5229 3174 
L 4755 3418 
z
M 5466 2451 
C 4518 922 3206 198 1664 -333 
L 1709 -461 
C 2816 -154 3776 256 4595 934 
C 5056 563 5626 6 5811 -416 
C 6253 -659 6406 262 4698 1024 
C 5056 1331 5389 1696 5690 2131 
C 5843 2093 5907 2106 5952 2176 
L 5466 2451 
z
M 5408 4262 
L 4198 4262 
L 4198 5037 
C 4352 5056 4422 5120 4435 5210 
L 3917 5274 
L 3917 4262 
L 2093 4262 
L 2144 4070 
L 3725 4070 
C 3539 3654 3290 3251 3066 2950 
C 2899 3066 2662 3174 2349 3258 
L 2285 3194 
C 2630 2989 3066 2586 3194 2259 
C 3469 2112 3622 2490 3200 2854 
C 3482 3110 3770 3456 4006 3808 
C 4134 3782 4211 3834 4243 3898 
L 3885 4070 
L 5990 4070 
C 6080 4070 6138 4102 6150 4173 
C 5971 4352 5677 4582 5677 4582 
L 5408 4262 
z
" transform="scale(0.015625)"/>
      </defs>
      <use xlink:href="#NotoSerifCJKjp-ExtraLight-5c39"/>
      <use xlink:href="#NotoSerifCJKjp-ExtraLight-5793" x="99.999985"/>
     </g>
    </g>
    <g clip-path="url(#p0ed0fe4fc4)">
     <!-- 府使 -->
     <g transform="translate(1408.634442 555.96) scale(0.12 -0.12)">
      <defs>
       <path id="NotoSerifCJKjp-ExtraLight-4f7f" d="M 1427 3680 
C 1651 4109 1850 4576 2016 5043 
C 2157 5037 2234 5094 2259 5171 
L 1747 5331 
C 1402 4122 832 2918 269 2163 
L 371 2093 
C 653 2406 928 2790 1178 3219 
L 1178 -467 
L 1229 -467 
C 1338 -467 1459 -384 1466 -358 
L 1466 3482 
C 1568 3494 1632 3539 1651 3597 
L 1427 3680 
z
M 2566 2221 
L 2566 3366 
L 3846 3366 
L 3846 2566 
C 3846 2445 3840 2330 3834 2221 
L 2566 2221 
z
M 5382 3366 
L 5382 2221 
L 4115 2221 
C 4122 2336 4128 2451 4128 2573 
L 4128 3366 
L 5382 3366 
z
M 5382 2029 
L 5382 1696 
L 5421 1696 
C 5517 1696 5664 1779 5670 1818 
L 5670 3302 
C 5792 3328 5901 3379 5946 3430 
L 5510 3763 
L 5318 3558 
L 4128 3558 
L 4128 4275 
L 5965 4275 
C 6054 4275 6112 4307 6131 4378 
C 5939 4550 5645 4787 5645 4787 
L 5382 4461 
L 4128 4461 
L 4128 5094 
C 4288 5120 4339 5184 4352 5274 
L 3846 5325 
L 3846 4461 
L 2003 4461 
L 2054 4275 
L 3846 4275 
L 3846 3558 
L 2598 3558 
L 2285 3712 
L 2285 1683 
L 2330 1683 
C 2445 1683 2566 1754 2566 1786 
L 2566 2029 
L 3821 2029 
C 3763 1562 3629 1158 3386 813 
C 3091 1050 2848 1338 2669 1664 
L 2560 1600 
C 2739 1222 2963 902 3245 627 
C 2893 224 2374 -96 1613 -346 
L 1670 -467 
C 2477 -230 3034 83 3411 480 
C 4026 -32 4845 -333 5894 -467 
C 5926 -320 6042 -218 6176 -192 
L 6176 -128 
C 5120 -51 4237 218 3578 666 
C 3878 1056 4032 1504 4096 2029 
L 5382 2029 
z
" transform="scale(0.015625)"/>
      </defs>
      <use xlink:href="#NotoSerifCJKjp-ExtraLight-5e9c"/>
      <use xlink:href="#NotoSerifCJKjp-ExtraLight-4f7f" x="99.999985"/>
     </g>
    </g>
   </g>
   <g id="text_27">
    <g clip-path="url(#p0ed0fe4fc4)">
     <!-- 金孟珍 -->
     <g transform="translate(1402.634442 901.32) scale(0.12 -0.12)">
      <defs>
       <path id="NotoSerifCJKjp-ExtraLight-5b5f" d="M 3066 4211 
L 3066 3674 
L 512 3674 
L 570 3488 
L 3066 3488 
L 3066 2483 
C 3066 2381 3034 2349 2899 2349 
C 2765 2349 2022 2394 2022 2394 
L 2022 2298 
C 2330 2266 2515 2221 2618 2170 
C 2707 2112 2746 2029 2771 1939 
C 3290 1997 3347 2182 3347 2458 
L 3347 3488 
L 5792 3488 
C 5882 3488 5946 3520 5958 3590 
C 5773 3763 5472 4000 5472 4000 
L 5216 3674 
L 3347 3674 
L 3347 3994 
C 3488 4019 3546 4051 3565 4128 
C 4077 4301 4627 4557 4998 4755 
C 5139 4762 5229 4768 5280 4813 
L 4877 5190 
L 4634 4966 
L 1325 4966 
L 1382 4781 
L 4467 4781 
C 4186 4582 3795 4339 3430 4166 
L 3066 4211 
z
M 1491 1510 
L 2426 1510 
L 2426 -134 
L 1491 -134 
L 1491 1510 
z
M 3654 1510 
L 3654 -134 
L 2714 -134 
L 2714 1510 
L 3654 1510 
z
M 4896 1510 
L 4896 -134 
L 3942 -134 
L 3942 1510 
L 4896 1510 
z
M 5357 -134 
L 5184 -134 
L 5184 1472 
C 5338 1491 5421 1517 5472 1587 
L 5005 1939 
L 4826 1702 
L 1562 1702 
L 1203 1875 
L 1203 -134 
L 301 -134 
L 358 -320 
L 5958 -320 
C 6048 -320 6106 -288 6125 -218 
C 5933 -45 5626 198 5626 198 
L 5357 -134 
z
" transform="scale(0.015625)"/>
       <path id="NotoSerifCJKjp-ExtraLight-73cd" d="M 2157 -461 
C 3808 -141 5158 678 5798 1613 
C 5952 1574 6010 1594 6054 1658 
L 5594 1914 
C 4992 902 3654 38 2112 -352 
L 2157 -461 
z
M 2624 870 
C 3667 1210 4602 1901 5062 2522 
C 5210 2490 5267 2509 5299 2573 
L 4851 2803 
C 4435 2112 3526 1370 2566 973 
L 2624 870 
z
M 4256 3661 
C 3930 3098 3232 2419 2515 2029 
L 2579 1933 
C 3379 2278 4109 2874 4480 3379 
C 4627 3347 4678 3373 4717 3437 
L 4256 3661 
z
M 4019 5357 
C 3814 4627 3174 3648 2541 2976 
C 2368 3142 2118 3354 2118 3354 
L 1882 3046 
L 1530 3046 
L 1530 4538 
L 2534 4538 
C 2624 4538 2688 4570 2701 4640 
C 2515 4819 2214 5050 2214 5050 
L 1952 4730 
L 288 4730 
L 339 4538 
L 1248 4538 
L 1248 3046 
L 333 3046 
L 384 2854 
L 1248 2854 
L 1248 1069 
C 787 883 410 736 205 672 
L 371 282 
C 429 307 474 371 486 448 
C 1395 877 2118 1267 2669 1530 
L 2630 1632 
C 2246 1472 1875 1318 1530 1178 
L 1530 2854 
L 2400 2854 
L 2432 2854 
C 2323 2746 2214 2643 2106 2554 
L 2170 2458 
C 3014 3066 3853 4090 4256 5030 
C 4576 4102 5267 3251 5990 2675 
C 6035 2778 6138 2854 6259 2867 
L 6278 2957 
C 5459 3488 4755 4269 4371 5114 
C 4499 5120 4570 5152 4582 5216 
L 4019 5357 
z
" transform="scale(0.015625)"/>
      </defs>
      <use xlink:href="#NotoSerifCJKjp-ExtraLight-91d1"/>
      <use xlink:href="#NotoSerifCJKjp-ExtraLight-5b5f" x="99.999985"/>
      <use xlink:href="#NotoSerifCJKjp-ExtraLight-73cd" x="199.999969"/>
     </g>
    </g>
    <g clip-path="url(#p0ed0fe4fc4)">
     <!--   -->
     <g transform="translate(1419.080067 915.96) scale(0.12 -0.12)">
      <use xlink:href="#NotoSerifCJKjp-ExtraLight-20"/>
     </g>
    </g>
   </g>
   <g id="text_28">
    <g clip-path="url(#p0ed0fe4fc4)">
     <!-- 尹士元 -->
     <g transform="translate(1576.906528 901.32) scale(0.12 -0.12)">
      <defs>
       <path id="NotoSerifCJKjp-ExtraLight-58eb" d="M 5325 3123 
L 3341 3123 
L 3341 4998 
C 3494 5024 3552 5088 3571 5178 
L 3059 5242 
L 3059 3123 
L 294 3123 
L 352 2931 
L 3059 2931 
L 3059 32 
L 666 32 
L 717 -160 
L 5574 -160 
C 5670 -160 5722 -128 5741 -58 
C 5549 128 5229 371 5229 371 
L 4954 32 
L 3341 32 
L 3341 2931 
L 5946 2931 
C 6042 2931 6099 2963 6118 3034 
C 5920 3213 5600 3462 5600 3462 
L 5325 3123 
z
" transform="scale(0.015625)"/>
       <path id="NotoSerifCJKjp-ExtraLight-5143" d="M 5280 4608 
C 5363 4608 5421 4640 5440 4710 
C 5242 4896 4922 5146 4922 5146 
L 4646 4800 
L 1005 4800 
L 1056 4608 
L 5280 4608 
z
M 6010 1126 
L 5914 1126 
C 5856 672 5786 205 5741 83 
C 5722 19 5702 -6 5632 -13 
C 5530 -26 5299 -26 4966 -26 
L 4301 -26 
C 4026 -26 3994 13 3994 134 
L 3994 2925 
L 3994 3046 
L 5939 3046 
C 6029 3046 6086 3078 6106 3149 
C 5901 3334 5574 3590 5574 3590 
L 5286 3232 
L 314 3232 
L 371 3046 
L 2195 3046 
C 2131 1350 1779 384 243 -390 
L 288 -493 
C 2016 205 2419 1197 2515 3046 
L 3706 3046 
L 3706 77 
C 3706 -192 3808 -288 4269 -288 
L 4986 -288 
C 5997 -288 6170 -243 6170 -96 
C 6170 -32 6144 6 6022 45 
L 6010 1126 
z
" transform="scale(0.015625)"/>
      </defs>
      <use xlink:href="#NotoSerifCJKjp-ExtraLight-5c39"/>
      <use xlink:href="#NotoSerifCJKjp-ExtraLight-58eb" x="99.999985"/>
      <use xlink:href="#NotoSerifCJKjp-ExtraLight-5143" x="199.999969"/>
     </g>
    </g>
    <g clip-path="url(#p0ed0fe4fc4)">
     <!--  -->
     <g transform="translate(1594.906528 915.96) scale(0.12 -0.12)"/>
    </g>
   </g>
   <g id="text_29">
    <g clip-path="url(#p0ed0fe4fc4)">
     <!-- 尹三山 -->
     <g transform="translate(1580.323628 181.32) scale(0.12 -0.12)">
      <defs>
       <path id="NotoSerifCJKjp-ExtraLight-4e09" d="M 282 218 
L 339 26 
L 5997 26 
C 6093 26 6150 58 6170 128 
C 5952 333 5587 608 5587 608 
L 5280 218 
L 282 218 
z
M 1126 2509 
L 1178 2317 
L 5024 2317 
C 5114 2317 5171 2349 5184 2419 
C 4979 2611 4646 2867 4646 2867 
L 4352 2509 
L 1126 2509 
z
M 646 4582 
L 704 4390 
L 5677 4390 
C 5766 4390 5830 4422 5843 4493 
C 5632 4691 5293 4947 5293 4947 
L 4998 4582 
L 646 4582 
z
" transform="scale(0.015625)"/>
       <path id="NotoSerifCJKjp-ExtraLight-5c71" d="M 5312 3814 
L 5312 499 
L 3315 499 
L 3315 4934 
C 3469 4960 3533 5024 3546 5114 
L 3034 5178 
L 3034 499 
L 1069 499 
L 1069 3558 
C 1222 3578 1280 3635 1299 3725 
L 781 3789 
L 781 -454 
L 838 -454 
C 947 -454 1069 -384 1069 -333 
L 1069 307 
L 5312 307 
L 5312 -346 
L 5370 -346 
C 5478 -346 5600 -269 5600 -218 
L 5600 3584 
C 5754 3603 5811 3661 5830 3750 
L 5312 3814 
z
" transform="scale(0.015625)"/>
      </defs>
      <use xlink:href="#NotoSerifCJKjp-ExtraLight-5c39"/>
      <use xlink:href="#NotoSerifCJKjp-ExtraLight-4e09" x="99.999985"/>
      <use xlink:href="#NotoSerifCJKjp-ExtraLight-5c71" x="199.999969"/>
     </g>
    </g>
    <g clip-path="url(#p0ed0fe4fc4)">
     <!-- 僉知 -->
     <g transform="translate(1586.323628 195.96) scale(0.12 -0.12)">
      <defs>
       <path id="NotoSerifCJKjp-ExtraLight-50c9" d="M 1920 1357 
C 1664 672 1114 26 429 -365 
L 486 -467 
C 1062 -218 1555 192 1888 646 
C 2182 461 2509 173 2630 -70 
C 2963 -237 3085 422 1965 755 
C 2042 870 2106 992 2163 1107 
C 2285 1088 2355 1107 2374 1178 
L 1920 1357 
z
M 3802 1773 
L 3802 2669 
L 5005 2669 
L 5005 1773 
L 3802 1773 
z
M 5043 1395 
C 5139 1395 5286 1472 5293 1510 
L 5293 2624 
C 5395 2643 5498 2694 5536 2739 
L 5126 3046 
L 4947 2854 
L 3834 2854 
L 3520 3008 
L 3520 1293 
L 3565 1293 
C 3680 1293 3802 1363 3802 1389 
L 3802 1581 
L 5005 1581 
L 5005 1395 
L 5043 1395 
z
M 3821 3590 
L 1946 3590 
L 1997 3398 
L 4352 3398 
C 4442 3398 4493 3430 4512 3501 
C 4339 3661 4058 3872 4058 3872 
L 3821 3590 
z
M 2541 2669 
L 2541 1773 
L 1389 1773 
L 1389 2669 
L 2541 2669 
z
M 1101 3008 
L 1101 1267 
L 1146 1267 
C 1267 1267 1389 1338 1389 1363 
L 1389 1581 
L 2541 1581 
L 2541 1395 
L 2579 1395 
C 2675 1395 2816 1472 2822 1510 
L 2822 2624 
C 2931 2643 3034 2694 3072 2739 
L 2662 3046 
L 2483 2854 
L 1421 2854 
L 1101 3008 
z
M 4224 1357 
C 3949 640 3341 0 2592 -365 
L 2643 -474 
C 3258 -243 3795 147 4160 614 
C 4659 352 5318 -109 5568 -448 
C 5978 -595 5997 198 4237 717 
C 4326 845 4403 973 4467 1107 
C 4589 1088 4666 1101 4691 1171 
L 4224 1357 
z
M 3078 5350 
C 2688 4538 1299 3354 256 2822 
L 307 2726 
C 1440 3251 2694 4243 3322 5030 
C 3840 4256 4877 3437 5920 2944 
C 5958 3046 6086 3123 6227 3136 
L 6240 3226 
C 5088 3706 4045 4410 3443 5107 
C 3590 5120 3661 5146 3680 5216 
L 3078 5350 
z
" transform="scale(0.015625)"/>
       <path id="NotoSerifCJKjp-ExtraLight-77e5" d="M 2675 2656 
L 2010 2656 
C 2016 2746 2016 2835 2016 2918 
L 2016 4032 
L 3040 4032 
C 3130 4032 3194 4058 3200 4128 
C 3014 4314 2733 4531 2733 4531 
L 2470 4218 
L 1190 4218 
C 1306 4480 1408 4755 1491 5043 
C 1626 5043 1696 5107 1722 5184 
L 1184 5318 
C 1024 4454 691 3629 314 3091 
L 416 3027 
C 678 3290 909 3635 1107 4032 
L 1734 4032 
L 1734 2912 
C 1734 2829 1734 2739 1728 2656 
L 301 2656 
L 352 2464 
L 1722 2464 
C 1664 1498 1370 493 282 -358 
L 371 -454 
C 1261 109 1677 832 1862 1562 
C 2246 1190 2714 659 2854 269 
C 3238 32 3405 851 1894 1702 
C 1952 1958 1984 2214 2003 2464 
L 3251 2464 
C 3334 2464 3398 2496 3418 2566 
C 3226 2746 2931 2970 2931 2970 
L 2675 2656 
z
M 3878 480 
L 3878 4320 
L 5504 4320 
L 5504 480 
L 3878 480 
z
M 5632 4730 
L 5440 4506 
L 3910 4506 
L 3597 4678 
L 3597 -269 
L 3648 -269 
C 3782 -269 3878 -192 3878 -160 
L 3878 288 
L 5504 288 
L 5504 -179 
L 5542 -179 
C 5645 -179 5779 -96 5786 -58 
L 5786 4256 
C 5914 4282 6029 4333 6067 4384 
L 5632 4730 
z
" transform="scale(0.015625)"/>
      </defs>
      <use xlink:href="#NotoSerifCJKjp-ExtraLight-50c9"/>
      <use xlink:href="#NotoSerifCJKjp-ExtraLight-77e5" x="99.999985"/>
     </g>
    </g>
   </g>
   <g id="text_30">
    <g clip-path="url(#p0ed0fe4fc4)">
     <!-- 朴[木+舟] -->
     <g transform="translate(1572.913628 541.32) scale(0.12 -0.12)">
      <defs>
       <path id="NotoSerifCJKjp-ExtraLight-6734" d="M 2637 3891 
L 2003 3891 
L 2003 5094 
C 2163 5120 2214 5178 2234 5274 
L 1722 5331 
L 1722 3891 
L 352 3891 
L 403 3699 
L 1606 3699 
C 1350 2675 883 1677 230 909 
L 320 819 
C 941 1427 1408 2176 1722 3002 
L 1722 -454 
L 1786 -454 
C 1888 -454 2003 -384 2003 -326 
L 2003 2842 
C 2323 2573 2720 2144 2854 1824 
C 3238 1600 3424 2394 2016 2944 
L 2003 2931 
L 2003 3699 
L 3219 3699 
C 3302 3699 3366 3731 3386 3802 
C 3200 3981 2899 4211 2899 4211 
L 2637 3891 
z
M 4179 5082 
C 4339 5107 4390 5165 4410 5261 
L 3898 5318 
L 3898 -442 
L 3962 -442 
C 4058 -442 4179 -365 4179 -307 
L 4179 3085 
C 4774 2784 5562 2240 5850 1824 
C 6323 1638 6310 2611 4179 3200 
L 4179 5082 
z
" transform="scale(0.015625)"/>
       <path id="NotoSerifCJKjp-ExtraLight-5b" d="M 1830 4730 
L 1830 4922 
L 678 4922 
C 704 4198 704 3462 704 2739 
L 704 1088 
C 704 352 704 -384 678 -1094 
L 1830 -1094 
L 1830 -902 
L 1043 -838 
C 1030 -198 1030 448 1030 1088 
L 1030 2739 
C 1030 3386 1030 4032 1043 4666 
L 1830 4730 
z
" transform="scale(0.015625)"/>
       <path id="NotoSerifCJKjp-ExtraLight-6728" d="M 5894 3539 
C 5984 3539 6048 3571 6061 3635 
C 5862 3827 5542 4070 5542 4070 
L 5261 3725 
L 3334 3725 
L 3334 5107 
C 3494 5133 3546 5197 3565 5286 
L 3053 5344 
L 3053 3725 
L 346 3725 
L 403 3539 
L 2758 3539 
C 2240 2362 1299 1152 186 352 
L 269 256 
C 1485 1030 2464 2157 3053 3386 
L 3053 -467 
L 3110 -467 
C 3213 -467 3334 -390 3334 -333 
L 3334 3488 
C 3898 2131 4877 986 5856 365 
C 5920 506 6048 595 6176 595 
L 6195 659 
C 5171 1171 4077 2317 3469 3539 
L 5894 3539 
z
" transform="scale(0.015625)"/>
       <path id="NotoSerifCJKjp-ExtraLight-2b" d="M 3405 2413 
L 1958 2413 
L 1958 3936 
L 1690 3936 
L 1690 2413 
L 250 2413 
L 250 2170 
L 1690 2170 
L 1690 614 
L 1958 614 
L 1958 2170 
L 3405 2170 
L 3405 2413 
z
" transform="scale(0.015625)"/>
       <path id="NotoSerifCJKjp-ExtraLight-821f" d="M 3072 64 
L 3130 64 
C 3232 64 3354 141 3354 186 
L 3354 1894 
C 3494 1914 3552 1965 3565 2048 
L 3072 2106 
L 3072 64 
z
M 2624 3942 
C 2963 3706 3379 3277 3475 2925 
C 3834 2701 4019 3526 2694 4006 
L 2624 3942 
z
M 1946 2547 
C 1946 2630 1946 2707 1946 2790 
L 1946 4326 
L 4672 4326 
L 4672 2547 
L 1946 2547 
z
M 5402 2547 
L 4954 2547 
L 4954 4243 
C 5094 4269 5216 4326 5267 4384 
L 4781 4749 
L 4602 4512 
L 3085 4512 
C 3187 4691 3302 4922 3392 5094 
C 3520 5101 3603 5152 3616 5235 
L 3078 5344 
C 3027 5101 2938 4749 2874 4512 
L 2010 4512 
L 1664 4691 
L 1664 2784 
C 1664 2707 1664 2624 1664 2547 
L 256 2547 
L 314 2355 
L 1658 2355 
C 1606 1312 1350 371 435 -384 
L 525 -474 
C 1619 275 1888 1338 1933 2355 
L 4672 2355 
L 4672 64 
C 4672 -45 4634 -83 4506 -83 
C 4378 -83 3693 -26 3693 -26 
L 3693 -134 
C 3981 -166 4154 -205 4256 -262 
C 4339 -314 4378 -397 4397 -486 
C 4902 -435 4954 -243 4954 26 
L 4954 2355 
L 5990 2355 
C 6080 2355 6138 2387 6150 2458 
C 5965 2637 5670 2867 5670 2867 
L 5402 2547 
z
" transform="scale(0.015625)"/>
       <path id="NotoSerifCJKjp-ExtraLight-5d" d="M 1427 2739 
C 1427 3475 1427 4211 1446 4922 
L 294 4922 
L 294 4730 
L 1082 4666 
C 1094 4026 1094 3379 1094 2739 
L 1094 1088 
C 1094 442 1094 -205 1082 -838 
L 294 -902 
L 294 -1094 
L 1446 -1094 
C 1427 -371 1427 365 1427 1088 
L 1427 2739 
z
" transform="scale(0.015625)"/>
      </defs>
      <use xlink:href="#NotoSerifCJKjp-ExtraLight-6734"/>
      <use xlink:href="#NotoSerifCJKjp-ExtraLight-5b" x="99.999985"/>
      <use xlink:href="#NotoSerifCJKjp-ExtraLight-6728" x="133.199982"/>
      <use xlink:href="#NotoSerifCJKjp-ExtraLight-2b" x="233.199966"/>
      <use xlink:href="#NotoSerifCJKjp-ExtraLight-821f" x="290.299957"/>
      <use xlink:href="#NotoSerifCJKjp-ExtraLight-5d" x="390.299942"/>
     </g>
    </g>
    <g clip-path="url(#p0ed0fe4fc4)">
     <!--  -->
     <g transform="translate(1598.323628 555.96) scale(0.12 -0.12)"/>
    </g>
   </g>
   <g id="text_31">
    <g clip-path="url(#p0ed0fe4fc4)">
     <!-- 李霂 -->
     <g transform="translate(1764.012814 541.32) scale(0.12 -0.12)">
      <defs>
       <path id="NotoSerifCJKjp-ExtraLight-674e" d="M 5312 1280 
L 3341 1280 
L 3341 1574 
C 3462 1594 3520 1626 3552 1690 
C 3955 1830 4518 2054 4813 2259 
C 4941 2266 5030 2272 5082 2310 
L 4710 2669 
L 4499 2464 
L 1427 2464 
L 1485 2278 
L 4333 2278 
C 4064 2093 3686 1888 3424 1754 
L 3059 1798 
L 3059 1280 
L 314 1280 
L 371 1088 
L 3059 1088 
L 3059 64 
C 3059 -32 3027 -70 2899 -70 
C 2771 -70 2074 -19 2074 -19 
L 2074 -122 
C 2362 -154 2541 -192 2637 -243 
C 2726 -301 2765 -384 2778 -474 
C 3283 -416 3341 -237 3341 38 
L 3341 1088 
L 5926 1088 
C 6016 1088 6074 1120 6093 1190 
C 5894 1376 5587 1613 5587 1613 
L 5312 1280 
z
M 5850 4186 
C 5939 4186 5997 4218 6016 4288 
C 5818 4467 5504 4717 5504 4717 
L 5229 4378 
L 3322 4378 
L 3322 5107 
C 3482 5133 3546 5190 3558 5280 
L 3040 5338 
L 3040 4378 
L 403 4378 
L 461 4186 
L 2656 4186 
C 2061 3494 1152 2816 218 2355 
L 282 2253 
C 1363 2694 2368 3366 3040 4147 
L 3040 2662 
L 3098 2662 
C 3200 2662 3322 2733 3322 2778 
L 3322 4186 
L 3386 4186 
C 3942 3424 5011 2707 5901 2323 
C 5952 2451 6054 2534 6182 2541 
L 6195 2611 
C 5312 2906 4179 3533 3578 4186 
L 5850 4186 
z
" transform="scale(0.015625)"/>
       <path id="NotoSerifCJKjp-ExtraLight-9702" d="M 1094 2771 
L 2611 2771 
C 2694 2771 2752 2797 2771 2867 
C 2618 3008 2400 3168 2400 3168 
L 2208 2957 
L 1050 2957 
L 1094 2771 
z
M 2182 3629 
L 1165 3629 
L 1216 3443 
L 2573 3443 
C 2662 3443 2714 3475 2733 3546 
C 2586 3680 2368 3840 2368 3840 
L 2182 3629 
z
M 774 2522 
C 1018 2406 1286 2176 1370 1965 
C 1690 1805 1824 2458 838 2592 
L 774 2522 
z
M 358 1875 
C 602 1779 870 1568 966 1382 
C 1293 1235 1402 1894 416 1939 
L 358 1875 
z
M 2272 2400 
C 1165 954 1165 954 1043 800 
C 973 704 954 704 890 704 
L 589 704 
L 589 557 
C 698 550 781 538 870 493 
C 1005 429 1037 211 979 -269 
C 992 -397 1043 -480 1114 -480 
C 1274 -480 1350 -371 1357 -179 
C 1370 115 1261 301 1261 474 
C 1261 589 1318 710 1402 851 
C 1504 1024 2131 1952 2374 2349 
L 2272 2400 
z
M 5798 1690 
C 5888 1690 5946 1722 5965 1792 
C 5792 1952 5523 2170 5523 2170 
L 5293 1882 
L 4154 1882 
L 4154 2381 
C 4314 2400 4378 2464 4390 2554 
L 3872 2618 
L 3872 1882 
L 2150 1882 
L 2202 1690 
L 3571 1690 
C 3155 1062 2534 442 1875 -6 
L 1946 -115 
C 2707 320 3398 915 3872 1587 
L 3872 -467 
L 3930 -467 
C 4038 -467 4154 -397 4154 -346 
L 4154 1645 
C 4557 915 5229 301 5830 -51 
C 5875 83 5984 160 6106 166 
L 6118 237 
C 5485 506 4730 1056 4294 1690 
L 5798 1690 
z
M 3642 2771 
L 5216 2771 
C 5299 2771 5350 2797 5370 2867 
C 5222 3014 4986 3181 4986 3181 
L 4787 2957 
L 3597 2957 
L 3642 2771 
z
M 4646 3629 
L 3603 3629 
L 3648 3443 
L 5050 3443 
C 5139 3443 5190 3475 5210 3546 
C 5062 3680 4838 3846 4838 3846 
L 4646 3629 
z
M 5741 4499 
L 5530 4282 
L 3302 4282 
L 3302 4762 
L 5459 4762 
C 5549 4762 5606 4794 5626 4864 
C 5427 5037 5126 5267 5126 5267 
L 4864 4947 
L 928 4947 
L 986 4762 
L 3021 4762 
L 3021 4282 
L 998 4282 
C 992 4352 973 4429 954 4512 
L 832 4506 
C 864 4141 672 3814 429 3693 
C 320 3629 256 3533 301 3430 
C 358 3315 550 3334 685 3424 
C 845 3526 998 3750 1011 4090 
L 3021 4090 
L 3021 2637 
L 3059 2637 
C 3200 2637 3302 2720 3302 2746 
L 3302 4090 
L 5530 4090 
C 5459 3910 5370 3706 5299 3578 
L 5389 3526 
C 5562 3654 5779 3885 5901 4045 
C 6022 4058 6099 4064 6138 4109 
L 5741 4499 
z
" transform="scale(0.015625)"/>
      </defs>
      <use xlink:href="#NotoSerifCJKjp-ExtraLight-674e"/>
      <use xlink:href="#NotoSerifCJKjp-ExtraLight-9702" x="99.999985"/>
     </g>
    </g>
    <g clip-path="url(#p0ed0fe4fc4)">
     <!--  -->
     <g transform="translate(1776.012814 555.96) scale(0.12 -0.12)"/>
    </g>
   </g>
   <g id="text_32">
    <g clip-path="url(#p0ed0fe4fc4)">
     <!-- 李忯 -->
     <g transform="translate(1938.301986 541.32) scale(0.12 -0.12)">
      <defs>
       <path id="NotoSerifCJKjp-ExtraLight-5fef" d="M 781 4070 
C 781 3610 595 3085 410 2874 
C 314 2771 269 2637 346 2547 
C 442 2445 640 2534 736 2682 
C 890 2899 1030 3411 902 4064 
L 781 4070 
z
M 1274 5338 
L 1274 -474 
L 1331 -474 
C 1440 -474 1555 -397 1555 -339 
L 1555 5101 
C 1715 5126 1766 5190 1786 5280 
L 1274 5338 
z
M 1696 4250 
C 1869 3994 2048 3565 2061 3245 
C 2362 2963 2688 3648 1786 4288 
L 1696 4250 
z
M 2989 2912 
L 2989 4435 
C 3411 4480 3853 4557 4262 4640 
C 4269 4045 4288 3462 4339 2912 
L 2989 2912 
z
M 5440 2912 
L 4614 2912 
C 4550 3520 4538 4141 4557 4704 
C 4928 4794 5274 4883 5549 4966 
C 5683 4915 5779 4909 5830 4966 
L 5446 5293 
C 4947 5062 4026 4787 3174 4608 
L 2707 4774 
L 2707 154 
C 2451 90 2240 38 2093 6 
L 2317 -358 
C 2362 -339 2406 -288 2432 -211 
C 3392 109 4128 378 4672 582 
L 4640 685 
C 4045 518 3462 358 2989 230 
L 2989 2726 
L 4358 2726 
C 4493 1459 4806 403 5485 -173 
C 5715 -397 6003 -525 6106 -378 
C 6144 -320 6138 -256 6003 -83 
L 6086 813 
L 5997 826 
C 5939 582 5856 314 5798 179 
C 5754 58 5722 58 5632 134 
C 5062 582 4762 1606 4634 2726 
L 6022 2726 
C 6112 2726 6163 2758 6182 2822 
C 5997 3002 5702 3232 5702 3232 
L 5440 2912 
z
" transform="scale(0.015625)"/>
      </defs>
      <use xlink:href="#NotoSerifCJKjp-ExtraLight-674e"/>
      <use xlink:href="#NotoSerifCJKjp-ExtraLight-5fef" x="99.999985"/>
     </g>
    </g>
    <g clip-path="url(#p0ed0fe4fc4)">
     <!-- 西林正 -->
     <g transform="translate(1932.301986 555.96) scale(0.12 -0.12)">
      <defs>
       <path id="NotoSerifCJKjp-ExtraLight-897f" d="M 2656 3565 
L 2656 4653 
L 3590 4653 
L 3590 3565 
L 2656 3565 
z
M 5402 3373 
L 5402 371 
L 1030 371 
L 1030 3373 
L 2368 3373 
C 2342 2566 2125 1805 1082 1178 
L 1158 1088 
C 2406 1658 2624 2534 2656 3373 
L 3590 3373 
L 3590 1811 
C 3590 1587 3654 1498 3994 1498 
L 4397 1498 
C 5030 1498 5178 1549 5178 1677 
C 5178 1741 5146 1779 5037 1811 
L 5018 2662 
L 4928 2662 
C 4883 2330 4826 1920 4794 1837 
C 4774 1786 4755 1773 4710 1766 
C 4659 1760 4531 1760 4378 1760 
L 4038 1760 
C 3891 1760 3872 1786 3872 1882 
L 3872 3373 
L 5402 3373 
z
M 3872 4653 
L 5920 4653 
C 6010 4653 6074 4685 6086 4755 
C 5888 4934 5574 5184 5574 5184 
L 5299 4845 
L 326 4845 
L 384 4653 
L 2368 4653 
L 2368 3565 
L 1101 3565 
L 749 3725 
L 749 -435 
L 787 -435 
C 934 -435 1030 -352 1030 -320 
L 1030 186 
L 5402 186 
L 5402 -416 
L 5440 -416 
C 5562 -416 5683 -333 5683 -307 
L 5683 3341 
C 5818 3360 5894 3398 5939 3450 
L 5536 3763 
L 5376 3565 
L 3872 3565 
L 3872 4653 
z
" transform="scale(0.015625)"/>
       <path id="NotoSerifCJKjp-ExtraLight-6797" d="M 1811 3699 
L 2797 3699 
C 2886 3699 2950 3731 2963 3802 
C 2778 3981 2483 4211 2483 4211 
L 2221 3891 
L 1811 3891 
L 1811 5094 
C 1965 5120 2016 5178 2035 5274 
L 1523 5331 
L 1523 3891 
L 288 3891 
L 339 3699 
L 1459 3699 
C 1222 2618 813 1523 218 691 
L 314 608 
C 851 1242 1248 1997 1523 2816 
L 1523 -454 
L 1587 -454 
C 1690 -454 1811 -384 1811 -326 
L 1811 3014 
C 2099 2739 2451 2323 2560 2016 
C 2938 1779 3149 2566 1811 3142 
L 1811 3699 
z
M 6016 3706 
C 6106 3706 6163 3738 6176 3808 
C 5990 3994 5683 4230 5683 4230 
L 5414 3898 
L 4582 3898 
L 4582 5088 
C 4742 5114 4794 5178 4813 5267 
L 4301 5325 
L 4301 3898 
L 2982 3898 
L 3034 3706 
L 4102 3706 
C 3776 2534 3149 1408 2266 595 
L 2355 499 
C 3270 1235 3910 2189 4301 3283 
L 4301 -454 
L 4358 -454 
C 4461 -454 4582 -384 4582 -326 
L 4582 3494 
C 4838 2349 5344 1222 6016 550 
C 6048 685 6131 787 6272 826 
L 6291 890 
C 5549 1491 4954 2618 4691 3706 
L 6016 3706 
z
" transform="scale(0.015625)"/>
       <path id="NotoSerifCJKjp-ExtraLight-6b63" d="M 5325 19 
L 3373 19 
L 3373 2374 
L 5402 2374 
C 5491 2374 5555 2406 5574 2477 
C 5370 2662 5056 2906 5056 2906 
L 4781 2566 
L 3373 2566 
L 3373 4589 
L 5741 4589 
C 5830 4589 5888 4621 5907 4691 
C 5709 4877 5382 5126 5382 5126 
L 5101 4781 
L 518 4781 
L 576 4589 
L 3091 4589 
L 3091 19 
L 1594 19 
L 1594 2989 
C 1747 3014 1811 3078 1830 3168 
L 1312 3226 
L 1312 19 
L 294 19 
L 352 -173 
L 5965 -173 
C 6054 -173 6112 -141 6131 -70 
C 5926 122 5606 365 5606 365 
L 5325 19 
z
" transform="scale(0.015625)"/>
      </defs>
      <use xlink:href="#NotoSerifCJKjp-ExtraLight-897f"/>
      <use xlink:href="#NotoSerifCJKjp-ExtraLight-6797" x="99.999985"/>
      <use xlink:href="#NotoSerifCJKjp-ExtraLight-6b63" x="199.999969"/>
     </g>
    </g>
   </g>
  </g>
 </g>
 <defs>
  <clipPath id="p0ed0fe4fc4">
   <rect x="360" y="129.6" width="2232" height="831.6"/>
  </clipPath>
 </defs>
</svg>
