<?xml version="1.0" encoding="utf-8" standalone="no"?>
<!DOCTYPE svg PUBLIC "-//W3C//DTD SVG 1.1//EN"
  "http://www.w3.org/Graphics/SVG/1.1/DTD/svg11.dtd">
<svg xmlns:xlink="http://www.w3.org/1999/xlink" width="2880pt" height="1080pt" viewBox="0 0 2880 1080" xmlns="http://www.w3.org/2000/svg" version="1.1">
 <metadata>
  <rdf:RDF xmlns:dc="http://purl.org/dc/elements/1.1/" xmlns:cc="http://creativecommons.org/ns#" xmlns:rdf="http://www.w3.org/1999/02/22-rdf-syntax-ns#">
   <cc:Work>
    <dc:type rdf:resource="http://purl.org/dc/dcmitype/StillImage"/>
    <dc:date>2025-06-20T00:24:30.756082</dc:date>
    <dc:format>image/svg+xml</dc:format>
    <dc:creator>
     <cc:Agent>
      <dc:title>Matplotlib v3.9.4, https://matplotlib.org/</dc:title>
     </cc:Agent>
    </dc:creator>
   </cc:Work>
  </rdf:RDF>
 </metadata>
 <defs>
  <style type="text/css">*{stroke-linejoin: round; stroke-linecap: butt}</style>
 </defs>
 <g id="figure_1">
  <g id="patch_1">
   <path d="M 0 1080 
L 2880 1080 
L 2880 0 
L 0 0 
z
" style="fill: #ffffff"/>
  </g>
  <g id="axes_1">
   <g id="patch_2">
    <path d="M 799.139202 427.186595 
Q 619.03571 513.831698 485.256603 659.292919 
" clip-path="url(#p6eb5580e46)" style="fill: none; stroke: #000000; stroke-width: 2; stroke-linecap: round"/>
    <path d="M 489.436423 657.702604 
L 485.256603 659.292919 
L 486.492243 654.994874 
z
" clip-path="url(#p6eb5580e46)" style="stroke: #000000; stroke-width: 2; stroke-linecap: round"/>
   </g>
   <g id="patch_3">
    <path d="M 801.96885 430.54067 
Q 729.231578 535.104372 699.788549 656.729595 
" clip-path="url(#p6eb5580e46)" style="fill: none; stroke: #000000; stroke-width: 2; stroke-linecap: round"/>
    <path d="M 702.673538 653.312457 
L 699.788549 656.729595 
L 698.785832 652.371321 
z
" clip-path="url(#p6eb5580e46)" style="stroke: #000000; stroke-width: 2; stroke-linecap: round"/>
   </g>
   <g id="patch_4">
    <path d="M 808.941007 431.89078 
Q 838.909054 555.68979 910.368342 658.41835 
" clip-path="url(#p6eb5580e46)" style="fill: none; stroke: #000000; stroke-width: 2; stroke-linecap: round"/>
    <path d="M 909.726012 653.992583 
L 910.368342 658.41835 
L 906.442331 656.276754 
z
" clip-path="url(#p6eb5580e46)" style="stroke: #000000; stroke-width: 2; stroke-linecap: round"/>
   </g>
   <g id="patch_5">
    <path d="M 1675.954947 425.385624 
Q 1386.492938 492.089524 1144.914416 661.06854 
" clip-path="url(#p6eb5580e46)" style="fill: none; stroke: #000000; stroke-width: 2; stroke-linecap: round"/>
    <path d="M 1149.338497 660.414703 
L 1144.914416 661.06854 
L 1147.045795 657.136972 
z
" clip-path="url(#p6eb5580e46)" style="stroke: #000000; stroke-width: 2; stroke-linecap: round"/>
   </g>
   <g id="patch_6">
    <path d="M 1676.580192 427.18663 
Q 1496.480822 513.832523 1362.705818 659.292935 
" clip-path="url(#p6eb5580e46)" style="fill: none; stroke: #000000; stroke-width: 2; stroke-linecap: round"/>
    <path d="M 1366.885618 657.702568 
L 1362.705818 659.292935 
L 1363.941404 654.994874 
z
" clip-path="url(#p6eb5580e46)" style="stroke: #000000; stroke-width: 2; stroke-linecap: round"/>
   </g>
   <g id="patch_7">
    <path d="M 1679.409662 430.54067 
Q 1606.67239 535.104372 1577.229361 656.729595 
" clip-path="url(#p6eb5580e46)" style="fill: none; stroke: #000000; stroke-width: 2; stroke-linecap: round"/>
    <path d="M 1580.11435 653.312457 
L 1577.229361 656.729595 
L 1576.226643 652.371321 
z
" clip-path="url(#p6eb5580e46)" style="stroke: #000000; stroke-width: 2; stroke-linecap: round"/>
   </g>
   <g id="patch_8">
    <path d="M 1686.381819 431.89078 
Q 1716.349866 555.68979 1787.809154 658.41835 
" clip-path="url(#p6eb5580e46)" style="fill: none; stroke: #000000; stroke-width: 2; stroke-linecap: round"/>
    <path d="M 1787.166824 653.992583 
L 1787.809154 658.41835 
L 1783.883142 656.276754 
z
" clip-path="url(#p6eb5580e46)" style="stroke: #000000; stroke-width: 2; stroke-linecap: round"/>
   </g>
   <g id="patch_9">
    <path d="M 1690.231629 429.860279 
Q 1825.52014 576.966746 2003.604369 662.643408 
" clip-path="url(#p6eb5580e46)" style="fill: none; stroke: #000000; stroke-width: 2; stroke-linecap: round"/>
    <path d="M 2000.866904 659.106986 
L 2003.604369 662.643408 
L 1999.132752 662.711527 
z
" clip-path="url(#p6eb5580e46)" style="stroke: #000000; stroke-width: 2; stroke-linecap: round"/>
   </g>
   <g id="patch_10">
    <path d="M 1691.477453 428.446189 
Q 1934.887793 598.707963 2222.170355 664.91083 
" clip-path="url(#p6eb5580e46)" style="fill: none; stroke: #000000; stroke-width: 2; stroke-linecap: round"/>
    <path d="M 2218.721633 662.063671 
L 2222.170355 664.91083 
L 2217.823394 665.961512 
z
" clip-path="url(#p6eb5580e46)" style="stroke: #000000; stroke-width: 2; stroke-linecap: round"/>
   </g>
   <g id="patch_11">
    <path d="M 1691.985745 427.639308 
Q 2044.39828 620.573151 2441.327219 666.110705 
" clip-path="url(#p6eb5580e46)" style="fill: none; stroke: #000000; stroke-width: 2; stroke-linecap: round"/>
    <path d="M 2437.581239 663.66783 
L 2441.327219 666.110705 
L 2437.125331 667.641763 
z
" clip-path="url(#p6eb5580e46)" style="stroke: #000000; stroke-width: 2; stroke-linecap: round"/>
   </g>
   <g id="patch_12">
    <path d="M 2450.516135 675.83837 
Q 2429.411424 789.271951 2450.107484 900.507191 
" clip-path="url(#p6eb5580e46)" style="fill: none; stroke: #000000; stroke-width: 2; stroke-linecap: round"/>
    <path d="M 2451.342071 896.208843 
L 2450.107484 900.507191 
L 2447.409558 896.940513 
z
" clip-path="url(#p6eb5580e46)" style="stroke: #000000; stroke-width: 2; stroke-linecap: round"/>
   </g>
   <g id="patch_13">
    <path d="M 1181.694518 182.75415 
Q 974.866385 264.656215 814.852064 415.955404 
" clip-path="url(#p6eb5580e46)" style="fill: none; stroke: #000000; stroke-width: 2; stroke-linecap: round"/>
    <path d="M 819.132618 414.660469 
L 814.852064 415.955404 
L 816.384449 411.753999 
z
" clip-path="url(#p6eb5580e46)" style="stroke: #000000; stroke-width: 2; stroke-linecap: round"/>
   </g>
   <g id="patch_14">
    <path d="M 1196.640469 184.850451 
Q 1413.430774 349.491704 1673.878974 420.618819 
" clip-path="url(#p6eb5580e46)" style="fill: none; stroke: #000000; stroke-width: 2; stroke-linecap: round"/>
    <path d="M 1670.547174 417.635681 
L 1673.878974 420.618819 
L 1669.493384 421.494376 
z
" clip-path="url(#p6eb5580e46)" style="stroke: #000000; stroke-width: 2; stroke-linecap: round"/>
   </g>
   <g id="text_1">
    <g id="patch_15">
     <path d="M 645.792832 555.305992 
L 650.931104 551.497819 
Q 653.823359 549.354256 651.679796 546.462001 
L 644.105874 536.2427 
Q 641.962311 533.350445 639.070056 535.494008 
L 633.931785 539.302181 
Q 631.03953 541.445744 633.183092 544.337999 
L 640.757014 554.5573 
Q 642.900577 557.449555 645.792832 555.305992 
z
" clip-path="url(#p6eb5580e46)" style="fill: #ffffff; stroke: #ffffff; stroke-linejoin: miter"/>
    </g>
    <g clip-path="url(#p6eb5580e46)">
     <!-- 2 -->
     <g transform="translate(641.791515 549.907116) rotate(-36.543585) scale(0.12 -0.12)">
      <defs>
       <path id="NotoSerifCJKjp-ExtraLight-32" d="M 646 358 
C 1069 838 1472 1299 1645 1491 
C 2560 2515 2886 2970 2886 3520 
C 2886 4250 2458 4717 1638 4717 
C 1024 4717 486 4397 326 3821 
C 371 3725 454 3667 550 3667 
C 672 3667 755 3750 819 3949 
L 1005 4422 
C 1197 4499 1363 4525 1542 4525 
C 2144 4525 2483 4096 2483 3514 
C 2483 2995 2214 2547 1536 1715 
C 1222 1344 787 806 339 275 
L 339 0 
L 3104 0 
L 3104 358 
L 646 358 
z
" transform="scale(0.015625)"/>
      </defs>
      <use xlink:href="#NotoSerifCJKjp-ExtraLight-32"/>
     </g>
    </g>
   </g>
   <g id="text_2">
    <g id="patch_16">
     <path d="M 759.887792 552.401747 
L 762.511101 546.568886 
Q 763.987721 543.285657 760.704493 541.809037 
L 749.103751 536.591644 
Q 745.820522 535.115024 744.343901 538.398253 
L 741.720593 544.231114 
Q 740.243972 547.514343 743.527201 548.990963 
L 755.127943 554.208356 
Q 758.411172 555.684976 759.887792 552.401747 
z
" clip-path="url(#p6eb5580e46)" style="fill: #ffffff; stroke: #ffffff; stroke-linejoin: miter"/>
    </g>
    <g clip-path="url(#p6eb5580e46)">
     <!-- 3 -->
     <g transform="translate(753.759098 549.645389) rotate(-65.784337) scale(0.12 -0.12)">
      <defs>
       <path id="NotoSerifCJKjp-ExtraLight-33" d="M 1062 4435 
C 1242 4499 1408 4525 1594 4525 
C 2176 4525 2496 4166 2496 3584 
C 2496 2918 2035 2541 1402 2541 
L 1126 2541 
L 1126 2330 
L 1434 2330 
C 2234 2330 2637 1920 2637 1229 
C 2637 557 2221 102 1498 102 
C 1286 102 1107 141 941 211 
L 787 659 
C 730 845 659 928 531 928 
C 422 928 339 864 301 755 
C 461 186 928 -90 1587 -90 
C 2426 -90 3040 410 3040 1203 
C 3040 1869 2656 2330 1901 2445 
C 2541 2605 2899 3059 2899 3597 
C 2899 4262 2426 4717 1664 4717 
C 1107 4717 570 4480 429 3885 
C 461 3776 544 3731 640 3731 
C 774 3731 845 3795 909 3981 
L 1062 4435 
z
" transform="scale(0.015625)"/>
      </defs>
      <use xlink:href="#NotoSerifCJKjp-ExtraLight-33"/>
     </g>
    </g>
   </g>
   <g id="text_3">
    <g id="patch_17">
     <path d="M 851.400694 546.568886 
L 854.024003 552.401747 
Q 855.500623 555.684976 858.783852 554.208356 
L 870.384594 548.990963 
Q 873.667823 547.514343 872.191202 544.231114 
L 869.567894 538.398253 
Q 868.091273 535.115024 864.808044 536.591644 
L 853.207302 541.809037 
Q 849.924073 543.285657 851.400694 546.568886 
z
" clip-path="url(#p6eb5580e46)" style="fill: #ffffff; stroke: #ffffff; stroke-linejoin: miter"/>
    </g>
    <g clip-path="url(#p6eb5580e46)">
     <!-- 1 -->
     <g transform="translate(857.529388 543.812528) rotate(-294.215663) scale(0.12 -0.12)">
      <defs>
       <path id="NotoSerifCJKjp-ExtraLight-31" d="M 1997 250 
C 1990 659 1984 1062 1984 1459 
L 1984 3616 
L 2010 4614 
L 1914 4691 
L 614 4346 
L 614 4160 
L 1600 4333 
L 1600 1459 
C 1600 1062 1594 653 1587 250 
L 544 173 
L 544 0 
L 3002 0 
L 3002 173 
L 1997 250 
z
" transform="scale(0.015625)"/>
      </defs>
      <use xlink:href="#NotoSerifCJKjp-ExtraLight-31"/>
     </g>
    </g>
   </g>
   <g id="text_4">
    <g id="patch_18">
     <path d="M 1411.321572 555.800083 
L 1417.165425 553.201351 
Q 1420.45484 551.738564 1418.992054 548.449148 
L 1413.823541 536.826546 
Q 1412.360754 533.537131 1409.071338 534.999917 
L 1403.227486 537.598649 
Q 1399.93807 539.061436 1401.400857 542.350852 
L 1406.56937 553.973454 
Q 1408.032157 557.262869 1411.321572 555.800083 
z
" clip-path="url(#p6eb5580e46)" style="fill: #ffffff; stroke: #ffffff; stroke-linejoin: miter"/>
    </g>
    <g clip-path="url(#p6eb5580e46)">
     <!-- 4 -->
     <g transform="translate(1408.591037 549.65984) rotate(-23.974476) scale(0.12 -0.12)">
      <defs>
       <path id="NotoSerifCJKjp-ExtraLight-34" d="M 480 1805 
L 2163 4224 
L 2163 1805 
L 480 1805 
z
M 3309 1805 
L 2528 1805 
L 2528 4685 
L 2272 4685 
L 211 1747 
L 211 1510 
L 2163 1510 
L 2163 0 
L 2528 0 
L 2528 1510 
L 3309 1510 
L 3309 1805 
z
" transform="scale(0.015625)"/>
      </defs>
      <use xlink:href="#NotoSerifCJKjp-ExtraLight-34"/>
     </g>
    </g>
   </g>
   <g id="text_5">
    <g id="patch_19">
     <path d="M 1523.238069 555.30595 
L 1528.376293 551.497712 
Q 1531.268521 549.354113 1529.124922 546.461885 
L 1521.550872 536.242679 
Q 1519.407273 533.350451 1516.515045 535.49405 
L 1511.376821 539.302288 
Q 1508.484593 541.445887 1510.628192 544.338115 
L 1518.202242 554.557321 
Q 1520.345841 557.449549 1523.238069 555.30595 
z
" clip-path="url(#p6eb5580e46)" style="fill: #ffffff; stroke: #ffffff; stroke-linejoin: miter"/>
    </g>
    <g clip-path="url(#p6eb5580e46)">
     <!-- 7 -->
     <g transform="translate(1519.236684 549.907124) rotate(-36.544302) scale(0.12 -0.12)">
      <defs>
       <path id="NotoSerifCJKjp-ExtraLight-37" d="M 333 4627 
L 333 4275 
L 2758 4275 
L 941 38 
L 992 0 
L 1350 0 
L 3027 4397 
L 3027 4627 
L 333 4627 
z
" transform="scale(0.015625)"/>
      </defs>
      <use xlink:href="#NotoSerifCJKjp-ExtraLight-37"/>
     </g>
    </g>
   </g>
   <g id="text_6">
    <g id="patch_20">
     <path d="M 1637.328604 552.401747 
L 1639.951912 546.568886 
Q 1641.428533 543.285657 1638.145304 541.809037 
L 1626.544562 536.591644 
Q 1623.261333 535.115024 1621.784713 538.398253 
L 1619.161404 544.231114 
Q 1617.684784 547.514343 1620.968012 548.990963 
L 1632.568754 554.208356 
Q 1635.851983 555.684976 1637.328604 552.401747 
z
" clip-path="url(#p6eb5580e46)" style="fill: #ffffff; stroke: #ffffff; stroke-linejoin: miter"/>
    </g>
    <g clip-path="url(#p6eb5580e46)">
     <!-- 6 -->
     <g transform="translate(1631.19991 549.645389) rotate(-65.784337) scale(0.12 -0.12)">
      <defs>
       <path id="NotoSerifCJKjp-ExtraLight-36" d="M 1754 102 
C 1094 102 730 794 730 1856 
C 730 1926 730 1997 736 2061 
C 1069 2426 1402 2560 1766 2560 
C 2330 2560 2688 2150 2688 1357 
C 2688 557 2285 102 1754 102 
z
M 2963 4717 
C 1306 4512 326 3238 326 1811 
C 326 653 851 -90 1741 -90 
C 2515 -90 3091 499 3091 1408 
C 3091 2266 2611 2803 1862 2803 
C 1440 2803 1069 2630 755 2272 
C 896 3437 1645 4314 2995 4582 
L 2963 4717 
z
" transform="scale(0.015625)"/>
      </defs>
      <use xlink:href="#NotoSerifCJKjp-ExtraLight-36"/>
     </g>
    </g>
   </g>
   <g id="text_7">
    <g id="patch_21">
     <path d="M 1728.841505 546.568886 
L 1731.464814 552.401747 
Q 1732.941435 555.684976 1736.224664 554.208356 
L 1747.825406 548.990963 
Q 1751.108634 547.514343 1749.632014 544.231114 
L 1747.008705 538.398253 
Q 1745.532085 535.115024 1742.248856 536.591644 
L 1730.648114 541.809037 
Q 1727.364885 543.285657 1728.841505 546.568886 
z
" clip-path="url(#p6eb5580e46)" style="fill: #ffffff; stroke: #ffffff; stroke-linejoin: miter"/>
    </g>
    <g clip-path="url(#p6eb5580e46)">
     <!-- 3 -->
     <g transform="translate(1734.970199 543.812528) rotate(-294.215663) scale(0.12 -0.12)">
      <use xlink:href="#NotoSerifCJKjp-ExtraLight-33"/>
     </g>
    </g>
   </g>
   <g id="text_8">
    <g id="patch_22">
     <path d="M 1840.417125 551.497712 
L 1845.555349 555.30595 
Q 1848.447577 557.449549 1850.591176 554.557321 
L 1858.165226 544.338115 
Q 1860.308825 541.445887 1857.416597 539.302288 
L 1852.278373 535.49405 
Q 1849.386145 533.350451 1847.242546 536.242679 
L 1839.668496 546.461885 
Q 1837.524897 549.354113 1840.417125 551.497712 
z
" clip-path="url(#p6eb5580e46)" style="fill: #ffffff; stroke: #ffffff; stroke-linejoin: miter"/>
    </g>
    <g clip-path="url(#p6eb5580e46)">
     <!-- 2 -->
     <g transform="translate(1844.41851 546.098887) rotate(-323.455698) scale(0.12 -0.12)">
      <use xlink:href="#NotoSerifCJKjp-ExtraLight-32"/>
     </g>
    </g>
   </g>
   <g id="text_9">
    <g id="patch_23">
     <path d="M 1951.627993 553.201351 
L 1957.471846 555.800083 
Q 1960.761261 557.262869 1962.224048 553.973454 
L 1967.392561 542.350852 
Q 1968.855348 539.061436 1965.565932 537.598649 
L 1959.72208 534.999917 
Q 1956.432664 533.537131 1954.969877 536.826546 
L 1949.801364 548.449148 
Q 1948.338578 551.738564 1951.627993 553.201351 
z
" clip-path="url(#p6eb5580e46)" style="fill: #ffffff; stroke: #ffffff; stroke-linejoin: miter"/>
    </g>
    <g clip-path="url(#p6eb5580e46)">
     <!-- 5 -->
     <g transform="translate(1954.358528 547.061108) rotate(-336.025524) scale(0.12 -0.12)">
      <defs>
       <path id="NotoSerifCJKjp-ExtraLight-35" d="M 947 4275 
L 2950 4275 
L 2950 4627 
L 755 4627 
L 614 2483 
L 755 2464 
C 992 2573 1248 2624 1536 2624 
C 2208 2624 2662 2214 2662 1395 
C 2662 602 2227 102 1459 102 
C 1235 102 1062 134 896 205 
L 736 659 
C 678 851 614 922 480 922 
C 378 922 294 858 262 762 
C 397 198 858 -90 1498 -90 
C 2470 -90 3066 550 3066 1446 
C 3066 2323 2496 2854 1626 2854 
C 1344 2854 1094 2810 845 2707 
L 947 4275 
z
" transform="scale(0.015625)"/>
      </defs>
      <use xlink:href="#NotoSerifCJKjp-ExtraLight-35"/>
     </g>
    </g>
   </g>
   <g id="text_10">
    <g id="patch_24">
     <path d="M 2062.214077 553.924541 
L 2068.309588 555.860714 
Q 2071.740658 556.950557 2072.830501 553.519487 
L 2076.681278 541.396372 
Q 2077.771121 537.965302 2074.340051 536.875459 
L 2068.24454 534.939286 
Q 2064.81347 533.849443 2063.723627 537.280513 
L 2059.87285 549.403628 
Q 2058.783007 552.834698 2062.214077 553.924541 
z
" clip-path="url(#p6eb5580e46)" style="fill: #ffffff; stroke: #ffffff; stroke-linejoin: miter"/>
    </g>
    <g clip-path="url(#p6eb5580e46)">
     <!-- 1 -->
     <g transform="translate(2064.24845 547.519876) rotate(-342.378107) scale(0.12 -0.12)">
      <use xlink:href="#NotoSerifCJKjp-ExtraLight-31"/>
     </g>
    </g>
   </g>
   <g id="text_11">
    <g id="patch_25">
     <path d="M 2442.197419 786.073155 
L 2442.197419 792.46878 
Q 2442.197419 796.06878 2445.797419 796.06878 
L 2458.517419 796.06878 
Q 2462.117419 796.06878 2462.117419 792.46878 
L 2462.117419 786.073155 
Q 2462.117419 782.473155 2458.517419 782.473155 
L 2445.797419 782.473155 
Q 2442.197419 782.473155 2442.197419 786.073155 
z
" clip-path="url(#p6eb5580e46)" style="fill: #ffffff; stroke: #ffffff; stroke-linejoin: miter"/>
    </g>
    <g clip-path="url(#p6eb5580e46)">
     <!-- 1 -->
     <g transform="translate(2448.917419 786.073155) rotate(-270) scale(0.12 -0.12)">
      <use xlink:href="#NotoSerifCJKjp-ExtraLight-31"/>
     </g>
    </g>
   </g>
   <g id="text_12">
    <g id="patch_26">
     <path d="M 1001.012872 311.647408 
L 1006.406905 308.211069 
Q 1009.443124 306.276806 1007.508861 303.240587 
L 1000.674465 292.512613 
Q 998.740202 289.476393 995.703983 291.410656 
L 990.30995 294.846996 
Q 987.273731 296.781259 989.207994 299.817478 
L 996.04239 310.545452 
Q 997.976653 313.581671 1001.012872 311.647408 
z
" clip-path="url(#p6eb5580e46)" style="fill: #ffffff; stroke: #ffffff; stroke-linejoin: miter"/>
    </g>
    <g clip-path="url(#p6eb5580e46)">
     <!-- 6 -->
     <g transform="translate(997.402248 305.979799) rotate(-32.499707) scale(0.12 -0.12)">
      <use xlink:href="#NotoSerifCJKjp-ExtraLight-36"/>
     </g>
    </g>
   </g>
   <g id="text_13">
    <g id="patch_27">
     <path d="M 1429.806296 309.048195 
L 1435.542618 311.876382 
Q 1438.771505 313.468325 1440.363449 310.239437 
L 1445.988315 298.8307 
Q 1447.580258 295.601812 1444.35137 294.009869 
L 1438.615049 291.181683 
Q 1435.386161 289.589739 1433.794218 292.818627 
L 1428.169352 304.227364 
Q 1426.577409 307.456252 1429.806296 309.048195 
z
" clip-path="url(#p6eb5580e46)" style="fill: #ffffff; stroke: #ffffff; stroke-linejoin: miter"/>
    </g>
    <g clip-path="url(#p6eb5580e46)">
     <!-- 5 -->
     <g transform="translate(1432.777924 303.020938) rotate(-333.755254) scale(0.12 -0.12)">
      <use xlink:href="#NotoSerifCJKjp-ExtraLight-35"/>
     </g>
    </g>
   </g>
   <g id="matplotlib.axis_1">
    <g id="xtick_1"/>
    <g id="xtick_2"/>
    <g id="xtick_3"/>
    <g id="xtick_4"/>
    <g id="xtick_5"/>
    <g id="xtick_6"/>
   </g>
   <g id="matplotlib.axis_2">
    <g id="ytick_1"/>
    <g id="ytick_2"/>
    <g id="ytick_3"/>
    <g id="ytick_4"/>
   </g>
   <g id="PathCollection_1">
    <defs>
     <path id="md4c9c167f8" d="M 0 15 
C 3.978047 15 7.793698 13.419505 10.606602 10.606602 
C 13.419505 7.793698 15 3.978047 15 0 
C 15 -3.978047 13.419505 -7.793698 10.606602 -10.606602 
C 7.793698 -13.419505 3.978047 -15 0 -15 
C -3.978047 -15 -7.793698 -13.419505 -10.606602 -10.606602 
C -13.419505 -7.793698 -15 -3.978047 -15 0 
C -15 3.978047 -13.419505 7.793698 -10.606602 10.606602 
C -7.793698 13.419505 -3.978047 15 0 15 
z
" style="stroke: #add8e6; stroke-opacity: 0.85"/>
    </defs>
    <g clip-path="url(#p6eb5580e46)">
     <use xlink:href="#md4c9c167f8" x="806.955897" y="423.464516" style="fill: #add8e6; fill-opacity: 0.85; stroke: #add8e6; stroke-opacity: 0.85"/>
     <use xlink:href="#md4c9c167f8" x="477.906991" y="667.335484" style="fill: #add8e6; fill-opacity: 0.85; stroke: #add8e6; stroke-opacity: 0.85"/>
     <use xlink:href="#md4c9c167f8" x="697.275796" y="667.335484" style="fill: #add8e6; fill-opacity: 0.85; stroke: #add8e6; stroke-opacity: 0.85"/>
     <use xlink:href="#md4c9c167f8" x="916.635999" y="667.335484" style="fill: #add8e6; fill-opacity: 0.85; stroke: #add8e6; stroke-opacity: 0.85"/>
     <use xlink:href="#md4c9c167f8" x="1684.396709" y="423.464516" style="fill: #add8e6; fill-opacity: 0.85; stroke: #add8e6; stroke-opacity: 0.85"/>
     <use xlink:href="#md4c9c167f8" x="1135.996202" y="667.335484" style="fill: #add8e6; fill-opacity: 0.85; stroke: #add8e6; stroke-opacity: 0.85"/>
     <use xlink:href="#md4c9c167f8" x="1355.356405" y="667.335484" style="fill: #add8e6; fill-opacity: 0.85; stroke: #add8e6; stroke-opacity: 0.85"/>
     <use xlink:href="#md4c9c167f8" x="1574.716608" y="667.335484" style="fill: #add8e6; fill-opacity: 0.85; stroke: #add8e6; stroke-opacity: 0.85"/>
     <use xlink:href="#md4c9c167f8" x="1794.07681" y="667.335484" style="fill: #add8e6; fill-opacity: 0.85; stroke: #add8e6; stroke-opacity: 0.85"/>
     <use xlink:href="#md4c9c167f8" x="2013.437013" y="667.335484" style="fill: #add8e6; fill-opacity: 0.85; stroke: #add8e6; stroke-opacity: 0.85"/>
     <use xlink:href="#md4c9c167f8" x="2232.797216" y="667.335484" style="fill: #add8e6; fill-opacity: 0.85; stroke: #add8e6; stroke-opacity: 0.85"/>
     <use xlink:href="#md4c9c167f8" x="2452.157419" y="667.335484" style="fill: #add8e6; fill-opacity: 0.85; stroke: #add8e6; stroke-opacity: 0.85"/>
     <use xlink:href="#md4c9c167f8" x="2452.157419" y="911.206452" style="fill: #add8e6; fill-opacity: 0.85; stroke: #add8e6; stroke-opacity: 0.85"/>
     <use xlink:href="#md4c9c167f8" x="1189.760957" y="179.593548" style="fill: #add8e6; fill-opacity: 0.85; stroke: #add8e6; stroke-opacity: 0.85"/>
    </g>
   </g>
   <g id="text_14">
    <g clip-path="url(#p6eb5580e46)">
     <!-- 柳宗植 -->
     <g transform="translate(788.955897 419.384516) scale(0.12 -0.12)">
      <defs>
       <path id="NotoSerifCJKjp-ExtraLight-67f3" d="M 1466 3667 
L 2227 3667 
C 2317 3667 2368 3699 2387 3770 
C 2208 3942 1926 4166 1926 4166 
L 1670 3859 
L 1466 3859 
L 1466 5082 
C 1619 5107 1670 5165 1690 5261 
L 1178 5318 
L 1178 3859 
L 301 3859 
L 352 3667 
L 1075 3667 
C 928 2739 653 1837 211 1101 
L 307 1018 
C 704 1542 979 2144 1178 2797 
L 1178 -467 
L 1242 -467 
C 1344 -467 1466 -397 1466 -339 
L 1466 2944 
C 1664 2694 1907 2349 1984 2093 
C 2317 1869 2554 2522 1466 3085 
L 1466 3667 
z
M 3552 2304 
C 3552 2061 3539 1830 3507 1606 
C 3251 1504 2982 1408 2733 1318 
L 2733 4563 
C 3104 4678 3565 4845 3821 4973 
C 3917 4928 4000 4934 4038 4986 
L 3648 5254 
C 3462 5107 3149 4934 2854 4787 
L 2445 4864 
L 2445 1222 
C 2234 1158 2048 1101 1901 1069 
L 2112 704 
C 2170 730 2208 781 2227 858 
C 2720 1056 3142 1274 3482 1459 
C 3341 710 2963 83 2093 -378 
L 2176 -474 
C 3526 160 3827 1152 3834 2304 
L 3834 4179 
C 3987 4205 4038 4262 4051 4352 
L 3552 4410 
L 3552 2304 
z
M 5690 5030 
L 5523 4819 
L 4742 4819 
L 4384 4986 
L 4384 -467 
L 4422 -467 
C 4563 -467 4666 -384 4666 -352 
L 4666 4627 
L 5587 4627 
L 5587 1254 
C 5587 1165 5562 1133 5472 1133 
C 5370 1133 4934 1171 4934 1171 
L 4934 1075 
C 5133 1050 5254 1011 5318 966 
C 5382 915 5408 832 5421 755 
C 5824 800 5869 960 5869 1222 
L 5869 4563 
C 5997 4589 6106 4640 6144 4691 
L 5690 5030 
z
" transform="scale(0.015625)"/>
       <path id="NotoSerifCJKjp-ExtraLight-5b97" d="M 5466 4250 
C 5376 4019 5254 3725 5158 3546 
L 5248 3494 
C 5453 3674 5722 3987 5862 4198 
C 5984 4205 6061 4218 6106 4262 
L 5690 4672 
L 5459 4442 
L 3334 4442 
L 3334 5120 
C 3488 5139 3558 5203 3571 5293 
L 3053 5350 
L 3053 4442 
L 1146 4442 
C 1139 4544 1120 4659 1088 4781 
L 966 4774 
C 1011 4307 787 3891 512 3731 
C 410 3661 339 3552 397 3456 
C 461 3341 666 3379 800 3482 
C 966 3603 1139 3853 1152 4250 
L 5466 4250 
z
M 1402 3386 
L 1453 3194 
L 4883 3194 
C 4973 3194 5030 3226 5050 3296 
C 4864 3469 4563 3680 4563 3680 
L 4307 3386 
L 1402 3386 
z
M 1754 1542 
C 1478 992 877 275 250 -154 
L 314 -237 
C 1030 134 1664 755 1997 1254 
C 2144 1222 2195 1248 2240 1318 
L 1754 1542 
z
M 4179 1446 
C 4723 1062 5427 365 5606 -173 
C 6042 -448 6176 627 4256 1510 
L 4179 1446 
z
M 5299 2291 
L 326 2291 
L 384 2099 
L 3053 2099 
L 3053 38 
C 3053 -51 3021 -83 2893 -83 
C 2765 -83 2099 -38 2099 -38 
L 2099 -141 
C 2381 -166 2560 -198 2656 -256 
C 2733 -301 2778 -384 2778 -467 
C 3264 -410 3334 -224 3334 32 
L 3334 2099 
L 5920 2099 
C 6010 2099 6074 2131 6086 2202 
C 5882 2374 5574 2605 5574 2605 
L 5299 2291 
z
" transform="scale(0.015625)"/>
       <path id="NotoSerifCJKjp-ExtraLight-690d" d="M 5331 3494 
L 5331 2829 
L 3738 2829 
L 3738 3494 
L 5331 3494 
z
M 3738 1094 
L 3738 1760 
L 5331 1760 
L 5331 1094 
L 3738 1094 
z
M 5331 1946 
L 3738 1946 
L 3738 2643 
L 5331 2643 
L 5331 1946 
z
M 2477 4333 
L 4160 4333 
C 4147 4096 4141 3866 4134 3680 
L 3814 3680 
L 3462 3846 
L 3462 525 
L 3501 525 
C 3642 525 3738 602 3738 634 
L 3738 909 
L 5331 909 
L 5331 646 
L 5376 646 
C 5491 646 5619 723 5619 749 
L 5619 3469 
C 5747 3488 5818 3526 5862 3578 
L 5472 3878 
L 5312 3680 
L 4384 3680 
C 4403 3872 4422 4102 4435 4333 
L 5971 4333 
C 6061 4333 6125 4365 6138 4435 
C 5952 4608 5651 4845 5651 4845 
L 5389 4518 
L 4448 4518 
C 4467 4730 4480 4934 4486 5120 
C 4614 5139 4685 5203 4691 5286 
L 4179 5325 
C 4179 5082 4173 4794 4160 4518 
L 2426 4518 
L 2477 4333 
z
M 1818 3872 
L 1581 3872 
L 1581 5094 
C 1741 5120 1792 5178 1811 5274 
L 1299 5331 
L 1299 3872 
L 294 3872 
L 346 3680 
L 1216 3680 
C 1043 2733 730 1818 230 1088 
L 320 992 
C 762 1510 1082 2112 1299 2771 
L 1299 -454 
L 1363 -454 
C 1466 -454 1581 -384 1581 -326 
L 1581 2970 
C 1798 2707 2061 2342 2157 2080 
C 2477 1862 2707 2515 1581 3098 
L 1581 3680 
L 2394 3680 
C 2483 3680 2541 3712 2560 3782 
C 2368 3962 2074 4192 2074 4192 
L 1818 3872 
z
M 5517 122 
L 2861 122 
L 2861 3315 
C 3021 3334 3078 3398 3098 3488 
L 2579 3552 
L 2579 -435 
L 2637 -435 
C 2746 -435 2861 -365 2861 -307 
L 2861 -70 
L 6099 -70 
C 6182 -70 6240 -38 6259 32 
C 6074 211 5773 442 5773 442 
L 5517 122 
z
" transform="scale(0.015625)"/>
      </defs>
      <use xlink:href="#NotoSerifCJKjp-ExtraLight-67f3"/>
      <use xlink:href="#NotoSerifCJKjp-ExtraLight-5b97" x="99.999985"/>
      <use xlink:href="#NotoSerifCJKjp-ExtraLight-690d" x="199.999969"/>
     </g>
    </g>
    <g clip-path="url(#p6eb5580e46)">
     <!-- 檢參判 -->
     <g transform="translate(788.955897 434.024516) scale(0.12 -0.12)">
      <defs>
       <path id="NotoSerifCJKjp-ExtraLight-6aa2" d="M 1478 3674 
L 2240 3674 
C 2330 3674 2381 3706 2400 3776 
C 2221 3949 1939 4173 1939 4173 
L 1683 3866 
L 1478 3866 
L 1478 5088 
C 1632 5114 1683 5171 1702 5267 
L 1190 5325 
L 1190 3866 
L 314 3866 
L 365 3674 
L 1088 3674 
C 941 2746 666 1843 224 1107 
L 320 1024 
C 717 1549 992 2150 1190 2803 
L 1190 -461 
L 1254 -461 
C 1357 -461 1478 -390 1478 -333 
L 1478 2886 
C 1677 2643 1920 2298 1997 2035 
C 2330 1811 2566 2464 1478 3027 
L 1478 3674 
z
M 3066 1357 
C 2893 768 2490 45 1939 -371 
L 2003 -467 
C 2432 -211 2784 166 3027 550 
C 3245 378 3462 122 3533 -96 
C 3853 -288 4038 352 3098 659 
C 3187 813 3258 960 3315 1101 
C 3475 1088 3520 1120 3552 1190 
L 3066 1357 
z
M 4544 1786 
L 4544 2688 
L 5434 2688 
L 5434 1786 
L 4544 1786 
z
M 5472 1363 
C 5568 1363 5715 1440 5722 1478 
L 5722 2662 
C 5811 2675 5901 2720 5933 2765 
L 5555 3053 
L 5382 2874 
L 4576 2874 
L 4262 3027 
L 4262 1286 
L 4307 1286 
C 4429 1286 4544 1357 4544 1382 
L 4544 1594 
L 5434 1594 
L 5434 1363 
L 5472 1363 
z
M 4422 3610 
L 2989 3610 
L 3040 3418 
L 4890 3418 
C 4979 3418 5037 3450 5050 3520 
C 4890 3674 4640 3878 4640 3878 
L 4422 3610 
z
M 3520 2688 
L 3520 1786 
L 2720 1786 
L 2720 2688 
L 3520 2688 
z
M 2432 3027 
L 2432 1286 
L 2477 1286 
C 2598 1286 2720 1357 2720 1382 
L 2720 1594 
L 3520 1594 
L 3520 1363 
L 3558 1363 
C 3648 1363 3795 1440 3802 1478 
L 3802 2662 
C 3898 2675 3987 2720 4019 2765 
L 3635 3053 
L 3469 2874 
L 2752 2874 
L 2432 3027 
z
M 4870 1357 
C 4704 723 4288 0 3674 -403 
L 3731 -499 
C 4205 -262 4570 122 4826 518 
C 5184 256 5606 -147 5747 -454 
C 6118 -653 6246 109 4896 627 
C 4992 787 5069 954 5133 1107 
C 5286 1101 5331 1133 5357 1203 
L 4870 1357 
z
M 3757 5350 
C 3475 4608 2714 3725 1952 3264 
L 2003 3162 
C 2854 3584 3654 4307 4070 5050 
C 4448 4301 5139 3648 5901 3206 
C 5939 3341 6035 3443 6176 3482 
L 6182 3571 
C 5382 3904 4627 4480 4173 5120 
C 4320 5133 4378 5158 4397 5229 
L 3757 5350 
z
" transform="scale(0.015625)"/>
       <path id="NotoSerifCJKjp-ExtraLight-53c3" d="M 3552 4973 
C 3859 4864 4237 4678 4563 4467 
C 3699 4448 2867 4429 2182 4416 
C 2400 4627 2611 4877 2752 5088 
C 2880 5082 2963 5139 2995 5210 
L 2458 5363 
C 2349 5069 2157 4698 1971 4410 
C 1466 4403 1050 4403 762 4403 
L 1011 3955 
C 1069 3968 1126 4006 1165 4077 
C 2752 4173 3917 4256 4762 4326 
C 4947 4192 5101 4058 5197 3923 
C 5645 3782 5542 4710 3603 5062 
L 3552 4973 
z
M 960 -474 
C 2579 -288 3891 38 5075 1062 
C 5229 1018 5299 1030 5338 1088 
L 4915 1370 
C 3789 269 2477 -96 928 -339 
L 960 -474 
z
M 1024 992 
C 1920 1299 2790 1760 3437 2342 
C 3571 2310 3622 2323 3667 2374 
L 3258 2624 
C 2643 1971 1786 1466 954 1107 
L 1024 992 
z
M 1248 333 
C 2368 621 3411 1056 4230 1741 
C 4371 1702 4435 1715 4474 1773 
L 4070 2029 
C 3277 1267 2253 794 1190 461 
L 1248 333 
z
M 4986 3546 
C 5094 3456 5216 3334 5318 3206 
C 4966 3181 4621 3155 4339 3142 
C 4512 3360 4678 3610 4787 3814 
C 4922 3814 4998 3872 5024 3949 
L 4544 4064 
C 4454 3782 4294 3405 4141 3130 
C 4013 3123 3904 3117 3821 3117 
L 3923 2944 
C 3712 3098 3520 3264 3354 3437 
C 3520 3456 3584 3482 3597 3552 
L 3040 3686 
C 2899 3456 2701 3226 2464 2995 
C 2432 3149 2266 3360 1830 3514 
L 1754 3462 
C 1856 3373 1965 3258 2061 3136 
C 1747 3104 1446 3085 1178 3066 
C 1357 3296 1530 3558 1632 3776 
C 1766 3770 1850 3827 1875 3904 
L 1408 4026 
C 1312 3725 1146 3341 979 3046 
C 781 3034 614 3027 493 3021 
L 685 2650 
C 742 2669 794 2701 826 2778 
C 1395 2867 1830 2950 2138 3014 
C 2176 2950 2208 2886 2227 2829 
C 2240 2822 2253 2816 2259 2810 
C 1702 2323 973 1862 243 1555 
L 275 1453 
C 1510 1888 2637 2662 3238 3373 
C 3770 2618 4742 1984 5850 1555 
C 5888 1677 6003 1766 6150 1798 
L 6163 1894 
C 5414 2099 4704 2419 4134 2797 
C 4147 2816 4166 2835 4179 2867 
C 4710 2950 5114 3027 5414 3078 
C 5510 2944 5587 2803 5619 2675 
C 5933 2451 6144 3149 5062 3603 
L 4986 3546 
z
" transform="scale(0.015625)"/>
       <path id="NotoSerifCJKjp-ExtraLight-5224" d="M 3315 4998 
C 3110 4467 2829 3878 2624 3507 
L 2726 3443 
C 3008 3763 3328 4250 3597 4678 
C 3718 4666 3795 4717 3827 4787 
L 3315 4998 
z
M 467 4909 
C 691 4557 992 3981 1030 3565 
C 1344 3277 1600 4051 557 4947 
L 467 4909 
z
M 3219 1818 
L 2195 1818 
L 2195 2976 
L 3635 2976 
C 3718 2976 3782 3008 3795 3078 
C 3622 3245 3347 3469 3347 3469 
L 3104 3168 
L 2195 3168 
L 2195 5075 
C 2355 5101 2400 5165 2419 5254 
L 1914 5312 
L 1914 3168 
L 435 3168 
L 486 2976 
L 1914 2976 
L 1914 1818 
L 230 1818 
L 275 1626 
L 1914 1626 
L 1914 -467 
L 1965 -467 
C 2074 -467 2195 -397 2195 -339 
L 2195 1626 
L 3789 1626 
C 3878 1626 3936 1658 3955 1728 
C 3770 1907 3475 2131 3475 2131 
L 3219 1818 
z
M 4179 4774 
L 4179 755 
L 4237 755 
C 4346 755 4461 832 4461 883 
L 4461 4538 
C 4621 4557 4678 4621 4698 4710 
L 4179 4774 
z
M 5498 5210 
L 5498 83 
C 5498 -26 5459 -70 5325 -70 
C 5197 -70 4493 -13 4493 -13 
L 4493 -115 
C 4787 -154 4966 -186 5069 -243 
C 5152 -301 5190 -384 5216 -474 
C 5722 -416 5779 -224 5779 51 
L 5779 4973 
C 5933 4992 5997 5056 6016 5146 
L 5498 5210 
z
" transform="scale(0.015625)"/>
      </defs>
      <use xlink:href="#NotoSerifCJKjp-ExtraLight-6aa2"/>
      <use xlink:href="#NotoSerifCJKjp-ExtraLight-53c3" x="99.999985"/>
      <use xlink:href="#NotoSerifCJKjp-ExtraLight-5224" x="199.999969"/>
     </g>
    </g>
   </g>
   <g id="text_15">
    <g clip-path="url(#p6eb5580e46)">
     <!-- 李義坤 -->
     <g transform="translate(459.906991 663.255484) scale(0.12 -0.12)">
      <defs>
       <path id="NotoSerifCJKjp-ExtraLight-674e" d="M 5312 1280 
L 3341 1280 
L 3341 1574 
C 3462 1594 3520 1626 3552 1690 
C 3955 1830 4518 2054 4813 2259 
C 4941 2266 5030 2272 5082 2310 
L 4710 2669 
L 4499 2464 
L 1427 2464 
L 1485 2278 
L 4333 2278 
C 4064 2093 3686 1888 3424 1754 
L 3059 1798 
L 3059 1280 
L 314 1280 
L 371 1088 
L 3059 1088 
L 3059 64 
C 3059 -32 3027 -70 2899 -70 
C 2771 -70 2074 -19 2074 -19 
L 2074 -122 
C 2362 -154 2541 -192 2637 -243 
C 2726 -301 2765 -384 2778 -474 
C 3283 -416 3341 -237 3341 38 
L 3341 1088 
L 5926 1088 
C 6016 1088 6074 1120 6093 1190 
C 5894 1376 5587 1613 5587 1613 
L 5312 1280 
z
M 5850 4186 
C 5939 4186 5997 4218 6016 4288 
C 5818 4467 5504 4717 5504 4717 
L 5229 4378 
L 3322 4378 
L 3322 5107 
C 3482 5133 3546 5190 3558 5280 
L 3040 5338 
L 3040 4378 
L 403 4378 
L 461 4186 
L 2656 4186 
C 2061 3494 1152 2816 218 2355 
L 282 2253 
C 1363 2694 2368 3366 3040 4147 
L 3040 2662 
L 3098 2662 
C 3200 2662 3322 2733 3322 2778 
L 3322 4186 
L 3386 4186 
C 3942 3424 5011 2707 5901 2323 
C 5952 2451 6054 2534 6182 2541 
L 6195 2611 
C 5312 2906 4179 3533 3578 4186 
L 5850 4186 
z
" transform="scale(0.015625)"/>
       <path id="NotoSerifCJKjp-ExtraLight-7fa9" d="M 365 3091 
L 422 2899 
L 5901 2899 
C 5990 2899 6054 2931 6067 3002 
C 5882 3174 5594 3398 5594 3398 
L 5331 3091 
L 3328 3091 
L 3328 3629 
L 5440 3629 
C 5530 3629 5587 3661 5606 3731 
C 5427 3898 5152 4102 5152 4102 
L 4909 3821 
L 3328 3821 
L 3328 4346 
L 5715 4346 
C 5798 4346 5862 4378 5875 4448 
C 5696 4614 5402 4838 5402 4838 
L 5152 4531 
L 3923 4531 
C 4128 4698 4352 4890 4493 5043 
C 4621 5024 4710 5069 4749 5139 
L 4230 5350 
C 4102 5101 3898 4774 3725 4531 
L 2560 4531 
C 2726 4653 2643 5114 1805 5306 
L 1734 5254 
C 1965 5088 2253 4781 2342 4538 
L 2355 4531 
L 570 4531 
L 627 4346 
L 3046 4346 
L 3046 3821 
L 883 3821 
L 941 3629 
L 3046 3629 
L 3046 3091 
L 365 3091 
z
M 4314 2675 
C 4557 2502 4877 2195 4986 1965 
C 5299 1792 5466 2413 4384 2739 
L 4314 2675 
z
M 6048 442 
L 5958 461 
C 5914 294 5837 64 5779 -45 
C 5741 -115 5702 -122 5574 -83 
C 5120 38 4794 275 4557 576 
C 4832 781 5062 998 5229 1216 
C 5370 1184 5427 1203 5472 1267 
L 5043 1491 
C 4890 1248 4672 1011 4410 781 
C 4256 1024 4154 1299 4083 1574 
L 5933 1574 
C 6022 1574 6086 1606 6099 1677 
C 5914 1850 5626 2067 5626 2067 
L 5363 1766 
L 4038 1766 
C 3981 2048 3949 2323 3930 2579 
C 4045 2598 4102 2662 4115 2739 
L 3622 2784 
C 3642 2451 3680 2099 3757 1766 
L 2214 1766 
L 2214 2362 
C 2522 2406 2803 2451 3046 2496 
C 3162 2438 3258 2432 3309 2477 
L 3002 2778 
C 2438 2618 1382 2419 531 2342 
L 563 2214 
C 1011 2234 1485 2272 1933 2330 
L 1933 1766 
L 307 1766 
L 365 1574 
L 1933 1574 
L 1933 986 
C 1229 864 621 762 262 717 
L 499 365 
C 550 384 602 429 627 506 
C 1107 595 1542 691 1933 781 
L 1933 51 
C 1933 -38 1901 -70 1779 -70 
C 1651 -70 1011 -26 1011 -26 
L 1011 -128 
C 1286 -160 1459 -192 1542 -250 
C 1619 -301 1664 -390 1670 -474 
C 2150 -422 2214 -218 2214 45 
L 2214 845 
C 2675 954 3072 1056 3405 1146 
L 3386 1261 
C 2989 1184 2592 1107 2214 1037 
L 2214 1574 
L 3802 1574 
C 3891 1229 4013 902 4198 614 
C 3750 262 3206 -45 2656 -243 
L 2707 -346 
C 3302 -173 3872 102 4339 416 
C 4614 64 4998 -211 5523 -365 
C 5824 -467 6080 -512 6131 -390 
C 6157 -333 6099 -250 5978 -173 
L 6048 442 
z
" transform="scale(0.015625)"/>
       <path id="NotoSerifCJKjp-ExtraLight-5764" d="M 1421 3341 
L 2259 3341 
C 2349 3341 2400 3373 2419 3443 
C 2240 3610 1952 3840 1952 3840 
L 1702 3533 
L 1421 3533 
L 1421 4973 
C 1574 4992 1632 5056 1651 5146 
L 1133 5210 
L 1133 3533 
L 301 3533 
L 352 3341 
L 1133 3341 
L 1133 1094 
C 736 941 403 826 218 768 
L 435 346 
C 493 371 538 435 550 512 
C 1350 909 1971 1254 2432 1498 
L 2394 1587 
C 2061 1453 1728 1325 1421 1203 
L 1421 3341 
z
M 4301 1574 
L 4301 2752 
L 5478 2752 
L 5478 1574 
L 4301 1574 
z
M 2790 1574 
L 2790 2752 
L 4019 2752 
L 4019 1574 
L 2790 1574 
z
M 4019 4102 
L 4019 2938 
L 2790 2938 
L 2790 4102 
L 4019 4102 
z
M 5478 4102 
L 5478 2938 
L 4301 2938 
L 4301 4102 
L 5478 4102 
z
M 5606 4506 
L 5414 4294 
L 4301 4294 
L 4301 5101 
C 4461 5126 4506 5190 4525 5280 
L 4019 5338 
L 4019 4294 
L 2822 4294 
L 2509 4454 
L 2509 922 
L 2560 922 
C 2688 922 2790 992 2790 1024 
L 2790 1389 
L 4019 1389 
L 4019 -474 
L 4070 -474 
C 4179 -474 4301 -397 4301 -339 
L 4301 1389 
L 5478 1389 
L 5478 954 
L 5517 954 
C 5613 954 5754 1037 5760 1075 
L 5760 4038 
C 5888 4064 5997 4115 6042 4166 
L 5606 4506 
z
" transform="scale(0.015625)"/>
      </defs>
      <use xlink:href="#NotoSerifCJKjp-ExtraLight-674e"/>
      <use xlink:href="#NotoSerifCJKjp-ExtraLight-7fa9" x="99.999985"/>
      <use xlink:href="#NotoSerifCJKjp-ExtraLight-5764" x="199.999969"/>
     </g>
    </g>
    <g clip-path="url(#p6eb5580e46)">
     <!-- 司直 -->
     <g transform="translate(465.906991 677.895484) scale(0.12 -0.12)">
      <defs>
       <path id="NotoSerifCJKjp-ExtraLight-53f8" d="M 3936 3891 
L 442 3891 
L 493 3699 
L 4512 3699 
C 4602 3699 4666 3731 4685 3802 
C 4493 3981 4198 4205 4198 4205 
L 3936 3891 
z
M 1402 1139 
L 1402 2650 
L 3475 2650 
L 3475 1139 
L 1402 1139 
z
M 3603 3046 
L 3411 2835 
L 1434 2835 
L 1120 2995 
L 1120 205 
L 1171 205 
C 1293 205 1402 269 1402 301 
L 1402 954 
L 3475 954 
L 3475 422 
L 3514 422 
C 3610 422 3750 506 3757 544 
L 3757 2586 
C 3885 2611 3994 2662 4038 2714 
L 3603 3046 
z
M 5363 5210 
L 5203 4986 
L 595 4986 
L 653 4800 
L 5267 4800 
L 5267 115 
C 5267 -6 5222 -58 5062 -58 
C 4890 -58 4019 13 4019 13 
L 4019 -90 
C 4378 -134 4595 -179 4723 -237 
C 4826 -288 4870 -365 4890 -461 
C 5491 -397 5549 -192 5549 77 
L 5549 4736 
C 5677 4755 5786 4813 5830 4864 
L 5363 5210 
z
" transform="scale(0.015625)"/>
       <path id="NotoSerifCJKjp-ExtraLight-76f4" d="M 4678 3450 
L 4678 2771 
L 2362 2771 
L 2362 3450 
L 4678 3450 
z
M 2362 1005 
L 2362 1709 
L 4678 1709 
L 4678 1005 
L 2362 1005 
z
M 2362 2586 
L 4678 2586 
L 4678 1901 
L 2362 1901 
L 2362 2586 
z
M 2400 3635 
L 2086 3802 
L 2086 518 
L 2138 518 
C 2259 518 2362 589 2362 627 
L 2362 813 
L 4678 813 
L 4678 538 
L 4717 538 
C 4813 538 4954 621 4960 659 
L 4960 3386 
C 5088 3411 5197 3462 5242 3514 
L 4806 3853 
L 4614 3635 
L 3302 3635 
L 3360 4307 
L 5818 4307 
C 5907 4307 5971 4339 5990 4410 
C 5786 4595 5466 4845 5466 4845 
L 5184 4493 
L 3373 4493 
L 3424 5126 
C 3546 5146 3616 5210 3622 5293 
L 3123 5331 
C 3117 5075 3104 4781 3085 4493 
L 390 4493 
L 448 4307 
L 3078 4307 
C 3066 4058 3046 3821 3034 3635 
L 2400 3635 
z
M 5325 109 
L 1107 109 
L 1107 3290 
C 1267 3309 1325 3373 1344 3462 
L 826 3526 
L 826 -461 
L 883 -461 
C 992 -461 1107 -390 1107 -333 
L 1107 -83 
L 5965 -83 
C 6054 -83 6118 -51 6138 19 
C 5933 211 5613 454 5613 454 
L 5325 109 
z
" transform="scale(0.015625)"/>
      </defs>
      <use xlink:href="#NotoSerifCJKjp-ExtraLight-53f8"/>
      <use xlink:href="#NotoSerifCJKjp-ExtraLight-76f4" x="99.999985"/>
     </g>
    </g>
   </g>
   <g id="text_16">
    <g clip-path="url(#p6eb5580e46)">
     <!-- 延井渫 -->
     <g transform="translate(679.275796 663.255484) scale(0.12 -0.12)">
      <defs>
       <path id="NotoSerifCJKjp-ExtraLight-5ef6" d="M 4077 1043 
L 3181 1043 
L 3181 3379 
C 3328 3405 3398 3469 3411 3558 
L 2893 3616 
L 2893 1043 
L 2182 1043 
L 2234 851 
L 5920 851 
C 6010 851 6074 883 6093 954 
C 5888 1139 5574 1389 5574 1389 
L 5293 1043 
L 4365 1043 
L 4365 2944 
L 5792 2944 
C 5882 2944 5946 2976 5965 3046 
C 5766 3226 5459 3469 5459 3469 
L 5190 3136 
L 4365 3136 
L 4365 4704 
C 4806 4794 5203 4902 5530 4998 
C 5670 4941 5766 4941 5818 4992 
L 5427 5331 
C 4774 5037 3494 4691 2426 4531 
L 2458 4410 
C 2995 4454 3558 4538 4077 4640 
L 4077 1043 
z
M 1952 3238 
L 1754 3034 
L 1050 3034 
C 1382 3590 1722 4198 1920 4570 
C 2061 4582 2189 4608 2240 4653 
L 1843 5018 
L 1645 4819 
L 422 4819 
L 480 4627 
L 1613 4627 
C 1318 4038 851 3181 454 2528 
C 563 2470 646 2464 717 2470 
L 941 2842 
L 1792 2842 
C 1722 2202 1594 1581 1344 1024 
C 1146 1312 979 1677 838 2144 
L 730 2093 
C 883 1581 1056 1171 1267 851 
C 1030 384 704 -38 243 -378 
L 307 -474 
C 806 -166 1158 211 1421 634 
C 2035 -128 2912 -301 4262 -301 
L 5914 -301 
C 5933 -173 6010 -96 6144 -77 
L 6144 19 
C 5677 6 4730 6 4294 6 
C 2989 6 2118 134 1517 806 
C 1843 1414 1997 2106 2093 2810 
C 2227 2822 2291 2842 2336 2893 
L 1952 3238 
z
" transform="scale(0.015625)"/>
       <path id="NotoSerifCJKjp-ExtraLight-4e95" d="M 2336 2112 
C 2349 2259 2355 2413 2355 2573 
L 2355 3725 
L 4096 3725 
L 4096 2112 
L 2336 2112 
z
M 5363 2112 
L 4384 2112 
L 4384 3725 
L 5773 3725 
C 5862 3725 5926 3757 5946 3827 
C 5747 4013 5440 4250 5440 4250 
L 5171 3917 
L 4384 3917 
L 4384 5075 
C 4538 5101 4589 5165 4608 5254 
L 4096 5312 
L 4096 3917 
L 2355 3917 
L 2355 5069 
C 2509 5094 2560 5158 2573 5248 
L 2067 5299 
L 2067 3917 
L 525 3917 
L 582 3725 
L 2067 3725 
L 2067 2573 
C 2067 2413 2061 2259 2054 2112 
L 307 2112 
L 365 1926 
L 2035 1926 
C 1939 954 1581 179 678 -397 
L 755 -493 
C 1805 96 2208 922 2323 1926 
L 4096 1926 
L 4096 -467 
L 4154 -467 
C 4262 -467 4384 -397 4384 -339 
L 4384 1926 
L 5997 1926 
C 6086 1926 6144 1952 6163 2022 
C 5965 2214 5651 2458 5651 2458 
L 5363 2112 
z
" transform="scale(0.015625)"/>
       <path id="NotoSerifCJKjp-ExtraLight-6e2b" d="M 4736 4147 
L 4736 3533 
L 3955 3533 
L 3955 4147 
L 4736 4147 
z
M 1933 4147 
L 2618 4147 
L 2618 2189 
L 2675 2189 
C 2778 2189 2899 2266 2899 2317 
L 2899 2534 
L 5843 2534 
C 5933 2534 5990 2566 6010 2637 
C 5818 2810 5523 3046 5523 3046 
L 5267 2726 
L 2899 2726 
L 2899 4147 
L 3667 4147 
L 3667 2995 
L 3725 2995 
C 3834 2995 3955 3072 3955 3117 
L 3955 3341 
L 4736 3341 
L 4736 3027 
L 4794 3027 
C 4896 3027 5018 3098 5018 3149 
L 5018 4147 
L 6016 4147 
C 6106 4147 6157 4179 6176 4250 
C 5990 4429 5696 4659 5696 4659 
L 5434 4339 
L 5018 4339 
L 5018 5094 
C 5178 5120 5242 5178 5254 5267 
L 4736 5325 
L 4736 4339 
L 3955 4339 
L 3955 5094 
C 4109 5120 4173 5178 4186 5267 
L 3667 5325 
L 3667 4339 
L 2899 4339 
L 2899 5101 
C 3059 5120 3117 5184 3136 5274 
L 2618 5331 
L 2618 4339 
L 1882 4339 
L 1933 4147 
z
M 678 5197 
C 973 5024 1331 4691 1453 4429 
C 1830 4237 1978 5005 742 5261 
L 678 5197 
z
M 256 3686 
C 538 3539 870 3238 973 2995 
C 1350 2803 1498 3584 314 3750 
L 256 3686 
z
M 1971 3910 
C 915 1626 915 1626 806 1421 
C 742 1293 723 1293 659 1293 
L 371 1293 
L 371 1146 
C 512 1133 602 1120 678 1062 
C 813 973 858 506 781 -154 
C 781 -346 819 -467 928 -467 
C 1094 -467 1184 -320 1197 -64 
C 1222 435 1082 768 1082 1030 
C 1082 1178 1120 1357 1178 1530 
C 1267 1798 1824 3155 2099 3872 
L 1971 3910 
z
M 5965 1504 
C 6054 1504 6118 1530 6138 1600 
C 5946 1779 5651 2010 5651 2010 
L 5382 1690 
L 4038 1690 
L 4038 2163 
C 4198 2182 4262 2246 4275 2336 
L 3757 2394 
L 3757 1690 
L 1894 1690 
L 1939 1504 
L 3482 1504 
C 3040 870 2355 288 1581 -128 
L 1658 -237 
C 2515 147 3251 685 3757 1344 
L 3757 -461 
L 3814 -461 
C 3923 -461 4038 -384 4038 -339 
L 4038 1453 
C 4448 691 5126 122 5882 -186 
C 5920 -38 6035 58 6176 77 
L 6182 147 
C 5414 365 4621 870 4173 1504 
L 5965 1504 
z
" transform="scale(0.015625)"/>
      </defs>
      <use xlink:href="#NotoSerifCJKjp-ExtraLight-5ef6"/>
      <use xlink:href="#NotoSerifCJKjp-ExtraLight-4e95" x="99.999985"/>
      <use xlink:href="#NotoSerifCJKjp-ExtraLight-6e2b" x="199.999969"/>
     </g>
    </g>
    <g clip-path="url(#p6eb5580e46)">
     <!-- 上護軍 -->
     <g transform="translate(679.275796 677.895484) scale(0.12 -0.12)">
      <defs>
       <path id="NotoSerifCJKjp-ExtraLight-4e0a" d="M 5318 51 
L 3162 51 
L 3162 2803 
L 5421 2803 
C 5510 2803 5568 2835 5587 2906 
C 5389 3091 5075 3334 5075 3334 
L 4800 2995 
L 3162 2995 
L 3162 5043 
C 3309 5069 3366 5133 3386 5222 
L 2874 5286 
L 2874 51 
L 288 51 
L 346 -141 
L 5939 -141 
C 6035 -141 6093 -109 6112 -38 
C 5914 147 5594 390 5594 390 
L 5318 51 
z
" transform="scale(0.015625)"/>
       <path id="NotoSerifCJKjp-ExtraLight-8b77" d="M 4096 3200 
L 3110 3200 
L 3110 3610 
L 4096 3610 
L 4096 3200 
z
M 4096 2592 
L 3110 2592 
L 3110 3014 
L 4096 3014 
L 4096 2592 
z
M 4096 1965 
L 3110 1965 
L 3110 2400 
L 4096 2400 
L 4096 1965 
z
M 2470 4627 
L 3373 4627 
L 3373 4314 
L 3162 4403 
C 2925 3782 2573 3174 2259 2790 
L 2355 2726 
C 2515 2867 2682 3046 2835 3245 
L 2835 1466 
L 2874 1466 
C 3008 1466 3110 1542 3110 1574 
L 3110 1779 
L 5894 1779 
C 5984 1779 6042 1811 6061 1882 
C 5888 2042 5626 2253 5626 2253 
L 5389 1965 
L 4384 1965 
L 4384 2400 
L 5555 2400 
C 5638 2400 5696 2432 5715 2502 
C 5542 2656 5293 2835 5293 2835 
L 5069 2592 
L 4384 2592 
L 4384 3014 
L 5542 3014 
C 5632 3014 5690 3046 5709 3117 
C 5536 3264 5293 3450 5293 3450 
L 5069 3200 
L 4384 3200 
L 4384 3610 
L 5702 3610 
C 5786 3610 5843 3642 5856 3712 
C 5702 3872 5440 4077 5440 4077 
L 5216 3802 
L 4294 3802 
C 4365 3898 4435 4000 4480 4083 
C 4608 4083 4691 4134 4710 4218 
L 4218 4326 
C 4186 4186 4134 3968 4096 3802 
L 3213 3802 
C 3270 3904 3328 4006 3379 4109 
C 3514 4090 3590 4147 3616 4211 
L 3450 4282 
C 3552 4288 3654 4352 3654 4397 
L 3654 4627 
L 4717 4627 
L 4717 4282 
L 4774 4282 
C 4877 4282 4998 4352 4998 4397 
L 4998 4627 
L 5971 4627 
C 6054 4627 6118 4659 6131 4730 
C 5958 4896 5683 5114 5683 5114 
L 5440 4819 
L 4998 4819 
L 4998 5120 
C 5139 5139 5203 5197 5216 5280 
L 4717 5331 
L 4717 4819 
L 3654 4819 
L 3654 5120 
C 3795 5139 3859 5197 3872 5280 
L 3373 5331 
L 3373 4819 
L 2419 4819 
L 2470 4627 
z
M 1670 3296 
L 512 3296 
L 563 3110 
L 2150 3110 
C 2240 3110 2298 3142 2310 3206 
C 2150 3366 1901 3571 1901 3571 
L 1670 3296 
z
M 2170 4717 
C 2259 4717 2317 4749 2336 4819 
C 2157 4986 1882 5210 1882 5210 
L 1638 4902 
L 506 4902 
L 557 4717 
L 2170 4717 
z
M 1888 4102 
L 256 4102 
L 301 3917 
L 2432 3917 
C 2522 3917 2579 3949 2598 4019 
C 2419 4186 2138 4416 2138 4416 
L 1888 4102 
z
M 2150 2298 
C 2240 2298 2298 2330 2310 2394 
C 2150 2554 1901 2758 1901 2758 
L 1670 2483 
L 512 2483 
L 563 2298 
L 2150 2298 
z
M 826 275 
L 826 1491 
L 1856 1491 
L 1856 275 
L 826 275 
z
M 1978 1888 
L 1792 1677 
L 858 1677 
L 544 1837 
L 544 -474 
L 589 -474 
C 704 -474 826 -403 826 -371 
L 826 90 
L 1856 90 
L 1856 -230 
L 1894 -230 
C 1984 -230 2131 -160 2138 -122 
L 2138 1427 
C 2266 1453 2368 1504 2413 1549 
L 1978 1888 
z
M 5158 1133 
C 4922 838 4608 589 4230 371 
C 3846 570 3526 826 3296 1133 
L 5158 1133 
z
M 5472 1523 
L 5242 1325 
L 2534 1325 
L 2592 1133 
L 3123 1133 
C 3334 768 3629 474 3981 237 
C 3462 -26 2848 -218 2189 -352 
L 2240 -467 
C 2989 -346 3648 -160 4205 96 
C 4666 -166 5216 -352 5843 -480 
C 5882 -346 5978 -256 6106 -243 
L 6112 -173 
C 5517 -96 4966 45 4493 250 
C 4922 480 5274 768 5549 1114 
C 5709 1114 5779 1133 5830 1184 
L 5472 1523 
z
" transform="scale(0.015625)"/>
       <path id="NotoSerifCJKjp-ExtraLight-8ecd" d="M 5389 4685 
C 5293 4467 5165 4198 5062 4032 
L 5158 3987 
C 5363 4147 5645 4435 5786 4640 
C 5907 4646 5984 4653 6035 4698 
L 5619 5107 
L 5389 4870 
L 1203 4870 
C 1190 4966 1171 5062 1146 5171 
L 1030 5165 
C 1069 4678 845 4224 576 4051 
C 474 3981 410 3866 467 3763 
C 544 3654 736 3706 870 3821 
C 1037 3962 1216 4250 1210 4685 
L 5389 4685 
z
M 1568 1504 
L 1568 2150 
L 3046 2150 
L 3046 1504 
L 1568 1504 
z
M 3046 2963 
L 3046 2342 
L 1568 2342 
L 1568 2963 
L 3046 2963 
z
M 4806 2963 
L 4806 2342 
L 3328 2342 
L 3328 2963 
L 4806 2963 
z
M 3328 1504 
L 3328 2150 
L 4806 2150 
L 4806 1504 
L 3328 1504 
z
M 5312 672 
L 3328 672 
L 3328 1312 
L 4806 1312 
L 4806 1056 
L 4845 1056 
C 4934 1056 5082 1133 5088 1171 
L 5088 2899 
C 5216 2925 5318 2976 5363 3027 
L 4928 3360 
L 4742 3155 
L 3328 3155 
L 3328 3731 
L 5088 3731 
C 5178 3731 5242 3763 5254 3834 
C 5062 4000 4787 4192 4787 4192 
L 4538 3923 
L 3328 3923 
L 3328 4294 
C 3488 4320 3546 4384 3558 4467 
L 3046 4531 
L 3046 3923 
L 1158 3923 
L 1210 3731 
L 3046 3731 
L 3046 3155 
L 1600 3155 
L 1286 3315 
L 1286 1005 
L 1331 1005 
C 1453 1005 1568 1075 1568 1101 
L 1568 1312 
L 3046 1312 
L 3046 672 
L 314 672 
L 371 486 
L 3046 486 
L 3046 -467 
L 3104 -467 
C 3206 -467 3328 -397 3328 -339 
L 3328 486 
L 5939 486 
C 6029 486 6086 518 6106 589 
C 5907 768 5594 1018 5594 1018 
L 5312 672 
z
" transform="scale(0.015625)"/>
      </defs>
      <use xlink:href="#NotoSerifCJKjp-ExtraLight-4e0a"/>
      <use xlink:href="#NotoSerifCJKjp-ExtraLight-8b77" x="99.999985"/>
      <use xlink:href="#NotoSerifCJKjp-ExtraLight-8ecd" x="199.999969"/>
     </g>
    </g>
   </g>
   <g id="text_17">
    <g clip-path="url(#p6eb5580e46)">
     <!-- 鄭而元 -->
     <g transform="translate(898.635999 663.255484) scale(0.12 -0.12)">
      <defs>
       <path id="NotoSerifCJKjp-ExtraLight-912d" d="M 1018 2291 
L 3328 2291 
L 3328 1933 
L 1018 1933 
L 1018 2291 
z
M 1613 3482 
C 1581 3187 1466 2906 1101 2662 
L 1171 2566 
C 1709 2803 1862 3142 1901 3482 
L 2355 3482 
L 2355 3066 
C 2355 2874 2406 2790 2662 2790 
L 2899 2790 
C 3104 2790 3238 2797 3328 2822 
L 3328 2477 
L 1018 2477 
L 1018 3482 
L 1613 3482 
z
M 1914 3757 
L 1914 4109 
L 2355 4109 
L 2355 3667 
L 1914 3667 
L 1914 3757 
z
M 3328 3482 
L 3328 3059 
L 3315 3066 
L 3296 3072 
L 3238 3072 
C 3213 3059 3181 3053 3155 3053 
L 3098 3053 
C 3059 3046 2989 3046 2918 3046 
L 2733 3046 
C 2656 3046 2643 3072 2643 3136 
L 2643 3482 
L 3328 3482 
z
M 3315 1139 
L 2272 1139 
C 2298 1325 2310 1523 2317 1741 
L 3328 1741 
L 3328 1510 
L 3366 1510 
C 3488 1510 3616 1587 3616 1619 
L 3616 3462 
C 3731 3482 3802 3520 3846 3565 
L 3462 3859 
L 3309 3667 
L 2643 3667 
L 2643 4109 
L 3104 4109 
C 3187 4109 3245 4141 3258 4211 
C 3104 4371 2842 4570 2842 4570 
L 2624 4301 
L 1178 4301 
C 1267 4403 1344 4506 1408 4614 
C 1530 4595 1613 4640 1645 4698 
L 1165 4934 
C 979 4454 614 3994 237 3738 
L 314 3648 
C 614 3782 883 3981 1101 4218 
L 1126 4109 
L 1626 4109 
L 1626 3757 
L 1626 3667 
L 1094 3667 
L 736 3834 
L 736 1395 
L 774 1395 
C 922 1395 1018 1478 1018 1504 
L 1018 1741 
L 2003 1741 
C 1997 1523 1990 1325 1965 1139 
L 320 1139 
L 371 954 
L 1926 954 
C 1798 390 1414 -32 250 -358 
L 326 -467 
C 1350 -218 1843 102 2080 525 
C 2554 352 3110 45 3347 -243 
C 3757 -346 3667 429 2144 659 
C 2189 749 2214 851 2240 954 
L 3904 954 
C 3994 954 4045 986 4064 1056 
C 3878 1229 3578 1472 3578 1472 
L 3315 1139 
z
M 2893 5312 
L 2726 5075 
L 1536 5075 
L 1594 4883 
L 2848 4883 
C 3008 4410 3360 4032 3878 3763 
C 3910 3878 4026 3949 4134 3968 
L 4154 4032 
C 3610 4224 3181 4531 3014 4870 
C 3181 4883 3302 4915 3360 4986 
L 2893 5312 
z
M 5766 5126 
L 5542 4896 
L 4602 4896 
L 4243 5101 
L 4243 -467 
L 4282 -467 
C 4429 -467 4525 -384 4525 -352 
L 4525 4710 
L 5549 4710 
C 5363 4147 5075 3290 4890 2848 
C 5466 2278 5683 1741 5683 1203 
C 5683 890 5613 723 5478 653 
C 5421 621 5382 614 5306 614 
L 4704 614 
L 4704 499 
C 4877 486 5024 461 5082 422 
C 5139 384 5165 307 5165 205 
C 5786 243 6003 499 6003 1158 
C 6003 1709 5747 2272 5050 2874 
C 5299 3302 5702 4186 5894 4634 
C 6042 4640 6131 4653 6176 4704 
L 5766 5126 
z
" transform="scale(0.015625)"/>
       <path id="NotoSerifCJKjp-ExtraLight-800c" d="M 5299 4672 
L 294 4672 
L 352 4480 
L 2976 4480 
C 2912 4166 2816 3770 2739 3501 
L 1178 3501 
L 858 3667 
L 858 -467 
L 909 -467 
C 1043 -467 1139 -390 1139 -352 
L 1139 3309 
L 2336 3309 
L 2336 -269 
L 2368 -269 
C 2515 -269 2618 -192 2618 -166 
L 2618 3309 
L 3814 3309 
L 3814 -269 
L 3853 -269 
C 4000 -269 4096 -192 4096 -166 
L 4096 3309 
L 5318 3309 
L 5318 77 
C 5318 -19 5293 -58 5184 -58 
C 5056 -58 4486 -13 4486 -13 
L 4486 -122 
C 4730 -147 4877 -186 4966 -237 
C 5043 -288 5075 -378 5094 -461 
C 5555 -410 5606 -230 5606 38 
L 5606 3245 
C 5728 3264 5843 3322 5888 3366 
L 5427 3712 
L 5261 3501 
L 2931 3501 
C 3072 3770 3238 4154 3366 4480 
L 5933 4480 
C 6022 4480 6086 4512 6099 4582 
C 5901 4774 5581 5018 5581 5018 
L 5299 4672 
z
" transform="scale(0.015625)"/>
       <path id="NotoSerifCJKjp-ExtraLight-5143" d="M 5280 4608 
C 5363 4608 5421 4640 5440 4710 
C 5242 4896 4922 5146 4922 5146 
L 4646 4800 
L 1005 4800 
L 1056 4608 
L 5280 4608 
z
M 6010 1126 
L 5914 1126 
C 5856 672 5786 205 5741 83 
C 5722 19 5702 -6 5632 -13 
C 5530 -26 5299 -26 4966 -26 
L 4301 -26 
C 4026 -26 3994 13 3994 134 
L 3994 2925 
L 3994 3046 
L 5939 3046 
C 6029 3046 6086 3078 6106 3149 
C 5901 3334 5574 3590 5574 3590 
L 5286 3232 
L 314 3232 
L 371 3046 
L 2195 3046 
C 2131 1350 1779 384 243 -390 
L 288 -493 
C 2016 205 2419 1197 2515 3046 
L 3706 3046 
L 3706 77 
C 3706 -192 3808 -288 4269 -288 
L 4986 -288 
C 5997 -288 6170 -243 6170 -96 
C 6170 -32 6144 6 6022 45 
L 6010 1126 
z
" transform="scale(0.015625)"/>
      </defs>
      <use xlink:href="#NotoSerifCJKjp-ExtraLight-912d"/>
      <use xlink:href="#NotoSerifCJKjp-ExtraLight-800c" x="99.999985"/>
      <use xlink:href="#NotoSerifCJKjp-ExtraLight-5143" x="199.999969"/>
     </g>
    </g>
    <g clip-path="url(#p6eb5580e46)">
     <!-- 判官 -->
     <g transform="translate(904.635999 677.895484) scale(0.12 -0.12)">
      <defs>
       <path id="NotoSerifCJKjp-ExtraLight-5b98" d="M 1830 134 
L 1830 1280 
L 4851 1280 
L 4851 134 
L 1830 134 
z
M 4544 3392 
L 4544 2394 
L 1830 2394 
L 1830 3392 
L 4544 3392 
z
M 4787 1472 
L 1830 1472 
L 1830 2208 
L 4544 2208 
L 4544 1933 
L 4582 1933 
C 4678 1933 4826 2010 4832 2048 
L 4832 3347 
C 4934 3366 5037 3418 5075 3462 
L 4666 3770 
L 4486 3584 
L 1862 3584 
L 1542 3750 
L 1542 -486 
L 1594 -486 
C 1728 -486 1830 -410 1830 -371 
L 1830 -58 
L 4851 -58 
L 4851 -442 
L 4883 -442 
C 4979 -442 5126 -365 5133 -326 
L 5133 1216 
C 5261 1242 5363 1293 5408 1344 
L 4973 1677 
L 4787 1472 
z
M 5722 4736 
L 5491 4499 
L 3334 4499 
L 3334 5101 
C 3488 5120 3558 5184 3571 5274 
L 3053 5331 
L 3053 4499 
L 1152 4499 
C 1146 4608 1126 4730 1094 4858 
L 979 4858 
C 1011 4358 781 3904 506 3731 
C 403 3648 339 3539 397 3443 
C 474 3334 678 3379 806 3501 
C 966 3622 1146 3898 1158 4314 
L 5517 4314 
C 5446 4051 5338 3712 5261 3507 
L 5350 3456 
C 5536 3667 5773 4026 5894 4262 
C 6016 4269 6093 4282 6138 4326 
L 5722 4736 
z
" transform="scale(0.015625)"/>
      </defs>
      <use xlink:href="#NotoSerifCJKjp-ExtraLight-5224"/>
      <use xlink:href="#NotoSerifCJKjp-ExtraLight-5b98" x="99.999985"/>
     </g>
    </g>
   </g>
   <g id="text_18">
    <g clip-path="url(#p6eb5580e46)">
     <!-- 權技 -->
     <g transform="translate(1672.396709 419.384516) scale(0.12 -0.12)">
      <defs>
       <path id="NotoSerifCJKjp-ExtraLight-6b0a" d="M 2234 4595 
L 3251 4595 
L 3251 4147 
L 3309 4147 
C 3418 4147 3539 4224 3539 4262 
L 3539 4595 
L 4550 4595 
L 4550 4147 
L 4608 4147 
C 4717 4147 4838 4224 4838 4262 
L 4838 4595 
L 5965 4595 
C 6054 4595 6112 4627 6131 4698 
C 5939 4870 5645 5107 5645 5107 
L 5376 4787 
L 4838 4787 
L 4838 5088 
C 4998 5114 5062 5171 5075 5267 
L 4550 5318 
L 4550 4787 
L 3539 4787 
L 3539 5088 
C 3693 5114 3763 5171 3776 5267 
L 3251 5318 
L 3251 4787 
L 2182 4787 
L 2234 4595 
z
M 2797 3104 
L 2797 3776 
L 3616 3776 
L 3616 3104 
L 2797 3104 
z
M 3648 2720 
C 3744 2720 3891 2790 3898 2829 
L 3898 3731 
C 4006 3750 4102 3802 4141 3846 
L 3731 4154 
L 3558 3968 
L 2822 3968 
L 2515 4115 
L 2515 2605 
L 2560 2605 
C 2675 2605 2797 2675 2797 2701 
L 2797 2912 
L 3616 2912 
L 3616 2720 
L 3648 2720 
z
M 1498 3674 
L 2259 3674 
C 2349 3674 2400 3706 2419 3776 
C 2240 3949 1952 4173 1952 4173 
L 1702 3866 
L 1498 3866 
L 1498 5088 
C 1651 5114 1702 5171 1722 5267 
L 1210 5325 
L 1210 3866 
L 333 3866 
L 384 3674 
L 1107 3674 
C 960 2746 685 1843 243 1107 
L 339 1024 
C 736 1549 1011 2150 1210 2803 
L 1210 -461 
L 1274 -461 
C 1376 -461 1498 -390 1498 -333 
L 1498 2669 
C 1696 2419 1939 2074 2016 1818 
C 2349 1587 2586 2246 1498 2803 
L 1498 3674 
z
M 3046 512 
L 4038 512 
L 4038 6 
L 3046 6 
L 3046 512 
z
M 4038 1882 
L 4038 1395 
L 3046 1395 
L 3046 1882 
L 4038 1882 
z
M 4038 698 
L 3046 698 
L 3046 1203 
L 4038 1203 
L 4038 698 
z
M 5485 3776 
L 5485 3104 
L 4666 3104 
L 4666 3776 
L 5485 3776 
z
M 5357 6 
L 4320 6 
L 4320 512 
L 5613 512 
C 5702 512 5754 544 5773 614 
C 5600 781 5318 1005 5318 1005 
L 5082 698 
L 4320 698 
L 4320 1203 
L 5638 1203 
C 5722 1203 5779 1235 5792 1306 
C 5626 1478 5344 1696 5344 1696 
L 5101 1395 
L 4320 1395 
L 4320 1882 
L 5818 1882 
C 5901 1882 5965 1914 5984 1978 
C 5792 2157 5498 2387 5498 2387 
L 5235 2067 
L 4237 2067 
C 4333 2202 4442 2349 4518 2470 
C 4646 2464 4736 2509 4762 2592 
L 4403 2688 
L 4429 2688 
C 4538 2688 4666 2752 4666 2771 
L 4666 2912 
L 5485 2912 
L 5485 2662 
L 5523 2662 
C 5619 2662 5760 2739 5766 2771 
L 5766 3731 
C 5875 3750 5978 3802 6016 3846 
L 5606 4154 
L 5427 3968 
L 4691 3968 
L 4384 4115 
L 4384 2694 
L 4262 2726 
C 4205 2541 4109 2266 4045 2067 
L 3123 2067 
C 3206 2195 3290 2330 3360 2464 
C 3494 2438 3578 2490 3610 2554 
L 3155 2771 
C 2848 2054 2381 1421 1946 1050 
L 2035 960 
C 2285 1126 2541 1357 2778 1626 
L 2778 -474 
L 2810 -474 
C 2944 -474 3046 -403 3046 -378 
L 3046 -179 
L 5933 -179 
C 6022 -179 6080 -154 6099 -83 
C 5914 96 5619 326 5619 326 
L 5357 6 
z
" transform="scale(0.015625)"/>
       <path id="NotoSerifCJKjp-ExtraLight-6280" d="M 2419 2886 
C 2138 2752 1856 2624 1594 2502 
L 1594 3699 
L 2387 3699 
C 2477 3699 2534 3731 2554 3802 
C 2381 3974 2106 4186 2106 4186 
L 1869 3891 
L 1594 3891 
L 1594 5101 
C 1747 5120 1811 5184 1830 5274 
L 1312 5331 
L 1312 3891 
L 288 3891 
L 339 3699 
L 1312 3699 
L 1312 2374 
C 813 2144 403 1965 186 1894 
L 397 1498 
C 448 1523 493 1587 499 1664 
C 794 1824 1062 1978 1312 2118 
L 1312 77 
C 1312 -26 1280 -58 1165 -58 
C 1056 -58 480 -13 480 -13 
L 480 -122 
C 717 -147 870 -179 960 -237 
C 1037 -288 1069 -378 1088 -467 
C 1542 -410 1594 -230 1594 45 
L 1594 2285 
C 1926 2477 2214 2650 2464 2784 
L 2419 2886 
z
M 5248 2637 
C 5030 2010 4698 1466 4237 998 
C 3782 1453 3437 2003 3219 2637 
L 5248 2637 
z
M 5478 3040 
L 5248 2822 
L 4326 2822 
L 4326 3968 
L 5952 3968 
C 6035 3968 6099 4000 6118 4064 
C 5926 4243 5632 4474 5632 4474 
L 5363 4154 
L 4326 4154 
L 4326 5069 
C 4480 5094 4544 5158 4557 5248 
L 4045 5306 
L 4045 4154 
L 2522 4154 
L 2573 3968 
L 4045 3968 
L 4045 2822 
L 2643 2822 
L 2701 2637 
L 3072 2637 
C 3277 1920 3603 1312 4045 806 
C 3488 307 2778 -83 1894 -358 
L 1946 -474 
C 2906 -224 3642 147 4218 621 
C 4672 160 5235 -198 5894 -454 
C 5958 -314 6074 -230 6208 -224 
L 6221 -166 
C 5536 45 4928 378 4435 813 
C 4960 1312 5331 1914 5600 2598 
C 5741 2605 5811 2618 5862 2675 
L 5478 3040 
z
" transform="scale(0.015625)"/>
      </defs>
      <use xlink:href="#NotoSerifCJKjp-ExtraLight-6b0a"/>
      <use xlink:href="#NotoSerifCJKjp-ExtraLight-6280" x="99.999985"/>
     </g>
    </g>
    <g clip-path="url(#p6eb5580e46)">
     <!-- 僉知 -->
     <g transform="translate(1672.396709 434.024516) scale(0.12 -0.12)">
      <defs>
       <path id="NotoSerifCJKjp-ExtraLight-50c9" d="M 1920 1357 
C 1664 672 1114 26 429 -365 
L 486 -467 
C 1062 -218 1555 192 1888 646 
C 2182 461 2509 173 2630 -70 
C 2963 -237 3085 422 1965 755 
C 2042 870 2106 992 2163 1107 
C 2285 1088 2355 1107 2374 1178 
L 1920 1357 
z
M 3802 1773 
L 3802 2669 
L 5005 2669 
L 5005 1773 
L 3802 1773 
z
M 5043 1395 
C 5139 1395 5286 1472 5293 1510 
L 5293 2624 
C 5395 2643 5498 2694 5536 2739 
L 5126 3046 
L 4947 2854 
L 3834 2854 
L 3520 3008 
L 3520 1293 
L 3565 1293 
C 3680 1293 3802 1363 3802 1389 
L 3802 1581 
L 5005 1581 
L 5005 1395 
L 5043 1395 
z
M 3821 3590 
L 1946 3590 
L 1997 3398 
L 4352 3398 
C 4442 3398 4493 3430 4512 3501 
C 4339 3661 4058 3872 4058 3872 
L 3821 3590 
z
M 2541 2669 
L 2541 1773 
L 1389 1773 
L 1389 2669 
L 2541 2669 
z
M 1101 3008 
L 1101 1267 
L 1146 1267 
C 1267 1267 1389 1338 1389 1363 
L 1389 1581 
L 2541 1581 
L 2541 1395 
L 2579 1395 
C 2675 1395 2816 1472 2822 1510 
L 2822 2624 
C 2931 2643 3034 2694 3072 2739 
L 2662 3046 
L 2483 2854 
L 1421 2854 
L 1101 3008 
z
M 4224 1357 
C 3949 640 3341 0 2592 -365 
L 2643 -474 
C 3258 -243 3795 147 4160 614 
C 4659 352 5318 -109 5568 -448 
C 5978 -595 5997 198 4237 717 
C 4326 845 4403 973 4467 1107 
C 4589 1088 4666 1101 4691 1171 
L 4224 1357 
z
M 3078 5350 
C 2688 4538 1299 3354 256 2822 
L 307 2726 
C 1440 3251 2694 4243 3322 5030 
C 3840 4256 4877 3437 5920 2944 
C 5958 3046 6086 3123 6227 3136 
L 6240 3226 
C 5088 3706 4045 4410 3443 5107 
C 3590 5120 3661 5146 3680 5216 
L 3078 5350 
z
" transform="scale(0.015625)"/>
       <path id="NotoSerifCJKjp-ExtraLight-77e5" d="M 2675 2656 
L 2010 2656 
C 2016 2746 2016 2835 2016 2918 
L 2016 4032 
L 3040 4032 
C 3130 4032 3194 4058 3200 4128 
C 3014 4314 2733 4531 2733 4531 
L 2470 4218 
L 1190 4218 
C 1306 4480 1408 4755 1491 5043 
C 1626 5043 1696 5107 1722 5184 
L 1184 5318 
C 1024 4454 691 3629 314 3091 
L 416 3027 
C 678 3290 909 3635 1107 4032 
L 1734 4032 
L 1734 2912 
C 1734 2829 1734 2739 1728 2656 
L 301 2656 
L 352 2464 
L 1722 2464 
C 1664 1498 1370 493 282 -358 
L 371 -454 
C 1261 109 1677 832 1862 1562 
C 2246 1190 2714 659 2854 269 
C 3238 32 3405 851 1894 1702 
C 1952 1958 1984 2214 2003 2464 
L 3251 2464 
C 3334 2464 3398 2496 3418 2566 
C 3226 2746 2931 2970 2931 2970 
L 2675 2656 
z
M 3878 480 
L 3878 4320 
L 5504 4320 
L 5504 480 
L 3878 480 
z
M 5632 4730 
L 5440 4506 
L 3910 4506 
L 3597 4678 
L 3597 -269 
L 3648 -269 
C 3782 -269 3878 -192 3878 -160 
L 3878 288 
L 5504 288 
L 5504 -179 
L 5542 -179 
C 5645 -179 5779 -96 5786 -58 
L 5786 4256 
C 5914 4282 6029 4333 6067 4384 
L 5632 4730 
z
" transform="scale(0.015625)"/>
      </defs>
      <use xlink:href="#NotoSerifCJKjp-ExtraLight-50c9"/>
      <use xlink:href="#NotoSerifCJKjp-ExtraLight-77e5" x="99.999985"/>
     </g>
    </g>
   </g>
   <g id="text_19">
    <g clip-path="url(#p6eb5580e46)">
     <!-- 許崇 -->
     <g transform="translate(1123.996202 663.255484) scale(0.12 -0.12)">
      <defs>
       <path id="NotoSerifCJKjp-ExtraLight-8a31" d="M 2426 4730 
C 2509 4730 2573 4762 2586 4832 
C 2406 4998 2125 5229 2125 5229 
L 1882 4915 
L 570 4915 
L 621 4730 
L 2426 4730 
z
M 2170 4109 
L 269 4109 
L 320 3923 
L 2726 3923 
C 2810 3923 2867 3955 2886 4026 
C 2714 4192 2419 4422 2419 4422 
L 2170 4109 
z
M 544 3302 
L 595 3117 
L 2362 3117 
C 2451 3117 2509 3149 2528 3213 
C 2362 3373 2106 3584 2106 3584 
L 1888 3302 
L 544 3302 
z
M 2355 2310 
C 2445 2310 2502 2342 2515 2406 
C 2355 2573 2086 2778 2086 2778 
L 1856 2496 
L 544 2496 
L 595 2310 
L 2355 2310 
z
M 864 275 
L 864 1504 
L 2118 1504 
L 2118 275 
L 864 275 
z
M 2054 1690 
L 896 1690 
L 582 1850 
L 582 -461 
L 627 -461 
C 742 -461 864 -390 864 -358 
L 864 90 
L 2118 90 
L 2118 -243 
L 2157 -243 
C 2253 -243 2394 -173 2400 -134 
L 2400 1440 
C 2528 1466 2637 1510 2682 1562 
L 2246 1901 
L 2054 1690 
z
M 5485 2387 
L 4557 2387 
L 4557 4038 
L 5920 4038 
C 6010 4038 6067 4070 6086 4141 
C 5901 4320 5613 4544 5613 4544 
L 5350 4230 
L 3520 4230 
C 3642 4499 3738 4781 3821 5075 
C 3962 5075 4026 5133 4045 5210 
L 3520 5344 
C 3354 4454 3021 3610 2624 3059 
L 2726 2995 
C 2995 3264 3232 3629 3437 4038 
L 4275 4038 
L 4275 2387 
L 2669 2387 
L 2720 2202 
L 4275 2202 
L 4275 -467 
L 4314 -467 
C 4461 -467 4557 -371 4557 -339 
L 4557 2202 
L 6067 2202 
C 6150 2202 6208 2234 6227 2304 
C 6042 2477 5741 2714 5741 2714 
L 5485 2387 
z
" transform="scale(0.015625)"/>
       <path id="NotoSerifCJKjp-ExtraLight-5d07" d="M 1325 4102 
L 5088 4102 
L 5088 3885 
L 5146 3885 
C 5254 3885 5370 3955 5370 4000 
L 5370 4851 
C 5530 4870 5600 4928 5613 5024 
L 5088 5082 
L 5088 4294 
L 3328 4294 
L 3328 5101 
C 3482 5120 3552 5184 3565 5274 
L 3046 5331 
L 3046 4294 
L 1325 4294 
L 1325 4851 
C 1485 4870 1542 4928 1562 5024 
L 1043 5082 
L 1043 3821 
L 1094 3821 
C 1203 3821 1325 3898 1325 3942 
L 1325 4102 
z
M 5427 3136 
C 5338 2925 5203 2669 5107 2509 
L 5203 2458 
C 5402 2618 5670 2893 5811 3091 
C 5933 3098 6010 3110 6054 3155 
L 5651 3546 
L 5434 3322 
L 3341 3322 
L 3341 3776 
C 3482 3802 3539 3859 3552 3942 
L 3059 4000 
L 3059 3322 
L 1126 3322 
C 1120 3418 1107 3514 1082 3622 
L 960 3622 
C 979 3194 762 2771 518 2611 
C 416 2534 352 2419 410 2330 
C 480 2221 678 2266 806 2368 
C 960 2496 1114 2752 1133 3136 
L 5427 3136 
z
M 1459 2496 
L 1510 2310 
L 4877 2310 
C 4954 2310 5018 2342 5030 2406 
C 4858 2579 4576 2784 4576 2784 
L 4333 2496 
L 1459 2496 
z
M 1818 1133 
C 1530 710 947 166 397 -173 
L 467 -256 
C 1088 19 1702 486 2022 851 
C 2163 819 2214 838 2259 902 
L 1818 1133 
z
M 4090 986 
C 4589 717 5274 192 5478 -224 
C 5894 -429 5946 493 4154 1062 
L 4090 986 
z
M 5184 1638 
L 570 1638 
L 627 1453 
L 3059 1453 
L 3059 32 
C 3059 -58 3027 -90 2906 -90 
C 2771 -90 2106 -38 2106 -38 
L 2106 -141 
C 2387 -173 2566 -205 2662 -256 
C 2739 -307 2778 -390 2784 -467 
C 3270 -416 3341 -230 3341 26 
L 3341 1453 
L 5754 1453 
C 5843 1453 5907 1485 5920 1549 
C 5734 1728 5440 1946 5440 1946 
L 5184 1638 
z
" transform="scale(0.015625)"/>
      </defs>
      <use xlink:href="#NotoSerifCJKjp-ExtraLight-8a31"/>
      <use xlink:href="#NotoSerifCJKjp-ExtraLight-5d07" x="99.999985"/>
     </g>
    </g>
    <g clip-path="url(#p6eb5580e46)">
     <!-- 司直 -->
     <g transform="translate(1123.996202 677.895484) scale(0.12 -0.12)">
      <use xlink:href="#NotoSerifCJKjp-ExtraLight-53f8"/>
      <use xlink:href="#NotoSerifCJKjp-ExtraLight-76f4" x="99.999985"/>
     </g>
    </g>
   </g>
   <g id="text_20">
    <g clip-path="url(#p6eb5580e46)">
     <!-- 李元亨 -->
     <g transform="translate(1337.356405 663.255484) scale(0.12 -0.12)">
      <defs>
       <path id="NotoSerifCJKjp-ExtraLight-4ea8" d="M 5120 2214 
L 621 2214 
L 678 2022 
L 4851 2022 
C 4467 1837 3942 1645 3507 1504 
L 3053 1555 
L 3053 70 
C 3053 -32 3014 -70 2880 -70 
C 2726 -70 1933 -19 1933 -19 
L 1933 -122 
C 2253 -154 2458 -192 2566 -250 
C 2662 -301 2701 -378 2726 -467 
C 3277 -410 3334 -224 3334 45 
L 3334 1338 
C 4000 1485 4947 1760 5421 2010 
C 5581 2016 5670 2022 5722 2061 
L 5344 2413 
L 5120 2214 
z
M 1786 2938 
L 1786 3686 
L 4608 3686 
L 4608 2938 
L 1786 2938 
z
M 4646 2547 
C 4742 2547 4883 2624 4890 2662 
L 4890 3622 
C 5011 3648 5126 3699 5171 3750 
L 4730 4077 
L 4544 3878 
L 1818 3878 
L 1504 4032 
L 1504 2515 
L 1542 2515 
C 1658 2515 1786 2586 1786 2611 
L 1786 2752 
L 4608 2752 
L 4608 2547 
L 4646 2547 
z
M 5248 4576 
L 3334 4576 
L 3334 5114 
C 3488 5133 3558 5197 3571 5286 
L 3053 5344 
L 3053 4576 
L 390 4576 
L 448 4390 
L 5850 4390 
C 5939 4390 6003 4422 6016 4486 
C 5824 4672 5517 4909 5517 4909 
L 5248 4576 
z
" transform="scale(0.015625)"/>
      </defs>
      <use xlink:href="#NotoSerifCJKjp-ExtraLight-674e"/>
      <use xlink:href="#NotoSerifCJKjp-ExtraLight-5143" x="99.999985"/>
      <use xlink:href="#NotoSerifCJKjp-ExtraLight-4ea8" x="199.999969"/>
     </g>
    </g>
    <g clip-path="url(#p6eb5580e46)">
     <!--  -->
     <g transform="translate(1355.356405 677.895484) scale(0.12 -0.12)"/>
    </g>
   </g>
   <g id="text_21">
    <g clip-path="url(#p6eb5580e46)">
     <!-- 權忱 -->
     <g transform="translate(1562.716608 663.255484) scale(0.12 -0.12)">
      <defs>
       <path id="NotoSerifCJKjp-ExtraLight-5ff1" d="M 762 4077 
C 762 3616 589 3091 403 2880 
C 307 2771 262 2643 339 2554 
C 435 2451 634 2541 730 2688 
C 883 2906 1018 3424 883 4070 
L 762 4077 
z
M 1293 5338 
L 1293 -474 
L 1350 -474 
C 1459 -474 1574 -397 1574 -339 
L 1574 5101 
C 1734 5126 1786 5190 1805 5280 
L 1293 5338 
z
M 1709 4339 
C 1856 4090 2010 3680 2010 3373 
C 2298 3091 2637 3750 1798 4378 
L 1709 4339 
z
M 5971 1043 
L 5875 1043 
C 5824 627 5754 166 5722 58 
C 5702 -6 5683 -19 5619 -26 
C 5549 -38 5363 -38 5114 -38 
L 4602 -38 
C 4390 -38 4365 -6 4365 102 
L 4365 2765 
C 4486 2778 4550 2842 4557 2918 
L 4128 2976 
C 4160 3251 4179 3533 4192 3821 
L 5517 3821 
C 5434 3603 5312 3328 5248 3181 
L 5344 3136 
C 5510 3290 5779 3597 5920 3770 
C 6042 3776 6118 3789 6163 3834 
L 5741 4243 
L 5517 4013 
L 4198 4013 
C 4205 4358 4211 4710 4218 5069 
C 4371 5094 4422 5158 4442 5248 
L 3917 5306 
C 3917 4864 3917 4429 3904 4013 
L 2854 4013 
C 2848 4083 2835 4154 2822 4224 
L 2707 4230 
C 2714 3885 2560 3469 2406 3302 
C 2317 3206 2272 3091 2342 3008 
C 2419 2918 2598 2989 2682 3104 
C 2778 3232 2861 3488 2861 3821 
L 3904 3821 
C 3840 2138 3520 710 1850 -339 
L 1939 -461 
C 3354 352 3878 1414 4077 2624 
L 4077 38 
C 4077 -205 4166 -301 4563 -301 
L 5133 -301 
C 5965 -301 6131 -250 6131 -109 
C 6131 -51 6106 -13 5984 26 
L 5971 1043 
z
" transform="scale(0.015625)"/>
      </defs>
      <use xlink:href="#NotoSerifCJKjp-ExtraLight-6b0a"/>
      <use xlink:href="#NotoSerifCJKjp-ExtraLight-5ff1" x="99.999985"/>
     </g>
    </g>
    <g clip-path="url(#p6eb5580e46)">
     <!-- 進士 -->
     <g transform="translate(1562.716608 677.895484) scale(0.12 -0.12)">
      <defs>
       <path id="NotoSerifCJKjp-ExtraLight-9032" d="M 3955 3194 
L 2733 3194 
L 2733 4058 
L 3955 4058 
L 3955 3194 
z
M 3955 2125 
L 2733 2125 
L 2733 3008 
L 3955 3008 
L 3955 2125 
z
M 3955 1030 
L 2733 1030 
L 2733 1933 
L 3955 1933 
L 3955 1030 
z
M 2445 384 
L 2490 384 
C 2630 384 2733 474 2733 499 
L 2733 838 
L 5894 838 
C 5984 838 6048 870 6061 941 
C 5869 1114 5574 1357 5574 1357 
L 5306 1030 
L 4237 1030 
L 4237 1933 
L 5645 1933 
C 5722 1933 5786 1965 5798 2035 
C 5626 2208 5344 2426 5344 2426 
L 5101 2125 
L 4237 2125 
L 4237 3008 
L 5645 3008 
C 5722 3008 5786 3040 5798 3110 
C 5626 3277 5344 3501 5344 3501 
L 5101 3194 
L 4237 3194 
L 4237 4058 
L 5792 4058 
C 5882 4058 5939 4090 5958 4160 
C 5773 4339 5478 4570 5478 4570 
L 5222 4250 
L 4128 4250 
C 4301 4499 4474 4800 4576 5037 
C 4717 5037 4787 5101 4806 5178 
L 4256 5293 
C 4192 4973 4077 4557 3968 4250 
L 2822 4250 
C 2976 4499 3110 4768 3232 5043 
C 3373 5030 3450 5082 3482 5152 
L 2976 5344 
C 2662 4429 2144 3546 1658 3002 
L 1754 2931 
C 1990 3136 2227 3392 2445 3680 
L 2445 384 
z
M 390 5088 
C 736 4813 1152 4314 1242 3923 
C 1626 3648 1862 4557 467 5146 
L 390 5088 
z
M 1478 2387 
C 1645 2413 1741 2464 1779 2502 
L 1318 2899 
L 1114 2630 
L 294 2630 
L 333 2438 
L 1197 2438 
L 1197 544 
C 864 314 486 70 256 -51 
L 525 -448 
C 576 -416 602 -378 582 -301 
C 800 -115 1158 237 1389 486 
C 1856 -173 2387 -307 3552 -307 
L 5894 -307 
C 5914 -166 6003 -90 6150 -70 
L 6150 26 
C 5370 0 4326 0 3546 0 
C 2451 0 1939 83 1478 621 
L 1478 2387 
z
" transform="scale(0.015625)"/>
       <path id="NotoSerifCJKjp-ExtraLight-58eb" d="M 5325 3123 
L 3341 3123 
L 3341 4998 
C 3494 5024 3552 5088 3571 5178 
L 3059 5242 
L 3059 3123 
L 294 3123 
L 352 2931 
L 3059 2931 
L 3059 32 
L 666 32 
L 717 -160 
L 5574 -160 
C 5670 -160 5722 -128 5741 -58 
C 5549 128 5229 371 5229 371 
L 4954 32 
L 3341 32 
L 3341 2931 
L 5946 2931 
C 6042 2931 6099 2963 6118 3034 
C 5920 3213 5600 3462 5600 3462 
L 5325 3123 
z
" transform="scale(0.015625)"/>
      </defs>
      <use xlink:href="#NotoSerifCJKjp-ExtraLight-9032"/>
      <use xlink:href="#NotoSerifCJKjp-ExtraLight-58eb" x="99.999985"/>
     </g>
    </g>
   </g>
   <g id="text_22">
    <g clip-path="url(#p6eb5580e46)">
     <!-- 許憺 -->
     <g transform="translate(1782.07681 663.255484) scale(0.12 -0.12)">
      <defs>
       <path id="NotoSerifCJKjp-ExtraLight-61ba" d="M 634 4301 
C 646 3859 486 3334 314 3130 
C 224 3027 179 2886 256 2803 
C 346 2707 544 2790 640 2931 
C 781 3155 890 3661 749 4294 
L 634 4301 
z
M 1158 5338 
L 1158 -474 
L 1216 -474 
C 1325 -474 1446 -397 1446 -339 
L 1446 5101 
C 1600 5126 1651 5190 1670 5280 
L 1158 5338 
z
M 1606 4448 
C 1741 4230 1888 3878 1894 3610 
C 2170 3341 2502 3955 1690 4480 
L 1606 4448 
z
M 3322 -6 
L 3322 646 
L 5286 646 
L 5286 -6 
L 3322 -6 
z
M 5235 832 
L 3354 832 
L 3040 986 
L 3040 -448 
L 3085 -448 
C 3200 -448 3322 -384 3322 -358 
L 3322 -192 
L 5286 -192 
L 5286 -416 
L 5318 -416 
C 5414 -416 5568 -339 5568 -301 
L 5568 614 
C 5670 634 5754 672 5786 717 
L 5402 1011 
L 5235 832 
z
M 4954 1914 
L 3059 1914 
L 3110 1722 
L 5446 1722 
C 5536 1722 5594 1754 5613 1824 
C 5434 1971 5184 2144 5184 2144 
L 4954 1914 
z
M 4947 1382 
L 3078 1382 
L 3130 1190 
L 5440 1190 
C 5523 1190 5581 1222 5600 1293 
C 5427 1446 5171 1613 5171 1613 
L 4947 1382 
z
M 4410 4762 
C 4320 4570 4192 4333 4070 4166 
L 2893 4166 
C 3034 4365 3162 4563 3270 4762 
L 4410 4762 
z
M 5677 3981 
C 5638 3821 5600 3680 5568 3622 
C 5549 3597 5530 3590 5491 3590 
L 5171 3590 
L 4832 3590 
C 4704 3590 4691 3597 4691 3654 
L 4691 3981 
L 5677 3981 
z
M 5472 2458 
L 2758 2458 
C 2771 2752 2778 3046 2778 3322 
L 2778 3981 
L 3539 3981 
C 3443 3584 3219 3283 2797 3059 
L 2848 2950 
C 3366 3149 3706 3456 3853 3981 
L 4410 3981 
L 4410 3603 
C 4410 3405 4461 3328 4774 3328 
L 5171 3328 
C 5786 3328 5907 3379 5907 3514 
C 5907 3571 5875 3603 5773 3629 
L 5754 3981 
L 5939 3981 
C 6029 3981 6086 4013 6106 4077 
C 5914 4256 5619 4486 5619 4486 
L 5357 4166 
L 4218 4166 
C 4429 4333 4640 4576 4787 4730 
C 4896 4736 4979 4749 5024 4787 
L 4634 5165 
L 4429 4947 
L 3373 4947 
C 3405 5011 3437 5069 3462 5133 
C 3622 5120 3674 5146 3693 5216 
L 3194 5344 
C 2906 4570 2323 3629 1722 3098 
L 1811 3021 
C 2054 3200 2285 3424 2502 3667 
L 2502 3187 
C 2496 2035 2419 627 1728 -371 
L 1837 -448 
C 2477 262 2682 1280 2752 2272 
L 6003 2272 
C 6093 2272 6144 2304 6163 2368 
C 5990 2534 5715 2746 5715 2746 
L 5472 2458 
z
M 4909 2982 
L 3104 2982 
L 3155 2790 
L 5453 2790 
C 5542 2790 5600 2822 5619 2893 
C 5434 3059 5158 3264 5158 3264 
L 4909 2982 
z
" transform="scale(0.015625)"/>
      </defs>
      <use xlink:href="#NotoSerifCJKjp-ExtraLight-8a31"/>
      <use xlink:href="#NotoSerifCJKjp-ExtraLight-61ba" x="99.999985"/>
     </g>
    </g>
    <g clip-path="url(#p6eb5580e46)">
     <!--  -->
     <g transform="translate(1794.07681 677.895484) scale(0.12 -0.12)"/>
    </g>
   </g>
   <g id="text_23">
    <g clip-path="url(#p6eb5580e46)">
     <!-- 金仲雅 -->
     <g transform="translate(1995.437013 663.255484) scale(0.12 -0.12)">
      <defs>
       <path id="NotoSerifCJKjp-ExtraLight-91d1" d="M 5242 -102 
L 3322 -102 
L 3322 1818 
L 5606 1818 
C 5696 1818 5747 1850 5766 1920 
C 5574 2093 5274 2323 5274 2323 
L 4998 2003 
L 3322 2003 
L 3322 3053 
L 4570 3053 
C 4659 3053 4717 3085 4736 3155 
C 4544 3322 4256 3533 4256 3533 
L 4006 3238 
L 1568 3238 
L 1619 3053 
L 3040 3053 
L 3040 2003 
L 678 2003 
L 736 1818 
L 3040 1818 
L 3040 -102 
L 384 -102 
L 442 -288 
L 5856 -288 
C 5946 -288 6010 -256 6029 -186 
C 5824 -6 5510 243 5510 243 
L 5242 -102 
z
M 1427 1510 
C 1683 1178 1990 634 2029 224 
C 2355 -70 2643 749 1517 1549 
L 1427 1510 
z
M 3955 96 
C 4243 390 4576 845 4845 1274 
C 4966 1254 5043 1306 5075 1370 
L 4595 1581 
C 4378 1069 4083 506 3853 160 
L 3955 96 
z
M 3021 5389 
C 2643 4499 1280 3258 218 2701 
L 262 2598 
C 1434 3162 2656 4198 3258 5062 
C 3757 4205 4781 3334 5850 2810 
C 5888 2912 6016 2989 6150 3002 
L 6163 3098 
C 4992 3603 3962 4358 3386 5146 
C 3526 5152 3610 5184 3616 5254 
L 3021 5389 
z
" transform="scale(0.015625)"/>
       <path id="NotoSerifCJKjp-ExtraLight-4ef2" d="M 1741 5331 
C 1395 4122 813 2918 250 2163 
L 346 2093 
C 627 2400 902 2784 1158 3213 
L 1158 -467 
L 1210 -467 
C 1318 -467 1440 -384 1446 -358 
L 1446 3482 
C 1549 3494 1613 3539 1632 3597 
L 1414 3680 
C 1638 4109 1843 4576 2010 5043 
C 2150 5037 2227 5094 2253 5165 
L 1741 5331 
z
M 4141 2022 
L 4141 3814 
L 5568 3814 
L 5568 2022 
L 4141 2022 
z
M 2464 2022 
L 2464 3814 
L 3859 3814 
L 3859 2022 
L 2464 2022 
z
M 5696 4211 
L 5504 4006 
L 4141 4006 
L 4141 4992 
C 4333 5011 4397 5088 4422 5197 
L 3859 5267 
L 3859 4006 
L 2496 4006 
L 2182 4166 
L 2182 1370 
L 2234 1370 
C 2355 1370 2464 1440 2464 1472 
L 2464 1837 
L 3859 1837 
L 3859 -461 
L 3923 -461 
C 4019 -461 4141 -390 4141 -333 
L 4141 1837 
L 5568 1837 
L 5568 1434 
L 5606 1434 
C 5702 1434 5843 1510 5850 1549 
L 5850 3750 
C 5978 3776 6086 3827 6131 3878 
L 5696 4211 
z
" transform="scale(0.015625)"/>
       <path id="NotoSerifCJKjp-ExtraLight-96c5" d="M 3462 1357 
L 4403 1357 
L 4403 115 
L 3462 115 
L 3462 1357 
z
M 3462 3898 
L 4403 3898 
L 4403 2842 
L 3462 2842 
L 3462 3891 
L 3462 3898 
z
M 4403 1542 
L 3462 1542 
L 3462 2656 
L 4403 2656 
L 4403 1542 
z
M 1139 2893 
L 1139 4614 
L 1920 4614 
L 1920 2893 
L 1139 2893 
z
M 5427 115 
L 4685 115 
L 4685 1357 
L 5792 1357 
C 5875 1357 5939 1389 5952 1459 
C 5779 1626 5504 1843 5504 1843 
L 5267 1542 
L 4685 1542 
L 4685 2656 
L 5741 2656 
C 5824 2656 5882 2688 5901 2758 
C 5728 2918 5466 3130 5466 3130 
L 5235 2842 
L 4685 2842 
L 4685 3898 
L 5869 3898 
C 5958 3898 6022 3930 6035 4000 
C 5856 4173 5568 4403 5568 4403 
L 5312 4083 
L 4531 4083 
C 4717 4384 4890 4736 4992 5005 
C 5126 4998 5203 5062 5229 5139 
L 4666 5280 
C 4602 4922 4486 4442 4378 4083 
L 3539 4083 
C 3654 4403 3757 4730 3846 5062 
C 3987 5062 4051 5126 4077 5203 
L 3533 5338 
C 3366 4461 3078 3590 2746 2893 
C 2586 3046 2387 3194 2387 3194 
L 2202 2963 
L 2202 4614 
L 2906 4614 
C 2995 4614 3059 4646 3072 4717 
C 2893 4883 2605 5114 2605 5114 
L 2355 4806 
L 365 4806 
L 416 4614 
L 858 4614 
L 858 2893 
L 301 2893 
L 352 2707 
L 1702 2707 
C 1370 1837 826 973 154 326 
L 243 237 
C 966 806 1536 1549 1920 2374 
L 1920 77 
C 1920 -32 1888 -70 1760 -70 
C 1619 -70 947 -13 947 -13 
L 947 -115 
C 1235 -147 1408 -186 1517 -243 
C 1587 -294 1632 -390 1638 -474 
C 2144 -416 2202 -198 2202 58 
L 2202 2707 
L 2650 2707 
C 2586 2573 2515 2451 2445 2336 
L 2554 2272 
C 2778 2547 2989 2886 3181 3264 
L 3181 -467 
L 3219 -467 
C 3360 -467 3462 -384 3462 -352 
L 3462 -77 
L 5997 -77 
C 6086 -77 6144 -45 6157 26 
C 5978 205 5690 429 5690 429 
L 5427 115 
z
" transform="scale(0.015625)"/>
      </defs>
      <use xlink:href="#NotoSerifCJKjp-ExtraLight-91d1"/>
      <use xlink:href="#NotoSerifCJKjp-ExtraLight-4ef2" x="99.999985"/>
      <use xlink:href="#NotoSerifCJKjp-ExtraLight-96c5" x="199.999969"/>
     </g>
    </g>
    <g clip-path="url(#p6eb5580e46)">
     <!--   -->
     <g transform="translate(2011.882638 677.895484) scale(0.12 -0.12)">
      <defs>
       <path id="NotoSerifCJKjp-ExtraLight-20" transform="scale(0.015625)"/>
      </defs>
      <use xlink:href="#NotoSerifCJKjp-ExtraLight-20"/>
     </g>
    </g>
   </g>
   <g id="text_24">
    <g clip-path="url(#p6eb5580e46)">
     <!-- 柳彭壽 -->
     <g transform="translate(2214.797216 663.255484) scale(0.12 -0.12)">
      <defs>
       <path id="NotoSerifCJKjp-ExtraLight-5f6d" d="M 960 1914 
L 960 2746 
L 2963 2746 
L 2963 1914 
L 960 1914 
z
M 3002 1530 
C 3098 1530 3238 1606 3245 1645 
L 3245 2682 
C 3366 2707 3475 2758 3520 2810 
L 3091 3136 
L 2899 2938 
L 1037 2938 
L 678 3104 
L 678 1446 
L 717 1446 
C 858 1446 960 1530 960 1555 
L 960 1722 
L 2963 1722 
L 2963 1530 
L 3002 1530 
z
M 1011 1376 
C 1158 1133 1325 723 1338 410 
C 1613 141 1926 781 1101 1414 
L 1011 1376 
z
M 5510 3616 
C 4979 2790 4224 2099 3398 1594 
L 3482 1478 
C 4371 1926 5171 2573 5734 3315 
C 5875 3290 5933 3309 5971 3373 
L 5510 3616 
z
M 3558 3168 
C 4326 3642 5024 4320 5498 4998 
C 5632 4973 5683 4992 5722 5056 
L 5254 5299 
C 4813 4538 4166 3814 3475 3277 
L 3558 3168 
z
M 378 4422 
L 1811 4422 
L 1811 3712 
L 582 3712 
L 634 3520 
L 3360 3520 
C 3450 3520 3507 3552 3526 3622 
C 3341 3795 3059 4019 3059 4019 
L 2803 3712 
L 2093 3712 
L 2093 4422 
L 3597 4422 
C 3686 4422 3750 4454 3763 4525 
C 3584 4698 3296 4922 3296 4922 
L 3053 4614 
L 2093 4614 
L 2093 5094 
C 2246 5114 2310 5178 2323 5267 
L 1811 5331 
L 1811 4614 
L 326 4614 
L 378 4422 
z
M 3654 582 
C 3181 486 2720 397 2298 320 
C 2477 602 2669 941 2790 1203 
C 2925 1203 3002 1254 3027 1331 
L 2515 1459 
C 2419 1114 2259 627 2112 282 
C 1331 134 678 13 326 -26 
L 531 -474 
C 589 -454 646 -410 672 -333 
C 1965 -13 2938 262 3674 467 
L 3654 582 
z
M 5677 1766 
C 4922 710 3904 83 2733 -371 
L 2790 -486 
C 4038 -96 5088 486 5888 1466 
C 6042 1427 6093 1446 6138 1510 
L 5677 1766 
z
" transform="scale(0.015625)"/>
       <path id="NotoSerifCJKjp-ExtraLight-58fd" d="M 902 2419 
L 960 2234 
L 5382 2234 
C 5466 2234 5523 2266 5542 2336 
C 5376 2490 5120 2682 5120 2682 
L 4896 2419 
L 3328 2419 
L 3328 2861 
L 4890 2861 
C 4973 2861 5030 2893 5050 2963 
C 4883 3117 4640 3290 4640 3290 
L 4422 3053 
L 1280 3053 
L 1331 2861 
L 3046 2861 
L 3046 2419 
L 902 2419 
z
M 5754 3821 
L 5549 3610 
L 467 3610 
L 525 3418 
L 5536 3418 
C 5440 3232 5312 3014 5216 2867 
L 5306 2816 
C 5510 2957 5766 3194 5907 3379 
C 6022 3386 6106 3398 6144 3437 
L 5754 3821 
z
M 518 4653 
L 3046 4653 
L 3046 4173 
L 1082 4173 
L 1126 3987 
L 5306 3987 
C 5395 3987 5453 4019 5472 4083 
C 5286 4262 4979 4499 4979 4499 
L 4723 4173 
L 3328 4173 
L 3328 4653 
L 5773 4653 
C 5862 4653 5920 4685 5939 4755 
C 5741 4934 5434 5178 5434 5178 
L 5165 4845 
L 3328 4845 
L 3328 5120 
C 3482 5139 3552 5203 3565 5293 
L 3046 5350 
L 3046 4845 
L 461 4845 
L 518 4653 
z
M 1114 326 
L 1114 1069 
L 2291 1069 
L 2291 326 
L 1114 326 
z
M 2234 1254 
L 1146 1254 
L 832 1408 
L 832 -307 
L 877 -307 
C 998 -307 1114 -237 1114 -211 
L 1114 141 
L 2291 141 
L 2291 -154 
L 2330 -154 
C 2419 -154 2566 -77 2573 -38 
L 2573 1024 
C 2682 1043 2778 1088 2816 1133 
L 2406 1446 
L 2234 1254 
z
M 3328 819 
C 3533 646 3763 326 3814 83 
C 4115 -141 4365 512 3405 870 
L 3328 819 
z
M 5370 1133 
L 5011 1133 
L 5011 1350 
C 5152 1376 5210 1421 5229 1504 
L 4730 1562 
L 4730 1133 
L 2912 1133 
L 2963 947 
L 4730 947 
L 4730 51 
C 4730 -38 4704 -64 4614 -64 
C 4512 -64 4038 -26 4038 -26 
L 4038 -134 
C 4243 -160 4371 -192 4448 -250 
C 4512 -307 4531 -397 4544 -486 
C 4966 -435 5011 -262 5011 19 
L 5011 947 
L 5837 947 
C 5920 947 5978 979 5997 1050 
C 5837 1203 5594 1402 5594 1402 
L 5370 1133 
z
M 5395 1869 
L 365 1869 
L 422 1677 
L 5914 1677 
C 6003 1677 6061 1709 6080 1779 
C 5901 1939 5632 2144 5632 2144 
L 5395 1869 
z
" transform="scale(0.015625)"/>
      </defs>
      <use xlink:href="#NotoSerifCJKjp-ExtraLight-67f3"/>
      <use xlink:href="#NotoSerifCJKjp-ExtraLight-5f6d" x="99.999985"/>
      <use xlink:href="#NotoSerifCJKjp-ExtraLight-58fd" x="199.999969"/>
     </g>
    </g>
    <g clip-path="url(#p6eb5580e46)">
     <!-- 別提 -->
     <g transform="translate(2220.797216 677.895484) scale(0.12 -0.12)">
      <defs>
       <path id="NotoSerifCJKjp-ExtraLight-5225" d="M 1024 3328 
L 1024 4742 
L 3021 4742 
L 3021 3328 
L 1024 3328 
z
M 3059 2886 
C 3155 2886 3296 2963 3302 3002 
L 3302 4698 
C 3418 4717 3520 4768 3558 4813 
L 3142 5126 
L 2963 4928 
L 1094 4928 
L 736 5101 
L 736 2765 
L 774 2765 
C 922 2765 1024 2842 1024 2874 
L 1024 3142 
L 1555 3142 
C 1517 1882 1395 640 230 -371 
L 320 -461 
C 1312 230 1632 1107 1760 2074 
L 3034 2074 
C 2970 909 2848 160 2682 6 
C 2618 -51 2560 -64 2445 -64 
C 2317 -64 1894 -26 1651 0 
L 1645 -122 
C 1856 -147 2099 -192 2182 -243 
C 2266 -294 2285 -378 2285 -461 
C 2496 -461 2714 -397 2854 -256 
C 3098 -26 3251 781 3309 2048 
C 3437 2067 3514 2093 3558 2138 
L 3155 2470 
L 2970 2266 
L 1779 2266 
C 1811 2554 1824 2842 1837 3142 
L 3021 3142 
L 3021 2886 
L 3059 2886 
z
M 4493 4538 
C 4653 4557 4710 4621 4730 4710 
L 4211 4774 
L 4211 755 
L 4269 755 
C 4378 755 4493 832 4493 883 
L 4493 4538 
z
M 5498 5210 
L 5498 83 
C 5498 -26 5459 -70 5325 -70 
C 5197 -70 4493 -13 4493 -13 
L 4493 -115 
C 4787 -154 4966 -186 5069 -243 
C 5152 -301 5190 -384 5216 -474 
C 5722 -416 5779 -224 5779 51 
L 5779 4973 
C 5933 4992 5997 5056 6016 5146 
L 5498 5210 
z
" transform="scale(0.015625)"/>
       <path id="NotoSerifCJKjp-ExtraLight-63d0" d="M 5261 4800 
L 5261 4154 
L 3181 4154 
L 3181 4800 
L 5261 4800 
z
M 3181 3347 
L 3181 3968 
L 5261 3968 
L 5261 3347 
L 3181 3347 
z
M 3181 3162 
L 5261 3162 
L 5261 2835 
L 5299 2835 
C 5389 2835 5536 2918 5542 2957 
L 5542 4736 
C 5670 4762 5773 4813 5818 4864 
L 5382 5197 
L 5197 4986 
L 3206 4986 
L 2893 5146 
L 2893 2810 
L 2938 2810 
C 3059 2810 3181 2880 3181 2912 
L 3181 3162 
z
M 2528 2822 
L 1594 2483 
L 1594 3699 
L 2387 3699 
C 2477 3699 2534 3731 2554 3802 
C 2381 3974 2106 4186 2106 4186 
L 1869 3891 
L 1594 3891 
L 1594 5101 
C 1747 5120 1811 5184 1830 5274 
L 1312 5331 
L 1312 3891 
L 288 3891 
L 339 3699 
L 1312 3699 
L 1312 2381 
C 832 2208 435 2074 218 2016 
L 390 1606 
C 448 1626 499 1690 512 1766 
C 800 1894 1062 2016 1312 2125 
L 1312 77 
C 1312 -26 1280 -58 1165 -58 
C 1056 -58 480 -13 480 -13 
L 480 -122 
C 717 -147 870 -179 960 -237 
C 1037 -288 1069 -378 1088 -467 
C 1542 -410 1594 -230 1594 45 
L 1594 2259 
C 1965 2438 2291 2598 2566 2726 
L 2528 2822 
z
M 4307 1171 
L 5677 1171 
C 5754 1171 5818 1203 5837 1274 
C 5658 1453 5363 1677 5363 1677 
L 5114 1363 
L 4307 1363 
L 4307 2310 
L 5894 2310 
C 5984 2310 6042 2342 6061 2406 
C 5875 2579 5594 2790 5594 2790 
L 5338 2496 
L 2406 2496 
L 2458 2310 
L 4026 2310 
L 4026 26 
C 3622 154 3341 435 3130 1030 
C 3200 1235 3258 1459 3302 1696 
C 3443 1702 3507 1766 3526 1843 
L 3021 1939 
C 2906 870 2509 109 1907 -378 
L 1990 -467 
C 2464 -186 2822 250 3059 838 
C 3405 -134 3923 -352 4794 -352 
L 5997 -352 
C 6010 -243 6067 -173 6182 -154 
L 6182 -64 
C 5837 -70 5133 -70 4819 -70 
C 4634 -70 4461 -64 4307 -38 
L 4307 1171 
z
" transform="scale(0.015625)"/>
      </defs>
      <use xlink:href="#NotoSerifCJKjp-ExtraLight-5225"/>
      <use xlink:href="#NotoSerifCJKjp-ExtraLight-63d0" x="99.999985"/>
     </g>
    </g>
   </g>
   <g id="text_25">
    <g clip-path="url(#p6eb5580e46)">
     <!-- 權慄 -->
     <g transform="translate(2440.157419 663.255484) scale(0.12 -0.12)">
      <defs>
       <path id="NotoSerifCJKjp-ExtraLight-6144" d="M 4422 4794 
L 4422 4192 
L 3654 4192 
L 3654 4794 
L 4422 4794 
z
M 5459 4006 
L 5459 2874 
L 4704 2874 
L 4704 4006 
L 5459 4006 
z
M 3654 4006 
L 4422 4006 
L 4422 2874 
L 3654 2874 
L 3654 4006 
z
M 2618 4006 
L 3373 4006 
L 3373 2874 
L 2618 2874 
L 2618 4006 
z
M 3373 4794 
L 3373 4192 
L 2650 4192 
L 2336 4352 
L 2336 2374 
L 2374 2374 
C 2496 2374 2618 2438 2618 2470 
L 2618 2688 
L 5459 2688 
L 5459 2413 
L 5498 2413 
C 5594 2413 5734 2490 5741 2528 
L 5741 3974 
C 5843 3994 5939 4032 5971 4070 
L 5581 4378 
L 5408 4192 
L 4704 4192 
L 4704 4794 
L 5984 4794 
C 6074 4794 6131 4826 6144 4890 
C 5958 5069 5664 5299 5664 5299 
L 5402 4979 
L 2054 4979 
L 2106 4794 
L 3373 4794 
z
M 634 4051 
C 659 3616 518 3091 358 2880 
C 262 2778 230 2643 301 2554 
C 397 2458 595 2547 678 2694 
C 813 2912 902 3424 749 4045 
L 634 4051 
z
M 1158 5338 
L 1158 -474 
L 1216 -474 
C 1325 -474 1446 -397 1446 -339 
L 1446 5101 
C 1600 5126 1651 5190 1670 5280 
L 1158 5338 
z
M 1581 4211 
C 1734 3942 1894 3514 1888 3187 
C 2176 2893 2515 3578 1670 4243 
L 1581 4211 
z
M 5997 1677 
C 6086 1677 6138 1709 6157 1779 
C 5978 1952 5677 2189 5677 2189 
L 5414 1869 
L 4160 1869 
L 4160 2342 
C 4320 2355 4384 2419 4397 2509 
L 3878 2573 
L 3878 1869 
L 1978 1869 
L 2029 1677 
L 3578 1677 
C 3187 973 2560 358 1786 -96 
L 1856 -198 
C 2726 211 3424 800 3878 1530 
L 3878 -486 
L 3936 -486 
C 4038 -486 4160 -410 4160 -365 
L 4160 1568 
C 4589 832 5267 218 5882 -128 
C 5933 13 6048 96 6170 109 
L 6182 173 
C 5517 454 4723 1024 4256 1677 
L 5997 1677 
z
" transform="scale(0.015625)"/>
      </defs>
      <use xlink:href="#NotoSerifCJKjp-ExtraLight-6b0a"/>
      <use xlink:href="#NotoSerifCJKjp-ExtraLight-6144" x="99.999985"/>
     </g>
    </g>
    <g clip-path="url(#p6eb5580e46)">
     <!-- 正郞 -->
     <g transform="translate(2440.157419 677.895484) scale(0.12 -0.12)">
      <defs>
       <path id="NotoSerifCJKjp-ExtraLight-6b63" d="M 5325 19 
L 3373 19 
L 3373 2374 
L 5402 2374 
C 5491 2374 5555 2406 5574 2477 
C 5370 2662 5056 2906 5056 2906 
L 4781 2566 
L 3373 2566 
L 3373 4589 
L 5741 4589 
C 5830 4589 5888 4621 5907 4691 
C 5709 4877 5382 5126 5382 5126 
L 5101 4781 
L 518 4781 
L 576 4589 
L 3091 4589 
L 3091 19 
L 1594 19 
L 1594 2989 
C 1747 3014 1811 3078 1830 3168 
L 1312 3226 
L 1312 19 
L 294 19 
L 352 -173 
L 5965 -173 
C 6054 -173 6112 -141 6131 -70 
C 5926 122 5606 365 5606 365 
L 5325 19 
z
" transform="scale(0.015625)"/>
       <path id="NotoSerifCJKjp-ExtraLight-90de" d="M 2835 4294 
L 2835 3482 
L 1069 3482 
L 1069 4294 
L 2835 4294 
z
M 1069 2451 
L 1069 3290 
L 2835 3290 
L 2835 2451 
L 1069 2451 
z
M 1722 1677 
C 1965 1440 2259 1120 2515 787 
C 1990 627 1485 467 1069 346 
L 1069 2266 
L 2835 2266 
L 2835 1984 
L 2874 1984 
C 2970 1984 3117 2067 3123 2106 
L 3123 4230 
C 3245 4256 3354 4307 3398 4358 
L 2963 4691 
L 2778 4480 
L 2080 4480 
L 2080 5088 
C 2234 5107 2304 5171 2317 5261 
L 1798 5318 
L 1798 4480 
L 1101 4480 
L 787 4646 
L 787 269 
C 576 211 403 160 275 134 
L 557 -294 
C 614 -269 659 -211 678 -141 
C 1491 192 2125 467 2598 678 
C 2797 416 2957 154 3040 -64 
C 3366 -288 3533 314 2554 1178 
C 2803 1318 3104 1498 3283 1613 
C 3405 1574 3462 1587 3488 1638 
L 3085 1958 
C 2925 1773 2669 1472 2458 1261 
C 2278 1414 2061 1574 1805 1734 
L 1722 1677 
z
M 5747 4973 
L 5517 4755 
L 4134 4755 
L 3821 4922 
L 3821 -461 
L 3878 -461 
C 4013 -461 4102 -384 4102 -339 
L 4102 4563 
L 5504 4563 
C 5274 4006 4909 3200 4685 2778 
C 5370 2208 5626 1683 5626 1197 
C 5626 902 5536 742 5370 672 
C 5299 634 5261 627 5178 627 
L 4467 627 
L 4467 512 
C 4666 499 4851 474 4909 435 
C 4973 397 4998 326 4998 218 
C 5683 256 5946 544 5939 1146 
C 5939 1651 5670 2221 4851 2797 
C 5139 3206 5613 4045 5856 4486 
C 6010 4486 6112 4499 6157 4550 
L 5747 4973 
z
" transform="scale(0.015625)"/>
      </defs>
      <use xlink:href="#NotoSerifCJKjp-ExtraLight-6b63"/>
      <use xlink:href="#NotoSerifCJKjp-ExtraLight-90de" x="99.999985"/>
     </g>
    </g>
   </g>
   <g id="text_26">
    <g clip-path="url(#p6eb5580e46)">
     <!-- 權仍 -->
     <g transform="translate(2440.157419 907.126452) scale(0.12 -0.12)">
      <defs>
       <path id="NotoSerifCJKjp-ExtraLight-4ecd" d="M 1786 5331 
C 1427 4090 819 2867 230 2099 
L 326 2029 
C 627 2349 922 2746 1190 3194 
L 1190 -467 
L 1242 -467 
C 1350 -467 1472 -384 1478 -352 
L 1478 3411 
C 1581 3424 1645 3469 1664 3526 
L 1427 3610 
C 1670 4058 1882 4544 2061 5037 
C 2202 5030 2278 5088 2304 5165 
L 1786 5331 
z
M 5709 3258 
L 5517 3046 
L 4704 3046 
C 4800 3603 4890 4211 4941 4576 
C 5069 4589 5184 4621 5229 4672 
L 4800 5024 
L 4614 4826 
L 2323 4826 
L 2374 4634 
L 3168 4634 
C 3142 3123 3066 1158 1722 -358 
L 1830 -467 
C 3328 1030 3437 3021 3482 4634 
L 4653 4634 
C 4576 4045 4435 3174 4294 2502 
C 4448 2477 4531 2483 4608 2522 
C 4627 2624 4646 2739 4672 2854 
L 5581 2854 
C 5510 1331 5370 237 5158 32 
C 5088 -32 5030 -45 4896 -45 
C 4762 -45 4275 0 4000 32 
L 3994 -96 
C 4230 -128 4512 -179 4608 -230 
C 4698 -282 4723 -371 4723 -461 
C 4960 -461 5197 -384 5350 -211 
C 5626 77 5798 1222 5856 2829 
C 5990 2842 6067 2874 6118 2925 
L 5709 3258 
z
" transform="scale(0.015625)"/>
      </defs>
      <use xlink:href="#NotoSerifCJKjp-ExtraLight-6b0a"/>
      <use xlink:href="#NotoSerifCJKjp-ExtraLight-4ecd" x="99.999985"/>
     </g>
    </g>
    <g clip-path="url(#p6eb5580e46)">
     <!--  -->
     <g transform="translate(2452.157419 921.766452) scale(0.12 -0.12)"/>
    </g>
   </g>
   <g id="text_27">
    <g clip-path="url(#p6eb5580e46)">
     <!-- 權遇 -->
     <g transform="translate(1177.760957 175.513548) scale(0.12 -0.12)">
      <defs>
       <path id="NotoSerifCJKjp-ExtraLight-9047" d="M 2778 3334 
L 2778 3994 
L 3840 3994 
L 3840 3334 
L 2778 3334 
z
M 3840 4819 
L 3840 4179 
L 2778 4179 
L 2778 4819 
L 3840 4819 
z
M 5242 4819 
L 5242 4179 
L 4122 4179 
L 4122 4819 
L 5242 4819 
z
M 4122 3334 
L 4122 3994 
L 5242 3994 
L 5242 3334 
L 4122 3334 
z
M 2470 2368 
L 3840 2368 
L 3840 1562 
C 3334 1530 2906 1504 2650 1498 
L 2880 1101 
C 2938 1120 2989 1152 3021 1235 
C 3827 1344 4422 1434 4851 1498 
C 4915 1357 4960 1216 4966 1088 
C 5261 832 5530 1549 4538 2131 
L 4461 2080 
C 4576 1965 4691 1798 4787 1626 
L 4122 1581 
L 4122 2368 
L 5549 2368 
L 5549 826 
C 5549 736 5517 698 5395 698 
C 5254 698 4608 742 4608 742 
L 4608 646 
C 4877 621 5050 576 5146 525 
C 5229 480 5267 403 5286 320 
C 5773 371 5830 544 5830 794 
L 5830 2310 
C 5958 2330 6074 2381 6112 2426 
L 5651 2771 
L 5485 2560 
L 4122 2560 
L 4122 3149 
L 5242 3149 
L 5242 2880 
L 5280 2880 
C 5370 2880 5517 2963 5523 3002 
L 5523 4755 
C 5651 4781 5754 4832 5798 4877 
L 5363 5216 
L 5178 5005 
L 2810 5005 
L 2496 5165 
L 2496 2829 
L 2541 2829 
C 2662 2829 2778 2899 2778 2931 
L 2778 3149 
L 3840 3149 
L 3840 2560 
L 2502 2560 
L 2189 2726 
L 2189 333 
L 2240 333 
C 2355 333 2470 403 2470 435 
L 2470 2368 
z
M 518 5088 
C 864 4813 1280 4314 1370 3923 
C 1754 3648 1984 4557 595 5146 
L 518 5088 
z
M 1478 2387 
C 1645 2413 1741 2464 1779 2502 
L 1318 2899 
L 1114 2630 
L 294 2630 
L 333 2438 
L 1197 2438 
L 1197 544 
C 864 314 486 70 256 -51 
L 525 -448 
C 576 -416 602 -378 582 -301 
C 800 -115 1158 237 1389 486 
C 1856 -173 2387 -307 3552 -307 
L 5894 -307 
C 5914 -166 6003 -90 6150 -70 
L 6150 26 
C 5370 0 4326 0 3546 0 
C 2451 0 1939 83 1478 621 
L 1478 2387 
z
" transform="scale(0.015625)"/>
      </defs>
      <use xlink:href="#NotoSerifCJKjp-ExtraLight-6b0a"/>
      <use xlink:href="#NotoSerifCJKjp-ExtraLight-9047" x="99.999985"/>
     </g>
    </g>
    <g clip-path="url(#p6eb5580e46)">
     <!-- 藝文提學 -->
     <g transform="translate(1165.760957 190.153548) scale(0.12 -0.12)">
      <defs>
       <path id="NotoSerifCJKjp-ExtraLight-85dd" d="M 2208 4627 
L 2208 4243 
L 2253 4243 
C 2355 4243 2490 4282 2490 4326 
L 2490 4627 
L 3923 4627 
L 3923 4250 
L 3974 4250 
C 4026 4250 4070 4262 4102 4275 
C 4102 4090 4096 3910 4090 3738 
L 3251 3738 
L 3309 3552 
L 4077 3552 
C 4064 3354 4032 3162 3987 2982 
C 3821 3053 3616 3130 3379 3200 
L 3328 3098 
C 3546 2995 3744 2880 3917 2765 
C 3770 2355 3494 1990 2976 1683 
L 3066 1581 
C 3635 1869 3955 2221 4134 2605 
C 4346 2445 4506 2285 4589 2163 
C 4845 2035 4992 2438 4237 2854 
C 4307 3085 4346 3315 4365 3552 
L 4954 3552 
C 4979 2682 5101 1907 5542 1555 
C 5709 1440 5933 1370 6010 1485 
C 6048 1549 6016 1606 5920 1715 
L 5984 2342 
L 5901 2349 
C 5850 2182 5792 2010 5741 1882 
C 5715 1824 5702 1811 5651 1850 
C 5338 2086 5235 2880 5242 3514 
C 5357 3526 5440 3565 5478 3603 
L 5088 3942 
L 4896 3738 
L 4378 3738 
C 4384 3859 4384 3981 4390 4102 
C 4518 4122 4570 4186 4582 4262 
L 4173 4307 
C 4192 4320 4205 4339 4205 4352 
L 4205 4627 
L 5914 4627 
C 6003 4627 6067 4659 6080 4730 
C 5888 4902 5587 5139 5587 5139 
L 5312 4819 
L 4205 4819 
L 4205 5146 
C 4365 5165 4422 5229 4435 5312 
L 3923 5370 
L 3923 4819 
L 2490 4819 
L 2490 5146 
C 2650 5165 2707 5229 2720 5312 
L 2208 5370 
L 2208 4819 
L 358 4819 
L 397 4627 
L 2208 4627 
z
M 678 1344 
C 736 1357 794 1395 826 1472 
C 1773 1613 2490 1741 3040 1837 
L 3027 1952 
L 1933 1837 
L 1933 2176 
L 2822 2176 
C 2912 2176 2970 2208 2982 2278 
C 2829 2413 2598 2579 2598 2579 
L 2394 2362 
L 1933 2362 
L 1933 2611 
C 2022 2630 2067 2662 2080 2720 
C 2118 2656 2202 2630 2355 2630 
L 2630 2630 
C 3110 2630 3213 2682 3213 2797 
C 3213 2854 3187 2880 3085 2912 
L 3072 3200 
L 2995 3200 
C 2963 3072 2925 2944 2893 2906 
C 2880 2880 2861 2874 2829 2874 
L 2637 2874 
L 2419 2874 
C 2336 2874 2323 2880 2323 2944 
L 2323 3238 
L 3072 3238 
C 3155 3238 3206 3270 3226 3341 
C 3072 3488 2829 3654 2829 3654 
L 2630 3430 
L 1933 3430 
L 1933 3770 
L 2829 3770 
C 2918 3770 2976 3802 2989 3872 
C 2835 4019 2605 4179 2605 4179 
L 2394 3962 
L 1933 3962 
L 1933 4147 
C 2048 4166 2099 4218 2112 4294 
L 1645 4352 
L 1645 3962 
L 678 3962 
L 723 3770 
L 1645 3770 
L 1645 3430 
L 371 3430 
L 422 3238 
L 1267 3238 
C 1158 2893 922 2669 448 2509 
L 493 2394 
C 1050 2515 1421 2752 1574 3238 
L 2048 3238 
L 2048 2880 
C 2048 2829 2054 2784 2067 2746 
L 1645 2790 
L 1645 2362 
L 762 2362 
L 813 2176 
L 1645 2176 
L 1645 1811 
C 1171 1760 774 1728 538 1715 
L 678 1344 
z
M 4435 1459 
L 1382 1459 
L 1434 1267 
L 4973 1267 
C 5056 1267 5120 1299 5133 1370 
C 4954 1530 4678 1734 4678 1734 
L 4435 1459 
z
M 5363 851 
L 365 851 
L 422 666 
L 2368 666 
C 2208 448 1990 211 1792 19 
C 1370 6 1024 -6 774 -6 
L 973 -410 
C 1030 -397 1094 -352 1120 -282 
C 2618 -179 3750 -83 4602 6 
C 4883 -173 5101 -339 5229 -474 
C 5562 -602 5722 51 3795 557 
L 3750 448 
C 3974 352 4192 243 4384 134 
C 3539 90 2733 58 2067 32 
C 2285 205 2534 442 2739 666 
L 5926 666 
C 6016 666 6074 691 6093 762 
C 5901 928 5619 1139 5619 1139 
L 5363 851 
z
" transform="scale(0.015625)"/>
       <path id="NotoSerifCJKjp-ExtraLight-6587" d="M 4570 3821 
C 4307 2886 3866 2067 3206 1389 
C 2547 2035 2067 2848 1786 3821 
L 4570 3821 
z
M 5939 3821 
C 6029 3821 6086 3853 6106 3923 
C 5907 4102 5594 4352 5594 4352 
L 5312 4013 
L 3341 4013 
L 3341 5107 
C 3494 5126 3565 5190 3578 5280 
L 3059 5338 
L 3059 4013 
L 314 4013 
L 371 3821 
L 1632 3821 
C 1894 2758 2355 1875 3002 1184 
C 2317 538 1427 19 307 -365 
L 358 -467 
C 1536 -122 2464 365 3187 992 
C 3872 320 4736 -160 5779 -474 
C 5843 -326 5984 -243 6131 -243 
L 6150 -173 
C 5062 96 4141 557 3411 1197 
C 4141 1907 4640 2778 4947 3821 
L 5939 3821 
z
" transform="scale(0.015625)"/>
       <path id="NotoSerifCJKjp-ExtraLight-5b78" d="M 3642 4205 
C 3565 4077 3462 3942 3341 3814 
C 3200 3891 3021 3968 2797 4032 
L 2739 3962 
C 2880 3885 3040 3776 3187 3654 
C 2989 3469 2765 3302 2547 3168 
L 2618 3066 
C 2867 3181 3123 3334 3354 3501 
C 3462 3386 3546 3270 3590 3155 
C 3814 3027 3930 3347 3552 3661 
C 3661 3763 3757 3866 3834 3962 
C 3942 3930 4013 3942 4045 4006 
L 3642 4205 
z
M 2598 4192 
C 2835 4301 3078 4454 3290 4614 
C 3398 4512 3488 4410 3546 4320 
C 3744 4218 3853 4493 3475 4774 
C 3571 4858 3654 4947 3718 5030 
C 3827 4998 3904 5011 3936 5075 
L 3533 5280 
C 3462 5158 3366 5030 3251 4909 
C 3130 4973 2970 5037 2778 5088 
L 2714 5011 
C 2842 4947 2976 4858 3110 4762 
C 2931 4582 2726 4422 2528 4294 
L 2598 4192 
z
M 5446 2810 
C 5363 2624 5254 2400 5178 2272 
L 5274 2221 
C 5453 2355 5715 2598 5850 2771 
C 5971 2771 6048 2778 6093 2822 
L 5677 3226 
L 5453 3002 
L 5197 3002 
L 5331 4819 
C 5434 4832 5491 4845 5530 4883 
L 5178 5216 
L 4998 5018 
L 4051 5018 
L 4109 4832 
L 5043 4832 
L 5005 4352 
L 4096 4352 
L 4154 4160 
L 4992 4160 
L 4954 3674 
L 4090 3674 
L 4147 3488 
L 4941 3488 
L 4902 3002 
L 1485 3002 
L 1466 3488 
L 2355 3488 
C 2432 3488 2490 3520 2509 3590 
C 2362 3731 2144 3910 2144 3910 
L 1946 3674 
L 1459 3674 
L 1434 4160 
L 2310 4160 
C 2387 4160 2445 4192 2464 4262 
C 2330 4410 2106 4576 2106 4576 
L 1926 4352 
L 1427 4352 
L 1402 4826 
C 1741 4877 2093 4973 2317 5043 
C 2394 5011 2458 5018 2483 5050 
L 2131 5344 
C 1984 5254 1741 5120 1504 5005 
L 1101 5139 
L 1197 3002 
L 947 3002 
C 941 3072 934 3142 922 3219 
L 819 3219 
C 800 2790 557 2509 416 2419 
C 102 2227 326 1946 621 2118 
C 813 2234 934 2477 954 2810 
L 5446 2810 
z
M 5254 1178 
L 3347 1178 
L 3347 1414 
C 3494 1440 3552 1485 3571 1568 
L 3552 1568 
C 3968 1696 4410 1894 4717 2048 
C 4845 2054 4928 2067 4979 2106 
L 4576 2483 
L 4352 2266 
L 1472 2266 
L 1523 2074 
L 4186 2074 
C 3955 1907 3667 1728 3392 1594 
L 3066 1632 
L 3066 1178 
L 371 1178 
L 429 992 
L 3066 992 
L 3066 51 
C 3066 -51 3034 -83 2906 -83 
C 2778 -83 2080 -38 2080 -38 
L 2080 -141 
C 2368 -173 2547 -211 2643 -262 
C 2733 -314 2771 -397 2784 -486 
C 3290 -435 3347 -250 3347 26 
L 3347 992 
L 5850 992 
C 5939 992 5997 1024 6016 1088 
C 5824 1274 5517 1510 5517 1510 
L 5254 1178 
z
" transform="scale(0.015625)"/>
      </defs>
      <use xlink:href="#NotoSerifCJKjp-ExtraLight-85dd"/>
      <use xlink:href="#NotoSerifCJKjp-ExtraLight-6587" x="99.999985"/>
      <use xlink:href="#NotoSerifCJKjp-ExtraLight-63d0" x="199.999969"/>
      <use xlink:href="#NotoSerifCJKjp-ExtraLight-5b78" x="299.999954"/>
     </g>
    </g>
   </g>
  </g>
 </g>
 <defs>
  <clipPath id="p6eb5580e46">
   <rect x="360" y="129.6" width="2232" height="831.6"/>
  </clipPath>
 </defs>
</svg>
