<?xml version="1.0" encoding="utf-8" standalone="no"?>
<!DOCTYPE svg PUBLIC "-//W3C//DTD SVG 1.1//EN"
  "http://www.w3.org/Graphics/SVG/1.1/DTD/svg11.dtd">
<svg xmlns:xlink="http://www.w3.org/1999/xlink" width="2880pt" height="1080pt" viewBox="0 0 2880 1080" xmlns="http://www.w3.org/2000/svg" version="1.1">
 <metadata>
  <rdf:RDF xmlns:dc="http://purl.org/dc/elements/1.1/" xmlns:cc="http://creativecommons.org/ns#" xmlns:rdf="http://www.w3.org/1999/02/22-rdf-syntax-ns#">
   <cc:Work>
    <dc:type rdf:resource="http://purl.org/dc/dcmitype/StillImage"/>
    <dc:date>2025-06-20T00:23:31.778843</dc:date>
    <dc:format>image/svg+xml</dc:format>
    <dc:creator>
     <cc:Agent>
      <dc:title>Matplotlib v3.9.4, https://matplotlib.org/</dc:title>
     </cc:Agent>
    </dc:creator>
   </cc:Work>
  </rdf:RDF>
 </metadata>
 <defs>
  <style type="text/css">*{stroke-linejoin: round; stroke-linecap: butt}</style>
 </defs>
 <g id="figure_1">
  <g id="patch_1">
   <path d="M 0 1080 
L 2880 1080 
L 2880 0 
L 0 0 
z
" style="fill: #ffffff"/>
  </g>
  <g id="axes_1">
   <g id="patch_2">
    <path d="M 920.770485 549.445953 
Q 671.111984 682.229142 490.678554 897.043108 
" clip-path="url(#pc61cfb4d40)" style="fill: none; stroke: #000000; stroke-width: 2; stroke-linecap: round"/>
    <path d="M 494.782682 895.266558 
L 490.678554 897.043108 
L 491.71979 892.693875 
z
" clip-path="url(#pc61cfb4d40)" style="stroke: #000000; stroke-width: 2; stroke-linecap: round"/>
   </g>
   <g id="patch_3">
    <path d="M 922.546252 551.756314 
Q 782.665221 704.038896 709.910349 895.202912 
" clip-path="url(#pc61cfb4d40)" style="fill: none; stroke: #000000; stroke-width: 2; stroke-linecap: round"/>
    <path d="M 713.202345 892.175906 
L 709.910349 895.202912 
L 709.463942 890.753112 
z
" clip-path="url(#pc61cfb4d40)" style="stroke: #000000; stroke-width: 2; stroke-linecap: round"/>
   </g>
   <g id="patch_4">
    <path d="M 926.770472 553.900671 
Q 894.090233 725.401139 926.352339 894.705064 
" clip-path="url(#pc61cfb4d40)" style="fill: none; stroke: #000000; stroke-width: 2; stroke-linecap: round"/>
    <path d="M 927.568231 890.40139 
L 926.352339 894.705064 
L 923.638935 891.150146 
z
" clip-path="url(#pc61cfb4d40)" style="stroke: #000000; stroke-width: 2; stroke-linecap: round"/>
   </g>
   <g id="patch_5">
    <path d="M 931.48008 553.507187 
Q 1005.030305 746.761041 1143.398662 897.396859 
" clip-path="url(#pc61cfb4d40)" style="fill: none; stroke: #000000; stroke-width: 2; stroke-linecap: round"/>
    <path d="M 1142.165648 893.09806 
L 1143.398662 897.396859 
L 1139.219814 895.803991 
z
" clip-path="url(#pc61cfb4d40)" style="stroke: #000000; stroke-width: 2; stroke-linecap: round"/>
   </g>
   <g id="patch_6">
    <path d="M 1589.641622 551.756314 
Q 1449.760591 704.038896 1377.00572 895.202912 
" clip-path="url(#pc61cfb4d40)" style="fill: none; stroke: #000000; stroke-width: 2; stroke-linecap: round"/>
    <path d="M 1380.297716 892.175906 
L 1377.00572 895.202912 
L 1376.559313 890.753112 
z
" clip-path="url(#pc61cfb4d40)" style="stroke: #000000; stroke-width: 2; stroke-linecap: round"/>
   </g>
   <g id="patch_7">
    <path d="M 1593.865843 553.900671 
Q 1561.185604 725.401139 1593.44771 894.705064 
" clip-path="url(#pc61cfb4d40)" style="fill: none; stroke: #000000; stroke-width: 2; stroke-linecap: round"/>
    <path d="M 1594.663601 890.40139 
L 1593.44771 894.705064 
L 1590.734306 891.150146 
z
" clip-path="url(#pc61cfb4d40)" style="stroke: #000000; stroke-width: 2; stroke-linecap: round"/>
   </g>
   <g id="patch_8">
    <path d="M 1598.575451 553.507187 
Q 1672.125676 746.761041 1810.494033 897.396859 
" clip-path="url(#pc61cfb4d40)" style="fill: none; stroke: #000000; stroke-width: 2; stroke-linecap: round"/>
    <path d="M 1809.261019 893.09806 
L 1810.494033 897.396859 
L 1806.315185 895.803991 
z
" clip-path="url(#pc61cfb4d40)" style="stroke: #000000; stroke-width: 2; stroke-linecap: round"/>
   </g>
   <g id="patch_9">
    <path d="M 2369.707789 193.031302 
Q 2283.8 354.772401 2263.789077 534.566381 
" clip-path="url(#pc61cfb4d40)" style="fill: none; stroke: #000000; stroke-width: 2; stroke-linecap: round"/>
    <path d="M 2266.219268 530.812161 
L 2263.789077 534.566381 
L 2262.243816 530.369696 
z
" clip-path="url(#pc61cfb4d40)" style="stroke: #000000; stroke-width: 2; stroke-linecap: round"/>
   </g>
   <g id="patch_10">
    <path d="M 2374.724373 194.011984 
Q 2394.982769 376.028271 2479.841786 535.794537 
" clip-path="url(#pc61cfb4d40)" style="fill: none; stroke: #000000; stroke-width: 2; stroke-linecap: round"/>
    <path d="M 2479.731763 531.323754 
L 2479.841786 535.794537 
L 2476.199146 533.200085 
z
" clip-path="url(#pc61cfb4d40)" style="stroke: #000000; stroke-width: 2; stroke-linecap: round"/>
   </g>
   <g id="patch_11">
    <path d="M 1587.254218 187.955307 
Q 1226.776784 300.168199 936.835911 538.467465 
" clip-path="url(#pc61cfb4d40)" style="fill: none; stroke: #000000; stroke-width: 2; stroke-linecap: round"/>
    <path d="M 941.196021 537.472761 
L 936.835911 538.467465 
L 938.656214 534.382554 
z
" clip-path="url(#pc61cfb4d40)" style="stroke: #000000; stroke-width: 2; stroke-linecap: round"/>
   </g>
   <g id="patch_12">
    <path d="M 1593.865843 193.900671 
Q 1561.185604 365.401139 1593.44771 534.705064 
" clip-path="url(#pc61cfb4d40)" style="fill: none; stroke: #000000; stroke-width: 2; stroke-linecap: round"/>
    <path d="M 1594.663601 530.40139 
L 1593.44771 534.705064 
L 1590.734306 531.150146 
z
" clip-path="url(#pc61cfb4d40)" style="stroke: #000000; stroke-width: 2; stroke-linecap: round"/>
   </g>
   <g id="patch_13">
    <path d="M 1601.078415 192.049212 
Q 1782.9465 408.573685 2030.627281 540.306802 
" clip-path="url(#pc61cfb4d40)" style="fill: none; stroke: #000000; stroke-width: 2; stroke-linecap: round"/>
    <path d="M 2028.03488 536.662703 
L 2030.627281 540.306802 
L 2026.156562 540.194264 
z
" clip-path="url(#pc61cfb4d40)" style="stroke: #000000; stroke-width: 2; stroke-linecap: round"/>
   </g>
   <g id="patch_14">
    <path d="M 2038.59609 553.900671 
Q 2005.915851 725.401139 2038.177957 894.705064 
" clip-path="url(#pc61cfb4d40)" style="fill: none; stroke: #000000; stroke-width: 2; stroke-linecap: round"/>
    <path d="M 2039.393849 890.40139 
L 2038.177957 894.705064 
L 2035.464553 891.150146 
z
" clip-path="url(#pc61cfb4d40)" style="stroke: #000000; stroke-width: 2; stroke-linecap: round"/>
   </g>
   <g id="patch_15">
    <path d="M 2043.305698 553.507187 
Q 2116.855923 746.761041 2255.22428 897.396859 
" clip-path="url(#pc61cfb4d40)" style="fill: none; stroke: #000000; stroke-width: 2; stroke-linecap: round"/>
    <path d="M 2253.991266 893.09806 
L 2255.22428 897.396859 
L 2251.045432 895.803991 
z
" clip-path="url(#pc61cfb4d40)" style="stroke: #000000; stroke-width: 2; stroke-linecap: round"/>
   </g>
   <g id="text_1">
    <g id="patch_16">
     <path d="M 709.841954 735.153554 
L 714.813067 731.129619 
Q 717.611231 728.864608 715.346219 726.066444 
L 707.343177 716.179598 
Q 705.078165 713.381434 702.280001 715.646446 
L 697.308888 719.670381 
Q 694.510724 721.935392 696.775736 724.733556 
L 704.778778 734.620402 
Q 707.04379 737.418566 709.841954 735.153554 
z
" clip-path="url(#pc61cfb4d40)" style="fill: #ffffff; stroke: #ffffff; stroke-linejoin: miter"/>
    </g>
    <g clip-path="url(#pc61cfb4d40)">
     <!-- 4 -->
     <g transform="translate(705.613932 729.930315) rotate(-38.98891) scale(0.12 -0.12)">
      <defs>
       <path id="NotoSerifCJKjp-ExtraLight-34" d="M 480 1805 
L 2163 4224 
L 2163 1805 
L 480 1805 
z
M 3309 1805 
L 2528 1805 
L 2528 4685 
L 2272 4685 
L 211 1747 
L 211 1510 
L 2163 1510 
L 2163 0 
L 2528 0 
L 2528 1510 
L 3309 1510 
L 3309 1805 
z
" transform="scale(0.015625)"/>
      </defs>
      <use xlink:href="#NotoSerifCJKjp-ExtraLight-34"/>
     </g>
    </g>
   </g>
   <g id="text_2">
    <g id="patch_17">
     <path d="M 824.041225 733.354768 
L 827.402214 727.913465 
Q 829.294063 724.850639 826.231237 722.958789 
L 815.40925 716.274255 
Q 812.346423 714.382406 810.454574 717.445232 
L 807.093585 722.886535 
Q 805.201736 725.949361 808.264562 727.841211 
L 819.086549 734.525745 
Q 822.149376 736.417594 824.041225 733.354768 
z
" clip-path="url(#pc61cfb4d40)" style="fill: #ffffff; stroke: #ffffff; stroke-linejoin: miter"/>
    </g>
    <g clip-path="url(#pc61cfb4d40)">
     <!-- 2 -->
     <g transform="translate(818.323949 729.823316) rotate(-58.297167) scale(0.12 -0.12)">
      <defs>
       <path id="NotoSerifCJKjp-ExtraLight-32" d="M 646 358 
C 1069 838 1472 1299 1645 1491 
C 2560 2515 2886 2970 2886 3520 
C 2886 4250 2458 4717 1638 4717 
C 1024 4717 486 4397 326 3821 
C 371 3725 454 3667 550 3667 
C 672 3667 755 3750 819 3949 
L 1005 4422 
C 1197 4499 1363 4525 1542 4525 
C 2144 4525 2483 4096 2483 3514 
C 2483 2995 2214 2547 1536 1715 
C 1222 1344 787 806 339 275 
L 339 0 
L 3104 0 
L 3104 358 
L 646 358 
z
" transform="scale(0.015625)"/>
      </defs>
      <use xlink:href="#NotoSerifCJKjp-ExtraLight-32"/>
     </g>
    </g>
   </g>
   <g id="text_3">
    <g id="patch_18">
     <path d="M 918.470461 722.202188 
L 918.470461 728.597813 
Q 918.470461 732.197813 922.070461 732.197813 
L 934.790461 732.197813 
Q 938.390461 732.197813 938.390461 728.597813 
L 938.390461 722.202188 
Q 938.390461 718.602188 934.790461 718.602188 
L 922.070461 718.602188 
Q 918.470461 718.602188 918.470461 722.202188 
z
" clip-path="url(#pc61cfb4d40)" style="fill: #ffffff; stroke: #ffffff; stroke-linejoin: miter"/>
    </g>
    <g clip-path="url(#pc61cfb4d40)">
     <!-- 3 -->
     <g transform="translate(925.190461 722.202188) rotate(-270) scale(0.12 -0.12)">
      <defs>
       <path id="NotoSerifCJKjp-ExtraLight-33" d="M 1062 4435 
C 1242 4499 1408 4525 1594 4525 
C 2176 4525 2496 4166 2496 3584 
C 2496 2918 2035 2541 1402 2541 
L 1126 2541 
L 1126 2330 
L 1434 2330 
C 2234 2330 2637 1920 2637 1229 
C 2637 557 2221 102 1498 102 
C 1286 102 1107 141 941 211 
L 787 659 
C 730 845 659 928 531 928 
C 422 928 339 864 301 755 
C 461 186 928 -90 1587 -90 
C 2426 -90 3040 410 3040 1203 
C 3040 1869 2656 2330 1901 2445 
C 2541 2605 2899 3059 2899 3597 
C 2899 4262 2426 4717 1664 4717 
C 1107 4717 570 4480 429 3885 
C 461 3776 544 3731 640 3731 
C 774 3731 845 3795 909 3981 
L 1062 4435 
z
" transform="scale(0.015625)"/>
      </defs>
      <use xlink:href="#NotoSerifCJKjp-ExtraLight-33"/>
     </g>
    </g>
   </g>
   <g id="text_4">
    <g id="patch_19">
     <path d="M 1029.458709 727.913465 
L 1032.819697 733.354768 
Q 1034.711547 736.417594 1037.774373 734.525745 
L 1048.59636 727.841211 
Q 1051.659187 725.949361 1049.767337 722.886535 
L 1046.406349 717.445232 
Q 1044.514499 714.382406 1041.451673 716.274255 
L 1030.629686 722.958789 
Q 1027.566859 724.850639 1029.458709 727.913465 
z
" clip-path="url(#pc61cfb4d40)" style="fill: #ffffff; stroke: #ffffff; stroke-linejoin: miter"/>
    </g>
    <g clip-path="url(#pc61cfb4d40)">
     <!-- 1 -->
     <g transform="translate(1035.175985 724.382013) rotate(-301.702833) scale(0.12 -0.12)">
      <defs>
       <path id="NotoSerifCJKjp-ExtraLight-31" d="M 1997 250 
C 1990 659 1984 1062 1984 1459 
L 1984 3616 
L 2010 4614 
L 1914 4691 
L 614 4346 
L 614 4160 
L 1600 4333 
L 1600 1459 
C 1600 1062 1594 653 1587 250 
L 544 173 
L 544 0 
L 3002 0 
L 3002 173 
L 1997 250 
z
" transform="scale(0.015625)"/>
      </defs>
      <use xlink:href="#NotoSerifCJKjp-ExtraLight-31"/>
     </g>
    </g>
   </g>
   <g id="text_5">
    <g id="patch_20">
     <path d="M 1491.136596 733.354768 
L 1494.497584 727.913465 
Q 1496.389434 724.850639 1493.326607 722.95879 
L 1482.504621 716.274255 
Q 1479.441794 714.382406 1477.549945 717.445232 
L 1474.188956 722.886535 
Q 1472.297107 725.949361 1475.359933 727.84121 
L 1486.18192 734.525745 
Q 1489.244746 736.417594 1491.136596 733.354768 
z
" clip-path="url(#pc61cfb4d40)" style="fill: #ffffff; stroke: #ffffff; stroke-linejoin: miter"/>
    </g>
    <g clip-path="url(#pc61cfb4d40)">
     <!-- 2 -->
     <g transform="translate(1485.41932 729.823316) rotate(-58.297167) scale(0.12 -0.12)">
      <use xlink:href="#NotoSerifCJKjp-ExtraLight-32"/>
     </g>
    </g>
   </g>
   <g id="text_6">
    <g id="patch_21">
     <path d="M 1585.565832 722.202188 
L 1585.565832 728.597813 
Q 1585.565832 732.197813 1589.165832 732.197813 
L 1601.885832 732.197813 
Q 1605.485832 732.197813 1605.485832 728.597813 
L 1605.485832 722.202188 
Q 1605.485832 718.602188 1601.885832 718.602188 
L 1589.165832 718.602188 
Q 1585.565832 718.602188 1585.565832 722.202188 
z
" clip-path="url(#pc61cfb4d40)" style="fill: #ffffff; stroke: #ffffff; stroke-linejoin: miter"/>
    </g>
    <g clip-path="url(#pc61cfb4d40)">
     <!-- 1 -->
     <g transform="translate(1592.285832 722.202188) rotate(-270) scale(0.12 -0.12)">
      <use xlink:href="#NotoSerifCJKjp-ExtraLight-31"/>
     </g>
    </g>
   </g>
   <g id="text_7">
    <g id="patch_22">
     <path d="M 1696.55408 727.913465 
L 1699.915068 733.354768 
Q 1701.806918 736.417594 1704.869744 734.525745 
L 1715.691731 727.84121 
Q 1718.754557 725.949361 1716.862708 722.886535 
L 1713.501719 717.445232 
Q 1711.60987 714.382406 1708.547043 716.274255 
L 1697.725057 722.95879 
Q 1694.66223 724.850639 1696.55408 727.913465 
z
" clip-path="url(#pc61cfb4d40)" style="fill: #ffffff; stroke: #ffffff; stroke-linejoin: miter"/>
    </g>
    <g clip-path="url(#pc61cfb4d40)">
     <!-- 3 -->
     <g transform="translate(1702.271356 724.382013) rotate(-301.702833) scale(0.12 -0.12)">
      <use xlink:href="#NotoSerifCJKjp-ExtraLight-33"/>
     </g>
    </g>
   </g>
   <g id="text_8">
    <g id="patch_23">
     <path d="M 2326.785331 371.394489 
L 2328.672602 365.28366 
Q 2329.734918 361.843968 2326.295226 360.781652 
L 2314.141645 357.028135 
Q 2310.701953 355.965818 2309.639637 359.405511 
L 2307.752366 365.51634 
Q 2306.69005 368.956032 2310.129742 370.018348 
L 2322.283322 373.771865 
Q 2325.723015 374.834182 2326.785331 371.394489 
z
" clip-path="url(#pc61cfb4d40)" style="fill: #ffffff; stroke: #ffffff; stroke-linejoin: miter"/>
    </g>
    <g clip-path="url(#pc61cfb4d40)">
     <!-- 7 -->
     <g transform="translate(2320.364571 369.411499) rotate(-72.837196) scale(0.12 -0.12)">
      <defs>
       <path id="NotoSerifCJKjp-ExtraLight-37" d="M 333 4627 
L 333 4275 
L 2758 4275 
L 941 38 
L 992 0 
L 1350 0 
L 3027 4397 
L 3027 4627 
L 333 4627 
z
" transform="scale(0.015625)"/>
      </defs>
      <use xlink:href="#NotoSerifCJKjp-ExtraLight-37"/>
     </g>
    </g>
   </g>
   <g id="text_9">
    <g id="patch_24">
     <path d="M 2418.934927 365.28366 
L 2420.822199 371.394489 
Q 2421.884515 374.834182 2425.324207 373.771865 
L 2437.477787 370.018348 
Q 2440.91748 368.956032 2439.855164 365.51634 
L 2437.967893 359.405511 
Q 2436.905576 355.965818 2433.465884 357.028135 
L 2421.312304 360.781652 
Q 2417.872611 361.843968 2418.934927 365.28366 
z
" clip-path="url(#pc61cfb4d40)" style="fill: #ffffff; stroke: #ffffff; stroke-linejoin: miter"/>
    </g>
    <g clip-path="url(#pc61cfb4d40)">
     <!-- 6 -->
     <g transform="translate(2425.355687 363.30067) rotate(-287.162804) scale(0.12 -0.12)">
      <defs>
       <path id="NotoSerifCJKjp-ExtraLight-36" d="M 1754 102 
C 1094 102 730 794 730 1856 
C 730 1926 730 1997 736 2061 
C 1069 2426 1402 2560 1766 2560 
C 2330 2560 2688 2150 2688 1357 
C 2688 557 2285 102 1754 102 
z
M 2963 4717 
C 1306 4512 326 3238 326 1811 
C 326 653 851 -90 1741 -90 
C 2515 -90 3091 499 3091 1408 
C 3091 2266 2611 2803 1862 2803 
C 1440 2803 1069 2630 755 2272 
C 896 3437 1645 4314 2995 4582 
L 2963 4717 
z
" transform="scale(0.015625)"/>
      </defs>
      <use xlink:href="#NotoSerifCJKjp-ExtraLight-36"/>
     </g>
    </g>
   </g>
   <g id="text_10">
    <g id="patch_25">
     <path d="M 1263.894094 375.68381 
L 1269.522455 372.646448 
Q 1272.690574 370.936763 1270.980889 367.768644 
L 1264.940003 356.574624 
Q 1263.230318 353.406505 1260.062199 355.11619 
L 1254.433838 358.153552 
Q 1251.265719 359.863237 1252.975404 363.031356 
L 1259.01629 374.225376 
Q 1260.725975 377.393495 1263.894094 375.68381 
z
" clip-path="url(#pc61cfb4d40)" style="fill: #ffffff; stroke: #ffffff; stroke-linejoin: miter"/>
    </g>
    <g clip-path="url(#pc61cfb4d40)">
     <!-- 4 -->
     <g transform="translate(1260.702682 369.769988) rotate(-28.35365) scale(0.12 -0.12)">
      <use xlink:href="#NotoSerifCJKjp-ExtraLight-34"/>
     </g>
    </g>
   </g>
   <g id="text_11">
    <g id="patch_26">
     <path d="M 1585.565832 362.202187 
L 1585.565832 368.597812 
Q 1585.565832 372.197812 1589.165832 372.197812 
L 1601.885832 372.197812 
Q 1605.485832 372.197812 1605.485832 368.597812 
L 1605.485832 362.202187 
Q 1605.485832 358.602187 1601.885832 358.602187 
L 1589.165832 358.602187 
Q 1585.565832 358.602187 1585.565832 362.202187 
z
" clip-path="url(#pc61cfb4d40)" style="fill: #ffffff; stroke: #ffffff; stroke-linejoin: miter"/>
    </g>
    <g clip-path="url(#pc61cfb4d40)">
     <!-- 2 -->
     <g transform="translate(1592.285832 362.202187) rotate(-270) scale(0.12 -0.12)">
      <use xlink:href="#NotoSerifCJKjp-ExtraLight-32"/>
     </g>
    </g>
   </g>
   <g id="text_12">
    <g id="patch_27">
     <path d="M 1809.138811 371.129535 
L 1814.109886 375.153518 
Q 1816.908028 377.418557 1819.173067 374.620415 
L 1827.176203 364.733645 
Q 1829.441242 361.935503 1826.6431 359.670465 
L 1821.672025 355.646482 
Q 1818.873883 353.381443 1816.608844 356.179585 
L 1808.605708 366.066355 
Q 1806.340669 368.864497 1809.138811 371.129535 
z
" clip-path="url(#pc61cfb4d40)" style="fill: #ffffff; stroke: #ffffff; stroke-linejoin: miter"/>
    </g>
    <g clip-path="url(#pc61cfb4d40)">
     <!-- 3 -->
     <g transform="translate(1813.366884 365.906337) rotate(-321.010541) scale(0.12 -0.12)">
      <use xlink:href="#NotoSerifCJKjp-ExtraLight-33"/>
     </g>
    </g>
   </g>
   <g id="text_13">
    <g id="patch_28">
     <path d="M 2030.296079 722.202188 
L 2030.296079 728.597813 
Q 2030.296079 732.197813 2033.896079 732.197813 
L 2046.616079 732.197813 
Q 2050.216079 732.197813 2050.216079 728.597813 
L 2050.216079 722.202188 
Q 2050.216079 718.602188 2046.616079 718.602188 
L 2033.896079 718.602188 
Q 2030.296079 718.602188 2030.296079 722.202188 
z
" clip-path="url(#pc61cfb4d40)" style="fill: #ffffff; stroke: #ffffff; stroke-linejoin: miter"/>
    </g>
    <g clip-path="url(#pc61cfb4d40)">
     <!-- 1 -->
     <g transform="translate(2037.016079 722.202188) rotate(-270) scale(0.12 -0.12)">
      <use xlink:href="#NotoSerifCJKjp-ExtraLight-31"/>
     </g>
    </g>
   </g>
   <g id="text_14">
    <g id="patch_29">
     <path d="M 2141.284327 727.913465 
L 2144.645316 733.354768 
Q 2146.537165 736.417594 2149.599991 734.525745 
L 2160.421978 727.84121 
Q 2163.484805 725.949361 2161.592955 722.886535 
L 2158.231967 717.445232 
Q 2156.340117 714.382406 2153.277291 716.274255 
L 2142.455304 722.95879 
Q 2139.392477 724.850639 2141.284327 727.913465 
z
" clip-path="url(#pc61cfb4d40)" style="fill: #ffffff; stroke: #ffffff; stroke-linejoin: miter"/>
    </g>
    <g clip-path="url(#pc61cfb4d40)">
     <!-- 2 -->
     <g transform="translate(2147.001603 724.382013) rotate(-301.702833) scale(0.12 -0.12)">
      <use xlink:href="#NotoSerifCJKjp-ExtraLight-32"/>
     </g>
    </g>
   </g>
   <g id="matplotlib.axis_1">
    <g id="xtick_1"/>
    <g id="xtick_2"/>
    <g id="xtick_3"/>
    <g id="xtick_4"/>
    <g id="xtick_5"/>
    <g id="xtick_6"/>
   </g>
   <g id="matplotlib.axis_2">
    <g id="ytick_1"/>
    <g id="ytick_2"/>
    <g id="ytick_3"/>
    <g id="ytick_4"/>
    <g id="ytick_5"/>
    <g id="ytick_6"/>
    <g id="ytick_7"/>
    <g id="ytick_8"/>
   </g>
   <g id="PathCollection_1">
    <defs>
     <path id="m7d609047ca" d="M 0 15 
C 3.978047 15 7.793698 13.419505 10.606602 10.606602 
C 13.419505 7.793698 15 3.978047 15 0 
C 15 -3.978047 13.419505 -7.793698 10.606602 -10.606602 
C 7.793698 -13.419505 3.978047 -15 0 -15 
C -3.978047 -15 -7.793698 -13.419505 -10.606602 -10.606602 
C -13.419505 -7.793698 -15 -3.978047 -15 0 
C -15 3.978047 -13.419505 7.793698 -10.606602 10.606602 
C -7.793698 13.419505 -3.978047 15 0 15 
z
" style="stroke: #add8e6; stroke-opacity: 0.85"/>
    </defs>
    <g clip-path="url(#pc61cfb4d40)">
     <use xlink:href="#m7d609047ca" x="928.430461" y="545.4" style="fill: #add8e6; fill-opacity: 0.85; stroke: #add8e6; stroke-opacity: 0.85"/>
     <use xlink:href="#m7d609047ca" x="483.691494" y="905.4" style="fill: #add8e6; fill-opacity: 0.85; stroke: #add8e6; stroke-opacity: 0.85"/>
     <use xlink:href="#m7d609047ca" x="706.065338" y="905.4" style="fill: #add8e6; fill-opacity: 0.85; stroke: #add8e6; stroke-opacity: 0.85"/>
     <use xlink:href="#m7d609047ca" x="928.430461" y="905.4" style="fill: #add8e6; fill-opacity: 0.85; stroke: #add8e6; stroke-opacity: 0.85"/>
     <use xlink:href="#m7d609047ca" x="1150.795585" y="905.4" style="fill: #add8e6; fill-opacity: 0.85; stroke: #add8e6; stroke-opacity: 0.85"/>
     <use xlink:href="#m7d609047ca" x="1595.525832" y="545.4" style="fill: #add8e6; fill-opacity: 0.85; stroke: #add8e6; stroke-opacity: 0.85"/>
     <use xlink:href="#m7d609047ca" x="1373.160708" y="905.4" style="fill: #add8e6; fill-opacity: 0.85; stroke: #add8e6; stroke-opacity: 0.85"/>
     <use xlink:href="#m7d609047ca" x="1595.525832" y="905.4" style="fill: #add8e6; fill-opacity: 0.85; stroke: #add8e6; stroke-opacity: 0.85"/>
     <use xlink:href="#m7d609047ca" x="1817.890956" y="905.4" style="fill: #add8e6; fill-opacity: 0.85; stroke: #add8e6; stroke-opacity: 0.85"/>
     <use xlink:href="#m7d609047ca" x="2373.803765" y="185.4" style="fill: #add8e6; fill-opacity: 0.85; stroke: #add8e6; stroke-opacity: 0.85"/>
     <use xlink:href="#m7d609047ca" x="2262.621203" y="545.4" style="fill: #add8e6; fill-opacity: 0.85; stroke: #add8e6; stroke-opacity: 0.85"/>
     <use xlink:href="#m7d609047ca" x="2484.986326" y="545.4" style="fill: #add8e6; fill-opacity: 0.85; stroke: #add8e6; stroke-opacity: 0.85"/>
     <use xlink:href="#m7d609047ca" x="1595.525832" y="185.4" style="fill: #add8e6; fill-opacity: 0.85; stroke: #add8e6; stroke-opacity: 0.85"/>
     <use xlink:href="#m7d609047ca" x="2040.256079" y="545.4" style="fill: #add8e6; fill-opacity: 0.85; stroke: #add8e6; stroke-opacity: 0.85"/>
     <use xlink:href="#m7d609047ca" x="2040.256079" y="905.4" style="fill: #add8e6; fill-opacity: 0.85; stroke: #add8e6; stroke-opacity: 0.85"/>
     <use xlink:href="#m7d609047ca" x="2262.621203" y="905.4" style="fill: #add8e6; fill-opacity: 0.85; stroke: #add8e6; stroke-opacity: 0.85"/>
    </g>
   </g>
   <g id="text_15">
    <g clip-path="url(#pc61cfb4d40)">
     <!-- 韓可堅 -->
     <g transform="translate(910.430461 541.32) scale(0.12 -0.12)">
      <defs>
       <path id="NotoSerifCJKjp-ExtraLight-97d3" d="M 5011 4550 
L 5011 3878 
L 3955 3878 
C 4000 4077 4058 4314 4115 4550 
L 5011 4550 
z
M 3130 4550 
L 3834 4550 
C 3776 4307 3725 4070 3680 3878 
L 2810 3878 
L 2861 3686 
L 5958 3686 
C 6048 3686 6106 3718 6125 3789 
C 5946 3962 5670 4179 5670 4179 
L 5421 3878 
L 5299 3878 
L 5299 4506 
C 5402 4525 5504 4576 5542 4621 
L 5139 4928 
L 4954 4742 
L 4160 4742 
L 4243 5114 
C 4365 5114 4442 5178 4461 5261 
L 3994 5325 
C 3962 5146 3917 4947 3872 4742 
L 3072 4742 
L 3130 4550 
z
M 3488 2419 
L 3488 3091 
L 5203 3091 
L 5203 2419 
L 3488 2419 
z
M 5242 2054 
C 5331 2054 5472 2131 5478 2170 
L 5478 3027 
C 5606 3053 5722 3104 5754 3155 
L 5318 3482 
L 5139 3277 
L 3520 3277 
L 3200 3430 
L 3200 1946 
L 3245 1946 
C 3360 1946 3488 2010 3488 2035 
L 3488 2234 
L 5203 2234 
L 5203 2054 
L 5242 2054 
z
M 864 2592 
L 2246 2592 
L 2246 1958 
L 864 1958 
L 864 2592 
z
M 2246 3443 
L 2246 2778 
L 864 2778 
L 864 3443 
L 2246 3443 
z
M 2714 851 
C 2797 851 2854 883 2874 954 
C 2707 1114 2432 1331 2432 1331 
L 2195 1043 
L 1690 1043 
L 1690 1773 
L 2246 1773 
L 2246 1638 
L 2285 1638 
C 2374 1638 2522 1722 2528 1760 
L 2528 3379 
C 2656 3405 2765 3456 2803 3507 
L 2368 3840 
L 2182 3629 
L 1696 3629 
L 1696 4275 
L 2746 4275 
C 2829 4275 2886 4307 2906 4378 
C 2726 4550 2426 4781 2426 4781 
L 2176 4461 
L 1696 4461 
L 1696 5120 
C 1837 5146 1894 5203 1907 5286 
L 1421 5338 
L 1421 4461 
L 301 4461 
L 352 4275 
L 1421 4275 
L 1421 3629 
L 896 3629 
L 582 3789 
L 582 1555 
L 627 1555 
C 742 1555 864 1626 864 1658 
L 864 1773 
L 1414 1773 
L 1414 1043 
L 262 1043 
L 314 851 
L 1414 851 
L 1414 -486 
L 1453 -486 
C 1587 -486 1690 -403 1690 -378 
L 1690 851 
L 2714 851 
z
M 3456 634 
L 3456 1395 
L 4410 1395 
L 4410 634 
L 3456 634 
z
M 5453 634 
L 4691 634 
L 4691 1395 
L 5677 1395 
C 5754 1395 5818 1427 5830 1498 
C 5670 1658 5402 1862 5402 1862 
L 5178 1581 
L 4691 1581 
L 4691 1926 
C 4813 1939 4864 1990 4877 2067 
L 4410 2125 
L 4410 1581 
L 3533 1581 
L 3181 1747 
L 3181 634 
L 2637 634 
L 2688 442 
L 4410 442 
L 4410 -467 
L 4461 -467 
C 4570 -467 4691 -390 4691 -346 
L 4691 442 
L 5971 442 
C 6061 442 6118 474 6131 544 
C 5958 704 5690 922 5690 922 
L 5453 634 
z
" transform="scale(0.015625)"/>
       <path id="NotoSerifCJKjp-ExtraLight-53ef" d="M 1331 1670 
L 1331 3360 
L 3085 3360 
L 3085 1670 
L 1331 1670 
z
M 3206 3757 
L 3021 3552 
L 1363 3552 
L 1056 3706 
L 1056 762 
L 1101 762 
C 1222 762 1331 832 1331 864 
L 1331 1485 
L 3085 1485 
L 3085 1005 
L 3123 1005 
C 3213 1005 3360 1088 3366 1120 
L 3366 3296 
C 3494 3322 3603 3373 3642 3424 
L 3206 3757 
z
M 5299 4864 
L 294 4864 
L 352 4672 
L 4794 4672 
L 4794 96 
C 4794 -26 4755 -70 4602 -70 
C 4442 -70 3616 -6 3616 -6 
L 3616 -109 
C 3962 -147 4166 -186 4288 -243 
C 4384 -294 4435 -378 4448 -467 
C 5011 -403 5075 -186 5075 77 
L 5075 4672 
L 5933 4672 
C 6022 4672 6086 4704 6099 4774 
C 5901 4960 5581 5210 5581 5210 
L 5299 4864 
z
" transform="scale(0.015625)"/>
       <path id="NotoSerifCJKjp-ExtraLight-5805" d="M 1715 4742 
L 1715 4102 
L 877 4102 
L 877 4742 
L 1715 4742 
z
M 2746 3917 
L 2746 3168 
L 877 3168 
L 877 3917 
L 2746 3917 
z
M 1715 2227 
L 877 2227 
L 877 2976 
L 1715 2976 
L 1715 2227 
z
M 877 2035 
L 3200 2035 
C 3283 2035 3341 2067 3360 2138 
C 3194 2304 2918 2515 2918 2515 
L 2688 2227 
L 1997 2227 
L 1997 2976 
L 2746 2976 
L 2746 2752 
L 2778 2752 
C 2874 2752 3021 2822 3027 2861 
L 3027 3872 
C 3136 3891 3232 3942 3270 3987 
L 2861 4294 
L 2688 4102 
L 1997 4102 
L 1997 4742 
L 3085 4742 
C 3174 4742 3226 4774 3245 4845 
C 3072 5011 2784 5242 2784 5242 
L 2534 4928 
L 954 4928 
L 595 5101 
L 595 1542 
L 634 1542 
C 774 1542 877 1626 877 1651 
L 877 2035 
z
M 5312 -134 
L 3341 -134 
L 3341 851 
L 5402 851 
C 5491 851 5555 883 5568 954 
C 5376 1133 5062 1376 5062 1376 
L 4794 1043 
L 3341 1043 
L 3341 1491 
C 3462 1510 3514 1555 3526 1632 
L 3059 1690 
L 3059 1043 
L 947 1043 
L 998 851 
L 3059 851 
L 3059 -134 
L 282 -134 
L 339 -320 
L 5952 -320 
C 6042 -320 6099 -288 6118 -218 
C 5914 -32 5594 218 5594 218 
L 5312 -134 
z
M 5472 4730 
C 5306 4134 5030 3584 4640 3110 
C 4288 3571 4026 4122 3866 4730 
L 5472 4730 
z
M 5683 5126 
L 5459 4915 
L 3283 4915 
L 3341 4730 
L 3725 4730 
C 3878 4038 4128 3430 4480 2925 
C 4096 2515 3622 2170 3034 1901 
L 3098 1798 
C 3725 2035 4224 2355 4614 2733 
C 4947 2304 5363 1952 5850 1690 
C 5907 1811 6010 1882 6131 1875 
L 6138 1933 
C 5613 2157 5165 2496 4800 2918 
C 5267 3430 5581 4038 5792 4698 
C 5933 4704 6003 4723 6054 4774 
L 5683 5126 
z
" transform="scale(0.015625)"/>
      </defs>
      <use xlink:href="#NotoSerifCJKjp-ExtraLight-97d3"/>
      <use xlink:href="#NotoSerifCJKjp-ExtraLight-53ef" x="99.999985"/>
      <use xlink:href="#NotoSerifCJKjp-ExtraLight-5805" x="199.999969"/>
     </g>
    </g>
    <g clip-path="url(#pc61cfb4d40)">
     <!-- 上護軍 -->
     <g transform="translate(910.430461 555.96) scale(0.12 -0.12)">
      <defs>
       <path id="NotoSerifCJKjp-ExtraLight-4e0a" d="M 5318 51 
L 3162 51 
L 3162 2803 
L 5421 2803 
C 5510 2803 5568 2835 5587 2906 
C 5389 3091 5075 3334 5075 3334 
L 4800 2995 
L 3162 2995 
L 3162 5043 
C 3309 5069 3366 5133 3386 5222 
L 2874 5286 
L 2874 51 
L 288 51 
L 346 -141 
L 5939 -141 
C 6035 -141 6093 -109 6112 -38 
C 5914 147 5594 390 5594 390 
L 5318 51 
z
" transform="scale(0.015625)"/>
       <path id="NotoSerifCJKjp-ExtraLight-8b77" d="M 4096 3200 
L 3110 3200 
L 3110 3610 
L 4096 3610 
L 4096 3200 
z
M 4096 2592 
L 3110 2592 
L 3110 3014 
L 4096 3014 
L 4096 2592 
z
M 4096 1965 
L 3110 1965 
L 3110 2400 
L 4096 2400 
L 4096 1965 
z
M 2470 4627 
L 3373 4627 
L 3373 4314 
L 3162 4403 
C 2925 3782 2573 3174 2259 2790 
L 2355 2726 
C 2515 2867 2682 3046 2835 3245 
L 2835 1466 
L 2874 1466 
C 3008 1466 3110 1542 3110 1574 
L 3110 1779 
L 5894 1779 
C 5984 1779 6042 1811 6061 1882 
C 5888 2042 5626 2253 5626 2253 
L 5389 1965 
L 4384 1965 
L 4384 2400 
L 5555 2400 
C 5638 2400 5696 2432 5715 2502 
C 5542 2656 5293 2835 5293 2835 
L 5069 2592 
L 4384 2592 
L 4384 3014 
L 5542 3014 
C 5632 3014 5690 3046 5709 3117 
C 5536 3264 5293 3450 5293 3450 
L 5069 3200 
L 4384 3200 
L 4384 3610 
L 5702 3610 
C 5786 3610 5843 3642 5856 3712 
C 5702 3872 5440 4077 5440 4077 
L 5216 3802 
L 4294 3802 
C 4365 3898 4435 4000 4480 4083 
C 4608 4083 4691 4134 4710 4218 
L 4218 4326 
C 4186 4186 4134 3968 4096 3802 
L 3213 3802 
C 3270 3904 3328 4006 3379 4109 
C 3514 4090 3590 4147 3616 4211 
L 3450 4282 
C 3552 4288 3654 4352 3654 4397 
L 3654 4627 
L 4717 4627 
L 4717 4282 
L 4774 4282 
C 4877 4282 4998 4352 4998 4397 
L 4998 4627 
L 5971 4627 
C 6054 4627 6118 4659 6131 4730 
C 5958 4896 5683 5114 5683 5114 
L 5440 4819 
L 4998 4819 
L 4998 5120 
C 5139 5139 5203 5197 5216 5280 
L 4717 5331 
L 4717 4819 
L 3654 4819 
L 3654 5120 
C 3795 5139 3859 5197 3872 5280 
L 3373 5331 
L 3373 4819 
L 2419 4819 
L 2470 4627 
z
M 1670 3296 
L 512 3296 
L 563 3110 
L 2150 3110 
C 2240 3110 2298 3142 2310 3206 
C 2150 3366 1901 3571 1901 3571 
L 1670 3296 
z
M 2170 4717 
C 2259 4717 2317 4749 2336 4819 
C 2157 4986 1882 5210 1882 5210 
L 1638 4902 
L 506 4902 
L 557 4717 
L 2170 4717 
z
M 1888 4102 
L 256 4102 
L 301 3917 
L 2432 3917 
C 2522 3917 2579 3949 2598 4019 
C 2419 4186 2138 4416 2138 4416 
L 1888 4102 
z
M 2150 2298 
C 2240 2298 2298 2330 2310 2394 
C 2150 2554 1901 2758 1901 2758 
L 1670 2483 
L 512 2483 
L 563 2298 
L 2150 2298 
z
M 826 275 
L 826 1491 
L 1856 1491 
L 1856 275 
L 826 275 
z
M 1978 1888 
L 1792 1677 
L 858 1677 
L 544 1837 
L 544 -474 
L 589 -474 
C 704 -474 826 -403 826 -371 
L 826 90 
L 1856 90 
L 1856 -230 
L 1894 -230 
C 1984 -230 2131 -160 2138 -122 
L 2138 1427 
C 2266 1453 2368 1504 2413 1549 
L 1978 1888 
z
M 5158 1133 
C 4922 838 4608 589 4230 371 
C 3846 570 3526 826 3296 1133 
L 5158 1133 
z
M 5472 1523 
L 5242 1325 
L 2534 1325 
L 2592 1133 
L 3123 1133 
C 3334 768 3629 474 3981 237 
C 3462 -26 2848 -218 2189 -352 
L 2240 -467 
C 2989 -346 3648 -160 4205 96 
C 4666 -166 5216 -352 5843 -480 
C 5882 -346 5978 -256 6106 -243 
L 6112 -173 
C 5517 -96 4966 45 4493 250 
C 4922 480 5274 768 5549 1114 
C 5709 1114 5779 1133 5830 1184 
L 5472 1523 
z
" transform="scale(0.015625)"/>
       <path id="NotoSerifCJKjp-ExtraLight-8ecd" d="M 5389 4685 
C 5293 4467 5165 4198 5062 4032 
L 5158 3987 
C 5363 4147 5645 4435 5786 4640 
C 5907 4646 5984 4653 6035 4698 
L 5619 5107 
L 5389 4870 
L 1203 4870 
C 1190 4966 1171 5062 1146 5171 
L 1030 5165 
C 1069 4678 845 4224 576 4051 
C 474 3981 410 3866 467 3763 
C 544 3654 736 3706 870 3821 
C 1037 3962 1216 4250 1210 4685 
L 5389 4685 
z
M 1568 1504 
L 1568 2150 
L 3046 2150 
L 3046 1504 
L 1568 1504 
z
M 3046 2963 
L 3046 2342 
L 1568 2342 
L 1568 2963 
L 3046 2963 
z
M 4806 2963 
L 4806 2342 
L 3328 2342 
L 3328 2963 
L 4806 2963 
z
M 3328 1504 
L 3328 2150 
L 4806 2150 
L 4806 1504 
L 3328 1504 
z
M 5312 672 
L 3328 672 
L 3328 1312 
L 4806 1312 
L 4806 1056 
L 4845 1056 
C 4934 1056 5082 1133 5088 1171 
L 5088 2899 
C 5216 2925 5318 2976 5363 3027 
L 4928 3360 
L 4742 3155 
L 3328 3155 
L 3328 3731 
L 5088 3731 
C 5178 3731 5242 3763 5254 3834 
C 5062 4000 4787 4192 4787 4192 
L 4538 3923 
L 3328 3923 
L 3328 4294 
C 3488 4320 3546 4384 3558 4467 
L 3046 4531 
L 3046 3923 
L 1158 3923 
L 1210 3731 
L 3046 3731 
L 3046 3155 
L 1600 3155 
L 1286 3315 
L 1286 1005 
L 1331 1005 
C 1453 1005 1568 1075 1568 1101 
L 1568 1312 
L 3046 1312 
L 3046 672 
L 314 672 
L 371 486 
L 3046 486 
L 3046 -467 
L 3104 -467 
C 3206 -467 3328 -397 3328 -339 
L 3328 486 
L 5939 486 
C 6029 486 6086 518 6106 589 
C 5907 768 5594 1018 5594 1018 
L 5312 672 
z
" transform="scale(0.015625)"/>
      </defs>
      <use xlink:href="#NotoSerifCJKjp-ExtraLight-4e0a"/>
      <use xlink:href="#NotoSerifCJKjp-ExtraLight-8b77" x="99.999985"/>
      <use xlink:href="#NotoSerifCJKjp-ExtraLight-8ecd" x="199.999969"/>
     </g>
    </g>
   </g>
   <g id="text_16">
    <g clip-path="url(#pc61cfb4d40)">
     <!-- 韓頊 -->
     <g transform="translate(471.691494 901.32) scale(0.12 -0.12)">
      <defs>
       <path id="NotoSerifCJKjp-ExtraLight-980a" d="M 2566 1299 
C 2208 1171 1850 1043 1523 934 
L 1523 2650 
L 2387 2650 
C 2477 2650 2534 2682 2547 2752 
C 2381 2918 2106 3149 2106 3149 
L 1875 2835 
L 1523 2835 
L 1523 4454 
L 2464 4454 
C 2554 4454 2618 4486 2630 4557 
C 2445 4736 2144 4966 2144 4966 
L 1888 4646 
L 307 4646 
L 358 4454 
L 1242 4454 
L 1242 2835 
L 352 2835 
L 403 2650 
L 1242 2650 
L 1242 832 
C 787 678 416 557 205 499 
L 397 115 
C 454 141 499 198 518 269 
C 1395 640 2086 973 2605 1197 
L 2566 1299 
z
M 2010 -467 
C 2650 -269 3418 83 3814 416 
C 3923 378 4000 390 4032 442 
L 3584 723 
C 3219 326 2522 -109 1946 -371 
L 2010 -467 
z
M 4627 646 
C 5043 397 5613 -77 5792 -442 
C 6202 -634 6304 224 4691 710 
L 4627 646 
z
M 5382 3680 
L 5382 2957 
L 3174 2957 
L 3174 3680 
L 5382 3680 
z
M 3174 1069 
L 3174 1837 
L 5382 1837 
L 5382 1069 
L 3174 1069 
z
M 3174 2771 
L 5382 2771 
L 5382 2022 
L 3174 2022 
L 3174 2771 
z
M 5427 4870 
L 2496 4870 
L 2547 4678 
L 4038 4678 
C 3994 4410 3936 4090 3878 3872 
L 3200 3872 
L 2886 4032 
L 2886 576 
L 2938 576 
C 3066 576 3174 646 3174 678 
L 3174 877 
L 5382 877 
L 5382 614 
L 5421 614 
C 5523 614 5664 691 5670 730 
L 5670 3642 
C 5773 3661 5869 3706 5907 3750 
L 5510 4064 
L 5325 3872 
L 4064 3872 
C 4186 4090 4314 4397 4416 4678 
L 6016 4678 
C 6099 4678 6157 4710 6176 4781 
C 5990 4954 5696 5190 5696 5190 
L 5427 4870 
z
" transform="scale(0.015625)"/>
      </defs>
      <use xlink:href="#NotoSerifCJKjp-ExtraLight-97d3"/>
      <use xlink:href="#NotoSerifCJKjp-ExtraLight-980a" x="99.999985"/>
     </g>
    </g>
    <g clip-path="url(#pc61cfb4d40)">
     <!-- 司勇 -->
     <g transform="translate(471.691494 915.96) scale(0.12 -0.12)">
      <defs>
       <path id="NotoSerifCJKjp-ExtraLight-53f8" d="M 3936 3891 
L 442 3891 
L 493 3699 
L 4512 3699 
C 4602 3699 4666 3731 4685 3802 
C 4493 3981 4198 4205 4198 4205 
L 3936 3891 
z
M 1402 1139 
L 1402 2650 
L 3475 2650 
L 3475 1139 
L 1402 1139 
z
M 3603 3046 
L 3411 2835 
L 1434 2835 
L 1120 2995 
L 1120 205 
L 1171 205 
C 1293 205 1402 269 1402 301 
L 1402 954 
L 3475 954 
L 3475 422 
L 3514 422 
C 3610 422 3750 506 3757 544 
L 3757 2586 
C 3885 2611 3994 2662 4038 2714 
L 3603 3046 
z
M 5363 5210 
L 5203 4986 
L 595 4986 
L 653 4800 
L 5267 4800 
L 5267 115 
C 5267 -6 5222 -58 5062 -58 
C 4890 -58 4019 13 4019 13 
L 4019 -90 
C 4378 -134 4595 -179 4723 -237 
C 4826 -288 4870 -365 4890 -461 
C 5491 -397 5549 -192 5549 77 
L 5549 4736 
C 5677 4755 5786 4813 5830 4864 
L 5363 5210 
z
" transform="scale(0.015625)"/>
       <path id="NotoSerifCJKjp-ExtraLight-52c7" d="M 4973 3686 
L 4973 3046 
L 3341 3046 
L 3341 3686 
L 4973 3686 
z
M 3341 2189 
L 3341 2854 
L 4973 2854 
L 4973 2189 
L 3341 2189 
z
M 1491 2854 
L 3059 2854 
L 3059 2189 
L 1491 2189 
L 1491 2854 
z
M 3059 3686 
L 3059 3046 
L 1491 3046 
L 1491 3686 
L 3059 3686 
z
M 4544 4838 
C 4250 4646 3853 4416 3526 4243 
C 3264 4378 2810 4506 2074 4582 
L 2042 4467 
C 2688 4307 3155 4096 3450 3878 
L 1517 3878 
L 1203 4038 
L 1203 1702 
L 1248 1702 
C 1370 1702 1491 1773 1491 1805 
L 1491 1997 
L 4973 1997 
L 4973 1779 
L 5011 1779 
C 5107 1779 5254 1862 5261 1901 
L 5261 3622 
C 5382 3648 5491 3699 5536 3750 
L 5101 4083 
L 4909 3878 
L 3840 3878 
C 3859 3949 3814 4051 3667 4160 
C 4166 4346 4800 4608 5146 4794 
C 5299 4800 5376 4806 5427 4851 
L 4998 5267 
L 4742 5024 
L 851 5024 
L 909 4838 
L 4544 4838 
z
M 5382 1498 
L 5197 1293 
L 3245 1293 
C 3283 1408 3309 1530 3328 1651 
C 3456 1658 3539 1696 3565 1798 
L 3008 1901 
C 2989 1690 2950 1485 2886 1293 
L 538 1293 
L 595 1101 
L 2816 1101 
C 2515 429 1837 -70 346 -371 
L 390 -474 
C 2144 -186 2874 371 3174 1101 
L 5242 1101 
C 5158 563 5011 102 4870 -13 
C 4800 -58 4730 -70 4595 -70 
C 4448 -70 3814 -13 3494 13 
L 3488 -109 
C 3776 -141 4122 -192 4224 -250 
C 4333 -301 4365 -390 4365 -474 
C 4608 -480 4864 -410 5011 -301 
C 5261 -122 5453 454 5530 1082 
C 5664 1088 5741 1120 5779 1165 
L 5382 1498 
z
" transform="scale(0.015625)"/>
      </defs>
      <use xlink:href="#NotoSerifCJKjp-ExtraLight-53f8"/>
      <use xlink:href="#NotoSerifCJKjp-ExtraLight-52c7" x="99.999985"/>
     </g>
    </g>
   </g>
   <g id="text_17">
    <g clip-path="url(#pc61cfb4d40)">
     <!-- 韓順 -->
     <g transform="translate(694.065338 901.32) scale(0.12 -0.12)">
      <defs>
       <path id="NotoSerifCJKjp-ExtraLight-9806" d="M 742 2752 
C 742 1632 678 480 230 -397 
L 346 -467 
C 922 416 1024 1626 1030 2752 
L 1030 4851 
C 1184 4870 1229 4934 1248 5024 
L 742 5082 
L 742 2752 
z
M 1523 384 
L 1581 384 
C 1690 384 1811 454 1811 512 
L 1811 4493 
C 1946 4518 1997 4576 2016 4659 
L 1523 4717 
L 1523 384 
z
M 2675 4870 
C 2829 4896 2886 4960 2899 5050 
L 2387 5114 
L 2387 115 
L 2445 115 
C 2554 115 2675 186 2675 243 
L 2675 4870 
z
M 2477 -474 
C 3136 -282 3872 83 4250 467 
C 4358 429 4435 442 4467 499 
L 4051 736 
C 3706 294 3021 -128 2419 -371 
L 2477 -474 
z
M 4730 634 
C 5120 384 5645 -77 5805 -422 
C 6189 -621 6317 205 4800 698 
L 4730 634 
z
M 5504 3802 
L 5504 3053 
L 3616 3053 
L 3616 3802 
L 5504 3802 
z
M 3616 1133 
L 3616 1907 
L 5504 1907 
L 5504 1133 
L 3616 1133 
z
M 3616 2861 
L 5504 2861 
L 5504 2093 
L 3616 2093 
L 3616 2861 
z
M 5427 4966 
L 3027 4966 
L 3078 4781 
L 4301 4781 
C 4262 4525 4198 4211 4141 3994 
L 3648 3994 
L 3334 4154 
L 3334 646 
L 3386 646 
C 3514 646 3616 710 3616 742 
L 3616 947 
L 5504 947 
L 5504 672 
L 5542 672 
C 5645 672 5779 762 5786 800 
L 5786 3763 
C 5894 3782 5990 3827 6029 3872 
L 5632 4186 
L 5446 3994 
L 4339 3994 
C 4454 4211 4576 4512 4678 4781 
L 6010 4781 
C 6099 4781 6157 4813 6170 4877 
C 5990 5056 5690 5293 5690 5293 
L 5427 4966 
z
" transform="scale(0.015625)"/>
      </defs>
      <use xlink:href="#NotoSerifCJKjp-ExtraLight-97d3"/>
      <use xlink:href="#NotoSerifCJKjp-ExtraLight-9806" x="99.999985"/>
     </g>
    </g>
    <g clip-path="url(#pc61cfb4d40)">
     <!-- 生員 -->
     <g transform="translate(694.065338 915.96) scale(0.12 -0.12)">
      <defs>
       <path id="NotoSerifCJKjp-ExtraLight-751f" d="M 5325 -32 
L 3322 -32 
L 3322 1805 
L 5325 1805 
C 5414 1805 5478 1837 5491 1907 
C 5299 2086 4979 2336 4979 2336 
L 4704 1990 
L 3322 1990 
L 3322 3610 
L 5574 3610 
C 5664 3610 5722 3635 5741 3706 
C 5536 3904 5229 4134 5229 4134 
L 4947 3795 
L 3322 3795 
L 3322 5094 
C 3475 5120 3533 5184 3552 5274 
L 3040 5331 
L 3040 3795 
L 1587 3795 
C 1760 4122 1914 4467 2048 4819 
C 2189 4813 2266 4870 2291 4934 
L 1786 5114 
C 1440 3968 851 2893 262 2227 
L 358 2157 
C 768 2528 1152 3027 1485 3610 
L 3040 3610 
L 3040 1990 
L 1005 1990 
L 1056 1805 
L 3040 1805 
L 3040 -32 
L 294 -32 
L 352 -218 
L 5965 -218 
C 6054 -218 6112 -186 6131 -122 
C 5926 70 5606 314 5606 314 
L 5325 -32 
z
" transform="scale(0.015625)"/>
       <path id="NotoSerifCJKjp-ExtraLight-54e1" d="M 4768 4870 
L 4768 4090 
L 1651 4090 
L 1651 4870 
L 4768 4870 
z
M 1651 3904 
L 4768 3904 
L 4768 3648 
L 4806 3648 
C 4896 3648 5043 3725 5050 3763 
L 5050 4806 
C 5171 4832 5286 4877 5325 4928 
L 4890 5261 
L 4704 5056 
L 1683 5056 
L 1370 5216 
L 1370 3616 
L 1414 3616 
C 1523 3616 1651 3686 1651 3712 
L 1651 3904 
z
M 5037 3181 
L 5037 2573 
L 1395 2573 
L 1395 3181 
L 5037 3181 
z
M 1395 1760 
L 1395 2381 
L 5037 2381 
L 5037 1760 
L 1395 1760 
z
M 1395 947 
L 1395 1568 
L 5037 1568 
L 5037 947 
L 1395 947 
z
M 1395 755 
L 5037 755 
L 5037 506 
L 5075 506 
C 5171 506 5312 589 5318 627 
L 5318 3117 
C 5446 3142 5555 3194 5600 3238 
L 5165 3578 
L 4973 3366 
L 1427 3366 
L 1107 3533 
L 1107 422 
L 1158 422 
C 1280 422 1395 499 1395 531 
L 1395 755 
z
M 454 -480 
C 1312 -352 2093 -58 2586 243 
C 2746 224 2829 250 2861 301 
L 2451 563 
C 2054 243 1216 -173 403 -365 
L 454 -480 
z
M 3712 358 
C 4346 211 5286 -173 5696 -474 
C 6118 -531 5894 218 3750 474 
L 3712 358 
z
" transform="scale(0.015625)"/>
      </defs>
      <use xlink:href="#NotoSerifCJKjp-ExtraLight-751f"/>
      <use xlink:href="#NotoSerifCJKjp-ExtraLight-54e1" x="99.999985"/>
     </g>
    </g>
   </g>
   <g id="text_18">
    <g clip-path="url(#pc61cfb4d40)">
     <!-- 金寶輕 -->
     <g transform="translate(910.430461 901.32) scale(0.12 -0.12)">
      <defs>
       <path id="NotoSerifCJKjp-ExtraLight-91d1" d="M 5242 -102 
L 3322 -102 
L 3322 1818 
L 5606 1818 
C 5696 1818 5747 1850 5766 1920 
C 5574 2093 5274 2323 5274 2323 
L 4998 2003 
L 3322 2003 
L 3322 3053 
L 4570 3053 
C 4659 3053 4717 3085 4736 3155 
C 4544 3322 4256 3533 4256 3533 
L 4006 3238 
L 1568 3238 
L 1619 3053 
L 3040 3053 
L 3040 2003 
L 678 2003 
L 736 1818 
L 3040 1818 
L 3040 -102 
L 384 -102 
L 442 -288 
L 5856 -288 
C 5946 -288 6010 -256 6029 -186 
C 5824 -6 5510 243 5510 243 
L 5242 -102 
z
M 1427 1510 
C 1683 1178 1990 634 2029 224 
C 2355 -70 2643 749 1517 1549 
L 1427 1510 
z
M 3955 96 
C 4243 390 4576 845 4845 1274 
C 4966 1254 5043 1306 5075 1370 
L 4595 1581 
C 4378 1069 4083 506 3853 160 
L 3955 96 
z
M 3021 5389 
C 2643 4499 1280 3258 218 2701 
L 262 2598 
C 1434 3162 2656 4198 3258 5062 
C 3757 4205 4781 3334 5850 2810 
C 5888 2912 6016 2989 6150 3002 
L 6163 3098 
C 4992 3603 3962 4358 3386 5146 
C 3526 5152 3610 5184 3616 5254 
L 3021 5389 
z
" transform="scale(0.015625)"/>
       <path id="NotoSerifCJKjp-ExtraLight-5bf6" d="M 518 -467 
C 1318 -365 2150 -115 2650 128 
C 2778 83 2880 90 2925 141 
L 2515 448 
C 2099 154 1248 -186 480 -352 
L 518 -467 
z
M 877 2502 
C 934 2522 979 2560 1011 2637 
C 1933 2784 2598 2912 3059 3008 
L 3046 3123 
L 2118 3021 
L 2118 3392 
L 2810 3392 
C 2899 3392 2950 3424 2970 3494 
C 2829 3616 2630 3757 2630 3757 
L 2458 3584 
L 2118 3584 
L 2118 3987 
L 2899 3987 
C 2982 3987 3040 4019 3059 4083 
C 2899 4224 2682 4378 2682 4378 
L 2477 4173 
L 1024 4173 
L 1075 3987 
L 1837 3987 
L 1837 3584 
L 1030 3584 
L 1082 3392 
L 1837 3392 
L 1837 2989 
C 1325 2938 890 2893 634 2880 
L 877 2502 
z
M 1722 672 
L 1722 1094 
L 4755 1094 
L 4755 672 
L 1722 672 
z
M 4755 2317 
L 4755 1907 
L 1722 1907 
L 1722 2317 
L 4755 2317 
z
M 4755 1286 
L 1722 1286 
L 1722 1715 
L 4755 1715 
L 4755 1286 
z
M 4794 269 
C 4883 269 5030 352 5037 390 
L 5037 2291 
C 5133 2304 5222 2349 5254 2387 
L 4877 2688 
L 4704 2502 
L 1754 2502 
L 1440 2669 
L 1440 205 
L 1491 205 
C 1600 205 1722 269 1722 294 
L 1722 480 
L 4755 480 
L 4755 269 
L 4794 269 
z
M 3584 230 
C 4448 58 5114 -173 5517 -416 
C 5939 -653 6419 102 3610 346 
L 3584 230 
z
M 5267 3654 
L 4550 3654 
L 4550 3968 
L 5338 3968 
C 5421 3968 5478 4000 5498 4064 
C 5459 4102 5421 4134 5376 4173 
C 5542 4288 5741 4454 5856 4576 
C 5971 4589 6054 4595 6099 4640 
L 5696 5030 
L 5478 4813 
L 3328 4813 
L 3328 5101 
C 3482 5120 3558 5184 3571 5274 
L 3046 5331 
L 3046 4813 
L 1114 4813 
C 1107 4902 1094 5005 1075 5107 
L 954 5107 
C 966 4762 800 4384 621 4237 
C 525 4154 467 4038 531 3962 
C 602 3859 781 3917 883 4026 
C 992 4128 1088 4333 1114 4621 
L 5466 4621 
C 5408 4499 5331 4365 5267 4256 
C 5190 4320 5133 4365 5133 4365 
L 4947 4154 
L 3718 4154 
C 3763 4218 3808 4282 3840 4339 
C 3981 4320 4032 4339 4051 4403 
L 3616 4550 
C 3526 4320 3360 3974 3200 3782 
L 3296 3718 
C 3392 3789 3482 3878 3565 3968 
L 4269 3968 
L 4269 3654 
L 3040 3654 
L 3091 3469 
L 4269 3469 
L 4269 2995 
L 3661 2995 
L 3661 3142 
C 3770 3162 3814 3200 3821 3270 
L 3379 3322 
L 3379 2618 
L 3437 2618 
C 3539 2618 3661 2694 3661 2733 
L 3661 2803 
L 5178 2803 
L 5178 2618 
L 5235 2618 
C 5331 2618 5459 2694 5459 2733 
L 5459 3142 
C 5568 3162 5613 3200 5619 3270 
L 5178 3322 
L 5178 2995 
L 4550 2995 
L 4550 3469 
L 5715 3469 
C 5798 3469 5856 3501 5869 3571 
C 5709 3706 5472 3866 5472 3866 
L 5267 3654 
z
" transform="scale(0.015625)"/>
       <path id="NotoSerifCJKjp-ExtraLight-8f15" d="M 5997 4672 
C 6080 4672 6138 4704 6157 4774 
C 5971 4947 5677 5184 5677 5184 
L 5414 4864 
L 2867 4864 
L 2918 4672 
L 5997 4672 
z
M 5408 4333 
C 5331 4115 5037 3533 4864 3206 
C 5203 2861 5427 2362 5491 2074 
C 5766 1850 6138 2477 5037 3226 
C 5248 3482 5581 3942 5709 4109 
C 5798 4090 5856 4122 5882 4173 
L 5408 4333 
z
M 4448 4371 
C 4365 4154 4058 3546 3885 3206 
C 4218 2848 4442 2342 4493 2035 
C 4768 1805 5139 2445 4058 3226 
C 4269 3494 4614 3968 4742 4141 
C 4838 4128 4890 4160 4915 4211 
L 4448 4371 
z
M 3450 4410 
C 3379 4186 3104 3552 2931 3200 
C 3251 2822 3462 2291 3514 1978 
C 3782 1734 4173 2400 3104 3219 
C 3309 3501 3635 4006 3757 4179 
C 3859 4166 3917 4198 3942 4256 
L 3450 4410 
z
M 870 2662 
L 1459 2662 
L 1459 1978 
L 870 1978 
L 870 2662 
z
M 1459 3533 
L 1459 2848 
L 870 2848 
L 870 3533 
L 1459 3533 
z
M 2336 3533 
L 2336 2848 
L 1741 2848 
L 1741 3533 
L 2336 3533 
z
M 1741 1978 
L 1741 2662 
L 2336 2662 
L 2336 1978 
L 1741 1978 
z
M 2848 851 
C 2931 851 2995 883 3008 954 
C 2822 1126 2534 1357 2534 1357 
L 2285 1043 
L 1741 1043 
L 1741 1792 
L 2336 1792 
L 2336 1491 
L 2368 1491 
C 2470 1491 2611 1581 2618 1632 
L 2618 3488 
C 2726 3507 2822 3558 2861 3603 
L 2458 3917 
L 2278 3718 
L 1741 3718 
L 1741 4275 
L 2854 4275 
C 2944 4275 3008 4307 3021 4378 
C 2842 4550 2554 4781 2554 4781 
L 2304 4461 
L 1741 4461 
L 1741 5114 
C 1882 5133 1939 5190 1952 5280 
L 1459 5331 
L 1459 4461 
L 307 4461 
L 358 4275 
L 1459 4275 
L 1459 3718 
L 902 3718 
L 589 3878 
L 589 1446 
L 640 1446 
C 749 1446 870 1510 870 1536 
L 870 1792 
L 1459 1792 
L 1459 1043 
L 288 1043 
L 339 851 
L 1459 851 
L 1459 -461 
L 1498 -461 
C 1638 -461 1741 -378 1741 -352 
L 1741 851 
L 2848 851 
z
M 5440 -83 
L 4474 -83 
L 4474 1395 
L 5830 1395 
C 5920 1395 5978 1427 5997 1498 
C 5830 1651 5574 1862 5574 1862 
L 5350 1581 
L 2918 1581 
L 2970 1395 
L 4192 1395 
L 4192 -83 
L 2509 -83 
L 2560 -269 
L 6029 -269 
C 6112 -269 6170 -237 6189 -173 
C 6003 6 5709 243 5709 243 
L 5440 -83 
z
" transform="scale(0.015625)"/>
      </defs>
      <use xlink:href="#NotoSerifCJKjp-ExtraLight-91d1"/>
      <use xlink:href="#NotoSerifCJKjp-ExtraLight-5bf6" x="99.999985"/>
      <use xlink:href="#NotoSerifCJKjp-ExtraLight-8f15" x="199.999969"/>
     </g>
    </g>
    <g clip-path="url(#pc61cfb4d40)">
     <!-- 掌苑 -->
     <g transform="translate(916.430461 915.96) scale(0.12 -0.12)">
      <defs>
       <path id="NotoSerifCJKjp-ExtraLight-638c" d="M 1325 5242 
C 1606 5037 1939 4653 1990 4346 
C 2342 4102 2554 4896 1395 5293 
L 1325 5242 
z
M 5472 4090 
C 5382 3878 5261 3629 5171 3469 
L 5261 3418 
C 5459 3578 5722 3853 5862 4045 
C 5984 4051 6061 4058 6106 4102 
L 5696 4506 
L 5472 4282 
L 4282 4282 
C 4550 4518 4832 4806 5018 5043 
C 5152 5030 5242 5075 5274 5152 
L 4768 5331 
C 4602 5011 4326 4582 4102 4282 
L 3334 4282 
L 3334 5146 
C 3488 5165 3558 5229 3571 5312 
L 3053 5376 
L 3053 4282 
L 1088 4282 
C 1075 4365 1056 4454 1030 4550 
L 909 4544 
C 960 4122 768 3731 518 3597 
C 416 3526 346 3418 397 3315 
C 467 3200 659 3232 787 3334 
C 947 3450 1107 3706 1101 4090 
L 5472 4090 
z
M 1862 2810 
L 1862 3456 
L 4531 3456 
L 4531 2810 
L 1862 2810 
z
M 4570 2470 
C 4666 2470 4813 2547 4819 2586 
L 4819 3411 
C 4922 3430 5024 3482 5062 3526 
L 4653 3834 
L 4474 3642 
L 1894 3642 
L 1574 3802 
L 1574 2342 
L 1619 2342 
C 1734 2342 1862 2400 1862 2426 
L 1862 2624 
L 4531 2624 
L 4531 2470 
L 4570 2470 
z
M 5344 819 
L 3334 819 
L 3334 1306 
L 5536 1306 
C 5626 1306 5683 1338 5702 1408 
C 5510 1574 5222 1786 5222 1786 
L 4966 1498 
L 3334 1498 
L 3334 1997 
C 3962 2029 4550 2080 5050 2131 
C 5178 2067 5293 2061 5338 2106 
L 5030 2432 
C 4051 2266 2285 2099 870 2054 
L 890 1920 
C 1600 1920 2342 1939 3053 1978 
L 3053 1498 
L 704 1498 
L 762 1306 
L 3053 1306 
L 3053 819 
L 314 819 
L 371 634 
L 3053 634 
L 3053 13 
C 3053 -83 3021 -115 2880 -115 
C 2733 -115 1997 -64 1997 -64 
L 1997 -166 
C 2310 -192 2509 -230 2605 -282 
C 2694 -326 2739 -397 2752 -474 
C 3258 -422 3334 -250 3334 0 
L 3334 634 
L 5939 634 
C 6029 634 6093 666 6106 730 
C 5907 902 5613 1120 5613 1120 
L 5344 819 
z
" transform="scale(0.015625)"/>
       <path id="NotoSerifCJKjp-ExtraLight-82d1" d="M 2182 3763 
C 2285 3763 2419 3814 2419 3859 
L 2419 4416 
L 3923 4416 
L 3923 3776 
L 3974 3776 
C 4115 3782 4205 3853 4205 3885 
L 4205 4416 
L 5914 4416 
C 6003 4416 6067 4448 6080 4512 
C 5894 4685 5581 4934 5581 4934 
L 5312 4602 
L 4205 4602 
L 4205 5101 
C 4365 5120 4422 5184 4435 5274 
L 3923 5325 
L 3923 4602 
L 2419 4602 
L 2419 5101 
C 2579 5120 2637 5184 2650 5274 
L 2138 5325 
L 2138 4602 
L 288 4602 
L 326 4416 
L 2138 4416 
L 2138 3763 
L 2182 3763 
z
M 2790 3168 
L 1677 3168 
C 1760 3328 1830 3488 1901 3661 
C 2035 3648 2112 3706 2138 3776 
L 1658 3955 
C 1350 2963 800 2106 230 1594 
L 320 1510 
C 576 1696 826 1926 1050 2208 
C 1395 1997 1779 1651 1888 1344 
C 2240 1146 2355 1926 1126 2298 
C 1286 2509 1440 2733 1574 2976 
L 2816 2976 
C 2496 1562 1766 352 333 -371 
L 403 -474 
C 2054 250 2758 1510 3123 2944 
C 3258 2950 3328 2970 3373 3021 
L 3008 3366 
L 2790 3168 
z
M 5952 794 
L 5862 794 
C 5805 448 5741 96 5709 13 
C 5677 -38 5651 -58 5581 -64 
C 5485 -77 5235 -77 4890 -77 
L 4192 -77 
C 3904 -77 3866 -32 3866 102 
L 3866 3187 
L 5299 3187 
L 5299 1555 
C 5299 1472 5267 1434 5158 1434 
C 5024 1434 4442 1478 4442 1478 
L 4442 1370 
C 4691 1344 4851 1299 4928 1248 
C 5011 1197 5043 1114 5056 1030 
C 5530 1082 5581 1254 5581 1517 
L 5581 3123 
C 5709 3142 5818 3194 5856 3238 
L 5395 3584 
L 5235 3373 
L 3942 3373 
L 3584 3546 
L 3584 51 
C 3584 -230 3686 -333 4160 -333 
L 4896 -333 
C 5933 -333 6131 -294 6131 -147 
C 6131 -83 6093 -51 5965 -13 
L 5952 794 
z
" transform="scale(0.015625)"/>
      </defs>
      <use xlink:href="#NotoSerifCJKjp-ExtraLight-638c"/>
      <use xlink:href="#NotoSerifCJKjp-ExtraLight-82d1" x="99.999985"/>
     </g>
    </g>
   </g>
   <g id="text_19">
    <g clip-path="url(#pc61cfb4d40)">
     <!-- 李景華 -->
     <g transform="translate(1132.795585 901.32) scale(0.12 -0.12)">
      <defs>
       <path id="NotoSerifCJKjp-ExtraLight-674e" d="M 5312 1280 
L 3341 1280 
L 3341 1574 
C 3462 1594 3520 1626 3552 1690 
C 3955 1830 4518 2054 4813 2259 
C 4941 2266 5030 2272 5082 2310 
L 4710 2669 
L 4499 2464 
L 1427 2464 
L 1485 2278 
L 4333 2278 
C 4064 2093 3686 1888 3424 1754 
L 3059 1798 
L 3059 1280 
L 314 1280 
L 371 1088 
L 3059 1088 
L 3059 64 
C 3059 -32 3027 -70 2899 -70 
C 2771 -70 2074 -19 2074 -19 
L 2074 -122 
C 2362 -154 2541 -192 2637 -243 
C 2726 -301 2765 -384 2778 -474 
C 3283 -416 3341 -237 3341 38 
L 3341 1088 
L 5926 1088 
C 6016 1088 6074 1120 6093 1190 
C 5894 1376 5587 1613 5587 1613 
L 5312 1280 
z
M 5850 4186 
C 5939 4186 5997 4218 6016 4288 
C 5818 4467 5504 4717 5504 4717 
L 5229 4378 
L 3322 4378 
L 3322 5107 
C 3482 5133 3546 5190 3558 5280 
L 3040 5338 
L 3040 4378 
L 403 4378 
L 461 4186 
L 2656 4186 
C 2061 3494 1152 2816 218 2355 
L 282 2253 
C 1363 2694 2368 3366 3040 4147 
L 3040 2662 
L 3098 2662 
C 3200 2662 3322 2733 3322 2778 
L 3322 4186 
L 3386 4186 
C 3942 3424 5011 2707 5901 2323 
C 5952 2451 6054 2534 6182 2541 
L 6195 2611 
C 5312 2906 4179 3533 3578 4186 
L 5850 4186 
z
" transform="scale(0.015625)"/>
       <path id="NotoSerifCJKjp-ExtraLight-666f" d="M 2010 845 
C 1664 474 954 13 333 -250 
L 403 -346 
C 1082 -141 1811 243 2189 563 
C 2330 518 2374 538 2426 595 
L 2010 845 
z
M 1766 1382 
L 1766 2131 
L 4614 2131 
L 4614 1382 
L 1766 1382 
z
M 4614 1190 
L 4614 966 
L 4653 966 
C 4749 966 4890 1043 4896 1082 
L 4896 2067 
C 5018 2093 5133 2144 5178 2195 
L 4736 2522 
L 4550 2323 
L 1798 2323 
L 1485 2477 
L 1485 934 
L 1523 934 
C 1638 934 1766 1005 1766 1030 
L 1766 1190 
L 3046 1190 
L 3046 32 
C 3046 -51 3014 -83 2899 -83 
C 2778 -83 2170 -38 2170 -38 
L 2170 -141 
C 2432 -166 2598 -198 2682 -256 
C 2758 -301 2790 -390 2797 -467 
C 3258 -416 3328 -230 3328 26 
L 3328 1190 
L 4614 1190 
z
M 3994 666 
C 4787 371 5389 -64 5638 -352 
C 6035 -512 6138 339 4032 768 
L 3994 666 
z
M 1600 4154 
L 4787 4154 
L 4787 3661 
L 1600 3661 
L 1600 4154 
z
M 4787 4819 
L 4787 4346 
L 1600 4346 
L 1600 4819 
L 4787 4819 
z
M 5261 2944 
L 3328 2944 
L 3328 3264 
C 3469 3290 3533 3347 3539 3430 
L 3155 3475 
L 4787 3475 
L 4787 3251 
L 4826 3251 
C 4915 3251 5062 3328 5069 3366 
L 5069 4755 
C 5190 4781 5299 4832 5344 4877 
L 4909 5216 
L 4723 5005 
L 1632 5005 
L 1318 5165 
L 1318 3213 
L 1363 3213 
C 1485 3213 1600 3277 1600 3309 
L 1600 3475 
L 3046 3475 
L 3046 2944 
L 403 2944 
L 461 2758 
L 5830 2758 
C 5920 2758 5978 2784 5997 2854 
C 5805 3034 5510 3251 5510 3251 
L 5261 2944 
z
" transform="scale(0.015625)"/>
       <path id="NotoSerifCJKjp-ExtraLight-83ef" d="M 2150 4461 
L 2150 3846 
L 2195 3846 
C 2298 3846 2432 3898 2432 3942 
L 2432 4461 
L 3936 4461 
L 3936 3859 
L 3987 3859 
C 4128 3866 4218 3936 4218 3968 
L 4218 4461 
L 5926 4461 
C 6016 4461 6080 4493 6093 4563 
C 5907 4736 5594 4986 5594 4986 
L 5325 4653 
L 4218 4653 
L 4218 5133 
C 4378 5152 4435 5216 4448 5299 
L 3936 5357 
L 3936 4653 
L 2432 4653 
L 2432 5133 
C 2592 5152 2650 5216 2662 5299 
L 2150 5357 
L 2150 4653 
L 301 4653 
L 339 4461 
L 2150 4461 
z
M 4422 1702 
L 3328 1702 
L 3328 2547 
L 4422 2547 
L 4422 1702 
z
M 1984 1702 
L 1984 2547 
L 3046 2547 
L 3046 1702 
L 1984 1702 
z
M 1984 3539 
L 3046 3539 
L 3046 2739 
L 1984 2739 
L 1984 3539 
z
M 4422 3539 
L 4422 2739 
L 3328 2739 
L 3328 3539 
L 4422 3539 
z
M 5414 2739 
L 4704 2739 
L 4704 3539 
L 5677 3539 
C 5760 3539 5818 3571 5830 3635 
C 5664 3802 5382 4006 5382 4006 
L 5146 3725 
L 653 3725 
L 704 3539 
L 1702 3539 
L 1702 2739 
L 294 2739 
L 352 2547 
L 1702 2547 
L 1702 1702 
L 582 1702 
L 640 1510 
L 3046 1510 
L 3046 768 
L 448 768 
L 506 582 
L 3046 582 
L 3046 -467 
L 3085 -467 
C 3226 -467 3328 -384 3328 -358 
L 3328 582 
L 5760 582 
C 5850 582 5907 614 5926 678 
C 5734 858 5440 1088 5440 1088 
L 5184 768 
L 3328 768 
L 3328 1510 
L 5773 1510 
C 5856 1510 5920 1542 5933 1613 
C 5754 1779 5472 1990 5472 1990 
L 5229 1702 
L 4704 1702 
L 4704 2547 
L 5971 2547 
C 6054 2547 6118 2579 6131 2650 
C 5952 2816 5664 3046 5664 3046 
L 5414 2739 
z
" transform="scale(0.015625)"/>
      </defs>
      <use xlink:href="#NotoSerifCJKjp-ExtraLight-674e"/>
      <use xlink:href="#NotoSerifCJKjp-ExtraLight-666f" x="99.999985"/>
      <use xlink:href="#NotoSerifCJKjp-ExtraLight-83ef" x="199.999969"/>
     </g>
    </g>
    <g clip-path="url(#pc61cfb4d40)">
     <!--  -->
     <g transform="translate(1150.795585 915.96) scale(0.12 -0.12)"/>
    </g>
   </g>
   <g id="text_20">
    <g clip-path="url(#pc61cfb4d40)">
     <!-- 尹暄 -->
     <g transform="translate(1583.525832 541.32) scale(0.12 -0.12)">
      <defs>
       <path id="NotoSerifCJKjp-ExtraLight-5c39" d="M 4845 1958 
L 3053 1958 
C 3123 2291 3149 2637 3149 2995 
L 3149 3232 
L 4845 3232 
L 4845 1958 
z
M 3149 4666 
L 4845 4666 
L 4845 3424 
L 3149 3424 
L 3149 4666 
z
M 5299 3424 
L 5126 3424 
L 5126 4602 
C 5254 4627 5357 4678 5402 4730 
L 4966 5069 
L 4781 4858 
L 992 4858 
L 1050 4666 
L 2861 4666 
L 2861 3424 
L 294 3424 
L 352 3232 
L 2861 3232 
L 2861 2982 
C 2861 2618 2835 2278 2771 1958 
L 864 1958 
L 922 1773 
L 2726 1773 
C 2496 954 1939 262 685 -333 
L 762 -442 
C 2170 102 2771 877 3008 1773 
L 4845 1773 
L 4845 1331 
L 4877 1331 
C 4979 1331 5120 1414 5126 1453 
L 5126 3232 
L 5990 3232 
C 6080 3232 6138 3264 6157 3334 
C 5946 3533 5600 3795 5600 3795 
L 5299 3424 
z
" transform="scale(0.015625)"/>
       <path id="NotoSerifCJKjp-ExtraLight-6684" d="M 5568 4403 
C 5504 4218 5427 3987 5376 3866 
L 5478 3821 
C 5613 3955 5824 4198 5939 4358 
C 6061 4365 6131 4371 6176 4416 
L 5766 4813 
L 5555 4589 
L 4211 4589 
L 4211 5094 
C 4352 5120 4410 5178 4422 5261 
L 3930 5312 
L 3930 4589 
L 2765 4589 
C 2758 4666 2739 4749 2714 4832 
L 2592 4832 
C 2637 4512 2528 4141 2355 4006 
C 2266 3923 2214 3808 2272 3718 
C 2342 3616 2522 3667 2618 3770 
C 2720 3885 2797 4102 2784 4403 
L 5568 4403 
z
M 3059 966 
L 3059 1741 
L 4954 1741 
L 4954 966 
L 3059 966 
z
M 4954 2682 
L 4954 1933 
L 3059 1933 
L 3059 2682 
L 4954 2682 
z
M 4992 506 
C 5088 506 5235 589 5242 627 
L 5242 2618 
C 5363 2643 5472 2694 5517 2746 
L 5082 3078 
L 4890 2867 
L 3091 2867 
L 2778 3027 
L 2778 410 
L 2829 410 
C 2944 410 3059 480 3059 512 
L 3059 774 
L 4954 774 
L 4954 506 
L 4992 506 
z
M 5299 3482 
C 5382 3482 5440 3514 5459 3584 
C 5286 3750 4998 3968 4998 3968 
L 4762 3667 
L 2771 3667 
L 2816 3482 
L 5299 3482 
z
M 800 1133 
L 800 2758 
L 1773 2758 
L 1773 1133 
L 800 1133 
z
M 1773 4525 
L 1773 2944 
L 800 2944 
L 800 4525 
L 1773 4525 
z
M 1811 582 
C 1914 582 2048 672 2054 704 
L 2054 4461 
C 2182 4486 2298 4538 2336 4589 
L 1901 4928 
L 1709 4717 
L 877 4717 
L 518 4883 
L 518 378 
L 557 378 
C 698 378 800 467 800 493 
L 800 947 
L 1773 947 
L 1773 582 
L 1811 582 
z
M 5395 -19 
L 1786 -19 
L 1837 -205 
L 5984 -205 
C 6074 -205 6138 -173 6144 -109 
C 5958 70 5664 307 5664 307 
L 5395 -19 
z
" transform="scale(0.015625)"/>
      </defs>
      <use xlink:href="#NotoSerifCJKjp-ExtraLight-5c39"/>
      <use xlink:href="#NotoSerifCJKjp-ExtraLight-6684" x="99.999985"/>
     </g>
    </g>
    <g clip-path="url(#pc61cfb4d40)">
     <!-- 縣監 -->
     <g transform="translate(1583.525832 555.96) scale(0.12 -0.12)">
      <defs>
       <path id="NotoSerifCJKjp-ExtraLight-7e23" d="M 4550 4723 
C 4941 4787 5299 4864 5581 4934 
C 5715 4883 5811 4877 5862 4928 
L 5472 5293 
C 5018 5075 4128 4826 3379 4717 
L 3411 4595 
C 3731 4614 4070 4653 4390 4698 
C 4230 4320 4045 3910 3891 3616 
C 3750 3693 3584 3770 3373 3834 
L 3302 3770 
C 3610 3571 3994 3200 4115 2918 
C 4384 2778 4531 3168 4013 3533 
C 4224 3795 4474 4154 4666 4474 
C 4794 4454 4870 4512 4896 4576 
L 4550 4723 
z
M 2650 4800 
L 2650 4256 
L 1638 4256 
L 1638 4800 
L 2650 4800 
z
M 1638 3520 
L 1638 4064 
L 2650 4064 
L 2650 3520 
L 1638 3520 
z
M 1638 2771 
L 1638 3328 
L 2650 3328 
L 2650 2771 
L 1638 2771 
z
M 1638 2579 
L 2650 2579 
L 2650 2336 
L 2688 2336 
C 2778 2336 2925 2413 2931 2451 
L 2931 4736 
C 3059 4762 3168 4813 3206 4864 
L 2778 5197 
L 2586 4986 
L 1715 4986 
L 1357 5158 
L 1357 2253 
L 1395 2253 
C 1536 2253 1638 2336 1638 2362 
L 1638 2579 
z
M 429 -218 
C 742 90 1062 576 1280 1069 
C 1408 1056 1485 1107 1510 1178 
L 1005 1357 
C 838 787 576 211 326 -160 
L 429 -218 
z
M 2336 1274 
C 2554 1030 2797 614 2835 294 
C 3142 38 3418 749 2413 1318 
L 2336 1274 
z
M 2682 1894 
L 877 1894 
L 877 4378 
C 1037 4397 1094 4454 1107 4544 
L 595 4608 
L 595 1408 
L 653 1408 
C 755 1408 877 1485 877 1523 
L 877 1702 
L 1715 1702 
L 1715 -480 
L 1754 -480 
C 1901 -480 1997 -397 1997 -371 
L 1997 1702 
L 3168 1702 
C 3245 1702 3309 1734 3322 1805 
C 3168 1958 2906 2170 2906 2170 
L 2682 1894 
z
M 3302 -141 
C 3603 173 3885 646 4083 1114 
C 4218 1107 4288 1165 4314 1235 
L 3821 1402 
C 3667 851 3430 282 3200 -77 
L 3302 -141 
z
M 5146 1357 
C 5395 1043 5690 512 5709 115 
C 6029 -173 6310 634 5235 1402 
L 5146 1357 
z
M 5178 2637 
C 5312 2502 5459 2330 5581 2144 
C 5030 2112 4499 2080 4064 2061 
C 4544 2547 5069 3206 5376 3680 
C 5510 3654 5600 3699 5638 3763 
L 5171 4000 
C 4858 3405 4333 2605 3885 2054 
C 3654 2048 3462 2042 3328 2042 
L 3501 1626 
C 3565 1632 3616 1670 3654 1754 
C 3974 1792 4269 1830 4538 1862 
L 4538 -486 
L 4576 -486 
C 4723 -486 4826 -403 4826 -378 
L 4826 1901 
C 5146 1939 5427 1978 5664 2016 
C 5760 1856 5830 1690 5856 1542 
C 6176 1299 6413 2048 5261 2688 
L 5178 2637 
z
" transform="scale(0.015625)"/>
       <path id="NotoSerifCJKjp-ExtraLight-76e3" d="M 3238 2995 
C 3533 3264 3789 3635 4006 4032 
L 5933 4032 
C 6022 4032 6086 4058 6099 4128 
C 5914 4307 5619 4538 5619 4538 
L 5357 4218 
L 4102 4218 
C 4224 4480 4333 4749 4422 5018 
C 4544 5018 4621 5075 4640 5152 
L 4109 5293 
C 3930 4454 3565 3578 3142 3059 
L 3238 2995 
z
M 5286 2771 
L 3674 2771 
L 3725 2579 
L 5862 2579 
C 5952 2579 6010 2611 6029 2682 
C 5837 2854 5542 3091 5542 3091 
L 5286 2771 
z
M 1664 4762 
L 1664 4134 
L 883 4134 
L 883 4762 
L 1664 4762 
z
M 2688 3949 
L 2688 3270 
L 883 3270 
L 883 3949 
L 2688 3949 
z
M 1664 2349 
L 883 2349 
L 883 3085 
L 1664 3085 
L 1664 2349 
z
M 883 2163 
L 3085 2163 
C 3174 2163 3226 2195 3245 2266 
C 3066 2438 2778 2669 2778 2669 
L 2522 2349 
L 1946 2349 
L 1946 3085 
L 2688 3085 
L 2688 2912 
L 2726 2912 
C 2816 2912 2963 2989 2970 3027 
L 2970 3904 
C 3078 3923 3181 3974 3213 4019 
L 2803 4326 
L 2630 4134 
L 1946 4134 
L 1946 4762 
L 3040 4762 
C 3130 4762 3187 4794 3200 4864 
C 3021 5030 2739 5261 2739 5261 
L 2490 4947 
L 960 4947 
L 602 5120 
L 602 1811 
L 640 1811 
C 781 1811 883 1894 883 1920 
L 883 2163 
z
M 1440 1427 
L 2400 1427 
L 2400 -134 
L 1440 -134 
L 1440 1427 
z
M 3667 1427 
L 3667 -134 
L 2688 -134 
L 2688 1427 
L 3667 1427 
z
M 4934 1427 
L 4934 -134 
L 3955 -134 
L 3955 1427 
L 4934 1427 
z
M 5357 -134 
L 5222 -134 
L 5222 1382 
C 5376 1402 5466 1434 5510 1504 
L 5043 1856 
L 4864 1613 
L 1517 1613 
L 1152 1786 
L 1152 -134 
L 301 -134 
L 358 -320 
L 5958 -320 
C 6048 -320 6106 -288 6125 -218 
C 5933 -45 5626 198 5626 198 
L 5357 -134 
z
" transform="scale(0.015625)"/>
      </defs>
      <use xlink:href="#NotoSerifCJKjp-ExtraLight-7e23"/>
      <use xlink:href="#NotoSerifCJKjp-ExtraLight-76e3" x="99.999985"/>
     </g>
    </g>
   </g>
   <g id="text_21">
    <g clip-path="url(#pc61cfb4d40)">
     <!-- 吳致仁 -->
     <g transform="translate(1355.160708 901.32) scale(0.12 -0.12)">
      <defs>
       <path id="NotoSerifCJKjp-ExtraLight-5433" d="M 4922 4806 
L 4922 3680 
L 2438 3680 
L 2438 4806 
L 4922 4806 
z
M 2438 3494 
L 4922 3494 
L 4922 3194 
L 4960 3194 
C 5056 3194 5203 3264 5210 3302 
L 5210 4742 
C 5331 4768 5440 4819 5485 4870 
L 5050 5203 
L 4864 4992 
L 2470 4992 
L 2157 5152 
L 2157 3155 
L 2202 3155 
C 2323 3155 2438 3213 2438 3245 
L 2438 3494 
z
M 5965 1280 
C 6054 1280 6112 1312 6131 1382 
C 5933 1562 5626 1805 5626 1805 
L 5350 1472 
L 5018 1472 
L 5018 2426 
C 5139 2451 5254 2502 5299 2554 
L 4870 2880 
L 4672 2682 
L 1274 2682 
L 1274 4608 
C 1414 4627 1472 4685 1485 4768 
L 992 4826 
L 992 2029 
L 1050 2029 
C 1152 2029 1274 2099 1274 2150 
L 1274 2490 
L 4736 2490 
L 4736 1472 
L 3258 1472 
C 3309 1677 3334 1888 3354 2106 
C 3501 2125 3552 2189 3565 2266 
L 3046 2323 
C 3034 2029 3008 1741 2931 1472 
L 294 1472 
L 352 1280 
L 2874 1280 
C 2598 544 1926 -45 237 -358 
L 288 -474 
C 2246 -154 2931 506 3200 1280 
L 3258 1280 
C 3725 288 4602 -205 5933 -461 
C 5971 -320 6074 -224 6202 -205 
L 6208 -141 
C 4890 26 3917 448 3411 1280 
L 5965 1280 
z
" transform="scale(0.015625)"/>
       <path id="NotoSerifCJKjp-ExtraLight-81f4" d="M 3354 832 
C 2842 723 2342 621 1888 531 
L 1888 1696 
L 3046 1696 
C 3136 1696 3194 1728 3206 1798 
C 3021 1971 2726 2208 2726 2208 
L 2470 1888 
L 1888 1888 
L 1888 2522 
C 2042 2547 2112 2605 2125 2701 
L 1600 2758 
L 1600 1888 
L 480 1888 
L 531 1696 
L 1600 1696 
L 1600 467 
C 1030 358 570 269 294 237 
L 512 -224 
C 570 -205 627 -154 653 -77 
C 1830 243 2720 518 3373 717 
L 3354 832 
z
M 3750 3731 
L 5165 3731 
C 5056 2867 4832 2112 4448 1453 
C 4083 2093 3859 2835 3706 3629 
L 3750 3731 
z
M 5971 3731 
C 6061 3731 6125 3763 6138 3834 
C 5952 4013 5651 4243 5651 4243 
L 5389 3923 
L 3840 3923 
C 3987 4282 4122 4659 4224 5056 
C 4365 5056 4435 5120 4461 5197 
L 3923 5331 
C 3750 4429 3437 3578 3066 2912 
C 3162 3110 2995 3616 2150 4000 
L 2074 3942 
C 2266 3789 2477 3558 2630 3322 
C 2067 3270 1517 3219 1075 3187 
C 1299 3565 1555 4115 1754 4582 
L 3194 4582 
C 3277 4582 3341 4614 3354 4685 
C 3174 4864 2880 5088 2880 5088 
L 2624 4774 
L 339 4774 
L 390 4582 
L 1370 4582 
C 1242 4134 1037 3558 864 3168 
C 640 3155 454 3142 320 3136 
L 499 2701 
C 557 2714 614 2758 653 2829 
C 1517 2976 2195 3110 2701 3206 
C 2765 3091 2803 2976 2822 2874 
C 2918 2803 3008 2822 3053 2893 
C 2957 2720 2854 2560 2752 2413 
L 2848 2349 
C 3130 2637 3379 3002 3597 3418 
C 3738 2611 3942 1862 4294 1203 
C 3885 595 3322 70 2566 -371 
L 2630 -461 
C 3411 -77 4000 390 4435 954 
C 4781 384 5248 -102 5875 -474 
C 5926 -339 6048 -282 6170 -269 
L 6189 -211 
C 5498 128 4986 608 4608 1190 
C 5088 1894 5357 2739 5517 3731 
L 5971 3731 
z
" transform="scale(0.015625)"/>
       <path id="NotoSerifCJKjp-ExtraLight-4ec1" d="M 2266 3878 
L 5670 3878 
C 5760 3878 5818 3904 5837 3981 
C 5645 4173 5325 4435 5325 4435 
L 5050 4090 
L 2208 4090 
L 2266 3878 
z
M 1843 5331 
C 1466 4102 845 2867 262 2093 
L 365 2029 
C 659 2342 947 2720 1210 3149 
L 1210 -454 
L 1267 -454 
C 1382 -454 1504 -371 1510 -339 
L 1510 3443 
C 1613 3462 1677 3501 1702 3558 
L 1491 3635 
C 1728 4077 1946 4550 2125 5030 
C 2272 5024 2349 5082 2368 5152 
L 1843 5331 
z
M 5350 390 
L 1920 390 
L 1971 186 
L 5971 186 
C 6067 186 6125 218 6138 282 
C 5946 480 5626 730 5626 730 
L 5350 390 
z
" transform="scale(0.015625)"/>
      </defs>
      <use xlink:href="#NotoSerifCJKjp-ExtraLight-5433"/>
      <use xlink:href="#NotoSerifCJKjp-ExtraLight-81f4" x="99.999985"/>
      <use xlink:href="#NotoSerifCJKjp-ExtraLight-4ec1" x="199.999969"/>
     </g>
    </g>
    <g clip-path="url(#pc61cfb4d40)">
     <!-- 縣監 -->
     <g transform="translate(1361.160708 915.96) scale(0.12 -0.12)">
      <use xlink:href="#NotoSerifCJKjp-ExtraLight-7e23"/>
      <use xlink:href="#NotoSerifCJKjp-ExtraLight-76e3" x="99.999985"/>
     </g>
    </g>
   </g>
   <g id="text_22">
    <g clip-path="url(#pc61cfb4d40)">
     <!-- 尹由德 -->
     <g transform="translate(1577.525832 901.32) scale(0.12 -0.12)">
      <defs>
       <path id="NotoSerifCJKjp-ExtraLight-7531" d="M 3309 224 
L 3309 1926 
L 5184 1926 
L 5184 224 
L 3309 224 
z
M 1210 1926 
L 3027 1926 
L 3027 224 
L 1210 224 
L 1210 1926 
z
M 3027 3712 
L 3027 2112 
L 1210 2112 
L 1210 3712 
L 3027 3712 
z
M 5184 3712 
L 5184 2112 
L 3309 2112 
L 3309 3712 
L 5184 3712 
z
M 5306 4147 
L 5107 3904 
L 3309 3904 
L 3309 5043 
C 3462 5069 3520 5133 3539 5222 
L 3027 5286 
L 3027 3904 
L 1248 3904 
L 934 4070 
L 934 -467 
L 986 -467 
C 1114 -467 1210 -397 1210 -358 
L 1210 32 
L 5184 32 
L 5184 -416 
L 5222 -416 
C 5312 -416 5459 -333 5466 -294 
L 5466 3610 
C 5626 3642 5754 3699 5805 3763 
L 5306 4147 
z
" transform="scale(0.015625)"/>
       <path id="NotoSerifCJKjp-ExtraLight-5fb7" d="M 4358 2669 
L 3648 2669 
L 3648 3603 
L 4358 3603 
L 4358 2669 
z
M 5363 3603 
L 5363 2669 
L 4640 2669 
L 4640 3603 
L 5363 3603 
z
M 2650 3603 
L 3366 3603 
L 3366 2669 
L 2650 2669 
L 2650 3603 
z
M 2029 4531 
L 2080 4346 
L 3846 4346 
C 3834 4141 3821 3949 3808 3789 
L 2726 3789 
L 2368 3955 
L 2368 2208 
L 2406 2208 
C 2554 2208 2650 2291 2650 2317 
L 2650 2477 
L 5363 2477 
L 5363 2291 
L 5402 2291 
C 5523 2291 5651 2368 5651 2394 
L 5651 3590 
C 5760 3610 5824 3635 5869 3680 
L 5498 3974 
L 5344 3789 
L 4038 3789 
C 4058 3955 4083 4147 4102 4346 
L 5990 4346 
C 6080 4346 6138 4378 6150 4448 
C 5965 4621 5670 4858 5670 4858 
L 5408 4531 
L 4122 4531 
C 4147 4730 4166 4934 4179 5107 
C 4307 5120 4378 5184 4390 5274 
L 3885 5312 
C 3878 5075 3866 4800 3853 4531 
L 2029 4531 
z
M 1638 5325 
C 1363 4813 794 4077 256 3603 
L 333 3520 
C 947 3942 1549 4576 1875 5030 
C 2016 4992 2067 5018 2112 5088 
L 1638 5325 
z
M 1594 4051 
C 1338 3373 800 2406 218 1773 
L 294 1690 
C 608 1965 896 2304 1152 2643 
L 1152 -474 
L 1210 -474 
C 1312 -474 1434 -390 1440 -365 
L 1440 2797 
C 1536 2816 1600 2854 1626 2912 
L 1402 3002 
C 1587 3277 1741 3539 1856 3763 
C 2003 3744 2061 3770 2099 3840 
L 1594 4051 
z
M 2445 1178 
C 2394 762 2106 371 1869 224 
C 1766 147 1709 38 1766 -45 
C 1837 -141 2022 -83 2144 19 
C 2349 186 2624 576 2566 1171 
L 2445 1178 
z
M 5005 704 
L 4915 704 
C 4877 403 4819 102 4781 13 
C 4762 -45 4742 -51 4678 -58 
C 4608 -64 4403 -64 4128 -64 
L 3558 -64 
C 3341 -64 3322 -51 3322 32 
L 3322 1158 
C 3430 1178 3494 1235 3501 1312 
L 3040 1376 
L 3040 -19 
C 3040 -243 3117 -320 3520 -320 
L 4134 -320 
C 5011 -320 5165 -269 5165 -134 
C 5165 -77 5133 -38 5024 -6 
L 5005 704 
z
M 3488 1600 
C 3763 1414 4115 1069 4211 787 
C 4538 602 4710 1293 3558 1664 
L 3488 1600 
z
M 4986 1280 
C 5344 973 5792 416 5875 -13 
C 6227 -275 6451 614 5062 1338 
L 4986 1280 
z
M 5408 1958 
L 2003 1958 
L 2054 1773 
L 5990 1773 
C 6080 1773 6138 1805 6150 1875 
C 5965 2042 5670 2266 5670 2266 
L 5408 1958 
z
" transform="scale(0.015625)"/>
      </defs>
      <use xlink:href="#NotoSerifCJKjp-ExtraLight-5c39"/>
      <use xlink:href="#NotoSerifCJKjp-ExtraLight-7531" x="99.999985"/>
      <use xlink:href="#NotoSerifCJKjp-ExtraLight-5fb7" x="199.999969"/>
     </g>
    </g>
    <g clip-path="url(#pc61cfb4d40)">
     <!-- 司正 -->
     <g transform="translate(1583.525832 915.96) scale(0.12 -0.12)">
      <defs>
       <path id="NotoSerifCJKjp-ExtraLight-6b63" d="M 5325 19 
L 3373 19 
L 3373 2374 
L 5402 2374 
C 5491 2374 5555 2406 5574 2477 
C 5370 2662 5056 2906 5056 2906 
L 4781 2566 
L 3373 2566 
L 3373 4589 
L 5741 4589 
C 5830 4589 5888 4621 5907 4691 
C 5709 4877 5382 5126 5382 5126 
L 5101 4781 
L 518 4781 
L 576 4589 
L 3091 4589 
L 3091 19 
L 1594 19 
L 1594 2989 
C 1747 3014 1811 3078 1830 3168 
L 1312 3226 
L 1312 19 
L 294 19 
L 352 -173 
L 5965 -173 
C 6054 -173 6112 -141 6131 -70 
C 5926 122 5606 365 5606 365 
L 5325 19 
z
" transform="scale(0.015625)"/>
      </defs>
      <use xlink:href="#NotoSerifCJKjp-ExtraLight-53f8"/>
      <use xlink:href="#NotoSerifCJKjp-ExtraLight-6b63" x="99.999985"/>
     </g>
    </g>
   </g>
   <g id="text_23">
    <g clip-path="url(#pc61cfb4d40)">
     <!-- 李源達 -->
     <g transform="translate(1799.890956 901.32) scale(0.12 -0.12)">
      <defs>
       <path id="NotoSerifCJKjp-ExtraLight-6e90" d="M 774 5222 
C 1069 5050 1427 4717 1542 4454 
C 1926 4262 2074 5030 838 5286 
L 774 5222 
z
M 256 3802 
C 538 3648 870 3354 973 3110 
C 1350 2918 1498 3693 314 3866 
L 256 3802 
z
M 1939 4109 
C 858 1670 858 1670 755 1459 
C 698 1325 678 1325 614 1325 
L 326 1325 
L 326 1178 
C 467 1158 557 1146 640 1088 
C 768 1005 813 538 736 -115 
C 736 -307 774 -435 877 -435 
C 1043 -435 1120 -288 1139 -38 
C 1158 467 1024 800 1024 1062 
C 1024 1216 1062 1395 1114 1581 
C 1210 1856 1779 3302 2061 4077 
L 1939 4109 
z
M 3245 1421 
C 3059 986 2656 378 2234 -6 
L 2317 -90 
C 2803 243 3245 755 3488 1133 
C 3629 1107 3680 1133 3718 1203 
L 3245 1421 
z
M 3206 2854 
L 5414 2854 
L 5414 2138 
L 3206 2138 
L 3206 2854 
z
M 5414 3763 
L 5414 3046 
L 3206 3046 
L 3206 3763 
L 5414 3763 
z
M 5414 1946 
L 5414 1670 
L 5453 1670 
C 5549 1670 5696 1754 5702 1792 
L 5702 3699 
C 5824 3725 5933 3776 5978 3827 
L 5542 4160 
L 5350 3955 
L 4147 3955 
C 4230 4128 4301 4314 4358 4467 
C 4480 4461 4557 4525 4582 4595 
L 4122 4717 
L 5952 4717 
C 6042 4717 6099 4749 6118 4819 
C 5926 4992 5632 5229 5632 5229 
L 5370 4902 
L 2534 4902 
L 2189 5082 
L 2189 3341 
C 2189 2080 2080 762 1331 -314 
L 1440 -390 
C 2381 691 2470 2202 2470 3347 
L 2470 4717 
L 4096 4717 
C 4064 4493 4006 4192 3949 3955 
L 3238 3955 
L 2931 4109 
L 2931 1600 
L 2976 1600 
C 3098 1600 3206 1664 3206 1696 
L 3206 1946 
L 4160 1946 
L 4160 26 
C 4160 -64 4128 -96 4019 -96 
C 3885 -96 3270 -51 3270 -51 
L 3270 -154 
C 3539 -173 3699 -211 3789 -262 
C 3866 -314 3904 -397 3917 -474 
C 4384 -422 4448 -237 4448 19 
L 4448 1946 
L 5414 1946 
z
M 4915 1280 
C 5274 986 5722 454 5843 58 
C 6227 -192 6438 672 4992 1338 
L 4915 1280 
z
" transform="scale(0.015625)"/>
       <path id="NotoSerifCJKjp-ExtraLight-9054" d="M 1811 3878 
L 1862 3686 
L 2797 3686 
L 2739 3654 
C 2906 3462 3085 3123 3104 2861 
C 3386 2611 3667 3226 2842 3686 
L 4659 3686 
C 4557 3405 4397 3027 4243 2765 
L 1990 2765 
L 2042 2573 
L 3718 2573 
L 3718 1952 
L 2144 1952 
L 2195 1766 
L 3718 1766 
L 3718 1146 
L 1869 1146 
L 1920 960 
L 3718 960 
L 3718 141 
L 3757 141 
C 3904 141 4006 224 4006 250 
L 4006 960 
L 5869 960 
C 5958 960 6016 992 6035 1062 
C 5856 1229 5574 1453 5574 1453 
L 5331 1146 
L 4006 1146 
L 4006 1766 
L 5517 1766 
C 5606 1766 5664 1798 5677 1869 
C 5510 2029 5248 2240 5248 2240 
L 5018 1952 
L 4006 1952 
L 4006 2573 
L 5677 2573 
C 5760 2573 5818 2605 5830 2675 
C 5670 2835 5395 3053 5395 3053 
L 5165 2765 
L 4416 2765 
C 4614 2976 4806 3238 4934 3450 
C 5069 3443 5146 3494 5178 3565 
L 4774 3686 
L 5933 3686 
C 6022 3686 6080 3718 6099 3789 
C 5920 3962 5638 4179 5638 4179 
L 5389 3878 
L 4006 3878 
L 4006 4512 
L 5504 4512 
C 5594 4512 5651 4544 5670 4614 
C 5498 4781 5229 4992 5229 4992 
L 4992 4704 
L 4006 4704 
L 4006 5152 
C 4122 5171 4173 5222 4186 5293 
L 3718 5350 
L 3718 4704 
L 2118 4704 
L 2170 4512 
L 3718 4512 
L 3718 3878 
L 1811 3878 
z
M 486 5088 
C 832 4813 1248 4314 1338 3923 
C 1722 3648 1952 4557 563 5146 
L 486 5088 
z
M 1478 2387 
C 1645 2413 1741 2464 1779 2502 
L 1318 2899 
L 1114 2630 
L 294 2630 
L 333 2438 
L 1197 2438 
L 1197 544 
C 864 314 486 70 256 -51 
L 525 -448 
C 576 -416 602 -378 582 -301 
C 800 -115 1158 237 1389 486 
C 1856 -173 2387 -307 3552 -307 
L 5894 -307 
C 5914 -166 6003 -90 6150 -70 
L 6150 26 
C 5370 0 4326 0 3546 0 
C 2451 0 1939 83 1478 621 
L 1478 2387 
z
" transform="scale(0.015625)"/>
      </defs>
      <use xlink:href="#NotoSerifCJKjp-ExtraLight-674e"/>
      <use xlink:href="#NotoSerifCJKjp-ExtraLight-6e90" x="99.999985"/>
      <use xlink:href="#NotoSerifCJKjp-ExtraLight-9054" x="199.999969"/>
     </g>
    </g>
    <g clip-path="url(#pc61cfb4d40)">
     <!--  -->
     <g transform="translate(1817.890956 915.96) scale(0.12 -0.12)"/>
    </g>
   </g>
   <g id="text_24">
    <g clip-path="url(#pc61cfb4d40)">
     <!-- 尹暉 -->
     <g transform="translate(2361.803765 181.32) scale(0.12 -0.12)">
      <defs>
       <path id="NotoSerifCJKjp-ExtraLight-6689" d="M 5491 4755 
C 5434 4589 5357 4384 5306 4269 
L 5408 4224 
C 5549 4346 5766 4563 5888 4704 
C 6003 4710 6080 4723 6125 4768 
L 5709 5171 
L 5485 4941 
L 2816 4941 
C 2816 5024 2803 5114 2778 5210 
L 2662 5210 
C 2669 4947 2515 4659 2355 4550 
C 2253 4474 2195 4358 2253 4256 
C 2323 4141 2502 4173 2611 4269 
C 2714 4358 2797 4525 2816 4755 
L 5491 4755 
z
M 800 883 
L 800 2650 
L 1709 2650 
L 1709 883 
L 800 883 
z
M 1709 4582 
L 1709 2835 
L 800 2835 
L 800 4582 
L 1709 4582 
z
M 1837 4992 
L 1645 4774 
L 877 4774 
L 518 4941 
L 518 83 
L 557 83 
C 698 83 800 173 800 198 
L 800 691 
L 1709 691 
L 1709 320 
L 1747 320 
C 1850 320 1984 403 1990 448 
L 1990 4518 
C 2118 4544 2234 4595 2272 4646 
L 1837 4992 
z
M 2912 1651 
L 2912 2253 
L 3936 2253 
L 3936 1651 
L 2912 1651 
z
M 3936 3059 
L 3936 2438 
L 2912 2438 
L 2912 3059 
L 3936 3059 
z
M 5274 3059 
L 5274 2438 
L 4218 2438 
L 4218 3059 
L 5274 3059 
z
M 4218 1651 
L 4218 2253 
L 5274 2253 
L 5274 1651 
L 4218 1651 
z
M 5472 781 
L 4218 781 
L 4218 1466 
L 5274 1466 
L 5274 1165 
L 5306 1165 
C 5421 1165 5549 1248 5549 1274 
L 5549 3040 
C 5670 3059 5734 3098 5773 3142 
L 5395 3430 
L 5254 3245 
L 4218 3245 
L 4218 3795 
L 5766 3795 
C 5856 3795 5914 3827 5933 3898 
C 5754 4064 5485 4282 5485 4282 
L 5248 3987 
L 4218 3987 
L 4218 4326 
C 4378 4352 4435 4416 4448 4499 
L 3936 4563 
L 3936 3987 
L 2426 3987 
L 2477 3795 
L 3936 3795 
L 3936 3245 
L 2989 3245 
L 2637 3411 
L 2637 1107 
L 2675 1107 
C 2810 1107 2912 1190 2912 1216 
L 2912 1466 
L 3936 1466 
L 3936 781 
L 2214 781 
L 2266 595 
L 3936 595 
L 3936 -467 
L 3994 -467 
C 4096 -467 4218 -390 4218 -333 
L 4218 595 
L 6054 595 
C 6138 595 6195 627 6214 691 
C 6029 870 5728 1101 5728 1101 
L 5472 781 
z
" transform="scale(0.015625)"/>
      </defs>
      <use xlink:href="#NotoSerifCJKjp-ExtraLight-5c39"/>
      <use xlink:href="#NotoSerifCJKjp-ExtraLight-6689" x="99.999985"/>
     </g>
    </g>
    <g clip-path="url(#pc61cfb4d40)">
     <!--  -->
     <g transform="translate(2373.803765 195.96) scale(0.12 -0.12)"/>
    </g>
   </g>
   <g id="text_25">
    <g clip-path="url(#pc61cfb4d40)">
     <!-- 柳壕 -->
     <g transform="translate(2250.621203 541.32) scale(0.12 -0.12)">
      <defs>
       <path id="NotoSerifCJKjp-ExtraLight-67f3" d="M 1466 3667 
L 2227 3667 
C 2317 3667 2368 3699 2387 3770 
C 2208 3942 1926 4166 1926 4166 
L 1670 3859 
L 1466 3859 
L 1466 5082 
C 1619 5107 1670 5165 1690 5261 
L 1178 5318 
L 1178 3859 
L 301 3859 
L 352 3667 
L 1075 3667 
C 928 2739 653 1837 211 1101 
L 307 1018 
C 704 1542 979 2144 1178 2797 
L 1178 -467 
L 1242 -467 
C 1344 -467 1466 -397 1466 -339 
L 1466 2944 
C 1664 2694 1907 2349 1984 2093 
C 2317 1869 2554 2522 1466 3085 
L 1466 3667 
z
M 3552 2304 
C 3552 2061 3539 1830 3507 1606 
C 3251 1504 2982 1408 2733 1318 
L 2733 4563 
C 3104 4678 3565 4845 3821 4973 
C 3917 4928 4000 4934 4038 4986 
L 3648 5254 
C 3462 5107 3149 4934 2854 4787 
L 2445 4864 
L 2445 1222 
C 2234 1158 2048 1101 1901 1069 
L 2112 704 
C 2170 730 2208 781 2227 858 
C 2720 1056 3142 1274 3482 1459 
C 3341 710 2963 83 2093 -378 
L 2176 -474 
C 3526 160 3827 1152 3834 2304 
L 3834 4179 
C 3987 4205 4038 4262 4051 4352 
L 3552 4410 
L 3552 2304 
z
M 5690 5030 
L 5523 4819 
L 4742 4819 
L 4384 4986 
L 4384 -467 
L 4422 -467 
C 4563 -467 4666 -384 4666 -352 
L 4666 4627 
L 5587 4627 
L 5587 1254 
C 5587 1165 5562 1133 5472 1133 
C 5370 1133 4934 1171 4934 1171 
L 4934 1075 
C 5133 1050 5254 1011 5318 966 
C 5382 915 5408 832 5421 755 
C 5824 800 5869 960 5869 1222 
L 5869 4563 
C 5997 4589 6106 4640 6144 4691 
L 5690 5030 
z
" transform="scale(0.015625)"/>
       <path id="NotoSerifCJKjp-ExtraLight-58d5" d="M 5446 2163 
C 5581 2298 5792 2541 5914 2694 
C 6029 2701 6106 2707 6144 2752 
L 5722 3168 
L 5498 2931 
L 2406 2931 
C 2406 3014 2400 3104 2387 3194 
L 2285 3194 
C 2272 2771 2042 2483 1920 2394 
C 1632 2214 1850 1978 2099 2150 
C 2259 2253 2368 2464 2400 2746 
L 5517 2746 
C 5459 2560 5389 2330 5344 2208 
L 5446 2163 
z
M 2963 3501 
L 2963 4032 
L 5043 4032 
L 5043 3501 
L 2963 3501 
z
M 5082 3162 
C 5171 3162 5318 3219 5325 3251 
L 5325 4000 
C 5434 4019 5530 4058 5568 4102 
L 5165 4410 
L 4986 4224 
L 3040 4224 
L 2682 4397 
L 2682 3117 
L 2720 3117 
C 2861 3117 2963 3194 2963 3219 
L 2963 3309 
L 5043 3309 
L 5043 3162 
L 5082 3162 
z
M 1990 4576 
L 5958 4576 
C 6048 4576 6106 4608 6125 4678 
C 5939 4858 5638 5088 5638 5088 
L 5376 4768 
L 4122 4768 
L 4122 5101 
C 4275 5120 4346 5184 4358 5274 
L 3840 5331 
L 3840 4768 
L 1939 4768 
L 1990 4576 
z
M 2214 1818 
C 1920 1690 1626 1568 1350 1459 
L 1350 3366 
L 2022 3366 
C 2112 3366 2170 3398 2189 3469 
C 2003 3635 1722 3866 1722 3866 
L 1472 3558 
L 1350 3558 
L 1350 4998 
C 1517 5018 1568 5082 1587 5171 
L 1069 5235 
L 1069 3558 
L 275 3558 
L 326 3366 
L 1069 3366 
L 1069 1344 
C 704 1197 397 1082 230 1030 
L 429 608 
C 486 634 531 691 544 768 
C 1261 1146 1837 1491 2253 1722 
L 2214 1818 
z
M 5619 2042 
C 5376 1850 4986 1568 4672 1363 
C 4512 1613 4378 1882 4282 2163 
L 5146 2163 
C 5229 2163 5293 2195 5299 2266 
C 5133 2426 4870 2643 4870 2643 
L 4634 2349 
L 2554 2349 
L 2605 2163 
L 3526 2163 
C 3085 1837 2496 1555 1882 1357 
L 1939 1235 
C 2490 1382 3008 1574 3450 1830 
C 3526 1747 3597 1664 3661 1581 
C 3232 1229 2509 877 1901 678 
L 1939 563 
C 2579 730 3309 1043 3808 1350 
C 3859 1254 3898 1158 3936 1062 
C 3373 544 2419 77 1562 -173 
L 1606 -288 
C 2464 -90 3392 301 4026 736 
C 4083 390 4038 90 3923 -38 
C 3891 -77 3853 -83 3776 -83 
C 3648 -83 3213 -64 2989 -45 
L 2995 -160 
C 3187 -179 3392 -230 3475 -269 
C 3552 -314 3584 -371 3597 -467 
C 3898 -467 4064 -403 4166 -282 
C 4499 70 4474 1222 3565 1894 
C 3699 1978 3821 2067 3936 2163 
L 4134 2163 
C 4422 1114 5037 262 5862 -224 
C 5920 -102 6022 -19 6144 -19 
L 6157 45 
C 5600 307 5107 736 4742 1261 
C 5082 1402 5491 1587 5734 1715 
C 5843 1677 5901 1683 5933 1722 
L 5619 2042 
z
" transform="scale(0.015625)"/>
      </defs>
      <use xlink:href="#NotoSerifCJKjp-ExtraLight-67f3"/>
      <use xlink:href="#NotoSerifCJKjp-ExtraLight-58d5" x="99.999985"/>
     </g>
    </g>
    <g clip-path="url(#pc61cfb4d40)">
     <!-- 生員 -->
     <g transform="translate(2250.621203 555.96) scale(0.12 -0.12)">
      <use xlink:href="#NotoSerifCJKjp-ExtraLight-751f"/>
      <use xlink:href="#NotoSerifCJKjp-ExtraLight-54e1" x="99.999985"/>
     </g>
    </g>
   </g>
   <g id="text_26">
    <g clip-path="url(#pc61cfb4d40)">
     <!-- 金適 -->
     <g transform="translate(2472.986326 541.32) scale(0.12 -0.12)">
      <defs>
       <path id="NotoSerifCJKjp-ExtraLight-9069" d="M 3360 3680 
C 3539 3750 3571 4179 2918 4474 
L 4672 4474 
C 4602 4224 4480 3917 4358 3680 
L 3360 3680 
z
M 1933 4474 
L 2893 4474 
L 2829 4442 
C 2982 4262 3149 3962 3168 3725 
C 3194 3706 3219 3686 3245 3680 
L 2477 3680 
L 2163 3846 
L 2163 250 
L 2214 250 
C 2342 250 2445 326 2445 358 
L 2445 3494 
L 5466 3494 
L 5466 755 
C 5466 666 5434 634 5331 634 
C 5210 634 4659 672 4659 672 
L 4659 570 
C 4896 544 5043 499 5126 448 
C 5203 397 5235 307 5248 230 
C 5702 275 5747 448 5747 717 
L 5747 3430 
C 5875 3450 5990 3507 6029 3552 
L 5568 3898 
L 5402 3680 
L 4544 3680 
C 4710 3853 4864 4051 4960 4218 
C 5088 4211 5171 4269 5197 4339 
L 4742 4474 
L 5971 4474 
C 6061 4474 6118 4506 6138 4576 
C 5946 4762 5638 4992 5638 4992 
L 5370 4666 
L 4051 4666 
L 4051 5146 
C 4192 5171 4250 5229 4262 5306 
L 3770 5363 
L 3770 4666 
L 1882 4666 
L 1933 4474 
z
M 3334 1165 
L 3334 1914 
L 4467 1914 
L 4461 1165 
L 3334 1165 
z
M 4518 691 
C 4627 691 4736 768 4749 794 
L 4749 1869 
C 4851 1888 4934 1933 4979 1971 
L 4627 2285 
L 4467 2099 
L 4051 2099 
L 4051 2688 
L 5120 2688 
C 5203 2688 5261 2720 5280 2784 
C 5120 2938 4877 3136 4877 3136 
L 4672 2874 
L 4051 2874 
L 4051 3187 
C 4173 3200 4224 3251 4237 3328 
L 3770 3386 
L 3770 2874 
L 2682 2874 
L 2733 2688 
L 3770 2688 
L 3770 2099 
L 3366 2099 
L 3053 2253 
L 3053 538 
L 3098 538 
C 3213 538 3334 608 3334 634 
L 3334 979 
L 4461 979 
L 4461 691 
L 4518 691 
z
M 550 5088 
C 896 4813 1312 4314 1402 3923 
C 1786 3648 2016 4557 627 5146 
L 550 5088 
z
M 1478 2387 
C 1645 2413 1741 2464 1779 2502 
L 1318 2899 
L 1114 2630 
L 294 2630 
L 333 2438 
L 1197 2438 
L 1197 544 
C 864 314 486 70 256 -51 
L 525 -448 
C 576 -416 602 -378 582 -301 
C 800 -115 1158 237 1389 486 
C 1856 -173 2387 -307 3552 -307 
L 5894 -307 
C 5914 -166 6003 -90 6150 -70 
L 6150 26 
C 5370 0 4326 0 3546 0 
C 2451 0 1939 83 1478 621 
L 1478 2387 
z
" transform="scale(0.015625)"/>
      </defs>
      <use xlink:href="#NotoSerifCJKjp-ExtraLight-91d1"/>
      <use xlink:href="#NotoSerifCJKjp-ExtraLight-9069" x="99.999985"/>
     </g>
    </g>
    <g clip-path="url(#pc61cfb4d40)">
     <!-- 司勇 -->
     <g transform="translate(2472.986326 555.96) scale(0.12 -0.12)">
      <use xlink:href="#NotoSerifCJKjp-ExtraLight-53f8"/>
      <use xlink:href="#NotoSerifCJKjp-ExtraLight-52c7" x="99.999985"/>
     </g>
    </g>
   </g>
   <g id="text_27">
    <g clip-path="url(#pc61cfb4d40)">
     <!-- 尹煥 -->
     <g transform="translate(1583.525832 181.32) scale(0.12 -0.12)">
      <defs>
       <path id="NotoSerifCJKjp-ExtraLight-7165" d="M 4346 4595 
C 4230 4371 4077 4083 3923 3866 
L 2938 3866 
L 2848 3910 
C 3021 4134 3174 4365 3315 4595 
L 4346 4595 
z
M 5331 3674 
L 5331 2765 
L 5312 2771 
L 5242 2771 
C 5216 2765 5178 2752 5152 2752 
L 5094 2752 
L 4896 2752 
L 4691 2752 
C 4608 2752 4595 2771 4595 2829 
L 4595 3674 
L 5331 3674 
z
M 2003 3040 
C 2202 3194 2394 3379 2579 3584 
L 2579 1670 
L 2624 1670 
C 2765 1670 2861 1754 2861 1779 
L 2861 3674 
L 3552 3674 
C 3533 3136 3462 2682 2938 2317 
L 3034 2214 
C 3706 2573 3814 3072 3853 3674 
L 4314 3674 
L 4314 2765 
C 4314 2573 4365 2496 4621 2496 
L 4877 2496 
C 5094 2496 5242 2502 5331 2528 
L 5331 1715 
L 5370 1715 
C 5466 1715 5606 1792 5613 1830 
L 5613 3610 
C 5734 3635 5850 3686 5888 3738 
L 5453 4070 
L 5274 3866 
L 4090 3866 
C 4320 4083 4557 4384 4710 4570 
C 4832 4576 4909 4582 4954 4627 
L 4570 4998 
L 4365 4787 
L 3424 4787 
C 3488 4902 3546 5011 3597 5120 
C 3750 5107 3802 5139 3827 5210 
L 3322 5331 
C 3046 4576 2483 3648 1920 3117 
L 2003 3040 
z
M 678 3962 
C 691 3366 499 2918 365 2778 
C 83 2502 358 2272 608 2522 
C 832 2752 909 3251 787 3962 
L 678 3962 
z
M 1504 3168 
C 1792 3386 2112 3667 2285 3853 
C 2400 3814 2490 3866 2515 3917 
L 2074 4192 
C 1958 3981 1709 3597 1498 3315 
C 1510 3853 1504 4448 1510 5088 
C 1658 5114 1709 5178 1728 5267 
L 1203 5325 
C 1203 2534 1325 762 262 -352 
L 358 -467 
C 915 38 1197 666 1344 1459 
C 1645 1171 1971 749 2054 422 
C 2394 186 2598 954 1370 1587 
C 1446 2061 1478 2586 1498 3174 
L 1504 3168 
z
M 6042 1293 
C 6125 1293 6176 1325 6195 1395 
C 6029 1555 5754 1773 5754 1773 
L 5517 1485 
L 4090 1485 
C 4115 1638 4128 1786 4141 1926 
C 4275 1939 4326 2003 4339 2080 
L 3853 2131 
C 3846 1920 3834 1702 3789 1485 
L 2022 1485 
L 2074 1293 
L 3744 1293 
C 3578 704 3136 122 1907 -352 
L 1984 -461 
C 3450 38 3891 685 4045 1293 
L 4115 1293 
C 4294 685 4710 -26 5882 -442 
C 5920 -288 6022 -262 6170 -250 
L 6182 -173 
C 4986 198 4480 749 4256 1293 
L 6042 1293 
z
" transform="scale(0.015625)"/>
      </defs>
      <use xlink:href="#NotoSerifCJKjp-ExtraLight-5c39"/>
      <use xlink:href="#NotoSerifCJKjp-ExtraLight-7165" x="99.999985"/>
     </g>
    </g>
    <g clip-path="url(#pc61cfb4d40)">
     <!-- 縣監 -->
     <g transform="translate(1583.525832 195.96) scale(0.12 -0.12)">
      <use xlink:href="#NotoSerifCJKjp-ExtraLight-7e23"/>
      <use xlink:href="#NotoSerifCJKjp-ExtraLight-76e3" x="99.999985"/>
     </g>
    </g>
   </g>
   <g id="text_28">
    <g clip-path="url(#pc61cfb4d40)">
     <!-- 李埤 -->
     <g transform="translate(2028.256079 541.32) scale(0.12 -0.12)">
      <defs>
       <path id="NotoSerifCJKjp-ExtraLight-57e4" d="M 4006 4448 
C 4000 4147 4000 3872 3981 3610 
L 2842 3610 
L 2842 4448 
L 4006 4448 
z
M 5395 4448 
L 5395 3610 
L 4262 3610 
C 4282 3872 4288 4147 4294 4448 
L 5395 4448 
z
M 4058 2560 
C 4160 2816 4211 3104 4243 3418 
L 5395 3418 
L 5395 2560 
L 4058 2560 
z
M 2842 2560 
L 2842 3418 
L 3968 3418 
C 3936 3104 3878 2822 3776 2560 
L 2842 2560 
z
M 2842 2368 
L 3693 2368 
C 3482 1978 3142 1645 2573 1370 
L 2662 1254 
C 3354 1549 3744 1914 3974 2368 
L 5395 2368 
L 5395 2086 
L 5434 2086 
C 5530 2086 5677 2170 5683 2208 
L 5683 4403 
C 5786 4422 5888 4467 5926 4512 
L 5517 4832 
L 5338 4634 
L 3827 4634 
C 3930 4774 4058 4954 4141 5088 
C 4275 5082 4358 5133 4384 5210 
L 3872 5344 
C 3802 5139 3693 4838 3616 4634 
L 2874 4634 
L 2560 4800 
L 2560 2048 
L 2611 2048 
C 2733 2048 2842 2118 2842 2150 
L 2842 2368 
z
M 2406 1696 
C 2074 1555 1747 1414 1446 1293 
L 1446 3354 
L 2240 3354 
C 2330 3354 2381 3386 2400 3456 
C 2221 3622 1939 3853 1939 3853 
L 1683 3546 
L 1446 3546 
L 1446 4941 
C 1600 4960 1658 5024 1677 5114 
L 1158 5178 
L 1158 3546 
L 314 3546 
L 365 3354 
L 1158 3354 
L 1158 1171 
C 781 1024 474 902 288 845 
L 550 442 
C 602 467 646 531 659 608 
C 1427 1011 2016 1357 2451 1600 
L 2406 1696 
z
M 5382 1120 
L 4730 1120 
L 4730 1990 
C 4883 2016 4947 2074 4960 2163 
L 4448 2227 
L 4448 1120 
L 2067 1120 
L 2118 934 
L 4448 934 
L 4448 -486 
L 4499 -486 
C 4608 -486 4730 -410 4730 -365 
L 4730 934 
L 5965 934 
C 6054 934 6118 966 6131 1037 
C 5946 1210 5651 1446 5651 1446 
L 5382 1120 
z
" transform="scale(0.015625)"/>
      </defs>
      <use xlink:href="#NotoSerifCJKjp-ExtraLight-674e"/>
      <use xlink:href="#NotoSerifCJKjp-ExtraLight-57e4" x="99.999985"/>
     </g>
    </g>
    <g clip-path="url(#pc61cfb4d40)">
     <!-- 中樞 -->
     <g transform="translate(2028.256079 555.96) scale(0.12 -0.12)">
      <defs>
       <path id="NotoSerifCJKjp-ExtraLight-4e2d" d="M 3315 2144 
L 3315 3827 
L 5350 3827 
L 5350 2144 
L 3315 2144 
z
M 998 2144 
L 998 3827 
L 3034 3827 
L 3034 2144 
L 998 2144 
z
M 5478 4224 
L 5286 4019 
L 3315 4019 
L 3315 5094 
C 3475 5120 3520 5184 3539 5274 
L 3034 5338 
L 3034 4019 
L 1037 4019 
L 723 4186 
L 723 1357 
L 774 1357 
C 890 1357 998 1427 998 1459 
L 998 1952 
L 3034 1952 
L 3034 -474 
L 3091 -474 
C 3194 -474 3315 -397 3315 -346 
L 3315 1952 
L 5350 1952 
L 5350 1421 
L 5389 1421 
C 5485 1421 5626 1498 5632 1536 
L 5632 3763 
C 5760 3789 5862 3840 5907 3891 
L 5478 4224 
z
" transform="scale(0.015625)"/>
       <path id="NotoSerifCJKjp-ExtraLight-6a1e" d="M 4922 1069 
L 4922 2131 
L 5606 2131 
L 5606 1069 
L 4922 1069 
z
M 5645 672 
C 5734 672 5882 749 5888 787 
L 5888 2106 
C 5984 2118 6074 2163 6106 2208 
L 5722 2496 
L 5555 2323 
L 4954 2323 
L 4640 2470 
L 4640 608 
L 4685 608 
C 4806 608 4922 672 4922 698 
L 4922 877 
L 5606 877 
L 5606 672 
L 5645 672 
z
M 3328 1069 
L 3328 2131 
L 3981 2131 
L 3981 1069 
L 3328 1069 
z
M 4019 672 
C 4109 672 4256 749 4262 787 
L 4262 2106 
C 4358 2118 4448 2163 4474 2208 
L 4096 2496 
L 3930 2323 
L 3360 2323 
L 3046 2470 
L 3046 582 
L 3091 582 
C 3206 582 3328 646 3328 672 
L 3328 877 
L 3981 877 
L 3981 672 
L 4019 672 
z
M 3853 3130 
L 3853 4026 
L 5018 4026 
L 5018 3130 
L 3853 3130 
z
M 5018 2726 
L 5056 2726 
C 5152 2726 5299 2797 5299 2835 
L 5299 4000 
C 5395 4013 5485 4051 5517 4096 
L 5139 4390 
L 4966 4211 
L 3885 4211 
L 3571 4365 
L 3571 2650 
L 3616 2650 
C 3731 2650 3853 2720 3853 2746 
L 3853 2938 
L 5018 2938 
L 5018 2726 
z
M 1683 3866 
L 1478 3866 
L 1478 5082 
C 1632 5107 1683 5165 1702 5261 
L 1190 5318 
L 1190 3866 
L 314 3866 
L 365 3674 
L 1088 3674 
C 941 2746 666 1843 224 1107 
L 320 1024 
C 717 1549 992 2150 1190 2803 
L 1190 -467 
L 1254 -467 
C 1357 -467 1478 -397 1478 -339 
L 1478 2822 
C 1677 2579 1920 2234 1997 1971 
C 2330 1747 2566 2400 1478 2963 
L 1478 3674 
L 2240 3674 
C 2330 3674 2381 3706 2400 3776 
C 2221 3949 1939 4173 1939 4173 
L 1683 3866 
z
M 5434 179 
L 2688 179 
L 2688 4678 
L 5837 4678 
C 5926 4678 5984 4710 6003 4781 
C 5818 4954 5517 5190 5517 5190 
L 5261 4870 
L 2765 4870 
L 2400 5037 
L 2400 -474 
L 2438 -474 
C 2586 -474 2688 -384 2688 -358 
L 2688 -13 
L 6016 -13 
C 6106 -13 6163 19 6176 90 
C 5997 262 5696 499 5696 499 
L 5434 179 
z
" transform="scale(0.015625)"/>
      </defs>
      <use xlink:href="#NotoSerifCJKjp-ExtraLight-4e2d"/>
      <use xlink:href="#NotoSerifCJKjp-ExtraLight-6a1e" x="99.999985"/>
     </g>
    </g>
   </g>
   <g id="text_29">
    <g clip-path="url(#pc61cfb4d40)">
     <!-- 李儀 -->
     <g transform="translate(2028.256079 901.32) scale(0.12 -0.12)">
      <defs>
       <path id="NotoSerifCJKjp-ExtraLight-5100" d="M 1965 4544 
L 2016 4358 
L 3731 4358 
L 3731 3834 
L 2214 3834 
L 2266 3642 
L 3731 3642 
L 3731 3110 
L 1805 3110 
L 1856 2918 
L 5939 2918 
C 6029 2918 6086 2950 6106 3021 
C 5914 3194 5619 3430 5619 3430 
L 5357 3110 
L 4019 3110 
L 4019 3642 
L 5568 3642 
C 5658 3642 5715 3674 5728 3744 
C 5555 3917 5274 4134 5274 4134 
L 5030 3834 
L 4019 3834 
L 4019 4358 
L 5837 4358 
C 5926 4358 5984 4390 6003 4454 
C 5811 4634 5517 4870 5517 4870 
L 5254 4544 
L 4352 4544 
C 4544 4691 4736 4877 4858 5030 
C 4979 5011 5069 5062 5094 5126 
L 4563 5331 
C 4480 5082 4339 4768 4198 4544 
L 3347 4544 
C 3475 4672 3405 5069 2726 5318 
L 2650 5274 
C 2842 5094 3072 4787 3123 4544 
L 1965 4544 
z
M 4781 2611 
C 5024 2509 5312 2298 5421 2106 
C 5747 1965 5843 2618 4838 2682 
L 4781 2611 
z
M 1626 5331 
C 1318 4147 794 2950 275 2189 
L 378 2118 
C 640 2419 890 2797 1120 3213 
L 1120 -467 
L 1171 -467 
C 1280 -467 1402 -384 1408 -358 
L 1408 3482 
C 1517 3494 1574 3539 1594 3597 
L 1363 3680 
C 1574 4115 1760 4576 1920 5043 
C 2054 5037 2131 5101 2157 5171 
L 1626 5331 
z
M 6029 518 
L 5939 531 
C 5888 320 5818 96 5766 -13 
C 5728 -109 5702 -109 5613 -64 
C 5325 77 5107 282 4941 538 
C 5139 710 5325 902 5491 1107 
C 5613 1062 5677 1082 5722 1126 
L 5344 1427 
C 5184 1197 5005 979 4806 781 
C 4698 1024 4621 1299 4570 1594 
L 5978 1594 
C 6067 1594 6125 1626 6138 1696 
C 5965 1869 5690 2086 5690 2086 
L 5440 1786 
L 4544 1786 
C 4512 2042 4493 2304 4493 2566 
C 4621 2586 4672 2656 4685 2726 
L 4186 2778 
C 4192 2426 4211 2093 4250 1786 
L 3174 1786 
L 3174 2413 
C 3360 2458 3526 2502 3661 2547 
C 3789 2502 3885 2496 3930 2547 
L 3578 2854 
C 3219 2675 2534 2438 1952 2330 
L 1990 2214 
C 2285 2240 2598 2291 2886 2349 
L 2886 1786 
L 1773 1786 
L 1824 1594 
L 2886 1594 
L 2886 966 
C 2432 883 2048 819 1830 794 
L 1984 416 
C 2042 435 2093 480 2118 557 
C 2394 627 2650 691 2886 755 
L 2886 64 
C 2886 -26 2861 -58 2752 -58 
C 2637 -58 2067 -13 2067 -13 
L 2067 -115 
C 2317 -147 2464 -173 2547 -230 
C 2624 -282 2656 -378 2662 -461 
C 3110 -403 3174 -205 3174 51 
L 3174 832 
C 3520 928 3814 1011 4064 1088 
L 4045 1190 
L 3174 1024 
L 3174 1594 
L 4282 1594 
C 4339 1210 4442 870 4595 570 
C 4218 224 3808 -58 3430 -256 
L 3488 -365 
C 3898 -205 4326 38 4723 352 
C 4915 64 5178 -173 5523 -346 
C 5760 -467 6029 -544 6106 -403 
C 6131 -339 6118 -294 5971 -166 
L 6029 518 
z
" transform="scale(0.015625)"/>
      </defs>
      <use xlink:href="#NotoSerifCJKjp-ExtraLight-674e"/>
      <use xlink:href="#NotoSerifCJKjp-ExtraLight-5100" x="99.999985"/>
     </g>
    </g>
    <g clip-path="url(#pc61cfb4d40)">
     <!-- 護軍 -->
     <g transform="translate(2028.256079 915.96) scale(0.12 -0.12)">
      <use xlink:href="#NotoSerifCJKjp-ExtraLight-8b77"/>
      <use xlink:href="#NotoSerifCJKjp-ExtraLight-8ecd" x="99.999985"/>
     </g>
    </g>
   </g>
   <g id="text_30">
    <g clip-path="url(#pc61cfb4d40)">
     <!-- 鄭純彦 -->
     <g transform="translate(2244.621203 901.32) scale(0.12 -0.12)">
      <defs>
       <path id="NotoSerifCJKjp-ExtraLight-912d" d="M 1018 2291 
L 3328 2291 
L 3328 1933 
L 1018 1933 
L 1018 2291 
z
M 1613 3482 
C 1581 3187 1466 2906 1101 2662 
L 1171 2566 
C 1709 2803 1862 3142 1901 3482 
L 2355 3482 
L 2355 3066 
C 2355 2874 2406 2790 2662 2790 
L 2899 2790 
C 3104 2790 3238 2797 3328 2822 
L 3328 2477 
L 1018 2477 
L 1018 3482 
L 1613 3482 
z
M 1914 3757 
L 1914 4109 
L 2355 4109 
L 2355 3667 
L 1914 3667 
L 1914 3757 
z
M 3328 3482 
L 3328 3059 
L 3315 3066 
L 3296 3072 
L 3238 3072 
C 3213 3059 3181 3053 3155 3053 
L 3098 3053 
C 3059 3046 2989 3046 2918 3046 
L 2733 3046 
C 2656 3046 2643 3072 2643 3136 
L 2643 3482 
L 3328 3482 
z
M 3315 1139 
L 2272 1139 
C 2298 1325 2310 1523 2317 1741 
L 3328 1741 
L 3328 1510 
L 3366 1510 
C 3488 1510 3616 1587 3616 1619 
L 3616 3462 
C 3731 3482 3802 3520 3846 3565 
L 3462 3859 
L 3309 3667 
L 2643 3667 
L 2643 4109 
L 3104 4109 
C 3187 4109 3245 4141 3258 4211 
C 3104 4371 2842 4570 2842 4570 
L 2624 4301 
L 1178 4301 
C 1267 4403 1344 4506 1408 4614 
C 1530 4595 1613 4640 1645 4698 
L 1165 4934 
C 979 4454 614 3994 237 3738 
L 314 3648 
C 614 3782 883 3981 1101 4218 
L 1126 4109 
L 1626 4109 
L 1626 3757 
L 1626 3667 
L 1094 3667 
L 736 3834 
L 736 1395 
L 774 1395 
C 922 1395 1018 1478 1018 1504 
L 1018 1741 
L 2003 1741 
C 1997 1523 1990 1325 1965 1139 
L 320 1139 
L 371 954 
L 1926 954 
C 1798 390 1414 -32 250 -358 
L 326 -467 
C 1350 -218 1843 102 2080 525 
C 2554 352 3110 45 3347 -243 
C 3757 -346 3667 429 2144 659 
C 2189 749 2214 851 2240 954 
L 3904 954 
C 3994 954 4045 986 4064 1056 
C 3878 1229 3578 1472 3578 1472 
L 3315 1139 
z
M 2893 5312 
L 2726 5075 
L 1536 5075 
L 1594 4883 
L 2848 4883 
C 3008 4410 3360 4032 3878 3763 
C 3910 3878 4026 3949 4134 3968 
L 4154 4032 
C 3610 4224 3181 4531 3014 4870 
C 3181 4883 3302 4915 3360 4986 
L 2893 5312 
z
M 5766 5126 
L 5542 4896 
L 4602 4896 
L 4243 5101 
L 4243 -467 
L 4282 -467 
C 4429 -467 4525 -384 4525 -352 
L 4525 4710 
L 5549 4710 
C 5363 4147 5075 3290 4890 2848 
C 5466 2278 5683 1741 5683 1203 
C 5683 890 5613 723 5478 653 
C 5421 621 5382 614 5306 614 
L 4704 614 
L 4704 499 
C 4877 486 5024 461 5082 422 
C 5139 384 5165 307 5165 205 
C 5786 243 6003 499 6003 1158 
C 6003 1709 5747 2272 5050 2874 
C 5299 3302 5702 4186 5894 4634 
C 6042 4640 6131 4653 6176 4704 
L 5766 5126 
z
" transform="scale(0.015625)"/>
       <path id="NotoSerifCJKjp-ExtraLight-7d14" d="M 1408 5338 
C 1222 4909 992 4435 800 4102 
C 678 4173 525 4243 339 4307 
L 269 4250 
C 550 4051 883 3693 966 3418 
C 1222 3251 1402 3654 922 4019 
C 1158 4294 1427 4685 1651 5024 
C 1779 5011 1862 5062 1888 5126 
L 1408 5338 
z
M 352 38 
C 614 403 832 947 979 1459 
C 1107 1459 1178 1510 1203 1581 
L 710 1728 
C 621 1133 442 512 243 96 
L 352 38 
z
M 1894 3181 
C 2003 3027 2125 2822 2221 2618 
C 1805 2592 1402 2573 1062 2560 
C 1536 3136 2054 3872 2374 4390 
C 2509 4365 2605 4410 2637 4474 
L 2163 4691 
C 1837 4058 1306 3194 870 2554 
C 634 2547 435 2541 294 2541 
L 467 2144 
C 525 2157 582 2189 614 2272 
C 915 2304 1184 2336 1427 2368 
L 1427 -467 
L 1466 -467 
C 1600 -467 1709 -390 1709 -358 
L 1709 2406 
C 1920 2432 2112 2458 2278 2483 
C 2323 2362 2355 2246 2368 2144 
C 2675 1882 2957 2573 1971 3219 
L 1894 3181 
z
M 2048 1709 
C 2214 1389 2419 870 2451 499 
C 2758 218 3053 922 2138 1741 
L 2048 1709 
z
M 5958 691 
L 5875 691 
C 5818 397 5754 38 5722 -26 
C 5702 -64 5683 -77 5632 -83 
C 5562 -90 5389 -96 5178 -96 
L 4730 -96 
C 4512 -96 4480 -38 4480 102 
L 4480 1434 
L 5414 1434 
L 5414 1043 
L 5472 1043 
C 5581 1043 5702 1114 5702 1158 
L 5702 3360 
C 5837 3379 5894 3437 5907 3520 
L 5414 3578 
L 5414 1619 
L 4480 1619 
L 4480 4250 
C 4954 4365 5382 4493 5722 4608 
C 5856 4557 5965 4563 6010 4614 
L 5613 4941 
C 5331 4800 4928 4646 4480 4506 
L 4480 5018 
C 4640 5043 4698 5107 4710 5197 
L 4198 5261 
L 4198 4416 
C 3686 4269 3130 4141 2618 4064 
L 2650 3942 
C 3168 3987 3699 4077 4198 4186 
L 4198 1619 
L 3322 1619 
L 3322 3360 
C 3462 3379 3520 3437 3533 3520 
L 3040 3578 
L 3040 864 
L 3098 864 
C 3200 864 3322 941 3322 986 
L 3322 1434 
L 4198 1434 
L 4198 26 
C 4198 -243 4301 -365 4698 -365 
L 5190 -365 
C 5958 -365 6138 -320 6138 -173 
C 6138 -109 6106 -83 5984 -45 
L 5958 691 
z
" transform="scale(0.015625)"/>
       <path id="NotoSerifCJKjp-ExtraLight-5f66" d="M 1459 -454 
C 3123 -256 4493 77 5722 1114 
C 5875 1069 5939 1082 5990 1133 
L 5587 1421 
C 4403 301 3027 -70 1427 -320 
L 1459 -454 
z
M 1715 646 
C 3027 851 4358 1408 5011 1997 
C 5146 1946 5203 1952 5254 2016 
L 4858 2298 
C 4224 1632 2899 1030 1670 749 
L 1715 646 
z
M 4262 3123 
C 3725 2611 2637 2061 1677 1779 
L 1734 1677 
C 2765 1907 3866 2374 4429 2816 
C 4557 2771 4608 2778 4666 2835 
L 4262 3123 
z
M 4294 4333 
C 4186 4038 4006 3648 3840 3354 
L 2579 3354 
C 2746 3430 2752 3878 2086 4333 
L 4294 4333 
z
M 5280 3354 
L 4013 3354 
C 4218 3584 4416 3859 4538 4077 
C 4672 4077 4755 4134 4781 4205 
L 4320 4333 
L 5638 4333 
C 5722 4333 5779 4365 5798 4435 
C 5619 4608 5318 4838 5318 4838 
L 5069 4518 
L 3347 4518 
L 3347 5101 
C 3488 5126 3546 5184 3558 5267 
L 3066 5318 
L 3066 4518 
L 685 4518 
L 742 4333 
L 2022 4333 
L 1978 4314 
C 2138 4070 2349 3680 2394 3398 
C 2419 3379 2445 3360 2470 3354 
L 1382 3354 
L 1037 3533 
L 1037 2560 
C 1037 1613 954 557 320 -358 
L 416 -442 
C 1242 474 1312 1728 1312 2566 
L 1312 3168 
L 5856 3168 
C 5946 3168 6003 3194 6022 3264 
C 5830 3443 5536 3674 5536 3674 
L 5280 3354 
z
" transform="scale(0.015625)"/>
      </defs>
      <use xlink:href="#NotoSerifCJKjp-ExtraLight-912d"/>
      <use xlink:href="#NotoSerifCJKjp-ExtraLight-7d14" x="99.999985"/>
      <use xlink:href="#NotoSerifCJKjp-ExtraLight-5f66" x="199.999969"/>
     </g>
    </g>
    <g clip-path="url(#pc61cfb4d40)">
     <!-- 生員 -->
     <g transform="translate(2250.621203 915.96) scale(0.12 -0.12)">
      <use xlink:href="#NotoSerifCJKjp-ExtraLight-751f"/>
      <use xlink:href="#NotoSerifCJKjp-ExtraLight-54e1" x="99.999985"/>
     </g>
    </g>
   </g>
  </g>
 </g>
 <defs>
  <clipPath id="pc61cfb4d40">
   <rect x="360" y="129.6" width="2232" height="831.6"/>
  </clipPath>
 </defs>
</svg>
