<?xml version="1.0" encoding="utf-8" standalone="no"?>
<!DOCTYPE svg PUBLIC "-//W3C//DTD SVG 1.1//EN"
  "http://www.w3.org/Graphics/SVG/1.1/DTD/svg11.dtd">
<svg xmlns:xlink="http://www.w3.org/1999/xlink" width="2880pt" height="1080pt" viewBox="0 0 2880 1080" xmlns="http://www.w3.org/2000/svg" version="1.1">
 <metadata>
  <rdf:RDF xmlns:dc="http://purl.org/dc/elements/1.1/" xmlns:cc="http://creativecommons.org/ns#" xmlns:rdf="http://www.w3.org/1999/02/22-rdf-syntax-ns#">
   <cc:Work>
    <dc:type rdf:resource="http://purl.org/dc/dcmitype/StillImage"/>
    <dc:date>2025-06-20T00:23:51.009562</dc:date>
    <dc:format>image/svg+xml</dc:format>
    <dc:creator>
     <cc:Agent>
      <dc:title>Matplotlib v3.9.4, https://matplotlib.org/</dc:title>
     </cc:Agent>
    </dc:creator>
   </cc:Work>
  </rdf:RDF>
 </metadata>
 <defs>
  <style type="text/css">*{stroke-linejoin: round; stroke-linecap: butt}</style>
 </defs>
 <g id="figure_1">
  <g id="patch_1">
   <path d="M 0 1080 
L 2880 1080 
L 2880 0 
L 0 0 
z
" style="fill: #ffffff"/>
  </g>
  <g id="axes_1">
   <g id="patch_2">
    <path d="M 497.886654 553.887392 
Q 463.834429 725.126421 494.742132 894.68851 
" clip-path="url(#p7eeada846d)" style="fill: none; stroke: #000000; stroke-width: 2; stroke-linecap: round"/>
    <path d="M 495.992413 890.3947 
L 494.742132 894.68851 
L 492.057253 891.111999 
z
" clip-path="url(#p7eeada846d)" style="stroke: #000000; stroke-width: 2; stroke-linecap: round"/>
   </g>
   <g id="patch_3">
    <path d="M 952.642831 552.543478 
Q 845.30744 710.508917 804.351103 894.757353 
" clip-path="url(#p7eeada846d)" style="fill: none; stroke: #000000; stroke-width: 2; stroke-linecap: round"/>
    <path d="M 807.171419 891.286644 
L 804.351103 894.757353 
L 803.266726 890.418675 
z
" clip-path="url(#p7eeada846d)" style="stroke: #000000; stroke-width: 2; stroke-linecap: round"/>
   </g>
   <g id="patch_4">
    <path d="M 959.2696 553.885615 
Q 997.954641 739.736694 1101.267153 896.324373 
" clip-path="url(#p7eeada846d)" style="fill: none; stroke: #000000; stroke-width: 2; stroke-linecap: round"/>
    <path d="M 1100.733701 891.884167 
L 1101.267153 896.324373 
L 1097.394917 894.087011 
z
" clip-path="url(#p7eeada846d)" style="stroke: #000000; stroke-width: 2; stroke-linecap: round"/>
   </g>
   <g id="patch_5">
    <path d="M 963.163849 551.983597 
Q 1150.097107 769.591393 1402.890192 900.415534 
" clip-path="url(#p7eeada846d)" style="fill: none; stroke: #000000; stroke-width: 2; stroke-linecap: round"/>
    <path d="M 1400.256946 896.80084 
L 1402.890192 900.415534 
L 1398.418488 900.353314 
z
" clip-path="url(#p7eeada846d)" style="stroke: #000000; stroke-width: 2; stroke-linecap: round"/>
   </g>
   <g id="patch_6">
    <path d="M 1261.156705 193.900671 
Q 1228.476466 365.401139 1260.738572 534.705064 
" clip-path="url(#p7eeada846d)" style="fill: none; stroke: #000000; stroke-width: 2; stroke-linecap: round"/>
    <path d="M 1261.954464 530.40139 
L 1260.738572 534.705064 
L 1258.025168 531.150146 
z
" clip-path="url(#p7eeada846d)" style="stroke: #000000; stroke-width: 2; stroke-linecap: round"/>
   </g>
   <g id="patch_7">
    <path d="M 1254.416024 187.502955 
Q 845.93188 290.601288 508.379237 538.931262 
" clip-path="url(#p7eeada846d)" style="fill: none; stroke: #000000; stroke-width: 2; stroke-linecap: round"/>
    <path d="M 512.786433 538.171905 
L 508.379237 538.931262 
L 510.416069 534.949891 
z
" clip-path="url(#p7eeada846d)" style="stroke: #000000; stroke-width: 2; stroke-linecap: round"/>
   </g>
   <g id="patch_8">
    <path d="M 1256.049897 190.800107 
Q 1075.452178 335.950595 962.860785 535.89095 
" clip-path="url(#p7eeada846d)" style="fill: none; stroke: #000000; stroke-width: 2; stroke-linecap: round"/>
    <path d="M 966.56617 533.386929 
L 962.860785 535.89095 
L 963.080799 531.42423 
z
" clip-path="url(#p7eeada846d)" style="stroke: #000000; stroke-width: 2; stroke-linecap: round"/>
   </g>
   <g id="patch_9">
    <path d="M 1267.038461 192.958267 
Q 1380.726639 394.847341 1559.581056 538.597349 
" clip-path="url(#p7eeada846d)" style="fill: none; stroke: #000000; stroke-width: 2; stroke-linecap: round"/>
    <path d="M 1557.716185 534.532591 
L 1559.581056 538.597349 
L 1555.210327 537.650391 
z
" clip-path="url(#p7eeada846d)" style="stroke: #000000; stroke-width: 2; stroke-linecap: round"/>
   </g>
   <g id="patch_10">
    <path d="M 1269.259869 191.189228 
Q 1530.072423 424.437099 1857.345209 541.742437 
" clip-path="url(#p7eeada846d)" style="fill: none; stroke: #000000; stroke-width: 2; stroke-linecap: round"/>
    <path d="M 1854.254608 538.510071 
L 1857.345209 541.742437 
L 1852.904956 542.275498 
z
" clip-path="url(#p7eeada846d)" style="stroke: #000000; stroke-width: 2; stroke-linecap: round"/>
   </g>
   <g id="patch_11">
    <path d="M 2168.345444 193.900671 
Q 2135.665205 365.401139 2167.927311 534.705064 
" clip-path="url(#p7eeada846d)" style="fill: none; stroke: #000000; stroke-width: 2; stroke-linecap: round"/>
    <path d="M 2169.143203 530.40139 
L 2167.927311 534.705064 
L 2165.213907 531.150146 
z
" clip-path="url(#p7eeada846d)" style="stroke: #000000; stroke-width: 2; stroke-linecap: round"/>
   </g>
   <g id="patch_12">
    <path d="M 2163.238636 550.800107 
Q 1982.640917 695.950595 1870.049524 895.89095 
" clip-path="url(#p7eeada846d)" style="fill: none; stroke: #000000; stroke-width: 2; stroke-linecap: round"/>
    <path d="M 1873.754909 893.386929 
L 1870.049524 895.89095 
L 1870.269538 891.42423 
z
" clip-path="url(#p7eeada846d)" style="stroke: #000000; stroke-width: 2; stroke-linecap: round"/>
   </g>
   <g id="patch_13">
    <path d="M 2168.345444 553.900671 
Q 2135.665205 725.401139 2167.927311 894.705064 
" clip-path="url(#p7eeada846d)" style="fill: none; stroke: #000000; stroke-width: 2; stroke-linecap: round"/>
    <path d="M 2169.143203 890.40139 
L 2167.927311 894.705064 
L 2165.213907 891.150146 
z
" clip-path="url(#p7eeada846d)" style="stroke: #000000; stroke-width: 2; stroke-linecap: round"/>
   </g>
   <g id="patch_14">
    <path d="M 2174.227201 552.958267 
Q 2287.915378 754.847341 2466.769795 898.597349 
" clip-path="url(#p7eeada846d)" style="fill: none; stroke: #000000; stroke-width: 2; stroke-linecap: round"/>
    <path d="M 2464.904924 894.532591 
L 2466.769795 898.597349 
L 2462.399066 897.650391 
z
" clip-path="url(#p7eeada846d)" style="stroke: #000000; stroke-width: 2; stroke-linecap: round"/>
   </g>
   <g id="text_1">
    <g id="patch_15">
     <path d="M 508.108766 728.677387 
L 508.159928 722.281966 
Q 508.188727 718.682081 504.588842 718.653283 
L 491.869249 718.551527 
Q 488.269364 718.522729 488.240566 722.122613 
L 488.189403 728.518034 
Q 488.160604 732.117919 491.760489 732.146717 
L 504.480082 732.248473 
Q 508.079967 732.277271 508.108766 728.677387 
z
" clip-path="url(#p7eeada846d)" style="fill: #ffffff; stroke: #ffffff; stroke-linejoin: miter"/>
    </g>
    <g clip-path="url(#p7eeada846d)">
     <!-- 1 -->
     <g transform="translate(501.388981 728.623629) rotate(-89.541649) scale(0.12 -0.12)">
      <defs>
       <path id="NotoSerifCJKjp-ExtraLight-31" d="M 1997 250 
C 1990 659 1984 1062 1984 1459 
L 1984 3616 
L 2010 4614 
L 1914 4691 
L 614 4346 
L 614 4160 
L 1600 4333 
L 1600 1459 
C 1600 1062 1594 653 1587 250 
L 544 173 
L 544 0 
L 3002 0 
L 3002 173 
L 1997 250 
z
" transform="scale(0.015625)"/>
      </defs>
      <use xlink:href="#NotoSerifCJKjp-ExtraLight-31"/>
     </g>
    </g>
   </g>
   <g id="text_2">
    <g id="patch_16">
     <path d="M 887.656598 732.285465 
L 890.192927 726.41426 
Q 891.620588 723.109448 888.315776 721.681786 
L 876.638773 716.637384 
Q 873.333961 715.209723 871.9063 718.514535 
L 869.36997 724.38574 
Q 867.942309 727.690552 871.247121 729.118214 
L 882.924125 734.162616 
Q 886.228937 735.590277 887.656598 732.285465 
z
" clip-path="url(#p7eeada846d)" style="fill: #ffffff; stroke: #ffffff; stroke-linejoin: miter"/>
    </g>
    <g clip-path="url(#p7eeada846d)">
     <!-- 4 -->
     <g transform="translate(881.487615 729.620498) rotate(-66.635914) scale(0.12 -0.12)">
      <defs>
       <path id="NotoSerifCJKjp-ExtraLight-34" d="M 480 1805 
L 2163 4224 
L 2163 1805 
L 480 1805 
z
M 3309 1805 
L 2528 1805 
L 2528 4685 
L 2272 4685 
L 211 1747 
L 211 1510 
L 2163 1510 
L 2163 0 
L 2528 0 
L 2528 1510 
L 3309 1510 
L 3309 1805 
z
" transform="scale(0.015625)"/>
      </defs>
      <use xlink:href="#NotoSerifCJKjp-ExtraLight-34"/>
     </g>
    </g>
   </g>
   <g id="text_3">
    <g id="patch_17">
     <path d="M 1021.995279 726.272974 
L 1024.451754 732.178035 
Q 1025.834466 735.501904 1029.158335 734.119192 
L 1040.902673 729.233608 
Q 1044.226542 727.850896 1042.84383 724.527026 
L 1040.387355 718.621965 
Q 1039.004642 715.298096 1035.680773 716.680808 
L 1023.936435 721.566392 
Q 1020.612566 722.949104 1021.995279 726.272974 
z
" clip-path="url(#p7eeada846d)" style="fill: #ffffff; stroke: #ffffff; stroke-linejoin: miter"/>
    </g>
    <g clip-path="url(#p7eeada846d)">
     <!-- 2 -->
     <g transform="translate(1028.199834 723.69191) rotate(-292.587058) scale(0.12 -0.12)">
      <defs>
       <path id="NotoSerifCJKjp-ExtraLight-32" d="M 646 358 
C 1069 838 1472 1299 1645 1491 
C 2560 2515 2886 2970 2886 3520 
C 2886 4250 2458 4717 1638 4717 
C 1024 4717 486 4397 326 3821 
C 371 3725 454 3667 550 3667 
C 672 3667 755 3750 819 3949 
L 1005 4422 
C 1197 4499 1363 4525 1542 4525 
C 2144 4525 2483 4096 2483 3514 
C 2483 2995 2214 2547 1536 1715 
C 1222 1344 787 806 339 275 
L 339 0 
L 3104 0 
L 3104 358 
L 646 358 
z
" transform="scale(0.015625)"/>
      </defs>
      <use xlink:href="#NotoSerifCJKjp-ExtraLight-32"/>
     </g>
    </g>
   </g>
   <g id="text_4">
    <g id="patch_18">
     <path d="M 1176.370081 731.22697 
L 1181.385807 735.195157 
Q 1184.209083 737.428789 1186.442715 734.605513 
L 1194.334882 724.629938 
Q 1196.568514 721.806662 1193.745238 719.57303 
L 1188.729512 715.604843 
Q 1185.906236 713.371211 1183.672604 716.194487 
L 1175.780437 726.170062 
Q 1173.546805 728.993338 1176.370081 731.22697 
z
" clip-path="url(#p7eeada846d)" style="fill: #ffffff; stroke: #ffffff; stroke-linejoin: miter"/>
    </g>
    <g clip-path="url(#p7eeada846d)">
     <!-- 1 -->
     <g transform="translate(1180.539527 725.956855) rotate(-321.65075) scale(0.12 -0.12)">
      <use xlink:href="#NotoSerifCJKjp-ExtraLight-31"/>
     </g>
    </g>
   </g>
   <g id="text_5">
    <g id="patch_19">
     <path d="M 1252.856694 362.202187 
L 1252.856694 368.597812 
Q 1252.856694 372.197812 1256.456694 372.197812 
L 1269.176694 372.197812 
Q 1272.776694 372.197812 1272.776694 368.597812 
L 1272.776694 362.202187 
Q 1272.776694 358.602187 1269.176694 358.602187 
L 1256.456694 358.602187 
Q 1252.856694 358.602187 1252.856694 362.202187 
z
" clip-path="url(#p7eeada846d)" style="fill: #ffffff; stroke: #ffffff; stroke-linejoin: miter"/>
    </g>
    <g clip-path="url(#p7eeada846d)">
     <!-- 5 -->
     <g transform="translate(1259.576694 362.202187) rotate(-270) scale(0.12 -0.12)">
      <defs>
       <path id="NotoSerifCJKjp-ExtraLight-35" d="M 947 4275 
L 2950 4275 
L 2950 4627 
L 755 4627 
L 614 2483 
L 755 2464 
C 992 2573 1248 2624 1536 2624 
C 2208 2624 2662 2214 2662 1395 
C 2662 602 2227 102 1459 102 
C 1235 102 1062 134 896 205 
L 736 659 
C 678 851 614 922 480 922 
C 378 922 294 858 262 762 
C 397 198 858 -90 1498 -90 
C 2470 -90 3066 550 3066 1446 
C 3066 2323 2496 2854 1626 2854 
C 1344 2854 1094 2810 845 2707 
L 947 4275 
z
" transform="scale(0.015625)"/>
      </defs>
      <use xlink:href="#NotoSerifCJKjp-ExtraLight-35"/>
     </g>
    </g>
   </g>
   <g id="text_6">
    <g id="patch_20">
     <path d="M 882.57258 375.772387 
L 888.356988 373.0439 
Q 891.612943 371.508076 890.077119 368.25212 
L 884.650542 356.747745 
Q 883.114718 353.49179 879.858762 355.027613 
L 874.074354 357.7561 
Q 870.818399 359.291924 872.354223 362.54788 
L 877.7808 374.052255 
Q 879.316624 377.30821 882.57258 375.772387 
z
" clip-path="url(#p7eeada846d)" style="fill: #ffffff; stroke: #ffffff; stroke-linejoin: miter"/>
    </g>
    <g clip-path="url(#p7eeada846d)">
     <!-- 4 -->
     <g transform="translate(879.705708 369.694603) rotate(-25.253104) scale(0.12 -0.12)">
      <use xlink:href="#NotoSerifCJKjp-ExtraLight-34"/>
     </g>
    </g>
   </g>
   <g id="text_7">
    <g id="patch_21">
     <path d="M 1115.706826 374.280664 
L 1119.843246 369.40275 
Q 1122.171574 366.657046 1119.42587 364.328718 
L 1109.724383 356.10196 
Q 1106.97868 353.773632 1104.650352 356.519336 
L 1100.513932 361.39725 
Q 1098.185604 364.142954 1100.931308 366.471282 
L 1110.632794 374.69804 
Q 1113.378498 377.026368 1115.706826 374.280664 
z
" clip-path="url(#p7eeada846d)" style="fill: #ffffff; stroke: #ffffff; stroke-linejoin: miter"/>
    </g>
    <g clip-path="url(#p7eeada846d)">
     <!-- 3 -->
     <g transform="translate(1110.581512 369.934452) rotate(-49.702406) scale(0.12 -0.12)">
      <defs>
       <path id="NotoSerifCJKjp-ExtraLight-33" d="M 1062 4435 
C 1242 4499 1408 4525 1594 4525 
C 2176 4525 2496 4166 2496 3584 
C 2496 2918 2035 2541 1402 2541 
L 1126 2541 
L 1126 2330 
L 1434 2330 
C 2234 2330 2637 1920 2637 1229 
C 2637 557 2221 102 1498 102 
C 1286 102 1107 141 941 211 
L 787 659 
C 730 845 659 928 531 928 
C 422 928 339 864 301 755 
C 461 186 928 -90 1587 -90 
C 2426 -90 3040 410 3040 1203 
C 3040 1869 2656 2330 1901 2445 
C 2541 2605 2899 3059 2899 3597 
C 2899 4262 2426 4717 1664 4717 
C 1107 4717 570 4480 429 3885 
C 461 3776 544 3731 640 3731 
C 774 3731 845 3795 909 3981 
L 1062 4435 
z
" transform="scale(0.015625)"/>
      </defs>
      <use xlink:href="#NotoSerifCJKjp-ExtraLight-33"/>
     </g>
    </g>
   </g>
   <g id="text_8">
    <g id="patch_22">
     <path d="M 1405.790142 369.40275 
L 1409.926562 374.280664 
Q 1412.25489 377.026368 1415.000594 374.69804 
L 1424.702081 366.471282 
Q 1427.447785 364.142954 1425.119457 361.39725 
L 1420.983037 356.519336 
Q 1418.654709 353.773632 1415.909005 356.10196 
L 1406.207518 364.328718 
Q 1403.461815 366.657046 1405.790142 369.40275 
z
" clip-path="url(#p7eeada846d)" style="fill: #ffffff; stroke: #ffffff; stroke-linejoin: miter"/>
    </g>
    <g clip-path="url(#p7eeada846d)">
     <!-- 2 -->
     <g transform="translate(1410.915456 365.056538) rotate(-310.297594) scale(0.12 -0.12)">
      <use xlink:href="#NotoSerifCJKjp-ExtraLight-32"/>
     </g>
    </g>
   </g>
   <g id="text_9">
    <g id="patch_23">
     <path d="M 1557.370666 372.322885 
L 1562.866363 375.594174 
Q 1565.959808 377.435533 1567.801166 374.342088 
L 1574.307301 363.411918 
Q 1576.148659 360.318474 1573.055215 358.477115 
L 1567.559518 355.205826 
Q 1564.466074 353.364467 1562.624715 356.457912 
L 1556.118581 367.388082 
Q 1554.277222 370.481526 1557.370666 372.322885 
z
" clip-path="url(#p7eeada846d)" style="fill: #ffffff; stroke: #ffffff; stroke-linejoin: miter"/>
    </g>
    <g clip-path="url(#p7eeada846d)">
     <!-- 6 -->
     <g transform="translate(1560.807869 366.548455) rotate(-329.236968) scale(0.12 -0.12)">
      <defs>
       <path id="NotoSerifCJKjp-ExtraLight-36" d="M 1754 102 
C 1094 102 730 794 730 1856 
C 730 1926 730 1997 736 2061 
C 1069 2426 1402 2560 1766 2560 
C 2330 2560 2688 2150 2688 1357 
C 2688 557 2285 102 1754 102 
z
M 2963 4717 
C 1306 4512 326 3238 326 1811 
C 326 653 851 -90 1741 -90 
C 2515 -90 3091 499 3091 1408 
C 3091 2266 2611 2803 1862 2803 
C 1440 2803 1069 2630 755 2272 
C 896 3437 1645 4314 2995 4582 
L 2963 4717 
z
" transform="scale(0.015625)"/>
      </defs>
      <use xlink:href="#NotoSerifCJKjp-ExtraLight-36"/>
     </g>
    </g>
   </g>
   <g id="text_10">
    <g id="patch_24">
     <path d="M 2160.045433 362.202187 
L 2160.045433 368.597812 
Q 2160.045433 372.197812 2163.645433 372.197812 
L 2176.365433 372.197812 
Q 2179.965433 372.197812 2179.965433 368.597812 
L 2179.965433 362.202187 
Q 2179.965433 358.602187 2176.365433 358.602187 
L 2163.645433 358.602187 
Q 2160.045433 358.602187 2160.045433 362.202187 
z
" clip-path="url(#p7eeada846d)" style="fill: #ffffff; stroke: #ffffff; stroke-linejoin: miter"/>
    </g>
    <g clip-path="url(#p7eeada846d)">
     <!-- 5 -->
     <g transform="translate(2166.765433 362.202187) rotate(-270) scale(0.12 -0.12)">
      <use xlink:href="#NotoSerifCJKjp-ExtraLight-35"/>
     </g>
    </g>
   </g>
   <g id="text_11">
    <g id="patch_25">
     <path d="M 2022.895565 734.280664 
L 2027.031985 729.40275 
Q 2029.360313 726.657046 2026.614609 724.328718 
L 2016.913123 716.10196 
Q 2014.167419 713.773632 2011.839091 716.519336 
L 2007.702671 721.39725 
Q 2005.374343 724.142954 2008.120047 726.471282 
L 2017.821534 734.69804 
Q 2020.567237 737.026368 2022.895565 734.280664 
z
" clip-path="url(#p7eeada846d)" style="fill: #ffffff; stroke: #ffffff; stroke-linejoin: miter"/>
    </g>
    <g clip-path="url(#p7eeada846d)">
     <!-- 4 -->
     <g transform="translate(2017.770251 729.934452) rotate(-49.702406) scale(0.12 -0.12)">
      <use xlink:href="#NotoSerifCJKjp-ExtraLight-34"/>
     </g>
    </g>
   </g>
   <g id="text_12">
    <g id="patch_26">
     <path d="M 2160.045433 722.202188 
L 2160.045433 728.597813 
Q 2160.045433 732.197813 2163.645433 732.197813 
L 2176.365433 732.197813 
Q 2179.965433 732.197813 2179.965433 728.597813 
L 2179.965433 722.202188 
Q 2179.965433 718.602188 2176.365433 718.602188 
L 2163.645433 718.602188 
Q 2160.045433 718.602188 2160.045433 722.202188 
z
" clip-path="url(#p7eeada846d)" style="fill: #ffffff; stroke: #ffffff; stroke-linejoin: miter"/>
    </g>
    <g clip-path="url(#p7eeada846d)">
     <!-- 2 -->
     <g transform="translate(2166.765433 722.202188) rotate(-270) scale(0.12 -0.12)">
      <use xlink:href="#NotoSerifCJKjp-ExtraLight-32"/>
     </g>
    </g>
   </g>
   <g id="text_13">
    <g id="patch_27">
     <path d="M 2312.978882 729.40275 
L 2317.115302 734.280664 
Q 2319.443629 737.026368 2322.189333 734.69804 
L 2331.89082 726.471282 
Q 2334.636524 724.142954 2332.308196 721.39725 
L 2328.171776 716.519336 
Q 2325.843448 713.773632 2323.097744 716.10196 
L 2313.396257 724.328718 
Q 2310.650554 726.657046 2312.978882 729.40275 
z
" clip-path="url(#p7eeada846d)" style="fill: #ffffff; stroke: #ffffff; stroke-linejoin: miter"/>
    </g>
    <g clip-path="url(#p7eeada846d)">
     <!-- 1 -->
     <g transform="translate(2318.104195 725.056538) rotate(-310.297594) scale(0.12 -0.12)">
      <use xlink:href="#NotoSerifCJKjp-ExtraLight-31"/>
     </g>
    </g>
   </g>
   <g id="matplotlib.axis_1">
    <g id="xtick_1"/>
    <g id="xtick_2"/>
    <g id="xtick_3"/>
    <g id="xtick_4"/>
    <g id="xtick_5"/>
    <g id="xtick_6"/>
    <g id="xtick_7"/>
    <g id="xtick_8"/>
   </g>
   <g id="matplotlib.axis_2">
    <g id="ytick_1"/>
    <g id="ytick_2"/>
    <g id="ytick_3"/>
    <g id="ytick_4"/>
    <g id="ytick_5"/>
    <g id="ytick_6"/>
    <g id="ytick_7"/>
    <g id="ytick_8"/>
   </g>
   <g id="PathCollection_1">
    <defs>
     <path id="m1058050f16" d="M 0 15 
C 3.978047 15 7.793698 13.419505 10.606602 10.606602 
C 13.419505 7.793698 15 3.978047 15 0 
C 15 -3.978047 13.419505 -7.793698 10.606602 -10.606602 
C 7.793698 -13.419505 3.978047 -15 0 -15 
C -3.978047 -15 -7.793698 -13.419505 -10.606602 -10.606602 
C -13.419505 -7.793698 -15 -3.978047 -15 0 
C -15 3.978047 -13.419505 7.793698 -10.606602 10.606602 
C -7.793698 13.419505 -3.978047 15 0 15 
z
" style="stroke: #add8e6; stroke-opacity: 0.85"/>
    </defs>
    <g clip-path="url(#p7eeada846d)">
     <use xlink:href="#m1058050f16" x="499.614648" y="545.4" style="fill: #add8e6; fill-opacity: 0.85; stroke: #add8e6; stroke-opacity: 0.85"/>
     <use xlink:href="#m1058050f16" x="496.734684" y="905.4" style="fill: #add8e6; fill-opacity: 0.85; stroke: #add8e6; stroke-opacity: 0.85"/>
     <use xlink:href="#m1058050f16" x="957.540484" y="545.4" style="fill: #add8e6; fill-opacity: 0.85; stroke: #add8e6; stroke-opacity: 0.85"/>
     <use xlink:href="#m1058050f16" x="802.022414" y="905.4" style="fill: #add8e6; fill-opacity: 0.85; stroke: #add8e6; stroke-opacity: 0.85"/>
     <use xlink:href="#m1058050f16" x="1107.298625" y="905.4" style="fill: #add8e6; fill-opacity: 0.85; stroke: #add8e6; stroke-opacity: 0.85"/>
     <use xlink:href="#m1058050f16" x="1412.574835" y="905.4" style="fill: #add8e6; fill-opacity: 0.85; stroke: #add8e6; stroke-opacity: 0.85"/>
     <use xlink:href="#m1058050f16" x="1262.816694" y="185.4" style="fill: #add8e6; fill-opacity: 0.85; stroke: #add8e6; stroke-opacity: 0.85"/>
     <use xlink:href="#m1058050f16" x="1262.816694" y="545.4" style="fill: #add8e6; fill-opacity: 0.85; stroke: #add8e6; stroke-opacity: 0.85"/>
     <use xlink:href="#m1058050f16" x="1568.092905" y="545.4" style="fill: #add8e6; fill-opacity: 0.85; stroke: #add8e6; stroke-opacity: 0.85"/>
     <use xlink:href="#m1058050f16" x="1867.609187" y="545.4" style="fill: #add8e6; fill-opacity: 0.85; stroke: #add8e6; stroke-opacity: 0.85"/>
     <use xlink:href="#m1058050f16" x="2170.005433" y="185.4" style="fill: #add8e6; fill-opacity: 0.85; stroke: #add8e6; stroke-opacity: 0.85"/>
     <use xlink:href="#m1058050f16" x="2170.005433" y="545.4" style="fill: #add8e6; fill-opacity: 0.85; stroke: #add8e6; stroke-opacity: 0.85"/>
     <use xlink:href="#m1058050f16" x="1864.729223" y="905.4" style="fill: #add8e6; fill-opacity: 0.85; stroke: #add8e6; stroke-opacity: 0.85"/>
     <use xlink:href="#m1058050f16" x="2170.005433" y="905.4" style="fill: #add8e6; fill-opacity: 0.85; stroke: #add8e6; stroke-opacity: 0.85"/>
     <use xlink:href="#m1058050f16" x="2475.281644" y="905.4" style="fill: #add8e6; fill-opacity: 0.85; stroke: #add8e6; stroke-opacity: 0.85"/>
    </g>
   </g>
   <g id="text_14">
    <g clip-path="url(#p7eeada846d)">
     <!-- 朴安性 -->
     <g transform="translate(481.614648 541.32) scale(0.12 -0.12)">
      <defs>
       <path id="NotoSerifCJKjp-ExtraLight-6734" d="M 2637 3891 
L 2003 3891 
L 2003 5094 
C 2163 5120 2214 5178 2234 5274 
L 1722 5331 
L 1722 3891 
L 352 3891 
L 403 3699 
L 1606 3699 
C 1350 2675 883 1677 230 909 
L 320 819 
C 941 1427 1408 2176 1722 3002 
L 1722 -454 
L 1786 -454 
C 1888 -454 2003 -384 2003 -326 
L 2003 2842 
C 2323 2573 2720 2144 2854 1824 
C 3238 1600 3424 2394 2016 2944 
L 2003 2931 
L 2003 3699 
L 3219 3699 
C 3302 3699 3366 3731 3386 3802 
C 3200 3981 2899 4211 2899 4211 
L 2637 3891 
z
M 4179 5082 
C 4339 5107 4390 5165 4410 5261 
L 3898 5318 
L 3898 -442 
L 3962 -442 
C 4058 -442 4179 -365 4179 -307 
L 4179 3085 
C 4774 2784 5562 2240 5850 1824 
C 6323 1638 6310 2611 4179 3200 
L 4179 5082 
z
" transform="scale(0.015625)"/>
       <path id="NotoSerifCJKjp-ExtraLight-5b89" d="M 5466 4250 
C 5376 4019 5254 3725 5158 3546 
L 5248 3494 
C 5453 3674 5722 3987 5862 4198 
C 5984 4205 6061 4218 6106 4262 
L 5690 4672 
L 5459 4442 
L 3334 4442 
L 3334 5120 
C 3488 5139 3558 5203 3571 5293 
L 3053 5350 
L 3053 4442 
L 1165 4442 
C 1152 4538 1133 4646 1101 4762 
L 986 4755 
C 1024 4301 800 3891 531 3744 
C 429 3674 358 3565 410 3462 
C 480 3347 678 3386 819 3488 
C 979 3603 1158 3853 1171 4250 
L 5466 4250 
z
M 4288 2694 
C 4141 1971 3878 1402 3462 960 
C 3021 1094 2502 1222 1894 1338 
C 2106 1766 2336 2246 2534 2694 
L 4288 2694 
z
M 5293 2880 
L 2624 2880 
C 2784 3245 2925 3571 3008 3802 
C 3168 3802 3226 3859 3251 3942 
L 2778 4038 
C 2682 3750 2522 3328 2323 2880 
L 320 2880 
L 378 2694 
L 2246 2694 
C 1926 1965 1542 1190 1280 755 
C 1395 704 1517 691 1587 730 
C 1664 870 1747 1037 1837 1216 
C 2355 1094 2835 941 3270 774 
C 2624 211 1658 -128 256 -333 
L 282 -461 
C 1862 -294 2893 45 3571 659 
C 4429 301 5075 -109 5421 -448 
C 5843 -608 5882 154 3776 864 
C 4198 1325 4467 1926 4640 2694 
L 5914 2694 
C 6003 2694 6067 2726 6080 2790 
C 5882 2976 5568 3219 5568 3219 
L 5293 2880 
z
" transform="scale(0.015625)"/>
       <path id="NotoSerifCJKjp-ExtraLight-6027" d="M 781 4019 
C 781 3552 595 3027 410 2816 
C 314 2714 269 2579 346 2490 
C 442 2387 640 2477 736 2624 
C 890 2842 1030 3354 902 4013 
L 781 4019 
z
M 1274 5338 
L 1274 -474 
L 1331 -474 
C 1440 -474 1555 -397 1555 -339 
L 1555 5101 
C 1715 5126 1766 5190 1786 5280 
L 1274 5338 
z
M 1696 4192 
C 1869 3936 2048 3507 2061 3194 
C 2362 2906 2688 3597 1786 4230 
L 1696 4192 
z
M 5472 -45 
L 4250 -45 
L 4250 1818 
L 5664 1818 
C 5747 1818 5811 1850 5824 1920 
C 5645 2093 5338 2330 5338 2330 
L 5082 2003 
L 4250 2003 
L 4250 3552 
L 5850 3552 
C 5939 3552 5997 3584 6016 3648 
C 5824 3827 5530 4058 5530 4058 
L 5274 3738 
L 4250 3738 
L 4250 5075 
C 4390 5094 4442 5152 4454 5242 
L 3968 5293 
L 3968 3738 
L 2950 3738 
C 3053 4032 3142 4346 3213 4659 
C 3354 4659 3418 4723 3443 4800 
L 2925 4915 
C 2778 3974 2483 3040 2125 2413 
L 2234 2349 
C 2483 2669 2701 3091 2880 3552 
L 3968 3552 
L 3968 2003 
L 2592 2003 
L 2643 1818 
L 3968 1818 
L 3968 -45 
L 2067 -45 
L 2118 -230 
L 6054 -230 
C 6138 -230 6202 -198 6214 -134 
C 6035 45 5734 275 5734 275 
L 5472 -45 
z
" transform="scale(0.015625)"/>
      </defs>
      <use xlink:href="#NotoSerifCJKjp-ExtraLight-6734"/>
      <use xlink:href="#NotoSerifCJKjp-ExtraLight-5b89" x="99.999985"/>
      <use xlink:href="#NotoSerifCJKjp-ExtraLight-6027" x="199.999969"/>
     </g>
    </g>
    <g clip-path="url(#p7eeada846d)">
     <!--  -->
     <g transform="translate(499.614648 555.96) scale(0.12 -0.12)"/>
    </g>
   </g>
   <g id="text_15">
    <g clip-path="url(#p7eeada846d)">
     <!-- 朴守同 -->
     <g transform="translate(478.734684 901.32) scale(0.12 -0.12)">
      <defs>
       <path id="NotoSerifCJKjp-ExtraLight-5b88" d="M 5459 4250 
C 5350 3981 5184 3648 5062 3443 
L 5152 3386 
C 5382 3603 5702 3955 5862 4198 
C 5984 4205 6061 4218 6112 4262 
L 5690 4672 
L 5459 4442 
L 3334 4442 
L 3334 5101 
C 3488 5120 3558 5184 3571 5274 
L 3053 5331 
L 3053 4442 
L 1190 4442 
C 1184 4544 1165 4646 1133 4762 
L 1018 4755 
C 1056 4282 838 3840 576 3667 
C 474 3597 410 3482 467 3386 
C 544 3270 736 3322 870 3437 
C 1030 3565 1197 3834 1203 4250 
L 5459 4250 
z
M 1434 2138 
C 1792 1830 2214 1274 2285 838 
C 2682 544 2944 1510 1510 2195 
L 1434 2138 
z
M 5261 2816 
L 4301 2816 
L 4301 3654 
C 4454 3674 4506 3731 4525 3821 
L 4019 3885 
L 4019 2816 
L 378 2816 
L 435 2630 
L 4019 2630 
L 4019 96 
C 4019 -26 3974 -70 3821 -70 
C 3648 -70 2771 0 2771 0 
L 2771 -109 
C 3130 -147 3354 -192 3475 -250 
C 3578 -301 3616 -378 3642 -474 
C 4237 -410 4301 -205 4301 64 
L 4301 2630 
L 5875 2630 
C 5965 2630 6029 2662 6042 2733 
C 5843 2912 5536 3162 5536 3162 
L 5261 2816 
z
" transform="scale(0.015625)"/>
       <path id="NotoSerifCJKjp-ExtraLight-540c" d="M 4160 3853 
L 1549 3853 
L 1600 3661 
L 4736 3661 
C 4826 3661 4877 3693 4896 3763 
C 4717 3942 4422 4173 4422 4173 
L 4160 3853 
z
M 2336 1421 
L 2336 2675 
L 4026 2675 
L 4026 1421 
L 2336 1421 
z
M 4307 2630 
C 4416 2650 4512 2701 4550 2746 
L 4141 3059 
L 3968 2861 
L 2362 2861 
L 2048 3021 
L 2048 589 
L 2099 589 
C 2214 589 2336 659 2336 678 
L 2336 1229 
L 4026 1229 
L 4026 710 
L 4058 710 
C 4154 710 4301 794 4307 832 
L 4307 2630 
z
M 5466 5069 
L 5299 4851 
L 1069 4851 
L 749 5018 
L 749 -467 
L 806 -467 
C 941 -467 1037 -390 1037 -346 
L 1037 4659 
L 5357 4659 
L 5357 90 
C 5357 -38 5312 -83 5165 -83 
C 4992 -83 4160 -19 4160 -19 
L 4160 -128 
C 4506 -160 4717 -198 4845 -256 
C 4934 -301 4979 -378 5005 -461 
C 5581 -403 5645 -205 5645 58 
L 5645 4589 
C 5773 4614 5882 4672 5926 4717 
L 5466 5069 
z
" transform="scale(0.015625)"/>
      </defs>
      <use xlink:href="#NotoSerifCJKjp-ExtraLight-6734"/>
      <use xlink:href="#NotoSerifCJKjp-ExtraLight-5b88" x="99.999985"/>
      <use xlink:href="#NotoSerifCJKjp-ExtraLight-540c" x="199.999969"/>
     </g>
    </g>
    <g clip-path="url(#p7eeada846d)">
     <!--  -->
     <g transform="translate(496.734684 915.96) scale(0.12 -0.12)"/>
    </g>
   </g>
   <g id="text_16">
    <g clip-path="url(#p7eeada846d)">
     <!-- 尹孝孫 -->
     <g transform="translate(939.540484 541.32) scale(0.12 -0.12)">
      <defs>
       <path id="NotoSerifCJKjp-ExtraLight-5c39" d="M 4845 1958 
L 3053 1958 
C 3123 2291 3149 2637 3149 2995 
L 3149 3232 
L 4845 3232 
L 4845 1958 
z
M 3149 4666 
L 4845 4666 
L 4845 3424 
L 3149 3424 
L 3149 4666 
z
M 5299 3424 
L 5126 3424 
L 5126 4602 
C 5254 4627 5357 4678 5402 4730 
L 4966 5069 
L 4781 4858 
L 992 4858 
L 1050 4666 
L 2861 4666 
L 2861 3424 
L 294 3424 
L 352 3232 
L 2861 3232 
L 2861 2982 
C 2861 2618 2835 2278 2771 1958 
L 864 1958 
L 922 1773 
L 2726 1773 
C 2496 954 1939 262 685 -333 
L 762 -442 
C 2170 102 2771 877 3008 1773 
L 4845 1773 
L 4845 1331 
L 4877 1331 
C 4979 1331 5120 1414 5126 1453 
L 5126 3232 
L 5990 3232 
C 6080 3232 6138 3264 6157 3334 
C 5946 3533 5600 3795 5600 3795 
L 5299 3424 
z
" transform="scale(0.015625)"/>
       <path id="NotoSerifCJKjp-ExtraLight-5b5d" d="M 2989 3475 
L 2989 4326 
L 4614 4326 
C 4307 4038 3962 3750 3590 3475 
L 2989 3475 
z
M 5926 3283 
C 6016 3283 6074 3315 6093 3386 
C 5894 3571 5581 3814 5581 3814 
L 5306 3475 
L 4058 3475 
C 4621 3891 5107 4326 5478 4749 
C 5626 4678 5696 4685 5747 4742 
L 5325 5094 
C 5165 4890 4973 4685 4768 4474 
C 4576 4646 4326 4845 4326 4845 
L 4051 4512 
L 2989 4512 
L 2989 5114 
C 3130 5139 3187 5197 3200 5280 
L 2707 5331 
L 2707 4512 
L 858 4512 
L 909 4326 
L 2707 4326 
L 2707 3475 
L 307 3475 
L 365 3283 
L 3328 3283 
C 3008 3059 2675 2848 2330 2643 
L 1459 2643 
L 1517 2451 
L 1990 2451 
C 1408 2131 800 1850 192 1619 
L 243 1510 
C 1005 1760 1747 2086 2432 2451 
L 4467 2451 
C 4198 2253 3827 2022 3539 1875 
L 3206 1920 
L 3206 1357 
L 653 1357 
L 704 1165 
L 3206 1165 
L 3206 70 
C 3206 -32 3181 -64 3046 -64 
C 2906 -64 2170 -13 2170 -13 
L 2170 -122 
C 2470 -154 2662 -192 2765 -243 
C 2848 -294 2886 -378 2912 -467 
C 3437 -416 3494 -230 3494 45 
L 3494 1165 
L 5875 1165 
C 5965 1165 6022 1197 6042 1267 
C 5843 1453 5536 1690 5536 1690 
L 5267 1357 
L 3494 1357 
L 3494 1696 
C 3616 1715 3674 1754 3699 1824 
C 4122 1984 4659 2221 4941 2426 
C 5082 2432 5165 2438 5216 2483 
L 4838 2842 
L 4621 2643 
L 2778 2643 
C 3136 2848 3475 3059 3789 3283 
L 5926 3283 
z
" transform="scale(0.015625)"/>
       <path id="NotoSerifCJKjp-ExtraLight-5b6b" d="M 2445 4416 
C 2957 4448 3482 4525 3974 4614 
C 3782 4230 3546 3853 3341 3578 
C 3181 3680 2970 3782 2688 3872 
L 2618 3808 
C 2944 3590 3366 3187 3488 2867 
C 3763 2720 3930 3104 3469 3482 
C 3744 3731 4045 4077 4282 4416 
C 4410 4390 4486 4435 4518 4493 
L 4198 4659 
C 4698 4762 5146 4883 5498 4998 
C 5632 4954 5728 4954 5779 5005 
L 5382 5325 
C 4749 5018 3494 4672 2413 4531 
L 2445 4416 
z
M 2579 2976 
C 2240 2867 1901 2765 1594 2669 
L 1594 3699 
C 1747 3718 1805 3776 1824 3866 
L 1658 3885 
C 1984 4128 2317 4506 2534 4755 
C 2662 4762 2739 4768 2784 4813 
L 2362 5210 
L 2131 4973 
L 365 4973 
L 422 4787 
L 2106 4787 
C 1952 4512 1728 4154 1510 3904 
L 1312 3930 
L 1312 2586 
C 864 2451 499 2342 288 2298 
L 493 1862 
C 550 1882 602 1933 621 2010 
C 870 2112 1101 2208 1312 2298 
L 1312 77 
C 1312 -19 1280 -51 1178 -51 
C 1069 -51 531 -13 531 -13 
L 531 -115 
C 762 -147 902 -179 986 -230 
C 1062 -288 1088 -371 1101 -461 
C 1542 -410 1594 -230 1594 45 
L 1594 2426 
C 1990 2598 2330 2758 2611 2880 
L 2579 2976 
z
M 2214 -198 
C 2637 109 3066 608 3379 1158 
C 3507 1133 3590 1184 3616 1248 
L 3149 1472 
C 2880 838 2483 243 2125 -122 
L 2214 -198 
z
M 4781 3002 
C 4992 2822 5242 2573 5440 2304 
C 4794 2272 4173 2234 3635 2208 
C 4211 2688 4806 3322 5165 3814 
C 5299 3789 5389 3827 5427 3898 
L 4928 4147 
C 4570 3546 3962 2758 3418 2202 
C 2906 2176 2483 2157 2221 2157 
L 2355 1709 
C 2413 1715 2483 1760 2515 1837 
C 3059 1888 3552 1939 3994 1990 
L 3994 -461 
L 4032 -461 
C 4166 -461 4275 -384 4275 -352 
L 4275 2022 
C 4749 2074 5165 2125 5536 2176 
C 5664 1990 5760 1805 5805 1638 
C 6202 1370 6413 2310 4858 3059 
L 4781 3002 
z
M 4851 1382 
C 5235 1024 5715 403 5811 -64 
C 6208 -352 6445 608 4928 1434 
L 4851 1382 
z
" transform="scale(0.015625)"/>
      </defs>
      <use xlink:href="#NotoSerifCJKjp-ExtraLight-5c39"/>
      <use xlink:href="#NotoSerifCJKjp-ExtraLight-5b5d" x="99.999985"/>
      <use xlink:href="#NotoSerifCJKjp-ExtraLight-5b6b" x="199.999969"/>
     </g>
    </g>
    <g clip-path="url(#p7eeada846d)">
     <!-- 府尹 -->
     <g transform="translate(945.540484 555.96) scale(0.12 -0.12)">
      <defs>
       <path id="NotoSerifCJKjp-ExtraLight-5e9c" d="M 1197 4346 
L 5939 4346 
C 6029 4346 6093 4378 6106 4448 
C 5907 4627 5594 4870 5594 4870 
L 5312 4531 
L 3488 4531 
L 3488 5107 
C 3635 5126 3706 5190 3718 5280 
L 3200 5338 
L 3200 4531 
L 1261 4531 
L 915 4710 
L 915 2982 
C 915 1875 864 678 301 -288 
L 410 -358 
C 1152 614 1197 1971 1197 2989 
L 1197 4346 
z
M 2522 4070 
C 2291 3347 1773 2349 1158 1709 
L 1242 1626 
C 1542 1882 1811 2195 2048 2522 
L 2048 -467 
L 2099 -467 
C 2208 -467 2330 -384 2336 -352 
L 2336 2592 
C 2438 2605 2502 2643 2528 2701 
L 2246 2810 
C 2470 3155 2656 3501 2784 3795 
C 2938 3776 2995 3808 3034 3878 
L 2522 4070 
z
M 3078 2227 
C 3360 1926 3674 1408 3699 1005 
C 4064 685 4384 1587 3162 2278 
L 3078 2227 
z
M 5363 2899 
L 5120 2899 
L 5120 3834 
C 5274 3853 5325 3910 5344 4000 
L 4838 4058 
L 4838 2899 
L 2816 2899 
L 2867 2714 
L 4838 2714 
L 4838 77 
C 4838 -32 4806 -70 4678 -70 
C 4544 -70 3878 -13 3878 -13 
L 3878 -122 
C 4154 -154 4333 -192 4429 -250 
C 4506 -301 4544 -384 4563 -474 
C 5069 -416 5120 -230 5120 45 
L 5120 2714 
L 5952 2714 
C 6042 2714 6099 2746 6118 2810 
C 5926 2989 5632 3219 5632 3219 
L 5363 2899 
z
" transform="scale(0.015625)"/>
      </defs>
      <use xlink:href="#NotoSerifCJKjp-ExtraLight-5e9c"/>
      <use xlink:href="#NotoSerifCJKjp-ExtraLight-5c39" x="99.999985"/>
     </g>
    </g>
   </g>
   <g id="text_17">
    <g clip-path="url(#p7eeada846d)">
     <!-- 尹承衡 -->
     <g transform="translate(784.022414 901.32) scale(0.12 -0.12)">
      <defs>
       <path id="NotoSerifCJKjp-ExtraLight-627f" d="M 1894 3750 
L 1670 3526 
L 346 3526 
L 403 3334 
L 1722 3334 
C 1542 2138 1056 979 211 173 
L 294 90 
C 1286 877 1818 2010 2035 3290 
C 2176 3296 2253 3309 2304 3360 
L 1894 3750 
z
M 4173 1210 
L 3328 1210 
L 3328 1990 
L 4339 1990 
C 4422 1990 4480 2022 4493 2093 
C 4333 2253 4064 2458 4064 2458 
L 3840 2182 
L 3328 2182 
L 3328 2886 
L 4096 2886 
C 4186 2886 4243 2918 4256 2989 
C 4102 3142 3859 3334 3859 3334 
L 3642 3078 
L 3328 3078 
L 3328 3891 
C 3482 3910 3539 3968 3558 4051 
L 3533 4051 
C 4083 4250 4666 4557 5056 4794 
C 5197 4800 5286 4813 5331 4851 
L 4928 5229 
L 4698 5005 
L 1165 5005 
L 1222 4819 
L 4550 4819 
C 4230 4576 3782 4282 3366 4077 
L 3046 4115 
L 3046 3078 
L 2157 3078 
L 2208 2886 
L 3046 2886 
L 3046 2182 
L 1965 2182 
L 2016 1990 
L 3046 1990 
L 3046 1210 
L 1530 1210 
L 1581 1024 
L 3046 1024 
L 3046 64 
C 3046 -58 3002 -102 2848 -102 
C 2688 -102 1843 -38 1843 -38 
L 1843 -141 
C 2189 -173 2400 -211 2522 -262 
C 2624 -314 2669 -384 2694 -467 
C 3264 -410 3328 -218 3328 45 
L 3328 1024 
L 4723 1024 
C 4813 1024 4870 1056 4883 1120 
C 4704 1293 4422 1510 4422 1510 
L 4173 1210 
z
M 5632 3974 
C 5414 3661 5005 3206 4627 2874 
C 4480 3290 4365 3725 4282 4160 
L 4154 4122 
C 4422 2406 4947 979 5926 192 
C 5984 333 6099 416 6221 429 
L 6240 493 
C 5555 928 5037 1773 4678 2733 
C 5126 3008 5594 3386 5862 3648 
C 5997 3610 6054 3635 6099 3699 
L 5632 3974 
z
" transform="scale(0.015625)"/>
       <path id="NotoSerifCJKjp-ExtraLight-8861" d="M 5933 4589 
C 6022 4589 6080 4621 6099 4691 
C 5907 4870 5613 5101 5613 5101 
L 5350 4781 
L 4397 4781 
L 4448 4589 
L 5933 4589 
z
M 3462 4454 
C 3373 4256 3258 4000 3168 3795 
L 2406 3795 
L 2310 3840 
C 2458 4032 2598 4237 2720 4454 
L 3462 4454 
z
M 4013 3610 
L 4013 2989 
L 3309 2989 
L 3309 3610 
L 4013 3610 
z
M 3309 2144 
L 3309 2797 
L 4013 2797 
L 4013 2144 
L 3309 2144 
z
M 2336 2797 
L 3027 2797 
L 3027 2144 
L 2336 2144 
L 2336 2797 
z
M 2336 3610 
L 3027 3610 
L 3027 2989 
L 2336 2989 
L 2336 3610 
z
M 1754 3264 
C 1856 3347 1952 3437 2048 3539 
L 2048 1600 
L 2093 1600 
C 2234 1600 2336 1683 2336 1709 
L 2336 1952 
L 4013 1952 
L 4013 1670 
L 4045 1670 
C 4147 1670 4288 1754 4294 1792 
L 4294 3578 
C 4397 3597 4480 3635 4512 3680 
L 4128 3981 
L 3962 3795 
L 3328 3795 
C 3501 4000 3699 4269 3827 4422 
C 3949 4429 4026 4435 4064 4474 
L 3674 4858 
L 3469 4640 
L 2822 4640 
C 2893 4768 2957 4909 3014 5043 
C 3149 5030 3219 5082 3245 5152 
L 2765 5331 
C 2509 4538 2080 3795 1658 3341 
L 1754 3264 
z
M 1363 5325 
C 1133 4870 672 4192 230 3750 
L 307 3667 
C 819 4058 1325 4634 1594 5037 
C 1734 5005 1792 5024 1830 5094 
L 1363 5325 
z
M 1498 4205 
C 1242 3590 730 2682 211 2067 
L 294 1984 
C 531 2208 762 2470 973 2739 
L 973 -474 
L 1030 -474 
C 1126 -474 1248 -390 1254 -365 
L 1254 2893 
C 1363 2912 1421 2950 1446 3008 
L 1235 3091 
C 1440 3386 1619 3674 1747 3910 
C 1901 3885 1946 3910 1990 3981 
L 1498 4205 
z
M 4614 1101 
C 4704 1101 4762 1133 4781 1203 
C 4595 1376 4314 1600 4314 1600 
L 4058 1293 
L 3277 1293 
C 3290 1402 3302 1510 3315 1626 
C 3450 1638 3514 1715 3526 1792 
L 3040 1856 
C 3034 1658 3021 1472 2989 1293 
L 1658 1293 
L 1709 1101 
L 2950 1101 
C 2810 550 2458 90 1549 -326 
L 1626 -461 
C 2528 -109 2931 301 3123 749 
C 3475 531 3878 186 4032 -90 
C 4410 -262 4506 493 3174 870 
C 3200 947 3219 1024 3238 1101 
L 4614 1101 
z
M 5459 3360 
L 4390 3360 
L 4442 3174 
L 5242 3174 
L 5242 51 
C 5242 -38 5210 -70 5101 -70 
C 4979 -70 4416 -26 4416 -26 
L 4416 -128 
C 4666 -160 4813 -192 4896 -250 
C 4966 -301 5005 -390 5011 -474 
C 5466 -416 5523 -218 5523 45 
L 5523 3174 
L 6048 3174 
C 6138 3174 6189 3200 6208 3270 
C 6022 3450 5722 3680 5722 3680 
L 5459 3360 
z
" transform="scale(0.015625)"/>
      </defs>
      <use xlink:href="#NotoSerifCJKjp-ExtraLight-5c39"/>
      <use xlink:href="#NotoSerifCJKjp-ExtraLight-627f" x="99.999985"/>
      <use xlink:href="#NotoSerifCJKjp-ExtraLight-8861" x="199.999969"/>
     </g>
    </g>
    <g clip-path="url(#p7eeada846d)">
     <!--  -->
     <g transform="translate(802.022414 915.96) scale(0.12 -0.12)"/>
    </g>
   </g>
   <g id="text_18">
    <g clip-path="url(#p7eeada846d)">
     <!-- 許顒 -->
     <g transform="translate(1095.298625 901.32) scale(0.12 -0.12)">
      <defs>
       <path id="NotoSerifCJKjp-ExtraLight-8a31" d="M 2426 4730 
C 2509 4730 2573 4762 2586 4832 
C 2406 4998 2125 5229 2125 5229 
L 1882 4915 
L 570 4915 
L 621 4730 
L 2426 4730 
z
M 2170 4109 
L 269 4109 
L 320 3923 
L 2726 3923 
C 2810 3923 2867 3955 2886 4026 
C 2714 4192 2419 4422 2419 4422 
L 2170 4109 
z
M 544 3302 
L 595 3117 
L 2362 3117 
C 2451 3117 2509 3149 2528 3213 
C 2362 3373 2106 3584 2106 3584 
L 1888 3302 
L 544 3302 
z
M 2355 2310 
C 2445 2310 2502 2342 2515 2406 
C 2355 2573 2086 2778 2086 2778 
L 1856 2496 
L 544 2496 
L 595 2310 
L 2355 2310 
z
M 864 275 
L 864 1504 
L 2118 1504 
L 2118 275 
L 864 275 
z
M 2054 1690 
L 896 1690 
L 582 1850 
L 582 -461 
L 627 -461 
C 742 -461 864 -390 864 -358 
L 864 90 
L 2118 90 
L 2118 -243 
L 2157 -243 
C 2253 -243 2394 -173 2400 -134 
L 2400 1440 
C 2528 1466 2637 1510 2682 1562 
L 2246 1901 
L 2054 1690 
z
M 5485 2387 
L 4557 2387 
L 4557 4038 
L 5920 4038 
C 6010 4038 6067 4070 6086 4141 
C 5901 4320 5613 4544 5613 4544 
L 5350 4230 
L 3520 4230 
C 3642 4499 3738 4781 3821 5075 
C 3962 5075 4026 5133 4045 5210 
L 3520 5344 
C 3354 4454 3021 3610 2624 3059 
L 2726 2995 
C 2995 3264 3232 3629 3437 4038 
L 4275 4038 
L 4275 2387 
L 2669 2387 
L 2720 2202 
L 4275 2202 
L 4275 -467 
L 4314 -467 
C 4461 -467 4557 -371 4557 -339 
L 4557 2202 
L 6067 2202 
C 6150 2202 6208 2234 6227 2304 
C 6042 2477 5741 2714 5741 2714 
L 5485 2387 
z
" transform="scale(0.015625)"/>
       <path id="NotoSerifCJKjp-ExtraLight-9852" d="M 928 3034 
L 928 3814 
L 1677 3814 
L 1677 3034 
L 928 3034 
z
M 1677 4806 
L 1677 4006 
L 928 4006 
L 928 4806 
L 1677 4806 
z
M 2726 4806 
L 2726 4006 
L 1958 4006 
L 1958 4806 
L 2726 4806 
z
M 1958 3034 
L 1958 3814 
L 2726 3814 
L 2726 3034 
L 1958 3034 
z
M 3174 1946 
C 3302 1971 3424 2029 3469 2080 
L 2989 2432 
L 2816 2214 
L 1958 2214 
L 1958 2842 
L 2726 2842 
L 2726 2624 
L 2771 2624 
C 2880 2624 3008 2707 3008 2733 
L 3008 4787 
C 3136 4806 3200 4838 3238 4883 
L 2854 5184 
L 2707 4992 
L 1005 4992 
L 653 5158 
L 653 2579 
L 685 2579 
C 832 2579 928 2662 928 2688 
L 928 2842 
L 1677 2842 
L 1677 2214 
L 806 2214 
L 493 2374 
L 493 -474 
L 544 -474 
C 666 -474 774 -403 774 -371 
L 774 2022 
L 1677 2022 
L 1677 1069 
C 1344 1018 1062 979 890 960 
L 1101 576 
C 1158 595 1210 634 1235 704 
C 1747 851 2144 973 2426 1062 
C 2470 922 2496 774 2496 646 
C 2778 371 3078 1082 2189 1754 
L 2099 1709 
C 2202 1568 2310 1382 2381 1184 
C 2240 1158 2099 1133 1958 1114 
L 1958 2022 
L 2886 2022 
L 2886 262 
C 2886 179 2861 154 2778 154 
C 2675 154 2253 186 2253 186 
L 2253 77 
C 2438 58 2560 19 2624 -32 
C 2694 -83 2714 -173 2726 -250 
C 3130 -198 3174 -38 3174 224 
L 3174 1946 
z
M 3014 -480 
C 3514 -250 4058 122 4346 454 
C 4454 422 4525 435 4557 493 
L 4128 723 
C 3878 339 3392 -96 2944 -384 
L 3014 -480 
z
M 4922 646 
C 5254 378 5690 -96 5818 -435 
C 6195 -659 6387 134 4998 698 
L 4922 646 
z
M 5491 3808 
L 5491 3085 
L 3878 3085 
L 3878 3808 
L 5491 3808 
z
M 3878 1190 
L 3878 1958 
L 5491 1958 
L 5491 1190 
L 3878 1190 
z
M 3878 2893 
L 5491 2893 
L 5491 2150 
L 3878 2150 
L 3878 2893 
z
M 5434 4947 
L 3354 4947 
L 3405 4762 
L 4506 4762 
C 4480 4531 4448 4237 4416 4000 
L 3910 4000 
L 3597 4160 
L 3597 698 
L 3642 698 
C 3770 698 3878 768 3878 806 
L 3878 1005 
L 5491 1005 
L 5491 736 
L 5530 736 
C 5632 736 5766 819 5773 858 
L 5773 3763 
C 5882 3789 5984 3834 6016 3878 
L 5619 4192 
L 5434 4000 
L 4602 4000 
C 4698 4224 4794 4525 4864 4762 
L 6003 4762 
C 6086 4762 6144 4794 6163 4864 
C 5978 5037 5690 5267 5690 5267 
L 5434 4947 
z
" transform="scale(0.015625)"/>
      </defs>
      <use xlink:href="#NotoSerifCJKjp-ExtraLight-8a31"/>
      <use xlink:href="#NotoSerifCJKjp-ExtraLight-9852" x="99.999985"/>
     </g>
    </g>
    <g clip-path="url(#p7eeada846d)">
     <!--  -->
     <g transform="translate(1107.298625 915.96) scale(0.12 -0.12)"/>
    </g>
   </g>
   <g id="text_19">
    <g clip-path="url(#p7eeada846d)">
     <!-- 尹繼衡 -->
     <g transform="translate(1394.574835 901.32) scale(0.12 -0.12)">
      <defs>
       <path id="NotoSerifCJKjp-ExtraLight-7e7c" d="M 5427 4576 
C 5248 4205 4966 3699 4730 3322 
C 4608 3315 4506 3315 4429 3315 
L 4595 2950 
C 4653 2963 4704 2995 4736 3078 
C 5114 3136 5408 3187 5619 3232 
C 5664 3142 5696 3059 5709 2976 
C 5958 2771 6202 3290 5421 3680 
L 5338 3635 
C 5408 3565 5485 3462 5549 3360 
C 5331 3347 5114 3334 4922 3328 
C 5165 3648 5427 4026 5600 4307 
C 5722 4288 5811 4333 5843 4403 
L 5427 4576 
z
M 5050 5178 
C 4928 4890 4787 4595 4666 4390 
C 4608 4422 4531 4461 4448 4493 
L 4371 4448 
C 4512 4307 4698 4058 4755 3885 
C 4960 3738 5146 4032 4787 4307 
C 4934 4474 5107 4691 5254 4883 
C 5370 4870 5446 4922 5478 4986 
L 5050 5178 
z
M 3955 4576 
C 3782 4198 3507 3686 3270 3309 
C 3149 3302 3046 3296 2970 3296 
L 3149 2938 
C 3200 2950 3245 2982 3283 3066 
C 3616 3130 3878 3181 4064 3226 
C 4083 3162 4090 3091 4096 3034 
C 4339 2810 4614 3302 3930 3744 
L 3846 3706 
C 3910 3616 3974 3482 4026 3354 
C 3827 3341 3635 3328 3462 3315 
C 3699 3642 3949 4026 4115 4307 
C 4243 4294 4333 4346 4365 4416 
L 3955 4576 
z
M 2912 4448 
C 3059 4307 3238 4058 3296 3885 
C 3501 3744 3680 4019 3341 4294 
C 3488 4467 3648 4698 3789 4896 
C 3910 4883 3987 4934 4013 4998 
L 3597 5178 
C 3482 4896 3341 4595 3226 4378 
C 3162 4416 3078 4454 2989 4493 
L 2912 4448 
z
M 1165 5318 
C 1024 4915 845 4448 698 4122 
C 595 4198 467 4262 307 4326 
L 237 4269 
C 454 4090 704 3770 755 3514 
C 992 3341 1178 3693 813 4032 
C 1011 4314 1242 4698 1427 5024 
C 1549 5011 1619 5069 1651 5133 
L 1165 5318 
z
M 378 70 
C 563 454 704 1005 794 1478 
C 928 1485 992 1549 1011 1626 
L 525 1715 
C 480 1165 384 550 262 122 
L 378 70 
z
M 1549 3149 
C 1651 3002 1760 2803 1843 2605 
C 1510 2586 1184 2573 902 2560 
C 1280 3085 1696 3744 1946 4211 
C 2080 4198 2170 4243 2202 4320 
L 1722 4506 
C 1472 3930 1062 3142 730 2554 
C 518 2547 346 2541 224 2541 
L 384 2144 
C 442 2157 499 2189 531 2272 
C 755 2304 954 2330 1139 2362 
L 1139 -474 
L 1178 -474 
C 1318 -474 1427 -397 1427 -365 
L 1427 2406 
C 1600 2438 1760 2464 1888 2490 
C 1933 2362 1965 2240 1978 2131 
C 2266 1875 2554 2534 1638 3187 
L 1549 3149 
z
M 1670 1709 
C 1811 1402 1952 915 1939 550 
C 2234 250 2573 954 1766 1741 
L 1670 1709 
z
M 5440 77 
L 2771 77 
L 2771 2547 
L 5901 2547 
C 5990 2547 6048 2579 6067 2650 
C 5888 2803 5626 2995 5626 2995 
L 5389 2739 
L 2771 2739 
L 2771 5024 
C 2906 5043 2957 5101 2970 5190 
L 2483 5248 
L 2483 -480 
L 2541 -480 
C 2650 -480 2771 -403 2771 -352 
L 2771 -115 
L 5914 -115 
C 5997 -115 6054 -83 6074 -13 
C 5907 141 5664 314 5664 314 
L 5440 77 
z
M 5107 2483 
C 4986 2202 4851 1920 4736 1709 
C 4666 1754 4582 1798 4486 1837 
L 4416 1786 
C 4550 1645 4730 1402 4794 1222 
C 4986 1082 5165 1350 4851 1626 
C 4992 1786 5171 2003 5306 2195 
C 5427 2182 5504 2234 5536 2298 
L 5107 2483 
z
M 5414 986 
C 5491 902 5574 787 5645 672 
C 5414 659 5190 646 4986 634 
C 5248 966 5517 1357 5702 1651 
C 5824 1632 5914 1683 5952 1754 
L 5517 1933 
C 5331 1542 5037 1018 4794 627 
C 4666 621 4563 614 4480 614 
L 4659 250 
C 4717 262 4768 294 4800 378 
C 5203 448 5504 518 5709 563 
C 5754 467 5786 378 5805 294 
C 6061 96 6298 621 5498 1030 
L 5414 986 
z
M 3968 1920 
C 3782 1530 3494 1005 3251 627 
L 2970 614 
L 3149 250 
C 3200 262 3245 294 3283 378 
C 3622 442 3891 499 4077 544 
C 4096 480 4102 410 4109 346 
C 4352 128 4627 634 3930 1088 
L 3846 1056 
C 3917 954 3987 813 4038 666 
L 3430 634 
C 3699 954 3974 1344 4147 1638 
C 4275 1626 4365 1670 4403 1741 
L 3968 1920 
z
M 3597 2483 
C 3475 2202 3334 1920 3219 1709 
C 3155 1754 3072 1798 2976 1837 
L 2899 1786 
C 3040 1645 3213 1402 3277 1222 
C 3475 1082 3654 1350 3334 1626 
C 3482 1786 3654 2003 3795 2195 
C 3917 2182 3994 2234 4026 2298 
L 3597 2483 
z
" transform="scale(0.015625)"/>
      </defs>
      <use xlink:href="#NotoSerifCJKjp-ExtraLight-5c39"/>
      <use xlink:href="#NotoSerifCJKjp-ExtraLight-7e7c" x="99.999985"/>
      <use xlink:href="#NotoSerifCJKjp-ExtraLight-8861" x="199.999969"/>
     </g>
    </g>
    <g clip-path="url(#p7eeada846d)">
     <!--  -->
     <g transform="translate(1412.574835 915.96) scale(0.12 -0.12)"/>
    </g>
   </g>
   <g id="text_20">
    <g clip-path="url(#p7eeada846d)">
     <!-- 朴元亨 -->
     <g transform="translate(1244.816694 181.32) scale(0.12 -0.12)">
      <defs>
       <path id="NotoSerifCJKjp-ExtraLight-5143" d="M 5280 4608 
C 5363 4608 5421 4640 5440 4710 
C 5242 4896 4922 5146 4922 5146 
L 4646 4800 
L 1005 4800 
L 1056 4608 
L 5280 4608 
z
M 6010 1126 
L 5914 1126 
C 5856 672 5786 205 5741 83 
C 5722 19 5702 -6 5632 -13 
C 5530 -26 5299 -26 4966 -26 
L 4301 -26 
C 4026 -26 3994 13 3994 134 
L 3994 2925 
L 3994 3046 
L 5939 3046 
C 6029 3046 6086 3078 6106 3149 
C 5901 3334 5574 3590 5574 3590 
L 5286 3232 
L 314 3232 
L 371 3046 
L 2195 3046 
C 2131 1350 1779 384 243 -390 
L 288 -493 
C 2016 205 2419 1197 2515 3046 
L 3706 3046 
L 3706 77 
C 3706 -192 3808 -288 4269 -288 
L 4986 -288 
C 5997 -288 6170 -243 6170 -96 
C 6170 -32 6144 6 6022 45 
L 6010 1126 
z
" transform="scale(0.015625)"/>
       <path id="NotoSerifCJKjp-ExtraLight-4ea8" d="M 5120 2214 
L 621 2214 
L 678 2022 
L 4851 2022 
C 4467 1837 3942 1645 3507 1504 
L 3053 1555 
L 3053 70 
C 3053 -32 3014 -70 2880 -70 
C 2726 -70 1933 -19 1933 -19 
L 1933 -122 
C 2253 -154 2458 -192 2566 -250 
C 2662 -301 2701 -378 2726 -467 
C 3277 -410 3334 -224 3334 45 
L 3334 1338 
C 4000 1485 4947 1760 5421 2010 
C 5581 2016 5670 2022 5722 2061 
L 5344 2413 
L 5120 2214 
z
M 1786 2938 
L 1786 3686 
L 4608 3686 
L 4608 2938 
L 1786 2938 
z
M 4646 2547 
C 4742 2547 4883 2624 4890 2662 
L 4890 3622 
C 5011 3648 5126 3699 5171 3750 
L 4730 4077 
L 4544 3878 
L 1818 3878 
L 1504 4032 
L 1504 2515 
L 1542 2515 
C 1658 2515 1786 2586 1786 2611 
L 1786 2752 
L 4608 2752 
L 4608 2547 
L 4646 2547 
z
M 5248 4576 
L 3334 4576 
L 3334 5114 
C 3488 5133 3558 5197 3571 5286 
L 3053 5344 
L 3053 4576 
L 390 4576 
L 448 4390 
L 5850 4390 
C 5939 4390 6003 4422 6016 4486 
C 5824 4672 5517 4909 5517 4909 
L 5248 4576 
z
" transform="scale(0.015625)"/>
      </defs>
      <use xlink:href="#NotoSerifCJKjp-ExtraLight-6734"/>
      <use xlink:href="#NotoSerifCJKjp-ExtraLight-5143" x="99.999985"/>
      <use xlink:href="#NotoSerifCJKjp-ExtraLight-4ea8" x="199.999969"/>
     </g>
    </g>
    <g clip-path="url(#p7eeada846d)">
     <!-- 領議政 延城府院君 -->
     <g transform="translate(1213.262319 195.96) scale(0.12 -0.12)">
      <defs>
       <path id="NotoSerifCJKjp-ExtraLight-9818" d="M 1478 5350 
C 1254 4672 704 3731 147 3194 
L 237 3123 
C 864 3603 1395 4403 1702 5037 
C 2176 4717 2515 4301 2650 3981 
C 2938 3782 3258 4493 1741 5114 
C 1901 5120 1958 5158 1978 5222 
L 1478 5350 
z
M 909 3558 
L 960 3366 
L 2483 3366 
C 2573 3366 2630 3398 2650 3469 
C 2470 3635 2195 3859 2195 3859 
L 1952 3558 
L 909 3558 
z
M 2662 2394 
C 2784 2419 2893 2470 2938 2522 
L 2477 2854 
L 2317 2650 
L 339 2650 
L 397 2458 
L 1178 2458 
L 1178 -454 
L 1216 -454 
C 1363 -454 1466 -371 1466 -346 
L 1466 2458 
L 2374 2458 
L 2374 954 
C 2374 864 2355 832 2259 832 
C 2157 832 1696 870 1696 870 
L 1696 768 
C 1901 736 2022 698 2093 659 
C 2163 602 2189 512 2202 429 
C 2618 480 2662 646 2662 909 
L 2662 2394 
z
M 2426 -461 
C 3008 -269 3686 64 4038 384 
C 4141 352 4224 358 4256 416 
L 3846 666 
C 3526 282 2893 -115 2362 -358 
L 2426 -461 
z
M 4621 570 
C 5056 339 5651 -109 5862 -442 
C 6266 -614 6330 218 4685 646 
L 4621 570 
z
M 5421 3744 
L 5421 3021 
L 3501 3021 
L 3501 3744 
L 5421 3744 
z
M 3501 1126 
L 3501 1901 
L 5421 1901 
L 5421 1126 
L 3501 1126 
z
M 3501 2829 
L 5421 2829 
L 5421 2086 
L 3501 2086 
L 3501 2829 
z
M 5421 4870 
L 2874 4870 
L 2925 4678 
L 4218 4678 
C 4179 4429 4115 4141 4058 3936 
L 3533 3936 
L 3213 4096 
L 3213 666 
L 3264 666 
C 3392 666 3501 730 3501 768 
L 3501 941 
L 5421 941 
L 5421 672 
L 5459 672 
C 5555 672 5696 755 5702 794 
L 5702 3706 
C 5805 3725 5901 3770 5939 3814 
L 5542 4128 
L 5363 3936 
L 4256 3936 
C 4365 4141 4486 4422 4589 4678 
L 6010 4678 
C 6099 4678 6150 4710 6170 4781 
C 5984 4954 5690 5190 5690 5190 
L 5421 4870 
z
" transform="scale(0.015625)"/>
       <path id="NotoSerifCJKjp-ExtraLight-8b70" d="M 2554 4346 
L 3949 4346 
L 3949 3872 
L 2752 3872 
L 2797 3680 
L 3949 3680 
L 3949 3194 
L 2336 3194 
L 2381 3008 
L 5939 3008 
C 6022 3008 6086 3040 6106 3110 
C 5914 3283 5619 3520 5619 3520 
L 5350 3194 
L 4230 3194 
L 4230 3680 
L 5530 3680 
C 5619 3680 5677 3712 5696 3782 
C 5504 3949 5222 4160 5222 4160 
L 4973 3872 
L 4230 3872 
L 4230 4346 
L 5773 4346 
C 5862 4346 5920 4378 5939 4448 
C 5754 4614 5478 4832 5478 4832 
L 5235 4531 
L 4595 4531 
C 4787 4704 4973 4909 5101 5088 
C 5235 5082 5312 5133 5344 5203 
L 4845 5363 
C 4749 5107 4576 4768 4429 4531 
L 3738 4531 
C 3936 4582 3955 5043 3187 5331 
L 3110 5286 
C 3296 5114 3526 4806 3584 4570 
C 3610 4550 3642 4538 3667 4531 
L 2502 4531 
L 2554 4346 
z
M 4870 2746 
C 4992 2630 5146 2426 5210 2278 
C 5491 2099 5728 2611 4934 2790 
L 4870 2746 
z
M 2061 4717 
C 2144 4717 2208 4749 2221 4819 
C 2048 4986 1766 5210 1766 5210 
L 1523 4902 
L 512 4902 
L 563 4717 
L 2061 4717 
z
M 1747 4102 
L 256 4102 
L 307 3917 
L 2298 3917 
C 2374 3917 2438 3949 2451 4019 
C 2278 4186 1990 4416 1990 4416 
L 1747 4102 
z
M 518 3296 
L 570 3110 
L 2035 3110 
C 2125 3110 2182 3142 2202 3206 
C 2035 3366 1786 3571 1786 3571 
L 1562 3296 
L 518 3296 
z
M 2035 2298 
C 2125 2298 2182 2330 2202 2394 
C 2035 2554 1786 2758 1786 2758 
L 1562 2483 
L 518 2483 
L 570 2298 
L 2035 2298 
z
M 832 250 
L 832 1491 
L 1722 1491 
L 1722 250 
L 832 250 
z
M 1658 1677 
L 864 1677 
L 550 1837 
L 550 -474 
L 595 -474 
C 710 -474 832 -403 832 -371 
L 832 64 
L 1722 64 
L 1722 -230 
L 1760 -230 
C 1856 -230 1997 -160 2003 -122 
L 2003 1427 
C 2131 1453 2240 1504 2285 1549 
L 1850 1888 
L 1658 1677 
z
M 6022 538 
L 5939 544 
C 5888 326 5824 96 5773 -26 
C 5741 -122 5709 -128 5613 -83 
C 5325 45 5120 282 4973 582 
C 5203 826 5389 1082 5517 1331 
C 5670 1318 5722 1344 5747 1414 
L 5299 1574 
C 5203 1325 5050 1069 4864 826 
C 4762 1101 4698 1414 4653 1734 
L 5965 1734 
C 6054 1734 6112 1766 6125 1837 
C 5952 2003 5677 2221 5677 2221 
L 5434 1926 
L 4627 1926 
C 4595 2182 4582 2438 4570 2688 
C 4698 2714 4755 2771 4768 2848 
L 4269 2899 
C 4288 2560 4314 2234 4346 1926 
L 3475 1926 
L 3475 2509 
C 3610 2547 3731 2592 3827 2630 
C 3949 2592 4038 2592 4090 2643 
L 3725 2931 
C 3456 2752 2906 2515 2432 2400 
L 2477 2291 
C 2714 2317 2963 2368 3194 2432 
L 3194 1926 
L 2240 1926 
L 2291 1734 
L 3194 1734 
L 3194 1094 
C 2842 1005 2528 928 2323 890 
L 2496 525 
C 2554 544 2598 595 2618 672 
C 2822 736 3014 800 3194 864 
L 3194 0 
C 3194 -83 3168 -115 3066 -115 
C 2963 -115 2483 -77 2483 -77 
L 2483 -173 
C 2701 -198 2829 -230 2899 -275 
C 2963 -320 2995 -397 3002 -467 
C 3418 -422 3475 -250 3475 -6 
L 3475 966 
C 3757 1075 4006 1178 4218 1280 
L 4186 1382 
C 3949 1306 3706 1235 3475 1171 
L 3475 1734 
L 4371 1734 
C 4435 1306 4525 915 4666 589 
C 4403 301 4083 38 3731 -147 
L 3789 -237 
C 4160 -83 4486 134 4768 384 
C 4947 58 5197 -192 5542 -346 
C 5779 -467 6048 -538 6112 -390 
C 6138 -326 6125 -282 5984 -173 
L 6022 538 
z
" transform="scale(0.015625)"/>
       <path id="NotoSerifCJKjp-ExtraLight-653f" d="M 5107 3725 
C 4986 2848 4742 2086 4326 1440 
C 3968 2048 3750 2758 3597 3526 
C 3629 3590 3654 3661 3680 3725 
L 5107 3725 
z
M 5984 3725 
C 6074 3725 6131 3757 6144 3827 
C 5958 4006 5664 4237 5664 4237 
L 5402 3917 
L 3757 3917 
C 3898 4282 4013 4666 4102 5062 
C 4243 5069 4314 5133 4339 5210 
L 3789 5331 
C 3654 4474 3398 3654 3085 2989 
C 2906 3162 2637 3373 2637 3373 
L 2387 3066 
L 1914 3066 
L 1914 4544 
L 3136 4544 
C 3219 4544 3277 4576 3296 4646 
C 3117 4826 2822 5050 2822 5050 
L 2566 4736 
L 339 4736 
L 390 4544 
L 1626 4544 
L 1626 774 
C 1370 704 1139 640 928 589 
L 928 3354 
C 1050 3379 1094 3430 1107 3501 
L 646 3558 
L 646 518 
C 474 474 333 442 224 422 
L 461 -26 
C 518 -6 570 51 589 128 
C 1779 531 2682 877 3347 1126 
L 3315 1235 
C 2829 1101 2349 966 1914 851 
L 1914 2874 
L 2931 2874 
C 2976 2874 3014 2880 3040 2899 
C 2957 2726 2867 2560 2771 2413 
L 2867 2349 
C 3098 2611 3309 2938 3488 3302 
C 3629 2534 3834 1824 4166 1210 
C 3699 576 3046 45 2144 -378 
L 2202 -474 
C 3130 -102 3814 371 4314 960 
C 4685 378 5190 -109 5888 -467 
C 5933 -333 6054 -269 6182 -262 
L 6202 -198 
C 5440 122 4890 595 4493 1184 
C 4998 1875 5293 2714 5453 3725 
L 5984 3725 
z
" transform="scale(0.015625)"/>
       <path id="NotoSerifCJKjp-ExtraLight-20" transform="scale(0.015625)"/>
       <path id="NotoSerifCJKjp-ExtraLight-5ef6" d="M 4077 1043 
L 3181 1043 
L 3181 3379 
C 3328 3405 3398 3469 3411 3558 
L 2893 3616 
L 2893 1043 
L 2182 1043 
L 2234 851 
L 5920 851 
C 6010 851 6074 883 6093 954 
C 5888 1139 5574 1389 5574 1389 
L 5293 1043 
L 4365 1043 
L 4365 2944 
L 5792 2944 
C 5882 2944 5946 2976 5965 3046 
C 5766 3226 5459 3469 5459 3469 
L 5190 3136 
L 4365 3136 
L 4365 4704 
C 4806 4794 5203 4902 5530 4998 
C 5670 4941 5766 4941 5818 4992 
L 5427 5331 
C 4774 5037 3494 4691 2426 4531 
L 2458 4410 
C 2995 4454 3558 4538 4077 4640 
L 4077 1043 
z
M 1952 3238 
L 1754 3034 
L 1050 3034 
C 1382 3590 1722 4198 1920 4570 
C 2061 4582 2189 4608 2240 4653 
L 1843 5018 
L 1645 4819 
L 422 4819 
L 480 4627 
L 1613 4627 
C 1318 4038 851 3181 454 2528 
C 563 2470 646 2464 717 2470 
L 941 2842 
L 1792 2842 
C 1722 2202 1594 1581 1344 1024 
C 1146 1312 979 1677 838 2144 
L 730 2093 
C 883 1581 1056 1171 1267 851 
C 1030 384 704 -38 243 -378 
L 307 -474 
C 806 -166 1158 211 1421 634 
C 2035 -128 2912 -301 4262 -301 
L 5914 -301 
C 5933 -173 6010 -96 6144 -77 
L 6144 19 
C 5677 6 4730 6 4294 6 
C 2989 6 2118 134 1517 806 
C 1843 1414 1997 2106 2093 2810 
C 2227 2822 2291 2842 2336 2893 
L 1952 3238 
z
" transform="scale(0.015625)"/>
       <path id="NotoSerifCJKjp-ExtraLight-57ce" d="M 4678 5037 
C 4915 4896 5203 4634 5293 4416 
C 5632 4237 5786 4915 4742 5101 
L 4678 5037 
z
M 2227 1747 
C 1939 1632 1651 1517 1389 1414 
L 1389 3315 
L 2125 3315 
C 2214 3315 2272 3347 2291 3418 
C 2106 3590 1824 3814 1824 3814 
L 1568 3507 
L 1389 3507 
L 1389 4954 
C 1542 4973 1606 5037 1619 5126 
L 1101 5190 
L 1101 3507 
L 288 3507 
L 339 3315 
L 1101 3315 
L 1101 1306 
C 730 1165 422 1050 243 998 
L 518 595 
C 570 627 614 678 627 755 
C 1331 1120 1875 1434 2266 1645 
L 2227 1747 
z
M 6125 890 
L 6035 902 
C 5978 659 5882 365 5818 224 
C 5760 83 5734 83 5651 198 
C 5389 467 5190 813 5030 1210 
C 5363 1734 5619 2362 5824 3123 
C 5997 3117 6054 3149 6080 3219 
L 5549 3386 
C 5382 2669 5171 2074 4909 1574 
C 4691 2272 4589 3091 4550 3930 
L 5978 3930 
C 6061 3930 6125 3962 6138 4032 
C 5952 4205 5658 4442 5658 4442 
L 5389 4115 
L 4544 4115 
C 4531 4416 4531 4723 4531 5024 
C 4698 5050 4755 5120 4762 5203 
L 4211 5274 
C 4211 4877 4218 4493 4237 4115 
L 2739 4115 
L 2387 4294 
L 2387 2573 
C 2387 1466 2227 429 1286 -384 
L 1382 -474 
C 2528 339 2675 1536 2675 2579 
L 2675 2714 
L 3571 2714 
C 3546 1677 3507 1133 3411 1018 
C 3386 986 3360 973 3290 973 
C 3200 973 2874 998 2707 1011 
L 2707 896 
C 2861 877 3059 838 3130 800 
C 3194 755 3226 672 3226 614 
C 3366 614 3507 666 3603 755 
C 3782 947 3821 1530 3846 2694 
C 3968 2707 4038 2739 4077 2778 
L 3680 3098 
L 3514 2899 
L 2675 2899 
L 2675 3930 
L 4250 3930 
C 4307 2925 4448 2003 4710 1235 
C 4294 576 3757 77 3034 -339 
L 3104 -461 
C 3834 -102 4397 339 4832 928 
C 5005 525 5216 173 5485 -115 
C 5709 -371 6022 -557 6138 -410 
C 6189 -352 6176 -282 6022 -58 
L 6125 890 
z
" transform="scale(0.015625)"/>
       <path id="NotoSerifCJKjp-ExtraLight-9662" d="M 1958 5190 
L 1728 4960 
L 909 4960 
L 550 5133 
L 550 -486 
L 595 -486 
C 730 -486 832 -397 832 -371 
L 832 4774 
L 1734 4774 
C 1574 4301 1325 3616 1158 3251 
C 1606 2784 1766 2349 1766 1914 
C 1766 1670 1709 1530 1606 1478 
C 1549 1446 1510 1440 1434 1440 
L 979 1440 
L 979 1331 
C 1114 1318 1242 1293 1286 1254 
C 1338 1216 1363 1126 1363 1024 
C 1907 1056 2106 1293 2099 1862 
C 2099 2317 1901 2784 1318 3270 
C 1549 3622 1914 4333 2093 4691 
C 2240 4698 2336 4710 2374 4762 
L 1958 5190 
z
M 6003 832 
L 5914 832 
C 5869 486 5805 102 5773 6 
C 5747 -45 5734 -58 5683 -64 
C 5626 -70 5466 -70 5267 -70 
L 4845 -70 
C 4666 -70 4646 -45 4646 45 
L 4646 2144 
L 4646 2202 
L 5933 2202 
C 6022 2202 6086 2234 6099 2304 
C 5914 2477 5613 2714 5613 2714 
L 5350 2387 
L 2214 2387 
L 2266 2202 
L 3258 2202 
C 3194 896 2867 211 1574 -358 
L 1613 -467 
C 3066 19 3488 730 3590 2202 
L 4365 2202 
L 4365 -19 
C 4365 -243 4435 -333 4800 -333 
L 5286 -333 
C 6016 -333 6157 -282 6157 -147 
C 6157 -90 6138 -51 6022 -13 
L 6003 832 
z
M 4883 3443 
L 2541 3443 
L 2592 3251 
L 5434 3251 
C 5523 3251 5587 3283 5600 3354 
C 5421 3526 5133 3750 5133 3750 
L 4883 3443 
z
M 5728 4762 
L 5491 4512 
L 4122 4512 
L 4122 5094 
C 4275 5114 4346 5178 4358 5267 
L 3840 5325 
L 3840 4512 
L 2682 4512 
C 2675 4614 2656 4723 2624 4838 
L 2502 4838 
C 2522 4518 2381 4160 2214 4026 
C 2112 3942 2054 3821 2112 3718 
C 2189 3610 2374 3648 2483 3757 
C 2586 3866 2669 4058 2682 4326 
L 5498 4326 
C 5440 4160 5363 3962 5306 3834 
L 5402 3789 
C 5568 3910 5805 4115 5939 4269 
C 6061 4275 6131 4282 6176 4333 
L 5728 4762 
z
" transform="scale(0.015625)"/>
       <path id="NotoSerifCJKjp-ExtraLight-541b" d="M 4806 2848 
L 2592 2848 
C 2714 3130 2803 3424 2880 3731 
L 4806 3731 
L 4806 2848 
z
M 4806 4755 
L 4806 3923 
L 2925 3923 
C 2976 4192 3021 4467 3053 4755 
L 4806 4755 
z
M 5069 1517 
L 5069 147 
L 2195 147 
L 2195 1517 
L 5069 1517 
z
M 5331 3923 
L 5088 3923 
L 5088 4672 
C 5229 4698 5344 4755 5395 4813 
L 4922 5171 
L 4736 4941 
L 1133 4941 
L 1190 4755 
L 2739 4755 
C 2707 4467 2662 4192 2605 3923 
L 390 3923 
L 448 3731 
L 2560 3731 
C 2490 3424 2394 3130 2278 2848 
L 1069 2848 
L 1120 2662 
L 2195 2662 
C 1805 1805 1197 1082 294 506 
L 378 410 
C 1024 781 1530 1210 1920 1702 
L 1920 -486 
L 1952 -486 
C 2093 -486 2195 -403 2195 -378 
L 2195 -45 
L 5069 -45 
L 5069 -442 
L 5107 -442 
C 5203 -442 5344 -358 5350 -326 
L 5350 1453 
C 5485 1478 5600 1523 5645 1574 
L 5197 1926 
L 4998 1709 
L 2272 1709 
L 2016 1830 
C 2208 2093 2374 2368 2509 2662 
L 4806 2662 
L 4806 2317 
L 4845 2317 
C 4928 2317 5075 2362 5088 2381 
L 5088 3731 
L 5914 3731 
C 6003 3731 6061 3763 6080 3834 
C 5888 4013 5594 4243 5594 4243 
L 5331 3923 
z
" transform="scale(0.015625)"/>
      </defs>
      <use xlink:href="#NotoSerifCJKjp-ExtraLight-9818"/>
      <use xlink:href="#NotoSerifCJKjp-ExtraLight-8b70" x="99.999985"/>
      <use xlink:href="#NotoSerifCJKjp-ExtraLight-653f" x="199.999969"/>
      <use xlink:href="#NotoSerifCJKjp-ExtraLight-20" x="299.999954"/>
      <use xlink:href="#NotoSerifCJKjp-ExtraLight-5ef6" x="325.899948"/>
      <use xlink:href="#NotoSerifCJKjp-ExtraLight-57ce" x="425.899933"/>
      <use xlink:href="#NotoSerifCJKjp-ExtraLight-5e9c" x="525.899918"/>
      <use xlink:href="#NotoSerifCJKjp-ExtraLight-9662" x="625.899902"/>
      <use xlink:href="#NotoSerifCJKjp-ExtraLight-541b" x="725.899887"/>
     </g>
    </g>
   </g>
   <g id="text_21">
    <g clip-path="url(#p7eeada846d)">
     <!-- 權恩榮 -->
     <g transform="translate(1244.816694 541.32) scale(0.12 -0.12)">
      <defs>
       <path id="NotoSerifCJKjp-ExtraLight-6b0a" d="M 2234 4595 
L 3251 4595 
L 3251 4147 
L 3309 4147 
C 3418 4147 3539 4224 3539 4262 
L 3539 4595 
L 4550 4595 
L 4550 4147 
L 4608 4147 
C 4717 4147 4838 4224 4838 4262 
L 4838 4595 
L 5965 4595 
C 6054 4595 6112 4627 6131 4698 
C 5939 4870 5645 5107 5645 5107 
L 5376 4787 
L 4838 4787 
L 4838 5088 
C 4998 5114 5062 5171 5075 5267 
L 4550 5318 
L 4550 4787 
L 3539 4787 
L 3539 5088 
C 3693 5114 3763 5171 3776 5267 
L 3251 5318 
L 3251 4787 
L 2182 4787 
L 2234 4595 
z
M 2797 3104 
L 2797 3776 
L 3616 3776 
L 3616 3104 
L 2797 3104 
z
M 3648 2720 
C 3744 2720 3891 2790 3898 2829 
L 3898 3731 
C 4006 3750 4102 3802 4141 3846 
L 3731 4154 
L 3558 3968 
L 2822 3968 
L 2515 4115 
L 2515 2605 
L 2560 2605 
C 2675 2605 2797 2675 2797 2701 
L 2797 2912 
L 3616 2912 
L 3616 2720 
L 3648 2720 
z
M 1498 3674 
L 2259 3674 
C 2349 3674 2400 3706 2419 3776 
C 2240 3949 1952 4173 1952 4173 
L 1702 3866 
L 1498 3866 
L 1498 5088 
C 1651 5114 1702 5171 1722 5267 
L 1210 5325 
L 1210 3866 
L 333 3866 
L 384 3674 
L 1107 3674 
C 960 2746 685 1843 243 1107 
L 339 1024 
C 736 1549 1011 2150 1210 2803 
L 1210 -461 
L 1274 -461 
C 1376 -461 1498 -390 1498 -333 
L 1498 2669 
C 1696 2419 1939 2074 2016 1818 
C 2349 1587 2586 2246 1498 2803 
L 1498 3674 
z
M 3046 512 
L 4038 512 
L 4038 6 
L 3046 6 
L 3046 512 
z
M 4038 1882 
L 4038 1395 
L 3046 1395 
L 3046 1882 
L 4038 1882 
z
M 4038 698 
L 3046 698 
L 3046 1203 
L 4038 1203 
L 4038 698 
z
M 5485 3776 
L 5485 3104 
L 4666 3104 
L 4666 3776 
L 5485 3776 
z
M 5357 6 
L 4320 6 
L 4320 512 
L 5613 512 
C 5702 512 5754 544 5773 614 
C 5600 781 5318 1005 5318 1005 
L 5082 698 
L 4320 698 
L 4320 1203 
L 5638 1203 
C 5722 1203 5779 1235 5792 1306 
C 5626 1478 5344 1696 5344 1696 
L 5101 1395 
L 4320 1395 
L 4320 1882 
L 5818 1882 
C 5901 1882 5965 1914 5984 1978 
C 5792 2157 5498 2387 5498 2387 
L 5235 2067 
L 4237 2067 
C 4333 2202 4442 2349 4518 2470 
C 4646 2464 4736 2509 4762 2592 
L 4403 2688 
L 4429 2688 
C 4538 2688 4666 2752 4666 2771 
L 4666 2912 
L 5485 2912 
L 5485 2662 
L 5523 2662 
C 5619 2662 5760 2739 5766 2771 
L 5766 3731 
C 5875 3750 5978 3802 6016 3846 
L 5606 4154 
L 5427 3968 
L 4691 3968 
L 4384 4115 
L 4384 2694 
L 4262 2726 
C 4205 2541 4109 2266 4045 2067 
L 3123 2067 
C 3206 2195 3290 2330 3360 2464 
C 3494 2438 3578 2490 3610 2554 
L 3155 2771 
C 2848 2054 2381 1421 1946 1050 
L 2035 960 
C 2285 1126 2541 1357 2778 1626 
L 2778 -474 
L 2810 -474 
C 2944 -474 3046 -403 3046 -378 
L 3046 -179 
L 5933 -179 
C 6022 -179 6080 -154 6099 -83 
C 5914 96 5619 326 5619 326 
L 5357 6 
z
" transform="scale(0.015625)"/>
       <path id="NotoSerifCJKjp-ExtraLight-6069" d="M 1229 1427 
C 1165 845 762 397 422 230 
C 320 154 256 45 307 -38 
C 378 -147 582 -90 742 19 
C 1011 198 1421 646 1350 1421 
L 1229 1427 
z
M 1709 2413 
C 2605 2662 2995 2995 3168 3418 
C 3610 3174 4134 2784 4326 2464 
C 4691 2310 4723 3066 3213 3533 
C 3238 3610 3258 3693 3270 3782 
L 4582 3782 
C 4672 3782 4730 3814 4742 3885 
C 4582 4038 4326 4250 4326 4250 
L 4096 3974 
L 3296 3974 
C 3309 4134 3315 4301 3322 4480 
C 3450 4493 3501 4563 3514 4634 
L 3021 4685 
C 3021 4429 3021 4192 2995 3974 
L 1728 3974 
L 1779 3782 
L 2970 3782 
C 2874 3232 2573 2822 1632 2522 
L 1709 2413 
z
M 5011 4806 
L 5011 2227 
L 1389 2227 
L 1389 4806 
L 5011 4806 
z
M 5011 2035 
L 5011 1702 
L 5050 1702 
C 5146 1702 5293 1792 5299 1830 
L 5299 4742 
C 5421 4768 5530 4819 5574 4870 
L 5139 5210 
L 4947 4992 
L 1421 4992 
L 1101 5158 
L 1101 1670 
L 1152 1670 
C 1280 1670 1389 1741 1389 1779 
L 1389 2035 
L 5011 2035 
z
M 2643 1741 
C 3027 1517 3501 1088 3616 723 
C 4000 512 4128 1389 2707 1811 
L 2643 1741 
z
M 4653 800 
L 4563 800 
C 4512 448 4454 128 4410 19 
C 4384 -38 4365 -58 4275 -64 
C 4173 -77 3866 -77 3450 -77 
L 2592 -77 
C 2278 -77 2246 -51 2246 51 
L 2246 1446 
C 2355 1466 2419 1517 2432 1594 
L 1958 1658 
L 1958 6 
C 1958 -256 2054 -333 2573 -333 
L 3462 -333 
C 4646 -333 4832 -288 4832 -134 
C 4832 -77 4794 -45 4672 -6 
L 4653 800 
z
M 4659 1446 
C 5107 1094 5670 467 5779 -26 
C 6195 -307 6400 710 4736 1510 
L 4659 1446 
z
" transform="scale(0.015625)"/>
       <path id="NotoSerifCJKjp-ExtraLight-69ae" d="M 4826 4173 
C 5050 4307 5325 4512 5568 4730 
C 5690 4685 5773 4730 5811 4781 
L 5414 5069 
C 5197 4755 4928 4454 4736 4269 
L 4826 4173 
z
M 2822 3187 
C 3667 3418 4096 3706 4320 4038 
C 4749 3827 5267 3488 5478 3219 
C 5862 3098 5888 3802 4397 4160 
C 4550 4461 4570 4794 4589 5139 
C 4717 5158 4774 5222 4781 5293 
L 4314 5338 
C 4301 4454 4275 3770 2752 3296 
L 2822 3187 
z
M 3648 5037 
C 3629 4704 3411 4384 3200 4269 
C 3104 4198 3046 4096 3098 4026 
C 3162 3930 3334 3974 3450 4058 
C 3629 4192 3853 4518 3770 5030 
L 3648 5037 
z
M 2272 4275 
C 2464 4378 2707 4538 2912 4717 
C 3034 4666 3130 4704 3168 4755 
L 2778 5050 
C 2579 4774 2355 4518 2182 4371 
L 2272 4275 
z
M 1158 5018 
C 1139 4691 941 4358 736 4237 
C 659 4160 608 4064 659 4000 
C 723 3917 890 3974 992 4058 
C 1146 4198 1344 4525 1286 5011 
L 1158 5018 
z
M 1830 5338 
C 1818 4429 1805 3738 448 3264 
L 531 3162 
C 1331 3405 1715 3718 1901 4083 
C 2195 3930 2522 3674 2650 3456 
C 2982 3309 3066 3974 1952 4192 
C 2067 4486 2086 4800 2099 5139 
C 2227 5158 2278 5222 2291 5293 
L 1830 5338 
z
M 5280 2765 
C 5190 2554 5056 2298 4954 2138 
L 5043 2086 
C 5267 2246 5555 2509 5715 2714 
C 5830 2720 5907 2726 5952 2771 
L 5517 3194 
L 5286 2950 
L 1184 2950 
C 1178 3034 1171 3117 1158 3206 
L 1043 3213 
C 1018 2790 755 2400 512 2259 
C 403 2182 339 2067 397 1971 
C 474 1869 672 1914 794 2016 
C 954 2138 1133 2394 1171 2765 
L 5280 2765 
z
M 5562 1530 
C 5651 1530 5709 1562 5722 1632 
C 5536 1798 5254 2003 5254 2003 
L 4998 1722 
L 3366 1722 
L 3360 1728 
L 3347 1722 
L 3334 1722 
L 3334 2394 
C 3475 2419 3533 2477 3546 2560 
L 3053 2618 
L 3053 1722 
L 736 1722 
L 794 1530 
L 2739 1530 
C 2176 826 1299 192 326 -243 
L 390 -358 
C 1472 51 2419 672 3053 1440 
L 3053 -467 
L 3110 -467 
C 3213 -467 3334 -397 3334 -346 
L 3334 1523 
C 3898 646 4864 -19 5843 -352 
C 5888 -224 5997 -154 6125 -141 
L 6131 -70 
C 5146 186 4102 787 3507 1530 
L 5562 1530 
z
" transform="scale(0.015625)"/>
      </defs>
      <use xlink:href="#NotoSerifCJKjp-ExtraLight-6b0a"/>
      <use xlink:href="#NotoSerifCJKjp-ExtraLight-6069" x="99.999985"/>
      <use xlink:href="#NotoSerifCJKjp-ExtraLight-69ae" x="199.999969"/>
     </g>
    </g>
    <g clip-path="url(#p7eeada846d)">
     <!--  -->
     <g transform="translate(1262.816694 555.96) scale(0.12 -0.12)"/>
    </g>
   </g>
   <g id="text_22">
    <g clip-path="url(#p7eeada846d)">
     <!-- 崔閏玉 -->
     <g transform="translate(1550.092905 541.32) scale(0.12 -0.12)">
      <defs>
       <path id="NotoSerifCJKjp-ExtraLight-5d14" d="M 1312 3981 
L 5126 3981 
L 5126 3738 
L 5184 3738 
C 5293 3738 5408 3808 5408 3853 
L 5408 4851 
C 5568 4870 5632 4928 5651 5024 
L 5126 5082 
L 5126 4166 
L 3347 4166 
L 3347 5101 
C 3501 5120 3571 5184 3584 5274 
L 3066 5331 
L 3066 4166 
L 1312 4166 
L 1312 4851 
C 1472 4870 1530 4928 1549 5024 
L 1030 5082 
L 1030 3674 
L 1088 3674 
C 1190 3674 1312 3750 1312 3795 
L 1312 3981 
z
M 1626 960 
L 3238 960 
L 3238 160 
L 1626 160 
L 1626 960 
z
M 3238 2861 
L 3238 2112 
L 1626 2112 
L 1626 2861 
L 3238 2861 
z
M 3238 1146 
L 1626 1146 
L 1626 1926 
L 3238 1926 
L 3238 1146 
z
M 5286 160 
L 3526 160 
L 3526 960 
L 5382 960 
C 5466 960 5530 992 5542 1062 
C 5370 1222 5107 1434 5107 1434 
L 4877 1146 
L 3526 1146 
L 3526 1926 
L 5376 1926 
C 5459 1926 5517 1952 5536 2022 
C 5363 2189 5101 2387 5101 2387 
L 4877 2112 
L 3526 2112 
L 3526 2861 
L 5600 2861 
C 5690 2861 5747 2893 5760 2963 
C 5587 3136 5299 3360 5299 3360 
L 5050 3053 
L 3341 3053 
C 3482 3245 3616 3462 3706 3635 
C 3840 3635 3917 3699 3942 3770 
L 3430 3898 
C 3366 3648 3264 3302 3168 3053 
L 1702 3053 
L 1670 3072 
C 1786 3258 1888 3456 1984 3654 
C 2125 3635 2202 3693 2234 3757 
L 1766 3962 
C 1402 3027 826 2150 288 1626 
L 384 1549 
C 717 1811 1050 2163 1344 2579 
L 1344 -467 
L 1389 -467 
C 1523 -467 1626 -384 1626 -352 
L 1626 -32 
L 5856 -32 
C 5946 -32 6003 0 6022 70 
C 5837 250 5542 480 5542 480 
L 5286 160 
z
" transform="scale(0.015625)"/>
       <path id="NotoSerifCJKjp-ExtraLight-958f" d="M 2438 4762 
L 2438 4166 
L 954 4166 
L 954 4762 
L 2438 4762 
z
M 954 3347 
L 954 3981 
L 2438 3981 
L 2438 3347 
L 954 3347 
z
M 2438 3162 
L 2438 2880 
L 2477 2880 
C 2573 2880 2720 2957 2726 2995 
L 2726 4717 
C 2829 4736 2931 4787 2970 4832 
L 2560 5146 
L 2381 4947 
L 986 4947 
L 672 5120 
L 672 -467 
L 723 -467 
C 864 -467 954 -390 954 -346 
L 954 3162 
L 2438 3162 
z
M 4218 397 
L 3309 397 
L 3309 1293 
L 4480 1293 
C 4570 1293 4627 1325 4646 1395 
C 4480 1549 4224 1760 4224 1760 
L 4006 1485 
L 3309 1485 
L 3309 2278 
L 4563 2278 
C 4646 2278 4704 2310 4723 2374 
C 4557 2541 4294 2752 4294 2752 
L 4064 2464 
L 1722 2464 
L 1773 2278 
L 3027 2278 
L 3027 1485 
L 1837 1485 
L 1888 1293 
L 3027 1293 
L 3027 397 
L 1574 397 
L 1626 211 
L 4736 211 
C 4819 211 4877 243 4890 307 
C 4723 474 4454 685 4454 685 
L 4218 397 
z
M 3885 3347 
L 3885 3981 
L 5440 3981 
L 5440 3347 
L 3885 3347 
z
M 5440 4762 
L 5440 4166 
L 3885 4166 
L 3885 4762 
L 5440 4762 
z
M 5549 5171 
L 5376 4947 
L 3917 4947 
L 3603 5107 
L 3603 2899 
L 3642 2899 
C 3763 2899 3885 2970 3885 3002 
L 3885 3162 
L 5440 3162 
L 5440 77 
C 5440 -26 5408 -64 5293 -64 
C 5165 -64 4557 -13 4557 -13 
L 4557 -122 
C 4819 -147 4973 -186 5062 -243 
C 5146 -294 5178 -384 5197 -474 
C 5677 -422 5722 -230 5722 38 
L 5722 4691 
C 5856 4717 5965 4774 6010 4819 
L 5549 5171 
z
" transform="scale(0.015625)"/>
       <path id="NotoSerifCJKjp-ExtraLight-7389" d="M 5293 13 
L 3283 13 
L 3283 2387 
L 5306 2387 
C 5395 2387 5453 2419 5472 2490 
C 5280 2675 4960 2918 4960 2918 
L 4691 2579 
L 3283 2579 
L 3283 4576 
L 5562 4576 
C 5651 4576 5715 4608 5728 4678 
C 5530 4870 5210 5114 5210 5114 
L 4922 4768 
L 691 4768 
L 749 4576 
L 3002 4576 
L 3002 2579 
L 992 2579 
L 1043 2387 
L 3002 2387 
L 3002 13 
L 320 13 
L 378 -173 
L 5926 -173 
C 6016 -173 6080 -147 6099 -77 
C 5894 115 5574 358 5574 358 
L 5293 13 
z
M 3891 1875 
C 4275 1581 4749 1069 4851 653 
C 5261 384 5466 1338 3962 1933 
L 3891 1875 
z
" transform="scale(0.015625)"/>
      </defs>
      <use xlink:href="#NotoSerifCJKjp-ExtraLight-5d14"/>
      <use xlink:href="#NotoSerifCJKjp-ExtraLight-958f" x="99.999985"/>
      <use xlink:href="#NotoSerifCJKjp-ExtraLight-7389" x="199.999969"/>
     </g>
    </g>
    <g clip-path="url(#p7eeada846d)">
     <!-- 主簿 -->
     <g transform="translate(1556.092905 555.96) scale(0.12 -0.12)">
      <defs>
       <path id="NotoSerifCJKjp-ExtraLight-4e3b" d="M 2234 5274 
C 2701 5037 3315 4563 3526 4186 
C 3942 4000 4000 4890 2298 5344 
L 2234 5274 
z
M 5325 -19 
L 3341 -19 
L 3341 1850 
L 5363 1850 
C 5453 1850 5517 1882 5530 1946 
C 5331 2131 5024 2374 5024 2374 
L 4749 2035 
L 3341 2035 
L 3341 3686 
L 5664 3686 
C 5747 3686 5805 3718 5824 3789 
C 5626 3981 5299 4224 5299 4224 
L 5024 3878 
L 730 3878 
L 787 3686 
L 3059 3686 
L 3059 2035 
L 992 2035 
L 1043 1850 
L 3059 1850 
L 3059 -19 
L 294 -19 
L 352 -205 
L 5965 -205 
C 6054 -205 6112 -173 6131 -109 
C 5926 83 5606 326 5606 326 
L 5325 -19 
z
" transform="scale(0.015625)"/>
       <path id="NotoSerifCJKjp-ExtraLight-7c3f" d="M 2829 3853 
C 3091 4026 3360 4275 3597 4570 
L 4109 4570 
C 4282 4397 4467 4147 4525 3949 
C 4806 3763 5011 4237 4403 4570 
L 5952 4570 
C 6042 4570 6099 4602 6118 4672 
C 5939 4851 5651 5082 5651 5082 
L 5395 4762 
L 3744 4762 
C 3808 4851 3866 4941 3923 5037 
C 4051 5011 4128 5062 4160 5126 
L 3725 5338 
C 3469 4768 3091 4243 2739 3942 
L 2829 3853 
z
M 4794 4314 
C 4992 4211 5222 4019 5306 3853 
C 5613 3699 5754 4301 4858 4378 
L 4794 4314 
z
M 1523 4570 
C 1677 4397 1850 4154 1901 3962 
C 2150 3776 2362 4224 1773 4570 
L 3155 4570 
C 3232 4570 3296 4602 3309 4672 
C 3155 4832 2893 5030 2893 5030 
L 2675 4762 
L 1408 4762 
C 1472 4851 1530 4947 1581 5043 
C 1709 5018 1792 5069 1824 5133 
L 1389 5338 
C 1107 4691 678 4109 282 3770 
L 371 3686 
C 685 3898 998 4205 1274 4570 
L 1523 4570 
z
M 845 3757 
C 1094 3603 1408 3296 1510 3066 
C 1830 2886 1984 3533 915 3821 
L 845 3757 
z
M 256 2816 
C 531 2662 870 2362 986 2131 
C 1312 1958 1446 2643 320 2880 
L 256 2816 
z
M 2029 3155 
C 1024 1178 1024 1178 922 998 
C 864 883 845 883 781 883 
L 499 883 
L 499 730 
C 621 723 698 710 781 666 
C 909 595 947 294 883 -230 
C 890 -378 934 -474 1024 -474 
C 1178 -474 1254 -346 1267 -147 
C 1280 218 1158 448 1158 653 
C 1158 781 1210 954 1267 1120 
C 1357 1350 1914 2547 2150 3117 
L 2029 3155 
z
M 2746 672 
C 2995 512 3296 205 3386 -45 
C 3718 -237 3904 454 2810 730 
L 2746 672 
z
M 2726 2150 
L 3795 2150 
L 3795 1645 
L 2726 1645 
L 2726 2150 
z
M 3795 2829 
L 3795 2342 
L 2726 2342 
L 2726 2829 
L 3795 2829 
z
M 5190 2829 
L 5190 2342 
L 4070 2342 
L 4070 2829 
L 5190 2829 
z
M 4070 1645 
L 4070 2150 
L 5190 2150 
L 5190 1645 
L 4070 1645 
z
M 5504 1005 
L 4883 1005 
L 4883 1459 
L 5190 1459 
L 5190 1293 
L 5229 1293 
C 5318 1293 5466 1370 5472 1414 
L 5472 2784 
C 5581 2803 5683 2854 5722 2899 
L 5306 3213 
L 5133 3021 
L 4070 3021 
L 4070 3443 
L 5894 3443 
C 5978 3443 6042 3475 6054 3546 
C 5875 3699 5613 3891 5613 3891 
L 5382 3629 
L 4070 3629 
L 4070 3891 
C 4211 3917 4269 3974 4282 4051 
L 3795 4109 
L 3795 3629 
L 2003 3629 
L 2054 3443 
L 3795 3443 
L 3795 3021 
L 2758 3021 
L 2438 3181 
L 2438 1254 
L 2483 1254 
C 2605 1254 2726 1318 2726 1350 
L 2726 1459 
L 4602 1459 
L 4602 1005 
L 1837 1005 
L 1888 813 
L 4602 813 
L 4602 6 
C 4602 -77 4570 -109 4461 -109 
C 4326 -109 3712 -70 3712 -70 
L 3712 -173 
C 3981 -192 4147 -224 4230 -275 
C 4307 -314 4346 -390 4358 -461 
C 4819 -416 4883 -250 4883 0 
L 4883 813 
L 6048 813 
C 6138 813 6189 845 6208 915 
C 6035 1088 5747 1299 5747 1299 
L 5504 1005 
z
" transform="scale(0.015625)"/>
      </defs>
      <use xlink:href="#NotoSerifCJKjp-ExtraLight-4e3b"/>
      <use xlink:href="#NotoSerifCJKjp-ExtraLight-7c3f" x="99.999985"/>
     </g>
    </g>
   </g>
   <g id="text_23">
    <g clip-path="url(#p7eeada846d)">
     <!-- 趙叔廷 -->
     <g transform="translate(1849.609187 541.32) scale(0.12 -0.12)">
      <defs>
       <path id="NotoSerifCJKjp-ExtraLight-8d99" d="M 5101 4934 
C 5376 4678 5728 4230 5805 3891 
C 6131 3654 6349 4403 5178 4986 
L 5101 4934 
z
M 5440 3462 
L 5440 2771 
L 3693 2771 
L 3693 3462 
L 5440 3462 
z
M 3693 1824 
L 3693 2579 
L 5440 2579 
L 5440 1824 
L 3693 1824 
z
M 3725 3648 
L 3411 3814 
L 3411 352 
L 3462 352 
C 3590 352 3693 422 3693 461 
L 3693 1632 
L 5440 1632 
L 5440 877 
C 5440 781 5408 749 5299 749 
C 5184 749 4614 800 4614 800 
L 4614 691 
C 4858 666 5005 627 5088 570 
C 5165 518 5197 429 5216 346 
C 5677 397 5722 576 5722 838 
L 5722 3418 
C 5837 3437 5933 3488 5971 3533 
L 5542 3846 
L 5382 3648 
L 4717 3648 
L 4717 5088 
C 4870 5107 4934 5171 4947 5261 
L 4435 5318 
L 4435 3648 
L 3725 3648 
z
M 3123 3648 
C 3418 3910 3718 4314 3942 4717 
C 4064 4698 4141 4749 4173 4813 
L 3712 5018 
C 3533 4518 3264 4032 3021 3725 
L 3123 3648 
z
M 294 3194 
L 346 3008 
L 3053 3008 
C 3142 3008 3200 3040 3213 3110 
C 3034 3283 2746 3514 2746 3514 
L 2490 3194 
L 1882 3194 
L 1882 4198 
L 2938 4198 
C 3021 4198 3085 4230 3098 4301 
C 2918 4467 2630 4698 2630 4698 
L 2381 4390 
L 1882 4390 
L 1882 5094 
C 2029 5120 2099 5184 2112 5274 
L 1594 5331 
L 1594 4390 
L 512 4390 
L 563 4198 
L 1594 4198 
L 1594 3194 
L 294 3194 
z
M 1978 1619 
L 2989 1619 
C 3078 1619 3136 1651 3155 1722 
C 2976 1894 2694 2118 2694 2118 
L 2445 1811 
L 1978 1811 
L 1978 2726 
C 2131 2752 2189 2810 2208 2899 
L 1696 2963 
L 1696 378 
C 1408 595 1190 928 1011 1434 
C 1056 1722 1075 2003 1088 2272 
C 1222 2285 1299 2342 1312 2438 
L 781 2502 
C 806 1491 672 294 186 -410 
L 256 -486 
C 646 -51 864 570 973 1197 
C 1459 -70 2157 -301 3507 -301 
L 5971 -301 
C 5984 -173 6061 -96 6195 -77 
L 6195 13 
C 5568 -6 4141 -6 3526 -6 
C 2874 -6 2374 32 1978 211 
L 1978 1619 
z
" transform="scale(0.015625)"/>
       <path id="NotoSerifCJKjp-ExtraLight-53d4" d="M 326 2893 
L 3514 2893 
C 3603 2893 3654 2925 3674 2995 
C 3494 3174 3200 3398 3200 3398 
L 2944 3085 
L 2016 3085 
L 2016 4090 
L 3117 4090 
C 3200 4090 3258 4122 3277 4192 
C 3104 4365 2816 4582 2816 4582 
L 2579 4282 
L 2016 4282 
L 2016 5094 
C 2170 5120 2240 5184 2253 5274 
L 1734 5331 
L 1734 3085 
L 275 3085 
L 326 2893 
z
M 902 2253 
C 762 1600 512 960 250 538 
L 346 474 
C 691 832 998 1395 1197 1965 
C 1331 1965 1402 2022 1427 2099 
L 902 2253 
z
M 1734 70 
C 1734 -26 1702 -64 1594 -64 
C 1485 -64 915 -19 915 -19 
L 915 -122 
C 1152 -154 1306 -186 1389 -237 
C 1466 -294 1498 -378 1510 -467 
C 1965 -416 2016 -237 2016 38 
L 2016 2637 
C 2163 2662 2227 2714 2246 2797 
L 1734 2861 
L 1734 70 
z
M 2490 2150 
C 2752 1811 3053 1242 3085 819 
C 3418 518 3712 1363 2579 2195 
L 2490 2150 
z
M 5472 4486 
C 5318 3475 5043 2502 4576 1651 
C 4186 2458 3942 3418 3834 4486 
L 5472 4486 
z
M 5651 4896 
L 5440 4678 
L 3290 4678 
L 3347 4486 
L 3667 4486 
C 3782 3302 4026 2253 4416 1389 
C 3987 698 3418 96 2669 -365 
L 2752 -461 
C 3533 -38 4115 493 4557 1107 
C 4896 448 5331 -90 5869 -486 
C 5914 -365 6035 -301 6157 -301 
L 6170 -243 
C 5574 154 5094 698 4723 1357 
C 5312 2278 5606 3347 5792 4448 
C 5926 4454 5990 4467 6042 4525 
L 5651 4896 
z
" transform="scale(0.015625)"/>
       <path id="NotoSerifCJKjp-ExtraLight-5ef7" d="M 2400 3078 
L 2451 2886 
L 4000 2886 
L 4000 1043 
L 2509 1043 
L 2560 851 
L 5779 851 
C 5869 851 5926 883 5946 954 
C 5741 1139 5427 1389 5427 1389 
L 5146 1043 
L 4282 1043 
L 4282 2886 
L 5958 2886 
C 6048 2886 6112 2918 6131 2989 
C 5926 3174 5613 3418 5613 3418 
L 5331 3078 
L 4282 3078 
L 4282 4666 
C 4723 4755 5120 4851 5446 4941 
C 5581 4890 5690 4890 5734 4941 
L 5344 5286 
C 4723 5011 3520 4691 2515 4544 
L 2547 4429 
C 3027 4461 3526 4531 4000 4614 
L 4000 3078 
L 2400 3078 
z
M 2003 3174 
L 1805 2970 
L 979 2970 
C 1312 3552 1651 4179 1850 4570 
C 1990 4582 2112 4608 2163 4653 
L 1766 5018 
L 1568 4819 
L 371 4819 
L 429 4627 
L 1542 4627 
C 1248 4019 774 3130 378 2445 
C 493 2394 570 2381 646 2394 
C 717 2515 794 2643 870 2778 
L 1843 2778 
C 1766 2138 1626 1530 1370 986 
C 1146 1261 960 1613 806 2061 
L 698 2003 
C 864 1517 1056 1126 1286 819 
C 1043 365 710 -32 243 -358 
L 307 -461 
C 813 -166 1178 205 1440 621 
C 2112 -128 3059 -301 4512 -301 
L 5882 -301 
C 5901 -179 5978 -102 6118 -83 
L 6118 13 
C 5709 6 4909 6 4550 6 
C 3149 6 2202 134 1542 787 
C 1875 1382 2042 2061 2144 2752 
C 2278 2765 2342 2778 2381 2829 
L 2003 3174 
z
" transform="scale(0.015625)"/>
      </defs>
      <use xlink:href="#NotoSerifCJKjp-ExtraLight-8d99"/>
      <use xlink:href="#NotoSerifCJKjp-ExtraLight-53d4" x="99.999985"/>
      <use xlink:href="#NotoSerifCJKjp-ExtraLight-5ef7" x="199.999969"/>
     </g>
    </g>
    <g clip-path="url(#p7eeada846d)">
     <!-- 進士 -->
     <g transform="translate(1855.609187 555.96) scale(0.12 -0.12)">
      <defs>
       <path id="NotoSerifCJKjp-ExtraLight-9032" d="M 3955 3194 
L 2733 3194 
L 2733 4058 
L 3955 4058 
L 3955 3194 
z
M 3955 2125 
L 2733 2125 
L 2733 3008 
L 3955 3008 
L 3955 2125 
z
M 3955 1030 
L 2733 1030 
L 2733 1933 
L 3955 1933 
L 3955 1030 
z
M 2445 384 
L 2490 384 
C 2630 384 2733 474 2733 499 
L 2733 838 
L 5894 838 
C 5984 838 6048 870 6061 941 
C 5869 1114 5574 1357 5574 1357 
L 5306 1030 
L 4237 1030 
L 4237 1933 
L 5645 1933 
C 5722 1933 5786 1965 5798 2035 
C 5626 2208 5344 2426 5344 2426 
L 5101 2125 
L 4237 2125 
L 4237 3008 
L 5645 3008 
C 5722 3008 5786 3040 5798 3110 
C 5626 3277 5344 3501 5344 3501 
L 5101 3194 
L 4237 3194 
L 4237 4058 
L 5792 4058 
C 5882 4058 5939 4090 5958 4160 
C 5773 4339 5478 4570 5478 4570 
L 5222 4250 
L 4128 4250 
C 4301 4499 4474 4800 4576 5037 
C 4717 5037 4787 5101 4806 5178 
L 4256 5293 
C 4192 4973 4077 4557 3968 4250 
L 2822 4250 
C 2976 4499 3110 4768 3232 5043 
C 3373 5030 3450 5082 3482 5152 
L 2976 5344 
C 2662 4429 2144 3546 1658 3002 
L 1754 2931 
C 1990 3136 2227 3392 2445 3680 
L 2445 384 
z
M 390 5088 
C 736 4813 1152 4314 1242 3923 
C 1626 3648 1862 4557 467 5146 
L 390 5088 
z
M 1478 2387 
C 1645 2413 1741 2464 1779 2502 
L 1318 2899 
L 1114 2630 
L 294 2630 
L 333 2438 
L 1197 2438 
L 1197 544 
C 864 314 486 70 256 -51 
L 525 -448 
C 576 -416 602 -378 582 -301 
C 800 -115 1158 237 1389 486 
C 1856 -173 2387 -307 3552 -307 
L 5894 -307 
C 5914 -166 6003 -90 6150 -70 
L 6150 26 
C 5370 0 4326 0 3546 0 
C 2451 0 1939 83 1478 621 
L 1478 2387 
z
" transform="scale(0.015625)"/>
       <path id="NotoSerifCJKjp-ExtraLight-58eb" d="M 5325 3123 
L 3341 3123 
L 3341 4998 
C 3494 5024 3552 5088 3571 5178 
L 3059 5242 
L 3059 3123 
L 294 3123 
L 352 2931 
L 3059 2931 
L 3059 32 
L 666 32 
L 717 -160 
L 5574 -160 
C 5670 -160 5722 -128 5741 -58 
C 5549 128 5229 371 5229 371 
L 4954 32 
L 3341 32 
L 3341 2931 
L 5946 2931 
C 6042 2931 6099 2963 6118 3034 
C 5920 3213 5600 3462 5600 3462 
L 5325 3123 
z
" transform="scale(0.015625)"/>
      </defs>
      <use xlink:href="#NotoSerifCJKjp-ExtraLight-9032"/>
      <use xlink:href="#NotoSerifCJKjp-ExtraLight-58eb" x="99.999985"/>
     </g>
    </g>
   </g>
   <g id="text_24">
    <g clip-path="url(#p7eeada846d)">
     <!-- 朴翱 -->
     <g transform="translate(2158.005433 181.32) scale(0.12 -0.12)">
      <defs>
       <path id="NotoSerifCJKjp-ExtraLight-7ff1" d="M 960 3731 
L 2586 3731 
L 2586 3104 
L 960 3104 
L 960 3731 
z
M 2586 4544 
L 2586 3923 
L 960 3923 
L 960 4544 
L 2586 4544 
z
M 3130 2112 
C 3219 2112 3277 2144 3296 2214 
C 3117 2387 2835 2611 2835 2611 
L 2586 2304 
L 1862 2304 
L 1850 2310 
L 1843 2304 
L 1728 2304 
C 1798 2451 1862 2611 1914 2752 
C 2048 2752 2125 2797 2157 2880 
L 2048 2912 
L 2586 2912 
L 2586 2720 
L 2624 2720 
C 2720 2720 2861 2790 2867 2829 
L 2867 4480 
C 2995 4506 3098 4557 3142 4608 
L 2714 4947 
L 2522 4736 
L 1632 4736 
C 1722 4864 1830 5005 1907 5120 
C 2035 5120 2125 5165 2144 5248 
L 1632 5376 
C 1574 5197 1478 4928 1408 4736 
L 992 4736 
L 685 4896 
L 685 2714 
L 730 2714 
C 845 2714 960 2778 960 2810 
L 960 2912 
L 1638 2912 
C 1581 2714 1510 2502 1421 2304 
L 390 2304 
L 442 2112 
L 1338 2112 
C 1075 1568 704 1043 198 691 
L 275 614 
C 416 698 538 787 659 883 
L 710 698 
L 1549 698 
L 1549 -461 
L 1606 -461 
C 1709 -461 1830 -390 1830 -346 
L 1830 698 
L 2707 698 
C 2790 698 2848 730 2867 800 
C 2707 960 2458 1146 2458 1146 
L 2234 890 
L 1830 890 
L 1830 1402 
C 1990 1427 2054 1485 2067 1574 
L 1549 1638 
L 1549 890 
L 666 890 
C 1101 1235 1408 1670 1638 2112 
L 1914 2112 
C 2227 1792 2592 1331 2701 1005 
C 3021 781 3206 1408 2176 2112 
L 3130 2112 
z
M 5690 5088 
L 5530 4877 
L 4518 4877 
L 4518 4870 
L 4237 5088 
L 4077 4877 
L 3174 4877 
L 3232 4685 
L 4134 4685 
L 4134 4269 
L 3827 4410 
C 3674 4026 3347 3411 3034 3002 
L 3117 2918 
C 3494 3283 3853 3795 4038 4134 
C 4077 4128 4109 4122 4134 4122 
L 4134 2778 
L 3834 2906 
C 3680 2451 3360 1786 2995 1344 
L 3078 1267 
C 3501 1664 3866 2246 4058 2637 
C 4090 2630 4115 2630 4134 2630 
L 4134 45 
C 4134 -51 4109 -83 4013 -83 
C 3910 -83 3450 -38 3450 -38 
L 3450 -147 
C 3654 -173 3782 -211 3853 -256 
C 3923 -301 3942 -384 3955 -467 
C 4371 -416 4416 -262 4416 6 
L 4416 4640 
C 4474 4653 4531 4666 4576 4685 
L 5587 4685 
L 5587 4224 
L 5197 4403 
C 5056 4019 4755 3405 4467 2995 
L 4557 2912 
C 4902 3277 5235 3795 5414 4128 
C 5498 4115 5549 4115 5587 4134 
L 5587 2854 
L 5274 2982 
C 5133 2490 4832 1747 4486 1248 
L 4576 1165 
C 4986 1626 5325 2285 5504 2714 
C 5536 2707 5562 2707 5587 2707 
L 5587 45 
C 5587 -51 5562 -83 5466 -83 
C 5363 -83 4902 -38 4902 -38 
L 4902 -147 
C 5107 -173 5235 -211 5306 -256 
C 5376 -301 5395 -384 5408 -467 
C 5824 -416 5869 -262 5869 6 
L 5869 4640 
C 5984 4659 6080 4704 6118 4755 
L 5690 5088 
z
" transform="scale(0.015625)"/>
      </defs>
      <use xlink:href="#NotoSerifCJKjp-ExtraLight-6734"/>
      <use xlink:href="#NotoSerifCJKjp-ExtraLight-7ff1" x="99.999985"/>
     </g>
    </g>
    <g clip-path="url(#p7eeada846d)">
     <!-- 參議 -->
     <g transform="translate(2158.005433 195.96) scale(0.12 -0.12)">
      <defs>
       <path id="NotoSerifCJKjp-ExtraLight-53c3" d="M 3552 4973 
C 3859 4864 4237 4678 4563 4467 
C 3699 4448 2867 4429 2182 4416 
C 2400 4627 2611 4877 2752 5088 
C 2880 5082 2963 5139 2995 5210 
L 2458 5363 
C 2349 5069 2157 4698 1971 4410 
C 1466 4403 1050 4403 762 4403 
L 1011 3955 
C 1069 3968 1126 4006 1165 4077 
C 2752 4173 3917 4256 4762 4326 
C 4947 4192 5101 4058 5197 3923 
C 5645 3782 5542 4710 3603 5062 
L 3552 4973 
z
M 960 -474 
C 2579 -288 3891 38 5075 1062 
C 5229 1018 5299 1030 5338 1088 
L 4915 1370 
C 3789 269 2477 -96 928 -339 
L 960 -474 
z
M 1024 992 
C 1920 1299 2790 1760 3437 2342 
C 3571 2310 3622 2323 3667 2374 
L 3258 2624 
C 2643 1971 1786 1466 954 1107 
L 1024 992 
z
M 1248 333 
C 2368 621 3411 1056 4230 1741 
C 4371 1702 4435 1715 4474 1773 
L 4070 2029 
C 3277 1267 2253 794 1190 461 
L 1248 333 
z
M 4986 3546 
C 5094 3456 5216 3334 5318 3206 
C 4966 3181 4621 3155 4339 3142 
C 4512 3360 4678 3610 4787 3814 
C 4922 3814 4998 3872 5024 3949 
L 4544 4064 
C 4454 3782 4294 3405 4141 3130 
C 4013 3123 3904 3117 3821 3117 
L 3923 2944 
C 3712 3098 3520 3264 3354 3437 
C 3520 3456 3584 3482 3597 3552 
L 3040 3686 
C 2899 3456 2701 3226 2464 2995 
C 2432 3149 2266 3360 1830 3514 
L 1754 3462 
C 1856 3373 1965 3258 2061 3136 
C 1747 3104 1446 3085 1178 3066 
C 1357 3296 1530 3558 1632 3776 
C 1766 3770 1850 3827 1875 3904 
L 1408 4026 
C 1312 3725 1146 3341 979 3046 
C 781 3034 614 3027 493 3021 
L 685 2650 
C 742 2669 794 2701 826 2778 
C 1395 2867 1830 2950 2138 3014 
C 2176 2950 2208 2886 2227 2829 
C 2240 2822 2253 2816 2259 2810 
C 1702 2323 973 1862 243 1555 
L 275 1453 
C 1510 1888 2637 2662 3238 3373 
C 3770 2618 4742 1984 5850 1555 
C 5888 1677 6003 1766 6150 1798 
L 6163 1894 
C 5414 2099 4704 2419 4134 2797 
C 4147 2816 4166 2835 4179 2867 
C 4710 2950 5114 3027 5414 3078 
C 5510 2944 5587 2803 5619 2675 
C 5933 2451 6144 3149 5062 3603 
L 4986 3546 
z
" transform="scale(0.015625)"/>
      </defs>
      <use xlink:href="#NotoSerifCJKjp-ExtraLight-53c3"/>
      <use xlink:href="#NotoSerifCJKjp-ExtraLight-8b70" x="99.999985"/>
     </g>
    </g>
   </g>
   <g id="text_25">
    <g clip-path="url(#p7eeada846d)">
     <!-- 朴元貞 -->
     <g transform="translate(2152.005433 541.32) scale(0.12 -0.12)">
      <defs>
       <path id="NotoSerifCJKjp-ExtraLight-8c9e" d="M 4806 3610 
L 4806 2867 
L 1651 2867 
L 1651 3610 
L 4806 3610 
z
M 1651 1933 
L 1651 2682 
L 4806 2682 
L 4806 1933 
L 1651 1933 
z
M 1651 979 
L 1651 1741 
L 4806 1741 
L 4806 979 
L 1651 979 
z
M 1651 787 
L 4806 787 
L 4806 512 
L 4845 512 
C 4941 512 5082 602 5088 640 
L 5088 3571 
C 5203 3590 5299 3635 5331 3680 
L 4928 4006 
L 4749 3802 
L 3219 3802 
L 3219 4403 
L 5734 4403 
C 5824 4403 5882 4435 5901 4499 
C 5709 4685 5395 4922 5395 4922 
L 5126 4589 
L 3219 4589 
L 3219 5101 
C 3373 5120 3443 5184 3456 5274 
L 2938 5331 
L 2938 3802 
L 1683 3802 
L 1370 3968 
L 1370 429 
L 1421 429 
C 1542 429 1651 499 1651 531 
L 1651 787 
z
M 365 -480 
C 1210 -352 2118 -58 2662 205 
C 2803 160 2899 166 2950 218 
L 2502 550 
C 2048 237 1126 -173 326 -365 
L 365 -480 
z
M 3629 352 
C 4506 141 5171 -141 5562 -410 
C 5990 -678 6515 134 3661 467 
L 3629 352 
z
" transform="scale(0.015625)"/>
      </defs>
      <use xlink:href="#NotoSerifCJKjp-ExtraLight-6734"/>
      <use xlink:href="#NotoSerifCJKjp-ExtraLight-5143" x="99.999985"/>
      <use xlink:href="#NotoSerifCJKjp-ExtraLight-8c9e" x="199.999969"/>
     </g>
    </g>
    <g clip-path="url(#p7eeada846d)">
     <!--  -->
     <g transform="translate(2170.005433 555.96) scale(0.12 -0.12)"/>
    </g>
   </g>
   <g id="text_26">
    <g clip-path="url(#p7eeada846d)">
     <!-- 朴安福 -->
     <g transform="translate(1846.729223 901.32) scale(0.12 -0.12)">
      <defs>
       <path id="NotoSerifCJKjp-ExtraLight-798f" d="M 2093 4333 
L 1869 4115 
L 1536 4115 
L 1536 5082 
C 1690 5101 1760 5165 1773 5254 
L 1254 5312 
L 1254 4115 
L 314 4115 
L 371 3930 
L 1862 3930 
C 1517 3162 800 2208 141 1632 
L 230 1555 
C 576 1811 928 2138 1248 2496 
L 1248 -467 
L 1293 -467 
C 1427 -467 1530 -390 1530 -352 
L 1530 2688 
C 1760 2483 2003 2195 2086 1958 
C 2419 1766 2618 2438 1530 2835 
C 1811 3187 2042 3558 2202 3898 
C 2349 3904 2426 3910 2483 3955 
L 2093 4333 
z
M 4326 115 
L 4326 1037 
L 5542 1037 
L 5542 115 
L 4326 115 
z
M 2867 1037 
L 4038 1037 
L 4038 115 
L 2867 115 
L 2867 1037 
z
M 4038 2048 
L 4038 1222 
L 2867 1222 
L 2867 2048 
L 4038 2048 
z
M 5542 2048 
L 5542 1222 
L 4326 1222 
L 4326 2048 
L 5542 2048 
z
M 5523 2240 
L 2944 2240 
L 2592 2400 
L 2592 -480 
L 2630 -480 
C 2778 -480 2867 -397 2867 -371 
L 2867 -77 
L 5542 -77 
L 5542 -448 
L 5581 -448 
C 5702 -448 5824 -365 5824 -339 
L 5824 2029 
C 5952 2048 6022 2080 6061 2131 
L 5677 2426 
L 5523 2240 
z
M 3194 3072 
L 3194 3974 
L 5190 3974 
L 5190 3072 
L 3194 3072 
z
M 5235 2656 
C 5344 2656 5472 2739 5472 2765 
L 5472 3962 
C 5594 3981 5658 4013 5696 4051 
L 5318 4346 
L 5178 4160 
L 3264 4160 
L 2912 4326 
L 2912 2611 
L 2950 2611 
C 3098 2611 3194 2688 3194 2720 
L 3194 2880 
L 5190 2880 
L 5190 2656 
L 5235 2656 
z
M 5350 4928 
L 2477 4928 
L 2528 4742 
L 5933 4742 
C 6022 4742 6086 4774 6099 4845 
C 5914 5018 5613 5254 5613 5254 
L 5350 4928 
z
" transform="scale(0.015625)"/>
      </defs>
      <use xlink:href="#NotoSerifCJKjp-ExtraLight-6734"/>
      <use xlink:href="#NotoSerifCJKjp-ExtraLight-5b89" x="99.999985"/>
      <use xlink:href="#NotoSerifCJKjp-ExtraLight-798f" x="199.999969"/>
     </g>
    </g>
    <g clip-path="url(#p7eeada846d)">
     <!--   -->
     <g transform="translate(1863.174848 915.96) scale(0.12 -0.12)">
      <use xlink:href="#NotoSerifCJKjp-ExtraLight-20"/>
     </g>
    </g>
   </g>
   <g id="text_27">
    <g clip-path="url(#p7eeada846d)">
     <!-- 李從孫 -->
     <g transform="translate(2152.005433 901.32) scale(0.12 -0.12)">
      <defs>
       <path id="NotoSerifCJKjp-ExtraLight-674e" d="M 5312 1280 
L 3341 1280 
L 3341 1574 
C 3462 1594 3520 1626 3552 1690 
C 3955 1830 4518 2054 4813 2259 
C 4941 2266 5030 2272 5082 2310 
L 4710 2669 
L 4499 2464 
L 1427 2464 
L 1485 2278 
L 4333 2278 
C 4064 2093 3686 1888 3424 1754 
L 3059 1798 
L 3059 1280 
L 314 1280 
L 371 1088 
L 3059 1088 
L 3059 64 
C 3059 -32 3027 -70 2899 -70 
C 2771 -70 2074 -19 2074 -19 
L 2074 -122 
C 2362 -154 2541 -192 2637 -243 
C 2726 -301 2765 -384 2778 -474 
C 3283 -416 3341 -237 3341 38 
L 3341 1088 
L 5926 1088 
C 6016 1088 6074 1120 6093 1190 
C 5894 1376 5587 1613 5587 1613 
L 5312 1280 
z
M 5850 4186 
C 5939 4186 5997 4218 6016 4288 
C 5818 4467 5504 4717 5504 4717 
L 5229 4378 
L 3322 4378 
L 3322 5107 
C 3482 5133 3546 5190 3558 5280 
L 3040 5338 
L 3040 4378 
L 403 4378 
L 461 4186 
L 2656 4186 
C 2061 3494 1152 2816 218 2355 
L 282 2253 
C 1363 2694 2368 3366 3040 4147 
L 3040 2662 
L 3098 2662 
C 3200 2662 3322 2733 3322 2778 
L 3322 4186 
L 3386 4186 
C 3942 3424 5011 2707 5901 2323 
C 5952 2451 6054 2534 6182 2541 
L 6195 2611 
C 5312 2906 4179 3533 3578 4186 
L 5850 4186 
z
" transform="scale(0.015625)"/>
       <path id="NotoSerifCJKjp-ExtraLight-5f9e" d="M 3821 2995 
C 4250 3341 4602 3802 4864 4262 
C 5248 3968 5702 3533 5850 3194 
C 6214 2989 6349 3763 4928 4378 
C 5056 4614 5158 4845 5242 5056 
C 5389 5043 5446 5082 5478 5152 
L 4954 5325 
C 4774 4614 4339 3667 3744 3085 
L 3821 2995 
z
M 1971 2790 
C 2445 3194 2810 3750 3072 4282 
C 3328 4070 3603 3763 3686 3520 
C 4006 3328 4166 3974 3130 4403 
C 3238 4634 3328 4858 3392 5062 
C 3558 5050 3610 5088 3635 5158 
L 3117 5325 
C 2931 4557 2502 3533 1894 2874 
L 1971 2790 
z
M 1651 5325 
C 1376 4858 813 4166 301 3712 
L 384 3629 
C 966 4032 1555 4614 1882 5024 
C 2022 4986 2074 5011 2118 5075 
L 1651 5325 
z
M 1754 4083 
C 1459 3450 838 2547 237 1946 
L 307 1869 
C 602 2099 896 2381 1152 2669 
L 1152 -467 
L 1210 -467 
C 1312 -467 1434 -384 1440 -358 
L 1440 2829 
C 1536 2848 1600 2886 1626 2944 
L 1446 3014 
C 1664 3290 1856 3558 1990 3789 
C 2144 3757 2202 3782 2240 3853 
L 1754 4083 
z
M 4224 1683 
L 5862 1683 
C 5952 1683 6010 1715 6029 1786 
C 5837 1958 5542 2195 5542 2195 
L 5280 1875 
L 4224 1875 
L 4224 2816 
C 4365 2835 4416 2893 4429 2982 
L 3942 3040 
L 3942 109 
C 3450 320 3104 730 2861 1478 
C 2931 1786 2976 2093 3008 2387 
C 3142 2400 3213 2451 3232 2547 
L 2694 2637 
C 2656 1536 2394 320 1632 -384 
L 1702 -461 
C 2285 -26 2611 608 2803 1267 
C 3245 -51 3942 -390 5171 -390 
L 6042 -390 
C 6054 -269 6118 -186 6234 -173 
L 6234 -83 
C 5958 -90 5446 -90 5210 -90 
C 4832 -90 4506 -64 4224 13 
L 4224 1683 
z
" transform="scale(0.015625)"/>
      </defs>
      <use xlink:href="#NotoSerifCJKjp-ExtraLight-674e"/>
      <use xlink:href="#NotoSerifCJKjp-ExtraLight-5f9e" x="99.999985"/>
      <use xlink:href="#NotoSerifCJKjp-ExtraLight-5b6b" x="199.999969"/>
     </g>
    </g>
    <g clip-path="url(#p7eeada846d)">
     <!-- 司勇 -->
     <g transform="translate(2158.005433 915.96) scale(0.12 -0.12)">
      <defs>
       <path id="NotoSerifCJKjp-ExtraLight-53f8" d="M 3936 3891 
L 442 3891 
L 493 3699 
L 4512 3699 
C 4602 3699 4666 3731 4685 3802 
C 4493 3981 4198 4205 4198 4205 
L 3936 3891 
z
M 1402 1139 
L 1402 2650 
L 3475 2650 
L 3475 1139 
L 1402 1139 
z
M 3603 3046 
L 3411 2835 
L 1434 2835 
L 1120 2995 
L 1120 205 
L 1171 205 
C 1293 205 1402 269 1402 301 
L 1402 954 
L 3475 954 
L 3475 422 
L 3514 422 
C 3610 422 3750 506 3757 544 
L 3757 2586 
C 3885 2611 3994 2662 4038 2714 
L 3603 3046 
z
M 5363 5210 
L 5203 4986 
L 595 4986 
L 653 4800 
L 5267 4800 
L 5267 115 
C 5267 -6 5222 -58 5062 -58 
C 4890 -58 4019 13 4019 13 
L 4019 -90 
C 4378 -134 4595 -179 4723 -237 
C 4826 -288 4870 -365 4890 -461 
C 5491 -397 5549 -192 5549 77 
L 5549 4736 
C 5677 4755 5786 4813 5830 4864 
L 5363 5210 
z
" transform="scale(0.015625)"/>
       <path id="NotoSerifCJKjp-ExtraLight-52c7" d="M 4973 3686 
L 4973 3046 
L 3341 3046 
L 3341 3686 
L 4973 3686 
z
M 3341 2189 
L 3341 2854 
L 4973 2854 
L 4973 2189 
L 3341 2189 
z
M 1491 2854 
L 3059 2854 
L 3059 2189 
L 1491 2189 
L 1491 2854 
z
M 3059 3686 
L 3059 3046 
L 1491 3046 
L 1491 3686 
L 3059 3686 
z
M 4544 4838 
C 4250 4646 3853 4416 3526 4243 
C 3264 4378 2810 4506 2074 4582 
L 2042 4467 
C 2688 4307 3155 4096 3450 3878 
L 1517 3878 
L 1203 4038 
L 1203 1702 
L 1248 1702 
C 1370 1702 1491 1773 1491 1805 
L 1491 1997 
L 4973 1997 
L 4973 1779 
L 5011 1779 
C 5107 1779 5254 1862 5261 1901 
L 5261 3622 
C 5382 3648 5491 3699 5536 3750 
L 5101 4083 
L 4909 3878 
L 3840 3878 
C 3859 3949 3814 4051 3667 4160 
C 4166 4346 4800 4608 5146 4794 
C 5299 4800 5376 4806 5427 4851 
L 4998 5267 
L 4742 5024 
L 851 5024 
L 909 4838 
L 4544 4838 
z
M 5382 1498 
L 5197 1293 
L 3245 1293 
C 3283 1408 3309 1530 3328 1651 
C 3456 1658 3539 1696 3565 1798 
L 3008 1901 
C 2989 1690 2950 1485 2886 1293 
L 538 1293 
L 595 1101 
L 2816 1101 
C 2515 429 1837 -70 346 -371 
L 390 -474 
C 2144 -186 2874 371 3174 1101 
L 5242 1101 
C 5158 563 5011 102 4870 -13 
C 4800 -58 4730 -70 4595 -70 
C 4448 -70 3814 -13 3494 13 
L 3488 -109 
C 3776 -141 4122 -192 4224 -250 
C 4333 -301 4365 -390 4365 -474 
C 4608 -480 4864 -410 5011 -301 
C 5261 -122 5453 454 5530 1082 
C 5664 1088 5741 1120 5779 1165 
L 5382 1498 
z
" transform="scale(0.015625)"/>
      </defs>
      <use xlink:href="#NotoSerifCJKjp-ExtraLight-53f8"/>
      <use xlink:href="#NotoSerifCJKjp-ExtraLight-52c7" x="99.999985"/>
     </g>
    </g>
   </g>
   <g id="text_28">
    <g clip-path="url(#p7eeada846d)">
     <!-- 朴安壽 -->
     <g transform="translate(2457.281644 901.32) scale(0.12 -0.12)">
      <defs>
       <path id="NotoSerifCJKjp-ExtraLight-58fd" d="M 902 2419 
L 960 2234 
L 5382 2234 
C 5466 2234 5523 2266 5542 2336 
C 5376 2490 5120 2682 5120 2682 
L 4896 2419 
L 3328 2419 
L 3328 2861 
L 4890 2861 
C 4973 2861 5030 2893 5050 2963 
C 4883 3117 4640 3290 4640 3290 
L 4422 3053 
L 1280 3053 
L 1331 2861 
L 3046 2861 
L 3046 2419 
L 902 2419 
z
M 5754 3821 
L 5549 3610 
L 467 3610 
L 525 3418 
L 5536 3418 
C 5440 3232 5312 3014 5216 2867 
L 5306 2816 
C 5510 2957 5766 3194 5907 3379 
C 6022 3386 6106 3398 6144 3437 
L 5754 3821 
z
M 518 4653 
L 3046 4653 
L 3046 4173 
L 1082 4173 
L 1126 3987 
L 5306 3987 
C 5395 3987 5453 4019 5472 4083 
C 5286 4262 4979 4499 4979 4499 
L 4723 4173 
L 3328 4173 
L 3328 4653 
L 5773 4653 
C 5862 4653 5920 4685 5939 4755 
C 5741 4934 5434 5178 5434 5178 
L 5165 4845 
L 3328 4845 
L 3328 5120 
C 3482 5139 3552 5203 3565 5293 
L 3046 5350 
L 3046 4845 
L 461 4845 
L 518 4653 
z
M 1114 326 
L 1114 1069 
L 2291 1069 
L 2291 326 
L 1114 326 
z
M 2234 1254 
L 1146 1254 
L 832 1408 
L 832 -307 
L 877 -307 
C 998 -307 1114 -237 1114 -211 
L 1114 141 
L 2291 141 
L 2291 -154 
L 2330 -154 
C 2419 -154 2566 -77 2573 -38 
L 2573 1024 
C 2682 1043 2778 1088 2816 1133 
L 2406 1446 
L 2234 1254 
z
M 3328 819 
C 3533 646 3763 326 3814 83 
C 4115 -141 4365 512 3405 870 
L 3328 819 
z
M 5370 1133 
L 5011 1133 
L 5011 1350 
C 5152 1376 5210 1421 5229 1504 
L 4730 1562 
L 4730 1133 
L 2912 1133 
L 2963 947 
L 4730 947 
L 4730 51 
C 4730 -38 4704 -64 4614 -64 
C 4512 -64 4038 -26 4038 -26 
L 4038 -134 
C 4243 -160 4371 -192 4448 -250 
C 4512 -307 4531 -397 4544 -486 
C 4966 -435 5011 -262 5011 19 
L 5011 947 
L 5837 947 
C 5920 947 5978 979 5997 1050 
C 5837 1203 5594 1402 5594 1402 
L 5370 1133 
z
M 5395 1869 
L 365 1869 
L 422 1677 
L 5914 1677 
C 6003 1677 6061 1709 6080 1779 
C 5901 1939 5632 2144 5632 2144 
L 5395 1869 
z
" transform="scale(0.015625)"/>
      </defs>
      <use xlink:href="#NotoSerifCJKjp-ExtraLight-6734"/>
      <use xlink:href="#NotoSerifCJKjp-ExtraLight-5b89" x="99.999985"/>
      <use xlink:href="#NotoSerifCJKjp-ExtraLight-58fd" x="199.999969"/>
     </g>
    </g>
    <g clip-path="url(#p7eeada846d)">
     <!--  -->
     <g transform="translate(2475.281644 915.96) scale(0.12 -0.12)"/>
    </g>
   </g>
  </g>
 </g>
 <defs>
  <clipPath id="p7eeada846d">
   <rect x="360" y="129.6" width="2232" height="831.6"/>
  </clipPath>
 </defs>
</svg>
