<?xml version="1.0" encoding="utf-8" standalone="no"?>
<!DOCTYPE svg PUBLIC "-//W3C//DTD SVG 1.1//EN"
  "http://www.w3.org/Graphics/SVG/1.1/DTD/svg11.dtd">
<svg xmlns:xlink="http://www.w3.org/1999/xlink" width="2880pt" height="1080pt" viewBox="0 0 2880 1080" xmlns="http://www.w3.org/2000/svg" version="1.1">
 <metadata>
  <rdf:RDF xmlns:dc="http://purl.org/dc/elements/1.1/" xmlns:cc="http://creativecommons.org/ns#" xmlns:rdf="http://www.w3.org/1999/02/22-rdf-syntax-ns#">
   <cc:Work>
    <dc:type rdf:resource="http://purl.org/dc/dcmitype/StillImage"/>
    <dc:date>2025-06-20T00:24:17.239197</dc:date>
    <dc:format>image/svg+xml</dc:format>
    <dc:creator>
     <cc:Agent>
      <dc:title>Matplotlib v3.9.4, https://matplotlib.org/</dc:title>
     </cc:Agent>
    </dc:creator>
   </cc:Work>
  </rdf:RDF>
 </metadata>
 <defs>
  <style type="text/css">*{stroke-linejoin: round; stroke-linecap: butt}</style>
 </defs>
 <g id="figure_1">
  <g id="patch_1">
   <path d="M 0 1080 
L 2880 1080 
L 2880 0 
L 0 0 
z
" style="fill: #ffffff"/>
  </g>
  <g id="axes_1">
   <g id="patch_2">
    <path d="M 2488.867055 210.260687 
Q 2423.496437 545.40074 2488.439254 878.346085 
" clip-path="url(#pb462f3c834)" style="fill: none; stroke: #000000; stroke-width: 2; stroke-linecap: round"/>
    <path d="M 2489.63647 874.037179 
L 2488.439254 878.346085 
L 2485.710458 874.802969 
z
" clip-path="url(#pb462f3c834)" style="stroke: #000000; stroke-width: 2; stroke-linecap: round"/>
   </g>
   <g id="text_1">
    <g id="patch_3">
     <path d="M 2480.585455 542.202187 
L 2480.585455 548.597812 
Q 2480.585455 552.197812 2484.185455 552.197812 
L 2496.905455 552.197812 
Q 2500.505455 552.197812 2500.505455 548.597812 
L 2500.505455 542.202187 
Q 2500.505455 538.602187 2496.905455 538.602187 
L 2484.185455 538.602187 
Q 2480.585455 538.602187 2480.585455 542.202187 
z
" clip-path="url(#pb462f3c834)" style="fill: #ffffff; stroke: #ffffff; stroke-linejoin: miter"/>
    </g>
    <g clip-path="url(#pb462f3c834)">
     <!-- 6 -->
     <g transform="translate(2487.305455 542.202187) rotate(-270) scale(0.12 -0.12)">
      <defs>
       <path id="NotoSerifCJKjp-ExtraLight-36" d="M 1754 102 
C 1094 102 730 794 730 1856 
C 730 1926 730 1997 736 2061 
C 1069 2426 1402 2560 1766 2560 
C 2330 2560 2688 2150 2688 1357 
C 2688 557 2285 102 1754 102 
z
M 2963 4717 
C 1306 4512 326 3238 326 1811 
C 326 653 851 -90 1741 -90 
C 2515 -90 3091 499 3091 1408 
C 3091 2266 2611 2803 1862 2803 
C 1440 2803 1069 2630 755 2272 
C 896 3437 1645 4314 2995 4582 
L 2963 4717 
z
" transform="scale(0.015625)"/>
      </defs>
      <use xlink:href="#NotoSerifCJKjp-ExtraLight-36"/>
     </g>
    </g>
   </g>
   <g id="matplotlib.axis_1">
    <g id="xtick_1"/>
    <g id="xtick_2"/>
    <g id="xtick_3"/>
    <g id="xtick_4"/>
    <g id="xtick_5"/>
    <g id="xtick_6"/>
    <g id="xtick_7"/>
   </g>
   <g id="matplotlib.axis_2">
    <g id="ytick_1"/>
    <g id="ytick_2"/>
    <g id="ytick_3"/>
    <g id="ytick_4"/>
    <g id="ytick_5"/>
    <g id="ytick_6"/>
    <g id="ytick_7"/>
    <g id="ytick_8"/>
   </g>
   <g id="PathCollection_1">
    <defs>
     <path id="m09c3062ed8" d="M 0 15 
C 3.978047 15 7.793698 13.419505 10.606602 10.606602 
C 13.419505 7.793698 15 3.978047 15 0 
C 15 -3.978047 13.419505 -7.793698 10.606602 -10.606602 
C 7.793698 -13.419505 3.978047 -15 0 -15 
C -3.978047 -15 -7.793698 -13.419505 -10.606602 -10.606602 
C -13.419505 -7.793698 -15 -3.978047 -15 0 
C -15 3.978047 -13.419505 7.793698 -10.606602 10.606602 
C -7.793698 13.419505 -3.978047 15 0 15 
z
" style="stroke: #add8e6; stroke-opacity: 0.85"/>
    </defs>
    <g clip-path="url(#pb462f3c834)">
     <use xlink:href="#m09c3062ed8" x="2490.545455" y="201.763636" style="fill: #add8e6; fill-opacity: 0.85; stroke: #add8e6; stroke-opacity: 0.85"/>
     <use xlink:href="#m09c3062ed8" x="2490.545455" y="889.036364" style="fill: #add8e6; fill-opacity: 0.85; stroke: #add8e6; stroke-opacity: 0.85"/>
    </g>
   </g>
   <g id="text_2">
    <g clip-path="url(#pb462f3c834)">
     <!-- 權存禮 -->
     <g transform="translate(2472.545455 197.683636) scale(0.12 -0.12)">
      <defs>
       <path id="NotoSerifCJKjp-ExtraLight-6b0a" d="M 2234 4595 
L 3251 4595 
L 3251 4147 
L 3309 4147 
C 3418 4147 3539 4224 3539 4262 
L 3539 4595 
L 4550 4595 
L 4550 4147 
L 4608 4147 
C 4717 4147 4838 4224 4838 4262 
L 4838 4595 
L 5965 4595 
C 6054 4595 6112 4627 6131 4698 
C 5939 4870 5645 5107 5645 5107 
L 5376 4787 
L 4838 4787 
L 4838 5088 
C 4998 5114 5062 5171 5075 5267 
L 4550 5318 
L 4550 4787 
L 3539 4787 
L 3539 5088 
C 3693 5114 3763 5171 3776 5267 
L 3251 5318 
L 3251 4787 
L 2182 4787 
L 2234 4595 
z
M 2797 3104 
L 2797 3776 
L 3616 3776 
L 3616 3104 
L 2797 3104 
z
M 3648 2720 
C 3744 2720 3891 2790 3898 2829 
L 3898 3731 
C 4006 3750 4102 3802 4141 3846 
L 3731 4154 
L 3558 3968 
L 2822 3968 
L 2515 4115 
L 2515 2605 
L 2560 2605 
C 2675 2605 2797 2675 2797 2701 
L 2797 2912 
L 3616 2912 
L 3616 2720 
L 3648 2720 
z
M 1498 3674 
L 2259 3674 
C 2349 3674 2400 3706 2419 3776 
C 2240 3949 1952 4173 1952 4173 
L 1702 3866 
L 1498 3866 
L 1498 5088 
C 1651 5114 1702 5171 1722 5267 
L 1210 5325 
L 1210 3866 
L 333 3866 
L 384 3674 
L 1107 3674 
C 960 2746 685 1843 243 1107 
L 339 1024 
C 736 1549 1011 2150 1210 2803 
L 1210 -461 
L 1274 -461 
C 1376 -461 1498 -390 1498 -333 
L 1498 2669 
C 1696 2419 1939 2074 2016 1818 
C 2349 1587 2586 2246 1498 2803 
L 1498 3674 
z
M 3046 512 
L 4038 512 
L 4038 6 
L 3046 6 
L 3046 512 
z
M 4038 1882 
L 4038 1395 
L 3046 1395 
L 3046 1882 
L 4038 1882 
z
M 4038 698 
L 3046 698 
L 3046 1203 
L 4038 1203 
L 4038 698 
z
M 5485 3776 
L 5485 3104 
L 4666 3104 
L 4666 3776 
L 5485 3776 
z
M 5357 6 
L 4320 6 
L 4320 512 
L 5613 512 
C 5702 512 5754 544 5773 614 
C 5600 781 5318 1005 5318 1005 
L 5082 698 
L 4320 698 
L 4320 1203 
L 5638 1203 
C 5722 1203 5779 1235 5792 1306 
C 5626 1478 5344 1696 5344 1696 
L 5101 1395 
L 4320 1395 
L 4320 1882 
L 5818 1882 
C 5901 1882 5965 1914 5984 1978 
C 5792 2157 5498 2387 5498 2387 
L 5235 2067 
L 4237 2067 
C 4333 2202 4442 2349 4518 2470 
C 4646 2464 4736 2509 4762 2592 
L 4403 2688 
L 4429 2688 
C 4538 2688 4666 2752 4666 2771 
L 4666 2912 
L 5485 2912 
L 5485 2662 
L 5523 2662 
C 5619 2662 5760 2739 5766 2771 
L 5766 3731 
C 5875 3750 5978 3802 6016 3846 
L 5606 4154 
L 5427 3968 
L 4691 3968 
L 4384 4115 
L 4384 2694 
L 4262 2726 
C 4205 2541 4109 2266 4045 2067 
L 3123 2067 
C 3206 2195 3290 2330 3360 2464 
C 3494 2438 3578 2490 3610 2554 
L 3155 2771 
C 2848 2054 2381 1421 1946 1050 
L 2035 960 
C 2285 1126 2541 1357 2778 1626 
L 2778 -474 
L 2810 -474 
C 2944 -474 3046 -403 3046 -378 
L 3046 -179 
L 5933 -179 
C 6022 -179 6080 -154 6099 -83 
C 5914 96 5619 326 5619 326 
L 5357 6 
z
" transform="scale(0.015625)"/>
       <path id="NotoSerifCJKjp-ExtraLight-5b58" d="M 5894 4134 
C 5984 4134 6048 4166 6067 4237 
C 5862 4422 5555 4659 5555 4659 
L 5286 4326 
L 2502 4326 
C 2624 4582 2720 4838 2803 5075 
C 2976 5062 3034 5094 3066 5178 
L 2534 5338 
C 2445 5011 2323 4672 2176 4326 
L 339 4326 
L 397 4134 
L 2086 4134 
C 1939 3814 1760 3494 1562 3187 
L 1331 3226 
L 1331 2854 
C 1024 2438 666 2054 269 1741 
L 346 1658 
C 710 1907 1043 2202 1331 2522 
L 1331 -467 
L 1363 -467 
C 1517 -467 1600 -378 1600 -346 
L 1600 2842 
C 1651 2906 1696 2970 1741 3027 
C 1818 3053 1856 3091 1862 3136 
L 1824 3142 
C 2048 3469 2246 3802 2413 4134 
L 5894 4134 
z
M 5402 1811 
L 4262 1811 
L 4262 2266 
C 4410 2285 4467 2336 4486 2419 
L 4365 2432 
C 4736 2637 5178 2918 5414 3142 
C 5555 3149 5638 3155 5690 3194 
L 5299 3578 
L 5075 3360 
L 2502 3360 
L 2560 3174 
L 4986 3174 
C 4762 2944 4429 2662 4166 2458 
L 3981 2483 
L 3981 1811 
L 2022 1811 
L 2074 1619 
L 3981 1619 
L 3981 51 
C 3981 -51 3949 -90 3821 -90 
C 3686 -90 3021 -38 3021 -38 
L 3021 -141 
C 3296 -173 3475 -205 3571 -256 
C 3648 -307 3686 -390 3706 -474 
C 4205 -422 4262 -243 4262 26 
L 4262 1619 
L 5990 1619 
C 6080 1619 6138 1651 6150 1722 
C 5965 1901 5664 2138 5664 2138 
L 5402 1811 
z
" transform="scale(0.015625)"/>
       <path id="NotoSerifCJKjp-ExtraLight-79ae" d="M 3373 1222 
L 3373 1843 
L 5242 1843 
L 5242 1222 
L 3373 1222 
z
M 5280 794 
C 5395 794 5523 870 5523 896 
L 5523 1830 
C 5638 1850 5702 1882 5734 1926 
L 5370 2208 
L 5229 2029 
L 3450 2029 
L 3098 2195 
L 3098 730 
L 3136 730 
C 3277 730 3373 806 3373 832 
L 3373 1037 
L 5242 1037 
L 5242 794 
L 5280 794 
z
M 3469 794 
C 3603 608 3744 294 3757 51 
C 4058 -218 4416 410 3552 832 
L 3469 794 
z
M 5581 2598 
L 2496 2598 
L 2547 2406 
L 6042 2406 
C 6131 2406 6182 2438 6195 2509 
C 6035 2656 5792 2816 5792 2816 
L 5581 2598 
z
M 3718 4544 
L 3718 4019 
L 3155 4019 
L 3155 4544 
L 3718 4544 
z
M 4557 4544 
L 4557 4019 
L 3994 4019 
L 3994 4544 
L 4557 4544 
z
M 5395 4544 
L 5395 4019 
L 4832 4019 
L 4832 4544 
L 5395 4544 
z
M 4832 3290 
L 4832 3827 
L 5395 3827 
L 5395 3290 
L 4832 3290 
z
M 3994 3827 
L 4557 3827 
L 4557 3290 
L 3994 3290 
L 3994 3827 
z
M 3718 3290 
L 3155 3290 
L 3155 3827 
L 3718 3827 
L 3718 3290 
z
M 3155 3104 
L 5395 3104 
L 5395 2893 
L 5440 2893 
C 5555 2893 5683 2970 5683 2995 
L 5683 4525 
C 5798 4544 5862 4582 5907 4627 
L 5530 4915 
L 5382 4736 
L 4832 4736 
L 4832 5082 
C 4966 5107 5030 5165 5043 5248 
L 4557 5299 
L 4557 4736 
L 3994 4736 
L 3994 5082 
C 4128 5107 4192 5165 4205 5248 
L 3718 5299 
L 3718 4736 
L 3226 4736 
L 2874 4896 
L 2874 2822 
L 2912 2822 
C 3059 2822 3155 2899 3155 2931 
L 3155 3104 
z
M 2285 4678 
C 2368 4678 2432 4710 2451 4781 
C 2253 4954 1946 5178 1946 5178 
L 1683 4870 
L 461 4870 
L 512 4678 
L 2285 4678 
z
M 570 2086 
C 570 1510 538 781 256 262 
L 352 186 
C 774 717 838 1498 838 2080 
L 838 2867 
C 998 2886 1043 2944 1062 3027 
L 570 3085 
L 570 2086 
z
M 2458 3539 
C 2541 3539 2605 3571 2618 3635 
C 2438 3814 2150 4045 2150 4045 
L 1901 3725 
L 288 3725 
L 339 3539 
L 1286 3539 
L 1286 -467 
L 1325 -467 
C 1472 -467 1568 -384 1568 -358 
L 1568 3539 
L 2458 3539 
z
M 1978 3098 
L 1978 448 
L 2035 448 
C 2144 448 2266 518 2266 570 
L 2266 2880 
C 2400 2899 2458 2957 2470 3040 
L 1978 3098 
z
M 5459 -51 
L 4646 -51 
C 4826 154 4973 378 5069 582 
C 5197 576 5274 627 5299 691 
L 4781 858 
C 4723 570 4621 211 4486 -51 
L 2323 -51 
L 2368 -237 
L 6035 -237 
C 6125 -237 6182 -205 6195 -141 
C 6016 38 5722 269 5722 269 
L 5459 -51 
z
" transform="scale(0.015625)"/>
      </defs>
      <use xlink:href="#NotoSerifCJKjp-ExtraLight-6b0a"/>
      <use xlink:href="#NotoSerifCJKjp-ExtraLight-5b58" x="99.999985"/>
      <use xlink:href="#NotoSerifCJKjp-ExtraLight-79ae" x="199.999969"/>
     </g>
    </g>
    <g clip-path="url(#pb462f3c834)">
     <!-- 上護軍 -->
     <g transform="translate(2472.545455 212.323636) scale(0.12 -0.12)">
      <defs>
       <path id="NotoSerifCJKjp-ExtraLight-4e0a" d="M 5318 51 
L 3162 51 
L 3162 2803 
L 5421 2803 
C 5510 2803 5568 2835 5587 2906 
C 5389 3091 5075 3334 5075 3334 
L 4800 2995 
L 3162 2995 
L 3162 5043 
C 3309 5069 3366 5133 3386 5222 
L 2874 5286 
L 2874 51 
L 288 51 
L 346 -141 
L 5939 -141 
C 6035 -141 6093 -109 6112 -38 
C 5914 147 5594 390 5594 390 
L 5318 51 
z
" transform="scale(0.015625)"/>
       <path id="NotoSerifCJKjp-ExtraLight-8b77" d="M 4096 3200 
L 3110 3200 
L 3110 3610 
L 4096 3610 
L 4096 3200 
z
M 4096 2592 
L 3110 2592 
L 3110 3014 
L 4096 3014 
L 4096 2592 
z
M 4096 1965 
L 3110 1965 
L 3110 2400 
L 4096 2400 
L 4096 1965 
z
M 2470 4627 
L 3373 4627 
L 3373 4314 
L 3162 4403 
C 2925 3782 2573 3174 2259 2790 
L 2355 2726 
C 2515 2867 2682 3046 2835 3245 
L 2835 1466 
L 2874 1466 
C 3008 1466 3110 1542 3110 1574 
L 3110 1779 
L 5894 1779 
C 5984 1779 6042 1811 6061 1882 
C 5888 2042 5626 2253 5626 2253 
L 5389 1965 
L 4384 1965 
L 4384 2400 
L 5555 2400 
C 5638 2400 5696 2432 5715 2502 
C 5542 2656 5293 2835 5293 2835 
L 5069 2592 
L 4384 2592 
L 4384 3014 
L 5542 3014 
C 5632 3014 5690 3046 5709 3117 
C 5536 3264 5293 3450 5293 3450 
L 5069 3200 
L 4384 3200 
L 4384 3610 
L 5702 3610 
C 5786 3610 5843 3642 5856 3712 
C 5702 3872 5440 4077 5440 4077 
L 5216 3802 
L 4294 3802 
C 4365 3898 4435 4000 4480 4083 
C 4608 4083 4691 4134 4710 4218 
L 4218 4326 
C 4186 4186 4134 3968 4096 3802 
L 3213 3802 
C 3270 3904 3328 4006 3379 4109 
C 3514 4090 3590 4147 3616 4211 
L 3450 4282 
C 3552 4288 3654 4352 3654 4397 
L 3654 4627 
L 4717 4627 
L 4717 4282 
L 4774 4282 
C 4877 4282 4998 4352 4998 4397 
L 4998 4627 
L 5971 4627 
C 6054 4627 6118 4659 6131 4730 
C 5958 4896 5683 5114 5683 5114 
L 5440 4819 
L 4998 4819 
L 4998 5120 
C 5139 5139 5203 5197 5216 5280 
L 4717 5331 
L 4717 4819 
L 3654 4819 
L 3654 5120 
C 3795 5139 3859 5197 3872 5280 
L 3373 5331 
L 3373 4819 
L 2419 4819 
L 2470 4627 
z
M 1670 3296 
L 512 3296 
L 563 3110 
L 2150 3110 
C 2240 3110 2298 3142 2310 3206 
C 2150 3366 1901 3571 1901 3571 
L 1670 3296 
z
M 2170 4717 
C 2259 4717 2317 4749 2336 4819 
C 2157 4986 1882 5210 1882 5210 
L 1638 4902 
L 506 4902 
L 557 4717 
L 2170 4717 
z
M 1888 4102 
L 256 4102 
L 301 3917 
L 2432 3917 
C 2522 3917 2579 3949 2598 4019 
C 2419 4186 2138 4416 2138 4416 
L 1888 4102 
z
M 2150 2298 
C 2240 2298 2298 2330 2310 2394 
C 2150 2554 1901 2758 1901 2758 
L 1670 2483 
L 512 2483 
L 563 2298 
L 2150 2298 
z
M 826 275 
L 826 1491 
L 1856 1491 
L 1856 275 
L 826 275 
z
M 1978 1888 
L 1792 1677 
L 858 1677 
L 544 1837 
L 544 -474 
L 589 -474 
C 704 -474 826 -403 826 -371 
L 826 90 
L 1856 90 
L 1856 -230 
L 1894 -230 
C 1984 -230 2131 -160 2138 -122 
L 2138 1427 
C 2266 1453 2368 1504 2413 1549 
L 1978 1888 
z
M 5158 1133 
C 4922 838 4608 589 4230 371 
C 3846 570 3526 826 3296 1133 
L 5158 1133 
z
M 5472 1523 
L 5242 1325 
L 2534 1325 
L 2592 1133 
L 3123 1133 
C 3334 768 3629 474 3981 237 
C 3462 -26 2848 -218 2189 -352 
L 2240 -467 
C 2989 -346 3648 -160 4205 96 
C 4666 -166 5216 -352 5843 -480 
C 5882 -346 5978 -256 6106 -243 
L 6112 -173 
C 5517 -96 4966 45 4493 250 
C 4922 480 5274 768 5549 1114 
C 5709 1114 5779 1133 5830 1184 
L 5472 1523 
z
" transform="scale(0.015625)"/>
       <path id="NotoSerifCJKjp-ExtraLight-8ecd" d="M 5389 4685 
C 5293 4467 5165 4198 5062 4032 
L 5158 3987 
C 5363 4147 5645 4435 5786 4640 
C 5907 4646 5984 4653 6035 4698 
L 5619 5107 
L 5389 4870 
L 1203 4870 
C 1190 4966 1171 5062 1146 5171 
L 1030 5165 
C 1069 4678 845 4224 576 4051 
C 474 3981 410 3866 467 3763 
C 544 3654 736 3706 870 3821 
C 1037 3962 1216 4250 1210 4685 
L 5389 4685 
z
M 1568 1504 
L 1568 2150 
L 3046 2150 
L 3046 1504 
L 1568 1504 
z
M 3046 2963 
L 3046 2342 
L 1568 2342 
L 1568 2963 
L 3046 2963 
z
M 4806 2963 
L 4806 2342 
L 3328 2342 
L 3328 2963 
L 4806 2963 
z
M 3328 1504 
L 3328 2150 
L 4806 2150 
L 4806 1504 
L 3328 1504 
z
M 5312 672 
L 3328 672 
L 3328 1312 
L 4806 1312 
L 4806 1056 
L 4845 1056 
C 4934 1056 5082 1133 5088 1171 
L 5088 2899 
C 5216 2925 5318 2976 5363 3027 
L 4928 3360 
L 4742 3155 
L 3328 3155 
L 3328 3731 
L 5088 3731 
C 5178 3731 5242 3763 5254 3834 
C 5062 4000 4787 4192 4787 4192 
L 4538 3923 
L 3328 3923 
L 3328 4294 
C 3488 4320 3546 4384 3558 4467 
L 3046 4531 
L 3046 3923 
L 1158 3923 
L 1210 3731 
L 3046 3731 
L 3046 3155 
L 1600 3155 
L 1286 3315 
L 1286 1005 
L 1331 1005 
C 1453 1005 1568 1075 1568 1101 
L 1568 1312 
L 3046 1312 
L 3046 672 
L 314 672 
L 371 486 
L 3046 486 
L 3046 -467 
L 3104 -467 
C 3206 -467 3328 -397 3328 -339 
L 3328 486 
L 5939 486 
C 6029 486 6086 518 6106 589 
C 5907 768 5594 1018 5594 1018 
L 5312 672 
z
" transform="scale(0.015625)"/>
      </defs>
      <use xlink:href="#NotoSerifCJKjp-ExtraLight-4e0a"/>
      <use xlink:href="#NotoSerifCJKjp-ExtraLight-8b77" x="99.999985"/>
      <use xlink:href="#NotoSerifCJKjp-ExtraLight-8ecd" x="199.999969"/>
     </g>
    </g>
   </g>
   <g id="text_3">
    <g clip-path="url(#pb462f3c834)">
     <!-- 李石貞 -->
     <g transform="translate(2472.545455 884.956364) scale(0.12 -0.12)">
      <defs>
       <path id="NotoSerifCJKjp-ExtraLight-674e" d="M 5312 1280 
L 3341 1280 
L 3341 1574 
C 3462 1594 3520 1626 3552 1690 
C 3955 1830 4518 2054 4813 2259 
C 4941 2266 5030 2272 5082 2310 
L 4710 2669 
L 4499 2464 
L 1427 2464 
L 1485 2278 
L 4333 2278 
C 4064 2093 3686 1888 3424 1754 
L 3059 1798 
L 3059 1280 
L 314 1280 
L 371 1088 
L 3059 1088 
L 3059 64 
C 3059 -32 3027 -70 2899 -70 
C 2771 -70 2074 -19 2074 -19 
L 2074 -122 
C 2362 -154 2541 -192 2637 -243 
C 2726 -301 2765 -384 2778 -474 
C 3283 -416 3341 -237 3341 38 
L 3341 1088 
L 5926 1088 
C 6016 1088 6074 1120 6093 1190 
C 5894 1376 5587 1613 5587 1613 
L 5312 1280 
z
M 5850 4186 
C 5939 4186 5997 4218 6016 4288 
C 5818 4467 5504 4717 5504 4717 
L 5229 4378 
L 3322 4378 
L 3322 5107 
C 3482 5133 3546 5190 3558 5280 
L 3040 5338 
L 3040 4378 
L 403 4378 
L 461 4186 
L 2656 4186 
C 2061 3494 1152 2816 218 2355 
L 282 2253 
C 1363 2694 2368 3366 3040 4147 
L 3040 2662 
L 3098 2662 
C 3200 2662 3322 2733 3322 2778 
L 3322 4186 
L 3386 4186 
C 3942 3424 5011 2707 5901 2323 
C 5952 2451 6054 2534 6182 2541 
L 6195 2611 
C 5312 2906 4179 3533 3578 4186 
L 5850 4186 
z
" transform="scale(0.015625)"/>
       <path id="NotoSerifCJKjp-ExtraLight-77f3" d="M 5146 2509 
L 5146 326 
L 2067 326 
L 2067 2509 
L 5146 2509 
z
M 5280 4794 
L 333 4794 
L 390 4602 
L 2496 4602 
C 2112 3334 1242 2003 205 1088 
L 275 1011 
C 851 1440 1363 1965 1792 2547 
L 1792 -474 
L 1830 -474 
C 1965 -474 2067 -390 2067 -365 
L 2067 141 
L 5146 141 
L 5146 -403 
L 5184 -403 
C 5280 -403 5421 -320 5427 -275 
L 5427 2426 
C 5568 2451 5696 2509 5741 2566 
L 5274 2925 
L 5075 2701 
L 2144 2701 
L 1958 2784 
C 2349 3354 2662 3968 2886 4602 
L 5926 4602 
C 6016 4602 6080 4634 6093 4704 
C 5888 4890 5562 5146 5562 5146 
L 5280 4794 
z
" transform="scale(0.015625)"/>
       <path id="NotoSerifCJKjp-ExtraLight-8c9e" d="M 4806 3610 
L 4806 2867 
L 1651 2867 
L 1651 3610 
L 4806 3610 
z
M 1651 1933 
L 1651 2682 
L 4806 2682 
L 4806 1933 
L 1651 1933 
z
M 1651 979 
L 1651 1741 
L 4806 1741 
L 4806 979 
L 1651 979 
z
M 1651 787 
L 4806 787 
L 4806 512 
L 4845 512 
C 4941 512 5082 602 5088 640 
L 5088 3571 
C 5203 3590 5299 3635 5331 3680 
L 4928 4006 
L 4749 3802 
L 3219 3802 
L 3219 4403 
L 5734 4403 
C 5824 4403 5882 4435 5901 4499 
C 5709 4685 5395 4922 5395 4922 
L 5126 4589 
L 3219 4589 
L 3219 5101 
C 3373 5120 3443 5184 3456 5274 
L 2938 5331 
L 2938 3802 
L 1683 3802 
L 1370 3968 
L 1370 429 
L 1421 429 
C 1542 429 1651 499 1651 531 
L 1651 787 
z
M 365 -480 
C 1210 -352 2118 -58 2662 205 
C 2803 160 2899 166 2950 218 
L 2502 550 
C 2048 237 1126 -173 326 -365 
L 365 -480 
z
M 3629 352 
C 4506 141 5171 -141 5562 -410 
C 5990 -678 6515 134 3661 467 
L 3629 352 
z
" transform="scale(0.015625)"/>
      </defs>
      <use xlink:href="#NotoSerifCJKjp-ExtraLight-674e"/>
      <use xlink:href="#NotoSerifCJKjp-ExtraLight-77f3" x="99.999985"/>
      <use xlink:href="#NotoSerifCJKjp-ExtraLight-8c9e" x="199.999969"/>
     </g>
    </g>
    <g clip-path="url(#pb462f3c834)">
     <!--   -->
     <g transform="translate(2488.99108 899.596364) scale(0.12 -0.12)">
      <defs>
       <path id="NotoSerifCJKjp-ExtraLight-20" transform="scale(0.015625)"/>
      </defs>
      <use xlink:href="#NotoSerifCJKjp-ExtraLight-20"/>
     </g>
    </g>
   </g>
  </g>
 </g>
 <defs>
  <clipPath id="pb462f3c834">
   <rect x="360" y="129.6" width="2232" height="831.6"/>
  </clipPath>
 </defs>
</svg>
