<?xml version="1.0" encoding="utf-8" standalone="no"?>
<!DOCTYPE svg PUBLIC "-//W3C//DTD SVG 1.1//EN"
  "http://www.w3.org/Graphics/SVG/1.1/DTD/svg11.dtd">
<svg xmlns:xlink="http://www.w3.org/1999/xlink" width="2880pt" height="1080pt" viewBox="0 0 2880 1080" xmlns="http://www.w3.org/2000/svg" version="1.1">
 <metadata>
  <rdf:RDF xmlns:dc="http://purl.org/dc/elements/1.1/" xmlns:cc="http://creativecommons.org/ns#" xmlns:rdf="http://www.w3.org/1999/02/22-rdf-syntax-ns#">
   <cc:Work>
    <dc:type rdf:resource="http://purl.org/dc/dcmitype/StillImage"/>
    <dc:date>2025-06-20T00:26:24.251235</dc:date>
    <dc:format>image/svg+xml</dc:format>
    <dc:creator>
     <cc:Agent>
      <dc:title>Matplotlib v3.9.4, https://matplotlib.org/</dc:title>
     </cc:Agent>
    </dc:creator>
   </cc:Work>
  </rdf:RDF>
 </metadata>
 <defs>
  <style type="text/css">*{stroke-linejoin: round; stroke-linecap: butt}</style>
 </defs>
 <g id="figure_1">
  <g id="patch_1">
   <path d="M 0 1080 
L 2880 1080 
L 2880 0 
L 0 0 
z
" style="fill: #ffffff"/>
  </g>
  <g id="axes_1">
   <g id="patch_2">
    <path d="M 1467.357336 667.781133 
Q 968.909989 694.280544 519.609897 906.540539 
" clip-path="url(#p89752752cd)" style="fill: none; stroke: #000000; stroke-width: 2; stroke-linecap: round"/>
    <path d="M 524.080921 906.640275 
L 519.609897 906.540539 
L 522.3723 903.023562 
z
" clip-path="url(#p89752752cd)" style="stroke: #000000; stroke-width: 2; stroke-linecap: round"/>
   </g>
   <g id="patch_3">
    <path d="M 1467.524348 669.085114 
Q 1162.402127 732.842977 905.311385 905.121799 
" clip-path="url(#p89752752cd)" style="fill: none; stroke: #000000; stroke-width: 2; stroke-linecap: round"/>
    <path d="M 909.747654 904.556541 
L 905.311385 905.121799 
L 907.520941 901.233629 
z
" clip-path="url(#p89752752cd)" style="stroke: #000000; stroke-width: 2; stroke-linecap: round"/>
   </g>
   <g id="patch_4">
    <path d="M 1469.430056 672.972754 
Q 1356.293842 770.974287 1287.785236 901.535769 
" clip-path="url(#p89752752cd)" style="fill: none; stroke: #000000; stroke-width: 2; stroke-linecap: round"/>
    <path d="M 1291.4148 898.923056 
L 1287.785236 901.535769 
L 1287.872805 897.06449 
z
" clip-path="url(#p89752752cd)" style="stroke: #000000; stroke-width: 2; stroke-linecap: round"/>
   </g>
   <g id="patch_5">
    <path d="M 1479.992261 675.027465 
Q 1549.540056 807.568809 1660.986346 904.106127 
" clip-path="url(#p89752752cd)" style="fill: none; stroke: #000000; stroke-width: 2; stroke-linecap: round"/>
    <path d="M 1659.272404 899.975461 
L 1660.986346 904.106127 
L 1656.653448 902.998882 
z
" clip-path="url(#p89752752cd)" style="stroke: #000000; stroke-width: 2; stroke-linecap: round"/>
   </g>
   <g id="patch_6">
    <path d="M 1483.190734 672.176056 
Q 1742.139133 845.69943 2045.072652 908.999709 
" clip-path="url(#p89752752cd)" style="fill: none; stroke: #000000; stroke-width: 2; stroke-linecap: round"/>
    <path d="M 2041.566299 906.223833 
L 2045.072652 908.999709 
L 2040.748139 910.139266 
z
" clip-path="url(#p89752752cd)" style="stroke: #000000; stroke-width: 2; stroke-linecap: round"/>
   </g>
   <g id="patch_7">
    <path d="M 1483.833261 671.048224 
Q 1935.14821 884.261082 2431.355696 910.642312 
" clip-path="url(#p89752752cd)" style="fill: none; stroke: #000000; stroke-width: 2; stroke-linecap: round"/>
    <path d="M 2427.467519 908.43277 
L 2431.355696 910.642312 
L 2427.255156 912.427128 
z
" clip-path="url(#p89752752cd)" style="stroke: #000000; stroke-width: 2; stroke-linecap: round"/>
   </g>
   <g id="patch_8">
    <path d="M 1860.856962 431.967403 
Q 1839.752251 545.400984 1860.448312 656.636223 
" clip-path="url(#p89752752cd)" style="fill: none; stroke: #000000; stroke-width: 2; stroke-linecap: round"/>
    <path d="M 1861.682898 652.337875 
L 1860.448312 656.636223 
L 1857.750385 653.069545 
z
" clip-path="url(#p89752752cd)" style="stroke: #000000; stroke-width: 2; stroke-linecap: round"/>
   </g>
   <g id="patch_9">
    <path d="M 1854.422301 426.588299 
Q 1645.75557 508.161518 1483.934522 659.861863 
" clip-path="url(#p89752752cd)" style="fill: none; stroke: #000000; stroke-width: 2; stroke-linecap: round"/>
    <path d="M 1488.220582 658.58527 
L 1483.934522 659.861863 
L 1485.484884 655.667059 
z
" clip-path="url(#p89752752cd)" style="stroke: #000000; stroke-width: 2; stroke-linecap: round"/>
   </g>
   <g id="patch_10">
    <path d="M 1868.794212 429.409238 
Q 2032.246649 582.638791 2238.83085 663.397779 
" clip-path="url(#p89752752cd)" style="fill: none; stroke: #000000; stroke-width: 2; stroke-linecap: round"/>
    <path d="M 2235.833586 660.078681 
L 2238.83085 663.397779 
L 2234.377214 663.804131 
z
" clip-path="url(#p89752752cd)" style="stroke: #000000; stroke-width: 2; stroke-linecap: round"/>
   </g>
   <g id="patch_11">
    <path d="M 1860.856962 188.096435 
Q 1839.752251 301.530016 1860.448312 412.765255 
" clip-path="url(#p89752752cd)" style="fill: none; stroke: #000000; stroke-width: 2; stroke-linecap: round"/>
    <path d="M 1861.682898 408.466907 
L 1860.448312 412.765255 
L 1857.750385 409.198577 
z
" clip-path="url(#p89752752cd)" style="stroke: #000000; stroke-width: 2; stroke-linecap: round"/>
   </g>
   <g id="text_1">
    <g id="patch_12">
     <path d="M 992.223931 799.710689 
L 998.425094 798.145568 
Q 1001.915634 797.264586 1001.034651 793.774046 
L 997.921847 781.440804 
Q 997.040864 777.950264 993.550324 778.831247 
L 987.349162 780.396367 
Q 983.858622 781.277349 984.739604 784.76789 
L 987.852409 797.101131 
Q 988.733391 800.591671 992.223931 799.710689 
z
" clip-path="url(#p89752752cd)" style="fill: #ffffff; stroke: #ffffff; stroke-linejoin: miter"/>
    </g>
    <g clip-path="url(#p89752752cd)">
     <!-- 3 -->
     <g transform="translate(990.579431 793.195014) rotate(-14.16513) scale(0.12 -0.12)">
      <defs>
       <path id="NotoSerifCJKjp-ExtraLight-33" d="M 1062 4435 
C 1242 4499 1408 4525 1594 4525 
C 2176 4525 2496 4166 2496 3584 
C 2496 2918 2035 2541 1402 2541 
L 1126 2541 
L 1126 2330 
L 1434 2330 
C 2234 2330 2637 1920 2637 1229 
C 2637 557 2221 102 1498 102 
C 1286 102 1107 141 941 211 
L 787 659 
C 730 845 659 928 531 928 
C 422 928 339 864 301 755 
C 461 186 928 -90 1587 -90 
C 2426 -90 3040 410 3040 1203 
C 3040 1869 2656 2330 1901 2445 
C 2541 2605 2899 3059 2899 3597 
C 2899 4262 2426 4717 1664 4717 
C 1107 4717 570 4480 429 3885 
C 461 3776 544 3731 640 3731 
C 774 3731 845 3795 909 3981 
L 1062 4435 
z
" transform="scale(0.015625)"/>
      </defs>
      <use xlink:href="#NotoSerifCJKjp-ExtraLight-33"/>
     </g>
    </g>
   </g>
   <g id="text_2">
    <g id="patch_13">
     <path d="M 1187.054058 799.691696 
L 1192.949323 797.211802 
Q 1196.267677 795.815907 1194.871783 792.497552 
L 1189.939621 780.772699 
Q 1188.543726 777.454344 1185.225371 778.850239 
L 1179.330107 781.330134 
Q 1176.011752 782.726029 1177.407647 786.044383 
L 1182.339809 797.769236 
Q 1183.735704 801.087591 1187.054058 799.691696 
z
" clip-path="url(#p89752752cd)" style="fill: #ffffff; stroke: #ffffff; stroke-linejoin: miter"/>
    </g>
    <g clip-path="url(#p89752752cd)">
     <!-- 6 -->
     <g transform="translate(1184.448388 793.497434) rotate(-22.814482) scale(0.12 -0.12)">
      <defs>
       <path id="NotoSerifCJKjp-ExtraLight-36" d="M 1754 102 
C 1094 102 730 794 730 1856 
C 730 1926 730 1997 736 2061 
C 1069 2426 1402 2560 1766 2560 
C 2330 2560 2688 2150 2688 1357 
C 2688 557 2285 102 1754 102 
z
M 2963 4717 
C 1306 4512 326 3238 326 1811 
C 326 653 851 -90 1741 -90 
C 2515 -90 3091 499 3091 1408 
C 3091 2266 2611 2803 1862 2803 
C 1440 2803 1069 2630 755 2272 
C 896 3437 1645 4314 2995 4582 
L 2963 4717 
z
" transform="scale(0.015625)"/>
      </defs>
      <use xlink:href="#NotoSerifCJKjp-ExtraLight-36"/>
     </g>
    </g>
   </g>
   <g id="text_3">
    <g id="patch_14">
     <path d="M 1385.205255 797.963053 
L 1389.177322 792.950399 
Q 1391.413139 790.128852 1388.591592 787.893036 
L 1378.622127 779.993152 
Q 1375.80058 777.757336 1373.564764 780.578883 
L 1369.592697 785.591537 
Q 1367.35688 788.413084 1370.178427 790.6489 
L 1380.147892 798.548783 
Q 1382.969439 800.7846 1385.205255 797.963053 
z
" clip-path="url(#p89752752cd)" style="fill: #ffffff; stroke: #ffffff; stroke-linejoin: miter"/>
    </g>
    <g clip-path="url(#p89752752cd)">
     <!-- 5 -->
     <g transform="translate(1379.938368 793.789529) rotate(-51.606415) scale(0.12 -0.12)">
      <defs>
       <path id="NotoSerifCJKjp-ExtraLight-35" d="M 947 4275 
L 2950 4275 
L 2950 4627 
L 755 4627 
L 614 2483 
L 755 2464 
C 992 2573 1248 2624 1536 2624 
C 2208 2624 2662 2214 2662 1395 
C 2662 602 2227 102 1459 102 
C 1235 102 1062 134 896 205 
L 736 659 
C 678 851 614 922 480 922 
C 378 922 294 858 262 762 
C 397 198 858 -90 1498 -90 
C 2470 -90 3066 550 3066 1446 
C 3066 2323 2496 2854 1626 2854 
C 1344 2854 1094 2810 845 2707 
L 947 4275 
z
" transform="scale(0.015625)"/>
      </defs>
      <use xlink:href="#NotoSerifCJKjp-ExtraLight-35"/>
     </g>
    </g>
   </g>
   <g id="text_4">
    <g id="patch_15">
     <path d="M 1562.837991 792.950399 
L 1566.810058 797.963053 
Q 1569.045874 800.7846 1571.867421 798.548783 
L 1581.836887 790.6489 
Q 1584.658433 788.413084 1582.422617 785.591537 
L 1578.45055 780.578883 
Q 1576.214734 777.757336 1573.393187 779.993152 
L 1563.423722 787.893036 
Q 1560.602175 790.128852 1562.837991 792.950399 
z
" clip-path="url(#p89752752cd)" style="fill: #ffffff; stroke: #ffffff; stroke-linejoin: miter"/>
    </g>
    <g clip-path="url(#p89752752cd)">
     <!-- 4 -->
     <g transform="translate(1568.104879 788.776875) rotate(-308.393585) scale(0.12 -0.12)">
      <defs>
       <path id="NotoSerifCJKjp-ExtraLight-34" d="M 480 1805 
L 2163 4224 
L 2163 1805 
L 480 1805 
z
M 3309 1805 
L 2528 1805 
L 2528 4685 
L 2272 4685 
L 211 1747 
L 211 1510 
L 2163 1510 
L 2163 0 
L 2528 0 
L 2528 1510 
L 3309 1510 
L 3309 1805 
z
" transform="scale(0.015625)"/>
      </defs>
      <use xlink:href="#NotoSerifCJKjp-ExtraLight-34"/>
     </g>
    </g>
   </g>
   <g id="text_5">
    <g id="patch_16">
     <path d="M 1759.065991 797.211802 
L 1764.961255 799.691696 
Q 1768.27961 801.087591 1769.675505 797.769236 
L 1774.607667 786.044383 
Q 1776.003562 782.726029 1772.685207 781.330134 
L 1766.789943 778.850239 
Q 1763.471588 777.454344 1762.075693 780.772699 
L 1757.143531 792.497552 
Q 1755.747636 795.815907 1759.065991 797.211802 
z
" clip-path="url(#p89752752cd)" style="fill: #ffffff; stroke: #ffffff; stroke-linejoin: miter"/>
    </g>
    <g clip-path="url(#p89752752cd)">
     <!-- 2 -->
     <g transform="translate(1761.671661 791.01754) rotate(-337.185518) scale(0.12 -0.12)">
      <defs>
       <path id="NotoSerifCJKjp-ExtraLight-32" d="M 646 358 
C 1069 838 1472 1299 1645 1491 
C 2560 2515 2886 2970 2886 3520 
C 2886 4250 2458 4717 1638 4717 
C 1024 4717 486 4397 326 3821 
C 371 3725 454 3667 550 3667 
C 672 3667 755 3750 819 3949 
L 1005 4422 
C 1197 4499 1363 4525 1542 4525 
C 2144 4525 2483 4096 2483 3514 
C 2483 2995 2214 2547 1536 1715 
C 1222 1344 787 806 339 275 
L 339 0 
L 3104 0 
L 3104 358 
L 646 358 
z
" transform="scale(0.015625)"/>
      </defs>
      <use xlink:href="#NotoSerifCJKjp-ExtraLight-32"/>
     </g>
    </g>
   </g>
   <g id="text_6">
    <g id="patch_17">
     <path d="M 1953.582896 798.145549 
L 1959.784053 799.710691 
Q 1963.27459 800.591686 1964.155585 797.101149 
L 1967.268434 784.767919 
Q 1968.149429 781.277382 1964.658892 780.396387 
L 1958.457735 778.831244 
Q 1954.967198 777.950249 1954.086203 781.440786 
L 1950.973354 793.774017 
Q 1950.092359 797.264554 1953.582896 798.145549 
z
" clip-path="url(#p89752752cd)" style="fill: #ffffff; stroke: #ffffff; stroke-linejoin: miter"/>
    </g>
    <g clip-path="url(#p89752752cd)">
     <!-- 1 -->
     <g transform="translate(1955.22742 791.62988) rotate(-345.834665) scale(0.12 -0.12)">
      <defs>
       <path id="NotoSerifCJKjp-ExtraLight-31" d="M 1997 250 
C 1990 659 1984 1062 1984 1459 
L 1984 3616 
L 2010 4614 
L 1914 4691 
L 614 4346 
L 614 4160 
L 1600 4333 
L 1600 1459 
C 1600 1062 1594 653 1587 250 
L 544 173 
L 544 0 
L 3002 0 
L 3002 173 
L 1997 250 
z
" transform="scale(0.015625)"/>
      </defs>
      <use xlink:href="#NotoSerifCJKjp-ExtraLight-31"/>
     </g>
    </g>
   </g>
   <g id="text_7">
    <g id="patch_18">
     <path d="M 1852.538246 542.202187 
L 1852.538246 548.597812 
Q 1852.538246 552.197812 1856.138246 552.197812 
L 1868.858246 552.197812 
Q 1872.458246 552.197812 1872.458246 548.597812 
L 1872.458246 542.202187 
Q 1872.458246 538.602187 1868.858246 538.602187 
L 1856.138246 538.602187 
Q 1852.538246 538.602187 1852.538246 542.202187 
z
" clip-path="url(#p89752752cd)" style="fill: #ffffff; stroke: #ffffff; stroke-linejoin: miter"/>
    </g>
    <g clip-path="url(#p89752752cd)">
     <!-- 4 -->
     <g transform="translate(1859.258246 542.202187) rotate(-270) scale(0.12 -0.12)">
      <use xlink:href="#NotoSerifCJKjp-ExtraLight-34"/>
     </g>
    </g>
   </g>
   <g id="text_8">
    <g id="patch_19">
     <path d="M 1671.863528 555.529783 
L 1677.2724 552.116849 
Q 1680.316972 550.19576 1678.395883 547.151188 
L 1671.608036 536.393701 
Q 1669.686948 533.349129 1666.642376 535.270217 
L 1661.233503 538.683151 
Q 1658.188932 540.60424 1660.11002 543.648812 
L 1666.897867 554.406299 
Q 1668.818956 557.450871 1671.863528 555.529783 
z
" clip-path="url(#p89752752cd)" style="fill: #ffffff; stroke: #ffffff; stroke-linejoin: miter"/>
    </g>
    <g clip-path="url(#p89752752cd)">
     <!-- 2 -->
     <g transform="translate(1668.277495 549.846582) rotate(-32.251438) scale(0.12 -0.12)">
      <use xlink:href="#NotoSerifCJKjp-ExtraLight-32"/>
     </g>
    </g>
   </g>
   <g id="text_9">
    <g id="patch_20">
     <path d="M 2047.724093 552.116849 
L 2053.132965 555.529783 
Q 2056.177537 557.450871 2058.098626 554.4063 
L 2064.886473 543.648812 
Q 2066.807561 540.60424 2063.762989 538.683151 
L 2058.354117 535.270217 
Q 2055.309545 533.349129 2053.388457 536.3937 
L 2046.60061 547.151188 
Q 2044.679521 550.19576 2047.724093 552.116849 
z
" clip-path="url(#p89752752cd)" style="fill: #ffffff; stroke: #ffffff; stroke-linejoin: miter"/>
    </g>
    <g clip-path="url(#p89752752cd)">
     <!-- 1 -->
     <g transform="translate(2051.310125 546.433648) rotate(-327.748561) scale(0.12 -0.12)">
      <use xlink:href="#NotoSerifCJKjp-ExtraLight-31"/>
     </g>
    </g>
   </g>
   <g id="text_10">
    <g id="patch_21">
     <path d="M 1852.538246 298.33122 
L 1852.538246 304.726845 
Q 1852.538246 308.326845 1856.138246 308.326845 
L 1868.858246 308.326845 
Q 1872.458246 308.326845 1872.458246 304.726845 
L 1872.458246 298.33122 
Q 1872.458246 294.73122 1868.858246 294.73122 
L 1856.138246 294.73122 
Q 1852.538246 294.73122 1852.538246 298.33122 
z
" clip-path="url(#p89752752cd)" style="fill: #ffffff; stroke: #ffffff; stroke-linejoin: miter"/>
    </g>
    <g clip-path="url(#p89752752cd)">
     <!-- 3 -->
     <g transform="translate(1859.258246 298.33122) rotate(-270) scale(0.12 -0.12)">
      <use xlink:href="#NotoSerifCJKjp-ExtraLight-33"/>
     </g>
    </g>
   </g>
   <g id="matplotlib.axis_1">
    <g id="xtick_1"/>
    <g id="xtick_2"/>
    <g id="xtick_3"/>
    <g id="xtick_4"/>
    <g id="xtick_5"/>
    <g id="xtick_6"/>
   </g>
   <g id="matplotlib.axis_2">
    <g id="ytick_1"/>
    <g id="ytick_2"/>
    <g id="ytick_3"/>
    <g id="ytick_4"/>
   </g>
   <g id="PathCollection_1">
    <defs>
     <path id="m7ba48a2844" d="M 0 15 
C 3.978047 15 7.793698 13.419505 10.606602 10.606602 
C 13.419505 7.793698 15 3.978047 15 0 
C 15 -3.978047 13.419505 -7.793698 10.606602 -10.606602 
C 7.793698 -13.419505 3.978047 -15 0 -15 
C -3.978047 -15 -7.793698 -13.419505 -10.606602 -10.606602 
C -13.419505 -7.793698 -15 -3.978047 -15 0 
C -15 3.978047 -13.419505 7.793698 -10.606602 10.606602 
C -7.793698 13.419505 -3.978047 15 0 15 
z
" style="stroke: #add8e6; stroke-opacity: 0.85"/>
    </defs>
    <g clip-path="url(#p89752752cd)">
     <use xlink:href="#m7ba48a2844" x="1476.007657" y="667.335484" style="fill: #add8e6; fill-opacity: 0.85; stroke: #add8e6; stroke-opacity: 0.85"/>
     <use xlink:href="#m7ba48a2844" x="509.766598" y="911.206452" style="fill: #add8e6; fill-opacity: 0.85; stroke: #add8e6; stroke-opacity: 0.85"/>
     <use xlink:href="#m7ba48a2844" x="896.271773" y="911.206452" style="fill: #add8e6; fill-opacity: 0.85; stroke: #add8e6; stroke-opacity: 0.85"/>
     <use xlink:href="#m7ba48a2844" x="1282.762362" y="911.206452" style="fill: #add8e6; fill-opacity: 0.85; stroke: #add8e6; stroke-opacity: 0.85"/>
     <use xlink:href="#m7ba48a2844" x="1669.252952" y="911.206452" style="fill: #add8e6; fill-opacity: 0.85; stroke: #add8e6; stroke-opacity: 0.85"/>
     <use xlink:href="#m7ba48a2844" x="2055.743541" y="911.206452" style="fill: #add8e6; fill-opacity: 0.85; stroke: #add8e6; stroke-opacity: 0.85"/>
     <use xlink:href="#m7ba48a2844" x="2442.234131" y="911.206452" style="fill: #add8e6; fill-opacity: 0.85; stroke: #add8e6; stroke-opacity: 0.85"/>
     <use xlink:href="#m7ba48a2844" x="1862.498246" y="423.464516" style="fill: #add8e6; fill-opacity: 0.85; stroke: #add8e6; stroke-opacity: 0.85"/>
     <use xlink:href="#m7ba48a2844" x="1862.498246" y="667.335484" style="fill: #add8e6; fill-opacity: 0.85; stroke: #add8e6; stroke-opacity: 0.85"/>
     <use xlink:href="#m7ba48a2844" x="2248.988836" y="667.335484" style="fill: #add8e6; fill-opacity: 0.85; stroke: #add8e6; stroke-opacity: 0.85"/>
     <use xlink:href="#m7ba48a2844" x="1862.498246" y="179.593548" style="fill: #add8e6; fill-opacity: 0.85; stroke: #add8e6; stroke-opacity: 0.85"/>
    </g>
   </g>
   <g id="text_11">
    <g clip-path="url(#p89752752cd)">
     <!-- 金仲祥 -->
     <g transform="translate(1458.007657 663.255484) scale(0.12 -0.12)">
      <defs>
       <path id="NotoSerifCJKjp-ExtraLight-91d1" d="M 5242 -102 
L 3322 -102 
L 3322 1818 
L 5606 1818 
C 5696 1818 5747 1850 5766 1920 
C 5574 2093 5274 2323 5274 2323 
L 4998 2003 
L 3322 2003 
L 3322 3053 
L 4570 3053 
C 4659 3053 4717 3085 4736 3155 
C 4544 3322 4256 3533 4256 3533 
L 4006 3238 
L 1568 3238 
L 1619 3053 
L 3040 3053 
L 3040 2003 
L 678 2003 
L 736 1818 
L 3040 1818 
L 3040 -102 
L 384 -102 
L 442 -288 
L 5856 -288 
C 5946 -288 6010 -256 6029 -186 
C 5824 -6 5510 243 5510 243 
L 5242 -102 
z
M 1427 1510 
C 1683 1178 1990 634 2029 224 
C 2355 -70 2643 749 1517 1549 
L 1427 1510 
z
M 3955 96 
C 4243 390 4576 845 4845 1274 
C 4966 1254 5043 1306 5075 1370 
L 4595 1581 
C 4378 1069 4083 506 3853 160 
L 3955 96 
z
M 3021 5389 
C 2643 4499 1280 3258 218 2701 
L 262 2598 
C 1434 3162 2656 4198 3258 5062 
C 3757 4205 4781 3334 5850 2810 
C 5888 2912 6016 2989 6150 3002 
L 6163 3098 
C 4992 3603 3962 4358 3386 5146 
C 3526 5152 3610 5184 3616 5254 
L 3021 5389 
z
" transform="scale(0.015625)"/>
       <path id="NotoSerifCJKjp-ExtraLight-4ef2" d="M 1741 5331 
C 1395 4122 813 2918 250 2163 
L 346 2093 
C 627 2400 902 2784 1158 3213 
L 1158 -467 
L 1210 -467 
C 1318 -467 1440 -384 1446 -358 
L 1446 3482 
C 1549 3494 1613 3539 1632 3597 
L 1414 3680 
C 1638 4109 1843 4576 2010 5043 
C 2150 5037 2227 5094 2253 5165 
L 1741 5331 
z
M 4141 2022 
L 4141 3814 
L 5568 3814 
L 5568 2022 
L 4141 2022 
z
M 2464 2022 
L 2464 3814 
L 3859 3814 
L 3859 2022 
L 2464 2022 
z
M 5696 4211 
L 5504 4006 
L 4141 4006 
L 4141 4992 
C 4333 5011 4397 5088 4422 5197 
L 3859 5267 
L 3859 4006 
L 2496 4006 
L 2182 4166 
L 2182 1370 
L 2234 1370 
C 2355 1370 2464 1440 2464 1472 
L 2464 1837 
L 3859 1837 
L 3859 -461 
L 3923 -461 
C 4019 -461 4141 -390 4141 -333 
L 4141 1837 
L 5568 1837 
L 5568 1434 
L 5606 1434 
C 5702 1434 5843 1510 5850 1549 
L 5850 3750 
C 5978 3776 6086 3827 6131 3878 
L 5696 4211 
z
" transform="scale(0.015625)"/>
       <path id="NotoSerifCJKjp-ExtraLight-7965" d="M 3053 5261 
C 3277 4966 3565 4480 3616 4122 
C 3962 3840 4250 4614 3136 5299 
L 3053 5261 
z
M 2304 4333 
L 2074 4115 
L 1670 4115 
L 1670 5082 
C 1824 5101 1894 5165 1907 5254 
L 1389 5312 
L 1389 4115 
L 307 4115 
L 365 3930 
L 2067 3930 
C 1690 3130 896 2150 160 1581 
L 250 1504 
C 646 1773 1050 2125 1408 2509 
L 1408 -474 
L 1453 -474 
C 1581 -474 1690 -397 1690 -358 
L 1690 2688 
C 1965 2477 2259 2176 2362 1939 
C 2720 1754 2874 2445 1696 2829 
C 1990 3181 2240 3552 2406 3898 
C 2554 3904 2637 3917 2694 3955 
L 2304 4333 
z
M 5427 1357 
L 4467 1357 
L 4467 2566 
L 5773 2566 
C 5862 2566 5920 2598 5939 2669 
C 5747 2842 5453 3078 5453 3078 
L 5190 2758 
L 4467 2758 
L 4467 3776 
L 5920 3776 
C 6010 3776 6074 3808 6086 3878 
C 5901 4051 5606 4288 5606 4288 
L 5338 3968 
L 4781 3968 
C 5030 4314 5286 4749 5446 5069 
C 5581 5062 5658 5120 5683 5197 
L 5158 5344 
C 5030 4928 4813 4371 4621 3968 
L 2765 3968 
L 2810 3776 
L 4186 3776 
L 4186 2758 
L 2816 2758 
L 2867 2566 
L 4186 2566 
L 4186 1357 
L 2496 1357 
L 2547 1165 
L 4186 1165 
L 4186 -454 
L 4224 -454 
C 4371 -454 4467 -371 4467 -346 
L 4467 1165 
L 6016 1165 
C 6099 1165 6157 1197 6176 1267 
C 5990 1446 5696 1677 5696 1677 
L 5427 1357 
z
" transform="scale(0.015625)"/>
      </defs>
      <use xlink:href="#NotoSerifCJKjp-ExtraLight-91d1"/>
      <use xlink:href="#NotoSerifCJKjp-ExtraLight-4ef2" x="99.999985"/>
      <use xlink:href="#NotoSerifCJKjp-ExtraLight-7965" x="199.999969"/>
     </g>
    </g>
    <g clip-path="url(#p89752752cd)">
     <!--   -->
     <g transform="translate(1474.453282 677.895484) scale(0.12 -0.12)">
      <defs>
       <path id="NotoSerifCJKjp-ExtraLight-20" transform="scale(0.015625)"/>
      </defs>
      <use xlink:href="#NotoSerifCJKjp-ExtraLight-20"/>
     </g>
    </g>
   </g>
   <g id="text_12">
    <g clip-path="url(#p89752752cd)">
     <!-- 金積德 -->
     <g transform="translate(491.766598 907.126452) scale(0.12 -0.12)">
      <defs>
       <path id="NotoSerifCJKjp-ExtraLight-7a4d" d="M 1594 3232 
L 2355 3232 
C 2438 3232 2502 3264 2515 3334 
C 2342 3507 2054 3731 2054 3731 
L 1811 3424 
L 1594 3424 
L 1594 4704 
C 1830 4787 2042 4870 2208 4947 
C 2349 4902 2438 4909 2490 4966 
L 2067 5274 
C 1683 5011 909 4640 275 4448 
L 320 4339 
C 640 4403 992 4499 1312 4602 
L 1312 3424 
L 320 3424 
L 371 3232 
L 1203 3232 
C 998 2349 640 1485 128 813 
L 224 717 
C 698 1229 1056 1830 1312 2490 
L 1312 -467 
L 1350 -467 
C 1491 -467 1594 -390 1594 -358 
L 1594 2400 
C 1830 2170 2118 1837 2214 1587 
C 2534 1389 2733 2029 1594 2522 
L 1594 3232 
z
M 2125 -461 
C 2746 -320 3437 -90 3949 192 
C 4064 160 4122 173 4166 224 
L 3757 493 
C 3277 147 2605 -154 2042 -339 
L 2125 -461 
z
M 3283 864 
L 3283 1376 
L 5363 1376 
L 5363 864 
L 3283 864 
z
M 5363 2707 
L 5363 2227 
L 3283 2227 
L 3283 2707 
L 5363 2707 
z
M 5363 1562 
L 3283 1562 
L 3283 2035 
L 5363 2035 
L 5363 1562 
z
M 5402 480 
C 5498 480 5645 563 5651 602 
L 5651 2662 
C 5754 2682 5856 2733 5894 2771 
L 5485 3091 
L 5306 2893 
L 3315 2893 
L 3002 3053 
L 3002 410 
L 3053 410 
C 3174 410 3283 480 3283 512 
L 3283 672 
L 5363 672 
L 5363 480 
L 5402 480 
z
M 4595 333 
C 5152 102 5581 -166 5818 -403 
C 6150 -666 6675 -6 4640 442 
L 4595 333 
z
M 5472 3475 
L 4442 3475 
L 4442 3962 
L 5760 3962 
C 5850 3962 5907 3994 5920 4058 
C 5747 4218 5485 4410 5485 4410 
L 5254 4147 
L 4442 4147 
L 4442 4582 
L 5952 4582 
C 6042 4582 6099 4614 6118 4685 
C 5939 4858 5664 5075 5664 5075 
L 5421 4774 
L 4442 4774 
L 4442 5062 
C 4589 5082 4659 5146 4672 5235 
L 4154 5293 
L 4154 4774 
L 2637 4774 
L 2688 4582 
L 4154 4582 
L 4154 4147 
L 2816 4147 
L 2867 3962 
L 4154 3962 
L 4154 3475 
L 2509 3475 
L 2560 3283 
L 6035 3283 
C 6125 3283 6176 3315 6195 3386 
C 6016 3565 5722 3789 5722 3789 
L 5472 3475 
z
" transform="scale(0.015625)"/>
       <path id="NotoSerifCJKjp-ExtraLight-5fb7" d="M 4358 2669 
L 3648 2669 
L 3648 3603 
L 4358 3603 
L 4358 2669 
z
M 5363 3603 
L 5363 2669 
L 4640 2669 
L 4640 3603 
L 5363 3603 
z
M 2650 3603 
L 3366 3603 
L 3366 2669 
L 2650 2669 
L 2650 3603 
z
M 2029 4531 
L 2080 4346 
L 3846 4346 
C 3834 4141 3821 3949 3808 3789 
L 2726 3789 
L 2368 3955 
L 2368 2208 
L 2406 2208 
C 2554 2208 2650 2291 2650 2317 
L 2650 2477 
L 5363 2477 
L 5363 2291 
L 5402 2291 
C 5523 2291 5651 2368 5651 2394 
L 5651 3590 
C 5760 3610 5824 3635 5869 3680 
L 5498 3974 
L 5344 3789 
L 4038 3789 
C 4058 3955 4083 4147 4102 4346 
L 5990 4346 
C 6080 4346 6138 4378 6150 4448 
C 5965 4621 5670 4858 5670 4858 
L 5408 4531 
L 4122 4531 
C 4147 4730 4166 4934 4179 5107 
C 4307 5120 4378 5184 4390 5274 
L 3885 5312 
C 3878 5075 3866 4800 3853 4531 
L 2029 4531 
z
M 1638 5325 
C 1363 4813 794 4077 256 3603 
L 333 3520 
C 947 3942 1549 4576 1875 5030 
C 2016 4992 2067 5018 2112 5088 
L 1638 5325 
z
M 1594 4051 
C 1338 3373 800 2406 218 1773 
L 294 1690 
C 608 1965 896 2304 1152 2643 
L 1152 -474 
L 1210 -474 
C 1312 -474 1434 -390 1440 -365 
L 1440 2797 
C 1536 2816 1600 2854 1626 2912 
L 1402 3002 
C 1587 3277 1741 3539 1856 3763 
C 2003 3744 2061 3770 2099 3840 
L 1594 4051 
z
M 2445 1178 
C 2394 762 2106 371 1869 224 
C 1766 147 1709 38 1766 -45 
C 1837 -141 2022 -83 2144 19 
C 2349 186 2624 576 2566 1171 
L 2445 1178 
z
M 5005 704 
L 4915 704 
C 4877 403 4819 102 4781 13 
C 4762 -45 4742 -51 4678 -58 
C 4608 -64 4403 -64 4128 -64 
L 3558 -64 
C 3341 -64 3322 -51 3322 32 
L 3322 1158 
C 3430 1178 3494 1235 3501 1312 
L 3040 1376 
L 3040 -19 
C 3040 -243 3117 -320 3520 -320 
L 4134 -320 
C 5011 -320 5165 -269 5165 -134 
C 5165 -77 5133 -38 5024 -6 
L 5005 704 
z
M 3488 1600 
C 3763 1414 4115 1069 4211 787 
C 4538 602 4710 1293 3558 1664 
L 3488 1600 
z
M 4986 1280 
C 5344 973 5792 416 5875 -13 
C 6227 -275 6451 614 5062 1338 
L 4986 1280 
z
M 5408 1958 
L 2003 1958 
L 2054 1773 
L 5990 1773 
C 6080 1773 6138 1805 6150 1875 
C 5965 2042 5670 2266 5670 2266 
L 5408 1958 
z
" transform="scale(0.015625)"/>
      </defs>
      <use xlink:href="#NotoSerifCJKjp-ExtraLight-91d1"/>
      <use xlink:href="#NotoSerifCJKjp-ExtraLight-7a4d" x="99.999985"/>
      <use xlink:href="#NotoSerifCJKjp-ExtraLight-5fb7" x="199.999969"/>
     </g>
    </g>
    <g clip-path="url(#p89752752cd)">
     <!-- 司直 -->
     <g transform="translate(497.766598 921.766452) scale(0.12 -0.12)">
      <defs>
       <path id="NotoSerifCJKjp-ExtraLight-53f8" d="M 3936 3891 
L 442 3891 
L 493 3699 
L 4512 3699 
C 4602 3699 4666 3731 4685 3802 
C 4493 3981 4198 4205 4198 4205 
L 3936 3891 
z
M 1402 1139 
L 1402 2650 
L 3475 2650 
L 3475 1139 
L 1402 1139 
z
M 3603 3046 
L 3411 2835 
L 1434 2835 
L 1120 2995 
L 1120 205 
L 1171 205 
C 1293 205 1402 269 1402 301 
L 1402 954 
L 3475 954 
L 3475 422 
L 3514 422 
C 3610 422 3750 506 3757 544 
L 3757 2586 
C 3885 2611 3994 2662 4038 2714 
L 3603 3046 
z
M 5363 5210 
L 5203 4986 
L 595 4986 
L 653 4800 
L 5267 4800 
L 5267 115 
C 5267 -6 5222 -58 5062 -58 
C 4890 -58 4019 13 4019 13 
L 4019 -90 
C 4378 -134 4595 -179 4723 -237 
C 4826 -288 4870 -365 4890 -461 
C 5491 -397 5549 -192 5549 77 
L 5549 4736 
C 5677 4755 5786 4813 5830 4864 
L 5363 5210 
z
" transform="scale(0.015625)"/>
       <path id="NotoSerifCJKjp-ExtraLight-76f4" d="M 4678 3450 
L 4678 2771 
L 2362 2771 
L 2362 3450 
L 4678 3450 
z
M 2362 1005 
L 2362 1709 
L 4678 1709 
L 4678 1005 
L 2362 1005 
z
M 2362 2586 
L 4678 2586 
L 4678 1901 
L 2362 1901 
L 2362 2586 
z
M 2400 3635 
L 2086 3802 
L 2086 518 
L 2138 518 
C 2259 518 2362 589 2362 627 
L 2362 813 
L 4678 813 
L 4678 538 
L 4717 538 
C 4813 538 4954 621 4960 659 
L 4960 3386 
C 5088 3411 5197 3462 5242 3514 
L 4806 3853 
L 4614 3635 
L 3302 3635 
L 3360 4307 
L 5818 4307 
C 5907 4307 5971 4339 5990 4410 
C 5786 4595 5466 4845 5466 4845 
L 5184 4493 
L 3373 4493 
L 3424 5126 
C 3546 5146 3616 5210 3622 5293 
L 3123 5331 
C 3117 5075 3104 4781 3085 4493 
L 390 4493 
L 448 4307 
L 3078 4307 
C 3066 4058 3046 3821 3034 3635 
L 2400 3635 
z
M 5325 109 
L 1107 109 
L 1107 3290 
C 1267 3309 1325 3373 1344 3462 
L 826 3526 
L 826 -461 
L 883 -461 
C 992 -461 1107 -390 1107 -333 
L 1107 -83 
L 5965 -83 
C 6054 -83 6118 -51 6138 19 
C 5933 211 5613 454 5613 454 
L 5325 109 
z
" transform="scale(0.015625)"/>
      </defs>
      <use xlink:href="#NotoSerifCJKjp-ExtraLight-53f8"/>
      <use xlink:href="#NotoSerifCJKjp-ExtraLight-76f4" x="99.999985"/>
     </g>
    </g>
   </g>
   <g id="text_13">
    <g clip-path="url(#p89752752cd)">
     <!-- 金積善 -->
     <g transform="translate(878.271773 907.126452) scale(0.12 -0.12)">
      <defs>
       <path id="NotoSerifCJKjp-ExtraLight-5584" d="M 1651 38 
L 1651 1037 
L 4749 1037 
L 4749 38 
L 1651 38 
z
M 4691 1222 
L 1683 1222 
L 1370 1382 
L 1370 -467 
L 1414 -467 
C 1530 -467 1651 -397 1651 -371 
L 1651 -154 
L 4749 -154 
L 4749 -422 
L 4787 -422 
C 4877 -422 5024 -346 5030 -307 
L 5030 992 
C 5139 1011 5242 1062 5280 1101 
L 4870 1414 
L 4691 1222 
z
M 3053 2746 
L 3053 1933 
L 2150 1933 
C 2317 2029 2317 2451 1677 2746 
L 3053 2746 
z
M 4410 2746 
C 4314 2496 4160 2170 4019 1933 
L 3334 1933 
L 3334 2746 
L 4410 2746 
z
M 5338 1933 
L 4211 1933 
C 4397 2106 4582 2323 4704 2490 
C 4838 2490 4915 2541 4941 2618 
L 4486 2746 
L 5779 2746 
C 5869 2746 5926 2771 5946 2842 
C 5760 3021 5472 3245 5472 3245 
L 5216 2931 
L 3334 2931 
L 3334 3546 
L 5158 3546 
C 5242 3546 5299 3578 5312 3642 
C 5146 3814 4870 4032 4870 4032 
L 4627 3731 
L 3334 3731 
L 3334 4333 
L 5498 4333 
C 5587 4333 5645 4365 5664 4435 
C 5478 4608 5190 4838 5190 4838 
L 4934 4518 
L 3974 4518 
C 4166 4691 4365 4890 4486 5062 
C 4627 5056 4710 5101 4742 5178 
L 4218 5338 
C 4102 5088 3936 4762 3776 4518 
L 2323 4518 
C 2496 4627 2470 5094 1734 5325 
L 1664 5280 
C 1869 5107 2080 4800 2106 4544 
C 2118 4531 2131 4525 2144 4518 
L 762 4518 
L 819 4333 
L 3053 4333 
L 3053 3731 
L 1133 3731 
L 1184 3546 
L 3053 3546 
L 3053 2931 
L 512 2931 
L 570 2746 
L 1574 2746 
L 1542 2726 
C 1722 2541 1920 2221 1939 1965 
C 1958 1952 1971 1939 1990 1933 
L 307 1933 
L 365 1747 
L 5920 1747 
C 6010 1747 6067 1779 6086 1850 
C 5894 2022 5600 2259 5600 2259 
L 5338 1933 
z
" transform="scale(0.015625)"/>
      </defs>
      <use xlink:href="#NotoSerifCJKjp-ExtraLight-91d1"/>
      <use xlink:href="#NotoSerifCJKjp-ExtraLight-7a4d" x="99.999985"/>
      <use xlink:href="#NotoSerifCJKjp-ExtraLight-5584" x="199.999969"/>
     </g>
    </g>
    <g clip-path="url(#p89752752cd)">
     <!-- 司直 -->
     <g transform="translate(884.271773 921.766452) scale(0.12 -0.12)">
      <use xlink:href="#NotoSerifCJKjp-ExtraLight-53f8"/>
      <use xlink:href="#NotoSerifCJKjp-ExtraLight-76f4" x="99.999985"/>
     </g>
    </g>
   </g>
   <g id="text_14">
    <g clip-path="url(#p89752752cd)">
     <!-- 金積海 -->
     <g transform="translate(1264.762362 907.126452) scale(0.12 -0.12)">
      <defs>
       <path id="NotoSerifCJKjp-ExtraLight-6d77" d="M 1978 3066 
C 2317 3360 2637 3770 2899 4250 
L 5958 4250 
C 6048 4250 6112 4282 6125 4352 
C 5939 4525 5645 4762 5645 4762 
L 5376 4442 
L 3002 4442 
C 3104 4634 3194 4838 3270 5043 
C 3405 5030 3482 5088 3507 5158 
L 3014 5325 
C 2765 4454 2330 3642 1888 3142 
L 1978 3066 
z
M 774 5203 
C 1069 5030 1427 4698 1542 4435 
C 1926 4243 2074 5011 838 5267 
L 774 5203 
z
M 269 3731 
C 570 3578 922 3258 1037 2995 
C 1414 2803 1555 3597 333 3795 
L 269 3731 
z
M 1990 4128 
C 928 1638 928 1638 826 1421 
C 768 1293 749 1286 678 1286 
L 403 1286 
L 403 1139 
C 538 1126 627 1114 704 1056 
C 845 966 883 493 806 -160 
C 806 -346 851 -474 954 -474 
C 1126 -474 1216 -326 1229 -70 
C 1254 435 1101 762 1101 1030 
C 1101 1178 1139 1370 1197 1555 
C 1293 1843 1843 3309 2118 4096 
L 1990 4128 
z
M 3898 806 
C 3949 1139 4000 1574 4058 2016 
L 5114 2016 
C 5075 1536 5030 1126 4979 806 
L 3898 806 
z
M 3776 2016 
C 3718 1574 3661 1146 3610 806 
L 2541 806 
C 2618 1190 2688 1613 2758 2016 
L 3776 2016 
z
M 3942 3379 
C 3904 3040 3859 2624 3802 2208 
L 2790 2208 
C 2867 2650 2938 3066 2982 3379 
L 3942 3379 
z
M 5190 3379 
C 5178 2957 5152 2566 5126 2208 
L 4077 2208 
C 4128 2624 4173 3034 4205 3379 
L 5190 3379 
z
M 6118 2016 
C 6202 2016 6259 2048 6278 2118 
C 6093 2298 5792 2528 5792 2528 
L 5530 2208 
L 5408 2208 
C 5434 2560 5453 2944 5466 3354 
C 5606 3366 5683 3398 5722 3450 
L 5312 3789 
L 5126 3571 
L 3098 3571 
L 2746 3738 
C 2688 3347 2605 2797 2496 2208 
L 1594 2208 
L 1645 2016 
L 2464 2016 
C 2349 1357 2214 672 2093 128 
C 2259 90 2342 96 2413 141 
C 2445 288 2477 448 2509 621 
L 4941 621 
C 4883 320 4813 122 4730 45 
C 4653 -26 4602 -45 4467 -45 
C 4333 -45 3878 6 3616 32 
L 3610 -96 
C 3834 -128 4102 -173 4192 -230 
C 4275 -282 4301 -371 4301 -461 
C 4538 -461 4781 -378 4941 -186 
C 5056 -58 5152 218 5229 621 
L 6035 621 
C 6125 621 6182 653 6195 717 
C 6022 902 5722 1146 5722 1146 
L 5466 806 
L 5261 806 
C 5318 1139 5363 1549 5395 2016 
L 6118 2016 
z
" transform="scale(0.015625)"/>
      </defs>
      <use xlink:href="#NotoSerifCJKjp-ExtraLight-91d1"/>
      <use xlink:href="#NotoSerifCJKjp-ExtraLight-7a4d" x="99.999985"/>
      <use xlink:href="#NotoSerifCJKjp-ExtraLight-6d77" x="199.999969"/>
     </g>
    </g>
    <g clip-path="url(#p89752752cd)">
     <!--   -->
     <g transform="translate(1281.207987 921.766452) scale(0.12 -0.12)">
      <use xlink:href="#NotoSerifCJKjp-ExtraLight-20"/>
     </g>
    </g>
   </g>
   <g id="text_15">
    <g clip-path="url(#p89752752cd)">
     <!-- 金積祿 -->
     <g transform="translate(1651.252952 907.126452) scale(0.12 -0.12)">
      <defs>
       <path id="NotoSerifCJKjp-ExtraLight-797f" d="M 2406 4678 
C 2496 4678 2560 4710 2573 4781 
C 2374 4954 2074 5178 2074 5178 
L 1811 4870 
L 467 4870 
L 518 4678 
L 2406 4678 
z
M 576 2074 
C 576 1498 544 774 269 250 
L 378 173 
C 781 710 845 1485 845 2067 
L 845 2854 
C 1005 2874 1050 2931 1069 3014 
L 576 3072 
L 576 2074 
z
M 2573 3546 
C 2662 3546 2726 3578 2739 3642 
C 2560 3821 2272 4051 2272 4051 
L 2010 3731 
L 288 3731 
L 339 3546 
L 1312 3546 
L 1312 -461 
L 1350 -461 
C 1498 -461 1594 -378 1594 -352 
L 1594 3546 
L 2573 3546 
z
M 2022 3085 
L 2022 435 
L 2080 435 
C 2189 435 2310 506 2310 557 
L 2310 2867 
C 2445 2886 2502 2944 2515 3027 
L 2022 3085 
z
M 3475 3846 
C 3552 4090 3635 4352 3706 4582 
L 4954 4582 
L 4768 3846 
L 3475 3846 
z
M 5600 2515 
C 5453 2272 5120 1824 4845 1523 
C 4666 1856 4525 2259 4442 2765 
L 5971 2765 
C 6061 2765 6118 2790 6138 2861 
C 5971 3046 5690 3290 5690 3290 
L 5446 2950 
L 4845 2950 
L 5261 4570 
C 5363 4576 5427 4595 5466 4640 
L 5126 4954 
L 4941 4774 
L 3757 4774 
C 3795 4896 3821 5005 3846 5094 
C 4006 5107 4064 5165 4083 5254 
L 3610 5325 
C 3520 4851 3213 3776 3021 3328 
C 3136 3290 3245 3290 3302 3328 
C 3334 3430 3373 3539 3411 3654 
L 4717 3654 
L 4538 2950 
L 2630 2950 
L 2682 2765 
L 4147 2765 
L 4147 1485 
C 3469 1037 2790 602 2509 448 
L 2797 128 
C 2848 160 2874 230 2874 301 
C 3411 710 3840 1082 4147 1338 
L 4147 64 
C 4147 -32 4115 -64 4000 -64 
C 3866 -64 3200 -13 3200 -13 
L 3200 -115 
C 3488 -147 3654 -186 3750 -243 
C 3834 -294 3872 -384 3885 -467 
C 4365 -410 4422 -205 4422 51 
L 4422 2355 
C 4666 1075 5171 474 5894 -19 
C 5939 122 6035 218 6144 230 
L 6157 294 
C 5677 544 5229 870 4902 1427 
C 5235 1664 5600 1978 5798 2182 
C 5920 2144 6016 2195 6042 2246 
L 5600 2515 
z
M 2778 2419 
C 3027 2202 3334 1824 3430 1542 
C 3770 1325 4000 2029 2854 2470 
L 2778 2419 
z
" transform="scale(0.015625)"/>
      </defs>
      <use xlink:href="#NotoSerifCJKjp-ExtraLight-91d1"/>
      <use xlink:href="#NotoSerifCJKjp-ExtraLight-7a4d" x="99.999985"/>
      <use xlink:href="#NotoSerifCJKjp-ExtraLight-797f" x="199.999969"/>
     </g>
    </g>
    <g clip-path="url(#p89752752cd)">
     <!-- 司正 -->
     <g transform="translate(1657.252952 921.766452) scale(0.12 -0.12)">
      <defs>
       <path id="NotoSerifCJKjp-ExtraLight-6b63" d="M 5325 19 
L 3373 19 
L 3373 2374 
L 5402 2374 
C 5491 2374 5555 2406 5574 2477 
C 5370 2662 5056 2906 5056 2906 
L 4781 2566 
L 3373 2566 
L 3373 4589 
L 5741 4589 
C 5830 4589 5888 4621 5907 4691 
C 5709 4877 5382 5126 5382 5126 
L 5101 4781 
L 518 4781 
L 576 4589 
L 3091 4589 
L 3091 19 
L 1594 19 
L 1594 2989 
C 1747 3014 1811 3078 1830 3168 
L 1312 3226 
L 1312 19 
L 294 19 
L 352 -173 
L 5965 -173 
C 6054 -173 6112 -141 6131 -70 
C 5926 122 5606 365 5606 365 
L 5325 19 
z
" transform="scale(0.015625)"/>
      </defs>
      <use xlink:href="#NotoSerifCJKjp-ExtraLight-53f8"/>
      <use xlink:href="#NotoSerifCJKjp-ExtraLight-6b63" x="99.999985"/>
     </g>
    </g>
   </g>
   <g id="text_16">
    <g clip-path="url(#p89752752cd)">
     <!-- 金積學 -->
     <g transform="translate(2037.743541 907.126452) scale(0.12 -0.12)">
      <defs>
       <path id="NotoSerifCJKjp-ExtraLight-5b78" d="M 3642 4205 
C 3565 4077 3462 3942 3341 3814 
C 3200 3891 3021 3968 2797 4032 
L 2739 3962 
C 2880 3885 3040 3776 3187 3654 
C 2989 3469 2765 3302 2547 3168 
L 2618 3066 
C 2867 3181 3123 3334 3354 3501 
C 3462 3386 3546 3270 3590 3155 
C 3814 3027 3930 3347 3552 3661 
C 3661 3763 3757 3866 3834 3962 
C 3942 3930 4013 3942 4045 4006 
L 3642 4205 
z
M 2598 4192 
C 2835 4301 3078 4454 3290 4614 
C 3398 4512 3488 4410 3546 4320 
C 3744 4218 3853 4493 3475 4774 
C 3571 4858 3654 4947 3718 5030 
C 3827 4998 3904 5011 3936 5075 
L 3533 5280 
C 3462 5158 3366 5030 3251 4909 
C 3130 4973 2970 5037 2778 5088 
L 2714 5011 
C 2842 4947 2976 4858 3110 4762 
C 2931 4582 2726 4422 2528 4294 
L 2598 4192 
z
M 5446 2810 
C 5363 2624 5254 2400 5178 2272 
L 5274 2221 
C 5453 2355 5715 2598 5850 2771 
C 5971 2771 6048 2778 6093 2822 
L 5677 3226 
L 5453 3002 
L 5197 3002 
L 5331 4819 
C 5434 4832 5491 4845 5530 4883 
L 5178 5216 
L 4998 5018 
L 4051 5018 
L 4109 4832 
L 5043 4832 
L 5005 4352 
L 4096 4352 
L 4154 4160 
L 4992 4160 
L 4954 3674 
L 4090 3674 
L 4147 3488 
L 4941 3488 
L 4902 3002 
L 1485 3002 
L 1466 3488 
L 2355 3488 
C 2432 3488 2490 3520 2509 3590 
C 2362 3731 2144 3910 2144 3910 
L 1946 3674 
L 1459 3674 
L 1434 4160 
L 2310 4160 
C 2387 4160 2445 4192 2464 4262 
C 2330 4410 2106 4576 2106 4576 
L 1926 4352 
L 1427 4352 
L 1402 4826 
C 1741 4877 2093 4973 2317 5043 
C 2394 5011 2458 5018 2483 5050 
L 2131 5344 
C 1984 5254 1741 5120 1504 5005 
L 1101 5139 
L 1197 3002 
L 947 3002 
C 941 3072 934 3142 922 3219 
L 819 3219 
C 800 2790 557 2509 416 2419 
C 102 2227 326 1946 621 2118 
C 813 2234 934 2477 954 2810 
L 5446 2810 
z
M 5254 1178 
L 3347 1178 
L 3347 1414 
C 3494 1440 3552 1485 3571 1568 
L 3552 1568 
C 3968 1696 4410 1894 4717 2048 
C 4845 2054 4928 2067 4979 2106 
L 4576 2483 
L 4352 2266 
L 1472 2266 
L 1523 2074 
L 4186 2074 
C 3955 1907 3667 1728 3392 1594 
L 3066 1632 
L 3066 1178 
L 371 1178 
L 429 992 
L 3066 992 
L 3066 51 
C 3066 -51 3034 -83 2906 -83 
C 2778 -83 2080 -38 2080 -38 
L 2080 -141 
C 2368 -173 2547 -211 2643 -262 
C 2733 -314 2771 -397 2784 -486 
C 3290 -435 3347 -250 3347 26 
L 3347 992 
L 5850 992 
C 5939 992 5997 1024 6016 1088 
C 5824 1274 5517 1510 5517 1510 
L 5254 1178 
z
" transform="scale(0.015625)"/>
      </defs>
      <use xlink:href="#NotoSerifCJKjp-ExtraLight-91d1"/>
      <use xlink:href="#NotoSerifCJKjp-ExtraLight-7a4d" x="99.999985"/>
      <use xlink:href="#NotoSerifCJKjp-ExtraLight-5b78" x="199.999969"/>
     </g>
    </g>
    <g clip-path="url(#p89752752cd)">
     <!-- 護軍 -->
     <g transform="translate(2043.743541 921.766452) scale(0.12 -0.12)">
      <defs>
       <path id="NotoSerifCJKjp-ExtraLight-8b77" d="M 4096 3200 
L 3110 3200 
L 3110 3610 
L 4096 3610 
L 4096 3200 
z
M 4096 2592 
L 3110 2592 
L 3110 3014 
L 4096 3014 
L 4096 2592 
z
M 4096 1965 
L 3110 1965 
L 3110 2400 
L 4096 2400 
L 4096 1965 
z
M 2470 4627 
L 3373 4627 
L 3373 4314 
L 3162 4403 
C 2925 3782 2573 3174 2259 2790 
L 2355 2726 
C 2515 2867 2682 3046 2835 3245 
L 2835 1466 
L 2874 1466 
C 3008 1466 3110 1542 3110 1574 
L 3110 1779 
L 5894 1779 
C 5984 1779 6042 1811 6061 1882 
C 5888 2042 5626 2253 5626 2253 
L 5389 1965 
L 4384 1965 
L 4384 2400 
L 5555 2400 
C 5638 2400 5696 2432 5715 2502 
C 5542 2656 5293 2835 5293 2835 
L 5069 2592 
L 4384 2592 
L 4384 3014 
L 5542 3014 
C 5632 3014 5690 3046 5709 3117 
C 5536 3264 5293 3450 5293 3450 
L 5069 3200 
L 4384 3200 
L 4384 3610 
L 5702 3610 
C 5786 3610 5843 3642 5856 3712 
C 5702 3872 5440 4077 5440 4077 
L 5216 3802 
L 4294 3802 
C 4365 3898 4435 4000 4480 4083 
C 4608 4083 4691 4134 4710 4218 
L 4218 4326 
C 4186 4186 4134 3968 4096 3802 
L 3213 3802 
C 3270 3904 3328 4006 3379 4109 
C 3514 4090 3590 4147 3616 4211 
L 3450 4282 
C 3552 4288 3654 4352 3654 4397 
L 3654 4627 
L 4717 4627 
L 4717 4282 
L 4774 4282 
C 4877 4282 4998 4352 4998 4397 
L 4998 4627 
L 5971 4627 
C 6054 4627 6118 4659 6131 4730 
C 5958 4896 5683 5114 5683 5114 
L 5440 4819 
L 4998 4819 
L 4998 5120 
C 5139 5139 5203 5197 5216 5280 
L 4717 5331 
L 4717 4819 
L 3654 4819 
L 3654 5120 
C 3795 5139 3859 5197 3872 5280 
L 3373 5331 
L 3373 4819 
L 2419 4819 
L 2470 4627 
z
M 1670 3296 
L 512 3296 
L 563 3110 
L 2150 3110 
C 2240 3110 2298 3142 2310 3206 
C 2150 3366 1901 3571 1901 3571 
L 1670 3296 
z
M 2170 4717 
C 2259 4717 2317 4749 2336 4819 
C 2157 4986 1882 5210 1882 5210 
L 1638 4902 
L 506 4902 
L 557 4717 
L 2170 4717 
z
M 1888 4102 
L 256 4102 
L 301 3917 
L 2432 3917 
C 2522 3917 2579 3949 2598 4019 
C 2419 4186 2138 4416 2138 4416 
L 1888 4102 
z
M 2150 2298 
C 2240 2298 2298 2330 2310 2394 
C 2150 2554 1901 2758 1901 2758 
L 1670 2483 
L 512 2483 
L 563 2298 
L 2150 2298 
z
M 826 275 
L 826 1491 
L 1856 1491 
L 1856 275 
L 826 275 
z
M 1978 1888 
L 1792 1677 
L 858 1677 
L 544 1837 
L 544 -474 
L 589 -474 
C 704 -474 826 -403 826 -371 
L 826 90 
L 1856 90 
L 1856 -230 
L 1894 -230 
C 1984 -230 2131 -160 2138 -122 
L 2138 1427 
C 2266 1453 2368 1504 2413 1549 
L 1978 1888 
z
M 5158 1133 
C 4922 838 4608 589 4230 371 
C 3846 570 3526 826 3296 1133 
L 5158 1133 
z
M 5472 1523 
L 5242 1325 
L 2534 1325 
L 2592 1133 
L 3123 1133 
C 3334 768 3629 474 3981 237 
C 3462 -26 2848 -218 2189 -352 
L 2240 -467 
C 2989 -346 3648 -160 4205 96 
C 4666 -166 5216 -352 5843 -480 
C 5882 -346 5978 -256 6106 -243 
L 6112 -173 
C 5517 -96 4966 45 4493 250 
C 4922 480 5274 768 5549 1114 
C 5709 1114 5779 1133 5830 1184 
L 5472 1523 
z
" transform="scale(0.015625)"/>
       <path id="NotoSerifCJKjp-ExtraLight-8ecd" d="M 5389 4685 
C 5293 4467 5165 4198 5062 4032 
L 5158 3987 
C 5363 4147 5645 4435 5786 4640 
C 5907 4646 5984 4653 6035 4698 
L 5619 5107 
L 5389 4870 
L 1203 4870 
C 1190 4966 1171 5062 1146 5171 
L 1030 5165 
C 1069 4678 845 4224 576 4051 
C 474 3981 410 3866 467 3763 
C 544 3654 736 3706 870 3821 
C 1037 3962 1216 4250 1210 4685 
L 5389 4685 
z
M 1568 1504 
L 1568 2150 
L 3046 2150 
L 3046 1504 
L 1568 1504 
z
M 3046 2963 
L 3046 2342 
L 1568 2342 
L 1568 2963 
L 3046 2963 
z
M 4806 2963 
L 4806 2342 
L 3328 2342 
L 3328 2963 
L 4806 2963 
z
M 3328 1504 
L 3328 2150 
L 4806 2150 
L 4806 1504 
L 3328 1504 
z
M 5312 672 
L 3328 672 
L 3328 1312 
L 4806 1312 
L 4806 1056 
L 4845 1056 
C 4934 1056 5082 1133 5088 1171 
L 5088 2899 
C 5216 2925 5318 2976 5363 3027 
L 4928 3360 
L 4742 3155 
L 3328 3155 
L 3328 3731 
L 5088 3731 
C 5178 3731 5242 3763 5254 3834 
C 5062 4000 4787 4192 4787 4192 
L 4538 3923 
L 3328 3923 
L 3328 4294 
C 3488 4320 3546 4384 3558 4467 
L 3046 4531 
L 3046 3923 
L 1158 3923 
L 1210 3731 
L 3046 3731 
L 3046 3155 
L 1600 3155 
L 1286 3315 
L 1286 1005 
L 1331 1005 
C 1453 1005 1568 1075 1568 1101 
L 1568 1312 
L 3046 1312 
L 3046 672 
L 314 672 
L 371 486 
L 3046 486 
L 3046 -467 
L 3104 -467 
C 3206 -467 3328 -397 3328 -339 
L 3328 486 
L 5939 486 
C 6029 486 6086 518 6106 589 
C 5907 768 5594 1018 5594 1018 
L 5312 672 
z
" transform="scale(0.015625)"/>
      </defs>
      <use xlink:href="#NotoSerifCJKjp-ExtraLight-8b77"/>
      <use xlink:href="#NotoSerifCJKjp-ExtraLight-8ecd" x="99.999985"/>
     </g>
    </g>
   </g>
   <g id="text_17">
    <g clip-path="url(#p89752752cd)">
     <!-- 金積福 -->
     <g transform="translate(2424.234131 907.126452) scale(0.12 -0.12)">
      <defs>
       <path id="NotoSerifCJKjp-ExtraLight-798f" d="M 2093 4333 
L 1869 4115 
L 1536 4115 
L 1536 5082 
C 1690 5101 1760 5165 1773 5254 
L 1254 5312 
L 1254 4115 
L 314 4115 
L 371 3930 
L 1862 3930 
C 1517 3162 800 2208 141 1632 
L 230 1555 
C 576 1811 928 2138 1248 2496 
L 1248 -467 
L 1293 -467 
C 1427 -467 1530 -390 1530 -352 
L 1530 2688 
C 1760 2483 2003 2195 2086 1958 
C 2419 1766 2618 2438 1530 2835 
C 1811 3187 2042 3558 2202 3898 
C 2349 3904 2426 3910 2483 3955 
L 2093 4333 
z
M 4326 115 
L 4326 1037 
L 5542 1037 
L 5542 115 
L 4326 115 
z
M 2867 1037 
L 4038 1037 
L 4038 115 
L 2867 115 
L 2867 1037 
z
M 4038 2048 
L 4038 1222 
L 2867 1222 
L 2867 2048 
L 4038 2048 
z
M 5542 2048 
L 5542 1222 
L 4326 1222 
L 4326 2048 
L 5542 2048 
z
M 5523 2240 
L 2944 2240 
L 2592 2400 
L 2592 -480 
L 2630 -480 
C 2778 -480 2867 -397 2867 -371 
L 2867 -77 
L 5542 -77 
L 5542 -448 
L 5581 -448 
C 5702 -448 5824 -365 5824 -339 
L 5824 2029 
C 5952 2048 6022 2080 6061 2131 
L 5677 2426 
L 5523 2240 
z
M 3194 3072 
L 3194 3974 
L 5190 3974 
L 5190 3072 
L 3194 3072 
z
M 5235 2656 
C 5344 2656 5472 2739 5472 2765 
L 5472 3962 
C 5594 3981 5658 4013 5696 4051 
L 5318 4346 
L 5178 4160 
L 3264 4160 
L 2912 4326 
L 2912 2611 
L 2950 2611 
C 3098 2611 3194 2688 3194 2720 
L 3194 2880 
L 5190 2880 
L 5190 2656 
L 5235 2656 
z
M 5350 4928 
L 2477 4928 
L 2528 4742 
L 5933 4742 
C 6022 4742 6086 4774 6099 4845 
C 5914 5018 5613 5254 5613 5254 
L 5350 4928 
z
" transform="scale(0.015625)"/>
      </defs>
      <use xlink:href="#NotoSerifCJKjp-ExtraLight-91d1"/>
      <use xlink:href="#NotoSerifCJKjp-ExtraLight-7a4d" x="99.999985"/>
      <use xlink:href="#NotoSerifCJKjp-ExtraLight-798f" x="199.999969"/>
     </g>
    </g>
    <g clip-path="url(#p89752752cd)">
     <!-- 評事 -->
     <g transform="translate(2430.234131 921.766452) scale(0.12 -0.12)">
      <defs>
       <path id="NotoSerifCJKjp-ExtraLight-8a55" d="M 2227 4723 
C 2317 4723 2368 4755 2387 4826 
C 2214 4992 1933 5216 1933 5216 
L 1683 4909 
L 525 4909 
L 576 4723 
L 2227 4723 
z
M 2042 4109 
L 256 4109 
L 307 3923 
L 2598 3923 
C 2682 3923 2746 3955 2758 4026 
C 2579 4192 2291 4422 2291 4422 
L 2042 4109 
z
M 1805 3302 
L 557 3302 
L 608 3117 
L 2285 3117 
C 2368 3117 2426 3149 2438 3213 
C 2285 3373 2029 3578 2029 3578 
L 1805 3302 
z
M 2285 2304 
C 2368 2304 2426 2336 2438 2400 
C 2285 2560 2029 2765 2029 2765 
L 1805 2490 
L 557 2490 
L 608 2304 
L 2285 2304 
z
M 858 282 
L 858 1498 
L 1971 1498 
L 1971 282 
L 858 282 
z
M 1914 1683 
L 890 1683 
L 576 1843 
L 576 -467 
L 621 -467 
C 736 -467 858 -397 858 -365 
L 858 96 
L 1971 96 
L 1971 -224 
L 2010 -224 
C 2106 -224 2253 -154 2259 -115 
L 2259 1434 
C 2381 1459 2490 1510 2534 1555 
L 2099 1894 
L 1914 1683 
z
M 5478 2074 
L 4429 2074 
L 4429 4659 
L 5837 4659 
C 5926 4659 5984 4691 6003 4762 
C 5818 4934 5530 5165 5530 5165 
L 5274 4851 
L 2694 4851 
L 2746 4659 
L 4141 4659 
L 4141 2074 
L 2426 2074 
L 2477 1888 
L 4141 1888 
L 4141 -467 
L 4179 -467 
C 4326 -467 4429 -384 4429 -358 
L 4429 1888 
L 6067 1888 
C 6150 1888 6214 1920 6227 1984 
C 6048 2163 5741 2400 5741 2400 
L 5478 2074 
z
M 2957 4154 
C 3130 3712 3322 3034 3315 2534 
C 3622 2208 3917 3059 3059 4179 
L 2957 4154 
z
M 4960 2419 
C 5235 2906 5510 3546 5651 3904 
C 5779 3891 5850 3962 5862 4019 
L 5357 4211 
C 5274 3795 5056 2982 4877 2458 
L 4960 2419 
z
" transform="scale(0.015625)"/>
       <path id="NotoSerifCJKjp-ExtraLight-4e8b" d="M 4896 806 
L 3328 806 
L 3328 1414 
L 4896 1414 
L 4896 806 
z
M 3328 2195 
L 4896 2195 
L 4896 1600 
L 3328 1600 
L 3328 2195 
z
M 1510 3174 
L 1510 3808 
L 3046 3808 
L 3046 3174 
L 1510 3174 
z
M 4864 3808 
L 4864 3174 
L 3328 3174 
L 3328 3808 
L 4864 3808 
z
M 5382 1600 
L 5184 1600 
L 5184 2131 
C 5306 2157 5414 2208 5459 2259 
L 5024 2592 
L 4838 2381 
L 3328 2381 
L 3328 2982 
L 4864 2982 
L 4864 2752 
L 4896 2752 
C 4992 2752 5139 2822 5146 2861 
L 5146 3744 
C 5267 3770 5376 3821 5421 3872 
L 4979 4198 
L 4800 4000 
L 3328 4000 
L 3328 4506 
L 5939 4506 
C 6029 4506 6093 4538 6106 4608 
C 5907 4800 5587 5043 5587 5043 
L 5299 4698 
L 3328 4698 
L 3328 5101 
C 3482 5120 3546 5184 3565 5274 
L 3046 5331 
L 3046 4698 
L 301 4698 
L 358 4506 
L 3046 4506 
L 3046 4000 
L 1542 4000 
L 1229 4154 
L 1229 2669 
L 1274 2669 
C 1389 2669 1510 2733 1510 2758 
L 1510 2982 
L 3046 2982 
L 3046 2381 
L 1069 2381 
L 1120 2195 
L 3046 2195 
L 3046 1600 
L 294 1600 
L 352 1414 
L 3046 1414 
L 3046 806 
L 1030 806 
L 1088 621 
L 3046 621 
L 3046 77 
C 3046 -45 3002 -90 2854 -90 
C 2707 -90 1907 -26 1907 -26 
L 1907 -134 
C 2234 -166 2438 -205 2547 -262 
C 2643 -314 2688 -390 2714 -480 
C 3270 -422 3328 -218 3328 45 
L 3328 621 
L 4896 621 
L 4896 282 
L 4934 282 
C 5030 282 5178 365 5184 403 
L 5184 1414 
L 5978 1414 
C 6067 1414 6131 1446 6144 1510 
C 5958 1696 5651 1946 5651 1946 
L 5382 1600 
z
" transform="scale(0.015625)"/>
      </defs>
      <use xlink:href="#NotoSerifCJKjp-ExtraLight-8a55"/>
      <use xlink:href="#NotoSerifCJKjp-ExtraLight-4e8b" x="99.999985"/>
     </g>
    </g>
   </g>
   <g id="text_18">
    <g clip-path="url(#p89752752cd)">
     <!-- 金庥 -->
     <g transform="translate(1850.498246 419.384516) scale(0.12 -0.12)">
      <defs>
       <path id="NotoSerifCJKjp-ExtraLight-5ea5" d="M 1197 4339 
L 5939 4339 
C 6029 4339 6093 4371 6106 4442 
C 5907 4621 5594 4870 5594 4870 
L 5312 4525 
L 3488 4525 
L 3488 5107 
C 3635 5126 3706 5190 3718 5280 
L 3200 5338 
L 3200 4525 
L 1261 4525 
L 915 4704 
L 915 2950 
C 915 1824 864 614 301 -378 
L 416 -448 
C 1152 544 1197 1926 1197 2957 
L 1197 4339 
z
M 2528 4070 
C 2304 3334 1792 2349 1165 1709 
L 1248 1626 
C 1549 1875 1818 2182 2054 2502 
L 2054 -467 
L 2106 -467 
C 2214 -467 2336 -384 2342 -358 
L 2342 2605 
C 2438 2624 2509 2662 2528 2720 
L 2272 2816 
C 2490 3162 2669 3507 2790 3802 
C 2950 3782 3002 3814 3040 3885 
L 2528 4070 
z
M 5901 2752 
C 5990 2752 6048 2778 6067 2848 
C 5875 3034 5568 3264 5568 3264 
L 5299 2938 
L 4493 2938 
L 4493 3853 
C 4634 3878 4685 3936 4704 4019 
L 4211 4070 
L 4211 2938 
L 2726 2938 
L 2778 2752 
L 4019 2752 
C 3744 1850 3270 979 2630 320 
L 2720 230 
C 3379 794 3878 1504 4211 2304 
L 4211 -461 
L 4269 -461 
C 4378 -461 4493 -390 4493 -339 
L 4493 2669 
C 4806 1664 5325 813 5901 314 
C 5952 448 6061 518 6176 525 
L 6189 589 
C 5574 1005 4954 1843 4608 2752 
L 5901 2752 
z
" transform="scale(0.015625)"/>
      </defs>
      <use xlink:href="#NotoSerifCJKjp-ExtraLight-91d1"/>
      <use xlink:href="#NotoSerifCJKjp-ExtraLight-5ea5" x="99.999985"/>
     </g>
    </g>
    <g clip-path="url(#p89752752cd)">
     <!--   -->
     <g transform="translate(1860.943871 434.024516) scale(0.12 -0.12)">
      <use xlink:href="#NotoSerifCJKjp-ExtraLight-20"/>
     </g>
    </g>
   </g>
   <g id="text_19">
    <g clip-path="url(#p89752752cd)">
     <!-- 金季祥 -->
     <g transform="translate(1844.498246 663.255484) scale(0.12 -0.12)">
      <defs>
       <path id="NotoSerifCJKjp-ExtraLight-5b63" d="M 5312 1338 
L 3341 1338 
L 3341 1664 
C 3488 1690 3546 1734 3565 1824 
L 3546 1824 
C 3904 1965 4320 2157 4576 2272 
C 4710 2278 4794 2285 4845 2330 
L 4442 2714 
L 4198 2490 
L 1562 2490 
L 1619 2304 
L 4038 2304 
C 3846 2157 3603 1984 3392 1843 
L 3059 1888 
L 3059 1338 
L 314 1338 
L 371 1146 
L 3059 1146 
L 3059 64 
C 3059 -32 3027 -70 2899 -70 
C 2771 -70 2074 -19 2074 -19 
L 2074 -122 
C 2362 -154 2541 -192 2637 -243 
C 2726 -301 2765 -384 2778 -474 
C 3283 -416 3341 -237 3341 45 
L 3341 1146 
L 5926 1146 
C 6016 1146 6074 1178 6093 1248 
C 5894 1434 5587 1670 5587 1670 
L 5312 1338 
z
M 5888 3814 
C 5978 3814 6035 3846 6054 3917 
C 5862 4096 5562 4333 5562 4333 
L 5299 4006 
L 3341 4006 
L 3341 4736 
C 4013 4794 4646 4870 5165 4941 
C 5306 4870 5421 4870 5478 4915 
L 5094 5306 
C 4102 5075 2259 4819 787 4723 
L 806 4589 
C 1542 4602 2323 4646 3059 4710 
L 3059 4006 
L 352 4006 
L 410 3814 
L 2528 3814 
C 1984 3168 1152 2605 218 2227 
L 269 2112 
C 1402 2477 2374 3059 3002 3814 
L 3059 3814 
L 3059 2650 
L 3098 2650 
C 3238 2650 3341 2726 3341 2758 
L 3341 3814 
L 3507 3814 
C 4051 3066 4986 2496 5888 2202 
C 5933 2349 6048 2438 6182 2451 
L 6189 2522 
C 5293 2733 4275 3206 3693 3814 
L 5888 3814 
z
" transform="scale(0.015625)"/>
      </defs>
      <use xlink:href="#NotoSerifCJKjp-ExtraLight-91d1"/>
      <use xlink:href="#NotoSerifCJKjp-ExtraLight-5b63" x="99.999985"/>
      <use xlink:href="#NotoSerifCJKjp-ExtraLight-7965" x="199.999969"/>
     </g>
    </g>
    <g clip-path="url(#p89752752cd)">
     <!--   -->
     <g transform="translate(1860.943871 677.895484) scale(0.12 -0.12)">
      <use xlink:href="#NotoSerifCJKjp-ExtraLight-20"/>
     </g>
    </g>
   </g>
   <g id="text_20">
    <g clip-path="url(#p89752752cd)">
     <!-- 金孟祥 -->
     <g transform="translate(2230.988836 663.255484) scale(0.12 -0.12)">
      <defs>
       <path id="NotoSerifCJKjp-ExtraLight-5b5f" d="M 3066 4211 
L 3066 3674 
L 512 3674 
L 570 3488 
L 3066 3488 
L 3066 2483 
C 3066 2381 3034 2349 2899 2349 
C 2765 2349 2022 2394 2022 2394 
L 2022 2298 
C 2330 2266 2515 2221 2618 2170 
C 2707 2112 2746 2029 2771 1939 
C 3290 1997 3347 2182 3347 2458 
L 3347 3488 
L 5792 3488 
C 5882 3488 5946 3520 5958 3590 
C 5773 3763 5472 4000 5472 4000 
L 5216 3674 
L 3347 3674 
L 3347 3994 
C 3488 4019 3546 4051 3565 4128 
C 4077 4301 4627 4557 4998 4755 
C 5139 4762 5229 4768 5280 4813 
L 4877 5190 
L 4634 4966 
L 1325 4966 
L 1382 4781 
L 4467 4781 
C 4186 4582 3795 4339 3430 4166 
L 3066 4211 
z
M 1491 1510 
L 2426 1510 
L 2426 -134 
L 1491 -134 
L 1491 1510 
z
M 3654 1510 
L 3654 -134 
L 2714 -134 
L 2714 1510 
L 3654 1510 
z
M 4896 1510 
L 4896 -134 
L 3942 -134 
L 3942 1510 
L 4896 1510 
z
M 5357 -134 
L 5184 -134 
L 5184 1472 
C 5338 1491 5421 1517 5472 1587 
L 5005 1939 
L 4826 1702 
L 1562 1702 
L 1203 1875 
L 1203 -134 
L 301 -134 
L 358 -320 
L 5958 -320 
C 6048 -320 6106 -288 6125 -218 
C 5933 -45 5626 198 5626 198 
L 5357 -134 
z
" transform="scale(0.015625)"/>
      </defs>
      <use xlink:href="#NotoSerifCJKjp-ExtraLight-91d1"/>
      <use xlink:href="#NotoSerifCJKjp-ExtraLight-5b5f" x="99.999985"/>
      <use xlink:href="#NotoSerifCJKjp-ExtraLight-7965" x="199.999969"/>
     </g>
    </g>
    <g clip-path="url(#p89752752cd)">
     <!-- 上少卿 -->
     <g transform="translate(2230.988836 677.895484) scale(0.12 -0.12)">
      <defs>
       <path id="NotoSerifCJKjp-ExtraLight-4e0a" d="M 5318 51 
L 3162 51 
L 3162 2803 
L 5421 2803 
C 5510 2803 5568 2835 5587 2906 
C 5389 3091 5075 3334 5075 3334 
L 4800 2995 
L 3162 2995 
L 3162 5043 
C 3309 5069 3366 5133 3386 5222 
L 2874 5286 
L 2874 51 
L 288 51 
L 346 -141 
L 5939 -141 
C 6035 -141 6093 -109 6112 -38 
C 5914 147 5594 390 5594 390 
L 5318 51 
z
" transform="scale(0.015625)"/>
       <path id="NotoSerifCJKjp-ExtraLight-5c11" d="M 4186 4397 
L 4102 4333 
C 4646 3853 5434 3021 5651 2445 
C 6061 2176 6182 3162 4186 4397 
z
M 1907 4397 
C 1613 3667 998 2707 307 2080 
L 390 1997 
C 1165 2573 1824 3456 2163 4102 
C 2317 4083 2368 4109 2406 4179 
L 1907 4397 
z
M 3059 5312 
L 3059 2003 
C 3059 1901 3027 1869 2893 1869 
C 2765 1869 2061 1920 2061 1920 
L 2061 1811 
C 2355 1779 2534 1734 2630 1683 
C 2720 1626 2758 1542 2778 1459 
C 3283 1510 3341 1696 3341 1971 
L 3341 5088 
C 3494 5107 3552 5165 3571 5254 
L 3059 5312 
z
M 4717 2662 
C 3770 883 2451 173 768 -352 
L 813 -480 
C 2598 -26 3942 666 4928 2355 
C 5088 2330 5152 2342 5197 2406 
L 4717 2662 
z
" transform="scale(0.015625)"/>
       <path id="NotoSerifCJKjp-ExtraLight-537f" d="M 710 4902 
L 710 1478 
C 512 1408 346 1350 237 1318 
L 499 922 
C 557 947 595 1005 608 1082 
C 1037 1312 1389 1517 1664 1677 
C 1549 877 1222 160 416 -365 
L 499 -461 
C 1747 243 1990 1357 1997 2496 
L 1997 4160 
C 2150 4186 2202 4243 2221 4333 
L 1715 4390 
L 1715 2502 
C 1715 2272 1709 2048 1683 1830 
C 1446 1741 1210 1651 998 1581 
L 998 4474 
C 1331 4550 1798 4717 2131 4877 
C 2234 4832 2291 4845 2342 4877 
L 1990 5216 
C 1728 5030 1427 4845 1158 4698 
L 710 4902 
z
M 2726 2458 
L 2726 3322 
L 3750 3322 
L 3750 2458 
L 2726 2458 
z
M 3750 4365 
L 3750 3514 
L 2726 3514 
L 2726 4365 
L 3750 4365 
z
M 3686 4550 
L 3104 4550 
C 3181 4723 3258 4934 3309 5101 
C 3443 5107 3514 5165 3533 5248 
L 3059 5325 
C 3027 5101 2976 4774 2931 4550 
L 2758 4550 
L 2438 4723 
L 2438 -461 
L 2496 -461 
C 2630 -461 2726 -378 2726 -339 
L 2726 416 
L 4109 416 
C 4198 416 4262 448 4275 518 
C 4090 691 3789 928 3789 928 
L 3533 608 
L 2726 608 
L 2726 1344 
L 4051 1344 
C 4141 1344 4198 1376 4218 1446 
C 4032 1619 3731 1856 3731 1856 
L 3475 1530 
L 2726 1530 
L 2726 2272 
L 3750 2272 
L 3750 2054 
L 3789 2054 
C 3885 2054 4032 2138 4038 2176 
L 4038 4301 
C 4160 4326 4269 4378 4314 4429 
L 3878 4762 
L 3686 4550 
z
M 5677 5005 
L 5510 4794 
L 4819 4794 
L 4499 4960 
L 4499 -474 
L 4557 -474 
C 4691 -474 4787 -397 4787 -352 
L 4787 4602 
L 5574 4602 
L 5574 1139 
C 5574 1062 5549 1030 5466 1030 
C 5376 1030 4986 1069 4986 1069 
L 4986 960 
C 5165 934 5274 896 5331 845 
C 5395 794 5421 704 5427 627 
C 5811 672 5856 832 5856 1101 
L 5856 4538 
C 5984 4563 6093 4614 6138 4666 
L 5677 5005 
z
" transform="scale(0.015625)"/>
      </defs>
      <use xlink:href="#NotoSerifCJKjp-ExtraLight-4e0a"/>
      <use xlink:href="#NotoSerifCJKjp-ExtraLight-5c11" x="99.999985"/>
      <use xlink:href="#NotoSerifCJKjp-ExtraLight-537f" x="199.999969"/>
     </g>
    </g>
   </g>
   <g id="text_21">
    <g clip-path="url(#p89752752cd)">
     <!-- 金允轍 -->
     <g transform="translate(1844.498246 175.513548) scale(0.12 -0.12)">
      <defs>
       <path id="NotoSerifCJKjp-ExtraLight-5141" d="M 717 3123 
C 781 3136 845 3181 883 3251 
C 2707 3373 4038 3488 5037 3590 
C 5203 3392 5331 3194 5395 3008 
C 5830 2752 5894 3859 3814 4755 
L 3744 4678 
C 4122 4448 4582 4096 4928 3718 
C 3802 3667 2733 3622 1888 3597 
C 2221 4064 2554 4646 2758 5094 
C 2893 5094 2970 5152 2995 5229 
L 2451 5350 
C 2278 4819 1990 4122 1709 3590 
C 1210 3571 800 3565 512 3565 
L 717 3123 
z
M 429 -467 
C 2266 403 2310 1658 2355 2778 
C 2490 2797 2547 2861 2560 2938 
L 2048 2995 
C 2029 1779 2003 538 339 -358 
L 429 -467 
z
M 5958 1126 
L 5869 1126 
C 5805 678 5734 230 5702 115 
C 5677 45 5658 26 5581 19 
C 5485 6 5235 6 4883 6 
L 4186 6 
C 3910 6 3872 45 3872 166 
L 3872 2822 
C 4000 2848 4058 2912 4070 2989 
L 3590 3053 
L 3590 115 
C 3590 -166 3693 -256 4160 -256 
L 4902 -256 
C 5939 -256 6131 -211 6131 -58 
C 6131 0 6099 38 5971 77 
L 5958 1126 
z
" transform="scale(0.015625)"/>
       <path id="NotoSerifCJKjp-ExtraLight-8f4d" d="M 806 2662 
L 1222 2662 
L 1222 1978 
L 806 1978 
L 806 2662 
z
M 1222 3533 
L 1222 2848 
L 806 2848 
L 806 3533 
L 1222 3533 
z
M 1933 3533 
L 1933 2848 
L 1510 2848 
L 1510 3533 
L 1933 3533 
z
M 1510 1978 
L 1510 2662 
L 1933 2662 
L 1933 1978 
L 1510 1978 
z
M 1830 1018 
L 1510 1018 
L 1510 1792 
L 1933 1792 
L 1933 1517 
L 1965 1517 
C 2067 1517 2208 1613 2214 1658 
L 2214 3520 
C 2298 3539 2374 3578 2400 3610 
L 2048 3891 
L 1888 3718 
L 1510 3718 
L 1510 4294 
L 2240 4294 
C 2323 4294 2368 4320 2394 4378 
L 2419 4282 
L 3008 4282 
C 2931 4026 2803 3686 2694 3450 
C 2554 3437 2432 3430 2342 3424 
L 2483 3040 
C 2547 3053 2598 3091 2630 3168 
C 3091 3258 3469 3347 3770 3418 
C 3814 3302 3853 3187 3872 3091 
C 4160 2848 4442 3450 3546 4019 
L 3462 3981 
C 3539 3859 3629 3706 3706 3546 
C 3418 3520 3142 3488 2906 3469 
C 3059 3699 3226 4013 3360 4282 
L 4352 4282 
C 4435 4282 4486 4314 4506 4384 
C 4339 4544 4064 4762 4064 4762 
L 3827 4467 
L 3373 4467 
L 3373 5082 
C 3514 5107 3571 5165 3584 5248 
L 3091 5299 
L 3091 4467 
L 2368 4467 
L 2381 4416 
C 2208 4576 1939 4794 1939 4794 
L 1696 4480 
L 1510 4480 
L 1510 5114 
C 1645 5133 1709 5190 1722 5280 
L 1222 5331 
L 1222 4480 
L 262 4480 
L 314 4294 
L 1222 4294 
L 1222 3718 
L 838 3718 
L 525 3878 
L 525 1472 
L 576 1472 
C 685 1472 806 1536 806 1568 
L 806 1792 
L 1222 1792 
L 1222 1018 
L 256 1018 
L 301 826 
L 1222 826 
L 1222 -442 
L 1261 -442 
C 1408 -442 1510 -358 1510 -333 
L 1510 826 
L 2355 826 
C 2445 826 2502 858 2522 928 
C 2349 1094 2067 1318 2067 1318 
L 1830 1018 
z
M 5376 3834 
C 5344 3014 5242 2259 5030 1568 
C 4838 2208 4730 2931 4672 3693 
C 4685 3738 4704 3782 4717 3834 
L 5376 3834 
z
M 2848 1139 
L 2848 1786 
L 3699 1786 
L 3699 1139 
L 2848 1139 
z
M 3699 2579 
L 3699 1971 
L 2848 1971 
L 2848 2579 
L 3699 2579 
z
M 6035 3834 
C 6125 3834 6182 3866 6195 3936 
C 6016 4109 5715 4346 5715 4346 
L 5453 4026 
L 4781 4026 
C 4877 4358 4947 4710 4998 5082 
C 5139 5088 5203 5152 5222 5235 
L 4691 5318 
C 4621 4339 4403 3437 4058 2778 
L 3802 2963 
L 3642 2771 
L 2880 2771 
L 2566 2925 
L 2566 -326 
L 2618 -326 
C 2746 -326 2848 -256 2848 -218 
L 2848 954 
L 3699 954 
L 3699 230 
C 3699 147 3680 122 3616 122 
C 3533 122 3213 147 3213 147 
L 3213 38 
C 3366 19 3456 -19 3514 -70 
C 3565 -128 3584 -224 3590 -307 
C 3949 -262 3987 -102 3987 186 
L 3987 2534 
C 4090 2554 4192 2605 4230 2650 
L 4160 2701 
C 4314 2906 4448 3149 4563 3411 
C 4608 2624 4704 1862 4902 1197 
C 4685 614 4365 83 3923 -397 
L 4006 -480 
C 4454 -83 4781 358 5024 838 
C 5222 326 5498 -115 5882 -454 
C 5933 -320 6048 -269 6163 -256 
L 6182 -198 
C 5722 128 5402 595 5178 1165 
C 5498 1939 5638 2829 5709 3834 
L 6035 3834 
z
" transform="scale(0.015625)"/>
      </defs>
      <use xlink:href="#NotoSerifCJKjp-ExtraLight-91d1"/>
      <use xlink:href="#NotoSerifCJKjp-ExtraLight-5141" x="99.999985"/>
      <use xlink:href="#NotoSerifCJKjp-ExtraLight-8f4d" x="199.999969"/>
     </g>
    </g>
    <g clip-path="url(#p89752752cd)">
     <!-- 典書 -->
     <g transform="translate(1850.498246 190.153548) scale(0.12 -0.12)">
      <defs>
       <path id="NotoSerifCJKjp-ExtraLight-5178" d="M 410 -474 
C 1197 -230 2029 237 2490 595 
C 2630 570 2726 582 2765 646 
L 2310 883 
C 1933 480 1094 -77 352 -365 
L 410 -474 
z
M 3949 755 
C 4781 390 5382 -26 5690 -403 
C 6048 -710 6490 134 4000 870 
L 3949 755 
z
M 1370 2669 
L 2362 2669 
L 2362 1274 
L 1370 1274 
L 1370 2669 
z
M 2362 4134 
L 2362 2854 
L 1370 2854 
L 1370 4134 
L 2362 4134 
z
M 3699 4134 
L 3699 2854 
L 2650 2854 
L 2650 4134 
L 3699 4134 
z
M 5024 4134 
L 5024 2854 
L 3987 2854 
L 3987 4134 
L 5024 4134 
z
M 3699 1274 
L 2650 1274 
L 2650 2669 
L 3699 2669 
L 3699 1274 
z
M 3987 2669 
L 5024 2669 
L 5024 1274 
L 3987 1274 
L 3987 2669 
z
M 5459 1274 
L 5306 1274 
L 5306 4083 
C 5466 4096 5555 4134 5600 4198 
L 5133 4563 
L 4947 4326 
L 3987 4326 
L 3987 5094 
C 4102 5114 4154 5165 4166 5242 
L 3699 5293 
L 3699 4326 
L 2650 4326 
L 2650 5094 
C 2771 5114 2816 5165 2829 5242 
L 2362 5293 
L 2362 4326 
L 1446 4326 
L 1088 4493 
L 1088 1274 
L 256 1274 
L 307 1088 
L 6022 1088 
C 6106 1088 6163 1114 6182 1184 
C 6010 1370 5715 1619 5715 1619 
L 5459 1274 
z
" transform="scale(0.015625)"/>
       <path id="NotoSerifCJKjp-ExtraLight-66f8" d="M 1638 51 
L 1638 576 
L 4723 576 
L 4723 51 
L 1638 51 
z
M 4723 1261 
L 4723 762 
L 1638 762 
L 1638 1261 
L 4723 1261 
z
M 4659 1453 
L 1670 1453 
L 1357 1606 
L 1357 -474 
L 1402 -474 
C 1517 -474 1638 -403 1638 -371 
L 1638 -141 
L 4723 -141 
L 4723 -461 
L 4762 -461 
C 4858 -461 4998 -384 5005 -346 
L 5005 1197 
C 5133 1222 5242 1274 5286 1325 
L 4851 1658 
L 4659 1453 
z
M 3283 3450 
L 3283 3955 
L 4659 3955 
L 4659 3450 
L 3283 3450 
z
M 3283 4634 
L 4659 4634 
L 4659 4141 
L 3283 4141 
L 3283 4634 
z
M 4698 3021 
C 4794 3021 4934 3098 4941 3136 
L 4941 3955 
L 5946 3955 
C 6035 3955 6093 3987 6112 4051 
C 5926 4224 5638 4454 5638 4454 
L 5382 4141 
L 4941 4141 
L 4941 4570 
C 5069 4595 5178 4646 5222 4698 
L 4787 5030 
L 4595 4826 
L 3283 4826 
L 3283 5094 
C 3437 5120 3501 5184 3520 5274 
L 3002 5331 
L 3002 4826 
L 1094 4826 
L 1152 4634 
L 3002 4634 
L 3002 4141 
L 294 4141 
L 352 3955 
L 3002 3955 
L 3002 3450 
L 1062 3450 
L 1114 3258 
L 3002 3258 
L 3002 2771 
L 864 2771 
L 922 2586 
L 3002 2586 
L 3002 2080 
L 358 2080 
L 416 1894 
L 5875 1894 
C 5965 1894 6022 1926 6042 1990 
C 5850 2170 5562 2394 5562 2394 
L 5299 2080 
L 3283 2080 
L 3283 2586 
L 5498 2586 
C 5581 2586 5645 2618 5658 2688 
C 5478 2854 5197 3078 5197 3078 
L 4947 2771 
L 3283 2771 
L 3283 3258 
L 4659 3258 
L 4659 3021 
L 4698 3021 
z
" transform="scale(0.015625)"/>
      </defs>
      <use xlink:href="#NotoSerifCJKjp-ExtraLight-5178"/>
      <use xlink:href="#NotoSerifCJKjp-ExtraLight-66f8" x="99.999985"/>
     </g>
    </g>
   </g>
  </g>
 </g>
 <defs>
  <clipPath id="p89752752cd">
   <rect x="360" y="129.6" width="2232" height="831.6"/>
  </clipPath>
 </defs>
</svg>
