<?xml version="1.0" encoding="utf-8" standalone="no"?>
<!DOCTYPE svg PUBLIC "-//W3C//DTD SVG 1.1//EN"
  "http://www.w3.org/Graphics/SVG/1.1/DTD/svg11.dtd">
<svg xmlns:xlink="http://www.w3.org/1999/xlink" width="2880pt" height="1080pt" viewBox="0 0 2880 1080" xmlns="http://www.w3.org/2000/svg" version="1.1">
 <metadata>
  <rdf:RDF xmlns:dc="http://purl.org/dc/elements/1.1/" xmlns:cc="http://creativecommons.org/ns#" xmlns:rdf="http://www.w3.org/1999/02/22-rdf-syntax-ns#">
   <cc:Work>
    <dc:type rdf:resource="http://purl.org/dc/dcmitype/StillImage"/>
    <dc:date>2025-06-20T00:27:18.107482</dc:date>
    <dc:format>image/svg+xml</dc:format>
    <dc:creator>
     <cc:Agent>
      <dc:title>Matplotlib v3.9.4, https://matplotlib.org/</dc:title>
     </cc:Agent>
    </dc:creator>
   </cc:Work>
  </rdf:RDF>
 </metadata>
 <defs>
  <style type="text/css">*{stroke-linejoin: round; stroke-linecap: butt}</style>
 </defs>
 <g id="figure_1">
  <g id="patch_1">
   <path d="M 0 1080 
L 2880 1080 
L 2880 0 
L 0 0 
z
" style="fill: #ffffff"/>
  </g>
  <g id="axes_1">
   <g id="patch_2">
    <path d="M 1210.11946 668.465144 
Q 834.261855 718.743167 506.966903 905.782985 
" clip-path="url(#p1f1d756bdf)" style="fill: none; stroke: #000000; stroke-width: 2; stroke-linecap: round"/>
    <path d="M 511.432145 905.53477 
L 506.966903 905.782985 
L 509.447476 902.061862 
z
" clip-path="url(#p1f1d756bdf)" style="stroke: #000000; stroke-width: 2; stroke-linecap: round"/>
   </g>
   <g id="patch_3">
    <path d="M 1211.622006 672.322131 
Q 1078.501177 767.017222 990.591204 902.052735 
" clip-path="url(#p1f1d756bdf)" style="fill: none; stroke: #000000; stroke-width: 2; stroke-linecap: round"/>
    <path d="M 994.449656 899.791685 
L 990.591204 902.052735 
L 991.097435 897.609343 
z
" clip-path="url(#p1f1d756bdf)" style="stroke: #000000; stroke-width: 2; stroke-linecap: round"/>
   </g>
   <g id="patch_4">
    <path d="M 1223.673894 674.426089 
Q 1322.030343 813.387594 1462.685067 905.2795 
" clip-path="url(#p1f1d756bdf)" style="fill: none; stroke: #000000; stroke-width: 2; stroke-linecap: round"/>
    <path d="M 1460.430251 901.417401 
L 1462.685067 905.2795 
L 1458.242498 904.766093 
z
" clip-path="url(#p1f1d756bdf)" style="stroke: #000000; stroke-width: 2; stroke-linecap: round"/>
   </g>
   <g id="patch_5">
    <path d="M 1957.33871 675.83837 
Q 1936.233999 789.271951 1956.93006 900.507191 
" clip-path="url(#p1f1d756bdf)" style="fill: none; stroke: #000000; stroke-width: 2; stroke-linecap: round"/>
    <path d="M 1958.164646 896.208843 
L 1956.93006 900.507191 
L 1954.232133 896.940513 
z
" clip-path="url(#p1f1d756bdf)" style="stroke: #000000; stroke-width: 2; stroke-linecap: round"/>
   </g>
   <g id="patch_6">
    <path d="M 1965.831439 672.636779 
Q 2178.917156 836.489991 2435.627516 908.296061 
" clip-path="url(#p1f1d756bdf)" style="fill: none; stroke: #000000; stroke-width: 2; stroke-linecap: round"/>
    <path d="M 2432.314129 905.292485 
L 2435.627516 908.296061 
L 2431.236623 909.144625 
z
" clip-path="url(#p1f1d756bdf)" style="stroke: #000000; stroke-width: 2; stroke-linecap: round"/>
   </g>
   <g id="patch_7">
    <path d="M 1950.386261 424.52636 
Q 1564.981773 472.968374 1228.198132 661.986469 
" clip-path="url(#p1f1d756bdf)" style="fill: none; stroke: #000000; stroke-width: 2; stroke-linecap: round"/>
    <path d="M 1232.665163 661.772836 
L 1228.198132 661.986469 
L 1230.707444 658.284665 
z
" clip-path="url(#p1f1d756bdf)" style="stroke: #000000; stroke-width: 2; stroke-linecap: round"/>
   </g>
   <g id="patch_8">
    <path d="M 1965.905391 428.657496 
Q 2188.442572 594.51607 2454.686283 664.585955 
" clip-path="url(#p1f1d756bdf)" style="fill: none; stroke: #000000; stroke-width: 2; stroke-linecap: round"/>
    <path d="M 2451.327031 661.633765 
L 2454.686283 664.585955 
L 2450.308979 665.502043 
z
" clip-path="url(#p1f1d756bdf)" style="stroke: #000000; stroke-width: 2; stroke-linecap: round"/>
   </g>
   <g id="patch_9">
    <path d="M 1957.33871 431.967403 
Q 1936.233999 545.400984 1956.93006 656.636223 
" clip-path="url(#p1f1d756bdf)" style="fill: none; stroke: #000000; stroke-width: 2; stroke-linecap: round"/>
    <path d="M 1958.164646 652.337875 
L 1956.93006 656.636223 
L 1954.232133 653.069545 
z
" clip-path="url(#p1f1d756bdf)" style="stroke: #000000; stroke-width: 2; stroke-linecap: round"/>
   </g>
   <g id="patch_10">
    <path d="M 2200.103238 184.365887 
Q 2059.930033 277.877487 1965.157449 414.48841 
" clip-path="url(#p1f1d756bdf)" style="fill: none; stroke: #000000; stroke-width: 2; stroke-linecap: round"/>
    <path d="M 1969.080754 412.341859 
L 1965.157449 414.48841 
L 1965.794191 410.061836 
z
" clip-path="url(#p1f1d756bdf)" style="stroke: #000000; stroke-width: 2; stroke-linecap: round"/>
   </g>
   <g id="patch_11">
    <path d="M 2212.233514 186.732693 
Q 2308.280714 325.180814 2446.593827 417.451446 
" clip-path="url(#p1f1d756bdf)" style="fill: none; stroke: #000000; stroke-width: 2; stroke-linecap: round"/>
    <path d="M 2444.376229 413.567857 
L 2446.593827 417.451446 
L 2442.156398 416.895371 
z
" clip-path="url(#p1f1d756bdf)" style="stroke: #000000; stroke-width: 2; stroke-linecap: round"/>
   </g>
   <g id="text_1">
    <g id="patch_12">
     <path d="M 858.27056 799.730491 
L 864.32917 797.681768 
Q 867.73947 796.528574 866.586275 793.118274 
L 862.511654 781.06855 
Q 861.35846 777.65825 857.94816 778.811445 
L 851.88955 780.860167 
Q 848.479251 782.013362 849.632445 785.423661 
L 853.707066 797.473386 
Q 854.860261 800.883685 858.27056 799.730491 
z
" clip-path="url(#p1f1d756bdf)" style="fill: #ffffff; stroke: #ffffff; stroke-linejoin: miter"/>
    </g>
    <g clip-path="url(#p1f1d756bdf)">
     <!-- 3 -->
     <g transform="translate(856.11793 793.364598) rotate(-18.682993) scale(0.12 -0.12)">
      <defs>
       <path id="NotoSerifCJKjp-ExtraLight-33" d="M 1062 4435 
C 1242 4499 1408 4525 1594 4525 
C 2176 4525 2496 4166 2496 3584 
C 2496 2918 2035 2541 1402 2541 
L 1126 2541 
L 1126 2330 
L 1434 2330 
C 2234 2330 2637 1920 2637 1229 
C 2637 557 2221 102 1498 102 
C 1286 102 1107 141 941 211 
L 787 659 
C 730 845 659 928 531 928 
C 422 928 339 864 301 755 
C 461 186 928 -90 1587 -90 
C 2426 -90 3040 410 3040 1203 
C 3040 1869 2656 2330 1901 2445 
C 2541 2605 2899 3059 2899 3597 
C 2899 4262 2426 4717 1664 4717 
C 1107 4717 570 4480 429 3885 
C 461 3776 544 3731 640 3731 
C 774 3731 845 3795 909 3981 
L 1062 4435 
z
" transform="scale(0.015625)"/>
      </defs>
      <use xlink:href="#NotoSerifCJKjp-ExtraLight-33"/>
     </g>
    </g>
   </g>
   <g id="text_2">
    <g id="patch_13">
     <path d="M 1106.665651 798.474453 
L 1111.093903 793.859845 
Q 1113.586499 791.262353 1110.989007 788.769757 
L 1101.8112 779.962586 
Q 1099.213708 777.46999 1096.721112 780.067482 
L 1092.29286 784.68209 
Q 1089.800264 787.279582 1092.397757 789.772178 
L 1101.575563 798.57935 
Q 1104.173055 801.071945 1106.665651 798.474453 
z
" clip-path="url(#p1f1d756bdf)" style="fill: #ffffff; stroke: #ffffff; stroke-linejoin: miter"/>
    </g>
    <g clip-path="url(#p1f1d756bdf)">
     <!-- 2 -->
     <g transform="translate(1101.816999 793.821608) rotate(-46.180585) scale(0.12 -0.12)">
      <defs>
       <path id="NotoSerifCJKjp-ExtraLight-32" d="M 646 358 
C 1069 838 1472 1299 1645 1491 
C 2560 2515 2886 2970 2886 3520 
C 2886 4250 2458 4717 1638 4717 
C 1024 4717 486 4397 326 3821 
C 371 3725 454 3667 550 3667 
C 672 3667 755 3750 819 3949 
L 1005 4422 
C 1197 4499 1363 4525 1542 4525 
C 2144 4525 2483 4096 2483 3514 
C 2483 2995 2214 2547 1536 1715 
C 1222 1344 787 806 339 275 
L 339 0 
L 3104 0 
L 3104 358 
L 646 358 
z
" transform="scale(0.015625)"/>
      </defs>
      <use xlink:href="#NotoSerifCJKjp-ExtraLight-32"/>
     </g>
    </g>
   </g>
   <g id="text_3">
    <g id="patch_14">
     <path d="M 1336.054516 794.224963 
L 1340.660327 798.662364 
Q 1343.252867 801.16011 1345.750613 798.567569 
L 1354.575981 789.407259 
Q 1357.073726 786.814718 1354.481186 784.316973 
L 1349.875375 779.879571 
Q 1347.282835 777.381826 1344.785089 779.974366 
L 1335.959721 789.134677 
Q 1333.461976 791.727217 1336.054516 794.224963 
z
" clip-path="url(#p1f1d756bdf)" style="fill: #ffffff; stroke: #ffffff; stroke-linejoin: miter"/>
    </g>
    <g clip-path="url(#p1f1d756bdf)">
     <!-- 1 -->
     <g transform="translate(1340.716975 789.385554) rotate(-316.06688) scale(0.12 -0.12)">
      <defs>
       <path id="NotoSerifCJKjp-ExtraLight-31" d="M 1997 250 
C 1990 659 1984 1062 1984 1459 
L 1984 3616 
L 2010 4614 
L 1914 4691 
L 614 4346 
L 614 4160 
L 1600 4333 
L 1600 1459 
C 1600 1062 1594 653 1587 250 
L 544 173 
L 544 0 
L 3002 0 
L 3002 173 
L 1997 250 
z
" transform="scale(0.015625)"/>
      </defs>
      <use xlink:href="#NotoSerifCJKjp-ExtraLight-31"/>
     </g>
    </g>
   </g>
   <g id="text_4">
    <g id="patch_15">
     <path d="M 1949.019995 786.073155 
L 1949.019995 792.46878 
Q 1949.019995 796.06878 1952.619995 796.06878 
L 1965.339995 796.06878 
Q 1968.939995 796.06878 1968.939995 792.46878 
L 1968.939995 786.073155 
Q 1968.939995 782.473155 1965.339995 782.473155 
L 1952.619995 782.473155 
Q 1949.019995 782.473155 1949.019995 786.073155 
z
" clip-path="url(#p1f1d756bdf)" style="fill: #ffffff; stroke: #ffffff; stroke-linejoin: miter"/>
    </g>
    <g clip-path="url(#p1f1d756bdf)">
     <!-- 2 -->
     <g transform="translate(1955.739995 786.073155) rotate(-270) scale(0.12 -0.12)">
      <use xlink:href="#NotoSerifCJKjp-ExtraLight-32"/>
     </g>
    </g>
   </g>
   <g id="text_5">
    <g id="patch_16">
     <path d="M 2195.236367 796.745796 
L 2200.955395 799.608791 
Q 2204.174548 801.220327 2205.786085 798.001173 
L 2211.480179 786.62683 
Q 2213.091715 783.407676 2209.872562 781.79614 
L 2204.153534 778.933145 
Q 2200.93438 777.321609 2199.322844 780.540762 
L 2193.628749 791.915106 
Q 2192.017213 795.13426 2195.236367 796.745796 
z
" clip-path="url(#p1f1d756bdf)" style="fill: #ffffff; stroke: #ffffff; stroke-linejoin: miter"/>
    </g>
    <g clip-path="url(#p1f1d756bdf)">
     <!-- 1 -->
     <g transform="translate(2198.244568 790.736709) rotate(-333.407058) scale(0.12 -0.12)">
      <use xlink:href="#NotoSerifCJKjp-ExtraLight-31"/>
     </g>
    </g>
   </g>
   <g id="text_6">
    <g id="patch_17">
     <path d="M 1588.921474 555.860466 
L 1594.995967 553.859328 
Q 1598.415207 552.732919 1597.288798 549.313679 
L 1593.308817 537.232365 
Q 1592.182407 533.813125 1588.763167 534.939534 
L 1582.688674 536.940672 
Q 1579.269434 538.067081 1580.395844 541.486321 
L 1584.375824 553.567635 
Q 1585.502234 556.986875 1588.921474 555.860466 
z
" clip-path="url(#p1f1d756bdf)" style="fill: #ffffff; stroke: #ffffff; stroke-linejoin: miter"/>
    </g>
    <g clip-path="url(#p1f1d756bdf)">
     <!-- 3 -->
     <g transform="translate(1586.818843 549.477884) rotate(-18.233577) scale(0.12 -0.12)">
      <use xlink:href="#NotoSerifCJKjp-ExtraLight-33"/>
     </g>
    </g>
   </g>
   <g id="text_7">
    <g id="patch_18">
     <path d="M 2204.902911 552.985334 
L 2210.664848 555.760961 
Q 2213.908154 557.32332 2215.470513 554.080013 
L 2220.990845 542.62033 
Q 2222.553203 539.377024 2219.309897 537.814666 
L 2213.54796 535.039039 
Q 2210.304654 533.47668 2208.742296 536.719987 
L 2203.221963 548.17967 
Q 2201.659605 551.422976 2204.902911 552.985334 
z
" clip-path="url(#p1f1d756bdf)" style="fill: #ffffff; stroke: #ffffff; stroke-linejoin: miter"/>
    </g>
    <g clip-path="url(#p1f1d756bdf)">
     <!-- 2 -->
     <g transform="translate(2207.819313 546.931162) rotate(-334.279058) scale(0.12 -0.12)">
      <use xlink:href="#NotoSerifCJKjp-ExtraLight-32"/>
     </g>
    </g>
   </g>
   <g id="text_8">
    <g id="patch_19">
     <path d="M 1949.019995 542.202187 
L 1949.019995 548.597812 
Q 1949.019995 552.197812 1952.619995 552.197812 
L 1965.339995 552.197812 
Q 1968.939995 552.197812 1968.939995 548.597812 
L 1968.939995 542.202187 
Q 1968.939995 538.602187 1965.339995 538.602187 
L 1952.619995 538.602187 
Q 1949.019995 538.602187 1949.019995 542.202187 
z
" clip-path="url(#p1f1d756bdf)" style="fill: #ffffff; stroke: #ffffff; stroke-linejoin: miter"/>
    </g>
    <g clip-path="url(#p1f1d756bdf)">
     <!-- 1 -->
     <g transform="translate(1955.739995 542.202187) rotate(-270) scale(0.12 -0.12)">
      <use xlink:href="#NotoSerifCJKjp-ExtraLight-31"/>
     </g>
    </g>
   </g>
   <g id="text_9">
    <g id="patch_20">
     <path d="M 2087.851938 310.876139 
L 2092.415294 306.39509 
Q 2094.983939 303.872777 2092.461625 301.304132 
L 2083.549449 292.228256 
Q 2081.027136 289.659612 2078.458491 292.181926 
L 2073.895134 296.662974 
Q 2071.32649 299.185288 2073.848804 301.753932 
L 2082.760979 310.829808 
Q 2085.283293 313.398452 2087.851938 310.876139 
z
" clip-path="url(#p1f1d756bdf)" style="fill: #ffffff; stroke: #ffffff; stroke-linejoin: miter"/>
    </g>
    <g clip-path="url(#p1f1d756bdf)">
     <!-- 5 -->
     <g transform="translate(2083.143618 306.081336) rotate(-44.478593) scale(0.12 -0.12)">
      <defs>
       <path id="NotoSerifCJKjp-ExtraLight-35" d="M 947 4275 
L 2950 4275 
L 2950 4627 
L 755 4627 
L 614 2483 
L 755 2464 
C 992 2573 1248 2624 1536 2624 
C 2208 2624 2662 2214 2662 1395 
C 2662 602 2227 102 1459 102 
C 1235 102 1062 134 896 205 
L 736 659 
C 678 851 614 922 480 922 
C 378 922 294 858 262 762 
C 397 198 858 -90 1498 -90 
C 2470 -90 3066 550 3066 1446 
C 3066 2323 2496 2854 1626 2854 
C 1344 2854 1094 2810 845 2707 
L 947 4275 
z
" transform="scale(0.015625)"/>
      </defs>
      <use xlink:href="#NotoSerifCJKjp-ExtraLight-35"/>
     </g>
    </g>
   </g>
   <g id="text_10">
    <g id="patch_21">
     <path d="M 2322.245574 306.395091 
L 2326.808931 310.876139 
Q 2329.377575 313.398452 2331.899889 310.829808 
L 2340.812064 301.753932 
Q 2343.334378 299.185288 2340.765734 296.662974 
L 2336.202377 292.181926 
Q 2333.633733 289.659612 2331.111419 292.228256 
L 2322.199243 301.304133 
Q 2319.67693 303.872777 2322.245574 306.395091 
z
" clip-path="url(#p1f1d756bdf)" style="fill: #ffffff; stroke: #ffffff; stroke-linejoin: miter"/>
    </g>
    <g clip-path="url(#p1f1d756bdf)">
     <!-- 4 -->
     <g transform="translate(2326.953893 301.600288) rotate(-315.521407) scale(0.12 -0.12)">
      <defs>
       <path id="NotoSerifCJKjp-ExtraLight-34" d="M 480 1805 
L 2163 4224 
L 2163 1805 
L 480 1805 
z
M 3309 1805 
L 2528 1805 
L 2528 4685 
L 2272 4685 
L 211 1747 
L 211 1510 
L 2163 1510 
L 2163 0 
L 2528 0 
L 2528 1510 
L 3309 1510 
L 3309 1805 
z
" transform="scale(0.015625)"/>
      </defs>
      <use xlink:href="#NotoSerifCJKjp-ExtraLight-34"/>
     </g>
    </g>
   </g>
   <g id="matplotlib.axis_1">
    <g id="xtick_1"/>
    <g id="xtick_2"/>
    <g id="xtick_3"/>
    <g id="xtick_4"/>
   </g>
   <g id="matplotlib.axis_2">
    <g id="ytick_1"/>
    <g id="ytick_2"/>
    <g id="ytick_3"/>
    <g id="ytick_4"/>
   </g>
   <g id="PathCollection_1">
    <defs>
     <path id="m2608c6af07" d="M 0 15 
C 3.978047 15 7.793698 13.419505 10.606602 10.606602 
C 13.419505 7.793698 15 3.978047 15 0 
C 15 -3.978047 13.419505 -7.793698 10.606602 -10.606602 
C 7.793698 -13.419505 3.978047 -15 0 -15 
C -3.978047 -15 -7.793698 -13.419505 -10.606602 -10.606602 
C -13.419505 -7.793698 -15 -3.978047 -15 0 
C -15 3.978047 -13.419505 7.793698 -10.606602 10.606602 
C -7.793698 13.419505 -3.978047 15 0 15 
z
" style="stroke: #add8e6; stroke-opacity: 0.85"/>
    </defs>
    <g clip-path="url(#p1f1d756bdf)">
     <use xlink:href="#m2608c6af07" x="1218.704646" y="667.335484" style="fill: #add8e6; fill-opacity: 0.85; stroke: #add8e6; stroke-opacity: 0.85"/>
     <use xlink:href="#m2608c6af07" x="497.514074" y="911.206452" style="fill: #add8e6; fill-opacity: 0.85; stroke: #add8e6; stroke-opacity: 0.85"/>
     <use xlink:href="#m2608c6af07" x="984.682117" y="911.206452" style="fill: #add8e6; fill-opacity: 0.85; stroke: #add8e6; stroke-opacity: 0.85"/>
     <use xlink:href="#m2608c6af07" x="1471.831056" y="911.206452" style="fill: #add8e6; fill-opacity: 0.85; stroke: #add8e6; stroke-opacity: 0.85"/>
     <use xlink:href="#m2608c6af07" x="1958.979995" y="667.335484" style="fill: #add8e6; fill-opacity: 0.85; stroke: #add8e6; stroke-opacity: 0.85"/>
     <use xlink:href="#m2608c6af07" x="1958.979995" y="911.206452" style="fill: #add8e6; fill-opacity: 0.85; stroke: #add8e6; stroke-opacity: 0.85"/>
     <use xlink:href="#m2608c6af07" x="2446.128934" y="911.206452" style="fill: #add8e6; fill-opacity: 0.85; stroke: #add8e6; stroke-opacity: 0.85"/>
     <use xlink:href="#m2608c6af07" x="1958.979995" y="423.464516" style="fill: #add8e6; fill-opacity: 0.85; stroke: #add8e6; stroke-opacity: 0.85"/>
     <use xlink:href="#m2608c6af07" x="2465.232814" y="667.335484" style="fill: #add8e6; fill-opacity: 0.85; stroke: #add8e6; stroke-opacity: 0.85"/>
     <use xlink:href="#m2608c6af07" x="2207.330434" y="179.593548" style="fill: #add8e6; fill-opacity: 0.85; stroke: #add8e6; stroke-opacity: 0.85"/>
     <use xlink:href="#m2608c6af07" x="2455.680874" y="423.464516" style="fill: #add8e6; fill-opacity: 0.85; stroke: #add8e6; stroke-opacity: 0.85"/>
    </g>
   </g>
   <g id="text_11">
    <g clip-path="url(#p1f1d756bdf)">
     <!-- 李榮東 -->
     <g transform="translate(1200.704646 663.255484) scale(0.12 -0.12)">
      <defs>
       <path id="NotoSerifCJKjp-ExtraLight-674e" d="M 5312 1280 
L 3341 1280 
L 3341 1574 
C 3462 1594 3520 1626 3552 1690 
C 3955 1830 4518 2054 4813 2259 
C 4941 2266 5030 2272 5082 2310 
L 4710 2669 
L 4499 2464 
L 1427 2464 
L 1485 2278 
L 4333 2278 
C 4064 2093 3686 1888 3424 1754 
L 3059 1798 
L 3059 1280 
L 314 1280 
L 371 1088 
L 3059 1088 
L 3059 64 
C 3059 -32 3027 -70 2899 -70 
C 2771 -70 2074 -19 2074 -19 
L 2074 -122 
C 2362 -154 2541 -192 2637 -243 
C 2726 -301 2765 -384 2778 -474 
C 3283 -416 3341 -237 3341 38 
L 3341 1088 
L 5926 1088 
C 6016 1088 6074 1120 6093 1190 
C 5894 1376 5587 1613 5587 1613 
L 5312 1280 
z
M 5850 4186 
C 5939 4186 5997 4218 6016 4288 
C 5818 4467 5504 4717 5504 4717 
L 5229 4378 
L 3322 4378 
L 3322 5107 
C 3482 5133 3546 5190 3558 5280 
L 3040 5338 
L 3040 4378 
L 403 4378 
L 461 4186 
L 2656 4186 
C 2061 3494 1152 2816 218 2355 
L 282 2253 
C 1363 2694 2368 3366 3040 4147 
L 3040 2662 
L 3098 2662 
C 3200 2662 3322 2733 3322 2778 
L 3322 4186 
L 3386 4186 
C 3942 3424 5011 2707 5901 2323 
C 5952 2451 6054 2534 6182 2541 
L 6195 2611 
C 5312 2906 4179 3533 3578 4186 
L 5850 4186 
z
" transform="scale(0.015625)"/>
       <path id="NotoSerifCJKjp-ExtraLight-69ae" d="M 4826 4173 
C 5050 4307 5325 4512 5568 4730 
C 5690 4685 5773 4730 5811 4781 
L 5414 5069 
C 5197 4755 4928 4454 4736 4269 
L 4826 4173 
z
M 2822 3187 
C 3667 3418 4096 3706 4320 4038 
C 4749 3827 5267 3488 5478 3219 
C 5862 3098 5888 3802 4397 4160 
C 4550 4461 4570 4794 4589 5139 
C 4717 5158 4774 5222 4781 5293 
L 4314 5338 
C 4301 4454 4275 3770 2752 3296 
L 2822 3187 
z
M 3648 5037 
C 3629 4704 3411 4384 3200 4269 
C 3104 4198 3046 4096 3098 4026 
C 3162 3930 3334 3974 3450 4058 
C 3629 4192 3853 4518 3770 5030 
L 3648 5037 
z
M 2272 4275 
C 2464 4378 2707 4538 2912 4717 
C 3034 4666 3130 4704 3168 4755 
L 2778 5050 
C 2579 4774 2355 4518 2182 4371 
L 2272 4275 
z
M 1158 5018 
C 1139 4691 941 4358 736 4237 
C 659 4160 608 4064 659 4000 
C 723 3917 890 3974 992 4058 
C 1146 4198 1344 4525 1286 5011 
L 1158 5018 
z
M 1830 5338 
C 1818 4429 1805 3738 448 3264 
L 531 3162 
C 1331 3405 1715 3718 1901 4083 
C 2195 3930 2522 3674 2650 3456 
C 2982 3309 3066 3974 1952 4192 
C 2067 4486 2086 4800 2099 5139 
C 2227 5158 2278 5222 2291 5293 
L 1830 5338 
z
M 5280 2765 
C 5190 2554 5056 2298 4954 2138 
L 5043 2086 
C 5267 2246 5555 2509 5715 2714 
C 5830 2720 5907 2726 5952 2771 
L 5517 3194 
L 5286 2950 
L 1184 2950 
C 1178 3034 1171 3117 1158 3206 
L 1043 3213 
C 1018 2790 755 2400 512 2259 
C 403 2182 339 2067 397 1971 
C 474 1869 672 1914 794 2016 
C 954 2138 1133 2394 1171 2765 
L 5280 2765 
z
M 5562 1530 
C 5651 1530 5709 1562 5722 1632 
C 5536 1798 5254 2003 5254 2003 
L 4998 1722 
L 3366 1722 
L 3360 1728 
L 3347 1722 
L 3334 1722 
L 3334 2394 
C 3475 2419 3533 2477 3546 2560 
L 3053 2618 
L 3053 1722 
L 736 1722 
L 794 1530 
L 2739 1530 
C 2176 826 1299 192 326 -243 
L 390 -358 
C 1472 51 2419 672 3053 1440 
L 3053 -467 
L 3110 -467 
C 3213 -467 3334 -397 3334 -346 
L 3334 1523 
C 3898 646 4864 -19 5843 -352 
C 5888 -224 5997 -154 6125 -141 
L 6131 -70 
C 5146 186 4102 787 3507 1530 
L 5562 1530 
z
" transform="scale(0.015625)"/>
       <path id="NotoSerifCJKjp-ExtraLight-6771" d="M 1542 2528 
L 3040 2528 
L 3040 1798 
L 1542 1798 
L 1542 2528 
z
M 3040 3418 
L 3040 2720 
L 1542 2720 
L 1542 3418 
L 3040 3418 
z
M 4858 3418 
L 4858 2720 
L 3322 2720 
L 3322 3418 
L 4858 3418 
z
M 3322 1798 
L 3322 2528 
L 4858 2528 
L 4858 1798 
L 3322 1798 
z
M 4858 1606 
L 4858 1274 
L 4890 1274 
C 4986 1274 5133 1350 5139 1389 
L 5139 3354 
C 5267 3379 5370 3430 5414 3482 
L 4979 3814 
L 4794 3610 
L 3322 3610 
L 3322 4301 
L 5811 4301 
C 5901 4301 5965 4333 5984 4403 
C 5773 4589 5440 4851 5440 4851 
L 5152 4486 
L 3322 4486 
L 3322 5101 
C 3482 5126 3533 5190 3552 5280 
L 3040 5338 
L 3040 4486 
L 416 4486 
L 474 4301 
L 3040 4301 
L 3040 3610 
L 1574 3610 
L 1261 3770 
L 1261 1254 
L 1312 1254 
C 1427 1254 1542 1325 1542 1350 
L 1542 1606 
L 2778 1606 
C 2202 883 1286 211 288 -237 
L 358 -352 
C 1434 58 2394 678 3040 1446 
L 3040 -474 
L 3098 -474 
C 3200 -474 3322 -397 3322 -339 
L 3322 1568 
C 3898 710 4915 38 5894 -307 
C 5939 -173 6054 -90 6182 -83 
L 6195 -13 
C 5203 250 4077 870 3462 1606 
L 4858 1606 
z
" transform="scale(0.015625)"/>
      </defs>
      <use xlink:href="#NotoSerifCJKjp-ExtraLight-674e"/>
      <use xlink:href="#NotoSerifCJKjp-ExtraLight-69ae" x="99.999985"/>
      <use xlink:href="#NotoSerifCJKjp-ExtraLight-6771" x="199.999969"/>
     </g>
    </g>
    <g clip-path="url(#p1f1d756bdf)">
     <!-- 判官 -->
     <g transform="translate(1206.704646 677.895484) scale(0.12 -0.12)">
      <defs>
       <path id="NotoSerifCJKjp-ExtraLight-5224" d="M 3315 4998 
C 3110 4467 2829 3878 2624 3507 
L 2726 3443 
C 3008 3763 3328 4250 3597 4678 
C 3718 4666 3795 4717 3827 4787 
L 3315 4998 
z
M 467 4909 
C 691 4557 992 3981 1030 3565 
C 1344 3277 1600 4051 557 4947 
L 467 4909 
z
M 3219 1818 
L 2195 1818 
L 2195 2976 
L 3635 2976 
C 3718 2976 3782 3008 3795 3078 
C 3622 3245 3347 3469 3347 3469 
L 3104 3168 
L 2195 3168 
L 2195 5075 
C 2355 5101 2400 5165 2419 5254 
L 1914 5312 
L 1914 3168 
L 435 3168 
L 486 2976 
L 1914 2976 
L 1914 1818 
L 230 1818 
L 275 1626 
L 1914 1626 
L 1914 -467 
L 1965 -467 
C 2074 -467 2195 -397 2195 -339 
L 2195 1626 
L 3789 1626 
C 3878 1626 3936 1658 3955 1728 
C 3770 1907 3475 2131 3475 2131 
L 3219 1818 
z
M 4179 4774 
L 4179 755 
L 4237 755 
C 4346 755 4461 832 4461 883 
L 4461 4538 
C 4621 4557 4678 4621 4698 4710 
L 4179 4774 
z
M 5498 5210 
L 5498 83 
C 5498 -26 5459 -70 5325 -70 
C 5197 -70 4493 -13 4493 -13 
L 4493 -115 
C 4787 -154 4966 -186 5069 -243 
C 5152 -301 5190 -384 5216 -474 
C 5722 -416 5779 -224 5779 51 
L 5779 4973 
C 5933 4992 5997 5056 6016 5146 
L 5498 5210 
z
" transform="scale(0.015625)"/>
       <path id="NotoSerifCJKjp-ExtraLight-5b98" d="M 1830 134 
L 1830 1280 
L 4851 1280 
L 4851 134 
L 1830 134 
z
M 4544 3392 
L 4544 2394 
L 1830 2394 
L 1830 3392 
L 4544 3392 
z
M 4787 1472 
L 1830 1472 
L 1830 2208 
L 4544 2208 
L 4544 1933 
L 4582 1933 
C 4678 1933 4826 2010 4832 2048 
L 4832 3347 
C 4934 3366 5037 3418 5075 3462 
L 4666 3770 
L 4486 3584 
L 1862 3584 
L 1542 3750 
L 1542 -486 
L 1594 -486 
C 1728 -486 1830 -410 1830 -371 
L 1830 -58 
L 4851 -58 
L 4851 -442 
L 4883 -442 
C 4979 -442 5126 -365 5133 -326 
L 5133 1216 
C 5261 1242 5363 1293 5408 1344 
L 4973 1677 
L 4787 1472 
z
M 5722 4736 
L 5491 4499 
L 3334 4499 
L 3334 5101 
C 3488 5120 3558 5184 3571 5274 
L 3053 5331 
L 3053 4499 
L 1152 4499 
C 1146 4608 1126 4730 1094 4858 
L 979 4858 
C 1011 4358 781 3904 506 3731 
C 403 3648 339 3539 397 3443 
C 474 3334 678 3379 806 3501 
C 966 3622 1146 3898 1158 4314 
L 5517 4314 
C 5446 4051 5338 3712 5261 3507 
L 5350 3456 
C 5536 3667 5773 4026 5894 4262 
C 6016 4269 6093 4282 6138 4326 
L 5722 4736 
z
" transform="scale(0.015625)"/>
      </defs>
      <use xlink:href="#NotoSerifCJKjp-ExtraLight-5224"/>
      <use xlink:href="#NotoSerifCJKjp-ExtraLight-5b98" x="99.999985"/>
     </g>
    </g>
   </g>
   <g id="text_12">
    <g clip-path="url(#p1f1d756bdf)">
     <!-- 李叔璟 -->
     <g transform="translate(479.514074 907.126452) scale(0.12 -0.12)">
      <defs>
       <path id="NotoSerifCJKjp-ExtraLight-53d4" d="M 326 2893 
L 3514 2893 
C 3603 2893 3654 2925 3674 2995 
C 3494 3174 3200 3398 3200 3398 
L 2944 3085 
L 2016 3085 
L 2016 4090 
L 3117 4090 
C 3200 4090 3258 4122 3277 4192 
C 3104 4365 2816 4582 2816 4582 
L 2579 4282 
L 2016 4282 
L 2016 5094 
C 2170 5120 2240 5184 2253 5274 
L 1734 5331 
L 1734 3085 
L 275 3085 
L 326 2893 
z
M 902 2253 
C 762 1600 512 960 250 538 
L 346 474 
C 691 832 998 1395 1197 1965 
C 1331 1965 1402 2022 1427 2099 
L 902 2253 
z
M 1734 70 
C 1734 -26 1702 -64 1594 -64 
C 1485 -64 915 -19 915 -19 
L 915 -122 
C 1152 -154 1306 -186 1389 -237 
C 1466 -294 1498 -378 1510 -467 
C 1965 -416 2016 -237 2016 38 
L 2016 2637 
C 2163 2662 2227 2714 2246 2797 
L 1734 2861 
L 1734 70 
z
M 2490 2150 
C 2752 1811 3053 1242 3085 819 
C 3418 518 3712 1363 2579 2195 
L 2490 2150 
z
M 5472 4486 
C 5318 3475 5043 2502 4576 1651 
C 4186 2458 3942 3418 3834 4486 
L 5472 4486 
z
M 5651 4896 
L 5440 4678 
L 3290 4678 
L 3347 4486 
L 3667 4486 
C 3782 3302 4026 2253 4416 1389 
C 3987 698 3418 96 2669 -365 
L 2752 -461 
C 3533 -38 4115 493 4557 1107 
C 4896 448 5331 -90 5869 -486 
C 5914 -365 6035 -301 6157 -301 
L 6170 -243 
C 5574 154 5094 698 4723 1357 
C 5312 2278 5606 3347 5792 4448 
C 5926 4454 5990 4467 6042 4525 
L 5651 4896 
z
" transform="scale(0.015625)"/>
       <path id="NotoSerifCJKjp-ExtraLight-749f" d="M 5248 4813 
L 5248 4371 
L 2938 4371 
L 2938 4813 
L 5248 4813 
z
M 2938 3718 
L 2938 4179 
L 5248 4179 
L 5248 3718 
L 2938 3718 
z
M 2938 3533 
L 5248 3533 
L 5248 3328 
L 5286 3328 
C 5376 3328 5523 3405 5530 3443 
L 5530 4749 
C 5651 4774 5760 4826 5805 4870 
L 5370 5210 
L 5184 4998 
L 2970 4998 
L 2656 5158 
L 2656 3283 
L 2701 3283 
C 2816 3283 2938 3354 2938 3379 
L 2938 3533 
z
M 2221 1434 
C 1920 1306 1619 1178 1344 1056 
L 1344 2714 
L 2035 2714 
C 2125 2714 2182 2746 2202 2810 
C 2029 2982 1760 3206 1760 3206 
L 1517 2899 
L 1344 2899 
L 1344 4518 
L 2112 4518 
C 2202 4518 2259 4550 2278 4621 
C 2093 4794 1811 5018 1811 5018 
L 1562 4710 
L 282 4710 
L 333 4518 
L 1062 4518 
L 1062 2899 
L 326 2899 
L 378 2714 
L 1062 2714 
L 1062 941 
C 691 787 378 666 205 608 
L 416 237 
C 474 256 512 320 525 390 
C 1254 768 1843 1107 2266 1338 
L 2221 1434 
z
M 3053 960 
C 2810 608 2317 141 1850 -141 
L 1926 -230 
C 2445 -6 2982 371 3258 672 
C 3398 640 3450 666 3494 723 
L 3053 960 
z
M 2989 1434 
L 2989 2138 
L 5197 2138 
L 5197 1434 
L 2989 1434 
z
M 5197 1242 
L 5197 1024 
L 5235 1024 
C 5325 1024 5472 1094 5478 1133 
L 5478 2093 
C 5587 2112 5690 2163 5722 2208 
L 5312 2515 
L 5139 2330 
L 3021 2330 
L 2707 2483 
L 2707 998 
L 2752 998 
C 2861 998 2989 1062 2989 1088 
L 2989 1242 
L 3936 1242 
L 3936 19 
C 3936 -58 3910 -90 3802 -90 
C 3680 -90 3136 -51 3136 -51 
L 3136 -154 
C 3379 -173 3526 -205 3610 -256 
C 3674 -307 3706 -390 3712 -467 
C 4154 -416 4218 -237 4218 19 
L 4218 1242 
L 5197 1242 
z
M 4678 832 
C 5082 614 5613 186 5773 -166 
C 6170 -352 6266 486 4742 902 
L 4678 832 
z
M 5440 2906 
L 4198 2906 
L 4198 3264 
C 4320 3283 4371 3341 4384 3411 
L 3917 3469 
L 3917 2906 
L 2214 2906 
L 2266 2720 
L 5997 2720 
C 6086 2720 6138 2752 6157 2816 
C 5978 2989 5696 3213 5696 3213 
L 5440 2906 
z
" transform="scale(0.015625)"/>
      </defs>
      <use xlink:href="#NotoSerifCJKjp-ExtraLight-674e"/>
      <use xlink:href="#NotoSerifCJKjp-ExtraLight-53d4" x="99.999985"/>
      <use xlink:href="#NotoSerifCJKjp-ExtraLight-749f" x="199.999969"/>
     </g>
    </g>
    <g clip-path="url(#p1f1d756bdf)">
     <!--   -->
     <g transform="translate(495.959699 921.766452) scale(0.12 -0.12)">
      <defs>
       <path id="NotoSerifCJKjp-ExtraLight-20" transform="scale(0.015625)"/>
      </defs>
      <use xlink:href="#NotoSerifCJKjp-ExtraLight-20"/>
     </g>
    </g>
   </g>
   <g id="text_13">
    <g clip-path="url(#p1f1d756bdf)">
     <!-- 李綽 -->
     <g transform="translate(972.682117 907.126452) scale(0.12 -0.12)">
      <defs>
       <path id="NotoSerifCJKjp-ExtraLight-7dbd" d="M 1293 5338 
C 1133 4915 941 4435 781 4096 
C 666 4173 518 4243 333 4307 
L 262 4250 
C 518 4058 813 3712 883 3437 
C 1133 3270 1318 3648 902 4006 
C 1120 4294 1370 4685 1568 5024 
C 1696 5018 1773 5069 1805 5139 
L 1293 5338 
z
M 390 64 
C 627 435 819 992 954 1498 
C 1082 1498 1139 1555 1165 1632 
L 685 1741 
C 608 1158 454 544 282 115 
L 390 64 
z
M 1805 3155 
C 1907 3008 2016 2810 2106 2611 
C 1722 2592 1344 2573 1024 2560 
C 1466 3110 1958 3814 2253 4307 
C 2381 4288 2470 4333 2502 4403 
L 2010 4614 
C 1709 4006 1229 3168 838 2554 
C 621 2547 435 2541 301 2541 
L 467 2144 
C 525 2157 582 2189 621 2272 
C 890 2304 1133 2336 1350 2362 
L 1350 -467 
L 1389 -467 
C 1523 -467 1632 -390 1632 -358 
L 1632 2400 
C 1830 2432 2003 2458 2157 2477 
C 2208 2349 2240 2227 2253 2112 
C 2554 1843 2842 2534 1888 3194 
L 1805 3155 
z
M 1901 1709 
C 2054 1414 2240 934 2246 582 
C 2534 294 2854 992 1984 1741 
L 1901 1709 
z
M 3162 2758 
L 5427 2758 
L 5427 2035 
L 3162 2035 
L 3162 2758 
z
M 5427 3629 
L 5427 2944 
L 3162 2944 
L 3162 3629 
L 5427 3629 
z
M 5395 1069 
L 4429 1069 
L 4429 1850 
L 5427 1850 
L 5427 1536 
L 5466 1536 
C 5587 1536 5715 1619 5715 1645 
L 5715 3610 
C 5830 3629 5901 3661 5946 3712 
L 5562 4013 
L 5408 3821 
L 4410 3821 
L 4410 4410 
L 5843 4410 
C 5933 4410 5990 4442 6010 4506 
C 5824 4678 5542 4902 5542 4902 
L 5293 4595 
L 4410 4595 
L 4410 5082 
C 4544 5107 4602 5165 4614 5248 
L 4122 5299 
L 4122 3821 
L 3232 3821 
L 2880 3987 
L 2880 1466 
L 2918 1466 
C 3066 1466 3162 1542 3162 1568 
L 3162 1850 
L 4141 1850 
L 4141 1069 
L 2579 1069 
L 2630 877 
L 4141 877 
L 4141 -461 
L 4179 -461 
C 4326 -461 4429 -384 4429 -358 
L 4429 877 
L 5978 877 
C 6067 877 6125 909 6138 979 
C 5952 1152 5658 1389 5658 1389 
L 5395 1069 
z
" transform="scale(0.015625)"/>
      </defs>
      <use xlink:href="#NotoSerifCJKjp-ExtraLight-674e"/>
      <use xlink:href="#NotoSerifCJKjp-ExtraLight-7dbd" x="99.999985"/>
     </g>
    </g>
    <g clip-path="url(#p1f1d756bdf)">
     <!-- 部將 -->
     <g transform="translate(972.682117 921.766452) scale(0.12 -0.12)">
      <defs>
       <path id="NotoSerifCJKjp-ExtraLight-90e8" d="M 454 4307 
L 3539 4307 
C 3622 4307 3680 4339 3699 4410 
C 3514 4582 3213 4819 3213 4819 
L 2950 4493 
L 2074 4493 
L 2074 5088 
C 2227 5107 2298 5171 2310 5261 
L 1792 5318 
L 1792 4493 
L 403 4493 
L 454 4307 
z
M 960 4096 
C 1126 3814 1318 3354 1325 3008 
C 1600 2739 1914 3418 1050 4134 
L 960 4096 
z
M 1171 301 
L 1171 1728 
L 2886 1728 
L 2886 301 
L 1171 301 
z
M 2822 1920 
L 1203 1920 
L 890 2074 
L 890 -467 
L 941 -467 
C 1062 -467 1171 -390 1171 -365 
L 1171 115 
L 2886 115 
L 2886 -390 
L 2925 -390 
C 3021 -390 3162 -314 3168 -275 
L 3168 1664 
C 3290 1690 3405 1741 3443 1792 
L 3008 2125 
L 2822 1920 
z
M 3040 2803 
L 2413 2803 
C 2643 3149 2880 3571 3027 3891 
C 3162 3885 3238 3942 3264 4013 
L 2739 4166 
C 2624 3757 2426 3200 2259 2803 
L 307 2803 
L 358 2618 
L 3629 2618 
C 3718 2618 3776 2650 3795 2720 
C 3610 2899 3302 3136 3302 3136 
L 3040 2803 
z
M 5773 5088 
L 5549 4870 
L 4429 4870 
L 4070 5069 
L 4070 -474 
L 4109 -474 
C 4250 -474 4352 -390 4352 -358 
L 4352 4678 
L 5549 4678 
C 5338 4128 5018 3315 4826 2899 
C 5459 2342 5709 1830 5709 1318 
C 5709 1018 5632 864 5485 787 
C 5421 755 5376 749 5299 749 
L 4627 749 
L 4627 640 
C 4819 627 4986 602 5050 563 
C 5107 525 5133 454 5133 352 
C 5786 390 6022 659 6016 1280 
C 6016 1805 5741 2349 4979 2918 
C 5242 3328 5670 4173 5882 4608 
C 6029 4608 6125 4621 6170 4672 
L 5773 5088 
z
" transform="scale(0.015625)"/>
       <path id="NotoSerifCJKjp-ExtraLight-5c07" d="M 1843 5286 
L 1843 3437 
L 934 3437 
L 934 4819 
C 1094 4845 1158 4896 1171 4986 
L 653 5050 
L 653 2803 
L 704 2803 
C 813 2803 934 2874 934 2925 
L 934 3245 
L 1843 3245 
L 1843 2189 
L 262 2189 
L 320 1997 
L 838 1997 
C 826 1178 781 307 294 -378 
L 403 -480 
C 1043 192 1114 1101 1139 1997 
L 1843 1997 
L 1843 -442 
L 1901 -442 
C 2003 -442 2125 -371 2125 -314 
L 2125 5043 
C 2285 5069 2336 5133 2355 5222 
L 1843 5286 
z
M 2394 2272 
C 3981 2746 5005 3450 5754 4538 
C 5894 4544 5990 4563 6035 4608 
L 5670 4941 
L 5478 4762 
L 3942 4762 
C 4045 4870 4128 4986 4205 5094 
C 4358 5062 4410 5088 4442 5152 
L 3936 5344 
C 3597 4710 2925 4019 2246 3616 
L 2310 3526 
C 2528 3622 2746 3744 2950 3885 
L 2912 3846 
C 3168 3699 3462 3424 3552 3194 
C 3878 3014 4032 3686 2989 3910 
C 3181 4038 3360 4186 3526 4333 
C 3795 4192 4141 3936 4282 3738 
C 4608 3603 4710 4218 3603 4403 
C 3661 4461 3718 4512 3770 4570 
L 5402 4570 
C 4717 3514 3712 2861 2330 2374 
L 2394 2272 
z
M 2982 1555 
C 3277 1306 3635 858 3712 518 
C 4058 269 4288 1062 3059 1613 
L 2982 1555 
z
M 5440 2093 
L 5120 2093 
L 5120 2867 
C 5274 2893 5325 2944 5344 3034 
L 4838 3098 
L 4838 2093 
L 2387 2093 
L 2438 1907 
L 4838 1907 
L 4838 90 
C 4838 -19 4800 -64 4646 -64 
C 4480 -64 3629 0 3629 0 
L 3629 -109 
C 3981 -141 4192 -186 4314 -243 
C 4410 -294 4461 -371 4480 -467 
C 5062 -403 5120 -205 5120 64 
L 5120 1907 
L 6022 1907 
C 6112 1907 6170 1933 6182 2003 
C 6003 2182 5702 2413 5702 2413 
L 5440 2093 
z
" transform="scale(0.015625)"/>
      </defs>
      <use xlink:href="#NotoSerifCJKjp-ExtraLight-90e8"/>
      <use xlink:href="#NotoSerifCJKjp-ExtraLight-5c07" x="99.999985"/>
     </g>
    </g>
   </g>
   <g id="text_14">
    <g clip-path="url(#p1f1d756bdf)">
     <!-- 李絳 -->
     <g transform="translate(1459.831056 907.126452) scale(0.12 -0.12)">
      <defs>
       <path id="NotoSerifCJKjp-ExtraLight-7d73" d="M 1293 5338 
C 1133 4915 941 4435 781 4096 
C 666 4173 518 4243 333 4307 
L 262 4250 
C 518 4058 813 3712 883 3437 
C 1133 3270 1318 3648 902 4006 
C 1120 4294 1370 4685 1568 5024 
C 1696 5018 1773 5069 1805 5139 
L 1293 5338 
z
M 390 64 
C 627 435 819 992 954 1498 
C 1082 1498 1139 1555 1165 1632 
L 685 1741 
C 608 1158 454 544 282 115 
L 390 64 
z
M 1773 3187 
C 1875 3040 1984 2842 2074 2643 
C 1702 2618 1344 2592 1037 2573 
C 1472 3123 1958 3821 2253 4314 
C 2387 4294 2470 4339 2509 4416 
L 2010 4614 
C 1715 4013 1235 3174 845 2566 
C 621 2554 435 2541 301 2541 
L 474 2150 
C 531 2163 589 2195 621 2278 
C 890 2317 1133 2355 1350 2387 
L 1350 -467 
L 1389 -467 
C 1523 -467 1632 -390 1632 -358 
L 1632 2432 
C 1818 2464 1984 2490 2125 2515 
C 2176 2387 2208 2259 2221 2144 
C 2522 1875 2810 2566 1856 3219 
L 1773 3187 
z
M 1901 1773 
C 2054 1478 2240 998 2246 646 
C 2534 358 2854 1056 1984 1805 
L 1901 1773 
z
M 5421 1037 
L 4678 1037 
L 4678 2003 
L 5786 2003 
C 5875 2003 5933 2035 5946 2106 
C 5773 2278 5498 2490 5498 2490 
L 5261 2195 
L 4678 2195 
L 4678 2707 
C 4800 2726 4851 2771 4864 2848 
L 4397 2906 
L 4397 2195 
L 2797 2195 
L 2848 2003 
L 4397 2003 
L 4397 1037 
L 3219 1037 
C 3258 1242 3296 1446 3315 1562 
C 3475 1574 3539 1638 3558 1728 
L 3072 1792 
C 3034 1504 2893 813 2784 544 
C 2918 506 3046 512 3104 563 
C 3123 640 3149 742 3174 845 
L 4397 845 
L 4397 -467 
L 4454 -467 
C 4557 -467 4678 -397 4678 -346 
L 4678 845 
L 5978 845 
C 6067 845 6125 877 6138 947 
C 5958 1114 5677 1344 5677 1344 
L 5421 1037 
z
M 5114 4525 
C 4934 4224 4691 3936 4403 3680 
C 4109 3872 3846 4102 3654 4358 
C 3699 4410 3744 4467 3782 4525 
L 5114 4525 
z
M 5389 4922 
L 5158 4717 
L 3917 4717 
C 3981 4819 4045 4922 4102 5030 
C 4250 5018 4326 5075 4352 5146 
L 3846 5325 
C 3514 4538 2976 3859 2464 3475 
L 2547 3386 
C 2899 3584 3251 3872 3558 4237 
C 3738 3968 3968 3731 4230 3520 
C 3750 3130 3168 2790 2528 2554 
L 2592 2445 
C 3315 2669 3930 2989 4429 3373 
C 4883 3059 5421 2816 5990 2656 
C 6035 2784 6131 2861 6246 2874 
L 6259 2944 
C 5677 3066 5114 3264 4640 3539 
C 4979 3827 5261 4154 5485 4499 
C 5645 4506 5715 4525 5760 4576 
L 5389 4922 
z
" transform="scale(0.015625)"/>
      </defs>
      <use xlink:href="#NotoSerifCJKjp-ExtraLight-674e"/>
      <use xlink:href="#NotoSerifCJKjp-ExtraLight-7d73" x="99.999985"/>
     </g>
    </g>
    <g clip-path="url(#p1f1d756bdf)">
     <!-- 司正 -->
     <g transform="translate(1459.831056 921.766452) scale(0.12 -0.12)">
      <defs>
       <path id="NotoSerifCJKjp-ExtraLight-53f8" d="M 3936 3891 
L 442 3891 
L 493 3699 
L 4512 3699 
C 4602 3699 4666 3731 4685 3802 
C 4493 3981 4198 4205 4198 4205 
L 3936 3891 
z
M 1402 1139 
L 1402 2650 
L 3475 2650 
L 3475 1139 
L 1402 1139 
z
M 3603 3046 
L 3411 2835 
L 1434 2835 
L 1120 2995 
L 1120 205 
L 1171 205 
C 1293 205 1402 269 1402 301 
L 1402 954 
L 3475 954 
L 3475 422 
L 3514 422 
C 3610 422 3750 506 3757 544 
L 3757 2586 
C 3885 2611 3994 2662 4038 2714 
L 3603 3046 
z
M 5363 5210 
L 5203 4986 
L 595 4986 
L 653 4800 
L 5267 4800 
L 5267 115 
C 5267 -6 5222 -58 5062 -58 
C 4890 -58 4019 13 4019 13 
L 4019 -90 
C 4378 -134 4595 -179 4723 -237 
C 4826 -288 4870 -365 4890 -461 
C 5491 -397 5549 -192 5549 77 
L 5549 4736 
C 5677 4755 5786 4813 5830 4864 
L 5363 5210 
z
" transform="scale(0.015625)"/>
       <path id="NotoSerifCJKjp-ExtraLight-6b63" d="M 5325 19 
L 3373 19 
L 3373 2374 
L 5402 2374 
C 5491 2374 5555 2406 5574 2477 
C 5370 2662 5056 2906 5056 2906 
L 4781 2566 
L 3373 2566 
L 3373 4589 
L 5741 4589 
C 5830 4589 5888 4621 5907 4691 
C 5709 4877 5382 5126 5382 5126 
L 5101 4781 
L 518 4781 
L 576 4589 
L 3091 4589 
L 3091 19 
L 1594 19 
L 1594 2989 
C 1747 3014 1811 3078 1830 3168 
L 1312 3226 
L 1312 19 
L 294 19 
L 352 -173 
L 5965 -173 
C 6054 -173 6112 -141 6131 -70 
C 5926 122 5606 365 5606 365 
L 5325 19 
z
" transform="scale(0.015625)"/>
      </defs>
      <use xlink:href="#NotoSerifCJKjp-ExtraLight-53f8"/>
      <use xlink:href="#NotoSerifCJKjp-ExtraLight-6b63" x="99.999985"/>
     </g>
    </g>
   </g>
   <g id="text_15">
    <g clip-path="url(#p1f1d756bdf)">
     <!-- 李昌東 -->
     <g transform="translate(1940.979995 663.255484) scale(0.12 -0.12)">
      <defs>
       <path id="NotoSerifCJKjp-ExtraLight-660c" d="M 4749 4742 
L 4749 4026 
L 1798 4026 
L 1798 4742 
L 4749 4742 
z
M 1798 3098 
L 1798 3834 
L 4749 3834 
L 4749 3098 
L 1798 3098 
z
M 1798 2906 
L 4749 2906 
L 4749 2650 
L 4787 2650 
C 4877 2650 5024 2733 5030 2771 
L 5030 4678 
C 5158 4704 5267 4755 5306 4806 
L 4877 5139 
L 4685 4928 
L 1830 4928 
L 1517 5094 
L 1517 2605 
L 1562 2605 
C 1677 2605 1798 2675 1798 2701 
L 1798 2906 
z
M 1261 192 
L 1261 1030 
L 5242 1030 
L 5242 192 
L 1261 192 
z
M 5242 2029 
L 5242 1216 
L 1261 1216 
L 1261 2029 
L 5242 2029 
z
M 5363 2426 
L 5178 2221 
L 1299 2221 
L 979 2381 
L 979 -467 
L 1030 -467 
C 1146 -467 1261 -397 1261 -365 
L 1261 0 
L 5242 0 
L 5242 -435 
L 5280 -435 
C 5370 -435 5517 -352 5523 -314 
L 5523 1965 
C 5651 1990 5754 2042 5798 2093 
L 5363 2426 
z
" transform="scale(0.015625)"/>
      </defs>
      <use xlink:href="#NotoSerifCJKjp-ExtraLight-674e"/>
      <use xlink:href="#NotoSerifCJKjp-ExtraLight-660c" x="99.999985"/>
      <use xlink:href="#NotoSerifCJKjp-ExtraLight-6771" x="199.999969"/>
     </g>
    </g>
    <g clip-path="url(#p1f1d756bdf)">
     <!--  -->
     <g transform="translate(1958.979995 677.895484) scale(0.12 -0.12)"/>
    </g>
   </g>
   <g id="text_16">
    <g clip-path="url(#p1f1d756bdf)">
     <!-- 李絟 -->
     <g transform="translate(1946.979995 907.126452) scale(0.12 -0.12)">
      <defs>
       <path id="NotoSerifCJKjp-ExtraLight-7d5f" d="M 1299 5338 
C 1146 4909 954 4435 787 4090 
C 678 4166 525 4243 339 4301 
L 275 4250 
C 525 4058 819 3712 890 3437 
C 1146 3270 1318 3648 909 4000 
C 1133 4288 1376 4685 1574 5024 
C 1702 5018 1779 5069 1805 5139 
L 1299 5338 
z
M 397 64 
C 634 435 826 986 960 1491 
C 1088 1491 1146 1555 1171 1632 
L 698 1734 
C 614 1152 461 538 294 115 
L 397 64 
z
M 1760 3219 
C 1869 3053 1997 2829 2086 2611 
C 1709 2592 1344 2573 1030 2560 
C 1472 3110 1958 3814 2259 4307 
C 2387 4294 2477 4339 2509 4410 
L 2016 4614 
C 1722 4006 1235 3168 851 2554 
C 627 2547 442 2541 307 2541 
L 474 2144 
C 531 2157 589 2189 627 2272 
C 890 2304 1139 2336 1357 2368 
L 1357 -461 
L 1395 -461 
C 1530 -461 1638 -384 1638 -358 
L 1638 2400 
C 1824 2426 1997 2451 2138 2477 
C 2176 2368 2202 2266 2208 2176 
C 2509 1907 2797 2598 1843 3251 
L 1760 3219 
z
M 1901 1702 
C 2054 1408 2240 928 2246 576 
C 2534 294 2854 986 1990 1734 
L 1901 1702 
z
M 5363 0 
L 4390 0 
L 4390 1318 
L 5504 1318 
C 5594 1318 5651 1350 5670 1421 
C 5485 1606 5184 1843 5184 1843 
L 4928 1510 
L 4390 1510 
L 4390 2643 
L 5350 2643 
C 5440 2643 5491 2675 5504 2746 
C 5350 2912 5082 3123 5082 3123 
L 4858 2835 
L 3014 2835 
L 3066 2643 
L 4109 2643 
L 4109 1510 
L 2931 1510 
L 2982 1318 
L 4109 1318 
L 4109 0 
L 2541 0 
L 2592 -192 
L 5939 -192 
C 6029 -192 6086 -160 6106 -90 
C 5920 96 5619 333 5619 333 
L 5363 0 
z
M 4294 5331 
L 4115 5075 
L 2925 5075 
L 2982 4883 
L 4019 4883 
C 3686 4128 3142 3398 2483 2848 
L 2573 2746 
C 3322 3264 3910 3955 4301 4742 
C 4608 4006 5190 3322 5862 2842 
C 5907 2944 6022 3021 6144 3027 
L 6163 3091 
C 5402 3520 4717 4230 4442 4858 
C 4614 4864 4749 4902 4806 4979 
L 4294 5331 
z
" transform="scale(0.015625)"/>
      </defs>
      <use xlink:href="#NotoSerifCJKjp-ExtraLight-674e"/>
      <use xlink:href="#NotoSerifCJKjp-ExtraLight-7d5f" x="99.999985"/>
     </g>
    </g>
    <g clip-path="url(#p1f1d756bdf)">
     <!-- 奉事 -->
     <g transform="translate(1946.979995 921.766452) scale(0.12 -0.12)">
      <defs>
       <path id="NotoSerifCJKjp-ExtraLight-5949" d="M 4755 922 
L 3328 922 
L 3328 1645 
L 4614 1645 
C 4698 1645 4762 1677 4774 1747 
C 4595 1920 4320 2138 4320 2138 
L 4070 1837 
L 3328 1837 
L 3328 2330 
C 3488 2349 3552 2406 3565 2496 
L 3046 2560 
L 3046 1837 
L 1670 1837 
L 1722 1645 
L 3046 1645 
L 3046 922 
L 998 922 
L 1050 730 
L 3046 730 
L 3046 -467 
L 3104 -467 
C 3206 -467 3328 -397 3328 -346 
L 3328 730 
L 5350 730 
C 5440 730 5498 762 5517 832 
C 5325 1018 5024 1248 5024 1248 
L 4755 922 
z
M 2317 2982 
C 2464 3194 2598 3418 2714 3642 
L 3622 3642 
C 3725 3411 3859 3194 4006 2982 
L 2317 2982 
z
M 5926 2790 
C 6016 2790 6074 2822 6093 2893 
C 5894 3078 5587 3315 5587 3315 
L 5312 2982 
L 4262 2982 
C 4070 3194 3910 3411 3782 3642 
L 5421 3642 
C 5504 3642 5568 3674 5587 3744 
C 5395 3923 5101 4154 5101 4154 
L 4845 3834 
L 2810 3834 
C 2906 4032 2995 4237 3072 4442 
L 5683 4442 
C 5766 4442 5830 4467 5843 4538 
C 5658 4723 5350 4954 5350 4954 
L 5088 4627 
L 3136 4627 
C 3194 4781 3238 4934 3283 5088 
C 3411 5082 3501 5126 3533 5216 
L 2989 5370 
C 2931 5120 2861 4877 2778 4627 
L 621 4627 
L 678 4442 
L 2714 4442 
C 2637 4237 2554 4032 2458 3834 
L 909 3834 
L 960 3642 
L 2368 3642 
C 2253 3418 2125 3194 1984 2982 
L 314 2982 
L 371 2790 
L 1850 2790 
C 1427 2208 890 1696 224 1312 
L 288 1235 
C 1094 1626 1709 2170 2176 2790 
L 4147 2790 
C 4608 2189 5210 1690 5856 1370 
C 5901 1498 6042 1549 6189 1549 
L 6208 1619 
C 5606 1869 4954 2285 4442 2790 
L 5926 2790 
z
" transform="scale(0.015625)"/>
       <path id="NotoSerifCJKjp-ExtraLight-4e8b" d="M 4896 806 
L 3328 806 
L 3328 1414 
L 4896 1414 
L 4896 806 
z
M 3328 2195 
L 4896 2195 
L 4896 1600 
L 3328 1600 
L 3328 2195 
z
M 1510 3174 
L 1510 3808 
L 3046 3808 
L 3046 3174 
L 1510 3174 
z
M 4864 3808 
L 4864 3174 
L 3328 3174 
L 3328 3808 
L 4864 3808 
z
M 5382 1600 
L 5184 1600 
L 5184 2131 
C 5306 2157 5414 2208 5459 2259 
L 5024 2592 
L 4838 2381 
L 3328 2381 
L 3328 2982 
L 4864 2982 
L 4864 2752 
L 4896 2752 
C 4992 2752 5139 2822 5146 2861 
L 5146 3744 
C 5267 3770 5376 3821 5421 3872 
L 4979 4198 
L 4800 4000 
L 3328 4000 
L 3328 4506 
L 5939 4506 
C 6029 4506 6093 4538 6106 4608 
C 5907 4800 5587 5043 5587 5043 
L 5299 4698 
L 3328 4698 
L 3328 5101 
C 3482 5120 3546 5184 3565 5274 
L 3046 5331 
L 3046 4698 
L 301 4698 
L 358 4506 
L 3046 4506 
L 3046 4000 
L 1542 4000 
L 1229 4154 
L 1229 2669 
L 1274 2669 
C 1389 2669 1510 2733 1510 2758 
L 1510 2982 
L 3046 2982 
L 3046 2381 
L 1069 2381 
L 1120 2195 
L 3046 2195 
L 3046 1600 
L 294 1600 
L 352 1414 
L 3046 1414 
L 3046 806 
L 1030 806 
L 1088 621 
L 3046 621 
L 3046 77 
C 3046 -45 3002 -90 2854 -90 
C 2707 -90 1907 -26 1907 -26 
L 1907 -134 
C 2234 -166 2438 -205 2547 -262 
C 2643 -314 2688 -390 2714 -480 
C 3270 -422 3328 -218 3328 45 
L 3328 621 
L 4896 621 
L 4896 282 
L 4934 282 
C 5030 282 5178 365 5184 403 
L 5184 1414 
L 5978 1414 
C 6067 1414 6131 1446 6144 1510 
C 5958 1696 5651 1946 5651 1946 
L 5382 1600 
z
" transform="scale(0.015625)"/>
      </defs>
      <use xlink:href="#NotoSerifCJKjp-ExtraLight-5949"/>
      <use xlink:href="#NotoSerifCJKjp-ExtraLight-4e8b" x="99.999985"/>
     </g>
    </g>
   </g>
   <g id="text_17">
    <g clip-path="url(#p1f1d756bdf)">
     <!-- 鄭胤曾 -->
     <g transform="translate(2428.128934 907.126452) scale(0.12 -0.12)">
      <defs>
       <path id="NotoSerifCJKjp-ExtraLight-912d" d="M 1018 2291 
L 3328 2291 
L 3328 1933 
L 1018 1933 
L 1018 2291 
z
M 1613 3482 
C 1581 3187 1466 2906 1101 2662 
L 1171 2566 
C 1709 2803 1862 3142 1901 3482 
L 2355 3482 
L 2355 3066 
C 2355 2874 2406 2790 2662 2790 
L 2899 2790 
C 3104 2790 3238 2797 3328 2822 
L 3328 2477 
L 1018 2477 
L 1018 3482 
L 1613 3482 
z
M 1914 3757 
L 1914 4109 
L 2355 4109 
L 2355 3667 
L 1914 3667 
L 1914 3757 
z
M 3328 3482 
L 3328 3059 
L 3315 3066 
L 3296 3072 
L 3238 3072 
C 3213 3059 3181 3053 3155 3053 
L 3098 3053 
C 3059 3046 2989 3046 2918 3046 
L 2733 3046 
C 2656 3046 2643 3072 2643 3136 
L 2643 3482 
L 3328 3482 
z
M 3315 1139 
L 2272 1139 
C 2298 1325 2310 1523 2317 1741 
L 3328 1741 
L 3328 1510 
L 3366 1510 
C 3488 1510 3616 1587 3616 1619 
L 3616 3462 
C 3731 3482 3802 3520 3846 3565 
L 3462 3859 
L 3309 3667 
L 2643 3667 
L 2643 4109 
L 3104 4109 
C 3187 4109 3245 4141 3258 4211 
C 3104 4371 2842 4570 2842 4570 
L 2624 4301 
L 1178 4301 
C 1267 4403 1344 4506 1408 4614 
C 1530 4595 1613 4640 1645 4698 
L 1165 4934 
C 979 4454 614 3994 237 3738 
L 314 3648 
C 614 3782 883 3981 1101 4218 
L 1126 4109 
L 1626 4109 
L 1626 3757 
L 1626 3667 
L 1094 3667 
L 736 3834 
L 736 1395 
L 774 1395 
C 922 1395 1018 1478 1018 1504 
L 1018 1741 
L 2003 1741 
C 1997 1523 1990 1325 1965 1139 
L 320 1139 
L 371 954 
L 1926 954 
C 1798 390 1414 -32 250 -358 
L 326 -467 
C 1350 -218 1843 102 2080 525 
C 2554 352 3110 45 3347 -243 
C 3757 -346 3667 429 2144 659 
C 2189 749 2214 851 2240 954 
L 3904 954 
C 3994 954 4045 986 4064 1056 
C 3878 1229 3578 1472 3578 1472 
L 3315 1139 
z
M 2893 5312 
L 2726 5075 
L 1536 5075 
L 1594 4883 
L 2848 4883 
C 3008 4410 3360 4032 3878 3763 
C 3910 3878 4026 3949 4134 3968 
L 4154 4032 
C 3610 4224 3181 4531 3014 4870 
C 3181 4883 3302 4915 3360 4986 
L 2893 5312 
z
M 5766 5126 
L 5542 4896 
L 4602 4896 
L 4243 5101 
L 4243 -467 
L 4282 -467 
C 4429 -467 4525 -384 4525 -352 
L 4525 4710 
L 5549 4710 
C 5363 4147 5075 3290 4890 2848 
C 5466 2278 5683 1741 5683 1203 
C 5683 890 5613 723 5478 653 
C 5421 621 5382 614 5306 614 
L 4704 614 
L 4704 499 
C 4877 486 5024 461 5082 422 
C 5139 384 5165 307 5165 205 
C 5786 243 6003 499 6003 1158 
C 6003 1709 5747 2272 5050 2874 
C 5299 3302 5702 4186 5894 4634 
C 6042 4640 6131 4653 6176 4704 
L 5766 5126 
z
" transform="scale(0.015625)"/>
       <path id="NotoSerifCJKjp-ExtraLight-80e4" d="M 2970 5293 
C 2797 4960 2579 4627 2387 4384 
C 2259 4474 2080 4550 1850 4614 
L 1779 4550 
C 2048 4390 2387 4077 2496 3834 
C 2720 3712 2854 4000 2515 4294 
C 2733 4486 2963 4736 3155 4979 
C 3277 4954 3360 4998 3392 5056 
L 2970 5293 
z
M 1075 2957 
C 1075 1747 947 512 237 -390 
L 339 -467 
C 1197 422 1350 1741 1357 2957 
L 1357 4909 
C 1517 4934 1562 4998 1574 5088 
L 1075 5146 
L 1075 2957 
z
M 2298 1043 
L 2298 1594 
L 3834 1594 
L 3834 1043 
L 2298 1043 
z
M 3834 2323 
L 3834 1786 
L 2298 1786 
L 2298 2323 
L 3834 2323 
z
M 3776 2509 
L 2330 2509 
L 2010 2669 
L 2010 -352 
L 2061 -352 
C 2182 -352 2298 -282 2298 -250 
L 2298 851 
L 3834 851 
L 3834 160 
C 3834 64 3802 26 3686 26 
C 3565 26 2957 77 2957 77 
L 2957 -32 
C 3213 -58 3373 -102 3462 -154 
C 3539 -205 3578 -288 3590 -378 
C 4064 -326 4115 -154 4115 115 
L 4115 2278 
C 4224 2298 4326 2349 4365 2387 
L 3936 2707 
L 3776 2509 
z
M 3578 3763 
C 3725 3654 3898 3501 4045 3341 
C 3546 3328 3059 3315 2643 3309 
C 3117 3642 3603 4090 3910 4461 
C 4038 4442 4141 4467 4179 4538 
L 3744 4774 
C 3418 4307 2886 3712 2426 3302 
C 2074 3296 1786 3296 1587 3296 
L 1773 2912 
C 1830 2925 1888 2963 1926 3040 
C 2880 3104 3610 3162 4154 3206 
C 4237 3091 4307 2982 4346 2880 
C 4672 2688 4845 3379 3642 3827 
L 3578 3763 
z
M 5984 986 
L 5894 986 
C 5850 614 5779 83 5747 0 
C 5728 -51 5715 -64 5683 -70 
C 5645 -70 5562 -77 5459 -77 
L 5261 -77 
C 5146 -77 5126 -32 5126 77 
L 5126 4902 
C 5286 4928 5331 4998 5344 5082 
L 4845 5146 
L 4845 -13 
C 4845 -224 4902 -339 5216 -339 
L 5485 -339 
C 6010 -346 6144 -288 6144 -166 
C 6144 -102 6125 -70 6010 -32 
L 5984 986 
z
" transform="scale(0.015625)"/>
       <path id="NotoSerifCJKjp-ExtraLight-66fe" d="M 1818 38 
L 1818 710 
L 4582 710 
L 4582 38 
L 1818 38 
z
M 4582 1555 
L 4582 902 
L 1818 902 
L 1818 1555 
L 4582 1555 
z
M 4525 1747 
L 1850 1747 
L 1530 1907 
L 1530 -480 
L 1581 -480 
C 1696 -480 1818 -410 1818 -378 
L 1818 -154 
L 4582 -154 
L 4582 -429 
L 4621 -429 
C 4717 -429 4864 -352 4870 -314 
L 4870 1510 
C 4973 1530 5075 1581 5114 1626 
L 4704 1939 
L 4525 1747 
z
M 1818 3546 
C 1997 3341 2195 2989 2214 2720 
C 2502 2470 2790 3117 1901 3590 
L 1818 3546 
z
M 4205 3597 
C 4109 3354 3949 2925 3821 2669 
L 3891 2605 
C 4064 2816 4320 3136 4454 3309 
C 4589 3290 4646 3322 4666 3379 
L 4205 3597 
z
M 3328 2477 
L 3328 3738 
L 4941 3738 
L 4941 2477 
L 3328 2477 
z
M 1446 3738 
L 3046 3738 
L 3046 2477 
L 1446 2477 
L 1446 3738 
z
M 4122 5344 
L 3942 5088 
L 2458 5088 
L 2515 4896 
L 4083 4896 
C 4262 4538 4544 4218 4902 3942 
L 4890 3930 
L 1517 3930 
L 1472 3949 
C 1760 4205 2010 4474 2176 4717 
C 2323 4685 2368 4710 2413 4774 
L 1939 4998 
C 1619 4416 941 3699 230 3277 
L 294 3187 
C 602 3328 902 3507 1171 3712 
L 1171 1990 
L 1210 1990 
C 1344 1990 1446 2074 1446 2099 
L 1446 2291 
L 4941 2291 
L 4941 2042 
L 4979 2042 
C 5075 2042 5222 2118 5229 2157 
L 5229 3712 
C 5434 3584 5651 3469 5882 3366 
C 5920 3488 6035 3578 6163 3597 
L 6176 3661 
C 5312 3923 4557 4410 4269 4883 
C 4448 4896 4576 4928 4634 5005 
L 4122 5344 
z
" transform="scale(0.015625)"/>
      </defs>
      <use xlink:href="#NotoSerifCJKjp-ExtraLight-912d"/>
      <use xlink:href="#NotoSerifCJKjp-ExtraLight-80e4" x="99.999985"/>
      <use xlink:href="#NotoSerifCJKjp-ExtraLight-66fe" x="199.999969"/>
     </g>
    </g>
    <g clip-path="url(#p1f1d756bdf)">
     <!-- 司直 -->
     <g transform="translate(2434.128934 921.766452) scale(0.12 -0.12)">
      <defs>
       <path id="NotoSerifCJKjp-ExtraLight-76f4" d="M 4678 3450 
L 4678 2771 
L 2362 2771 
L 2362 3450 
L 4678 3450 
z
M 2362 1005 
L 2362 1709 
L 4678 1709 
L 4678 1005 
L 2362 1005 
z
M 2362 2586 
L 4678 2586 
L 4678 1901 
L 2362 1901 
L 2362 2586 
z
M 2400 3635 
L 2086 3802 
L 2086 518 
L 2138 518 
C 2259 518 2362 589 2362 627 
L 2362 813 
L 4678 813 
L 4678 538 
L 4717 538 
C 4813 538 4954 621 4960 659 
L 4960 3386 
C 5088 3411 5197 3462 5242 3514 
L 4806 3853 
L 4614 3635 
L 3302 3635 
L 3360 4307 
L 5818 4307 
C 5907 4307 5971 4339 5990 4410 
C 5786 4595 5466 4845 5466 4845 
L 5184 4493 
L 3373 4493 
L 3424 5126 
C 3546 5146 3616 5210 3622 5293 
L 3123 5331 
C 3117 5075 3104 4781 3085 4493 
L 390 4493 
L 448 4307 
L 3078 4307 
C 3066 4058 3046 3821 3034 3635 
L 2400 3635 
z
M 5325 109 
L 1107 109 
L 1107 3290 
C 1267 3309 1325 3373 1344 3462 
L 826 3526 
L 826 -461 
L 883 -461 
C 992 -461 1107 -390 1107 -333 
L 1107 -83 
L 5965 -83 
C 6054 -83 6118 -51 6138 19 
C 5933 211 5613 454 5613 454 
L 5325 109 
z
" transform="scale(0.015625)"/>
      </defs>
      <use xlink:href="#NotoSerifCJKjp-ExtraLight-53f8"/>
      <use xlink:href="#NotoSerifCJKjp-ExtraLight-76f4" x="99.999985"/>
     </g>
    </g>
   </g>
   <g id="text_18">
    <g clip-path="url(#p1f1d756bdf)">
     <!-- 李勖 -->
     <g transform="translate(1946.979995 419.384516) scale(0.12 -0.12)">
      <defs>
       <path id="NotoSerifCJKjp-ExtraLight-52d6" d="M 736 4877 
L 2982 4877 
L 2982 2944 
L 3021 2944 
C 3117 2944 3258 3027 3264 3066 
L 3264 4819 
C 3392 4845 3501 4890 3546 4941 
L 3110 5280 
L 2918 5069 
L 768 5069 
L 454 5229 
L 454 2918 
L 499 2918 
C 621 2918 736 2989 736 3021 
L 736 4877 
z
M 2253 4294 
L 909 4294 
L 960 4102 
L 2675 4102 
C 2765 4102 2816 4134 2829 4205 
C 2688 4358 2451 4544 2451 4544 
L 2253 4294 
z
M 2253 3475 
L 909 3475 
L 960 3283 
L 2675 3283 
C 2765 3283 2816 3315 2829 3386 
C 2688 3539 2451 3725 2451 3725 
L 2253 3475 
z
M 941 211 
L 941 794 
L 2765 794 
L 2765 211 
L 941 211 
z
M 2765 1549 
L 2765 986 
L 941 986 
L 941 1549 
L 2765 1549 
z
M 2765 2349 
L 2765 1741 
L 941 1741 
L 941 2349 
L 2765 2349 
z
M 2886 2752 
L 2701 2541 
L 973 2541 
L 659 2707 
L 659 -480 
L 704 -480 
C 826 -480 941 -403 941 -371 
L 941 19 
L 2765 19 
L 2765 -243 
L 2797 -243 
C 2893 -243 3040 -166 3046 -128 
L 3046 2291 
C 3174 2317 3277 2362 3322 2413 
L 2886 2752 
z
M 5683 4032 
L 5491 3814 
L 4627 3814 
C 4640 4230 4640 4653 4646 5088 
C 4806 5114 4858 5184 4877 5267 
L 4358 5325 
C 4358 4806 4365 4301 4352 3814 
L 3565 3814 
L 3616 3622 
L 4352 3622 
C 4307 2035 4102 659 3123 -352 
L 3226 -461 
C 4358 582 4576 2016 4627 3622 
L 5555 3622 
C 5510 1542 5402 262 5184 45 
C 5114 -26 5069 -45 4941 -45 
C 4813 -45 4410 0 4154 26 
L 4147 -102 
C 4358 -128 4602 -179 4691 -230 
C 4768 -288 4787 -378 4787 -467 
C 5018 -467 5254 -384 5402 -192 
C 5670 134 5798 1421 5837 3603 
C 5978 3610 6054 3642 6099 3693 
L 5683 4032 
z
" transform="scale(0.015625)"/>
      </defs>
      <use xlink:href="#NotoSerifCJKjp-ExtraLight-674e"/>
      <use xlink:href="#NotoSerifCJKjp-ExtraLight-52d6" x="99.999985"/>
     </g>
    </g>
    <g clip-path="url(#p1f1d756bdf)">
     <!--  -->
     <g transform="translate(1958.979995 434.024516) scale(0.12 -0.12)"/>
    </g>
   </g>
   <g id="text_19">
    <g clip-path="url(#p1f1d756bdf)">
     <!-- 韓昌 -->
     <g transform="translate(2453.232814 663.255484) scale(0.12 -0.12)">
      <defs>
       <path id="NotoSerifCJKjp-ExtraLight-97d3" d="M 5011 4550 
L 5011 3878 
L 3955 3878 
C 4000 4077 4058 4314 4115 4550 
L 5011 4550 
z
M 3130 4550 
L 3834 4550 
C 3776 4307 3725 4070 3680 3878 
L 2810 3878 
L 2861 3686 
L 5958 3686 
C 6048 3686 6106 3718 6125 3789 
C 5946 3962 5670 4179 5670 4179 
L 5421 3878 
L 5299 3878 
L 5299 4506 
C 5402 4525 5504 4576 5542 4621 
L 5139 4928 
L 4954 4742 
L 4160 4742 
L 4243 5114 
C 4365 5114 4442 5178 4461 5261 
L 3994 5325 
C 3962 5146 3917 4947 3872 4742 
L 3072 4742 
L 3130 4550 
z
M 3488 2419 
L 3488 3091 
L 5203 3091 
L 5203 2419 
L 3488 2419 
z
M 5242 2054 
C 5331 2054 5472 2131 5478 2170 
L 5478 3027 
C 5606 3053 5722 3104 5754 3155 
L 5318 3482 
L 5139 3277 
L 3520 3277 
L 3200 3430 
L 3200 1946 
L 3245 1946 
C 3360 1946 3488 2010 3488 2035 
L 3488 2234 
L 5203 2234 
L 5203 2054 
L 5242 2054 
z
M 864 2592 
L 2246 2592 
L 2246 1958 
L 864 1958 
L 864 2592 
z
M 2246 3443 
L 2246 2778 
L 864 2778 
L 864 3443 
L 2246 3443 
z
M 2714 851 
C 2797 851 2854 883 2874 954 
C 2707 1114 2432 1331 2432 1331 
L 2195 1043 
L 1690 1043 
L 1690 1773 
L 2246 1773 
L 2246 1638 
L 2285 1638 
C 2374 1638 2522 1722 2528 1760 
L 2528 3379 
C 2656 3405 2765 3456 2803 3507 
L 2368 3840 
L 2182 3629 
L 1696 3629 
L 1696 4275 
L 2746 4275 
C 2829 4275 2886 4307 2906 4378 
C 2726 4550 2426 4781 2426 4781 
L 2176 4461 
L 1696 4461 
L 1696 5120 
C 1837 5146 1894 5203 1907 5286 
L 1421 5338 
L 1421 4461 
L 301 4461 
L 352 4275 
L 1421 4275 
L 1421 3629 
L 896 3629 
L 582 3789 
L 582 1555 
L 627 1555 
C 742 1555 864 1626 864 1658 
L 864 1773 
L 1414 1773 
L 1414 1043 
L 262 1043 
L 314 851 
L 1414 851 
L 1414 -486 
L 1453 -486 
C 1587 -486 1690 -403 1690 -378 
L 1690 851 
L 2714 851 
z
M 3456 634 
L 3456 1395 
L 4410 1395 
L 4410 634 
L 3456 634 
z
M 5453 634 
L 4691 634 
L 4691 1395 
L 5677 1395 
C 5754 1395 5818 1427 5830 1498 
C 5670 1658 5402 1862 5402 1862 
L 5178 1581 
L 4691 1581 
L 4691 1926 
C 4813 1939 4864 1990 4877 2067 
L 4410 2125 
L 4410 1581 
L 3533 1581 
L 3181 1747 
L 3181 634 
L 2637 634 
L 2688 442 
L 4410 442 
L 4410 -467 
L 4461 -467 
C 4570 -467 4691 -390 4691 -346 
L 4691 442 
L 5971 442 
C 6061 442 6118 474 6131 544 
C 5958 704 5690 922 5690 922 
L 5453 634 
z
" transform="scale(0.015625)"/>
      </defs>
      <use xlink:href="#NotoSerifCJKjp-ExtraLight-97d3"/>
      <use xlink:href="#NotoSerifCJKjp-ExtraLight-660c" x="99.999985"/>
     </g>
    </g>
    <g clip-path="url(#p1f1d756bdf)">
     <!-- 僉知 -->
     <g transform="translate(2453.232814 677.895484) scale(0.12 -0.12)">
      <defs>
       <path id="NotoSerifCJKjp-ExtraLight-50c9" d="M 1920 1357 
C 1664 672 1114 26 429 -365 
L 486 -467 
C 1062 -218 1555 192 1888 646 
C 2182 461 2509 173 2630 -70 
C 2963 -237 3085 422 1965 755 
C 2042 870 2106 992 2163 1107 
C 2285 1088 2355 1107 2374 1178 
L 1920 1357 
z
M 3802 1773 
L 3802 2669 
L 5005 2669 
L 5005 1773 
L 3802 1773 
z
M 5043 1395 
C 5139 1395 5286 1472 5293 1510 
L 5293 2624 
C 5395 2643 5498 2694 5536 2739 
L 5126 3046 
L 4947 2854 
L 3834 2854 
L 3520 3008 
L 3520 1293 
L 3565 1293 
C 3680 1293 3802 1363 3802 1389 
L 3802 1581 
L 5005 1581 
L 5005 1395 
L 5043 1395 
z
M 3821 3590 
L 1946 3590 
L 1997 3398 
L 4352 3398 
C 4442 3398 4493 3430 4512 3501 
C 4339 3661 4058 3872 4058 3872 
L 3821 3590 
z
M 2541 2669 
L 2541 1773 
L 1389 1773 
L 1389 2669 
L 2541 2669 
z
M 1101 3008 
L 1101 1267 
L 1146 1267 
C 1267 1267 1389 1338 1389 1363 
L 1389 1581 
L 2541 1581 
L 2541 1395 
L 2579 1395 
C 2675 1395 2816 1472 2822 1510 
L 2822 2624 
C 2931 2643 3034 2694 3072 2739 
L 2662 3046 
L 2483 2854 
L 1421 2854 
L 1101 3008 
z
M 4224 1357 
C 3949 640 3341 0 2592 -365 
L 2643 -474 
C 3258 -243 3795 147 4160 614 
C 4659 352 5318 -109 5568 -448 
C 5978 -595 5997 198 4237 717 
C 4326 845 4403 973 4467 1107 
C 4589 1088 4666 1101 4691 1171 
L 4224 1357 
z
M 3078 5350 
C 2688 4538 1299 3354 256 2822 
L 307 2726 
C 1440 3251 2694 4243 3322 5030 
C 3840 4256 4877 3437 5920 2944 
C 5958 3046 6086 3123 6227 3136 
L 6240 3226 
C 5088 3706 4045 4410 3443 5107 
C 3590 5120 3661 5146 3680 5216 
L 3078 5350 
z
" transform="scale(0.015625)"/>
       <path id="NotoSerifCJKjp-ExtraLight-77e5" d="M 2675 2656 
L 2010 2656 
C 2016 2746 2016 2835 2016 2918 
L 2016 4032 
L 3040 4032 
C 3130 4032 3194 4058 3200 4128 
C 3014 4314 2733 4531 2733 4531 
L 2470 4218 
L 1190 4218 
C 1306 4480 1408 4755 1491 5043 
C 1626 5043 1696 5107 1722 5184 
L 1184 5318 
C 1024 4454 691 3629 314 3091 
L 416 3027 
C 678 3290 909 3635 1107 4032 
L 1734 4032 
L 1734 2912 
C 1734 2829 1734 2739 1728 2656 
L 301 2656 
L 352 2464 
L 1722 2464 
C 1664 1498 1370 493 282 -358 
L 371 -454 
C 1261 109 1677 832 1862 1562 
C 2246 1190 2714 659 2854 269 
C 3238 32 3405 851 1894 1702 
C 1952 1958 1984 2214 2003 2464 
L 3251 2464 
C 3334 2464 3398 2496 3418 2566 
C 3226 2746 2931 2970 2931 2970 
L 2675 2656 
z
M 3878 480 
L 3878 4320 
L 5504 4320 
L 5504 480 
L 3878 480 
z
M 5632 4730 
L 5440 4506 
L 3910 4506 
L 3597 4678 
L 3597 -269 
L 3648 -269 
C 3782 -269 3878 -192 3878 -160 
L 3878 288 
L 5504 288 
L 5504 -179 
L 5542 -179 
C 5645 -179 5779 -96 5786 -58 
L 5786 4256 
C 5914 4282 6029 4333 6067 4384 
L 5632 4730 
z
" transform="scale(0.015625)"/>
      </defs>
      <use xlink:href="#NotoSerifCJKjp-ExtraLight-50c9"/>
      <use xlink:href="#NotoSerifCJKjp-ExtraLight-77e5" x="99.999985"/>
     </g>
    </g>
   </g>
   <g id="text_20">
    <g clip-path="url(#p1f1d756bdf)">
     <!-- 李思義 -->
     <g transform="translate(2189.330434 175.513548) scale(0.12 -0.12)">
      <defs>
       <path id="NotoSerifCJKjp-ExtraLight-601d" d="M 1203 1523 
C 1146 947 768 467 442 282 
C 339 211 275 102 333 13 
C 403 -90 614 -26 762 90 
C 1018 269 1402 736 1325 1517 
L 1203 1523 
z
M 3027 4794 
L 3027 3718 
L 1459 3718 
L 1459 4794 
L 3027 4794 
z
M 4941 4794 
L 4941 3718 
L 3309 3718 
L 3309 4794 
L 4941 4794 
z
M 3309 2464 
L 3309 3533 
L 4941 3533 
L 4941 2464 
L 3309 2464 
z
M 1459 2464 
L 1459 3533 
L 3027 3533 
L 3027 2464 
L 1459 2464 
z
M 4941 2278 
L 4941 2035 
L 4979 2035 
C 5075 2035 5222 2118 5229 2157 
L 5229 4730 
C 5350 4755 5459 4806 5504 4858 
L 5069 5190 
L 4877 4979 
L 1491 4979 
L 1171 5146 
L 1171 1933 
L 1222 1933 
C 1344 1933 1459 2010 1459 2042 
L 1459 2278 
L 4941 2278 
z
M 2624 1914 
C 3008 1683 3482 1242 3584 864 
C 3962 640 4102 1523 2694 1978 
L 2624 1914 
z
M 4646 794 
L 4557 794 
C 4499 435 4448 109 4403 0 
C 4378 -64 4358 -83 4269 -90 
C 4160 -102 3846 -102 3430 -102 
L 2566 -102 
C 2246 -102 2214 -83 2214 26 
L 2214 1446 
C 2330 1466 2387 1517 2400 1594 
L 1933 1658 
L 1933 -19 
C 1933 -282 2022 -358 2541 -358 
L 3443 -358 
C 4634 -358 4826 -320 4826 -160 
C 4826 -102 4787 -70 4659 -32 
L 4646 794 
z
M 4717 1555 
C 5158 1197 5715 557 5824 58 
C 6221 -230 6432 781 4794 1613 
L 4717 1555 
z
" transform="scale(0.015625)"/>
       <path id="NotoSerifCJKjp-ExtraLight-7fa9" d="M 365 3091 
L 422 2899 
L 5901 2899 
C 5990 2899 6054 2931 6067 3002 
C 5882 3174 5594 3398 5594 3398 
L 5331 3091 
L 3328 3091 
L 3328 3629 
L 5440 3629 
C 5530 3629 5587 3661 5606 3731 
C 5427 3898 5152 4102 5152 4102 
L 4909 3821 
L 3328 3821 
L 3328 4346 
L 5715 4346 
C 5798 4346 5862 4378 5875 4448 
C 5696 4614 5402 4838 5402 4838 
L 5152 4531 
L 3923 4531 
C 4128 4698 4352 4890 4493 5043 
C 4621 5024 4710 5069 4749 5139 
L 4230 5350 
C 4102 5101 3898 4774 3725 4531 
L 2560 4531 
C 2726 4653 2643 5114 1805 5306 
L 1734 5254 
C 1965 5088 2253 4781 2342 4538 
L 2355 4531 
L 570 4531 
L 627 4346 
L 3046 4346 
L 3046 3821 
L 883 3821 
L 941 3629 
L 3046 3629 
L 3046 3091 
L 365 3091 
z
M 4314 2675 
C 4557 2502 4877 2195 4986 1965 
C 5299 1792 5466 2413 4384 2739 
L 4314 2675 
z
M 6048 442 
L 5958 461 
C 5914 294 5837 64 5779 -45 
C 5741 -115 5702 -122 5574 -83 
C 5120 38 4794 275 4557 576 
C 4832 781 5062 998 5229 1216 
C 5370 1184 5427 1203 5472 1267 
L 5043 1491 
C 4890 1248 4672 1011 4410 781 
C 4256 1024 4154 1299 4083 1574 
L 5933 1574 
C 6022 1574 6086 1606 6099 1677 
C 5914 1850 5626 2067 5626 2067 
L 5363 1766 
L 4038 1766 
C 3981 2048 3949 2323 3930 2579 
C 4045 2598 4102 2662 4115 2739 
L 3622 2784 
C 3642 2451 3680 2099 3757 1766 
L 2214 1766 
L 2214 2362 
C 2522 2406 2803 2451 3046 2496 
C 3162 2438 3258 2432 3309 2477 
L 3002 2778 
C 2438 2618 1382 2419 531 2342 
L 563 2214 
C 1011 2234 1485 2272 1933 2330 
L 1933 1766 
L 307 1766 
L 365 1574 
L 1933 1574 
L 1933 986 
C 1229 864 621 762 262 717 
L 499 365 
C 550 384 602 429 627 506 
C 1107 595 1542 691 1933 781 
L 1933 51 
C 1933 -38 1901 -70 1779 -70 
C 1651 -70 1011 -26 1011 -26 
L 1011 -128 
C 1286 -160 1459 -192 1542 -250 
C 1619 -301 1664 -390 1670 -474 
C 2150 -422 2214 -218 2214 45 
L 2214 845 
C 2675 954 3072 1056 3405 1146 
L 3386 1261 
C 2989 1184 2592 1107 2214 1037 
L 2214 1574 
L 3802 1574 
C 3891 1229 4013 902 4198 614 
C 3750 262 3206 -45 2656 -243 
L 2707 -346 
C 3302 -173 3872 102 4339 416 
C 4614 64 4998 -211 5523 -365 
C 5824 -467 6080 -512 6131 -390 
C 6157 -333 6099 -250 5978 -173 
L 6048 442 
z
" transform="scale(0.015625)"/>
      </defs>
      <use xlink:href="#NotoSerifCJKjp-ExtraLight-674e"/>
      <use xlink:href="#NotoSerifCJKjp-ExtraLight-601d" x="99.999985"/>
      <use xlink:href="#NotoSerifCJKjp-ExtraLight-7fa9" x="199.999969"/>
     </g>
    </g>
    <g clip-path="url(#p1f1d756bdf)">
     <!-- 全城君 -->
     <g transform="translate(2189.330434 190.153548) scale(0.12 -0.12)">
      <defs>
       <path id="NotoSerifCJKjp-ExtraLight-5168" d="M 5216 -45 
L 3322 -45 
L 3322 1318 
L 5184 1318 
C 5267 1318 5325 1350 5344 1421 
C 5152 1587 4858 1811 4858 1811 
L 4589 1510 
L 3322 1510 
L 3322 2720 
L 5011 2720 
C 5101 2720 5165 2752 5178 2816 
C 4992 2989 4704 3200 4704 3200 
L 4448 2906 
L 1338 2906 
L 1389 2720 
L 3040 2720 
L 3040 1510 
L 1274 1510 
L 1325 1318 
L 3040 1318 
L 3040 -45 
L 422 -45 
L 480 -230 
L 5843 -230 
C 5933 -230 5997 -198 6016 -134 
C 5811 58 5491 301 5491 301 
L 5216 -45 
z
M 3072 5395 
C 2694 4454 1331 3117 256 2509 
L 314 2406 
C 1491 3014 2714 4128 3309 5056 
C 3802 4141 4826 3206 5901 2643 
C 5939 2746 6067 2816 6202 2829 
L 6214 2918 
C 5037 3482 4013 4294 3437 5139 
C 3578 5152 3654 5178 3667 5248 
L 3072 5395 
z
" transform="scale(0.015625)"/>
       <path id="NotoSerifCJKjp-ExtraLight-57ce" d="M 4678 5037 
C 4915 4896 5203 4634 5293 4416 
C 5632 4237 5786 4915 4742 5101 
L 4678 5037 
z
M 2227 1747 
C 1939 1632 1651 1517 1389 1414 
L 1389 3315 
L 2125 3315 
C 2214 3315 2272 3347 2291 3418 
C 2106 3590 1824 3814 1824 3814 
L 1568 3507 
L 1389 3507 
L 1389 4954 
C 1542 4973 1606 5037 1619 5126 
L 1101 5190 
L 1101 3507 
L 288 3507 
L 339 3315 
L 1101 3315 
L 1101 1306 
C 730 1165 422 1050 243 998 
L 518 595 
C 570 627 614 678 627 755 
C 1331 1120 1875 1434 2266 1645 
L 2227 1747 
z
M 6125 890 
L 6035 902 
C 5978 659 5882 365 5818 224 
C 5760 83 5734 83 5651 198 
C 5389 467 5190 813 5030 1210 
C 5363 1734 5619 2362 5824 3123 
C 5997 3117 6054 3149 6080 3219 
L 5549 3386 
C 5382 2669 5171 2074 4909 1574 
C 4691 2272 4589 3091 4550 3930 
L 5978 3930 
C 6061 3930 6125 3962 6138 4032 
C 5952 4205 5658 4442 5658 4442 
L 5389 4115 
L 4544 4115 
C 4531 4416 4531 4723 4531 5024 
C 4698 5050 4755 5120 4762 5203 
L 4211 5274 
C 4211 4877 4218 4493 4237 4115 
L 2739 4115 
L 2387 4294 
L 2387 2573 
C 2387 1466 2227 429 1286 -384 
L 1382 -474 
C 2528 339 2675 1536 2675 2579 
L 2675 2714 
L 3571 2714 
C 3546 1677 3507 1133 3411 1018 
C 3386 986 3360 973 3290 973 
C 3200 973 2874 998 2707 1011 
L 2707 896 
C 2861 877 3059 838 3130 800 
C 3194 755 3226 672 3226 614 
C 3366 614 3507 666 3603 755 
C 3782 947 3821 1530 3846 2694 
C 3968 2707 4038 2739 4077 2778 
L 3680 3098 
L 3514 2899 
L 2675 2899 
L 2675 3930 
L 4250 3930 
C 4307 2925 4448 2003 4710 1235 
C 4294 576 3757 77 3034 -339 
L 3104 -461 
C 3834 -102 4397 339 4832 928 
C 5005 525 5216 173 5485 -115 
C 5709 -371 6022 -557 6138 -410 
C 6189 -352 6176 -282 6022 -58 
L 6125 890 
z
" transform="scale(0.015625)"/>
       <path id="NotoSerifCJKjp-ExtraLight-541b" d="M 4806 2848 
L 2592 2848 
C 2714 3130 2803 3424 2880 3731 
L 4806 3731 
L 4806 2848 
z
M 4806 4755 
L 4806 3923 
L 2925 3923 
C 2976 4192 3021 4467 3053 4755 
L 4806 4755 
z
M 5069 1517 
L 5069 147 
L 2195 147 
L 2195 1517 
L 5069 1517 
z
M 5331 3923 
L 5088 3923 
L 5088 4672 
C 5229 4698 5344 4755 5395 4813 
L 4922 5171 
L 4736 4941 
L 1133 4941 
L 1190 4755 
L 2739 4755 
C 2707 4467 2662 4192 2605 3923 
L 390 3923 
L 448 3731 
L 2560 3731 
C 2490 3424 2394 3130 2278 2848 
L 1069 2848 
L 1120 2662 
L 2195 2662 
C 1805 1805 1197 1082 294 506 
L 378 410 
C 1024 781 1530 1210 1920 1702 
L 1920 -486 
L 1952 -486 
C 2093 -486 2195 -403 2195 -378 
L 2195 -45 
L 5069 -45 
L 5069 -442 
L 5107 -442 
C 5203 -442 5344 -358 5350 -326 
L 5350 1453 
C 5485 1478 5600 1523 5645 1574 
L 5197 1926 
L 4998 1709 
L 2272 1709 
L 2016 1830 
C 2208 2093 2374 2368 2509 2662 
L 4806 2662 
L 4806 2317 
L 4845 2317 
C 4928 2317 5075 2362 5088 2381 
L 5088 3731 
L 5914 3731 
C 6003 3731 6061 3763 6080 3834 
C 5888 4013 5594 4243 5594 4243 
L 5331 3923 
z
" transform="scale(0.015625)"/>
      </defs>
      <use xlink:href="#NotoSerifCJKjp-ExtraLight-5168"/>
      <use xlink:href="#NotoSerifCJKjp-ExtraLight-57ce" x="99.999985"/>
      <use xlink:href="#NotoSerifCJKjp-ExtraLight-541b" x="199.999969"/>
     </g>
    </g>
   </g>
   <g id="text_21">
    <g clip-path="url(#p1f1d756bdf)">
     <!-- 李斗萬 -->
     <g transform="translate(2437.680874 419.384516) scale(0.12 -0.12)">
      <defs>
       <path id="NotoSerifCJKjp-ExtraLight-6597" d="M 1709 4691 
C 2144 4480 2739 4058 2950 3725 
C 3373 3558 3418 4422 1766 4768 
L 1709 4691 
z
M 1088 3290 
C 1536 3085 2163 2662 2394 2330 
C 2829 2170 2848 3046 1139 3366 
L 1088 3290 
z
M 5299 2010 
L 4186 1824 
L 4186 5094 
C 4346 5120 4397 5184 4416 5274 
L 3904 5331 
L 3904 1779 
L 333 1184 
L 416 1018 
L 3904 1594 
L 3904 -480 
L 3962 -480 
C 4064 -480 4186 -403 4186 -346 
L 4186 1638 
L 5952 1933 
C 6035 1939 6093 1990 6099 2061 
C 5875 2202 5523 2394 5523 2394 
L 5299 2010 
z
" transform="scale(0.015625)"/>
       <path id="NotoSerifCJKjp-ExtraLight-842c" d="M 1670 2470 
L 1670 3008 
L 3091 3008 
L 3091 2470 
L 1670 2470 
z
M 3091 3718 
L 3091 3194 
L 1670 3194 
L 1670 3718 
L 3091 3718 
z
M 4819 3718 
L 4819 3194 
L 3373 3194 
L 3373 3718 
L 4819 3718 
z
M 3373 2470 
L 3373 3008 
L 4819 3008 
L 4819 2470 
L 3373 2470 
z
M 5235 1734 
L 3373 1734 
L 3373 2285 
L 4819 2285 
L 4819 2074 
L 4858 2074 
C 4947 2074 5094 2157 5101 2195 
L 5101 3654 
C 5229 3680 5331 3731 5376 3782 
L 4941 4115 
L 4755 3910 
L 1702 3910 
L 1389 4064 
L 1389 2035 
L 1434 2035 
C 1549 2035 1670 2106 1670 2138 
L 1670 2285 
L 3091 2285 
L 3091 1734 
L 1152 1734 
L 832 1901 
L 832 -467 
L 883 -467 
C 998 -467 1114 -397 1114 -365 
L 1114 1542 
L 3091 1542 
L 3091 742 
C 2413 704 1850 678 1530 672 
L 1683 250 
C 1741 256 1805 301 1843 378 
C 2925 493 3763 602 4416 685 
C 4512 544 4582 403 4608 275 
C 4941 45 5146 819 3930 1357 
L 3853 1299 
C 4013 1178 4186 998 4326 813 
L 3373 755 
L 3373 1542 
L 5299 1542 
L 5299 83 
C 5299 -13 5267 -51 5146 -51 
C 4992 -51 4326 0 4326 0 
L 4326 -109 
C 4608 -134 4787 -179 4877 -224 
C 4966 -275 4998 -365 5018 -454 
C 5523 -397 5581 -218 5581 45 
L 5581 1485 
C 5709 1504 5818 1555 5856 1600 
L 5395 1939 
L 5235 1734 
z
M 5318 4730 
L 4230 4730 
L 4230 5139 
C 4390 5158 4448 5222 4461 5306 
L 3949 5363 
L 3949 4730 
L 2406 4730 
L 2406 5139 
C 2566 5158 2624 5222 2637 5306 
L 2125 5363 
L 2125 4730 
L 294 4730 
L 333 4538 
L 2125 4538 
L 2125 4026 
L 2170 4026 
C 2272 4026 2406 4064 2406 4109 
L 2406 4538 
L 3949 4538 
L 3949 4032 
L 4000 4032 
C 4147 4038 4230 4109 4230 4134 
L 4230 4538 
L 5920 4538 
C 6010 4538 6074 4570 6086 4640 
C 5901 4819 5594 5056 5594 5056 
L 5318 4730 
z
" transform="scale(0.015625)"/>
      </defs>
      <use xlink:href="#NotoSerifCJKjp-ExtraLight-674e"/>
      <use xlink:href="#NotoSerifCJKjp-ExtraLight-6597" x="99.999985"/>
      <use xlink:href="#NotoSerifCJKjp-ExtraLight-842c" x="199.999969"/>
     </g>
    </g>
    <g clip-path="url(#p1f1d756bdf)">
     <!-- 中樞 -->
     <g transform="translate(2443.680874 434.024516) scale(0.12 -0.12)">
      <defs>
       <path id="NotoSerifCJKjp-ExtraLight-4e2d" d="M 3315 2144 
L 3315 3827 
L 5350 3827 
L 5350 2144 
L 3315 2144 
z
M 998 2144 
L 998 3827 
L 3034 3827 
L 3034 2144 
L 998 2144 
z
M 5478 4224 
L 5286 4019 
L 3315 4019 
L 3315 5094 
C 3475 5120 3520 5184 3539 5274 
L 3034 5338 
L 3034 4019 
L 1037 4019 
L 723 4186 
L 723 1357 
L 774 1357 
C 890 1357 998 1427 998 1459 
L 998 1952 
L 3034 1952 
L 3034 -474 
L 3091 -474 
C 3194 -474 3315 -397 3315 -346 
L 3315 1952 
L 5350 1952 
L 5350 1421 
L 5389 1421 
C 5485 1421 5626 1498 5632 1536 
L 5632 3763 
C 5760 3789 5862 3840 5907 3891 
L 5478 4224 
z
" transform="scale(0.015625)"/>
       <path id="NotoSerifCJKjp-ExtraLight-6a1e" d="M 4922 1069 
L 4922 2131 
L 5606 2131 
L 5606 1069 
L 4922 1069 
z
M 5645 672 
C 5734 672 5882 749 5888 787 
L 5888 2106 
C 5984 2118 6074 2163 6106 2208 
L 5722 2496 
L 5555 2323 
L 4954 2323 
L 4640 2470 
L 4640 608 
L 4685 608 
C 4806 608 4922 672 4922 698 
L 4922 877 
L 5606 877 
L 5606 672 
L 5645 672 
z
M 3328 1069 
L 3328 2131 
L 3981 2131 
L 3981 1069 
L 3328 1069 
z
M 4019 672 
C 4109 672 4256 749 4262 787 
L 4262 2106 
C 4358 2118 4448 2163 4474 2208 
L 4096 2496 
L 3930 2323 
L 3360 2323 
L 3046 2470 
L 3046 582 
L 3091 582 
C 3206 582 3328 646 3328 672 
L 3328 877 
L 3981 877 
L 3981 672 
L 4019 672 
z
M 3853 3130 
L 3853 4026 
L 5018 4026 
L 5018 3130 
L 3853 3130 
z
M 5018 2726 
L 5056 2726 
C 5152 2726 5299 2797 5299 2835 
L 5299 4000 
C 5395 4013 5485 4051 5517 4096 
L 5139 4390 
L 4966 4211 
L 3885 4211 
L 3571 4365 
L 3571 2650 
L 3616 2650 
C 3731 2650 3853 2720 3853 2746 
L 3853 2938 
L 5018 2938 
L 5018 2726 
z
M 1683 3866 
L 1478 3866 
L 1478 5082 
C 1632 5107 1683 5165 1702 5261 
L 1190 5318 
L 1190 3866 
L 314 3866 
L 365 3674 
L 1088 3674 
C 941 2746 666 1843 224 1107 
L 320 1024 
C 717 1549 992 2150 1190 2803 
L 1190 -467 
L 1254 -467 
C 1357 -467 1478 -397 1478 -339 
L 1478 2822 
C 1677 2579 1920 2234 1997 1971 
C 2330 1747 2566 2400 1478 2963 
L 1478 3674 
L 2240 3674 
C 2330 3674 2381 3706 2400 3776 
C 2221 3949 1939 4173 1939 4173 
L 1683 3866 
z
M 5434 179 
L 2688 179 
L 2688 4678 
L 5837 4678 
C 5926 4678 5984 4710 6003 4781 
C 5818 4954 5517 5190 5517 5190 
L 5261 4870 
L 2765 4870 
L 2400 5037 
L 2400 -474 
L 2438 -474 
C 2586 -474 2688 -384 2688 -358 
L 2688 -13 
L 6016 -13 
C 6106 -13 6163 19 6176 90 
C 5997 262 5696 499 5696 499 
L 5434 179 
z
" transform="scale(0.015625)"/>
      </defs>
      <use xlink:href="#NotoSerifCJKjp-ExtraLight-4e2d"/>
      <use xlink:href="#NotoSerifCJKjp-ExtraLight-6a1e" x="99.999985"/>
     </g>
    </g>
   </g>
  </g>
 </g>
 <defs>
  <clipPath id="p1f1d756bdf">
   <rect x="360" y="129.6" width="2232" height="831.6"/>
  </clipPath>
 </defs>
</svg>
