<?xml version="1.0" encoding="utf-8" standalone="no"?>
<!DOCTYPE svg PUBLIC "-//W3C//DTD SVG 1.1//EN"
  "http://www.w3.org/Graphics/SVG/1.1/DTD/svg11.dtd">
<svg xmlns:xlink="http://www.w3.org/1999/xlink" width="2880pt" height="1080pt" viewBox="0 0 2880 1080" xmlns="http://www.w3.org/2000/svg" version="1.1">
 <metadata>
  <rdf:RDF xmlns:dc="http://purl.org/dc/elements/1.1/" xmlns:cc="http://creativecommons.org/ns#" xmlns:rdf="http://www.w3.org/1999/02/22-rdf-syntax-ns#">
   <cc:Work>
    <dc:type rdf:resource="http://purl.org/dc/dcmitype/StillImage"/>
    <dc:date>2025-06-20T00:28:14.659510</dc:date>
    <dc:format>image/svg+xml</dc:format>
    <dc:creator>
     <cc:Agent>
      <dc:title>Matplotlib v3.9.4, https://matplotlib.org/</dc:title>
     </cc:Agent>
    </dc:creator>
   </cc:Work>
  </rdf:RDF>
 </metadata>
 <defs>
  <style type="text/css">*{stroke-linejoin: round; stroke-linecap: butt}</style>
 </defs>
 <g id="figure_1">
  <g id="patch_1">
   <path d="M 0 1080 
L 2880 1080 
L 2880 0 
L 0 0 
z
" style="fill: #ffffff"/>
  </g>
  <g id="axes_1">
   <g id="patch_2">
    <path d="M 479.495083 553.900671 
Q 446.814844 725.401139 479.07695 894.705064 
" clip-path="url(#pe98acc64ca)" style="fill: none; stroke: #000000; stroke-width: 2; stroke-linecap: round"/>
    <path d="M 480.292842 890.40139 
L 479.07695 894.705064 
L 476.363546 891.150146 
z
" clip-path="url(#pe98acc64ca)" style="stroke: #000000; stroke-width: 2; stroke-linecap: round"/>
   </g>
   <g id="patch_3">
    <path d="M 873.505619 553.900671 
Q 840.82538 725.401139 873.087485 894.705064 
" clip-path="url(#pe98acc64ca)" style="fill: none; stroke: #000000; stroke-width: 2; stroke-linecap: round"/>
    <path d="M 874.303377 890.40139 
L 873.087485 894.705064 
L 870.374081 891.150146 
z
" clip-path="url(#pe98acc64ca)" style="stroke: #000000; stroke-width: 2; stroke-linecap: round"/>
   </g>
   <g id="patch_4">
    <path d="M 1655.754202 549.897413 
Q 1431.286808 687.234948 1275.640411 896.6378 
" clip-path="url(#pe98acc64ca)" style="fill: none; stroke: #000000; stroke-width: 2; stroke-linecap: round"/>
    <path d="M 1279.631753 894.620577 
L 1275.640411 896.6378 
L 1276.421438 892.234392 
z
" clip-path="url(#pe98acc64ca)" style="stroke: #000000; stroke-width: 2; stroke-linecap: round"/>
   </g>
   <g id="patch_5">
    <path d="M 1661.495788 553.900671 
Q 1628.815549 725.401139 1661.077655 894.705064 
" clip-path="url(#pe98acc64ca)" style="fill: none; stroke: #000000; stroke-width: 2; stroke-linecap: round"/>
    <path d="M 1662.293546 890.40139 
L 1661.077655 894.705064 
L 1658.364251 891.150146 
z
" clip-path="url(#pe98acc64ca)" style="stroke: #000000; stroke-width: 2; stroke-linecap: round"/>
   </g>
   <g id="patch_6">
    <path d="M 1668.301013 552.36682 
Q 1825.281206 763.564425 2047.841101 899.735085 
" clip-path="url(#pe98acc64ca)" style="fill: none; stroke: #000000; stroke-width: 2; stroke-linecap: round"/>
    <path d="M 2045.472881 895.941467 
L 2047.841101 899.735085 
L 2043.385275 899.35349 
z
" clip-path="url(#pe98acc64ca)" style="stroke: #000000; stroke-width: 2; stroke-linecap: round"/>
   </g>
   <g id="patch_7">
    <path d="M 1670.184838 550.461228 
Q 2021.849357 802.668 2440.54206 902.878866 
" clip-path="url(#pe98acc64ca)" style="fill: none; stroke: #000000; stroke-width: 2; stroke-linecap: round"/>
    <path d="M 2437.117468 900.002729 
L 2440.54206 902.878866 
L 2436.186395 903.892858 
z
" clip-path="url(#pe98acc64ca)" style="stroke: #000000; stroke-width: 2; stroke-linecap: round"/>
   </g>
   <g id="patch_8">
    <path d="M 867.763787 189.897365 
Q 643.288913 327.233451 487.635072 536.637777 
" clip-path="url(#pe98acc64ca)" style="fill: none; stroke: #000000; stroke-width: 2; stroke-linecap: round"/>
    <path d="M 491.626453 534.620633 
L 487.635072 536.637777 
L 488.416185 532.234385 
z
" clip-path="url(#pe98acc64ca)" style="stroke: #000000; stroke-width: 2; stroke-linecap: round"/>
   </g>
   <g id="patch_9">
    <path d="M 873.505619 193.900671 
Q 840.82538 365.401139 873.087485 534.705064 
" clip-path="url(#pe98acc64ca)" style="fill: none; stroke: #000000; stroke-width: 2; stroke-linecap: round"/>
    <path d="M 874.303377 530.40139 
L 873.087485 534.705064 
L 870.374081 531.150146 
z
" clip-path="url(#pe98acc64ca)" style="stroke: #000000; stroke-width: 2; stroke-linecap: round"/>
   </g>
   <g id="patch_10">
    <path d="M 882.194669 190.461228 
Q 1233.859188 442.668 1652.551891 542.878866 
" clip-path="url(#pe98acc64ca)" style="fill: none; stroke: #000000; stroke-width: 2; stroke-linecap: round"/>
    <path d="M 1649.127298 540.002729 
L 1652.551891 542.878866 
L 1648.196226 543.892858 
z
" clip-path="url(#pe98acc64ca)" style="stroke: #000000; stroke-width: 2; stroke-linecap: round"/>
   </g>
   <g id="patch_11">
    <path d="M 2055.490872 193.900671 
Q 2022.810633 365.401139 2055.072739 534.705064 
" clip-path="url(#pe98acc64ca)" style="fill: none; stroke: #000000; stroke-width: 2; stroke-linecap: round"/>
    <path d="M 2056.288631 530.40139 
L 2055.072739 534.705064 
L 2052.359335 531.150146 
z
" clip-path="url(#pe98acc64ca)" style="stroke: #000000; stroke-width: 2; stroke-linecap: round"/>
   </g>
   <g id="text_1">
    <g id="patch_12">
     <path d="M 471.195072 722.202188 
L 471.195072 728.597813 
Q 471.195072 732.197813 474.795072 732.197813 
L 487.515072 732.197813 
Q 491.115072 732.197813 491.115072 728.597813 
L 491.115072 722.202188 
Q 491.115072 718.602188 487.515072 718.602188 
L 474.795072 718.602188 
Q 471.195072 718.602188 471.195072 722.202188 
z
" clip-path="url(#pe98acc64ca)" style="fill: #ffffff; stroke: #ffffff; stroke-linejoin: miter"/>
    </g>
    <g clip-path="url(#pe98acc64ca)">
     <!-- 1 -->
     <g transform="translate(477.915072 722.202188) rotate(-270) scale(0.12 -0.12)">
      <defs>
       <path id="NotoSerifCJKjp-ExtraLight-31" d="M 1997 250 
C 1990 659 1984 1062 1984 1459 
L 1984 3616 
L 2010 4614 
L 1914 4691 
L 614 4346 
L 614 4160 
L 1600 4333 
L 1600 1459 
C 1600 1062 1594 653 1587 250 
L 544 173 
L 544 0 
L 3002 0 
L 3002 173 
L 1997 250 
z
" transform="scale(0.015625)"/>
      </defs>
      <use xlink:href="#NotoSerifCJKjp-ExtraLight-31"/>
     </g>
    </g>
   </g>
   <g id="text_2">
    <g id="patch_13">
     <path d="M 865.205608 722.202188 
L 865.205608 728.597813 
Q 865.205608 732.197813 868.805608 732.197813 
L 881.525608 732.197813 
Q 885.125608 732.197813 885.125608 728.597813 
L 885.125608 722.202188 
Q 885.125608 718.602188 881.525608 718.602188 
L 868.805608 718.602188 
Q 865.205608 718.602188 865.205608 722.202188 
z
" clip-path="url(#pe98acc64ca)" style="fill: #ffffff; stroke: #ffffff; stroke-linejoin: miter"/>
    </g>
    <g clip-path="url(#pe98acc64ca)">
     <!-- 1 -->
     <g transform="translate(871.925608 722.202188) rotate(-270) scale(0.12 -0.12)">
      <use xlink:href="#NotoSerifCJKjp-ExtraLight-31"/>
     </g>
    </g>
   </g>
   <g id="text_3">
    <g id="patch_14">
     <path d="M 1470.515911 734.909903 
L 1475.237404 730.595795 
Q 1477.89506 728.167449 1475.466715 725.509793 
L 1466.88656 716.119407 
Q 1464.458214 713.461751 1461.800558 715.890097 
L 1457.079065 720.204205 
Q 1454.421409 722.632551 1456.849755 725.290207 
L 1465.429909 734.680593 
Q 1467.858255 737.338249 1470.515911 734.909903 
z
" clip-path="url(#pe98acc64ca)" style="fill: #ffffff; stroke: #ffffff; stroke-linejoin: miter"/>
    </g>
    <g clip-path="url(#pe98acc64ca)">
     <!-- 4 -->
     <g transform="translate(1465.982999 729.948945) rotate(-42.418476) scale(0.12 -0.12)">
      <defs>
       <path id="NotoSerifCJKjp-ExtraLight-34" d="M 480 1805 
L 2163 4224 
L 2163 1805 
L 480 1805 
z
M 3309 1805 
L 2528 1805 
L 2528 4685 
L 2272 4685 
L 211 1747 
L 211 1510 
L 2163 1510 
L 2163 0 
L 2528 0 
L 2528 1510 
L 3309 1510 
L 3309 1805 
z
" transform="scale(0.015625)"/>
      </defs>
      <use xlink:href="#NotoSerifCJKjp-ExtraLight-34"/>
     </g>
    </g>
   </g>
   <g id="text_4">
    <g id="patch_15">
     <path d="M 1653.195777 722.202188 
L 1653.195777 728.597813 
Q 1653.195777 732.197813 1656.795777 732.197813 
L 1669.515777 732.197813 
Q 1673.115777 732.197813 1673.115777 728.597813 
L 1673.115777 722.202188 
Q 1673.115777 718.602188 1669.515777 718.602188 
L 1656.795777 718.602188 
Q 1653.195777 718.602188 1653.195777 722.202188 
z
" clip-path="url(#pe98acc64ca)" style="fill: #ffffff; stroke: #ffffff; stroke-linejoin: miter"/>
    </g>
    <g clip-path="url(#pe98acc64ca)">
     <!-- 3 -->
     <g transform="translate(1659.915777 722.202188) rotate(-270) scale(0.12 -0.12)">
      <defs>
       <path id="NotoSerifCJKjp-ExtraLight-33" d="M 1062 4435 
C 1242 4499 1408 4525 1594 4525 
C 2176 4525 2496 4166 2496 3584 
C 2496 2918 2035 2541 1402 2541 
L 1126 2541 
L 1126 2330 
L 1434 2330 
C 2234 2330 2637 1920 2637 1229 
C 2637 557 2221 102 1498 102 
C 1286 102 1107 141 941 211 
L 787 659 
C 730 845 659 928 531 928 
C 422 928 339 864 301 755 
C 461 186 928 -90 1587 -90 
C 2426 -90 3040 410 3040 1203 
C 3040 1869 2656 2330 1901 2445 
C 2541 2605 2899 3059 2899 3597 
C 2899 4262 2426 4717 1664 4717 
C 1107 4717 570 4480 429 3885 
C 461 3776 544 3731 640 3731 
C 774 3731 845 3795 909 3981 
L 1062 4435 
z
" transform="scale(0.015625)"/>
      </defs>
      <use xlink:href="#NotoSerifCJKjp-ExtraLight-33"/>
     </g>
    </g>
   </g>
   <g id="text_5">
    <g id="patch_16">
     <path d="M 1851.07415 730.595795 
L 1855.795642 734.909903 
Q 1858.453299 737.338249 1860.881644 734.680593 
L 1869.461799 725.290207 
Q 1871.890145 722.632551 1869.232489 720.204205 
L 1864.510996 715.890097 
Q 1861.85334 713.461751 1859.424994 716.119407 
L 1850.844839 725.509793 
Q 1848.416493 728.167449 1851.07415 730.595795 
z
" clip-path="url(#pe98acc64ca)" style="fill: #ffffff; stroke: #ffffff; stroke-linejoin: miter"/>
    </g>
    <g clip-path="url(#pe98acc64ca)">
     <!-- 2 -->
     <g transform="translate(1855.607062 725.634837) rotate(-317.581524) scale(0.12 -0.12)">
      <defs>
       <path id="NotoSerifCJKjp-ExtraLight-32" d="M 646 358 
C 1069 838 1472 1299 1645 1491 
C 2560 2515 2886 2970 2886 3520 
C 2886 4250 2458 4717 1638 4717 
C 1024 4717 486 4397 326 3821 
C 371 3725 454 3667 550 3667 
C 672 3667 755 3750 819 3949 
L 1005 4422 
C 1197 4499 1363 4525 1542 4525 
C 2144 4525 2483 4096 2483 3514 
C 2483 2995 2214 2547 1536 1715 
C 1222 1344 787 806 339 275 
L 339 0 
L 3104 0 
L 3104 358 
L 646 358 
z
" transform="scale(0.015625)"/>
      </defs>
      <use xlink:href="#NotoSerifCJKjp-ExtraLight-32"/>
     </g>
    </g>
   </g>
   <g id="text_6">
    <g id="patch_17">
     <path d="M 2050.103384 733.130502 
L 2055.920667 735.788177 
Q 2059.195127 737.284142 2060.691092 734.009682 
L 2065.976834 722.439923 
Q 2067.472799 719.165463 2064.198339 717.669498 
L 2058.381056 715.011823 
Q 2055.106596 713.515858 2053.610631 716.790318 
L 2048.324889 728.360077 
Q 2046.828924 731.634537 2050.103384 733.130502 
z
" clip-path="url(#pe98acc64ca)" style="fill: #ffffff; stroke: #ffffff; stroke-linejoin: miter"/>
    </g>
    <g clip-path="url(#pe98acc64ca)">
     <!-- 1 -->
     <g transform="translate(2052.895852 727.018177) rotate(-335.446307) scale(0.12 -0.12)">
      <use xlink:href="#NotoSerifCJKjp-ExtraLight-31"/>
     </g>
    </g>
   </g>
   <g id="text_7">
    <g id="patch_18">
     <path d="M 682.517831 374.909988 
L 687.239408 370.595972 
Q 689.897112 368.167679 687.468818 365.509975 
L 678.888846 356.119422 
Q 676.460553 353.461718 673.802849 355.890012 
L 669.081272 360.204028 
Q 666.423568 362.632321 668.851862 365.290025 
L 677.431834 374.680578 
Q 679.860127 377.338282 682.517831 374.909988 
z
" clip-path="url(#pe98acc64ca)" style="fill: #ffffff; stroke: #ffffff; stroke-linejoin: miter"/>
    </g>
    <g clip-path="url(#pe98acc64ca)">
     <!-- 6 -->
     <g transform="translate(677.985016 369.948941) rotate(-42.417357) scale(0.12 -0.12)">
      <defs>
       <path id="NotoSerifCJKjp-ExtraLight-36" d="M 1754 102 
C 1094 102 730 794 730 1856 
C 730 1926 730 1997 736 2061 
C 1069 2426 1402 2560 1766 2560 
C 2330 2560 2688 2150 2688 1357 
C 2688 557 2285 102 1754 102 
z
M 2963 4717 
C 1306 4512 326 3238 326 1811 
C 326 653 851 -90 1741 -90 
C 2515 -90 3091 499 3091 1408 
C 3091 2266 2611 2803 1862 2803 
C 1440 2803 1069 2630 755 2272 
C 896 3437 1645 4314 2995 4582 
L 2963 4717 
z
" transform="scale(0.015625)"/>
      </defs>
      <use xlink:href="#NotoSerifCJKjp-ExtraLight-36"/>
     </g>
    </g>
   </g>
   <g id="text_8">
    <g id="patch_19">
     <path d="M 865.205608 362.202187 
L 865.205608 368.597812 
Q 865.205608 372.197812 868.805608 372.197812 
L 881.525608 372.197812 
Q 885.125608 372.197812 885.125608 368.597812 
L 885.125608 362.202187 
Q 885.125608 358.602187 881.525608 358.602187 
L 868.805608 358.602187 
Q 865.205608 358.602187 865.205608 362.202187 
z
" clip-path="url(#pe98acc64ca)" style="fill: #ffffff; stroke: #ffffff; stroke-linejoin: miter"/>
    </g>
    <g clip-path="url(#pe98acc64ca)">
     <!-- 5 -->
     <g transform="translate(871.925608 362.202187) rotate(-270) scale(0.12 -0.12)">
      <defs>
       <path id="NotoSerifCJKjp-ExtraLight-35" d="M 947 4275 
L 2950 4275 
L 2950 4627 
L 755 4627 
L 614 2483 
L 755 2464 
C 992 2573 1248 2624 1536 2624 
C 2208 2624 2662 2214 2662 1395 
C 2662 602 2227 102 1459 102 
C 1235 102 1062 134 896 205 
L 736 659 
C 678 851 614 922 480 922 
C 378 922 294 858 262 762 
C 397 198 858 -90 1498 -90 
C 2470 -90 3066 550 3066 1446 
C 3066 2323 2496 2854 1626 2854 
C 1344 2854 1094 2810 845 2707 
L 947 4275 
z
" transform="scale(0.015625)"/>
      </defs>
      <use xlink:href="#NotoSerifCJKjp-ExtraLight-35"/>
     </g>
    </g>
   </g>
   <g id="text_9">
    <g id="patch_20">
     <path d="M 1262.113214 373.130502 
L 1267.930498 375.788177 
Q 1271.204958 377.284142 1272.700923 374.009682 
L 1277.986665 362.439923 
Q 1279.48263 359.165463 1276.20817 357.669498 
L 1270.390887 355.011823 
Q 1267.116427 353.515858 1265.620462 356.790318 
L 1260.334719 368.360077 
Q 1258.838754 371.634537 1262.113214 373.130502 
z
" clip-path="url(#pe98acc64ca)" style="fill: #ffffff; stroke: #ffffff; stroke-linejoin: miter"/>
    </g>
    <g clip-path="url(#pe98acc64ca)">
     <!-- 4 -->
     <g transform="translate(1264.905682 367.018177) rotate(-335.446307) scale(0.12 -0.12)">
      <use xlink:href="#NotoSerifCJKjp-ExtraLight-34"/>
     </g>
    </g>
   </g>
   <g id="text_10">
    <g id="patch_21">
     <path d="M 2047.190861 362.202187 
L 2047.190861 368.597812 
Q 2047.190861 372.197812 2050.790861 372.197812 
L 2063.510861 372.197812 
Q 2067.110861 372.197812 2067.110861 368.597812 
L 2067.110861 362.202187 
Q 2067.110861 358.602187 2063.510861 358.602187 
L 2050.790861 358.602187 
Q 2047.190861 358.602187 2047.190861 362.202187 
z
" clip-path="url(#pe98acc64ca)" style="fill: #ffffff; stroke: #ffffff; stroke-linejoin: miter"/>
    </g>
    <g clip-path="url(#pe98acc64ca)">
     <!-- 1 -->
     <g transform="translate(2053.910861 362.202187) rotate(-270) scale(0.12 -0.12)">
      <use xlink:href="#NotoSerifCJKjp-ExtraLight-31"/>
     </g>
    </g>
   </g>
   <g id="matplotlib.axis_1">
    <g id="xtick_1"/>
    <g id="xtick_2"/>
    <g id="xtick_3"/>
    <g id="xtick_4"/>
    <g id="xtick_5"/>
   </g>
   <g id="matplotlib.axis_2">
    <g id="ytick_1"/>
    <g id="ytick_2"/>
    <g id="ytick_3"/>
    <g id="ytick_4"/>
    <g id="ytick_5"/>
    <g id="ytick_6"/>
    <g id="ytick_7"/>
    <g id="ytick_8"/>
   </g>
   <g id="PathCollection_1">
    <defs>
     <path id="m82efb0d7fa" d="M 0 15 
C 3.978047 15 7.793698 13.419505 10.606602 10.606602 
C 13.419505 7.793698 15 3.978047 15 0 
C 15 -3.978047 13.419505 -7.793698 10.606602 -10.606602 
C 7.793698 -13.419505 3.978047 -15 0 -15 
C -3.978047 -15 -7.793698 -13.419505 -10.606602 -10.606602 
C -13.419505 -7.793698 -15 -3.978047 -15 0 
C -15 3.978047 -13.419505 7.793698 -10.606602 10.606602 
C -7.793698 13.419505 -3.978047 15 0 15 
z
" style="stroke: #add8e6; stroke-opacity: 0.85"/>
    </defs>
    <g clip-path="url(#pe98acc64ca)">
     <use xlink:href="#m82efb0d7fa" x="481.155072" y="545.4" style="fill: #add8e6; fill-opacity: 0.85; stroke: #add8e6; stroke-opacity: 0.85"/>
     <use xlink:href="#m82efb0d7fa" x="481.155072" y="905.4" style="fill: #add8e6; fill-opacity: 0.85; stroke: #add8e6; stroke-opacity: 0.85"/>
     <use xlink:href="#m82efb0d7fa" x="875.165608" y="545.4" style="fill: #add8e6; fill-opacity: 0.85; stroke: #add8e6; stroke-opacity: 0.85"/>
     <use xlink:href="#m82efb0d7fa" x="875.165608" y="905.4" style="fill: #add8e6; fill-opacity: 0.85; stroke: #add8e6; stroke-opacity: 0.85"/>
     <use xlink:href="#m82efb0d7fa" x="1663.155777" y="545.4" style="fill: #add8e6; fill-opacity: 0.85; stroke: #add8e6; stroke-opacity: 0.85"/>
     <use xlink:href="#m82efb0d7fa" x="1269.160692" y="905.4" style="fill: #add8e6; fill-opacity: 0.85; stroke: #add8e6; stroke-opacity: 0.85"/>
     <use xlink:href="#m82efb0d7fa" x="1663.155777" y="905.4" style="fill: #add8e6; fill-opacity: 0.85; stroke: #add8e6; stroke-opacity: 0.85"/>
     <use xlink:href="#m82efb0d7fa" x="2057.150861" y="905.4" style="fill: #add8e6; fill-opacity: 0.85; stroke: #add8e6; stroke-opacity: 0.85"/>
     <use xlink:href="#m82efb0d7fa" x="2451.145946" y="905.4" style="fill: #add8e6; fill-opacity: 0.85; stroke: #add8e6; stroke-opacity: 0.85"/>
     <use xlink:href="#m82efb0d7fa" x="875.165608" y="185.4" style="fill: #add8e6; fill-opacity: 0.85; stroke: #add8e6; stroke-opacity: 0.85"/>
     <use xlink:href="#m82efb0d7fa" x="2057.150861" y="185.4" style="fill: #add8e6; fill-opacity: 0.85; stroke: #add8e6; stroke-opacity: 0.85"/>
     <use xlink:href="#m82efb0d7fa" x="2057.150861" y="545.4" style="fill: #add8e6; fill-opacity: 0.85; stroke: #add8e6; stroke-opacity: 0.85"/>
    </g>
   </g>
   <g id="text_11">
    <g clip-path="url(#pe98acc64ca)">
     <!-- 權致中 -->
     <g transform="translate(463.155072 541.32) scale(0.12 -0.12)">
      <defs>
       <path id="NotoSerifCJKjp-ExtraLight-6b0a" d="M 2234 4595 
L 3251 4595 
L 3251 4147 
L 3309 4147 
C 3418 4147 3539 4224 3539 4262 
L 3539 4595 
L 4550 4595 
L 4550 4147 
L 4608 4147 
C 4717 4147 4838 4224 4838 4262 
L 4838 4595 
L 5965 4595 
C 6054 4595 6112 4627 6131 4698 
C 5939 4870 5645 5107 5645 5107 
L 5376 4787 
L 4838 4787 
L 4838 5088 
C 4998 5114 5062 5171 5075 5267 
L 4550 5318 
L 4550 4787 
L 3539 4787 
L 3539 5088 
C 3693 5114 3763 5171 3776 5267 
L 3251 5318 
L 3251 4787 
L 2182 4787 
L 2234 4595 
z
M 2797 3104 
L 2797 3776 
L 3616 3776 
L 3616 3104 
L 2797 3104 
z
M 3648 2720 
C 3744 2720 3891 2790 3898 2829 
L 3898 3731 
C 4006 3750 4102 3802 4141 3846 
L 3731 4154 
L 3558 3968 
L 2822 3968 
L 2515 4115 
L 2515 2605 
L 2560 2605 
C 2675 2605 2797 2675 2797 2701 
L 2797 2912 
L 3616 2912 
L 3616 2720 
L 3648 2720 
z
M 1498 3674 
L 2259 3674 
C 2349 3674 2400 3706 2419 3776 
C 2240 3949 1952 4173 1952 4173 
L 1702 3866 
L 1498 3866 
L 1498 5088 
C 1651 5114 1702 5171 1722 5267 
L 1210 5325 
L 1210 3866 
L 333 3866 
L 384 3674 
L 1107 3674 
C 960 2746 685 1843 243 1107 
L 339 1024 
C 736 1549 1011 2150 1210 2803 
L 1210 -461 
L 1274 -461 
C 1376 -461 1498 -390 1498 -333 
L 1498 2669 
C 1696 2419 1939 2074 2016 1818 
C 2349 1587 2586 2246 1498 2803 
L 1498 3674 
z
M 3046 512 
L 4038 512 
L 4038 6 
L 3046 6 
L 3046 512 
z
M 4038 1882 
L 4038 1395 
L 3046 1395 
L 3046 1882 
L 4038 1882 
z
M 4038 698 
L 3046 698 
L 3046 1203 
L 4038 1203 
L 4038 698 
z
M 5485 3776 
L 5485 3104 
L 4666 3104 
L 4666 3776 
L 5485 3776 
z
M 5357 6 
L 4320 6 
L 4320 512 
L 5613 512 
C 5702 512 5754 544 5773 614 
C 5600 781 5318 1005 5318 1005 
L 5082 698 
L 4320 698 
L 4320 1203 
L 5638 1203 
C 5722 1203 5779 1235 5792 1306 
C 5626 1478 5344 1696 5344 1696 
L 5101 1395 
L 4320 1395 
L 4320 1882 
L 5818 1882 
C 5901 1882 5965 1914 5984 1978 
C 5792 2157 5498 2387 5498 2387 
L 5235 2067 
L 4237 2067 
C 4333 2202 4442 2349 4518 2470 
C 4646 2464 4736 2509 4762 2592 
L 4403 2688 
L 4429 2688 
C 4538 2688 4666 2752 4666 2771 
L 4666 2912 
L 5485 2912 
L 5485 2662 
L 5523 2662 
C 5619 2662 5760 2739 5766 2771 
L 5766 3731 
C 5875 3750 5978 3802 6016 3846 
L 5606 4154 
L 5427 3968 
L 4691 3968 
L 4384 4115 
L 4384 2694 
L 4262 2726 
C 4205 2541 4109 2266 4045 2067 
L 3123 2067 
C 3206 2195 3290 2330 3360 2464 
C 3494 2438 3578 2490 3610 2554 
L 3155 2771 
C 2848 2054 2381 1421 1946 1050 
L 2035 960 
C 2285 1126 2541 1357 2778 1626 
L 2778 -474 
L 2810 -474 
C 2944 -474 3046 -403 3046 -378 
L 3046 -179 
L 5933 -179 
C 6022 -179 6080 -154 6099 -83 
C 5914 96 5619 326 5619 326 
L 5357 6 
z
" transform="scale(0.015625)"/>
       <path id="NotoSerifCJKjp-ExtraLight-81f4" d="M 3354 832 
C 2842 723 2342 621 1888 531 
L 1888 1696 
L 3046 1696 
C 3136 1696 3194 1728 3206 1798 
C 3021 1971 2726 2208 2726 2208 
L 2470 1888 
L 1888 1888 
L 1888 2522 
C 2042 2547 2112 2605 2125 2701 
L 1600 2758 
L 1600 1888 
L 480 1888 
L 531 1696 
L 1600 1696 
L 1600 467 
C 1030 358 570 269 294 237 
L 512 -224 
C 570 -205 627 -154 653 -77 
C 1830 243 2720 518 3373 717 
L 3354 832 
z
M 3750 3731 
L 5165 3731 
C 5056 2867 4832 2112 4448 1453 
C 4083 2093 3859 2835 3706 3629 
L 3750 3731 
z
M 5971 3731 
C 6061 3731 6125 3763 6138 3834 
C 5952 4013 5651 4243 5651 4243 
L 5389 3923 
L 3840 3923 
C 3987 4282 4122 4659 4224 5056 
C 4365 5056 4435 5120 4461 5197 
L 3923 5331 
C 3750 4429 3437 3578 3066 2912 
C 3162 3110 2995 3616 2150 4000 
L 2074 3942 
C 2266 3789 2477 3558 2630 3322 
C 2067 3270 1517 3219 1075 3187 
C 1299 3565 1555 4115 1754 4582 
L 3194 4582 
C 3277 4582 3341 4614 3354 4685 
C 3174 4864 2880 5088 2880 5088 
L 2624 4774 
L 339 4774 
L 390 4582 
L 1370 4582 
C 1242 4134 1037 3558 864 3168 
C 640 3155 454 3142 320 3136 
L 499 2701 
C 557 2714 614 2758 653 2829 
C 1517 2976 2195 3110 2701 3206 
C 2765 3091 2803 2976 2822 2874 
C 2918 2803 3008 2822 3053 2893 
C 2957 2720 2854 2560 2752 2413 
L 2848 2349 
C 3130 2637 3379 3002 3597 3418 
C 3738 2611 3942 1862 4294 1203 
C 3885 595 3322 70 2566 -371 
L 2630 -461 
C 3411 -77 4000 390 4435 954 
C 4781 384 5248 -102 5875 -474 
C 5926 -339 6048 -282 6170 -269 
L 6189 -211 
C 5498 128 4986 608 4608 1190 
C 5088 1894 5357 2739 5517 3731 
L 5971 3731 
z
" transform="scale(0.015625)"/>
       <path id="NotoSerifCJKjp-ExtraLight-4e2d" d="M 3315 2144 
L 3315 3827 
L 5350 3827 
L 5350 2144 
L 3315 2144 
z
M 998 2144 
L 998 3827 
L 3034 3827 
L 3034 2144 
L 998 2144 
z
M 5478 4224 
L 5286 4019 
L 3315 4019 
L 3315 5094 
C 3475 5120 3520 5184 3539 5274 
L 3034 5338 
L 3034 4019 
L 1037 4019 
L 723 4186 
L 723 1357 
L 774 1357 
C 890 1357 998 1427 998 1459 
L 998 1952 
L 3034 1952 
L 3034 -474 
L 3091 -474 
C 3194 -474 3315 -397 3315 -346 
L 3315 1952 
L 5350 1952 
L 5350 1421 
L 5389 1421 
C 5485 1421 5626 1498 5632 1536 
L 5632 3763 
C 5760 3789 5862 3840 5907 3891 
L 5478 4224 
z
" transform="scale(0.015625)"/>
      </defs>
      <use xlink:href="#NotoSerifCJKjp-ExtraLight-6b0a"/>
      <use xlink:href="#NotoSerifCJKjp-ExtraLight-81f4" x="99.999985"/>
      <use xlink:href="#NotoSerifCJKjp-ExtraLight-4e2d" x="199.999969"/>
     </g>
    </g>
    <g clip-path="url(#pe98acc64ca)">
     <!-- 護軍 -->
     <g transform="translate(469.155072 555.96) scale(0.12 -0.12)">
      <defs>
       <path id="NotoSerifCJKjp-ExtraLight-8b77" d="M 4096 3200 
L 3110 3200 
L 3110 3610 
L 4096 3610 
L 4096 3200 
z
M 4096 2592 
L 3110 2592 
L 3110 3014 
L 4096 3014 
L 4096 2592 
z
M 4096 1965 
L 3110 1965 
L 3110 2400 
L 4096 2400 
L 4096 1965 
z
M 2470 4627 
L 3373 4627 
L 3373 4314 
L 3162 4403 
C 2925 3782 2573 3174 2259 2790 
L 2355 2726 
C 2515 2867 2682 3046 2835 3245 
L 2835 1466 
L 2874 1466 
C 3008 1466 3110 1542 3110 1574 
L 3110 1779 
L 5894 1779 
C 5984 1779 6042 1811 6061 1882 
C 5888 2042 5626 2253 5626 2253 
L 5389 1965 
L 4384 1965 
L 4384 2400 
L 5555 2400 
C 5638 2400 5696 2432 5715 2502 
C 5542 2656 5293 2835 5293 2835 
L 5069 2592 
L 4384 2592 
L 4384 3014 
L 5542 3014 
C 5632 3014 5690 3046 5709 3117 
C 5536 3264 5293 3450 5293 3450 
L 5069 3200 
L 4384 3200 
L 4384 3610 
L 5702 3610 
C 5786 3610 5843 3642 5856 3712 
C 5702 3872 5440 4077 5440 4077 
L 5216 3802 
L 4294 3802 
C 4365 3898 4435 4000 4480 4083 
C 4608 4083 4691 4134 4710 4218 
L 4218 4326 
C 4186 4186 4134 3968 4096 3802 
L 3213 3802 
C 3270 3904 3328 4006 3379 4109 
C 3514 4090 3590 4147 3616 4211 
L 3450 4282 
C 3552 4288 3654 4352 3654 4397 
L 3654 4627 
L 4717 4627 
L 4717 4282 
L 4774 4282 
C 4877 4282 4998 4352 4998 4397 
L 4998 4627 
L 5971 4627 
C 6054 4627 6118 4659 6131 4730 
C 5958 4896 5683 5114 5683 5114 
L 5440 4819 
L 4998 4819 
L 4998 5120 
C 5139 5139 5203 5197 5216 5280 
L 4717 5331 
L 4717 4819 
L 3654 4819 
L 3654 5120 
C 3795 5139 3859 5197 3872 5280 
L 3373 5331 
L 3373 4819 
L 2419 4819 
L 2470 4627 
z
M 1670 3296 
L 512 3296 
L 563 3110 
L 2150 3110 
C 2240 3110 2298 3142 2310 3206 
C 2150 3366 1901 3571 1901 3571 
L 1670 3296 
z
M 2170 4717 
C 2259 4717 2317 4749 2336 4819 
C 2157 4986 1882 5210 1882 5210 
L 1638 4902 
L 506 4902 
L 557 4717 
L 2170 4717 
z
M 1888 4102 
L 256 4102 
L 301 3917 
L 2432 3917 
C 2522 3917 2579 3949 2598 4019 
C 2419 4186 2138 4416 2138 4416 
L 1888 4102 
z
M 2150 2298 
C 2240 2298 2298 2330 2310 2394 
C 2150 2554 1901 2758 1901 2758 
L 1670 2483 
L 512 2483 
L 563 2298 
L 2150 2298 
z
M 826 275 
L 826 1491 
L 1856 1491 
L 1856 275 
L 826 275 
z
M 1978 1888 
L 1792 1677 
L 858 1677 
L 544 1837 
L 544 -474 
L 589 -474 
C 704 -474 826 -403 826 -371 
L 826 90 
L 1856 90 
L 1856 -230 
L 1894 -230 
C 1984 -230 2131 -160 2138 -122 
L 2138 1427 
C 2266 1453 2368 1504 2413 1549 
L 1978 1888 
z
M 5158 1133 
C 4922 838 4608 589 4230 371 
C 3846 570 3526 826 3296 1133 
L 5158 1133 
z
M 5472 1523 
L 5242 1325 
L 2534 1325 
L 2592 1133 
L 3123 1133 
C 3334 768 3629 474 3981 237 
C 3462 -26 2848 -218 2189 -352 
L 2240 -467 
C 2989 -346 3648 -160 4205 96 
C 4666 -166 5216 -352 5843 -480 
C 5882 -346 5978 -256 6106 -243 
L 6112 -173 
C 5517 -96 4966 45 4493 250 
C 4922 480 5274 768 5549 1114 
C 5709 1114 5779 1133 5830 1184 
L 5472 1523 
z
" transform="scale(0.015625)"/>
       <path id="NotoSerifCJKjp-ExtraLight-8ecd" d="M 5389 4685 
C 5293 4467 5165 4198 5062 4032 
L 5158 3987 
C 5363 4147 5645 4435 5786 4640 
C 5907 4646 5984 4653 6035 4698 
L 5619 5107 
L 5389 4870 
L 1203 4870 
C 1190 4966 1171 5062 1146 5171 
L 1030 5165 
C 1069 4678 845 4224 576 4051 
C 474 3981 410 3866 467 3763 
C 544 3654 736 3706 870 3821 
C 1037 3962 1216 4250 1210 4685 
L 5389 4685 
z
M 1568 1504 
L 1568 2150 
L 3046 2150 
L 3046 1504 
L 1568 1504 
z
M 3046 2963 
L 3046 2342 
L 1568 2342 
L 1568 2963 
L 3046 2963 
z
M 4806 2963 
L 4806 2342 
L 3328 2342 
L 3328 2963 
L 4806 2963 
z
M 3328 1504 
L 3328 2150 
L 4806 2150 
L 4806 1504 
L 3328 1504 
z
M 5312 672 
L 3328 672 
L 3328 1312 
L 4806 1312 
L 4806 1056 
L 4845 1056 
C 4934 1056 5082 1133 5088 1171 
L 5088 2899 
C 5216 2925 5318 2976 5363 3027 
L 4928 3360 
L 4742 3155 
L 3328 3155 
L 3328 3731 
L 5088 3731 
C 5178 3731 5242 3763 5254 3834 
C 5062 4000 4787 4192 4787 4192 
L 4538 3923 
L 3328 3923 
L 3328 4294 
C 3488 4320 3546 4384 3558 4467 
L 3046 4531 
L 3046 3923 
L 1158 3923 
L 1210 3731 
L 3046 3731 
L 3046 3155 
L 1600 3155 
L 1286 3315 
L 1286 1005 
L 1331 1005 
C 1453 1005 1568 1075 1568 1101 
L 1568 1312 
L 3046 1312 
L 3046 672 
L 314 672 
L 371 486 
L 3046 486 
L 3046 -467 
L 3104 -467 
C 3206 -467 3328 -397 3328 -339 
L 3328 486 
L 5939 486 
C 6029 486 6086 518 6106 589 
C 5907 768 5594 1018 5594 1018 
L 5312 672 
z
" transform="scale(0.015625)"/>
      </defs>
      <use xlink:href="#NotoSerifCJKjp-ExtraLight-8b77"/>
      <use xlink:href="#NotoSerifCJKjp-ExtraLight-8ecd" x="99.999985"/>
     </g>
    </g>
   </g>
   <g id="text_12">
    <g clip-path="url(#pe98acc64ca)">
     <!-- 權安成 -->
     <g transform="translate(463.155072 901.32) scale(0.12 -0.12)">
      <defs>
       <path id="NotoSerifCJKjp-ExtraLight-5b89" d="M 5466 4250 
C 5376 4019 5254 3725 5158 3546 
L 5248 3494 
C 5453 3674 5722 3987 5862 4198 
C 5984 4205 6061 4218 6106 4262 
L 5690 4672 
L 5459 4442 
L 3334 4442 
L 3334 5120 
C 3488 5139 3558 5203 3571 5293 
L 3053 5350 
L 3053 4442 
L 1165 4442 
C 1152 4538 1133 4646 1101 4762 
L 986 4755 
C 1024 4301 800 3891 531 3744 
C 429 3674 358 3565 410 3462 
C 480 3347 678 3386 819 3488 
C 979 3603 1158 3853 1171 4250 
L 5466 4250 
z
M 4288 2694 
C 4141 1971 3878 1402 3462 960 
C 3021 1094 2502 1222 1894 1338 
C 2106 1766 2336 2246 2534 2694 
L 4288 2694 
z
M 5293 2880 
L 2624 2880 
C 2784 3245 2925 3571 3008 3802 
C 3168 3802 3226 3859 3251 3942 
L 2778 4038 
C 2682 3750 2522 3328 2323 2880 
L 320 2880 
L 378 2694 
L 2246 2694 
C 1926 1965 1542 1190 1280 755 
C 1395 704 1517 691 1587 730 
C 1664 870 1747 1037 1837 1216 
C 2355 1094 2835 941 3270 774 
C 2624 211 1658 -128 256 -333 
L 282 -461 
C 1862 -294 2893 45 3571 659 
C 4429 301 5075 -109 5421 -448 
C 5843 -608 5882 154 3776 864 
C 4198 1325 4467 1926 4640 2694 
L 5914 2694 
C 6003 2694 6067 2726 6080 2790 
C 5882 2976 5568 3219 5568 3219 
L 5293 2880 
z
" transform="scale(0.015625)"/>
       <path id="NotoSerifCJKjp-ExtraLight-6210" d="M 4173 5114 
C 4499 4973 4915 4678 5069 4442 
C 5414 4294 5478 4998 4230 5190 
L 4173 5114 
z
M 6029 832 
L 5939 845 
C 5875 595 5779 294 5715 147 
C 5664 13 5619 13 5491 96 
C 5050 333 4704 691 4442 1139 
C 4883 1715 5184 2349 5376 2982 
C 5555 2976 5613 3008 5638 3091 
L 5101 3238 
C 4947 2605 4685 1971 4307 1402 
C 3974 2099 3802 2957 3731 3872 
L 5926 3872 
C 6016 3872 6080 3904 6093 3974 
C 5907 4147 5606 4384 5606 4384 
L 5344 4058 
L 3718 4058 
C 3699 4397 3693 4736 3693 5082 
C 3846 5101 3904 5178 3917 5261 
L 3392 5318 
C 3392 4883 3405 4461 3437 4058 
L 1299 4058 
L 954 4237 
L 954 2675 
C 954 1606 877 493 230 -416 
L 326 -499 
C 1146 397 1229 1638 1235 2611 
L 2534 2611 
C 2502 1504 2419 909 2291 781 
C 2246 730 2195 717 2093 717 
C 1978 717 1645 749 1453 768 
L 1446 653 
C 1606 634 1811 589 1875 544 
C 1946 493 1965 403 1965 326 
C 2150 326 2349 384 2470 512 
C 2675 710 2778 1350 2810 2592 
C 2938 2605 3014 2630 3059 2682 
L 2656 3002 
L 2477 2797 
L 1235 2797 
L 1235 3872 
L 3450 3872 
C 3546 2822 3750 1894 4134 1158 
C 3674 544 3072 13 2310 -358 
L 2368 -448 
C 3162 -115 3782 365 4262 922 
C 4550 448 4915 70 5382 -186 
C 5696 -384 6022 -506 6106 -346 
C 6138 -288 6125 -237 5939 -70 
L 6029 832 
z
" transform="scale(0.015625)"/>
      </defs>
      <use xlink:href="#NotoSerifCJKjp-ExtraLight-6b0a"/>
      <use xlink:href="#NotoSerifCJKjp-ExtraLight-5b89" x="99.999985"/>
      <use xlink:href="#NotoSerifCJKjp-ExtraLight-6210" x="199.999969"/>
     </g>
    </g>
    <g clip-path="url(#pe98acc64ca)">
     <!--   -->
     <g transform="translate(479.600697 915.96) scale(0.12 -0.12)">
      <defs>
       <path id="NotoSerifCJKjp-ExtraLight-20" transform="scale(0.015625)"/>
      </defs>
      <use xlink:href="#NotoSerifCJKjp-ExtraLight-20"/>
     </g>
    </g>
   </g>
   <g id="text_13">
    <g clip-path="url(#pe98acc64ca)">
     <!-- 權自關 -->
     <g transform="translate(857.165608 541.32) scale(0.12 -0.12)">
      <defs>
       <path id="NotoSerifCJKjp-ExtraLight-81ea" d="M 1619 147 
L 1619 1370 
L 4838 1370 
L 4838 147 
L 1619 147 
z
M 4838 2752 
L 4838 1555 
L 1619 1555 
L 1619 2752 
L 4838 2752 
z
M 4838 4102 
L 4838 2938 
L 1619 2938 
L 1619 4102 
L 4838 4102 
z
M 4960 4512 
L 4774 4294 
L 2906 4294 
C 3085 4550 3258 4845 3360 5082 
C 3494 5088 3571 5152 3590 5229 
L 3021 5331 
C 2957 5018 2848 4608 2733 4294 
L 1658 4294 
L 1344 4461 
L 1344 -461 
L 1402 -461 
C 1523 -461 1619 -384 1619 -346 
L 1619 -45 
L 4838 -45 
L 4838 -454 
L 4877 -454 
C 4973 -454 5114 -365 5120 -320 
L 5120 4038 
C 5248 4064 5357 4115 5395 4166 
L 4960 4512 
z
" transform="scale(0.015625)"/>
       <path id="NotoSerifCJKjp-ExtraLight-95dc" d="M 3878 3206 
C 3808 3072 3661 2829 3526 2643 
C 3437 2694 3322 2739 3174 2771 
L 3104 2714 
C 3302 2592 3526 2362 3590 2170 
C 3795 2042 3949 2330 3642 2566 
C 3795 2688 3949 2810 4045 2906 
C 4160 2874 4250 2925 4269 2976 
L 3878 3206 
z
M 2438 4762 
L 2438 4250 
L 954 4250 
L 954 4762 
L 2438 4762 
z
M 954 3520 
L 954 4058 
L 2438 4058 
L 2438 3520 
L 954 3520 
z
M 2438 3328 
L 2438 3117 
L 2477 3117 
C 2573 3117 2720 3194 2726 3232 
L 2726 4717 
C 2829 4736 2931 4787 2970 4832 
L 2560 5146 
L 2381 4947 
L 986 4947 
L 672 5120 
L 672 -467 
L 723 -467 
C 864 -467 954 -390 954 -346 
L 954 3328 
L 2438 3328 
z
M 2291 3187 
C 2234 3053 2106 2822 1990 2637 
C 1901 2688 1792 2733 1651 2771 
L 1581 2720 
C 1779 2592 1990 2349 2048 2157 
C 2253 2022 2406 2310 2106 2560 
C 2253 2675 2400 2797 2490 2886 
C 2605 2854 2688 2912 2707 2963 
L 2291 3187 
z
M 2643 762 
C 2643 730 2643 691 2637 659 
L 2080 659 
L 2080 1126 
C 2202 1152 2259 1203 2266 1274 
L 1798 1331 
L 1798 218 
L 1856 218 
C 1952 218 2080 288 2080 333 
L 2080 467 
L 2611 467 
C 2534 173 2310 -102 1773 -301 
L 1850 -390 
C 2746 -115 2918 333 2925 755 
L 2925 1184 
C 3078 1203 3123 1261 3136 1338 
L 2643 1395 
L 2643 762 
z
M 1587 1453 
C 1645 1466 1696 1498 1734 1574 
C 2202 1632 2560 1677 2810 1715 
C 2835 1645 2854 1568 2854 1498 
C 3091 1280 3360 1779 2682 2150 
L 2598 2106 
C 2656 2035 2714 1939 2758 1843 
C 2560 1837 2355 1830 2170 1824 
C 2451 2054 2733 2310 2893 2483 
C 3014 2445 3110 2496 3136 2547 
L 2771 2771 
C 2611 2534 2266 2118 1971 1818 
C 1734 1811 1536 1805 1408 1805 
L 1587 1453 
z
M 4275 659 
L 3648 659 
L 3648 1203 
C 3770 1229 3821 1280 3834 1350 
L 3366 1408 
L 3366 -314 
L 3424 -314 
C 3533 -314 3648 -237 3648 -192 
L 3648 467 
L 4275 467 
L 4275 192 
L 4333 192 
C 4435 192 4557 262 4557 301 
L 4557 1126 
C 4678 1152 4736 1203 4742 1274 
L 4275 1331 
L 4275 659 
z
M 4211 2163 
C 4288 2086 4378 1978 4448 1862 
C 4186 1850 3923 1830 3699 1824 
C 3981 2035 4275 2298 4442 2464 
C 4557 2426 4659 2470 4685 2522 
L 4326 2758 
C 4166 2515 3789 2080 3494 1811 
C 3373 1805 3264 1805 3181 1805 
L 3366 1459 
C 3424 1472 3469 1504 3507 1581 
C 3942 1645 4275 1696 4518 1741 
C 4563 1651 4602 1555 4614 1472 
C 4877 1261 5107 1818 4288 2214 
L 4211 2163 
z
M 3885 3520 
L 3885 4058 
L 5440 4058 
L 5440 3520 
L 3885 3520 
z
M 5440 4762 
L 5440 4250 
L 3885 4250 
L 3885 4762 
L 5440 4762 
z
M 5542 5171 
L 5376 4947 
L 3917 4947 
L 3603 5107 
L 3603 3162 
L 3642 3162 
C 3763 3162 3885 3219 3885 3251 
L 3885 3328 
L 5440 3328 
L 5440 45 
C 5440 -38 5414 -64 5338 -64 
C 5254 -64 4877 -32 4877 -32 
L 4877 -141 
C 5050 -166 5152 -192 5216 -243 
C 5274 -294 5299 -390 5299 -474 
C 5683 -429 5722 -262 5722 6 
L 5722 4698 
C 5850 4717 5965 4774 6010 4826 
L 5542 5171 
z
" transform="scale(0.015625)"/>
      </defs>
      <use xlink:href="#NotoSerifCJKjp-ExtraLight-6b0a"/>
      <use xlink:href="#NotoSerifCJKjp-ExtraLight-81ea" x="99.999985"/>
      <use xlink:href="#NotoSerifCJKjp-ExtraLight-95dc" x="199.999969"/>
     </g>
    </g>
    <g clip-path="url(#pe98acc64ca)">
     <!-- 司直 -->
     <g transform="translate(863.165608 555.96) scale(0.12 -0.12)">
      <defs>
       <path id="NotoSerifCJKjp-ExtraLight-53f8" d="M 3936 3891 
L 442 3891 
L 493 3699 
L 4512 3699 
C 4602 3699 4666 3731 4685 3802 
C 4493 3981 4198 4205 4198 4205 
L 3936 3891 
z
M 1402 1139 
L 1402 2650 
L 3475 2650 
L 3475 1139 
L 1402 1139 
z
M 3603 3046 
L 3411 2835 
L 1434 2835 
L 1120 2995 
L 1120 205 
L 1171 205 
C 1293 205 1402 269 1402 301 
L 1402 954 
L 3475 954 
L 3475 422 
L 3514 422 
C 3610 422 3750 506 3757 544 
L 3757 2586 
C 3885 2611 3994 2662 4038 2714 
L 3603 3046 
z
M 5363 5210 
L 5203 4986 
L 595 4986 
L 653 4800 
L 5267 4800 
L 5267 115 
C 5267 -6 5222 -58 5062 -58 
C 4890 -58 4019 13 4019 13 
L 4019 -90 
C 4378 -134 4595 -179 4723 -237 
C 4826 -288 4870 -365 4890 -461 
C 5491 -397 5549 -192 5549 77 
L 5549 4736 
C 5677 4755 5786 4813 5830 4864 
L 5363 5210 
z
" transform="scale(0.015625)"/>
       <path id="NotoSerifCJKjp-ExtraLight-76f4" d="M 4678 3450 
L 4678 2771 
L 2362 2771 
L 2362 3450 
L 4678 3450 
z
M 2362 1005 
L 2362 1709 
L 4678 1709 
L 4678 1005 
L 2362 1005 
z
M 2362 2586 
L 4678 2586 
L 4678 1901 
L 2362 1901 
L 2362 2586 
z
M 2400 3635 
L 2086 3802 
L 2086 518 
L 2138 518 
C 2259 518 2362 589 2362 627 
L 2362 813 
L 4678 813 
L 4678 538 
L 4717 538 
C 4813 538 4954 621 4960 659 
L 4960 3386 
C 5088 3411 5197 3462 5242 3514 
L 4806 3853 
L 4614 3635 
L 3302 3635 
L 3360 4307 
L 5818 4307 
C 5907 4307 5971 4339 5990 4410 
C 5786 4595 5466 4845 5466 4845 
L 5184 4493 
L 3373 4493 
L 3424 5126 
C 3546 5146 3616 5210 3622 5293 
L 3123 5331 
C 3117 5075 3104 4781 3085 4493 
L 390 4493 
L 448 4307 
L 3078 4307 
C 3066 4058 3046 3821 3034 3635 
L 2400 3635 
z
M 5325 109 
L 1107 109 
L 1107 3290 
C 1267 3309 1325 3373 1344 3462 
L 826 3526 
L 826 -461 
L 883 -461 
C 992 -461 1107 -390 1107 -333 
L 1107 -83 
L 5965 -83 
C 6054 -83 6118 -51 6138 19 
C 5933 211 5613 454 5613 454 
L 5325 109 
z
" transform="scale(0.015625)"/>
      </defs>
      <use xlink:href="#NotoSerifCJKjp-ExtraLight-53f8"/>
      <use xlink:href="#NotoSerifCJKjp-ExtraLight-76f4" x="99.999985"/>
     </g>
    </g>
   </g>
   <g id="text_14">
    <g clip-path="url(#pe98acc64ca)">
     <!-- 權柔 -->
     <g transform="translate(863.165608 901.32) scale(0.12 -0.12)">
      <defs>
       <path id="NotoSerifCJKjp-ExtraLight-67d4" d="M 448 2080 
C 1549 2387 2579 2886 3302 3520 
L 3302 2618 
C 3302 2534 3270 2502 3142 2502 
C 2995 2502 2298 2547 2298 2547 
L 2298 2445 
C 2592 2419 2784 2381 2874 2342 
C 2957 2304 3008 2234 3014 2170 
C 3514 2214 3590 2362 3590 2611 
L 3590 3622 
L 5210 3622 
C 4928 3366 4506 3053 4218 2867 
L 4301 2797 
C 4736 2989 5376 3322 5702 3590 
C 5830 3597 5914 3603 5965 3642 
L 5562 4038 
L 5318 3814 
L 3680 3814 
C 3686 3904 3629 4026 3450 4154 
C 3930 4339 4570 4614 4902 4826 
C 5050 4832 5133 4838 5190 4870 
L 4781 5267 
L 4538 5043 
L 1075 5043 
L 1126 4858 
L 4365 4858 
C 4070 4653 3654 4403 3334 4230 
C 3098 4371 2714 4506 2118 4608 
L 2080 4493 
C 2662 4301 3078 4058 3315 3814 
L 461 3814 
L 518 3622 
L 2938 3622 
C 2298 3059 1370 2541 390 2195 
L 448 2080 
z
M 5933 1402 
C 6022 1402 6086 1434 6099 1504 
C 5901 1690 5581 1933 5581 1933 
L 5299 1587 
L 3334 1587 
L 3334 1894 
C 3494 1920 3558 1971 3571 2061 
L 3053 2125 
L 3053 1587 
L 294 1587 
L 352 1402 
L 2707 1402 
C 2144 742 1274 179 269 -198 
L 333 -320 
C 1446 26 2419 576 3053 1306 
L 3053 -467 
L 3110 -467 
C 3213 -467 3334 -397 3334 -346 
L 3334 1402 
L 3386 1402 
C 3955 627 4941 19 5888 -288 
C 5926 -154 6042 -64 6170 -58 
L 6182 19 
C 5248 237 4179 762 3565 1402 
L 5933 1402 
z
" transform="scale(0.015625)"/>
      </defs>
      <use xlink:href="#NotoSerifCJKjp-ExtraLight-6b0a"/>
      <use xlink:href="#NotoSerifCJKjp-ExtraLight-67d4" x="99.999985"/>
     </g>
    </g>
    <g clip-path="url(#pe98acc64ca)">
     <!--   -->
     <g transform="translate(873.611233 915.96) scale(0.12 -0.12)">
      <use xlink:href="#NotoSerifCJKjp-ExtraLight-20"/>
     </g>
    </g>
   </g>
   <g id="text_15">
    <g clip-path="url(#pe98acc64ca)">
     <!-- 權自準 -->
     <g transform="translate(1645.155777 541.32) scale(0.12 -0.12)">
      <defs>
       <path id="NotoSerifCJKjp-ExtraLight-6e96" d="M 3962 4358 
L 3962 3789 
L 2874 3789 
L 2874 4352 
L 2874 4358 
L 3962 4358 
z
M 3962 2989 
L 2874 2989 
L 2874 3603 
L 3962 3603 
L 3962 2989 
z
M 3962 2176 
L 2874 2176 
L 2874 2797 
L 3962 2797 
L 3962 2176 
z
M 1792 3136 
C 2074 3347 2349 3629 2598 3955 
L 2598 1632 
L 2637 1632 
C 2778 1632 2874 1715 2874 1741 
L 2874 1984 
L 5933 1984 
C 6022 1984 6080 2016 6099 2086 
C 5914 2266 5619 2496 5619 2496 
L 5357 2176 
L 4243 2176 
L 4243 2797 
L 5542 2797 
C 5632 2797 5690 2829 5709 2899 
C 5530 3072 5254 3290 5254 3290 
L 5005 2989 
L 4243 2989 
L 4243 3603 
L 5517 3603 
C 5600 3603 5664 3629 5677 3699 
C 5498 3872 5222 4090 5222 4090 
L 4973 3789 
L 4243 3789 
L 4243 4358 
L 5760 4358 
C 5850 4358 5914 4390 5926 4454 
C 5741 4634 5453 4864 5453 4864 
L 5197 4544 
L 4122 4544 
C 4282 4723 4435 4922 4531 5094 
C 4672 5094 4749 5158 4768 5235 
L 4230 5344 
C 4160 5101 4045 4787 3936 4544 
L 2989 4544 
C 3085 4717 3174 4896 3258 5082 
C 3392 5062 3475 5120 3501 5190 
L 3014 5376 
C 2714 4486 2202 3693 1696 3213 
L 1792 3136 
z
M 416 2899 
L 416 2752 
C 538 2739 627 2726 710 2682 
C 851 2611 883 2349 832 1818 
C 838 1664 877 1574 960 1574 
C 1101 1574 1178 1690 1184 1901 
C 1203 2240 1094 2464 1094 2650 
C 1094 2771 1152 2906 1235 3046 
C 1350 3232 2061 4262 2355 4717 
L 2240 4774 
C 1018 3155 1018 3155 883 3002 
C 813 2899 787 2899 723 2899 
L 416 2899 
z
M 742 5267 
C 998 5101 1306 4794 1408 4550 
C 1754 4365 1933 5069 806 5325 
L 742 5267 
z
M 205 4480 
C 454 4339 755 4051 864 3827 
C 1210 3648 1370 4358 262 4544 
L 205 4480 
z
M 5286 1062 
L 3334 1062 
L 3334 1542 
C 3456 1568 3507 1619 3520 1690 
L 3053 1747 
L 3053 1062 
L 314 1062 
L 371 870 
L 3053 870 
L 3053 -467 
L 3110 -467 
C 3213 -467 3334 -397 3334 -346 
L 3334 870 
L 5920 870 
C 6010 870 6074 902 6093 973 
C 5888 1158 5568 1408 5568 1408 
L 5286 1062 
z
" transform="scale(0.015625)"/>
      </defs>
      <use xlink:href="#NotoSerifCJKjp-ExtraLight-6b0a"/>
      <use xlink:href="#NotoSerifCJKjp-ExtraLight-81ea" x="99.999985"/>
      <use xlink:href="#NotoSerifCJKjp-ExtraLight-6e96" x="199.999969"/>
     </g>
    </g>
    <g clip-path="url(#pe98acc64ca)">
     <!-- 副使 -->
     <g transform="translate(1651.155777 555.96) scale(0.12 -0.12)">
      <defs>
       <path id="NotoSerifCJKjp-ExtraLight-526f" d="M 2234 192 
L 2234 1069 
L 3373 1069 
L 3373 192 
L 2234 192 
z
M 819 1069 
L 1946 1069 
L 1946 192 
L 819 192 
L 819 1069 
z
M 1946 2093 
L 1946 1254 
L 819 1254 
L 819 2093 
L 1946 2093 
z
M 3373 2093 
L 3373 1254 
L 2234 1254 
L 2234 2093 
L 3373 2093 
z
M 3309 2285 
L 851 2285 
L 538 2445 
L 538 -480 
L 589 -480 
C 704 -480 819 -410 819 -378 
L 819 0 
L 3373 0 
L 3373 -371 
L 3411 -371 
C 3507 -371 3648 -288 3654 -250 
L 3654 2029 
C 3782 2054 3891 2106 3936 2157 
L 3501 2490 
L 3309 2285 
z
M 1158 3117 
L 1158 3955 
L 3034 3955 
L 3034 3117 
L 1158 3117 
z
M 3072 2682 
C 3168 2682 3309 2758 3315 2790 
L 3315 3891 
C 3437 3917 3552 3968 3597 4019 
L 3162 4346 
L 2970 4141 
L 1190 4141 
L 877 4301 
L 877 2630 
L 922 2630 
C 1037 2630 1158 2701 1158 2726 
L 1158 2925 
L 3034 2925 
L 3034 2682 
L 3072 2682 
z
M 3264 4870 
L 269 4870 
L 320 4678 
L 3846 4678 
C 3936 4678 3994 4710 4013 4781 
C 3821 4954 3526 5190 3526 5190 
L 3264 4870 
z
M 4371 4762 
L 4371 774 
L 4429 774 
C 4531 774 4653 845 4653 902 
L 4653 4525 
C 4813 4544 4870 4608 4883 4698 
L 4371 4762 
z
M 5523 5210 
L 5523 70 
C 5523 -32 5491 -70 5376 -70 
C 5261 -70 4666 -19 4666 -19 
L 4666 -128 
C 4915 -154 5075 -192 5158 -243 
C 5242 -301 5274 -384 5286 -474 
C 5754 -422 5805 -237 5805 38 
L 5805 4973 
C 5958 4992 6022 5056 6042 5146 
L 5523 5210 
z
" transform="scale(0.015625)"/>
       <path id="NotoSerifCJKjp-ExtraLight-4f7f" d="M 1427 3680 
C 1651 4109 1850 4576 2016 5043 
C 2157 5037 2234 5094 2259 5171 
L 1747 5331 
C 1402 4122 832 2918 269 2163 
L 371 2093 
C 653 2406 928 2790 1178 3219 
L 1178 -467 
L 1229 -467 
C 1338 -467 1459 -384 1466 -358 
L 1466 3482 
C 1568 3494 1632 3539 1651 3597 
L 1427 3680 
z
M 2566 2221 
L 2566 3366 
L 3846 3366 
L 3846 2566 
C 3846 2445 3840 2330 3834 2221 
L 2566 2221 
z
M 5382 3366 
L 5382 2221 
L 4115 2221 
C 4122 2336 4128 2451 4128 2573 
L 4128 3366 
L 5382 3366 
z
M 5382 2029 
L 5382 1696 
L 5421 1696 
C 5517 1696 5664 1779 5670 1818 
L 5670 3302 
C 5792 3328 5901 3379 5946 3430 
L 5510 3763 
L 5318 3558 
L 4128 3558 
L 4128 4275 
L 5965 4275 
C 6054 4275 6112 4307 6131 4378 
C 5939 4550 5645 4787 5645 4787 
L 5382 4461 
L 4128 4461 
L 4128 5094 
C 4288 5120 4339 5184 4352 5274 
L 3846 5325 
L 3846 4461 
L 2003 4461 
L 2054 4275 
L 3846 4275 
L 3846 3558 
L 2598 3558 
L 2285 3712 
L 2285 1683 
L 2330 1683 
C 2445 1683 2566 1754 2566 1786 
L 2566 2029 
L 3821 2029 
C 3763 1562 3629 1158 3386 813 
C 3091 1050 2848 1338 2669 1664 
L 2560 1600 
C 2739 1222 2963 902 3245 627 
C 2893 224 2374 -96 1613 -346 
L 1670 -467 
C 2477 -230 3034 83 3411 480 
C 4026 -32 4845 -333 5894 -467 
C 5926 -320 6042 -218 6176 -192 
L 6176 -128 
C 5120 -51 4237 218 3578 666 
C 3878 1056 4032 1504 4096 2029 
L 5382 2029 
z
" transform="scale(0.015625)"/>
      </defs>
      <use xlink:href="#NotoSerifCJKjp-ExtraLight-526f"/>
      <use xlink:href="#NotoSerifCJKjp-ExtraLight-4f7f" x="99.999985"/>
     </g>
    </g>
   </g>
   <g id="text_16">
    <g clip-path="url(#pe98acc64ca)">
     <!-- 權平 -->
     <g transform="translate(1257.160692 901.32) scale(0.12 -0.12)">
      <defs>
       <path id="NotoSerifCJKjp-ExtraLight-5e73" d="M 5299 2086 
L 3347 2086 
L 3347 4678 
L 5645 4678 
C 5728 4678 5792 4710 5805 4781 
C 5613 4966 5293 5216 5293 5216 
L 5005 4870 
L 659 4870 
L 710 4678 
L 3066 4678 
L 3066 2086 
L 294 2086 
L 352 1901 
L 3066 1901 
L 3066 -480 
L 3104 -480 
C 3245 -480 3347 -397 3347 -365 
L 3347 1901 
L 5933 1901 
C 6022 1901 6086 1933 6099 1997 
C 5901 2189 5581 2432 5581 2432 
L 5299 2086 
z
M 1229 4218 
C 1530 3782 1907 3072 1952 2554 
C 2304 2234 2573 3168 1325 4262 
L 1229 4218 
z
M 4077 2451 
C 4442 2829 4832 3405 5126 3955 
C 5261 3942 5331 3994 5357 4058 
L 4858 4269 
C 4608 3629 4262 2944 3981 2515 
L 4077 2451 
z
" transform="scale(0.015625)"/>
      </defs>
      <use xlink:href="#NotoSerifCJKjp-ExtraLight-6b0a"/>
      <use xlink:href="#NotoSerifCJKjp-ExtraLight-5e73" x="99.999985"/>
     </g>
    </g>
    <g clip-path="url(#pe98acc64ca)">
     <!--   -->
     <g transform="translate(1267.606317 915.96) scale(0.12 -0.12)">
      <use xlink:href="#NotoSerifCJKjp-ExtraLight-20"/>
     </g>
    </g>
   </g>
   <g id="text_17">
    <g clip-path="url(#pe98acc64ca)">
     <!-- 權和 -->
     <g transform="translate(1651.155777 901.32) scale(0.12 -0.12)">
      <defs>
       <path id="NotoSerifCJKjp-ExtraLight-548c" d="M 2605 3328 
L 2016 3328 
L 2016 4691 
C 2374 4787 2707 4883 2976 4973 
C 3110 4928 3206 4922 3258 4979 
L 2867 5299 
C 2317 5030 1235 4666 365 4474 
L 403 4358 
C 838 4416 1299 4512 1734 4621 
L 1734 3328 
L 346 3328 
L 397 3142 
L 1555 3142 
C 1293 2227 832 1344 211 672 
L 294 576 
C 941 1146 1414 1850 1734 2643 
L 1734 -467 
L 1773 -467 
C 1914 -467 2016 -390 2016 -358 
L 2016 2496 
C 2355 2208 2790 1766 2938 1466 
C 3290 1261 3443 1971 2016 2618 
L 2016 3142 
L 3187 3142 
C 3270 3142 3328 3174 3347 3238 
C 3162 3418 2861 3648 2861 3648 
L 2605 3328 
z
M 3750 499 
L 3750 4262 
L 5542 4262 
L 5542 499 
L 3750 499 
z
M 5664 4685 
L 5472 4454 
L 3782 4454 
L 3469 4621 
L 3469 -326 
L 3526 -326 
C 3654 -326 3750 -250 3750 -211 
L 3750 307 
L 5542 307 
L 5542 -211 
L 5581 -211 
C 5670 -211 5811 -166 5824 -141 
L 5824 4179 
C 5965 4205 6093 4262 6138 4320 
L 5664 4685 
z
" transform="scale(0.015625)"/>
      </defs>
      <use xlink:href="#NotoSerifCJKjp-ExtraLight-6b0a"/>
      <use xlink:href="#NotoSerifCJKjp-ExtraLight-548c" x="99.999985"/>
     </g>
    </g>
    <g clip-path="url(#pe98acc64ca)">
     <!--   -->
     <g transform="translate(1661.601402 915.96) scale(0.12 -0.12)">
      <use xlink:href="#NotoSerifCJKjp-ExtraLight-20"/>
     </g>
    </g>
   </g>
   <g id="text_18">
    <g clip-path="url(#pe98acc64ca)">
     <!-- 權紀 -->
     <g transform="translate(2045.150861 901.32) scale(0.12 -0.12)">
      <defs>
       <path id="NotoSerifCJKjp-ExtraLight-7d00" d="M 1434 5338 
C 1274 4902 1075 4442 896 4122 
C 774 4205 614 4288 416 4365 
L 346 4307 
C 627 4102 966 3731 1050 3443 
C 1293 3283 1446 3667 998 4045 
C 1229 4307 1485 4698 1677 5043 
C 1811 5030 1882 5088 1914 5152 
L 1434 5338 
z
M 384 -96 
C 685 358 928 1037 1075 1670 
C 1203 1670 1267 1734 1293 1805 
L 806 1933 
C 710 1210 512 474 269 -38 
L 384 -96 
z
M 2003 1920 
C 2182 1568 2374 1030 2381 627 
C 2688 314 3008 1082 2099 1946 
L 2003 1920 
z
M 1939 3296 
C 2054 3130 2182 2906 2278 2675 
C 1856 2643 1446 2611 1101 2592 
C 1574 3117 2048 3789 2342 4301 
C 2470 4282 2560 4326 2592 4397 
L 2118 4602 
C 1830 3981 1344 3174 902 2579 
C 653 2560 442 2547 301 2547 
L 429 2157 
C 493 2170 550 2208 582 2285 
C 902 2330 1197 2368 1466 2406 
L 1466 -461 
L 1504 -461 
C 1638 -461 1747 -384 1747 -352 
L 1747 2451 
C 1958 2483 2150 2515 2330 2547 
C 2374 2406 2413 2266 2419 2144 
C 2733 1869 3021 2605 2022 3334 
L 1939 3296 
z
M 5920 1107 
L 5824 1107 
C 5760 614 5696 160 5645 32 
C 5626 -45 5600 -70 5510 -77 
C 5389 -90 5082 -96 4653 -96 
L 3782 -96 
C 3443 -96 3398 -51 3398 83 
L 3398 2714 
L 5325 2714 
L 5325 2227 
L 5363 2227 
C 5459 2227 5606 2310 5613 2349 
L 5613 4627 
C 5728 4653 5843 4704 5882 4755 
L 5453 5088 
L 5267 4877 
L 2874 4877 
L 2931 4691 
L 5325 4691 
L 5325 2899 
L 3475 2899 
L 3117 3072 
L 3117 45 
C 3117 -256 3232 -346 3763 -346 
L 4672 -346 
C 5888 -346 6093 -314 6093 -147 
C 6093 -90 6061 -51 5933 -13 
L 5920 1107 
z
" transform="scale(0.015625)"/>
      </defs>
      <use xlink:href="#NotoSerifCJKjp-ExtraLight-6b0a"/>
      <use xlink:href="#NotoSerifCJKjp-ExtraLight-7d00" x="99.999985"/>
     </g>
    </g>
    <g clip-path="url(#pe98acc64ca)">
     <!--   -->
     <g transform="translate(2055.596486 915.96) scale(0.12 -0.12)">
      <use xlink:href="#NotoSerifCJKjp-ExtraLight-20"/>
     </g>
    </g>
   </g>
   <g id="text_19">
    <g clip-path="url(#pe98acc64ca)">
     <!-- 權綱 -->
     <g transform="translate(2439.145946 901.32) scale(0.12 -0.12)">
      <defs>
       <path id="NotoSerifCJKjp-ExtraLight-7db1" d="M 1293 5338 
C 1133 4915 941 4435 781 4096 
C 666 4173 518 4243 333 4307 
L 262 4250 
C 518 4058 813 3712 883 3437 
C 1133 3270 1318 3648 902 4006 
C 1120 4294 1370 4685 1568 5024 
C 1696 5018 1773 5069 1805 5139 
L 1293 5338 
z
M 390 64 
C 627 435 819 986 947 1485 
C 1075 1485 1139 1536 1165 1613 
L 685 1741 
C 608 1158 454 544 282 115 
L 390 64 
z
M 1837 1709 
C 1990 1414 2176 934 2182 582 
C 2470 294 2790 992 1926 1741 
L 1837 1709 
z
M 467 2144 
C 525 2157 582 2189 621 2272 
C 877 2304 1107 2336 1318 2368 
L 1318 -467 
L 1357 -467 
C 1498 -467 1600 -390 1600 -358 
L 1600 2406 
C 1779 2432 1939 2458 2086 2477 
C 2138 2342 2176 2202 2189 2080 
C 2490 1811 2778 2502 1824 3162 
L 1741 3123 
C 1837 2982 1946 2797 2029 2605 
C 1670 2586 1325 2573 1024 2560 
C 1466 3110 1958 3814 2246 4301 
C 2374 4282 2464 4326 2502 4397 
L 2010 4614 
C 1709 4006 1229 3168 838 2554 
C 621 2547 429 2541 301 2541 
L 467 2144 
z
M 4813 742 
L 4813 256 
L 4870 256 
C 4973 256 5094 326 5094 378 
L 5094 2349 
C 5235 2362 5293 2419 5299 2502 
L 4813 2560 
L 4813 934 
L 4326 934 
L 4326 3008 
L 5286 3008 
C 5363 3008 5421 3040 5440 3110 
C 5293 3258 5050 3456 5050 3456 
L 4845 3194 
L 4442 3194 
C 4646 3514 4870 3917 4998 4211 
C 5133 4205 5210 4262 5235 4339 
L 4717 4474 
C 4608 4096 4435 3571 4282 3194 
L 3059 3194 
L 3110 3008 
L 4038 3008 
L 4038 934 
L 3558 934 
L 3558 2349 
C 3693 2362 3750 2419 3763 2502 
L 3270 2560 
L 3270 173 
L 3328 173 
C 3437 173 3558 250 3558 288 
L 3558 742 
L 4813 742 
z
M 3277 4410 
C 3430 4154 3616 3738 3622 3430 
C 3917 3162 4224 3808 3366 4448 
L 3277 4410 
z
M 5702 5056 
L 5542 4851 
L 2886 4851 
L 2566 5018 
L 2566 -467 
L 2624 -467 
C 2765 -467 2848 -390 2848 -346 
L 2848 4659 
L 5600 4659 
L 5600 77 
C 5600 -19 5568 -58 5459 -58 
C 5338 -58 4774 -6 4774 -6 
L 4774 -115 
C 5011 -147 5165 -179 5248 -237 
C 5318 -288 5357 -371 5370 -461 
C 5830 -410 5882 -230 5882 45 
L 5882 4608 
C 5997 4627 6106 4678 6138 4730 
L 5702 5056 
z
" transform="scale(0.015625)"/>
      </defs>
      <use xlink:href="#NotoSerifCJKjp-ExtraLight-6b0a"/>
      <use xlink:href="#NotoSerifCJKjp-ExtraLight-7db1" x="99.999985"/>
     </g>
    </g>
    <g clip-path="url(#pe98acc64ca)">
     <!--   -->
     <g transform="translate(2449.591571 915.96) scale(0.12 -0.12)">
      <use xlink:href="#NotoSerifCJKjp-ExtraLight-20"/>
     </g>
    </g>
   </g>
   <g id="text_20">
    <g clip-path="url(#pe98acc64ca)">
     <!-- 權九敍 -->
     <g transform="translate(857.165608 181.32) scale(0.12 -0.12)">
      <defs>
       <path id="NotoSerifCJKjp-ExtraLight-4e5d" d="M 6042 1011 
L 5952 1011 
C 5901 640 5830 211 5798 122 
C 5773 70 5754 51 5702 45 
C 5632 38 5459 38 5235 38 
L 4755 38 
C 4544 38 4518 77 4518 192 
L 4518 3546 
C 4659 3558 4742 3590 4787 3635 
L 4371 4013 
L 4179 3808 
L 2707 3808 
C 2726 4224 2733 4653 2739 5075 
C 2893 5094 2944 5165 2963 5254 
L 2413 5312 
C 2413 4800 2413 4301 2387 3808 
L 608 3808 
L 666 3616 
L 2381 3616 
C 2278 2099 1888 717 288 -333 
L 378 -448 
C 2182 627 2586 2074 2694 3616 
L 4237 3616 
L 4237 160 
C 4237 -96 4326 -192 4717 -192 
L 5254 -192 
C 6048 -192 6208 -173 6208 -32 
C 6208 32 6176 58 6061 96 
L 6042 1011 
z
" transform="scale(0.015625)"/>
       <path id="NotoSerifCJKjp-ExtraLight-654d" d="M 1632 5331 
C 1389 4653 806 3693 230 3142 
L 314 3066 
C 960 3565 1530 4384 1875 5024 
C 2355 4621 2733 4147 2912 3827 
C 3226 3610 3635 4262 1914 5101 
C 2067 5107 2138 5146 2157 5216 
L 1632 5331 
z
M 998 1875 
C 819 1261 538 672 256 288 
L 352 224 
C 698 550 1030 1062 1248 1587 
C 1382 1581 1453 1638 1478 1709 
L 998 1875 
z
M 3123 2278 
C 3206 2278 3264 2310 3283 2374 
C 3110 2547 2822 2771 2822 2771 
L 2579 2464 
L 2029 2464 
L 2029 3322 
L 2848 3322 
C 2938 3322 2995 3354 3014 3424 
C 2842 3590 2573 3802 2573 3802 
L 2342 3514 
L 941 3514 
L 992 3322 
L 1747 3322 
L 1747 2464 
L 384 2464 
L 435 2278 
L 1747 2278 
L 1747 26 
C 1747 -64 1722 -96 1606 -96 
C 1498 -96 954 -58 954 -58 
L 954 -160 
C 1190 -179 1338 -211 1421 -262 
C 1491 -307 1517 -390 1530 -467 
C 1971 -416 2029 -230 2029 19 
L 2029 2278 
L 3123 2278 
z
M 2342 1856 
C 2592 1542 2886 1030 2925 640 
C 3258 346 3552 1158 2419 1901 
L 2342 1856 
z
M 5402 2694 
C 5210 2080 4922 1517 4518 1024 
C 4141 1491 3859 2054 3686 2694 
L 5402 2694 
z
M 5606 3085 
L 5389 2880 
L 4531 2880 
L 4531 3974 
L 5958 3974 
C 6048 3974 6106 4006 6125 4070 
C 5933 4250 5638 4480 5638 4480 
L 5370 4160 
L 4531 4160 
L 4531 5088 
C 4685 5114 4755 5178 4768 5267 
L 4250 5325 
L 4250 2880 
L 3155 2880 
L 3206 2694 
L 3546 2694 
C 3706 1965 3968 1338 4339 819 
C 3898 339 3334 -64 2650 -365 
L 2714 -467 
C 3450 -192 4026 179 4480 627 
C 4858 160 5325 -211 5894 -480 
C 5958 -339 6074 -262 6202 -262 
L 6214 -198 
C 5606 32 5094 384 4678 832 
C 5158 1363 5485 1984 5715 2662 
C 5856 2669 5926 2688 5978 2739 
L 5606 3085 
z
" transform="scale(0.015625)"/>
      </defs>
      <use xlink:href="#NotoSerifCJKjp-ExtraLight-6b0a"/>
      <use xlink:href="#NotoSerifCJKjp-ExtraLight-4e5d" x="99.999985"/>
      <use xlink:href="#NotoSerifCJKjp-ExtraLight-654d" x="199.999969"/>
     </g>
    </g>
    <g clip-path="url(#pe98acc64ca)">
     <!-- 司直 -->
     <g transform="translate(863.165608 195.96) scale(0.12 -0.12)">
      <use xlink:href="#NotoSerifCJKjp-ExtraLight-53f8"/>
      <use xlink:href="#NotoSerifCJKjp-ExtraLight-76f4" x="99.999985"/>
     </g>
    </g>
   </g>
   <g id="text_21">
    <g clip-path="url(#pe98acc64ca)">
     <!-- 權孝生 -->
     <g transform="translate(2039.150861 181.32) scale(0.12 -0.12)">
      <defs>
       <path id="NotoSerifCJKjp-ExtraLight-5b5d" d="M 2989 3475 
L 2989 4326 
L 4614 4326 
C 4307 4038 3962 3750 3590 3475 
L 2989 3475 
z
M 5926 3283 
C 6016 3283 6074 3315 6093 3386 
C 5894 3571 5581 3814 5581 3814 
L 5306 3475 
L 4058 3475 
C 4621 3891 5107 4326 5478 4749 
C 5626 4678 5696 4685 5747 4742 
L 5325 5094 
C 5165 4890 4973 4685 4768 4474 
C 4576 4646 4326 4845 4326 4845 
L 4051 4512 
L 2989 4512 
L 2989 5114 
C 3130 5139 3187 5197 3200 5280 
L 2707 5331 
L 2707 4512 
L 858 4512 
L 909 4326 
L 2707 4326 
L 2707 3475 
L 307 3475 
L 365 3283 
L 3328 3283 
C 3008 3059 2675 2848 2330 2643 
L 1459 2643 
L 1517 2451 
L 1990 2451 
C 1408 2131 800 1850 192 1619 
L 243 1510 
C 1005 1760 1747 2086 2432 2451 
L 4467 2451 
C 4198 2253 3827 2022 3539 1875 
L 3206 1920 
L 3206 1357 
L 653 1357 
L 704 1165 
L 3206 1165 
L 3206 70 
C 3206 -32 3181 -64 3046 -64 
C 2906 -64 2170 -13 2170 -13 
L 2170 -122 
C 2470 -154 2662 -192 2765 -243 
C 2848 -294 2886 -378 2912 -467 
C 3437 -416 3494 -230 3494 45 
L 3494 1165 
L 5875 1165 
C 5965 1165 6022 1197 6042 1267 
C 5843 1453 5536 1690 5536 1690 
L 5267 1357 
L 3494 1357 
L 3494 1696 
C 3616 1715 3674 1754 3699 1824 
C 4122 1984 4659 2221 4941 2426 
C 5082 2432 5165 2438 5216 2483 
L 4838 2842 
L 4621 2643 
L 2778 2643 
C 3136 2848 3475 3059 3789 3283 
L 5926 3283 
z
" transform="scale(0.015625)"/>
       <path id="NotoSerifCJKjp-ExtraLight-751f" d="M 5325 -32 
L 3322 -32 
L 3322 1805 
L 5325 1805 
C 5414 1805 5478 1837 5491 1907 
C 5299 2086 4979 2336 4979 2336 
L 4704 1990 
L 3322 1990 
L 3322 3610 
L 5574 3610 
C 5664 3610 5722 3635 5741 3706 
C 5536 3904 5229 4134 5229 4134 
L 4947 3795 
L 3322 3795 
L 3322 5094 
C 3475 5120 3533 5184 3552 5274 
L 3040 5331 
L 3040 3795 
L 1587 3795 
C 1760 4122 1914 4467 2048 4819 
C 2189 4813 2266 4870 2291 4934 
L 1786 5114 
C 1440 3968 851 2893 262 2227 
L 358 2157 
C 768 2528 1152 3027 1485 3610 
L 3040 3610 
L 3040 1990 
L 1005 1990 
L 1056 1805 
L 3040 1805 
L 3040 -32 
L 294 -32 
L 352 -218 
L 5965 -218 
C 6054 -218 6112 -186 6131 -122 
C 5926 70 5606 314 5606 314 
L 5325 -32 
z
" transform="scale(0.015625)"/>
      </defs>
      <use xlink:href="#NotoSerifCJKjp-ExtraLight-6b0a"/>
      <use xlink:href="#NotoSerifCJKjp-ExtraLight-5b5d" x="99.999985"/>
      <use xlink:href="#NotoSerifCJKjp-ExtraLight-751f" x="199.999969"/>
     </g>
    </g>
    <g clip-path="url(#pe98acc64ca)">
     <!--   -->
     <g transform="translate(2055.596486 195.96) scale(0.12 -0.12)">
      <use xlink:href="#NotoSerifCJKjp-ExtraLight-20"/>
     </g>
    </g>
   </g>
   <g id="text_22">
    <g clip-path="url(#pe98acc64ca)">
     <!-- 李馨 -->
     <g transform="translate(2045.150861 541.32) scale(0.12 -0.12)">
      <defs>
       <path id="NotoSerifCJKjp-ExtraLight-674e" d="M 5312 1280 
L 3341 1280 
L 3341 1574 
C 3462 1594 3520 1626 3552 1690 
C 3955 1830 4518 2054 4813 2259 
C 4941 2266 5030 2272 5082 2310 
L 4710 2669 
L 4499 2464 
L 1427 2464 
L 1485 2278 
L 4333 2278 
C 4064 2093 3686 1888 3424 1754 
L 3059 1798 
L 3059 1280 
L 314 1280 
L 371 1088 
L 3059 1088 
L 3059 64 
C 3059 -32 3027 -70 2899 -70 
C 2771 -70 2074 -19 2074 -19 
L 2074 -122 
C 2362 -154 2541 -192 2637 -243 
C 2726 -301 2765 -384 2778 -474 
C 3283 -416 3341 -237 3341 38 
L 3341 1088 
L 5926 1088 
C 6016 1088 6074 1120 6093 1190 
C 5894 1376 5587 1613 5587 1613 
L 5312 1280 
z
M 5850 4186 
C 5939 4186 5997 4218 6016 4288 
C 5818 4467 5504 4717 5504 4717 
L 5229 4378 
L 3322 4378 
L 3322 5107 
C 3482 5133 3546 5190 3558 5280 
L 3040 5338 
L 3040 4378 
L 403 4378 
L 461 4186 
L 2656 4186 
C 2061 3494 1152 2816 218 2355 
L 282 2253 
C 1363 2694 2368 3366 3040 4147 
L 3040 2662 
L 3098 2662 
C 3200 2662 3322 2733 3322 2778 
L 3322 4186 
L 3386 4186 
C 3942 3424 5011 2707 5901 2323 
C 5952 2451 6054 2534 6182 2541 
L 6195 2611 
C 5312 2906 4179 3533 3578 4186 
L 5850 4186 
z
" transform="scale(0.015625)"/>
       <path id="NotoSerifCJKjp-ExtraLight-99a8" d="M 4998 3763 
C 4845 3571 4646 3411 4403 3277 
C 4192 3411 4019 3571 3878 3763 
L 4998 3763 
z
M 3174 2720 
C 3635 2784 4038 2880 4384 3027 
C 4762 2771 5235 2598 5830 2483 
C 5862 2605 5946 2682 6067 2701 
L 6074 2765 
C 5510 2835 5030 2957 4640 3149 
C 4934 3302 5178 3507 5357 3750 
C 5510 3757 5581 3770 5632 3821 
L 5280 4141 
L 5062 3955 
L 3392 3955 
L 3450 3763 
L 3706 3763 
C 3840 3526 4006 3334 4198 3168 
C 3891 3021 3526 2906 3130 2829 
L 3174 2720 
z
M 3219 3936 
C 3878 4186 3949 4589 3949 4883 
L 3949 4902 
L 4787 4902 
L 4787 4416 
C 4787 4230 4838 4154 5101 4154 
L 5389 4154 
C 5882 4154 5984 4198 5984 4320 
C 5984 4390 5952 4410 5850 4442 
L 5830 4691 
L 5760 4691 
C 5728 4576 5690 4467 5664 4435 
C 5645 4410 5626 4410 5594 4410 
C 5562 4403 5485 4410 5395 4410 
L 5171 4410 
C 5082 4410 5069 4416 5069 4467 
L 5069 4858 
C 5171 4870 5242 4896 5280 4934 
L 4909 5274 
L 4736 5094 
L 4013 5094 
L 3661 5274 
L 3661 4877 
C 3661 4589 3610 4301 3155 4038 
L 3219 3936 
z
M 403 4749 
L 1658 4749 
L 1658 4371 
L 557 4371 
L 608 4179 
L 2995 4179 
C 3078 4179 3136 4211 3155 4282 
C 2995 4435 2758 4614 2758 4614 
L 2547 4371 
L 1939 4371 
L 1939 4749 
L 3110 4749 
C 3194 4749 3245 4781 3264 4851 
C 3110 4998 2854 5197 2854 5197 
L 2637 4934 
L 1939 4934 
L 1939 5133 
C 2080 5158 2138 5216 2150 5293 
L 1658 5350 
L 1658 4934 
L 352 4934 
L 403 4749 
z
M 1658 3654 
L 1658 3168 
L 1011 3168 
C 1024 3290 1030 3405 1030 3507 
L 1030 3654 
L 1658 3654 
z
M 2630 3654 
L 2630 3168 
L 1939 3168 
L 1939 3654 
L 2630 3654 
z
M 2630 2976 
L 2630 2733 
L 2669 2733 
C 2765 2733 2906 2803 2912 2842 
L 2912 3629 
C 3008 3642 3098 3693 3130 3731 
L 2752 4026 
L 2579 3846 
L 1094 3846 
L 755 4026 
L 755 3507 
C 755 3072 717 2598 288 2182 
L 365 2080 
C 742 2336 909 2669 979 2976 
L 2630 2976 
z
M 1792 -26 
L 1792 326 
L 4589 326 
L 4589 -26 
L 1792 -26 
z
M 3053 1728 
L 3053 1216 
L 3091 1216 
C 3226 1216 3322 1267 3322 1280 
L 3322 1728 
L 3386 1728 
C 3699 1491 4115 1280 4570 1107 
L 4538 1075 
L 1869 1075 
L 1811 1101 
C 2246 1274 2650 1485 2982 1728 
L 3053 1728 
z
M 1792 883 
L 4589 883 
L 4589 518 
L 1792 518 
L 1792 883 
z
M 5786 1728 
C 5875 1728 5933 1760 5952 1830 
C 5766 2003 5478 2234 5478 2234 
L 5222 1920 
L 3322 1920 
L 3322 2323 
C 3821 2362 4282 2413 4672 2464 
C 4794 2406 4890 2400 4941 2445 
L 4646 2752 
C 3821 2573 2298 2394 1056 2349 
L 1082 2214 
C 1734 2214 2413 2246 3053 2298 
L 3053 1920 
L 518 1920 
L 576 1728 
L 2483 1728 
C 1894 1344 1094 1005 282 774 
L 339 659 
C 742 742 1139 858 1517 986 
L 1517 -461 
L 1549 -461 
C 1690 -461 1792 -378 1792 -352 
L 1792 -211 
L 4589 -211 
L 4589 -442 
L 4627 -442 
C 4723 -442 4870 -365 4877 -326 
L 4877 858 
C 4947 870 5018 896 5062 934 
C 5325 851 5594 781 5850 723 
C 5888 858 5997 941 6125 954 
L 6125 1024 
C 5312 1133 4307 1389 3667 1728 
L 5786 1728 
z
" transform="scale(0.015625)"/>
      </defs>
      <use xlink:href="#NotoSerifCJKjp-ExtraLight-674e"/>
      <use xlink:href="#NotoSerifCJKjp-ExtraLight-99a8" x="99.999985"/>
     </g>
    </g>
    <g clip-path="url(#pe98acc64ca)">
     <!--   -->
     <g transform="translate(2055.596486 555.96) scale(0.12 -0.12)">
      <use xlink:href="#NotoSerifCJKjp-ExtraLight-20"/>
     </g>
    </g>
   </g>
  </g>
 </g>
 <defs>
  <clipPath id="pe98acc64ca">
   <rect x="360" y="129.6" width="2232" height="831.6"/>
  </clipPath>
 </defs>
</svg>
