<?xml version="1.0" encoding="utf-8" standalone="no"?>
<!DOCTYPE svg PUBLIC "-//W3C//DTD SVG 1.1//EN"
  "http://www.w3.org/Graphics/SVG/1.1/DTD/svg11.dtd">
<svg xmlns:xlink="http://www.w3.org/1999/xlink" width="2880pt" height="1080pt" viewBox="0 0 2880 1080" xmlns="http://www.w3.org/2000/svg" version="1.1">
 <metadata>
  <rdf:RDF xmlns:dc="http://purl.org/dc/elements/1.1/" xmlns:cc="http://creativecommons.org/ns#" xmlns:rdf="http://www.w3.org/1999/02/22-rdf-syntax-ns#">
   <cc:Work>
    <dc:type rdf:resource="http://purl.org/dc/dcmitype/StillImage"/>
    <dc:date>2025-06-20T00:27:02.740715</dc:date>
    <dc:format>image/svg+xml</dc:format>
    <dc:creator>
     <cc:Agent>
      <dc:title>Matplotlib v3.9.4, https://matplotlib.org/</dc:title>
     </cc:Agent>
    </dc:creator>
   </cc:Work>
  </rdf:RDF>
 </metadata>
 <defs>
  <style type="text/css">*{stroke-linejoin: round; stroke-linecap: butt}</style>
 </defs>
 <g id="figure_1">
  <g id="patch_1">
   <path d="M 0 1080 
L 2880 1080 
L 2880 0 
L 0 0 
z
" style="fill: #ffffff"/>
  </g>
  <g id="axes_1">
   <g id="patch_2">
    <path d="M 751.843339 551.052003 
Q 582.311479 698.149491 480.556837 895.699323 
" clip-path="url(#pb0f17571ae)" style="fill: none; stroke: #000000; stroke-width: 2; stroke-linecap: round"/>
    <path d="M 484.16647 893.059143 
L 480.556837 895.699323 
L 480.610474 891.227508 
z
" clip-path="url(#pb0f17571ae)" style="stroke: #000000; stroke-width: 2; stroke-linecap: round"/>
   </g>
   <g id="patch_3">
    <path d="M 756.74463 553.900671 
Q 724.064391 725.401139 756.326497 894.705064 
" clip-path="url(#pb0f17571ae)" style="fill: none; stroke: #000000; stroke-width: 2; stroke-linecap: round"/>
    <path d="M 757.542388 890.40139 
L 756.326497 894.705064 
L 753.613093 891.150146 
z
" clip-path="url(#pb0f17571ae)" style="stroke: #000000; stroke-width: 2; stroke-linecap: round"/>
   </g>
   <g id="patch_4">
    <path d="M 762.342336 553.112825 
Q 865.115562 752.649485 1032.953185 898.282527 
" clip-path="url(#pb0f17571ae)" style="fill: none; stroke: #000000; stroke-width: 2; stroke-linecap: round"/>
    <path d="M 1031.242732 894.150415 
L 1032.953185 898.282527 
L 1028.621224 897.171622 
z
" clip-path="url(#pb0f17571ae)" style="stroke: #000000; stroke-width: 2; stroke-linecap: round"/>
   </g>
   <g id="patch_5">
    <path d="M 1739.866258 187.756958 
Q 1359.463402 296.198404 1049.770539 538.669551 
" clip-path="url(#pb0f17571ae)" style="fill: none; stroke: #000000; stroke-width: 2; stroke-linecap: round"/>
    <path d="M 1054.152992 537.778426 
L 1049.770539 538.669551 
L 1051.687111 534.628914 
z
" clip-path="url(#pb0f17571ae)" style="stroke: #000000; stroke-width: 2; stroke-linecap: round"/>
   </g>
   <g id="patch_6">
    <path d="M 1740.641 189.620488 
Q 1501.184721 324.254627 1330.796111 536.880493 
" clip-path="url(#pb0f17571ae)" style="fill: none; stroke: #000000; stroke-width: 2; stroke-linecap: round"/>
    <path d="M 1334.858174 535.009759 
L 1330.796111 536.880493 
L 1331.736762 532.508403 
z
" clip-path="url(#pb0f17571ae)" style="stroke: #000000; stroke-width: 2; stroke-linecap: round"/>
   </g>
   <g id="patch_7">
    <path d="M 1743.543591 192.704967 
Q 1643.046964 351.868941 1608.771976 534.683547 
" clip-path="url(#pb0f17571ae)" style="fill: none; stroke: #000000; stroke-width: 2; stroke-linecap: round"/>
    <path d="M 1611.474823 531.120596 
L 1608.771976 534.683547 
L 1607.543323 530.383499 
z
" clip-path="url(#pb0f17571ae)" style="stroke: #000000; stroke-width: 2; stroke-linecap: round"/>
   </g>
   <g id="patch_8">
    <path d="M 1749.759583 193.920839 
Q 1784.447006 378.93307 1883.750206 536.206175 
" clip-path="url(#pb0f17571ae)" style="fill: none; stroke: #000000; stroke-width: 2; stroke-linecap: round"/>
    <path d="M 1883.305762 531.756178 
L 1883.750206 536.206175 
L 1879.923542 533.891732 
z
" clip-path="url(#pb0f17571ae)" style="stroke: #000000; stroke-width: 2; stroke-linecap: round"/>
   </g>
   <g id="patch_9">
    <path d="M 1753.592961 192.171334 
Q 1925.379359 406.542727 2162.886017 540.081579 
" clip-path="url(#pb0f17571ae)" style="fill: none; stroke: #000000; stroke-width: 2; stroke-linecap: round"/>
    <path d="M 2160.379543 536.377853 
L 2162.886017 540.081579 
L 2158.419152 539.864523 
z
" clip-path="url(#pb0f17571ae)" style="stroke: #000000; stroke-width: 2; stroke-linecap: round"/>
   </g>
   <g id="patch_10">
    <path d="M 1755.007086 190.752698 
Q 2066.460681 434.602115 2444.713241 542.430349 
" clip-path="url(#pb0f17571ae)" style="fill: none; stroke: #000000; stroke-width: 2; stroke-linecap: round"/>
    <path d="M 2441.414786 539.410383 
L 2444.713241 542.430349 
L 2440.318195 543.257133 
z
" clip-path="url(#pb0f17571ae)" style="stroke: #000000; stroke-width: 2; stroke-linecap: round"/>
   </g>
   <g id="patch_11">
    <path d="M 756.74463 193.900671 
Q 724.064391 365.401139 756.326497 534.705064 
" clip-path="url(#pb0f17571ae)" style="fill: none; stroke: #000000; stroke-width: 2; stroke-linecap: round"/>
    <path d="M 757.542388 530.40139 
L 756.326497 534.705064 
L 753.613093 531.150146 
z
" clip-path="url(#pb0f17571ae)" style="stroke: #000000; stroke-width: 2; stroke-linecap: round"/>
   </g>
   <g id="text_1">
    <g id="patch_12">
     <path d="M 622.856583 734.067523 
L 626.807527 729.038203 
Q 629.031454 726.207275 626.200526 723.983349 
L 616.197915 716.125476 
Q 613.366987 713.901549 611.143061 716.732477 
L 607.192117 721.761797 
Q 604.96819 724.592725 607.799118 726.816651 
L 617.801729 734.674524 
Q 620.632657 736.898451 622.856583 734.067523 
z
" clip-path="url(#pb0f17571ae)" style="fill: #ffffff; stroke: #ffffff; stroke-linejoin: miter"/>
    </g>
    <g clip-path="url(#pb0f17571ae)">
     <!-- 3 -->
     <g transform="translate(617.572185 729.916194) rotate(-51.847453) scale(0.12 -0.12)">
      <defs>
       <path id="NotoSerifCJKjp-ExtraLight-33" d="M 1062 4435 
C 1242 4499 1408 4525 1594 4525 
C 2176 4525 2496 4166 2496 3584 
C 2496 2918 2035 2541 1402 2541 
L 1126 2541 
L 1126 2330 
L 1434 2330 
C 2234 2330 2637 1920 2637 1229 
C 2637 557 2221 102 1498 102 
C 1286 102 1107 141 941 211 
L 787 659 
C 730 845 659 928 531 928 
C 422 928 339 864 301 755 
C 461 186 928 -90 1587 -90 
C 2426 -90 3040 410 3040 1203 
C 3040 1869 2656 2330 1901 2445 
C 2541 2605 2899 3059 2899 3597 
C 2899 4262 2426 4717 1664 4717 
C 1107 4717 570 4480 429 3885 
C 461 3776 544 3731 640 3731 
C 774 3731 845 3795 909 3981 
L 1062 4435 
z
" transform="scale(0.015625)"/>
      </defs>
      <use xlink:href="#NotoSerifCJKjp-ExtraLight-33"/>
     </g>
    </g>
   </g>
   <g id="text_2">
    <g id="patch_13">
     <path d="M 748.444619 722.202188 
L 748.444619 728.597813 
Q 748.444619 732.197813 752.044619 732.197813 
L 764.764619 732.197813 
Q 768.364619 732.197813 768.364619 728.597813 
L 768.364619 722.202188 
Q 768.364619 718.602188 764.764619 718.602188 
L 752.044619 718.602188 
Q 748.444619 718.602188 748.444619 722.202188 
z
" clip-path="url(#pb0f17571ae)" style="fill: #ffffff; stroke: #ffffff; stroke-linejoin: miter"/>
    </g>
    <g clip-path="url(#pb0f17571ae)">
     <!-- 2 -->
     <g transform="translate(755.164619 722.202188) rotate(-270) scale(0.12 -0.12)">
      <defs>
       <path id="NotoSerifCJKjp-ExtraLight-32" d="M 646 358 
C 1069 838 1472 1299 1645 1491 
C 2560 2515 2886 2970 2886 3520 
C 2886 4250 2458 4717 1638 4717 
C 1024 4717 486 4397 326 3821 
C 371 3725 454 3667 550 3667 
C 672 3667 755 3750 819 3949 
L 1005 4422 
C 1197 4499 1363 4525 1542 4525 
C 2144 4525 2483 4096 2483 3514 
C 2483 2995 2214 2547 1536 1715 
C 1222 1344 787 806 339 275 
L 339 0 
L 3104 0 
L 3104 358 
L 646 358 
z
" transform="scale(0.015625)"/>
      </defs>
      <use xlink:href="#NotoSerifCJKjp-ExtraLight-32"/>
     </g>
    </g>
   </g>
   <g id="text_3">
    <g id="patch_14">
     <path d="M 889.996096 729.038016 
L 893.946945 734.067411 
Q 896.170817 736.898381 899.001787 734.674509 
L 909.004548 726.816826 
Q 911.835518 724.592954 909.611646 721.761984 
L 905.660797 716.732589 
Q 903.436925 713.901619 900.605955 716.125491 
L 890.603194 723.983174 
Q 887.772224 726.207046 889.996096 729.038016 
z
" clip-path="url(#pb0f17571ae)" style="fill: #ffffff; stroke: #ffffff; stroke-linejoin: miter"/>
    </g>
    <g clip-path="url(#pb0f17571ae)">
     <!-- 1 -->
     <g transform="translate(895.280574 724.886788) rotate(-308.151456) scale(0.12 -0.12)">
      <defs>
       <path id="NotoSerifCJKjp-ExtraLight-31" d="M 1997 250 
C 1990 659 1984 1062 1984 1459 
L 1984 3616 
L 2010 4614 
L 1914 4691 
L 614 4346 
L 614 4160 
L 1600 4333 
L 1600 1459 
C 1600 1062 1594 653 1587 250 
L 544 173 
L 544 0 
L 3002 0 
L 3002 173 
L 1997 250 
z
" transform="scale(0.015625)"/>
      </defs>
      <use xlink:href="#NotoSerifCJKjp-ExtraLight-31"/>
     </g>
    </g>
   </g>
   <g id="text_4">
    <g id="patch_15">
     <path d="M 1396.371029 375.726638 
L 1402.070331 372.824574 
Q 1405.278381 371.191046 1403.644853 367.982995 
L 1397.873054 356.647884 
Q 1396.239527 353.439834 1393.031476 355.073362 
L 1387.332174 357.975426 
Q 1384.124124 359.608954 1385.757652 362.817005 
L 1391.529451 374.152116 
Q 1393.162978 377.360166 1396.371029 375.726638 
z
" clip-path="url(#pb0f17571ae)" style="fill: #ffffff; stroke: #ffffff; stroke-linejoin: miter"/>
    </g>
    <g clip-path="url(#pb0f17571ae)">
     <!-- 7 -->
     <g transform="translate(1393.321777 369.738277) rotate(-26.985034) scale(0.12 -0.12)">
      <defs>
       <path id="NotoSerifCJKjp-ExtraLight-37" d="M 333 4627 
L 333 4275 
L 2758 4275 
L 941 38 
L 992 0 
L 1350 0 
L 3027 4397 
L 3027 4627 
L 333 4627 
z
" transform="scale(0.015625)"/>
      </defs>
      <use xlink:href="#NotoSerifCJKjp-ExtraLight-37"/>
     </g>
    </g>
   </g>
   <g id="text_5">
    <g id="patch_16">
     <path d="M 1540.107027 375.063094 
L 1544.983326 370.92477 
Q 1547.728121 368.59537 1545.398721 365.850576 
L 1537.168176 356.152301 
Q 1534.838777 353.407507 1532.093982 355.736906 
L 1527.217683 359.87523 
Q 1524.472888 362.20463 1526.802288 364.949424 
L 1535.032833 374.647699 
Q 1537.362232 377.392493 1540.107027 375.063094 
z
" clip-path="url(#pb0f17571ae)" style="fill: #ffffff; stroke: #ffffff; stroke-linejoin: miter"/>
    </g>
    <g clip-path="url(#pb0f17571ae)">
     <!-- 5 -->
     <g transform="translate(1535.758814 369.939477) rotate(-40.31996) scale(0.12 -0.12)">
      <defs>
       <path id="NotoSerifCJKjp-ExtraLight-35" d="M 947 4275 
L 2950 4275 
L 2950 4627 
L 755 4627 
L 614 2483 
L 755 2464 
C 992 2573 1248 2624 1536 2624 
C 2208 2624 2662 2214 2662 1395 
C 2662 602 2227 102 1459 102 
C 1235 102 1062 134 896 205 
L 736 659 
C 678 851 614 922 480 922 
C 378 922 294 858 262 762 
C 397 198 858 -90 1498 -90 
C 2470 -90 3066 550 3066 1446 
C 3066 2323 2496 2854 1626 2854 
C 1344 2854 1094 2810 845 2707 
L 947 4275 
z
" transform="scale(0.015625)"/>
      </defs>
      <use xlink:href="#NotoSerifCJKjp-ExtraLight-35"/>
     </g>
    </g>
   </g>
   <g id="text_6">
    <g id="patch_17">
     <path d="M 1684.432143 374.994146 
L 1689.108454 363.088341 
Q 1690.424566 359.737543 1687.073767 358.421431 
L 1675.23428 353.771168 
Q 1671.883482 352.455056 1670.56737 355.805854 
L 1665.891059 367.711659 
Q 1664.574947 371.062457 1667.925745 372.378569 
L 1679.765232 377.028832 
Q 1683.11603 378.344944 1684.432143 374.994146 
z
" clip-path="url(#pb0f17571ae)" style="fill: #ffffff; stroke: #ffffff; stroke-linejoin: miter"/>
    </g>
    <g clip-path="url(#pb0f17571ae)">
     <!-- 10 -->
     <g transform="translate(1678.177319 372.537403) rotate(-68.556306) scale(0.12 -0.12)">
      <defs>
       <path id="NotoSerifCJKjp-ExtraLight-30" d="M 736 2330 
C 736 3981 1222 4525 1715 4525 
C 2189 4525 2675 3981 2675 2330 
C 2675 646 2189 102 1715 102 
C 1222 102 736 646 736 2330 
z
M 1715 4717 
C 998 4717 333 4038 333 2330 
C 333 589 998 -90 1715 -90 
C 2419 -90 3085 589 3085 2330 
C 3085 4038 2419 4717 1715 4717 
z
" transform="scale(0.015625)"/>
      </defs>
      <use xlink:href="#NotoSerifCJKjp-ExtraLight-31"/>
      <use xlink:href="#NotoSerifCJKjp-ExtraLight-30" x="53.299988"/>
     </g>
    </g>
   </g>
   <g id="text_7">
    <g id="patch_18">
     <path d="M 1808.459389 366.064792 
L 1810.797544 372.017695 
Q 1812.113656 375.368493 1815.464454 374.052381 
L 1827.303942 369.402118 
Q 1830.65474 368.086006 1829.338628 364.735208 
L 1827.000472 358.782305 
Q 1825.68436 355.431507 1822.333562 356.747619 
L 1810.494075 361.397882 
Q 1807.143276 362.713994 1808.459389 366.064792 
z
" clip-path="url(#pb0f17571ae)" style="fill: #ffffff; stroke: #ffffff; stroke-linejoin: miter"/>
    </g>
    <g clip-path="url(#pb0f17571ae)">
     <!-- 6 -->
     <g transform="translate(1814.714212 363.60805) rotate(-291.443694) scale(0.12 -0.12)">
      <defs>
       <path id="NotoSerifCJKjp-ExtraLight-36" d="M 1754 102 
C 1094 102 730 794 730 1856 
C 730 1926 730 1997 736 2061 
C 1069 2426 1402 2560 1766 2560 
C 2330 2560 2688 2150 2688 1357 
C 2688 557 2285 102 1754 102 
z
M 2963 4717 
C 1306 4512 326 3238 326 1811 
C 326 653 851 -90 1741 -90 
C 2515 -90 3091 499 3091 1408 
C 3091 2266 2611 2803 1862 2803 
C 1440 2803 1069 2630 755 2272 
C 896 3437 1645 4314 2995 4582 
L 2963 4717 
z
" transform="scale(0.015625)"/>
      </defs>
      <use xlink:href="#NotoSerifCJKjp-ExtraLight-36"/>
     </g>
    </g>
   </g>
   <g id="text_8">
    <g id="patch_19">
     <path d="M 1951.415438 370.92477 
L 1956.291738 375.063094 
Q 1959.036532 377.392493 1961.365932 374.647699 
L 1969.596477 364.949424 
Q 1971.925876 362.20463 1969.181082 359.87523 
L 1964.304782 355.736906 
Q 1961.559988 353.407507 1959.230588 356.152301 
L 1951.000043 365.850576 
Q 1948.670644 368.59537 1951.415438 370.92477 
z
" clip-path="url(#pb0f17571ae)" style="fill: #ffffff; stroke: #ffffff; stroke-linejoin: miter"/>
    </g>
    <g clip-path="url(#pb0f17571ae)">
     <!-- 8 -->
     <g transform="translate(1955.763651 365.801153) rotate(-319.68004) scale(0.12 -0.12)">
      <defs>
       <path id="NotoSerifCJKjp-ExtraLight-38" d="M 1702 102 
C 1075 102 698 480 698 1069 
C 698 1574 960 1907 1568 2246 
C 2426 1856 2714 1491 2714 1024 
C 2714 467 2323 102 1702 102 
z
M 838 3686 
C 838 4205 1248 4525 1709 4525 
C 2253 4525 2541 4128 2541 3667 
C 2541 3168 2323 2829 1792 2515 
C 1056 2854 838 3245 838 3686 
z
M 1952 2445 
C 2643 2784 2874 3232 2874 3661 
C 2874 4288 2426 4717 1715 4717 
C 1030 4717 486 4288 486 3616 
C 486 3085 742 2637 1408 2317 
C 704 1984 339 1600 339 1030 
C 339 352 832 -90 1690 -90 
C 2509 -90 3078 371 3078 1088 
C 3078 1677 2765 2080 1952 2445 
z
" transform="scale(0.015625)"/>
      </defs>
      <use xlink:href="#NotoSerifCJKjp-ExtraLight-38"/>
     </g>
    </g>
   </g>
   <g id="text_9">
    <g id="patch_20">
     <path d="M 2094.328434 372.824574 
L 2100.027736 375.726638 
Q 2103.235786 377.360166 2104.869314 374.152116 
L 2110.641112 362.817005 
Q 2112.27464 359.608954 2109.06659 357.975426 
L 2103.367288 355.073362 
Q 2100.159238 353.439834 2098.52571 356.647884 
L 2092.753911 367.982995 
Q 2091.120384 371.191046 2094.328434 372.824574 
z
" clip-path="url(#pb0f17571ae)" style="fill: #ffffff; stroke: #ffffff; stroke-linejoin: miter"/>
    </g>
    <g clip-path="url(#pb0f17571ae)">
     <!-- 9 -->
     <g transform="translate(2097.377686 366.836213) rotate(-333.014966) scale(0.12 -0.12)">
      <defs>
       <path id="NotoSerifCJKjp-ExtraLight-39" d="M 1734 2112 
C 1126 2112 685 2554 685 3302 
C 685 4090 1114 4525 1638 4525 
C 2202 4525 2637 3949 2637 2867 
C 2637 2752 2630 2637 2618 2528 
C 2374 2253 2067 2112 1734 2112 
z
M 602 -102 
C 2234 358 3040 1530 3040 2886 
C 3040 4026 2483 4717 1651 4717 
C 864 4717 288 4154 282 3283 
C 275 2419 845 1875 1613 1875 
C 2016 1875 2349 2029 2592 2298 
C 2413 1286 1747 480 544 58 
L 602 -102 
z
" transform="scale(0.015625)"/>
      </defs>
      <use xlink:href="#NotoSerifCJKjp-ExtraLight-39"/>
     </g>
    </g>
   </g>
   <g id="text_10">
    <g id="patch_21">
     <path d="M 748.444619 362.202187 
L 748.444619 368.597812 
Q 748.444619 372.197812 752.044619 372.197812 
L 764.764619 372.197812 
Q 768.364619 372.197812 768.364619 368.597812 
L 768.364619 362.202187 
Q 768.364619 358.602187 764.764619 358.602187 
L 752.044619 358.602187 
Q 748.444619 358.602187 748.444619 362.202187 
z
" clip-path="url(#pb0f17571ae)" style="fill: #ffffff; stroke: #ffffff; stroke-linejoin: miter"/>
    </g>
    <g clip-path="url(#pb0f17571ae)">
     <!-- 2 -->
     <g transform="translate(755.164619 362.202187) rotate(-270) scale(0.12 -0.12)">
      <use xlink:href="#NotoSerifCJKjp-ExtraLight-32"/>
     </g>
    </g>
   </g>
   <g id="matplotlib.axis_1">
    <g id="xtick_1"/>
    <g id="xtick_2"/>
    <g id="xtick_3"/>
    <g id="xtick_4"/>
    <g id="xtick_5"/>
    <g id="xtick_6"/>
    <g id="xtick_7"/>
    <g id="xtick_8"/>
   </g>
   <g id="matplotlib.axis_2">
    <g id="ytick_1"/>
    <g id="ytick_2"/>
    <g id="ytick_3"/>
    <g id="ytick_4"/>
    <g id="ytick_5"/>
    <g id="ytick_6"/>
    <g id="ytick_7"/>
    <g id="ytick_8"/>
   </g>
   <g id="PathCollection_1">
    <defs>
     <path id="m0802ba6e79" d="M 0 15 
C 3.978047 15 7.793698 13.419505 10.606602 10.606602 
C 13.419505 7.793698 15 3.978047 15 0 
C 15 -3.978047 13.419505 -7.793698 10.606602 -10.606602 
C 7.793698 -13.419505 3.978047 -15 0 -15 
C -3.978047 -15 -7.793698 -13.419505 -10.606602 -10.606602 
C -13.419505 -7.793698 -15 -3.978047 -15 0 
C -15 3.978047 -13.419505 7.793698 -10.606602 10.606602 
C -7.793698 13.419505 -3.978047 15 0 15 
z
" style="stroke: #add8e6; stroke-opacity: 0.85"/>
    </defs>
    <g clip-path="url(#pb0f17571ae)">
     <use xlink:href="#m0802ba6e79" x="758.404619" y="545.4" style="fill: #add8e6; fill-opacity: 0.85; stroke: #add8e6; stroke-opacity: 0.85"/>
     <use xlink:href="#m0802ba6e79" x="475.595025" y="905.4" style="fill: #add8e6; fill-opacity: 0.85; stroke: #add8e6; stroke-opacity: 0.85"/>
     <use xlink:href="#m0802ba6e79" x="758.404619" y="905.4" style="fill: #add8e6; fill-opacity: 0.85; stroke: #add8e6; stroke-opacity: 0.85"/>
     <use xlink:href="#m0802ba6e79" x="1041.203123" y="905.4" style="fill: #add8e6; fill-opacity: 0.85; stroke: #add8e6; stroke-opacity: 0.85"/>
     <use xlink:href="#m0802ba6e79" x="1748.199382" y="185.4" style="fill: #add8e6; fill-opacity: 0.85; stroke: #add8e6; stroke-opacity: 0.85"/>
     <use xlink:href="#m0802ba6e79" x="1041.203123" y="545.4" style="fill: #add8e6; fill-opacity: 0.85; stroke: #add8e6; stroke-opacity: 0.85"/>
     <use xlink:href="#m0802ba6e79" x="1324.001627" y="545.4" style="fill: #add8e6; fill-opacity: 0.85; stroke: #add8e6; stroke-opacity: 0.85"/>
     <use xlink:href="#m0802ba6e79" x="1606.80013" y="545.4" style="fill: #add8e6; fill-opacity: 0.85; stroke: #add8e6; stroke-opacity: 0.85"/>
     <use xlink:href="#m0802ba6e79" x="1889.598634" y="545.4" style="fill: #add8e6; fill-opacity: 0.85; stroke: #add8e6; stroke-opacity: 0.85"/>
     <use xlink:href="#m0802ba6e79" x="2172.397138" y="545.4" style="fill: #add8e6; fill-opacity: 0.85; stroke: #add8e6; stroke-opacity: 0.85"/>
     <use xlink:href="#m0802ba6e79" x="2455.195642" y="545.4" style="fill: #add8e6; fill-opacity: 0.85; stroke: #add8e6; stroke-opacity: 0.85"/>
     <use xlink:href="#m0802ba6e79" x="758.404619" y="185.4" style="fill: #add8e6; fill-opacity: 0.85; stroke: #add8e6; stroke-opacity: 0.85"/>
    </g>
   </g>
   <g id="text_11">
    <g clip-path="url(#pb0f17571ae)">
     <!-- 金叔良 -->
     <g transform="translate(740.404619 541.32) scale(0.12 -0.12)">
      <defs>
       <path id="NotoSerifCJKjp-ExtraLight-91d1" d="M 5242 -102 
L 3322 -102 
L 3322 1818 
L 5606 1818 
C 5696 1818 5747 1850 5766 1920 
C 5574 2093 5274 2323 5274 2323 
L 4998 2003 
L 3322 2003 
L 3322 3053 
L 4570 3053 
C 4659 3053 4717 3085 4736 3155 
C 4544 3322 4256 3533 4256 3533 
L 4006 3238 
L 1568 3238 
L 1619 3053 
L 3040 3053 
L 3040 2003 
L 678 2003 
L 736 1818 
L 3040 1818 
L 3040 -102 
L 384 -102 
L 442 -288 
L 5856 -288 
C 5946 -288 6010 -256 6029 -186 
C 5824 -6 5510 243 5510 243 
L 5242 -102 
z
M 1427 1510 
C 1683 1178 1990 634 2029 224 
C 2355 -70 2643 749 1517 1549 
L 1427 1510 
z
M 3955 96 
C 4243 390 4576 845 4845 1274 
C 4966 1254 5043 1306 5075 1370 
L 4595 1581 
C 4378 1069 4083 506 3853 160 
L 3955 96 
z
M 3021 5389 
C 2643 4499 1280 3258 218 2701 
L 262 2598 
C 1434 3162 2656 4198 3258 5062 
C 3757 4205 4781 3334 5850 2810 
C 5888 2912 6016 2989 6150 3002 
L 6163 3098 
C 4992 3603 3962 4358 3386 5146 
C 3526 5152 3610 5184 3616 5254 
L 3021 5389 
z
" transform="scale(0.015625)"/>
       <path id="NotoSerifCJKjp-ExtraLight-53d4" d="M 326 2893 
L 3514 2893 
C 3603 2893 3654 2925 3674 2995 
C 3494 3174 3200 3398 3200 3398 
L 2944 3085 
L 2016 3085 
L 2016 4090 
L 3117 4090 
C 3200 4090 3258 4122 3277 4192 
C 3104 4365 2816 4582 2816 4582 
L 2579 4282 
L 2016 4282 
L 2016 5094 
C 2170 5120 2240 5184 2253 5274 
L 1734 5331 
L 1734 3085 
L 275 3085 
L 326 2893 
z
M 902 2253 
C 762 1600 512 960 250 538 
L 346 474 
C 691 832 998 1395 1197 1965 
C 1331 1965 1402 2022 1427 2099 
L 902 2253 
z
M 1734 70 
C 1734 -26 1702 -64 1594 -64 
C 1485 -64 915 -19 915 -19 
L 915 -122 
C 1152 -154 1306 -186 1389 -237 
C 1466 -294 1498 -378 1510 -467 
C 1965 -416 2016 -237 2016 38 
L 2016 2637 
C 2163 2662 2227 2714 2246 2797 
L 1734 2861 
L 1734 70 
z
M 2490 2150 
C 2752 1811 3053 1242 3085 819 
C 3418 518 3712 1363 2579 2195 
L 2490 2150 
z
M 5472 4486 
C 5318 3475 5043 2502 4576 1651 
C 4186 2458 3942 3418 3834 4486 
L 5472 4486 
z
M 5651 4896 
L 5440 4678 
L 3290 4678 
L 3347 4486 
L 3667 4486 
C 3782 3302 4026 2253 4416 1389 
C 3987 698 3418 96 2669 -365 
L 2752 -461 
C 3533 -38 4115 493 4557 1107 
C 4896 448 5331 -90 5869 -486 
C 5914 -365 6035 -301 6157 -301 
L 6170 -243 
C 5574 154 5094 698 4723 1357 
C 5312 2278 5606 3347 5792 4448 
C 5926 4454 5990 4467 6042 4525 
L 5651 4896 
z
" transform="scale(0.015625)"/>
       <path id="NotoSerifCJKjp-ExtraLight-826f" d="M 1741 3187 
L 4749 3187 
L 4749 2272 
L 1741 2272 
L 1741 3187 
z
M 4749 4282 
L 4749 3373 
L 1741 3373 
L 1741 4282 
L 4749 4282 
z
M 5344 2042 
C 4998 1741 4339 1299 3808 998 
C 3507 1299 3270 1658 3104 2080 
L 4749 2080 
L 4749 1875 
L 4787 1875 
C 4877 1875 5024 1946 5030 1984 
L 5030 4218 
C 5158 4243 5267 4294 5306 4346 
L 4877 4678 
L 4685 4467 
L 3347 4467 
L 3347 5126 
C 3488 5152 3546 5210 3558 5293 
L 3066 5344 
L 3066 4467 
L 1818 4467 
L 1459 4640 
L 1459 109 
C 1056 32 723 -26 506 -58 
L 717 -493 
C 774 -474 832 -422 858 -346 
C 2029 -45 2906 224 3565 410 
L 3539 525 
C 2899 390 2272 262 1741 160 
L 1741 2080 
L 2957 2080 
C 3405 704 4358 -77 5843 -480 
C 5894 -326 6003 -230 6144 -218 
L 6157 -154 
C 5229 32 4467 378 3904 902 
C 4486 1146 5152 1485 5523 1722 
C 5658 1670 5715 1683 5760 1747 
L 5344 2042 
z
" transform="scale(0.015625)"/>
      </defs>
      <use xlink:href="#NotoSerifCJKjp-ExtraLight-91d1"/>
      <use xlink:href="#NotoSerifCJKjp-ExtraLight-53d4" x="99.999985"/>
      <use xlink:href="#NotoSerifCJKjp-ExtraLight-826f" x="199.999969"/>
     </g>
    </g>
    <g clip-path="url(#pb0f17571ae)">
     <!-- 副丞 -->
     <g transform="translate(746.404619 555.96) scale(0.12 -0.12)">
      <defs>
       <path id="NotoSerifCJKjp-ExtraLight-526f" d="M 2234 192 
L 2234 1069 
L 3373 1069 
L 3373 192 
L 2234 192 
z
M 819 1069 
L 1946 1069 
L 1946 192 
L 819 192 
L 819 1069 
z
M 1946 2093 
L 1946 1254 
L 819 1254 
L 819 2093 
L 1946 2093 
z
M 3373 2093 
L 3373 1254 
L 2234 1254 
L 2234 2093 
L 3373 2093 
z
M 3309 2285 
L 851 2285 
L 538 2445 
L 538 -480 
L 589 -480 
C 704 -480 819 -410 819 -378 
L 819 0 
L 3373 0 
L 3373 -371 
L 3411 -371 
C 3507 -371 3648 -288 3654 -250 
L 3654 2029 
C 3782 2054 3891 2106 3936 2157 
L 3501 2490 
L 3309 2285 
z
M 1158 3117 
L 1158 3955 
L 3034 3955 
L 3034 3117 
L 1158 3117 
z
M 3072 2682 
C 3168 2682 3309 2758 3315 2790 
L 3315 3891 
C 3437 3917 3552 3968 3597 4019 
L 3162 4346 
L 2970 4141 
L 1190 4141 
L 877 4301 
L 877 2630 
L 922 2630 
C 1037 2630 1158 2701 1158 2726 
L 1158 2925 
L 3034 2925 
L 3034 2682 
L 3072 2682 
z
M 3264 4870 
L 269 4870 
L 320 4678 
L 3846 4678 
C 3936 4678 3994 4710 4013 4781 
C 3821 4954 3526 5190 3526 5190 
L 3264 4870 
z
M 4371 4762 
L 4371 774 
L 4429 774 
C 4531 774 4653 845 4653 902 
L 4653 4525 
C 4813 4544 4870 4608 4883 4698 
L 4371 4762 
z
M 5523 5210 
L 5523 70 
C 5523 -32 5491 -70 5376 -70 
C 5261 -70 4666 -19 4666 -19 
L 4666 -128 
C 4915 -154 5075 -192 5158 -243 
C 5242 -301 5274 -384 5286 -474 
C 5754 -422 5805 -237 5805 38 
L 5805 4973 
C 5958 4992 6022 5056 6042 5146 
L 5523 5210 
z
" transform="scale(0.015625)"/>
       <path id="NotoSerifCJKjp-ExtraLight-4e1e" d="M 2285 3558 
L 2067 3354 
L 512 3354 
L 570 3168 
L 2080 3168 
C 1792 2202 1158 1235 250 634 
L 314 531 
C 1427 1152 2054 2144 2387 3142 
C 2534 3149 2598 3168 2650 3213 
L 2285 3558 
z
M 5005 -32 
L 659 -32 
L 710 -218 
L 5626 -218 
C 5715 -218 5766 -186 5786 -122 
C 5594 64 5280 307 5280 307 
L 5005 -32 
z
M 5389 4006 
C 5056 3603 4429 2989 3891 2566 
C 3654 2925 3469 3341 3341 3834 
C 3494 3859 3539 3910 3558 4000 
L 3546 4000 
C 4032 4198 4557 4506 4902 4730 
C 5043 4736 5126 4742 5178 4781 
L 4794 5152 
L 4563 4934 
L 1210 4934 
L 1267 4749 
L 4435 4749 
C 4154 4512 3757 4224 3379 4019 
L 3059 4058 
L 3059 787 
C 3059 678 3027 646 2886 646 
C 2746 646 2003 698 2003 698 
L 2003 595 
C 2317 563 2502 525 2605 474 
C 2701 422 2739 346 2758 262 
C 3283 320 3341 499 3341 768 
L 3341 3475 
C 3802 1888 4730 1133 5850 602 
C 5901 736 5997 819 6125 832 
L 6138 902 
C 5338 1210 4531 1664 3962 2464 
C 4557 2835 5216 3354 5581 3699 
C 5722 3654 5766 3674 5818 3738 
L 5389 4006 
z
" transform="scale(0.015625)"/>
      </defs>
      <use xlink:href="#NotoSerifCJKjp-ExtraLight-526f"/>
      <use xlink:href="#NotoSerifCJKjp-ExtraLight-4e1e" x="99.999985"/>
     </g>
    </g>
   </g>
   <g id="text_12">
    <g clip-path="url(#pb0f17571ae)">
     <!-- 金自中 -->
     <g transform="translate(457.595025 901.32) scale(0.12 -0.12)">
      <defs>
       <path id="NotoSerifCJKjp-ExtraLight-81ea" d="M 1619 147 
L 1619 1370 
L 4838 1370 
L 4838 147 
L 1619 147 
z
M 4838 2752 
L 4838 1555 
L 1619 1555 
L 1619 2752 
L 4838 2752 
z
M 4838 4102 
L 4838 2938 
L 1619 2938 
L 1619 4102 
L 4838 4102 
z
M 4960 4512 
L 4774 4294 
L 2906 4294 
C 3085 4550 3258 4845 3360 5082 
C 3494 5088 3571 5152 3590 5229 
L 3021 5331 
C 2957 5018 2848 4608 2733 4294 
L 1658 4294 
L 1344 4461 
L 1344 -461 
L 1402 -461 
C 1523 -461 1619 -384 1619 -346 
L 1619 -45 
L 4838 -45 
L 4838 -454 
L 4877 -454 
C 4973 -454 5114 -365 5120 -320 
L 5120 4038 
C 5248 4064 5357 4115 5395 4166 
L 4960 4512 
z
" transform="scale(0.015625)"/>
       <path id="NotoSerifCJKjp-ExtraLight-4e2d" d="M 3315 2144 
L 3315 3827 
L 5350 3827 
L 5350 2144 
L 3315 2144 
z
M 998 2144 
L 998 3827 
L 3034 3827 
L 3034 2144 
L 998 2144 
z
M 5478 4224 
L 5286 4019 
L 3315 4019 
L 3315 5094 
C 3475 5120 3520 5184 3539 5274 
L 3034 5338 
L 3034 4019 
L 1037 4019 
L 723 4186 
L 723 1357 
L 774 1357 
C 890 1357 998 1427 998 1459 
L 998 1952 
L 3034 1952 
L 3034 -474 
L 3091 -474 
C 3194 -474 3315 -397 3315 -346 
L 3315 1952 
L 5350 1952 
L 5350 1421 
L 5389 1421 
C 5485 1421 5626 1498 5632 1536 
L 5632 3763 
C 5760 3789 5862 3840 5907 3891 
L 5478 4224 
z
" transform="scale(0.015625)"/>
      </defs>
      <use xlink:href="#NotoSerifCJKjp-ExtraLight-91d1"/>
      <use xlink:href="#NotoSerifCJKjp-ExtraLight-81ea" x="99.999985"/>
      <use xlink:href="#NotoSerifCJKjp-ExtraLight-4e2d" x="199.999969"/>
     </g>
    </g>
    <g clip-path="url(#pb0f17571ae)">
     <!--  -->
     <g transform="translate(475.595025 915.96) scale(0.12 -0.12)"/>
    </g>
   </g>
   <g id="text_13">
    <g clip-path="url(#pb0f17571ae)">
     <!-- 金命中 -->
     <g transform="translate(740.404619 901.32) scale(0.12 -0.12)">
      <defs>
       <path id="NotoSerifCJKjp-ExtraLight-547d" d="M 1318 819 
L 1318 2342 
L 2566 2342 
L 2566 819 
L 1318 819 
z
M 2509 2528 
L 1350 2528 
L 1037 2688 
L 1037 -32 
L 1088 -32 
C 1203 -32 1318 38 1318 70 
L 1318 634 
L 2566 634 
L 2566 166 
L 2605 166 
C 2701 166 2842 250 2848 282 
L 2848 2298 
C 2957 2317 3059 2362 3098 2406 
L 2688 2726 
L 2509 2528 
z
M 3840 3488 
L 1824 3488 
L 1875 3296 
L 4397 3296 
C 4480 3296 4538 3328 4557 3398 
C 4378 3571 4090 3782 4090 3782 
L 3840 3488 
z
M 5120 2560 
L 3878 2560 
L 3565 2720 
L 3565 -461 
L 3616 -461 
C 3731 -461 3846 -384 3846 -352 
L 3846 2368 
L 5184 2368 
L 5184 595 
C 5184 506 5158 467 5050 467 
C 4922 467 4384 512 4384 512 
L 4384 403 
C 4621 378 4768 339 4851 294 
C 4915 250 4947 173 4960 96 
C 5414 141 5466 301 5466 557 
L 5466 2317 
C 5587 2336 5696 2387 5728 2432 
L 5286 2765 
L 5120 2560 
z
M 3059 5376 
C 2675 4544 1318 3418 230 2906 
L 269 2803 
C 1459 3302 2688 4256 3296 5062 
C 3808 4269 4838 3488 5907 3021 
C 5952 3123 6080 3194 6214 3206 
L 6227 3302 
C 5056 3744 4006 4422 3424 5139 
C 3571 5152 3642 5184 3654 5248 
L 3059 5376 
z
" transform="scale(0.015625)"/>
      </defs>
      <use xlink:href="#NotoSerifCJKjp-ExtraLight-91d1"/>
      <use xlink:href="#NotoSerifCJKjp-ExtraLight-547d" x="99.999985"/>
      <use xlink:href="#NotoSerifCJKjp-ExtraLight-4e2d" x="199.999969"/>
     </g>
    </g>
    <g clip-path="url(#pb0f17571ae)">
     <!-- 監正 -->
     <g transform="translate(746.404619 915.96) scale(0.12 -0.12)">
      <defs>
       <path id="NotoSerifCJKjp-ExtraLight-76e3" d="M 3238 2995 
C 3533 3264 3789 3635 4006 4032 
L 5933 4032 
C 6022 4032 6086 4058 6099 4128 
C 5914 4307 5619 4538 5619 4538 
L 5357 4218 
L 4102 4218 
C 4224 4480 4333 4749 4422 5018 
C 4544 5018 4621 5075 4640 5152 
L 4109 5293 
C 3930 4454 3565 3578 3142 3059 
L 3238 2995 
z
M 5286 2771 
L 3674 2771 
L 3725 2579 
L 5862 2579 
C 5952 2579 6010 2611 6029 2682 
C 5837 2854 5542 3091 5542 3091 
L 5286 2771 
z
M 1664 4762 
L 1664 4134 
L 883 4134 
L 883 4762 
L 1664 4762 
z
M 2688 3949 
L 2688 3270 
L 883 3270 
L 883 3949 
L 2688 3949 
z
M 1664 2349 
L 883 2349 
L 883 3085 
L 1664 3085 
L 1664 2349 
z
M 883 2163 
L 3085 2163 
C 3174 2163 3226 2195 3245 2266 
C 3066 2438 2778 2669 2778 2669 
L 2522 2349 
L 1946 2349 
L 1946 3085 
L 2688 3085 
L 2688 2912 
L 2726 2912 
C 2816 2912 2963 2989 2970 3027 
L 2970 3904 
C 3078 3923 3181 3974 3213 4019 
L 2803 4326 
L 2630 4134 
L 1946 4134 
L 1946 4762 
L 3040 4762 
C 3130 4762 3187 4794 3200 4864 
C 3021 5030 2739 5261 2739 5261 
L 2490 4947 
L 960 4947 
L 602 5120 
L 602 1811 
L 640 1811 
C 781 1811 883 1894 883 1920 
L 883 2163 
z
M 1440 1427 
L 2400 1427 
L 2400 -134 
L 1440 -134 
L 1440 1427 
z
M 3667 1427 
L 3667 -134 
L 2688 -134 
L 2688 1427 
L 3667 1427 
z
M 4934 1427 
L 4934 -134 
L 3955 -134 
L 3955 1427 
L 4934 1427 
z
M 5357 -134 
L 5222 -134 
L 5222 1382 
C 5376 1402 5466 1434 5510 1504 
L 5043 1856 
L 4864 1613 
L 1517 1613 
L 1152 1786 
L 1152 -134 
L 301 -134 
L 358 -320 
L 5958 -320 
C 6048 -320 6106 -288 6125 -218 
C 5933 -45 5626 198 5626 198 
L 5357 -134 
z
" transform="scale(0.015625)"/>
       <path id="NotoSerifCJKjp-ExtraLight-6b63" d="M 5325 19 
L 3373 19 
L 3373 2374 
L 5402 2374 
C 5491 2374 5555 2406 5574 2477 
C 5370 2662 5056 2906 5056 2906 
L 4781 2566 
L 3373 2566 
L 3373 4589 
L 5741 4589 
C 5830 4589 5888 4621 5907 4691 
C 5709 4877 5382 5126 5382 5126 
L 5101 4781 
L 518 4781 
L 576 4589 
L 3091 4589 
L 3091 19 
L 1594 19 
L 1594 2989 
C 1747 3014 1811 3078 1830 3168 
L 1312 3226 
L 1312 19 
L 294 19 
L 352 -173 
L 5965 -173 
C 6054 -173 6112 -141 6131 -70 
C 5926 122 5606 365 5606 365 
L 5325 19 
z
" transform="scale(0.015625)"/>
      </defs>
      <use xlink:href="#NotoSerifCJKjp-ExtraLight-76e3"/>
      <use xlink:href="#NotoSerifCJKjp-ExtraLight-6b63" x="99.999985"/>
     </g>
    </g>
   </g>
   <g id="text_14">
    <g clip-path="url(#pb0f17571ae)">
     <!-- 金性中 -->
     <g transform="translate(1023.203123 901.32) scale(0.12 -0.12)">
      <defs>
       <path id="NotoSerifCJKjp-ExtraLight-6027" d="M 781 4019 
C 781 3552 595 3027 410 2816 
C 314 2714 269 2579 346 2490 
C 442 2387 640 2477 736 2624 
C 890 2842 1030 3354 902 4013 
L 781 4019 
z
M 1274 5338 
L 1274 -474 
L 1331 -474 
C 1440 -474 1555 -397 1555 -339 
L 1555 5101 
C 1715 5126 1766 5190 1786 5280 
L 1274 5338 
z
M 1696 4192 
C 1869 3936 2048 3507 2061 3194 
C 2362 2906 2688 3597 1786 4230 
L 1696 4192 
z
M 5472 -45 
L 4250 -45 
L 4250 1818 
L 5664 1818 
C 5747 1818 5811 1850 5824 1920 
C 5645 2093 5338 2330 5338 2330 
L 5082 2003 
L 4250 2003 
L 4250 3552 
L 5850 3552 
C 5939 3552 5997 3584 6016 3648 
C 5824 3827 5530 4058 5530 4058 
L 5274 3738 
L 4250 3738 
L 4250 5075 
C 4390 5094 4442 5152 4454 5242 
L 3968 5293 
L 3968 3738 
L 2950 3738 
C 3053 4032 3142 4346 3213 4659 
C 3354 4659 3418 4723 3443 4800 
L 2925 4915 
C 2778 3974 2483 3040 2125 2413 
L 2234 2349 
C 2483 2669 2701 3091 2880 3552 
L 3968 3552 
L 3968 2003 
L 2592 2003 
L 2643 1818 
L 3968 1818 
L 3968 -45 
L 2067 -45 
L 2118 -230 
L 6054 -230 
C 6138 -230 6202 -198 6214 -134 
C 6035 45 5734 275 5734 275 
L 5472 -45 
z
" transform="scale(0.015625)"/>
      </defs>
      <use xlink:href="#NotoSerifCJKjp-ExtraLight-91d1"/>
      <use xlink:href="#NotoSerifCJKjp-ExtraLight-6027" x="99.999985"/>
      <use xlink:href="#NotoSerifCJKjp-ExtraLight-4e2d" x="199.999969"/>
     </g>
    </g>
    <g clip-path="url(#pb0f17571ae)">
     <!-- 大護軍 -->
     <g transform="translate(1023.203123 915.96) scale(0.12 -0.12)">
      <defs>
       <path id="NotoSerifCJKjp-ExtraLight-5927" d="M 5946 3277 
C 6035 3277 6099 3309 6112 3379 
C 5901 3578 5555 3840 5555 3840 
L 5261 3469 
L 3251 3469 
C 3302 3994 3309 4538 3322 5088 
C 3475 5107 3526 5178 3546 5267 
L 3002 5325 
C 3002 4685 3002 4064 2950 3469 
L 346 3469 
L 403 3277 
L 2925 3277 
C 2758 1862 2189 614 275 -352 
L 358 -474 
C 2470 506 3046 1824 3226 3277 
L 3238 3277 
C 3437 2003 3974 518 5850 -480 
C 5907 -314 6029 -282 6195 -275 
L 6208 -205 
C 4256 717 3610 2054 3373 3277 
L 5946 3277 
z
" transform="scale(0.015625)"/>
       <path id="NotoSerifCJKjp-ExtraLight-8b77" d="M 4096 3200 
L 3110 3200 
L 3110 3610 
L 4096 3610 
L 4096 3200 
z
M 4096 2592 
L 3110 2592 
L 3110 3014 
L 4096 3014 
L 4096 2592 
z
M 4096 1965 
L 3110 1965 
L 3110 2400 
L 4096 2400 
L 4096 1965 
z
M 2470 4627 
L 3373 4627 
L 3373 4314 
L 3162 4403 
C 2925 3782 2573 3174 2259 2790 
L 2355 2726 
C 2515 2867 2682 3046 2835 3245 
L 2835 1466 
L 2874 1466 
C 3008 1466 3110 1542 3110 1574 
L 3110 1779 
L 5894 1779 
C 5984 1779 6042 1811 6061 1882 
C 5888 2042 5626 2253 5626 2253 
L 5389 1965 
L 4384 1965 
L 4384 2400 
L 5555 2400 
C 5638 2400 5696 2432 5715 2502 
C 5542 2656 5293 2835 5293 2835 
L 5069 2592 
L 4384 2592 
L 4384 3014 
L 5542 3014 
C 5632 3014 5690 3046 5709 3117 
C 5536 3264 5293 3450 5293 3450 
L 5069 3200 
L 4384 3200 
L 4384 3610 
L 5702 3610 
C 5786 3610 5843 3642 5856 3712 
C 5702 3872 5440 4077 5440 4077 
L 5216 3802 
L 4294 3802 
C 4365 3898 4435 4000 4480 4083 
C 4608 4083 4691 4134 4710 4218 
L 4218 4326 
C 4186 4186 4134 3968 4096 3802 
L 3213 3802 
C 3270 3904 3328 4006 3379 4109 
C 3514 4090 3590 4147 3616 4211 
L 3450 4282 
C 3552 4288 3654 4352 3654 4397 
L 3654 4627 
L 4717 4627 
L 4717 4282 
L 4774 4282 
C 4877 4282 4998 4352 4998 4397 
L 4998 4627 
L 5971 4627 
C 6054 4627 6118 4659 6131 4730 
C 5958 4896 5683 5114 5683 5114 
L 5440 4819 
L 4998 4819 
L 4998 5120 
C 5139 5139 5203 5197 5216 5280 
L 4717 5331 
L 4717 4819 
L 3654 4819 
L 3654 5120 
C 3795 5139 3859 5197 3872 5280 
L 3373 5331 
L 3373 4819 
L 2419 4819 
L 2470 4627 
z
M 1670 3296 
L 512 3296 
L 563 3110 
L 2150 3110 
C 2240 3110 2298 3142 2310 3206 
C 2150 3366 1901 3571 1901 3571 
L 1670 3296 
z
M 2170 4717 
C 2259 4717 2317 4749 2336 4819 
C 2157 4986 1882 5210 1882 5210 
L 1638 4902 
L 506 4902 
L 557 4717 
L 2170 4717 
z
M 1888 4102 
L 256 4102 
L 301 3917 
L 2432 3917 
C 2522 3917 2579 3949 2598 4019 
C 2419 4186 2138 4416 2138 4416 
L 1888 4102 
z
M 2150 2298 
C 2240 2298 2298 2330 2310 2394 
C 2150 2554 1901 2758 1901 2758 
L 1670 2483 
L 512 2483 
L 563 2298 
L 2150 2298 
z
M 826 275 
L 826 1491 
L 1856 1491 
L 1856 275 
L 826 275 
z
M 1978 1888 
L 1792 1677 
L 858 1677 
L 544 1837 
L 544 -474 
L 589 -474 
C 704 -474 826 -403 826 -371 
L 826 90 
L 1856 90 
L 1856 -230 
L 1894 -230 
C 1984 -230 2131 -160 2138 -122 
L 2138 1427 
C 2266 1453 2368 1504 2413 1549 
L 1978 1888 
z
M 5158 1133 
C 4922 838 4608 589 4230 371 
C 3846 570 3526 826 3296 1133 
L 5158 1133 
z
M 5472 1523 
L 5242 1325 
L 2534 1325 
L 2592 1133 
L 3123 1133 
C 3334 768 3629 474 3981 237 
C 3462 -26 2848 -218 2189 -352 
L 2240 -467 
C 2989 -346 3648 -160 4205 96 
C 4666 -166 5216 -352 5843 -480 
C 5882 -346 5978 -256 6106 -243 
L 6112 -173 
C 5517 -96 4966 45 4493 250 
C 4922 480 5274 768 5549 1114 
C 5709 1114 5779 1133 5830 1184 
L 5472 1523 
z
" transform="scale(0.015625)"/>
       <path id="NotoSerifCJKjp-ExtraLight-8ecd" d="M 5389 4685 
C 5293 4467 5165 4198 5062 4032 
L 5158 3987 
C 5363 4147 5645 4435 5786 4640 
C 5907 4646 5984 4653 6035 4698 
L 5619 5107 
L 5389 4870 
L 1203 4870 
C 1190 4966 1171 5062 1146 5171 
L 1030 5165 
C 1069 4678 845 4224 576 4051 
C 474 3981 410 3866 467 3763 
C 544 3654 736 3706 870 3821 
C 1037 3962 1216 4250 1210 4685 
L 5389 4685 
z
M 1568 1504 
L 1568 2150 
L 3046 2150 
L 3046 1504 
L 1568 1504 
z
M 3046 2963 
L 3046 2342 
L 1568 2342 
L 1568 2963 
L 3046 2963 
z
M 4806 2963 
L 4806 2342 
L 3328 2342 
L 3328 2963 
L 4806 2963 
z
M 3328 1504 
L 3328 2150 
L 4806 2150 
L 4806 1504 
L 3328 1504 
z
M 5312 672 
L 3328 672 
L 3328 1312 
L 4806 1312 
L 4806 1056 
L 4845 1056 
C 4934 1056 5082 1133 5088 1171 
L 5088 2899 
C 5216 2925 5318 2976 5363 3027 
L 4928 3360 
L 4742 3155 
L 3328 3155 
L 3328 3731 
L 5088 3731 
C 5178 3731 5242 3763 5254 3834 
C 5062 4000 4787 4192 4787 4192 
L 4538 3923 
L 3328 3923 
L 3328 4294 
C 3488 4320 3546 4384 3558 4467 
L 3046 4531 
L 3046 3923 
L 1158 3923 
L 1210 3731 
L 3046 3731 
L 3046 3155 
L 1600 3155 
L 1286 3315 
L 1286 1005 
L 1331 1005 
C 1453 1005 1568 1075 1568 1101 
L 1568 1312 
L 3046 1312 
L 3046 672 
L 314 672 
L 371 486 
L 3046 486 
L 3046 -467 
L 3104 -467 
C 3206 -467 3328 -397 3328 -339 
L 3328 486 
L 5939 486 
C 6029 486 6086 518 6106 589 
C 5907 768 5594 1018 5594 1018 
L 5312 672 
z
" transform="scale(0.015625)"/>
      </defs>
      <use xlink:href="#NotoSerifCJKjp-ExtraLight-5927"/>
      <use xlink:href="#NotoSerifCJKjp-ExtraLight-8b77" x="99.999985"/>
      <use xlink:href="#NotoSerifCJKjp-ExtraLight-8ecd" x="199.999969"/>
     </g>
    </g>
   </g>
   <g id="text_15">
    <g clip-path="url(#pb0f17571ae)">
     <!-- 李抽 -->
     <g transform="translate(1736.199382 181.32) scale(0.12 -0.12)">
      <defs>
       <path id="NotoSerifCJKjp-ExtraLight-674e" d="M 5312 1280 
L 3341 1280 
L 3341 1574 
C 3462 1594 3520 1626 3552 1690 
C 3955 1830 4518 2054 4813 2259 
C 4941 2266 5030 2272 5082 2310 
L 4710 2669 
L 4499 2464 
L 1427 2464 
L 1485 2278 
L 4333 2278 
C 4064 2093 3686 1888 3424 1754 
L 3059 1798 
L 3059 1280 
L 314 1280 
L 371 1088 
L 3059 1088 
L 3059 64 
C 3059 -32 3027 -70 2899 -70 
C 2771 -70 2074 -19 2074 -19 
L 2074 -122 
C 2362 -154 2541 -192 2637 -243 
C 2726 -301 2765 -384 2778 -474 
C 3283 -416 3341 -237 3341 38 
L 3341 1088 
L 5926 1088 
C 6016 1088 6074 1120 6093 1190 
C 5894 1376 5587 1613 5587 1613 
L 5312 1280 
z
M 5850 4186 
C 5939 4186 5997 4218 6016 4288 
C 5818 4467 5504 4717 5504 4717 
L 5229 4378 
L 3322 4378 
L 3322 5107 
C 3482 5133 3546 5190 3558 5280 
L 3040 5338 
L 3040 4378 
L 403 4378 
L 461 4186 
L 2656 4186 
C 2061 3494 1152 2816 218 2355 
L 282 2253 
C 1363 2694 2368 3366 3040 4147 
L 3040 2662 
L 3098 2662 
C 3200 2662 3322 2733 3322 2778 
L 3322 4186 
L 3386 4186 
C 3942 3424 5011 2707 5901 2323 
C 5952 2451 6054 2534 6182 2541 
L 6195 2611 
C 5312 2906 4179 3533 3578 4186 
L 5850 4186 
z
" transform="scale(0.015625)"/>
       <path id="NotoSerifCJKjp-ExtraLight-62bd" d="M 2451 3776 
C 2534 3776 2598 3808 2611 3878 
C 2438 4045 2163 4262 2163 4262 
L 1926 3968 
L 1619 3968 
L 1619 5088 
C 1773 5107 1837 5171 1856 5261 
L 1338 5318 
L 1338 3968 
L 288 3968 
L 339 3776 
L 1338 3776 
L 1338 2246 
C 870 2099 480 1984 256 1933 
L 486 1523 
C 544 1549 589 1600 608 1677 
C 870 1786 1114 1888 1338 1984 
L 1338 64 
C 1338 -38 1306 -70 1190 -70 
C 1082 -70 506 -26 506 -26 
L 506 -134 
C 742 -160 896 -192 986 -250 
C 1062 -301 1094 -390 1107 -480 
C 1568 -422 1619 -243 1619 32 
L 1619 2106 
C 2003 2272 2330 2419 2598 2534 
L 2566 2637 
C 2240 2534 1920 2426 1619 2336 
L 1619 3776 
L 2451 3776 
z
M 4384 160 
L 4384 1946 
L 5555 1946 
L 5555 160 
L 4384 160 
z
M 2938 1946 
L 4096 1946 
L 4096 160 
L 2938 160 
L 2938 1946 
z
M 4096 3738 
L 4096 2138 
L 2938 2138 
L 2938 3738 
L 4096 3738 
z
M 5555 3738 
L 5555 2138 
L 4384 2138 
L 4384 3738 
L 5555 3738 
z
M 5683 4141 
L 5491 3930 
L 4384 3930 
L 4384 5037 
C 4518 5056 4570 5114 4582 5203 
L 4096 5261 
L 4096 3930 
L 2970 3930 
L 2656 4096 
L 2656 -467 
L 2707 -467 
C 2835 -467 2938 -397 2938 -352 
L 2938 -32 
L 5555 -32 
L 5555 -448 
L 5594 -448 
C 5696 -448 5830 -358 5837 -320 
L 5837 3680 
C 5958 3699 6074 3750 6112 3802 
L 5683 4141 
z
" transform="scale(0.015625)"/>
      </defs>
      <use xlink:href="#NotoSerifCJKjp-ExtraLight-674e"/>
      <use xlink:href="#NotoSerifCJKjp-ExtraLight-62bd" x="99.999985"/>
     </g>
    </g>
    <g clip-path="url(#pb0f17571ae)">
     <!-- 郡事 -->
     <g transform="translate(1736.199382 195.96) scale(0.12 -0.12)">
      <defs>
       <path id="NotoSerifCJKjp-ExtraLight-90e1" d="M 2893 2906 
L 1638 2906 
C 1702 3174 1741 3443 1766 3712 
L 2893 3712 
L 2893 2906 
z
M 2893 4678 
L 2893 3904 
L 1786 3904 
C 1811 4166 1824 4422 1830 4678 
L 2893 4678 
z
M 2957 1670 
L 2957 218 
L 1414 218 
L 1414 1670 
L 2957 1670 
z
M 3322 3904 
L 3174 3904 
L 3174 4614 
C 3296 4640 3411 4691 3450 4742 
L 3014 5075 
L 2829 4870 
L 563 4870 
L 621 4678 
L 1530 4678 
C 1523 4429 1517 4166 1498 3904 
L 269 3904 
L 320 3712 
L 1485 3712 
C 1459 3443 1427 3174 1370 2906 
L 486 2906 
L 544 2720 
L 1325 2720 
C 1152 2010 819 1306 192 698 
L 294 595 
C 646 902 922 1229 1126 1581 
L 1126 -467 
L 1165 -467 
C 1312 -467 1414 -384 1414 -358 
L 1414 26 
L 2957 26 
L 2957 -371 
L 2995 -371 
C 3091 -371 3226 -288 3232 -250 
L 3232 1606 
C 3360 1632 3475 1683 3514 1734 
L 3078 2067 
L 2893 1862 
L 1491 1862 
L 1318 1939 
C 1434 2195 1530 2458 1594 2720 
L 2893 2720 
L 2893 2349 
L 2931 2349 
C 3027 2349 3168 2426 3174 2464 
L 3174 3712 
L 3859 3712 
C 3942 3712 4006 3744 4019 3814 
C 3846 3987 3565 4205 3565 4205 
L 3322 3904 
z
M 5773 5088 
L 5549 4870 
L 4410 4870 
L 4045 5069 
L 4045 -474 
L 4083 -474 
C 4230 -474 4333 -384 4333 -358 
L 4333 4678 
L 5549 4678 
C 5338 4128 5018 3315 4826 2899 
C 5459 2342 5715 1830 5715 1318 
C 5715 1018 5632 864 5485 787 
C 5427 755 5382 749 5299 749 
L 4627 749 
L 4627 640 
C 4819 627 4986 602 5050 563 
C 5107 525 5133 454 5133 352 
C 5786 390 6022 659 6022 1280 
C 6016 1805 5741 2349 4979 2918 
C 5242 3328 5670 4173 5882 4608 
C 6029 4608 6125 4621 6170 4672 
L 5773 5088 
z
" transform="scale(0.015625)"/>
       <path id="NotoSerifCJKjp-ExtraLight-4e8b" d="M 4896 806 
L 3328 806 
L 3328 1414 
L 4896 1414 
L 4896 806 
z
M 3328 2195 
L 4896 2195 
L 4896 1600 
L 3328 1600 
L 3328 2195 
z
M 1510 3174 
L 1510 3808 
L 3046 3808 
L 3046 3174 
L 1510 3174 
z
M 4864 3808 
L 4864 3174 
L 3328 3174 
L 3328 3808 
L 4864 3808 
z
M 5382 1600 
L 5184 1600 
L 5184 2131 
C 5306 2157 5414 2208 5459 2259 
L 5024 2592 
L 4838 2381 
L 3328 2381 
L 3328 2982 
L 4864 2982 
L 4864 2752 
L 4896 2752 
C 4992 2752 5139 2822 5146 2861 
L 5146 3744 
C 5267 3770 5376 3821 5421 3872 
L 4979 4198 
L 4800 4000 
L 3328 4000 
L 3328 4506 
L 5939 4506 
C 6029 4506 6093 4538 6106 4608 
C 5907 4800 5587 5043 5587 5043 
L 5299 4698 
L 3328 4698 
L 3328 5101 
C 3482 5120 3546 5184 3565 5274 
L 3046 5331 
L 3046 4698 
L 301 4698 
L 358 4506 
L 3046 4506 
L 3046 4000 
L 1542 4000 
L 1229 4154 
L 1229 2669 
L 1274 2669 
C 1389 2669 1510 2733 1510 2758 
L 1510 2982 
L 3046 2982 
L 3046 2381 
L 1069 2381 
L 1120 2195 
L 3046 2195 
L 3046 1600 
L 294 1600 
L 352 1414 
L 3046 1414 
L 3046 806 
L 1030 806 
L 1088 621 
L 3046 621 
L 3046 77 
C 3046 -45 3002 -90 2854 -90 
C 2707 -90 1907 -26 1907 -26 
L 1907 -134 
C 2234 -166 2438 -205 2547 -262 
C 2643 -314 2688 -390 2714 -480 
C 3270 -422 3328 -218 3328 45 
L 3328 621 
L 4896 621 
L 4896 282 
L 4934 282 
C 5030 282 5178 365 5184 403 
L 5184 1414 
L 5978 1414 
C 6067 1414 6131 1446 6144 1510 
C 5958 1696 5651 1946 5651 1946 
L 5382 1600 
z
" transform="scale(0.015625)"/>
      </defs>
      <use xlink:href="#NotoSerifCJKjp-ExtraLight-90e1"/>
      <use xlink:href="#NotoSerifCJKjp-ExtraLight-4e8b" x="99.999985"/>
     </g>
    </g>
   </g>
   <g id="text_16">
    <g clip-path="url(#pb0f17571ae)">
     <!-- 李復善 -->
     <g transform="translate(1023.203123 541.32) scale(0.12 -0.12)">
      <defs>
       <path id="NotoSerifCJKjp-ExtraLight-5fa9" d="M 1670 5325 
C 1395 4819 819 4109 262 3667 
L 339 3584 
C 973 3981 1574 4589 1894 5037 
C 2035 5005 2093 5030 2131 5101 
L 1670 5325 
z
M 1754 4186 
C 1472 3539 870 2650 230 2080 
L 307 1990 
C 608 2208 896 2470 1152 2752 
L 1152 -474 
L 1210 -474 
C 1312 -474 1434 -390 1440 -365 
L 1440 2918 
C 1542 2938 1600 2976 1626 3034 
L 1453 3104 
C 1677 3379 1862 3654 1997 3898 
C 2150 3872 2208 3898 2246 3968 
L 1754 4186 
z
M 4986 1530 
C 4774 1184 4486 877 4134 614 
C 3808 826 3539 1082 3347 1376 
C 3392 1427 3443 1478 3488 1530 
L 4986 1530 
z
M 3104 3014 
L 5184 3014 
L 5184 2451 
L 3104 2451 
L 3104 3014 
z
M 5184 3731 
L 5184 3200 
L 3104 3200 
L 3104 3731 
L 5184 3731 
z
M 5261 1920 
L 5030 1722 
L 3642 1722 
C 3731 1830 3808 1939 3872 2042 
C 4026 2016 4070 2035 4102 2099 
L 3674 2266 
L 5184 2266 
L 5184 2010 
L 5222 2010 
C 5312 2010 5459 2086 5466 2125 
L 5466 3686 
C 5574 3706 5677 3757 5715 3802 
L 5299 4115 
L 5126 3923 
L 3136 3923 
L 2854 4058 
C 2944 4186 3034 4314 3110 4454 
L 5971 4454 
C 6061 4454 6125 4480 6138 4550 
C 5946 4736 5645 4966 5645 4966 
L 5376 4640 
L 3213 4640 
C 3290 4781 3354 4928 3418 5075 
C 3558 5069 3622 5126 3648 5197 
L 3149 5350 
C 2880 4512 2426 3757 1958 3296 
L 2054 3219 
C 2323 3424 2586 3686 2816 4000 
L 2816 1971 
L 2861 1971 
C 2982 1971 3104 2042 3104 2074 
L 3104 2266 
L 3648 2266 
C 3315 1606 2656 896 1971 486 
L 2042 384 
C 2483 602 2899 928 3245 1274 
C 3430 966 3661 704 3936 474 
C 3373 102 2675 -179 1875 -365 
L 1926 -480 
C 2816 -314 3546 -45 4134 326 
C 4634 -32 5261 -282 5978 -442 
C 6016 -307 6118 -224 6240 -211 
L 6246 -147 
C 5536 -32 4883 173 4352 474 
C 4755 768 5082 1114 5331 1510 
C 5485 1510 5562 1530 5613 1574 
L 5261 1920 
z
" transform="scale(0.015625)"/>
       <path id="NotoSerifCJKjp-ExtraLight-5584" d="M 1651 38 
L 1651 1037 
L 4749 1037 
L 4749 38 
L 1651 38 
z
M 4691 1222 
L 1683 1222 
L 1370 1382 
L 1370 -467 
L 1414 -467 
C 1530 -467 1651 -397 1651 -371 
L 1651 -154 
L 4749 -154 
L 4749 -422 
L 4787 -422 
C 4877 -422 5024 -346 5030 -307 
L 5030 992 
C 5139 1011 5242 1062 5280 1101 
L 4870 1414 
L 4691 1222 
z
M 3053 2746 
L 3053 1933 
L 2150 1933 
C 2317 2029 2317 2451 1677 2746 
L 3053 2746 
z
M 4410 2746 
C 4314 2496 4160 2170 4019 1933 
L 3334 1933 
L 3334 2746 
L 4410 2746 
z
M 5338 1933 
L 4211 1933 
C 4397 2106 4582 2323 4704 2490 
C 4838 2490 4915 2541 4941 2618 
L 4486 2746 
L 5779 2746 
C 5869 2746 5926 2771 5946 2842 
C 5760 3021 5472 3245 5472 3245 
L 5216 2931 
L 3334 2931 
L 3334 3546 
L 5158 3546 
C 5242 3546 5299 3578 5312 3642 
C 5146 3814 4870 4032 4870 4032 
L 4627 3731 
L 3334 3731 
L 3334 4333 
L 5498 4333 
C 5587 4333 5645 4365 5664 4435 
C 5478 4608 5190 4838 5190 4838 
L 4934 4518 
L 3974 4518 
C 4166 4691 4365 4890 4486 5062 
C 4627 5056 4710 5101 4742 5178 
L 4218 5338 
C 4102 5088 3936 4762 3776 4518 
L 2323 4518 
C 2496 4627 2470 5094 1734 5325 
L 1664 5280 
C 1869 5107 2080 4800 2106 4544 
C 2118 4531 2131 4525 2144 4518 
L 762 4518 
L 819 4333 
L 3053 4333 
L 3053 3731 
L 1133 3731 
L 1184 3546 
L 3053 3546 
L 3053 2931 
L 512 2931 
L 570 2746 
L 1574 2746 
L 1542 2726 
C 1722 2541 1920 2221 1939 1965 
C 1958 1952 1971 1939 1990 1933 
L 307 1933 
L 365 1747 
L 5920 1747 
C 6010 1747 6067 1779 6086 1850 
C 5894 2022 5600 2259 5600 2259 
L 5338 1933 
z
" transform="scale(0.015625)"/>
      </defs>
      <use xlink:href="#NotoSerifCJKjp-ExtraLight-674e"/>
      <use xlink:href="#NotoSerifCJKjp-ExtraLight-5fa9" x="99.999985"/>
      <use xlink:href="#NotoSerifCJKjp-ExtraLight-5584" x="199.999969"/>
     </g>
    </g>
    <g clip-path="url(#pb0f17571ae)">
     <!-- 注書 -->
     <g transform="translate(1029.203123 555.96) scale(0.12 -0.12)">
      <defs>
       <path id="NotoSerifCJKjp-ExtraLight-6ce8" d="M 3014 5280 
C 3347 5030 3744 4576 3827 4205 
C 4237 3936 4474 4870 3085 5331 
L 3014 5280 
z
M 730 5146 
C 1030 4966 1395 4627 1498 4346 
C 1882 4141 2042 4947 794 5210 
L 730 5146 
z
M 282 3776 
C 582 3622 941 3322 1056 3066 
C 1434 2874 1562 3654 346 3846 
L 282 3776 
z
M 1997 4198 
C 941 1632 941 1632 838 1414 
C 781 1286 755 1280 691 1280 
L 416 1280 
L 416 1133 
C 557 1120 640 1107 717 1050 
C 851 960 896 493 819 -154 
C 819 -339 858 -467 966 -467 
C 1139 -467 1229 -320 1242 -64 
C 1267 442 1114 762 1114 1024 
C 1114 1178 1152 1370 1210 1562 
C 1299 1856 1850 3360 2125 4166 
L 1997 4198 
z
M 5402 -70 
L 4058 -70 
L 4058 1933 
L 5734 1933 
C 5824 1933 5888 1958 5901 2029 
C 5722 2208 5414 2438 5414 2438 
L 5158 2118 
L 4058 2118 
L 4058 3776 
L 5901 3776 
C 5990 3776 6054 3808 6067 3878 
C 5882 4051 5581 4288 5581 4288 
L 5318 3968 
L 2093 3968 
L 2144 3776 
L 3776 3776 
L 3776 2118 
L 2106 2118 
L 2157 1933 
L 3776 1933 
L 3776 -70 
L 1702 -70 
L 1754 -256 
L 5984 -256 
C 6074 -256 6138 -224 6144 -160 
C 5965 19 5664 250 5664 250 
L 5402 -70 
z
" transform="scale(0.015625)"/>
       <path id="NotoSerifCJKjp-ExtraLight-66f8" d="M 1638 51 
L 1638 576 
L 4723 576 
L 4723 51 
L 1638 51 
z
M 4723 1261 
L 4723 762 
L 1638 762 
L 1638 1261 
L 4723 1261 
z
M 4659 1453 
L 1670 1453 
L 1357 1606 
L 1357 -474 
L 1402 -474 
C 1517 -474 1638 -403 1638 -371 
L 1638 -141 
L 4723 -141 
L 4723 -461 
L 4762 -461 
C 4858 -461 4998 -384 5005 -346 
L 5005 1197 
C 5133 1222 5242 1274 5286 1325 
L 4851 1658 
L 4659 1453 
z
M 3283 3450 
L 3283 3955 
L 4659 3955 
L 4659 3450 
L 3283 3450 
z
M 3283 4634 
L 4659 4634 
L 4659 4141 
L 3283 4141 
L 3283 4634 
z
M 4698 3021 
C 4794 3021 4934 3098 4941 3136 
L 4941 3955 
L 5946 3955 
C 6035 3955 6093 3987 6112 4051 
C 5926 4224 5638 4454 5638 4454 
L 5382 4141 
L 4941 4141 
L 4941 4570 
C 5069 4595 5178 4646 5222 4698 
L 4787 5030 
L 4595 4826 
L 3283 4826 
L 3283 5094 
C 3437 5120 3501 5184 3520 5274 
L 3002 5331 
L 3002 4826 
L 1094 4826 
L 1152 4634 
L 3002 4634 
L 3002 4141 
L 294 4141 
L 352 3955 
L 3002 3955 
L 3002 3450 
L 1062 3450 
L 1114 3258 
L 3002 3258 
L 3002 2771 
L 864 2771 
L 922 2586 
L 3002 2586 
L 3002 2080 
L 358 2080 
L 416 1894 
L 5875 1894 
C 5965 1894 6022 1926 6042 1990 
C 5850 2170 5562 2394 5562 2394 
L 5299 2080 
L 3283 2080 
L 3283 2586 
L 5498 2586 
C 5581 2586 5645 2618 5658 2688 
C 5478 2854 5197 3078 5197 3078 
L 4947 2771 
L 3283 2771 
L 3283 3258 
L 4659 3258 
L 4659 3021 
L 4698 3021 
z
" transform="scale(0.015625)"/>
      </defs>
      <use xlink:href="#NotoSerifCJKjp-ExtraLight-6ce8"/>
      <use xlink:href="#NotoSerifCJKjp-ExtraLight-66f8" x="99.999985"/>
     </g>
    </g>
   </g>
   <g id="text_17">
    <g clip-path="url(#pb0f17571ae)">
     <!-- 李宜蕃 -->
     <g transform="translate(1306.001627 541.32) scale(0.12 -0.12)">
      <defs>
       <path id="NotoSerifCJKjp-ExtraLight-5b9c" d="M 5472 4269 
C 5363 4038 5216 3744 5101 3565 
L 5197 3514 
C 5421 3693 5722 4006 5882 4218 
C 6003 4230 6080 4237 6131 4282 
L 5709 4691 
L 5478 4454 
L 3296 4454 
L 3296 5101 
C 3450 5120 3520 5184 3533 5274 
L 3014 5331 
L 3014 4454 
L 1158 4454 
C 1152 4557 1133 4666 1101 4781 
L 986 4774 
C 1024 4269 781 3827 486 3661 
C 384 3590 314 3482 371 3379 
C 442 3264 640 3309 787 3418 
C 966 3546 1165 3827 1171 4269 
L 5472 4269 
z
M 1971 941 
L 4467 941 
L 4467 -64 
L 1971 -64 
L 1971 941 
z
M 4467 3251 
L 4467 2298 
L 1971 2298 
L 1971 3251 
L 4467 3251 
z
M 4467 1126 
L 1971 1126 
L 1971 2106 
L 4467 2106 
L 4467 1126 
z
M 5325 -64 
L 4755 -64 
L 4755 3200 
C 4902 3213 4992 3251 5043 3309 
L 4576 3680 
L 4397 3443 
L 2048 3443 
L 1690 3610 
L 1690 -64 
L 294 -64 
L 352 -250 
L 5965 -250 
C 6054 -250 6112 -218 6131 -154 
C 5933 38 5606 301 5606 301 
L 5325 -64 
z
" transform="scale(0.015625)"/>
       <path id="NotoSerifCJKjp-ExtraLight-8543" d="M 346 4518 
L 2176 4518 
L 2176 4032 
L 2234 4032 
C 2342 4032 2458 4102 2458 4141 
L 2458 4518 
L 3904 4518 
L 3904 4141 
L 3962 4141 
C 4064 4141 4186 4211 4186 4256 
L 4186 4518 
L 5933 4518 
C 6022 4518 6086 4550 6106 4621 
C 5907 4806 5594 5050 5594 5050 
L 5318 4710 
L 4186 4710 
L 4186 5107 
C 4346 5133 4416 5190 4429 5286 
L 3904 5338 
L 3904 4710 
L 2458 4710 
L 2458 5114 
C 2618 5139 2682 5197 2701 5293 
L 2176 5344 
L 2176 4710 
L 288 4710 
L 346 4518 
z
M 3328 58 
L 3328 672 
L 4774 672 
L 4774 58 
L 3328 58 
z
M 1613 672 
L 3046 672 
L 3046 58 
L 1613 58 
L 1613 672 
z
M 3059 2624 
L 3059 1709 
L 3098 1709 
C 3238 1709 3341 1786 3341 1811 
L 3341 2624 
L 3373 2624 
C 3718 2259 4218 1933 4742 1670 
L 4717 1638 
L 1690 1638 
L 1638 1664 
C 2176 1933 2656 2253 3027 2624 
L 3059 2624 
z
M 3328 1453 
L 4774 1453 
L 4774 858 
L 3328 858 
L 3328 1453 
z
M 1613 1453 
L 3046 1453 
L 3046 858 
L 1613 858 
L 1613 1453 
z
M 5875 2624 
C 5965 2624 6029 2656 6042 2726 
C 5856 2899 5568 3130 5568 3130 
L 5306 2810 
L 4134 2810 
C 4365 3008 4602 3258 4749 3469 
C 4883 3462 4966 3514 4992 3584 
L 4486 3744 
C 4365 3456 4147 3072 3968 2810 
L 3341 2810 
L 3341 3750 
C 3987 3808 4595 3878 5101 3949 
C 5235 3885 5338 3878 5389 3923 
L 5075 4243 
C 4083 4032 2266 3814 800 3744 
L 819 3610 
C 1082 3616 1344 3622 1613 3629 
L 1542 3590 
C 1741 3424 1939 3123 1965 2874 
C 2259 2643 2515 3290 1626 3635 
C 2106 3654 2592 3686 3059 3725 
L 3059 2810 
L 339 2810 
L 397 2624 
L 2586 2624 
C 1990 2074 1120 1574 211 1242 
L 269 1120 
C 634 1229 992 1363 1331 1517 
L 1331 -474 
L 1376 -474 
C 1517 -474 1613 -384 1613 -358 
L 1613 -134 
L 4774 -134 
L 4774 -461 
L 4813 -461 
C 4902 -461 5050 -378 5056 -339 
L 5056 1408 
C 5114 1421 5171 1440 5216 1459 
C 5446 1363 5677 1280 5901 1216 
C 5939 1344 6054 1427 6176 1434 
L 6182 1504 
C 5312 1690 4230 2118 3578 2624 
L 5875 2624 
z
" transform="scale(0.015625)"/>
      </defs>
      <use xlink:href="#NotoSerifCJKjp-ExtraLight-674e"/>
      <use xlink:href="#NotoSerifCJKjp-ExtraLight-5b9c" x="99.999985"/>
      <use xlink:href="#NotoSerifCJKjp-ExtraLight-8543" x="199.999969"/>
     </g>
    </g>
    <g clip-path="url(#pb0f17571ae)">
     <!--  -->
     <g transform="translate(1324.001627 555.96) scale(0.12 -0.12)"/>
    </g>
   </g>
   <g id="text_18">
    <g clip-path="url(#pb0f17571ae)">
     <!-- 李宜衍 -->
     <g transform="translate(1588.80013 541.32) scale(0.12 -0.12)">
      <defs>
       <path id="NotoSerifCJKjp-ExtraLight-884d" d="M 5856 4589 
C 5946 4589 6003 4621 6022 4691 
C 5837 4870 5536 5101 5536 5101 
L 5280 4781 
L 3968 4781 
L 4019 4589 
L 5856 4589 
z
M 2323 4877 
C 2586 4730 2931 4448 3066 4230 
C 3437 4070 3571 4787 2381 4941 
L 2323 4877 
z
M 1581 5325 
C 1318 4870 787 4186 294 3744 
L 378 3661 
C 941 4045 1510 4621 1811 5024 
C 1952 4992 2010 5011 2054 5082 
L 1581 5325 
z
M 1683 4045 
C 1402 3418 806 2509 224 1914 
L 301 1830 
C 582 2061 858 2336 1101 2618 
L 1101 -474 
L 1158 -474 
C 1261 -474 1382 -390 1389 -365 
L 1389 2797 
C 1491 2816 1549 2854 1574 2912 
L 1402 2982 
C 1613 3258 1798 3526 1933 3750 
C 2074 3725 2131 3750 2176 3821 
L 1683 4045 
z
M 2118 3565 
C 2355 3398 2656 3091 2752 2848 
C 3110 2656 3302 3366 2189 3616 
L 2118 3565 
z
M 3827 4045 
C 2733 1510 2733 1510 2630 1299 
C 2573 1171 2554 1165 2490 1165 
L 2214 1165 
L 2214 1024 
C 2349 1011 2426 998 2509 941 
C 2643 851 2688 435 2611 -173 
C 2611 -358 2656 -474 2752 -474 
C 2918 -474 3008 -333 3014 -96 
C 3040 371 2899 672 2899 915 
C 2893 1075 2938 1254 3002 1453 
C 3091 1734 3674 3232 3955 4019 
L 3827 4045 
z
M 5414 3328 
L 3872 3328 
L 3923 3142 
L 4998 3142 
L 4998 58 
C 4998 -38 4966 -70 4845 -70 
C 4704 -70 4032 -19 4032 -19 
L 4032 -122 
C 4320 -154 4493 -192 4595 -250 
C 4672 -301 4717 -390 4723 -480 
C 5222 -422 5286 -218 5286 45 
L 5286 3142 
L 6003 3142 
C 6086 3142 6144 3174 6163 3238 
C 5978 3418 5683 3648 5683 3648 
L 5414 3328 
z
" transform="scale(0.015625)"/>
      </defs>
      <use xlink:href="#NotoSerifCJKjp-ExtraLight-674e"/>
      <use xlink:href="#NotoSerifCJKjp-ExtraLight-5b9c" x="99.999985"/>
      <use xlink:href="#NotoSerifCJKjp-ExtraLight-884d" x="199.999969"/>
     </g>
    </g>
    <g clip-path="url(#pb0f17571ae)">
     <!-- 生員 -->
     <g transform="translate(1594.80013 555.96) scale(0.12 -0.12)">
      <defs>
       <path id="NotoSerifCJKjp-ExtraLight-751f" d="M 5325 -32 
L 3322 -32 
L 3322 1805 
L 5325 1805 
C 5414 1805 5478 1837 5491 1907 
C 5299 2086 4979 2336 4979 2336 
L 4704 1990 
L 3322 1990 
L 3322 3610 
L 5574 3610 
C 5664 3610 5722 3635 5741 3706 
C 5536 3904 5229 4134 5229 4134 
L 4947 3795 
L 3322 3795 
L 3322 5094 
C 3475 5120 3533 5184 3552 5274 
L 3040 5331 
L 3040 3795 
L 1587 3795 
C 1760 4122 1914 4467 2048 4819 
C 2189 4813 2266 4870 2291 4934 
L 1786 5114 
C 1440 3968 851 2893 262 2227 
L 358 2157 
C 768 2528 1152 3027 1485 3610 
L 3040 3610 
L 3040 1990 
L 1005 1990 
L 1056 1805 
L 3040 1805 
L 3040 -32 
L 294 -32 
L 352 -218 
L 5965 -218 
C 6054 -218 6112 -186 6131 -122 
C 5926 70 5606 314 5606 314 
L 5325 -32 
z
" transform="scale(0.015625)"/>
       <path id="NotoSerifCJKjp-ExtraLight-54e1" d="M 4768 4870 
L 4768 4090 
L 1651 4090 
L 1651 4870 
L 4768 4870 
z
M 1651 3904 
L 4768 3904 
L 4768 3648 
L 4806 3648 
C 4896 3648 5043 3725 5050 3763 
L 5050 4806 
C 5171 4832 5286 4877 5325 4928 
L 4890 5261 
L 4704 5056 
L 1683 5056 
L 1370 5216 
L 1370 3616 
L 1414 3616 
C 1523 3616 1651 3686 1651 3712 
L 1651 3904 
z
M 5037 3181 
L 5037 2573 
L 1395 2573 
L 1395 3181 
L 5037 3181 
z
M 1395 1760 
L 1395 2381 
L 5037 2381 
L 5037 1760 
L 1395 1760 
z
M 1395 947 
L 1395 1568 
L 5037 1568 
L 5037 947 
L 1395 947 
z
M 1395 755 
L 5037 755 
L 5037 506 
L 5075 506 
C 5171 506 5312 589 5318 627 
L 5318 3117 
C 5446 3142 5555 3194 5600 3238 
L 5165 3578 
L 4973 3366 
L 1427 3366 
L 1107 3533 
L 1107 422 
L 1158 422 
C 1280 422 1395 499 1395 531 
L 1395 755 
z
M 454 -480 
C 1312 -352 2093 -58 2586 243 
C 2746 224 2829 250 2861 301 
L 2451 563 
C 2054 243 1216 -173 403 -365 
L 454 -480 
z
M 3712 358 
C 4346 211 5286 -173 5696 -474 
C 6118 -531 5894 218 3750 474 
L 3712 358 
z
" transform="scale(0.015625)"/>
      </defs>
      <use xlink:href="#NotoSerifCJKjp-ExtraLight-751f"/>
      <use xlink:href="#NotoSerifCJKjp-ExtraLight-54e1" x="99.999985"/>
     </g>
    </g>
   </g>
   <g id="text_19">
    <g clip-path="url(#pb0f17571ae)">
     <!-- 李宜榮 -->
     <g transform="translate(1871.598634 541.32) scale(0.12 -0.12)">
      <defs>
       <path id="NotoSerifCJKjp-ExtraLight-69ae" d="M 4826 4173 
C 5050 4307 5325 4512 5568 4730 
C 5690 4685 5773 4730 5811 4781 
L 5414 5069 
C 5197 4755 4928 4454 4736 4269 
L 4826 4173 
z
M 2822 3187 
C 3667 3418 4096 3706 4320 4038 
C 4749 3827 5267 3488 5478 3219 
C 5862 3098 5888 3802 4397 4160 
C 4550 4461 4570 4794 4589 5139 
C 4717 5158 4774 5222 4781 5293 
L 4314 5338 
C 4301 4454 4275 3770 2752 3296 
L 2822 3187 
z
M 3648 5037 
C 3629 4704 3411 4384 3200 4269 
C 3104 4198 3046 4096 3098 4026 
C 3162 3930 3334 3974 3450 4058 
C 3629 4192 3853 4518 3770 5030 
L 3648 5037 
z
M 2272 4275 
C 2464 4378 2707 4538 2912 4717 
C 3034 4666 3130 4704 3168 4755 
L 2778 5050 
C 2579 4774 2355 4518 2182 4371 
L 2272 4275 
z
M 1158 5018 
C 1139 4691 941 4358 736 4237 
C 659 4160 608 4064 659 4000 
C 723 3917 890 3974 992 4058 
C 1146 4198 1344 4525 1286 5011 
L 1158 5018 
z
M 1830 5338 
C 1818 4429 1805 3738 448 3264 
L 531 3162 
C 1331 3405 1715 3718 1901 4083 
C 2195 3930 2522 3674 2650 3456 
C 2982 3309 3066 3974 1952 4192 
C 2067 4486 2086 4800 2099 5139 
C 2227 5158 2278 5222 2291 5293 
L 1830 5338 
z
M 5280 2765 
C 5190 2554 5056 2298 4954 2138 
L 5043 2086 
C 5267 2246 5555 2509 5715 2714 
C 5830 2720 5907 2726 5952 2771 
L 5517 3194 
L 5286 2950 
L 1184 2950 
C 1178 3034 1171 3117 1158 3206 
L 1043 3213 
C 1018 2790 755 2400 512 2259 
C 403 2182 339 2067 397 1971 
C 474 1869 672 1914 794 2016 
C 954 2138 1133 2394 1171 2765 
L 5280 2765 
z
M 5562 1530 
C 5651 1530 5709 1562 5722 1632 
C 5536 1798 5254 2003 5254 2003 
L 4998 1722 
L 3366 1722 
L 3360 1728 
L 3347 1722 
L 3334 1722 
L 3334 2394 
C 3475 2419 3533 2477 3546 2560 
L 3053 2618 
L 3053 1722 
L 736 1722 
L 794 1530 
L 2739 1530 
C 2176 826 1299 192 326 -243 
L 390 -358 
C 1472 51 2419 672 3053 1440 
L 3053 -467 
L 3110 -467 
C 3213 -467 3334 -397 3334 -346 
L 3334 1523 
C 3898 646 4864 -19 5843 -352 
C 5888 -224 5997 -154 6125 -141 
L 6131 -70 
C 5146 186 4102 787 3507 1530 
L 5562 1530 
z
" transform="scale(0.015625)"/>
      </defs>
      <use xlink:href="#NotoSerifCJKjp-ExtraLight-674e"/>
      <use xlink:href="#NotoSerifCJKjp-ExtraLight-5b9c" x="99.999985"/>
      <use xlink:href="#NotoSerifCJKjp-ExtraLight-69ae" x="199.999969"/>
     </g>
    </g>
    <g clip-path="url(#pb0f17571ae)">
     <!-- 部將 -->
     <g transform="translate(1877.598634 555.96) scale(0.12 -0.12)">
      <defs>
       <path id="NotoSerifCJKjp-ExtraLight-90e8" d="M 454 4307 
L 3539 4307 
C 3622 4307 3680 4339 3699 4410 
C 3514 4582 3213 4819 3213 4819 
L 2950 4493 
L 2074 4493 
L 2074 5088 
C 2227 5107 2298 5171 2310 5261 
L 1792 5318 
L 1792 4493 
L 403 4493 
L 454 4307 
z
M 960 4096 
C 1126 3814 1318 3354 1325 3008 
C 1600 2739 1914 3418 1050 4134 
L 960 4096 
z
M 1171 301 
L 1171 1728 
L 2886 1728 
L 2886 301 
L 1171 301 
z
M 2822 1920 
L 1203 1920 
L 890 2074 
L 890 -467 
L 941 -467 
C 1062 -467 1171 -390 1171 -365 
L 1171 115 
L 2886 115 
L 2886 -390 
L 2925 -390 
C 3021 -390 3162 -314 3168 -275 
L 3168 1664 
C 3290 1690 3405 1741 3443 1792 
L 3008 2125 
L 2822 1920 
z
M 3040 2803 
L 2413 2803 
C 2643 3149 2880 3571 3027 3891 
C 3162 3885 3238 3942 3264 4013 
L 2739 4166 
C 2624 3757 2426 3200 2259 2803 
L 307 2803 
L 358 2618 
L 3629 2618 
C 3718 2618 3776 2650 3795 2720 
C 3610 2899 3302 3136 3302 3136 
L 3040 2803 
z
M 5773 5088 
L 5549 4870 
L 4429 4870 
L 4070 5069 
L 4070 -474 
L 4109 -474 
C 4250 -474 4352 -390 4352 -358 
L 4352 4678 
L 5549 4678 
C 5338 4128 5018 3315 4826 2899 
C 5459 2342 5709 1830 5709 1318 
C 5709 1018 5632 864 5485 787 
C 5421 755 5376 749 5299 749 
L 4627 749 
L 4627 640 
C 4819 627 4986 602 5050 563 
C 5107 525 5133 454 5133 352 
C 5786 390 6022 659 6016 1280 
C 6016 1805 5741 2349 4979 2918 
C 5242 3328 5670 4173 5882 4608 
C 6029 4608 6125 4621 6170 4672 
L 5773 5088 
z
" transform="scale(0.015625)"/>
       <path id="NotoSerifCJKjp-ExtraLight-5c07" d="M 1843 5286 
L 1843 3437 
L 934 3437 
L 934 4819 
C 1094 4845 1158 4896 1171 4986 
L 653 5050 
L 653 2803 
L 704 2803 
C 813 2803 934 2874 934 2925 
L 934 3245 
L 1843 3245 
L 1843 2189 
L 262 2189 
L 320 1997 
L 838 1997 
C 826 1178 781 307 294 -378 
L 403 -480 
C 1043 192 1114 1101 1139 1997 
L 1843 1997 
L 1843 -442 
L 1901 -442 
C 2003 -442 2125 -371 2125 -314 
L 2125 5043 
C 2285 5069 2336 5133 2355 5222 
L 1843 5286 
z
M 2394 2272 
C 3981 2746 5005 3450 5754 4538 
C 5894 4544 5990 4563 6035 4608 
L 5670 4941 
L 5478 4762 
L 3942 4762 
C 4045 4870 4128 4986 4205 5094 
C 4358 5062 4410 5088 4442 5152 
L 3936 5344 
C 3597 4710 2925 4019 2246 3616 
L 2310 3526 
C 2528 3622 2746 3744 2950 3885 
L 2912 3846 
C 3168 3699 3462 3424 3552 3194 
C 3878 3014 4032 3686 2989 3910 
C 3181 4038 3360 4186 3526 4333 
C 3795 4192 4141 3936 4282 3738 
C 4608 3603 4710 4218 3603 4403 
C 3661 4461 3718 4512 3770 4570 
L 5402 4570 
C 4717 3514 3712 2861 2330 2374 
L 2394 2272 
z
M 2982 1555 
C 3277 1306 3635 858 3712 518 
C 4058 269 4288 1062 3059 1613 
L 2982 1555 
z
M 5440 2093 
L 5120 2093 
L 5120 2867 
C 5274 2893 5325 2944 5344 3034 
L 4838 3098 
L 4838 2093 
L 2387 2093 
L 2438 1907 
L 4838 1907 
L 4838 90 
C 4838 -19 4800 -64 4646 -64 
C 4480 -64 3629 0 3629 0 
L 3629 -109 
C 3981 -141 4192 -186 4314 -243 
C 4410 -294 4461 -371 4480 -467 
C 5062 -403 5120 -205 5120 64 
L 5120 1907 
L 6022 1907 
C 6112 1907 6170 1933 6182 2003 
C 6003 2182 5702 2413 5702 2413 
L 5440 2093 
z
" transform="scale(0.015625)"/>
      </defs>
      <use xlink:href="#NotoSerifCJKjp-ExtraLight-90e8"/>
      <use xlink:href="#NotoSerifCJKjp-ExtraLight-5c07" x="99.999985"/>
     </g>
    </g>
   </g>
   <g id="text_20">
    <g clip-path="url(#pb0f17571ae)">
     <!-- 柳文通 -->
     <g transform="translate(2154.397138 541.32) scale(0.12 -0.12)">
      <defs>
       <path id="NotoSerifCJKjp-ExtraLight-67f3" d="M 1466 3667 
L 2227 3667 
C 2317 3667 2368 3699 2387 3770 
C 2208 3942 1926 4166 1926 4166 
L 1670 3859 
L 1466 3859 
L 1466 5082 
C 1619 5107 1670 5165 1690 5261 
L 1178 5318 
L 1178 3859 
L 301 3859 
L 352 3667 
L 1075 3667 
C 928 2739 653 1837 211 1101 
L 307 1018 
C 704 1542 979 2144 1178 2797 
L 1178 -467 
L 1242 -467 
C 1344 -467 1466 -397 1466 -339 
L 1466 2944 
C 1664 2694 1907 2349 1984 2093 
C 2317 1869 2554 2522 1466 3085 
L 1466 3667 
z
M 3552 2304 
C 3552 2061 3539 1830 3507 1606 
C 3251 1504 2982 1408 2733 1318 
L 2733 4563 
C 3104 4678 3565 4845 3821 4973 
C 3917 4928 4000 4934 4038 4986 
L 3648 5254 
C 3462 5107 3149 4934 2854 4787 
L 2445 4864 
L 2445 1222 
C 2234 1158 2048 1101 1901 1069 
L 2112 704 
C 2170 730 2208 781 2227 858 
C 2720 1056 3142 1274 3482 1459 
C 3341 710 2963 83 2093 -378 
L 2176 -474 
C 3526 160 3827 1152 3834 2304 
L 3834 4179 
C 3987 4205 4038 4262 4051 4352 
L 3552 4410 
L 3552 2304 
z
M 5690 5030 
L 5523 4819 
L 4742 4819 
L 4384 4986 
L 4384 -467 
L 4422 -467 
C 4563 -467 4666 -384 4666 -352 
L 4666 4627 
L 5587 4627 
L 5587 1254 
C 5587 1165 5562 1133 5472 1133 
C 5370 1133 4934 1171 4934 1171 
L 4934 1075 
C 5133 1050 5254 1011 5318 966 
C 5382 915 5408 832 5421 755 
C 5824 800 5869 960 5869 1222 
L 5869 4563 
C 5997 4589 6106 4640 6144 4691 
L 5690 5030 
z
" transform="scale(0.015625)"/>
       <path id="NotoSerifCJKjp-ExtraLight-6587" d="M 4570 3821 
C 4307 2886 3866 2067 3206 1389 
C 2547 2035 2067 2848 1786 3821 
L 4570 3821 
z
M 5939 3821 
C 6029 3821 6086 3853 6106 3923 
C 5907 4102 5594 4352 5594 4352 
L 5312 4013 
L 3341 4013 
L 3341 5107 
C 3494 5126 3565 5190 3578 5280 
L 3059 5338 
L 3059 4013 
L 314 4013 
L 371 3821 
L 1632 3821 
C 1894 2758 2355 1875 3002 1184 
C 2317 538 1427 19 307 -365 
L 358 -467 
C 1536 -122 2464 365 3187 992 
C 3872 320 4736 -160 5779 -474 
C 5843 -326 5984 -243 6131 -243 
L 6150 -173 
C 5062 96 4141 557 3411 1197 
C 4141 1907 4640 2778 4947 3821 
L 5939 3821 
z
" transform="scale(0.015625)"/>
       <path id="NotoSerifCJKjp-ExtraLight-901a" d="M 5363 3578 
L 5363 2810 
L 4083 2810 
L 4083 3578 
L 5363 3578 
z
M 4083 1830 
L 4083 2624 
L 5363 2624 
L 5363 1830 
L 4083 1830 
z
M 2547 1830 
L 2547 2624 
L 3802 2624 
L 3802 1830 
L 2547 1830 
z
M 3802 3578 
L 3802 2810 
L 2547 2810 
L 2547 3578 
L 3802 3578 
z
M 4986 4851 
C 4730 4653 4371 4416 4090 4256 
C 3840 4378 3469 4499 2931 4602 
L 2893 4486 
C 3514 4275 3981 4013 4230 3763 
L 2579 3763 
L 2266 3930 
L 2266 333 
L 2317 333 
C 2438 333 2547 410 2547 442 
L 2547 1638 
L 3802 1638 
L 3802 384 
L 3840 384 
C 3987 384 4083 467 4083 493 
L 4083 1638 
L 5363 1638 
L 5363 864 
C 5363 768 5338 736 5235 736 
C 5114 736 4576 781 4576 781 
L 4576 672 
C 4813 653 4954 608 5037 563 
C 5107 512 5139 429 5152 346 
C 5600 397 5651 563 5651 832 
L 5651 3514 
C 5773 3533 5888 3590 5926 3629 
L 5466 3981 
L 5299 3763 
L 4512 3763 
C 4557 3853 4506 4013 4211 4186 
C 4640 4352 5190 4602 5472 4819 
C 5613 4826 5696 4832 5747 4870 
L 5350 5254 
L 5126 5037 
L 2182 5037 
L 2240 4851 
L 4986 4851 
z
M 550 5088 
C 896 4813 1312 4314 1402 3923 
C 1786 3648 2016 4557 627 5146 
L 550 5088 
z
M 1478 2387 
C 1645 2413 1741 2464 1779 2502 
L 1318 2899 
L 1114 2630 
L 294 2630 
L 333 2438 
L 1197 2438 
L 1197 544 
C 864 314 486 70 256 -51 
L 525 -448 
C 576 -416 602 -378 582 -301 
C 800 -115 1158 237 1389 486 
C 1856 -173 2387 -307 3552 -307 
L 5894 -307 
C 5914 -166 6003 -90 6150 -70 
L 6150 26 
C 5370 0 4326 0 3546 0 
C 2451 0 1939 83 1478 621 
L 1478 2387 
z
" transform="scale(0.015625)"/>
      </defs>
      <use xlink:href="#NotoSerifCJKjp-ExtraLight-67f3"/>
      <use xlink:href="#NotoSerifCJKjp-ExtraLight-6587" x="99.999985"/>
      <use xlink:href="#NotoSerifCJKjp-ExtraLight-901a" x="199.999969"/>
     </g>
    </g>
    <g clip-path="url(#pb0f17571ae)">
     <!-- 獻納 -->
     <g transform="translate(2160.397138 555.96) scale(0.12 -0.12)">
      <defs>
       <path id="NotoSerifCJKjp-ExtraLight-737b" d="M 4979 4915 
C 5235 4717 5517 4339 5574 4045 
C 5901 3808 6138 4538 5056 4973 
L 4979 4915 
z
M 3142 3718 
C 3258 3808 3437 3981 3539 4096 
C 3648 4102 3725 4109 3770 4154 
L 3360 4557 
L 3149 4333 
L 2003 4333 
L 2003 4646 
L 3213 4646 
C 3302 4646 3360 4678 3373 4749 
C 3206 4909 2944 5120 2944 5120 
L 2720 4838 
L 2003 4838 
L 2003 5101 
C 2157 5120 2227 5184 2240 5274 
L 1722 5331 
L 1722 4333 
L 966 4333 
L 621 4506 
L 621 2854 
C 621 1824 627 672 243 -282 
L 352 -346 
C 902 602 902 1926 902 2854 
L 902 4141 
L 3162 4141 
C 3130 4006 3078 3853 3046 3763 
L 3142 3718 
z
M 966 3680 
L 1037 3501 
L 1638 3552 
L 1638 3373 
C 1638 3187 1696 3123 2016 3123 
L 2477 3117 
C 3162 3117 3283 3162 3283 3277 
C 3283 3334 3245 3354 3142 3386 
L 3130 3648 
L 3053 3648 
C 3021 3533 2982 3418 2950 3379 
C 2931 3354 2906 3354 2867 3347 
L 2477 3347 
L 2061 3347 
C 1907 3347 1894 3360 1894 3424 
L 1894 3571 
L 2765 3648 
C 2835 3654 2893 3699 2899 3770 
C 2778 3872 2560 4032 2560 4032 
L 2406 3808 
L 1894 3763 
L 1894 3942 
C 1984 3955 2048 4013 2054 4077 
L 1638 4141 
L 1638 3738 
L 966 3680 
z
M 1632 1926 
L 1632 2234 
L 2803 2234 
L 2803 1926 
L 1632 1926 
z
M 2842 1594 
C 2957 1594 3078 1677 3078 1702 
L 3078 2221 
C 3194 2240 3251 2278 3290 2323 
L 2931 2592 
L 2790 2419 
L 1709 2419 
L 1363 2586 
L 1363 1562 
L 1402 1562 
C 1536 1562 1632 1638 1632 1670 
L 1632 1734 
L 2803 1734 
L 2803 1594 
L 2842 1594 
z
M 2854 2848 
L 1075 2848 
L 1120 2662 
L 3258 2662 
C 3347 2662 3398 2694 3418 2765 
C 3270 2906 3053 3085 3053 3085 
L 2854 2848 
z
M 2720 314 
C 2797 314 2854 346 2867 416 
C 2758 538 2592 666 2592 666 
L 2451 506 
L 1523 506 
L 1574 314 
L 2016 314 
L 2016 -378 
L 2054 -378 
C 2202 -378 2304 -301 2304 -275 
L 2304 314 
L 2720 314 
z
M 3002 992 
C 2982 986 2944 979 2925 979 
L 2880 979 
L 2771 979 
L 2630 979 
C 2579 979 2566 998 2566 1050 
L 2566 1235 
L 3053 1235 
L 3053 992 
L 3002 992 
z
M 3334 1171 
C 3462 1190 3578 1248 3616 1293 
L 3155 1626 
L 2989 1427 
L 1357 1427 
L 1030 1574 
L 1030 -474 
L 1069 -474 
C 1210 -474 1312 -422 1312 -403 
L 1312 1235 
L 1747 1235 
C 1722 1037 1638 845 1370 659 
L 1472 563 
C 1856 736 1958 973 1997 1235 
L 2317 1235 
L 2317 986 
C 2317 826 2355 755 2566 755 
L 2752 755 
C 2886 755 2982 762 3053 768 
L 3053 45 
C 3053 -38 3034 -64 2957 -64 
C 2867 -64 2547 -38 2547 -38 
L 2547 -147 
C 2701 -166 2790 -198 2848 -243 
C 2906 -294 2925 -390 2931 -474 
C 3290 -429 3334 -262 3334 6 
L 3334 1171 
z
M 5952 3232 
C 6042 3232 6106 3264 6118 3334 
C 5933 3514 5638 3744 5638 3744 
L 5370 3424 
L 4678 3424 
C 4698 3949 4698 4499 4704 5056 
C 4858 5082 4909 5152 4922 5235 
L 4410 5293 
C 4410 4646 4416 4019 4397 3424 
L 3443 3424 
L 3494 3232 
L 4390 3232 
C 4333 1811 4109 576 3290 -352 
L 3398 -461 
C 4314 448 4576 1658 4659 3014 
C 4800 1574 5158 301 5901 -474 
C 5971 -365 6067 -301 6176 -314 
L 6202 -262 
C 5357 448 4928 1792 4787 3232 
L 5952 3232 
z
" transform="scale(0.015625)"/>
       <path id="NotoSerifCJKjp-ExtraLight-7d0d" d="M 1466 5338 
C 1280 4915 1050 4435 858 4096 
C 736 4173 582 4243 397 4307 
L 326 4250 
C 608 4051 941 3693 1024 3418 
C 1280 3251 1453 3648 979 4013 
C 1216 4301 1491 4685 1709 5024 
C 1837 5011 1920 5062 1939 5126 
L 1466 5338 
z
M 352 51 
C 608 416 819 966 960 1472 
C 1094 1472 1158 1523 1178 1600 
L 710 1728 
C 621 1139 442 525 243 109 
L 352 51 
z
M 1946 1734 
C 2099 1434 2285 947 2310 595 
C 2605 307 2906 992 2035 1766 
L 1946 1734 
z
M 1869 3117 
C 1978 2982 2093 2803 2195 2618 
C 1792 2592 1408 2573 1075 2560 
C 1523 3091 2010 3782 2310 4262 
C 2438 4243 2528 4282 2566 4358 
L 2093 4563 
C 1792 3974 1293 3149 896 2554 
C 640 2547 435 2541 288 2541 
L 461 2144 
C 518 2157 576 2189 608 2272 
C 890 2304 1146 2336 1376 2362 
L 1376 -467 
L 1414 -467 
C 1549 -467 1658 -390 1658 -358 
L 1658 2400 
C 1882 2426 2080 2451 2259 2477 
C 2323 2342 2368 2202 2387 2080 
C 2701 1824 2970 2522 1946 3162 
L 1869 3117 
z
M 5683 4339 
L 5523 4134 
L 4435 4134 
C 4448 4442 4454 4749 4461 5050 
C 4602 5069 4653 5133 4666 5216 
L 4160 5274 
C 4160 4896 4160 4512 4147 4134 
L 3098 4134 
L 2778 4307 
L 2778 -467 
L 2835 -467 
C 2963 -467 3066 -390 3066 -352 
L 3066 3949 
L 4134 3949 
C 4077 2886 3872 1875 3117 1101 
L 3219 998 
C 3827 1530 4128 2176 4282 2867 
C 4659 2432 5056 1818 5114 1344 
C 5466 1050 5702 1990 4314 3027 
C 4371 3328 4403 3642 4422 3949 
L 5581 3949 
L 5581 102 
C 5581 -6 5542 -45 5421 -45 
C 5286 -45 4608 13 4608 13 
L 4608 -96 
C 4890 -128 5069 -173 5165 -224 
C 5248 -275 5286 -358 5299 -448 
C 5811 -397 5862 -205 5862 58 
L 5862 3904 
C 5978 3923 6080 3968 6118 4019 
L 5683 4339 
z
" transform="scale(0.015625)"/>
      </defs>
      <use xlink:href="#NotoSerifCJKjp-ExtraLight-737b"/>
      <use xlink:href="#NotoSerifCJKjp-ExtraLight-7d0d" x="99.999985"/>
     </g>
    </g>
   </g>
   <g id="text_21">
    <g clip-path="url(#pb0f17571ae)">
     <!-- 李宜茂 -->
     <g transform="translate(2437.195642 541.32) scale(0.12 -0.12)">
      <defs>
       <path id="NotoSerifCJKjp-ExtraLight-8302" d="M 2054 4397 
L 2054 3706 
L 2099 3706 
C 2202 3706 2342 3750 2342 3802 
L 2342 4397 
L 4019 4397 
L 4019 3718 
L 4064 3718 
C 4211 3725 4301 3795 4301 3827 
L 4301 4397 
L 5920 4397 
C 6010 4397 6074 4429 6086 4493 
C 5907 4666 5594 4915 5594 4915 
L 5318 4582 
L 4301 4582 
L 4301 5107 
C 4461 5126 4512 5190 4525 5280 
L 4019 5331 
L 4019 4582 
L 2342 4582 
L 2342 5107 
C 2496 5126 2554 5190 2566 5280 
L 2054 5331 
L 2054 4582 
L 294 4582 
L 339 4397 
L 2054 4397 
z
M 4410 3923 
C 4659 3776 4960 3494 5043 3251 
C 5376 3072 5536 3763 4467 3987 
L 4410 3923 
z
M 6061 659 
L 5971 672 
C 5907 442 5811 186 5747 51 
C 5702 -58 5645 -58 5517 19 
C 5018 250 4608 582 4282 979 
C 4698 1344 5037 1734 5280 2138 
C 5434 2106 5491 2125 5536 2189 
L 5062 2432 
C 4838 2003 4512 1587 4115 1203 
C 3776 1677 3546 2227 3418 2778 
L 5901 2778 
C 5990 2778 6048 2810 6067 2880 
C 5862 3053 5562 3264 5562 3264 
L 5299 2970 
L 3379 2970 
C 3334 3219 3302 3469 3296 3712 
C 3437 3738 3488 3808 3501 3885 
L 2963 3942 
C 2970 3610 3008 3283 3066 2970 
L 1427 2970 
L 1082 3149 
L 1082 2112 
C 1082 1261 973 358 262 -397 
L 352 -486 
C 1274 269 1363 1344 1363 2118 
L 1363 2778 
L 3110 2778 
C 3258 2125 3520 1523 3891 1005 
C 3245 442 2426 -26 1517 -326 
L 1562 -429 
C 2534 -166 3379 269 4051 794 
C 4410 352 4864 -13 5402 -275 
C 5747 -461 6074 -563 6150 -390 
C 6182 -326 6163 -282 5978 -122 
L 6061 659 
z
" transform="scale(0.015625)"/>
      </defs>
      <use xlink:href="#NotoSerifCJKjp-ExtraLight-674e"/>
      <use xlink:href="#NotoSerifCJKjp-ExtraLight-5b9c" x="99.999985"/>
      <use xlink:href="#NotoSerifCJKjp-ExtraLight-8302" x="199.999969"/>
     </g>
    </g>
    <g clip-path="url(#pb0f17571ae)">
     <!-- 生員 -->
     <g transform="translate(2443.195642 555.96) scale(0.12 -0.12)">
      <use xlink:href="#NotoSerifCJKjp-ExtraLight-751f"/>
      <use xlink:href="#NotoSerifCJKjp-ExtraLight-54e1" x="99.999985"/>
     </g>
    </g>
   </g>
   <g id="text_22">
    <g clip-path="url(#pb0f17571ae)">
     <!-- 尹紹宗 -->
     <g transform="translate(740.404619 181.32) scale(0.12 -0.12)">
      <defs>
       <path id="NotoSerifCJKjp-ExtraLight-5c39" d="M 4845 1958 
L 3053 1958 
C 3123 2291 3149 2637 3149 2995 
L 3149 3232 
L 4845 3232 
L 4845 1958 
z
M 3149 4666 
L 4845 4666 
L 4845 3424 
L 3149 3424 
L 3149 4666 
z
M 5299 3424 
L 5126 3424 
L 5126 4602 
C 5254 4627 5357 4678 5402 4730 
L 4966 5069 
L 4781 4858 
L 992 4858 
L 1050 4666 
L 2861 4666 
L 2861 3424 
L 294 3424 
L 352 3232 
L 2861 3232 
L 2861 2982 
C 2861 2618 2835 2278 2771 1958 
L 864 1958 
L 922 1773 
L 2726 1773 
C 2496 954 1939 262 685 -333 
L 762 -442 
C 2170 102 2771 877 3008 1773 
L 4845 1773 
L 4845 1331 
L 4877 1331 
C 4979 1331 5120 1414 5126 1453 
L 5126 3232 
L 5990 3232 
C 6080 3232 6138 3264 6157 3334 
C 5946 3533 5600 3795 5600 3795 
L 5299 3424 
z
" transform="scale(0.015625)"/>
       <path id="NotoSerifCJKjp-ExtraLight-7d39" d="M 1376 5338 
C 1210 4922 1005 4461 838 4122 
C 710 4205 550 4282 352 4346 
L 282 4288 
C 563 4090 896 3731 979 3456 
C 1235 3290 1402 3674 960 4032 
C 1184 4320 1434 4704 1632 5030 
C 1760 5018 1837 5069 1862 5139 
L 1376 5338 
z
M 339 32 
C 614 397 832 947 986 1459 
C 1107 1459 1178 1510 1203 1581 
L 704 1728 
C 614 1133 435 512 237 90 
L 339 32 
z
M 1888 3194 
C 2010 3040 2150 2835 2259 2624 
C 1843 2598 1440 2579 1094 2566 
C 1549 3123 2048 3814 2355 4314 
C 2490 4294 2579 4339 2618 4410 
L 2144 4621 
C 1830 4013 1325 3181 896 2554 
C 627 2547 403 2541 250 2541 
L 416 2144 
C 474 2157 531 2189 563 2272 
C 877 2304 1165 2342 1421 2374 
L 1421 -467 
L 1459 -467 
C 1594 -467 1702 -390 1702 -358 
L 1702 2406 
C 1939 2438 2144 2470 2323 2496 
C 2381 2362 2426 2240 2445 2125 
C 2765 1869 3027 2579 1965 3238 
L 1888 3194 
z
M 2042 1709 
C 2208 1389 2413 870 2445 499 
C 2752 218 3046 922 2131 1741 
L 2042 1709 
z
M 5568 4742 
C 5523 3795 5434 3168 5299 3040 
C 5242 2989 5190 2976 5075 2976 
C 4947 2976 4499 3014 4250 3040 
L 4250 2918 
C 4461 2893 4723 2842 4806 2790 
C 4883 2752 4909 2662 4909 2579 
C 5120 2579 5331 2643 5466 2765 
C 5690 2970 5798 3654 5843 4717 
C 5971 4736 6048 4762 6093 4806 
L 5690 5133 
L 5510 4928 
L 2822 4928 
L 2880 4742 
L 3962 4742 
C 3917 4038 3757 3226 2822 2566 
L 2918 2464 
C 3994 3110 4205 3968 4275 4742 
L 5568 4742 
z
M 3456 205 
L 3456 1933 
L 5434 1933 
L 5434 205 
L 3456 205 
z
M 5414 2118 
L 3533 2118 
L 3181 2285 
L 3181 -435 
L 3213 -435 
C 3360 -435 3456 -352 3456 -326 
L 3456 13 
L 5434 13 
L 5434 -397 
L 5472 -397 
C 5594 -397 5715 -314 5715 -288 
L 5715 1914 
C 5837 1933 5907 1958 5952 2010 
L 5568 2310 
L 5414 2118 
z
" transform="scale(0.015625)"/>
       <path id="NotoSerifCJKjp-ExtraLight-5b97" d="M 5466 4250 
C 5376 4019 5254 3725 5158 3546 
L 5248 3494 
C 5453 3674 5722 3987 5862 4198 
C 5984 4205 6061 4218 6106 4262 
L 5690 4672 
L 5459 4442 
L 3334 4442 
L 3334 5120 
C 3488 5139 3558 5203 3571 5293 
L 3053 5350 
L 3053 4442 
L 1146 4442 
C 1139 4544 1120 4659 1088 4781 
L 966 4774 
C 1011 4307 787 3891 512 3731 
C 410 3661 339 3552 397 3456 
C 461 3341 666 3379 800 3482 
C 966 3603 1139 3853 1152 4250 
L 5466 4250 
z
M 1402 3386 
L 1453 3194 
L 4883 3194 
C 4973 3194 5030 3226 5050 3296 
C 4864 3469 4563 3680 4563 3680 
L 4307 3386 
L 1402 3386 
z
M 1754 1542 
C 1478 992 877 275 250 -154 
L 314 -237 
C 1030 134 1664 755 1997 1254 
C 2144 1222 2195 1248 2240 1318 
L 1754 1542 
z
M 4179 1446 
C 4723 1062 5427 365 5606 -173 
C 6042 -448 6176 627 4256 1510 
L 4179 1446 
z
M 5299 2291 
L 326 2291 
L 384 2099 
L 3053 2099 
L 3053 38 
C 3053 -51 3021 -83 2893 -83 
C 2765 -83 2099 -38 2099 -38 
L 2099 -141 
C 2381 -166 2560 -198 2656 -256 
C 2733 -301 2778 -384 2778 -467 
C 3264 -410 3334 -224 3334 32 
L 3334 2099 
L 5920 2099 
C 6010 2099 6074 2131 6086 2202 
C 5882 2374 5574 2605 5574 2605 
L 5299 2291 
z
" transform="scale(0.015625)"/>
      </defs>
      <use xlink:href="#NotoSerifCJKjp-ExtraLight-5c39"/>
      <use xlink:href="#NotoSerifCJKjp-ExtraLight-7d39" x="99.999985"/>
      <use xlink:href="#NotoSerifCJKjp-ExtraLight-5b97" x="199.999969"/>
     </g>
    </g>
    <g clip-path="url(#pb0f17571ae)">
     <!-- 判書 -->
     <g transform="translate(746.404619 195.96) scale(0.12 -0.12)">
      <defs>
       <path id="NotoSerifCJKjp-ExtraLight-5224" d="M 3315 4998 
C 3110 4467 2829 3878 2624 3507 
L 2726 3443 
C 3008 3763 3328 4250 3597 4678 
C 3718 4666 3795 4717 3827 4787 
L 3315 4998 
z
M 467 4909 
C 691 4557 992 3981 1030 3565 
C 1344 3277 1600 4051 557 4947 
L 467 4909 
z
M 3219 1818 
L 2195 1818 
L 2195 2976 
L 3635 2976 
C 3718 2976 3782 3008 3795 3078 
C 3622 3245 3347 3469 3347 3469 
L 3104 3168 
L 2195 3168 
L 2195 5075 
C 2355 5101 2400 5165 2419 5254 
L 1914 5312 
L 1914 3168 
L 435 3168 
L 486 2976 
L 1914 2976 
L 1914 1818 
L 230 1818 
L 275 1626 
L 1914 1626 
L 1914 -467 
L 1965 -467 
C 2074 -467 2195 -397 2195 -339 
L 2195 1626 
L 3789 1626 
C 3878 1626 3936 1658 3955 1728 
C 3770 1907 3475 2131 3475 2131 
L 3219 1818 
z
M 4179 4774 
L 4179 755 
L 4237 755 
C 4346 755 4461 832 4461 883 
L 4461 4538 
C 4621 4557 4678 4621 4698 4710 
L 4179 4774 
z
M 5498 5210 
L 5498 83 
C 5498 -26 5459 -70 5325 -70 
C 5197 -70 4493 -13 4493 -13 
L 4493 -115 
C 4787 -154 4966 -186 5069 -243 
C 5152 -301 5190 -384 5216 -474 
C 5722 -416 5779 -224 5779 51 
L 5779 4973 
C 5933 4992 5997 5056 6016 5146 
L 5498 5210 
z
" transform="scale(0.015625)"/>
      </defs>
      <use xlink:href="#NotoSerifCJKjp-ExtraLight-5224"/>
      <use xlink:href="#NotoSerifCJKjp-ExtraLight-66f8" x="99.999985"/>
     </g>
    </g>
   </g>
  </g>
 </g>
 <defs>
  <clipPath id="pb0f17571ae">
   <rect x="360" y="129.6" width="2232" height="831.6"/>
  </clipPath>
 </defs>
</svg>
